<svg width="112" height="86" viewBox="0 0 112 86" fill="none" xmlns="http://www.w3.org/2000/svg">
<path d="M0.080307 49.2106C0.18103 49.5128 0.63427 50.218 0.835709 50.2684C0.88607 50.2684 0.93644 50.3691 0.93644 50.4699C0.986801 50.5706 1.03716 50.6714 1.13788 50.7217C1.2386 50.7721 1.44003 50.9736 1.59112 51.1751C1.7422 51.4269 2.14508 51.7292 2.4976 51.981C3.10193 52.384 3.15229 52.384 3.15229 52.2329C3.15229 52.0817 3.1523 52.0817 3.30338 52.3336C3.35374 52.4847 3.45446 52.5351 3.45446 52.5351C3.50482 52.4847 3.75661 52.6358 4.10914 52.8877C4.86454 53.3914 4.76383 53.341 5.72068 53.744C6.325 53.9958 6.62717 54.0966 6.97968 54.0966C7.23149 54.0966 7.43293 54.0966 7.48329 54.1469C7.53365 54.1973 7.68473 54.1973 7.83582 54.1469C8.13798 54.0966 9.29626 54.3484 9.29626 54.3988C9.29626 54.4492 9.2459 54.6003 9.19554 54.7514C9.14518 54.9025 9.09482 55.1544 9.14518 55.2551C9.19554 55.3558 9.14518 55.507 9.09482 55.5573C9.04446 55.6077 8.99409 55.8596 9.04446 56.061C9.14518 56.5647 9.09482 56.8166 8.94374 56.8166C8.84302 56.8166 8.79266 56.9173 8.79266 57.1692C8.79266 57.3707 8.74229 57.6225 8.64157 57.7233C8.59121 57.824 8.54086 57.9751 8.59122 58.0255C8.64158 58.0759 8.59122 58.1766 8.54086 58.227C8.49049 58.2774 8.44013 58.4285 8.44013 58.6299C8.44013 58.8314 8.38978 58.9825 8.23869 59.0833C8.08762 59.184 8.08761 59.2848 8.13797 59.3351C8.18833 59.3855 8.13797 59.5366 8.03725 59.7381C7.93653 59.8892 7.88617 60.0403 7.93653 60.0403C8.03725 60.0403 7.88618 60.8966 7.73509 61.1485C7.68473 61.1989 7.68473 61.4003 7.68473 61.6018C7.68473 61.8537 7.63437 61.904 7.53365 61.904C7.33221 61.8537 7.28185 62.0048 7.38256 62.307C7.43292 62.4581 7.43292 62.6092 7.38256 62.6092C7.33221 62.6092 7.33221 62.6596 7.38256 62.71C7.43292 62.7604 7.43292 62.8107 7.38256 62.9115C7.28185 63.0122 7.23148 63.2641 7.28185 63.5663C7.28185 63.667 7.23148 63.7678 7.18112 63.8181C7.13077 63.8685 7.08041 64.0196 7.08041 64.1204C7.08041 64.2715 7.08041 64.3722 6.92932 64.3722C6.77824 64.4226 6.77824 64.473 6.87896 64.5737C6.92932 64.6744 6.97968 64.7752 6.92932 64.8256C6.87896 64.8759 6.92933 64.9767 6.97968 65.0774C7.03004 65.1278 7.08041 65.2285 7.03004 65.2789C6.97968 65.3293 7.0804 65.43 7.38256 65.6315C7.63437 65.7826 7.83582 65.9337 7.83582 65.9841C7.83582 66.0345 7.98689 66.1352 8.18833 66.1856C8.33942 66.2359 8.49049 66.3367 8.44013 66.3367C8.38978 66.4374 8.84302 66.7396 8.94374 66.6893C8.9941 66.6893 9.04446 66.6893 9.09482 66.7396C9.14518 66.79 9.34663 66.9411 9.59843 67.0922C10.0013 67.2937 10.0517 67.3441 10.3538 67.193C10.656 67.0922 10.656 67.0922 10.656 67.2434C10.6056 67.4448 10.8574 67.6967 11.1092 67.6463C11.21 67.6463 11.4114 67.6967 11.5625 67.7471C11.8143 67.8982 11.8646 67.8478 12.0661 67.6463C12.2172 67.4952 12.3179 67.3945 12.3682 67.4448C12.4186 67.4448 12.5193 67.3945 12.62 67.2937C12.7208 67.193 12.8215 67.1426 12.8718 67.1426C13.1237 67.2434 13.1236 67.2434 13.0733 67.0922C13.0229 66.9411 13.0733 66.8908 13.2747 66.7396C13.4258 66.6389 13.5265 66.5382 13.4258 66.4878C13.3755 66.4374 13.4258 66.3871 13.4762 66.2863C13.6273 66.4374 13.8287 66.5885 14.2819 66.9915C14.7855 67.3945 15.0877 67.5456 15.4402 67.5959C15.692 67.6463 15.9438 67.6967 15.9942 67.7471C16.0446 67.7974 16.1956 67.8478 16.3971 67.8478C16.6992 67.8478 17.8575 68.3011 17.8575 68.4019C17.8575 68.4523 17.7065 68.6034 17.5554 68.8048C17.4043 69.0063 17.2532 69.2582 17.2532 69.4093C17.2532 69.5604 17.1525 69.7115 17.0518 69.7619C16.951 69.8123 16.8 70.0641 16.7496 70.3663C16.5985 70.9708 16.4474 71.3234 16.2964 71.273C16.1956 71.273 16.0949 71.3738 15.9942 71.6256C15.8935 71.8775 15.692 72.1293 15.5913 72.2804C15.4402 72.3812 15.3899 72.5827 15.3899 72.633C15.3899 72.6834 15.3395 72.8345 15.2388 72.8849C15.1381 72.9353 14.987 73.1367 14.9366 73.3382C14.8359 73.5397 14.7352 73.7412 14.5337 73.8419C14.3323 73.9427 14.2316 74.0434 14.2819 74.1442C14.3323 74.1945 14.1812 74.396 13.9798 74.5975C13.7783 74.799 13.6776 74.9501 13.728 74.9501C13.8287 74.9501 13.2747 75.9575 12.9726 76.2597C12.9222 76.3101 12.7711 76.562 12.7208 76.8138C12.62 77.116 12.5193 77.2168 12.4186 77.1664C12.2172 77.0657 12.1164 77.2671 12.0661 77.6701C12.0661 77.8716 12.0157 78.0227 11.915 78.0731C11.8646 78.0731 11.8143 78.1738 11.8646 78.1738C11.915 78.2242 11.8646 78.3249 11.8143 78.3753C11.6632 78.5264 11.5121 78.7783 11.4114 79.1812C11.361 79.282 11.2603 79.4331 11.21 79.4835C11.1092 79.5338 11.0085 79.6849 10.9582 79.8361C10.9078 80.0375 10.8071 80.0879 10.656 80.1383C10.4546 80.1887 10.4546 80.1887 10.5049 80.3901C10.5553 80.4909 10.5049 80.642 10.4546 80.7427C10.4042 80.7931 10.3538 80.9442 10.4042 81.045C10.4546 81.1457 10.4546 81.2464 10.3538 81.2968C10.2531 81.3975 10.3538 81.4983 10.6056 81.7501C10.8071 81.9516 10.9582 82.1531 10.9582 82.2035C10.9582 82.3042 11.0589 82.405 11.21 82.5057C11.361 82.6064 11.4618 82.7072 11.4114 82.7576C11.3107 82.8583 11.6632 83.3116 11.7639 83.2613C11.8143 83.2613 11.915 83.3116 11.915 83.362C11.915 83.4124 12.1164 83.6642 12.3179 83.8657C12.62 84.1679 12.7208 84.2183 13.0733 84.1176C13.4258 84.0168 13.4762 84.0168 13.3251 84.2183C13.174 84.4702 13.3251 84.7724 13.6273 84.722C13.728 84.722 13.9294 84.8228 14.0805 84.9235C14.2819 85.125 14.3323 85.125 14.6848 84.8731C14.8863 84.722 15.0877 84.6213 15.1381 84.6717C15.1884 84.722 15.3395 84.6717 15.4402 84.5205C15.5913 84.4198 15.7424 84.3694 15.7928 84.4198C15.9942 84.5709 16.0446 84.5709 16.0446 84.3694C16.0446 84.2183 16.1453 84.1176 16.3971 84.0168C16.6489 83.9161 16.7496 83.8153 16.6992 83.765C16.6489 83.6642 17.1021 83.2109 17.3036 83.2613C17.3539 83.2613 17.4546 83.2109 17.505 83.1605C17.5554 83.1102 17.5554 83.0094 17.505 83.0094C17.4546 83.0094 17.505 82.9087 17.6057 82.8583C17.7568 82.7576 17.8575 82.8079 17.9079 82.9087C17.9583 83.0598 18.0086 83.0094 18.2604 82.7072C18.4115 82.5057 18.5626 82.3546 18.6129 82.3546C18.7137 82.3546 18.8144 82.2035 18.8647 81.9013C19.0158 81.4479 19.6201 80.642 19.7712 80.7427C19.8216 80.7931 20.023 80.5916 20.3252 80.2894C20.577 80.0375 20.8792 79.7857 20.9799 79.7353C21.0806 79.6849 21.0806 79.6346 21.0302 79.5842C20.7784 79.4331 21.7353 78.2242 21.9871 78.3753C22.0878 78.4257 22.0878 78.476 22.0374 78.5768C21.9367 78.6775 22.0878 78.9294 22.3396 79.1309C22.39 79.1812 22.3396 79.2316 22.2892 79.282C22.2389 79.3323 22.2892 79.3323 22.39 79.282C22.5914 79.1812 22.5914 79.2316 22.6418 79.5842C22.6921 79.9872 22.7425 80.0879 22.8936 79.9368C22.9439 79.8864 23.095 79.8361 23.1957 79.8361C23.3468 79.8361 23.3468 79.8864 23.1957 80.0879C23.095 80.239 23.0447 80.3901 23.095 80.4405C23.2965 80.4405 23.2965 80.5412 23.2965 80.5916C23.2965 80.7427 23.7497 81.045 23.8001 80.9442C23.8504 80.8938 23.8504 80.8435 23.8504 80.7427C23.8504 80.6924 23.8504 80.5916 23.9008 80.5412C23.9511 80.4909 24.0015 80.5412 23.9511 80.642C23.9511 80.7427 23.9511 80.7931 24.0015 80.7427C24.0519 80.6924 24.1526 80.6924 24.2533 80.7931C24.354 80.8938 24.354 80.9946 24.354 81.045C24.3037 81.0953 24.2029 81.0953 24.1526 80.9946C24.1022 80.9442 23.9511 80.9442 23.9008 80.9946C23.8001 81.0953 23.8001 81.1457 23.9511 81.0953C24.0519 81.0953 24.1526 81.0953 24.2029 81.1457C24.2533 81.1961 24.354 81.1457 24.5051 81.0953C24.7569 80.9946 24.7569 80.9946 24.6562 81.1961C24.5555 81.3472 24.6058 81.4983 24.8073 81.6998C24.9583 81.8509 25.0591 81.9516 25.1094 81.9013C25.1094 81.8509 25.2102 81.8509 25.3109 81.9516C25.462 82.0524 25.462 82.1027 25.3109 82.1027C25.1094 82.1027 24.908 82.2539 25.0087 82.3546C25.1094 82.4553 25.6634 82.2035 25.6634 82.1027C25.613 81.9516 25.8145 81.599 25.8648 81.7501C25.8648 81.8005 25.9656 81.8509 26.0159 81.8005C26.167 81.7501 25.6634 82.5057 25.5123 82.6064C25.4619 82.6568 25.5123 82.7072 25.5627 82.7576C25.7138 82.9087 25.8648 82.7576 25.7641 82.6064C25.7138 82.5561 25.7641 82.4553 25.8145 82.4553C25.9152 82.405 25.9656 82.5561 25.9656 82.8079C25.9656 83.1102 26.0159 83.2109 26.167 83.2109C26.3181 83.2109 26.3181 83.1605 26.2174 83.0598C26.1166 82.959 26.1166 82.9087 26.2174 82.9087C26.3181 82.9087 26.3181 82.8583 26.2174 82.8583C26.1166 82.8583 26.1166 82.7072 26.167 82.6064C26.2174 82.405 26.2677 82.405 26.3684 82.4553C26.4188 82.5057 26.4692 82.6568 26.4692 82.7576C26.4692 82.9087 26.5195 82.9087 26.6706 82.8583C26.7713 82.8079 26.872 82.8079 26.9728 82.9087C27.1238 83.0598 27.8289 82.6568 27.7785 82.5057C27.7282 82.3546 28.2318 82.1531 28.5339 82.2035C28.685 82.2035 28.7857 82.2035 28.7857 82.1027C28.7857 82.0524 28.685 82.002 28.5843 82.002C28.4332 82.0524 28.3829 82.002 28.3829 81.8005C28.3829 81.599 28.3325 81.5487 28.1311 81.599C27.7785 81.6998 27.4764 81.9516 27.5771 82.0524C27.6274 82.1027 27.6274 82.1531 27.5267 82.1531C27.2749 82.2035 27.2749 82.0524 27.5267 81.8509C27.6778 81.7501 27.7282 81.599 27.7282 81.599C27.6778 81.5487 27.6274 81.5487 27.5771 81.599C27.5267 81.6494 27.426 81.6998 27.3756 81.7501C27.2749 81.8005 27.2246 81.9516 27.2246 82.0524C27.2246 82.1531 27.1742 82.2539 27.0735 82.3042C26.8217 82.405 26.7713 82.2539 26.9728 82.0524C27.0735 81.9516 27.1238 81.8005 27.1238 81.6494C27.1238 81.4983 27.1742 81.3975 27.3756 81.2968C27.6274 81.1457 27.6274 81.1457 27.3756 81.1457C27.1742 81.1457 27.1742 81.0953 27.3253 80.9442C27.426 80.8435 27.426 80.7427 27.3253 80.6924C27.2246 80.642 27.2246 80.5916 27.3253 80.5412C27.426 80.4909 27.5267 80.5412 27.5267 80.5916C27.5267 80.642 27.6274 80.642 27.6778 80.5916C27.8792 80.3901 28.2318 80.8938 28.0303 81.1457C27.6778 81.5487 27.8289 81.6494 28.3325 81.3975C28.9368 81.1457 29.0879 81.1961 28.8865 81.5487C28.7857 81.7501 28.7857 81.8005 28.9368 81.8005C29.0879 81.8005 29.1383 81.8509 29.0375 81.9013C28.9872 81.9516 28.9872 82.002 29.0879 82.002C29.1383 82.002 29.1383 82.1027 29.0879 82.1531C29.0375 82.2035 29.0375 82.3042 29.0879 82.3042C29.1383 82.3042 29.239 82.2539 29.2893 82.2035C29.3901 82.002 29.8433 82.002 29.7426 82.2035C29.6922 82.3042 29.7426 82.3042 29.8433 82.2035C29.944 82.1027 29.944 82.0524 29.7929 81.9516C29.5411 81.8005 29.4908 81.599 29.6922 81.5487C29.7929 81.5487 29.8937 81.4479 29.9944 81.3975C30.1958 81.1961 30.3973 81.3472 30.2462 81.599C30.1455 81.8005 30.1455 81.8005 30.3973 81.9013C30.5484 81.9516 30.7498 81.9013 30.8001 81.8005C30.8505 81.6998 31.052 81.6494 31.203 81.6494C31.5556 81.6998 31.757 81.5487 31.6563 81.2968C31.6059 81.1961 31.6059 81.0953 31.6563 80.9946C31.7066 80.8938 31.757 80.8938 31.8074 80.9946C31.9081 81.1961 32.2606 81.2968 32.2606 81.1457C32.2606 81.0953 32.4117 80.8938 32.6131 80.6924C32.8146 80.4909 33.1167 80.1887 33.2678 79.9872C33.5196 79.6849 33.5196 79.5842 33.3685 79.5338C33.1671 79.3827 33.1671 79.3827 33.5196 79.2316C33.8721 79.1309 33.9729 78.7783 33.7211 78.6775C33.4693 78.5768 33.6203 78.3753 33.8721 78.476C34.0232 78.5264 34.1743 78.5264 34.2247 78.4257C34.3254 78.3753 34.4765 78.2242 34.6779 78.0731C34.9297 77.922 34.9801 77.8212 34.8793 77.7205C34.829 77.6701 34.7283 77.6701 34.6275 77.7205C34.5772 77.7709 34.4261 77.8716 34.3757 77.922C34.275 77.9723 34.1743 78.0227 34.1239 78.0731C34.0736 78.1234 33.9729 78.1234 33.9225 78.0731C33.8721 78.0227 33.9729 77.922 34.0736 77.8716C34.2247 77.8212 34.3254 77.6701 34.275 77.6197C34.275 77.519 34.1743 77.519 34.0232 77.5694C33.7714 77.6701 33.6203 77.5694 33.7714 77.4183C33.8218 77.3679 33.8721 77.2671 33.8218 77.1664C33.7714 77.0657 33.8218 77.0657 33.9225 77.1664C33.9729 77.2168 34.1743 77.2671 34.275 77.2168C34.4765 77.116 34.4765 77.1664 34.4261 77.2671C34.3757 77.4183 34.4261 77.4183 34.5268 77.3175C34.6275 77.2168 34.7283 77.2671 34.7786 77.3679C34.829 77.4686 34.9801 77.5694 35.1311 77.5694C35.4333 77.6197 35.3829 77.4686 35.0304 77.2671C34.829 77.1664 34.7786 77.116 34.8793 76.9145C34.9297 76.8138 35.1311 76.6123 35.2319 76.5116C35.4837 76.2597 35.4837 76.0582 35.1815 76.159C35.0808 76.2094 34.9297 76.2094 34.9297 76.1086C34.8793 76.0582 34.829 75.8568 34.7786 75.756C34.7283 75.6049 34.7786 75.5042 34.9801 75.4034C35.1311 75.3531 35.3829 75.1516 35.5844 75.0508C35.8362 74.8493 35.8866 74.799 35.7858 74.7486C35.5844 74.6479 35.6851 74.4464 35.9873 74.4464C36.1887 74.4464 36.2391 74.4967 36.1887 74.6479C36.1384 74.7486 36.1384 74.8997 36.1887 74.8997C36.2391 74.9501 36.2894 74.8493 36.2894 74.7486C36.2894 74.5975 36.3398 74.4464 36.3902 74.396C36.5412 74.2449 36.4909 74.1945 36.3398 74.2953C36.1887 74.396 36.088 74.3456 36.088 74.1945C36.088 74.1442 36.1887 74.0938 36.2894 74.0938C36.4405 74.0938 36.4405 74.0434 36.3902 73.993C36.2894 73.8419 36.9945 73.2375 37.1959 73.3382C37.2966 73.3886 37.347 73.3382 37.347 73.2879C37.347 73.1871 37.2966 73.1871 37.1959 73.1871C36.9945 73.2879 36.8434 73.036 36.9945 72.8345C37.0448 72.7338 37.1456 72.6834 37.1456 72.7338C37.1456 72.8849 37.5988 72.9856 37.6995 72.8849C37.8003 72.7841 37.8002 72.7841 37.6492 72.7841C37.4981 72.7841 37.4477 72.7841 37.5484 72.633C37.5988 72.5323 37.8002 72.4819 38.052 72.4819C38.4046 72.4819 38.5556 72.4315 38.8578 72.1293L39.2607 71.7767L38.9082 71.8775C38.6564 71.9782 38.5053 72.0286 38.4549 72.2301C38.3542 72.4315 38.3542 72.4315 38.2031 72.2301C38.0521 72.0286 38.052 71.9782 38.4046 71.6256C38.606 71.4241 38.8578 71.1723 39.0089 71.0715C39.16 70.9708 39.3111 70.8197 39.3614 70.6182C39.4621 70.316 39.4621 70.316 39.7139 70.316C40.0161 70.316 40.5197 69.913 40.419 69.8123C40.3686 69.7619 40.2679 69.8123 40.2176 69.8626C40.0665 69.9634 40.0665 69.9634 40.1168 69.8123C40.1672 69.7115 40.1168 69.6612 40.1168 69.7115C40.0665 69.7619 40.0665 69.7115 40.0665 69.6108C40.0665 69.4597 40.1168 69.4093 40.2679 69.4093C40.5197 69.4093 40.7212 69.1071 40.5197 69.0567C40.419 69.0063 40.4693 68.956 40.6204 68.9056C40.7715 68.8552 40.8219 68.8048 40.7212 68.7545C40.6708 68.7545 40.6708 68.6034 40.7212 68.5026C40.8219 68.3011 40.8219 68.3011 40.6204 68.3011C40.3686 68.3011 40.3686 68.3011 40.6204 68.0997C40.7715 67.9989 40.8722 67.8982 40.9226 67.8478C40.973 67.7974 41.0233 67.8478 41.0737 67.8478C41.124 67.8982 41.124 67.9485 41.0233 68.0493C40.8722 68.15 40.9226 68.15 41.0737 68.15C41.1744 68.15 41.4262 67.9485 41.6276 67.7471C42.0809 67.2937 42.383 67.0922 42.4334 67.3441C42.4838 67.4448 42.5341 67.4448 42.6348 67.3441C42.7356 67.2937 42.937 67.2434 43.0377 67.2937C43.2895 67.3441 43.2895 67.3441 43.2392 67.193C43.1888 67.0922 43.0881 66.9915 42.9874 66.9915C42.8867 66.9915 42.8867 66.9411 42.9874 66.8908C43.0881 66.79 43.3903 66.7396 43.6421 66.6893C43.8939 66.6893 44.0953 66.6389 43.9946 66.5885C43.7931 66.5382 44.196 66.0848 44.5485 65.9841C44.75 65.9337 44.8507 65.833 44.8003 65.7826C44.75 65.7322 44.8507 65.6315 44.9514 65.5811C45.1025 65.5307 45.1529 65.43 45.1529 65.3796C45.1025 65.3293 45.2032 65.2285 45.3039 65.0774C45.4047 64.9767 45.3543 65.027 45.1529 65.2285C44.8507 65.5307 44.75 65.5811 44.6493 65.43C44.4982 65.2789 44.6493 64.9767 44.9011 64.9767C45.0521 64.9767 45.1025 64.9263 45.2032 64.6744C45.2536 64.473 45.5054 64.1707 45.8075 63.8685C46.1097 63.5663 46.3112 63.3648 46.3112 63.2641C46.3112 63.2137 46.2104 63.1633 46.1097 63.2137C46.0594 63.2641 45.9586 63.2641 45.9083 63.2137C45.8075 63.1129 46.563 62.5085 46.714 62.6092C46.8651 62.71 48.0234 62.0048 47.9227 61.8537C47.8723 61.8033 47.9227 61.7026 48.0738 61.6522C48.2752 61.5515 48.2752 61.5515 48.0234 61.5515C47.7716 61.5515 47.7716 61.5515 47.973 61.4003C48.0738 61.2996 48.1745 61.1989 48.1745 61.1485C48.0738 60.9974 48.6277 60.7959 48.8292 60.8966C48.9803 60.947 49.1313 60.8966 49.2824 60.7455C49.3831 60.6448 49.4335 60.4937 49.3831 60.4937C49.2824 60.4433 49.3328 60.3929 49.5342 60.2922C49.6853 60.2418 49.786 60.1411 49.7357 60.1411C49.6349 60.1411 49.6853 59.587 49.786 59.5366C49.8364 59.4862 49.9371 59.587 49.9875 59.7381C50.0882 60.0403 50.2896 59.99 50.3904 59.6374C50.4407 59.4863 50.4407 59.4863 50.2393 59.4863C49.786 59.5366 50.3904 58.8314 50.9443 58.6803C51.0954 58.6299 51.4479 58.4285 51.6997 58.2774C52.2033 57.8744 52.3544 57.8744 52.3544 58.3277C52.3544 58.6803 52.2537 58.7307 51.8004 58.8314C51.4983 58.8818 51.4479 58.9322 51.4479 59.0329C51.4479 59.1337 51.3976 59.184 51.1458 59.184C50.9947 59.184 50.8436 59.0833 50.8436 59.0329C50.8436 58.9825 50.7429 58.9825 50.6925 59.0329C50.5918 59.1337 50.5918 59.184 50.7429 59.2344C50.8436 59.2848 50.9443 59.3855 50.9947 59.5366C51.045 59.6374 51.0954 59.6877 51.1458 59.6877C51.1961 59.6374 51.2968 59.6877 51.2968 59.7381C51.3472 59.8388 51.3472 59.8388 51.1961 59.8388C50.9443 59.7885 50.7429 59.9396 50.894 60.0907C50.9443 60.1411 50.9443 60.2418 50.8436 60.2922C50.7429 60.3426 50.7429 60.4937 50.7932 60.5944C50.894 60.7959 50.9443 60.7959 51.3472 60.6448L51.7501 60.4937H51.3976C50.9443 60.4937 50.9947 60.2922 51.5486 60.0403C51.9012 59.8892 52.0019 59.8388 51.9515 59.6877C51.9515 59.587 52.0019 59.4862 52.0522 59.4359C52.153 59.3855 52.2033 59.3855 52.2033 59.4863C52.2033 59.587 52.304 59.6374 52.4048 59.6374C52.6566 59.6374 52.7069 59.5366 52.6062 59.4359C52.5558 59.3855 52.6062 59.2848 52.7069 59.2344C52.9587 59.0833 53.2105 58.6803 53.0594 58.6299C52.9084 58.5796 53.2105 58.227 53.4623 58.1262C53.6134 58.0759 53.6638 58.0255 53.5631 57.9751C53.5127 57.9248 53.4623 57.8744 53.5127 57.8744C53.5631 57.824 53.6134 57.824 53.6638 57.8744C53.7141 57.9248 53.7645 57.9248 53.8149 57.9248C53.8652 57.8744 53.8149 57.7736 53.7645 57.7233C53.6638 57.6225 53.6638 57.5722 53.7645 57.5218C53.8652 57.5218 53.9156 57.421 53.8652 57.3203C53.8149 57.2196 53.9156 57.1188 54.117 57.0181C54.4192 56.867 54.4192 56.867 54.2177 56.8166C54.0163 56.7662 54.0163 56.7662 54.2681 56.6655C54.5199 56.6151 54.5199 56.5647 54.4192 56.5144C54.3185 56.464 54.3185 56.3633 54.4192 56.3129C54.5199 56.2625 54.6206 56.2625 54.671 56.3129C54.7717 56.3633 54.8221 56.3129 54.8221 56.1114C54.8724 55.8596 54.8724 55.8596 54.7213 55.9603C54.6206 56.0107 54.5703 56.0107 54.5703 55.9603C54.5703 55.8092 55.1242 55.507 55.3257 55.5573C55.376 55.5573 55.5271 55.5573 55.6782 55.5573C55.93 55.5573 55.9804 55.507 55.9804 55.3055C55.9804 55.1544 56.1314 54.9529 56.2825 54.8521C56.4336 54.7514 56.484 54.6507 56.3832 54.701C56.1818 54.8018 56.0811 54.701 56.1314 54.4492C56.2322 54.1973 56.5847 53.9455 56.8868 53.9455C57.1386 53.9455 57.6926 53.5425 57.5415 53.4418C57.3904 53.3914 57.7933 53.0388 58.1962 52.938C58.3977 52.8877 58.5487 52.8877 58.4984 52.8877C58.448 52.938 58.4984 52.9884 58.5991 52.9884C58.6998 53.0388 58.8509 52.9884 58.9516 52.8877C59.1027 52.7366 59.1027 52.7366 59.2034 52.9884C59.3041 53.1899 59.3545 53.2403 59.5056 53.1899C59.7574 53.1395 59.7574 53.0892 59.6063 53.0388C59.3545 52.938 59.2538 52.7869 59.4049 52.6862C59.5056 52.5855 59.5056 52.2329 59.4049 52.2329C59.3545 52.2329 59.1531 52.3336 58.9013 52.4343C58.2969 52.7366 58.1458 52.7366 58.3977 52.3336C58.4984 52.1321 58.5487 52.0817 58.448 52.1321C58.3473 52.1825 58.2466 52.1825 58.2466 52.1321C58.1962 52.0314 58.2969 51.9306 58.6998 51.8299C58.9013 51.7795 58.9013 51.7795 58.8005 51.8803C58.4984 52.1321 58.7502 52.1825 59.2034 51.981C59.7574 51.7292 60.0092 51.4269 59.8077 51.3262C59.707 51.2758 59.7574 51.1751 59.9085 51.0743C60.0595 50.9736 60.1099 50.8728 60.0092 50.8225C59.9085 50.7721 59.9085 50.6714 59.9588 50.6714C60.0092 50.621 60.1099 50.6714 60.2106 50.7721C60.4121 50.9736 60.4121 51.3766 60.0595 51.9306C59.8581 52.2832 59.8581 52.3336 60.0595 52.3336C60.2106 52.3336 60.3113 52.2329 60.3617 52.0817C60.4121 51.981 60.4624 51.8803 60.4624 51.8803C60.4624 51.8803 60.5631 51.8299 60.6135 51.7795C60.7142 51.7291 60.6639 51.6788 60.5128 51.6788C60.3617 51.6788 60.3113 51.6284 60.4121 51.5277C60.4624 51.4773 60.5128 51.2758 60.5631 51.1751C60.6135 50.9736 60.6639 50.9232 60.9157 50.8728C61.3186 50.8225 61.4193 50.7217 61.2682 50.621C61.1675 50.5706 61.0668 50.5706 60.966 50.621C60.9157 50.6714 60.815 50.6714 60.7646 50.621C60.6639 50.5202 61.1171 50.218 61.2682 50.2684C61.4193 50.3188 61.8725 49.9158 61.9229 49.6639C61.9229 49.5632 62.0236 49.4625 62.1747 49.4121C62.2754 49.3617 62.3761 49.2106 62.3761 49.1099C62.3761 49.0091 62.3761 48.9588 62.4768 49.0595C62.5776 49.1099 62.6279 49.0595 62.7286 48.9084C62.8294 48.7573 62.8294 48.7069 62.8294 48.8076C62.8294 48.9084 62.8797 48.9084 62.9804 48.858C63.0308 48.8076 63.2826 48.7069 63.4337 48.6565C63.7359 48.5558 63.7359 48.5054 63.5848 48.3543C63.4841 48.2536 63.4337 48.1528 63.4841 48.1528C63.5344 48.1025 63.5848 48.1528 63.6351 48.2032C63.6855 48.2536 63.7359 48.2536 63.7862 48.2536C63.8366 48.2032 63.8366 48.1528 63.7359 48.1025C63.6351 48.0521 63.6855 48.0017 63.8869 47.9513C64.0884 47.8506 64.1387 47.8002 64.038 47.7499C63.9373 47.6491 63.9373 47.6491 64.1387 47.6491C64.2898 47.6491 64.4409 47.5484 64.5416 47.3973C64.6423 47.2461 64.7431 47.1958 64.8438 47.2462C64.9445 47.2965 64.9445 47.2965 64.8438 47.2965C64.7431 47.2965 64.6927 47.3469 64.7431 47.3973C64.7934 47.4476 64.8941 47.4476 64.9949 47.3973C65.0956 47.3469 65.1459 47.2462 65.1459 47.1958C65.0956 47.1454 65.2467 46.9943 65.4481 46.8936C65.6495 46.7424 65.7503 46.7424 65.6999 46.8432C65.6495 46.9439 65.7503 46.9943 66.0021 46.9439C66.2539 46.8936 66.405 46.9439 66.4553 47.095C66.5057 47.2461 66.6064 47.2461 66.7575 47.1454C66.9086 47.0447 66.9589 46.9943 66.8078 46.9439C66.5057 46.8432 67.0093 46.6417 67.4122 46.6417C67.7647 46.6921 67.7647 46.6921 67.5632 46.7928C67.4122 46.8936 67.4122 46.9439 67.5632 47.095C67.664 47.1958 67.7647 47.1958 67.7647 47.1454C67.7647 47.095 67.8654 47.1958 67.9158 47.2965C67.9661 47.4476 67.9661 47.5987 67.9158 47.5987C67.8654 47.6491 67.8654 47.6995 67.8654 47.7499C67.9158 47.8002 67.9661 47.7499 68.0165 47.6995C68.0668 47.5987 68.2179 47.5987 68.3186 47.6491C68.4697 47.6995 68.4697 47.6995 68.369 47.5484C68.2683 47.3973 68.3186 47.3469 68.4697 47.2965C68.6208 47.2461 68.6712 47.1958 68.5201 47.1958C68.4194 47.1958 68.3186 47.0447 68.3186 46.8936C68.2683 46.6921 68.2179 46.6417 68.1172 46.6921C68.0165 46.7928 67.7647 46.5913 67.664 46.2891C67.664 46.2387 67.6136 46.2387 67.5632 46.3395C67.5129 46.3898 67.3618 46.3898 67.2107 46.2387C67.0093 46.0876 66.9589 46.0373 67.0093 45.9869C67.0596 45.9365 67.11 45.8861 67.0093 45.7854C66.8582 45.5335 66.9589 45.4328 67.3114 45.5335C67.5129 45.5839 67.7143 45.5839 67.7647 45.5335C67.815 45.4832 67.9158 45.4832 68.0165 45.5335C68.1172 45.5839 68.1172 45.5839 68.0165 45.5839C67.815 45.5839 67.664 46.2387 67.815 46.2891C68.0668 46.3395 68.369 45.8861 68.2683 45.5335C68.2179 45.3321 68.2179 45.2817 68.369 45.2817C68.4697 45.2817 68.5705 45.2313 68.6208 45.0802C68.6712 44.9291 68.8726 44.7276 69.0237 44.6269C69.1748 44.5261 69.3259 44.375 69.3259 44.2743C69.3259 44.1735 69.2755 44.1735 69.1244 44.3246C68.923 44.5765 68.6208 44.5261 68.8223 44.2743C68.8726 44.1735 68.8726 44.0728 68.8223 43.972C68.7719 43.8713 68.8223 43.7706 68.8726 43.7202C68.9733 43.6698 69.0237 43.6698 69.0237 43.7202C69.0237 43.7706 69.1748 43.8713 69.3762 43.9217C69.8295 44.0728 69.9302 44.1735 69.7791 44.3246C69.5777 44.4758 69.3259 44.8284 69.3762 44.8787C69.4266 44.9291 69.4769 44.9795 69.5777 44.9795C69.6784 44.9795 69.6784 44.9291 69.5777 44.8787C69.4769 44.8284 69.4769 44.778 69.6784 44.7276C69.8295 44.6772 70.0309 44.6269 70.1316 44.5765C70.2323 44.5261 70.5345 44.4758 70.7359 44.4758C71.1892 44.4254 71.2899 44.4254 71.1388 44.3246C70.9374 44.2239 71.0381 43.8209 71.2396 43.8713C71.3906 43.8713 71.4914 43.8209 71.5417 43.6698C71.5921 43.5691 71.7432 43.418 71.7935 43.418C71.8439 43.418 72.146 43.2165 72.3475 42.9646C72.7504 42.5617 72.8007 42.5617 73.0525 42.612C73.4051 42.7128 73.6065 42.9646 73.3547 43.015C73.254 43.015 73.2036 43.1157 73.2036 43.2165C73.2036 43.3172 73.1532 43.4683 73.0022 43.5187C72.9014 43.5691 72.8007 43.7202 72.8007 43.7706C72.8007 43.972 73.4051 43.418 73.5561 43.1157C73.6065 42.9646 73.7576 42.8639 73.9087 42.8135C74.1605 42.7128 74.1605 42.7128 73.8583 42.7631C73.5561 42.8135 73.4554 42.7128 73.6065 42.5113C73.6569 42.4106 73.6569 42.3098 73.6065 42.2091C73.5561 42.1083 73.4554 42.1083 73.3547 42.2594C73.2036 42.4106 73.2036 42.4106 73.2036 42.2594C73.2036 42.1587 73.1533 41.9068 73.0525 41.7557C72.8511 41.4535 72.8511 41.4535 73.2036 41.4031C73.405 41.3528 73.5058 41.4031 73.5058 41.5039C73.5058 41.6046 73.5561 41.5542 73.6065 41.4031C73.6569 41.3024 73.8079 41.1513 73.9087 41.1513C74.1101 41.1009 74.1101 41.1513 74.0094 41.3024C73.959 41.4031 73.7576 41.5542 73.6065 41.6046C73.4051 41.655 73.3547 41.7054 73.4554 41.9068C73.5058 42.0076 73.6065 42.058 73.6569 42.058C73.7072 42.0076 73.8079 42.058 73.8583 42.1587C73.959 42.3602 74.3619 42.1083 74.3115 41.9068C74.3115 41.8061 74.3115 41.7054 74.4123 41.7054C74.4626 41.7054 74.513 41.7557 74.513 41.8565C74.513 42.0076 74.9662 41.655 75.3691 41.252C75.5705 41.0505 75.5705 41.0505 75.6713 41.4031C75.772 41.7054 75.9231 41.7557 75.9734 41.5542C75.9734 41.5039 76.2756 41.3024 76.5778 41.1009C77.0814 40.7987 77.1317 40.7483 77.1821 40.9498C77.2324 41.2017 77.3332 41.1513 77.4842 40.7987C77.585 40.5972 77.585 40.5468 77.3835 40.5972C77.0814 40.6476 77.031 40.4461 77.2828 40.3957C77.6353 40.295 77.4339 40.1439 77.031 40.1942C76.8296 40.2446 76.6785 40.2446 76.6281 40.1942C76.5778 40.0935 76.9303 39.7913 77.4842 39.4387C77.736 39.2876 78.0382 39.0861 78.1389 38.935C78.3404 38.7335 78.3907 38.7335 78.3907 38.8846C78.3907 39.1868 78.4915 39.3379 78.6929 39.2372C78.9447 39.1868 78.9951 38.935 78.7433 38.9853C78.6425 38.9853 78.6425 38.935 78.7433 38.8342C78.844 38.7335 79.0454 38.6327 79.2972 38.6327C79.4987 38.6327 79.8008 38.5824 80.0023 38.4816C80.5059 38.2801 80.7577 38.2801 80.808 38.4816C80.8584 38.5824 80.9087 38.6831 81.0095 38.6327C81.1102 38.5824 81.362 38.129 81.4627 37.7764C81.5131 37.6253 81.5131 37.575 81.362 37.6757C81.2613 37.7261 81.1102 37.8772 81.0598 37.9779C80.9087 38.1794 80.3044 38.3305 80.2037 38.2298C80.1533 38.1794 80.3044 38.0283 80.5059 37.9276L80.8584 37.7261L80.3044 37.8772C79.5994 38.0787 79.2972 38.2298 79.3476 38.4313C79.3476 38.532 79.2972 38.5824 79.2469 38.5824C79.1461 38.5824 79.0958 38.4816 79.0454 38.2801C78.9951 37.9779 78.9951 37.9276 79.4483 37.7261C79.9519 37.4742 80.0526 37.4742 80.1533 37.6253C80.2037 37.6757 80.2541 37.6757 80.3548 37.6253C80.7577 37.2224 80.8584 37.172 81.2613 37.2727C81.5131 37.3231 81.7649 37.3231 81.8152 37.2727C81.916 37.2224 81.916 37.172 81.6642 37.172C81.3116 37.1216 81.1605 37.0209 81.362 36.8698C81.4124 36.8194 81.5634 36.6683 81.6642 36.5172C81.8152 36.3157 81.916 36.2653 82.0167 36.2653C82.1174 36.3157 82.1678 36.2653 82.067 36.1646C82.0167 36.0638 81.916 36.0135 81.8656 36.0638C81.8152 36.1142 81.7649 36.0638 81.7649 36.0135C81.7649 35.9631 81.916 35.9127 82.1174 35.9127C82.3188 35.9127 82.4196 35.9127 82.4196 35.8624C82.3692 35.812 82.4196 35.7616 82.4699 35.7112C82.5203 35.6609 82.621 35.7616 82.6714 35.8624C82.7217 35.9631 82.7217 36.0638 82.6714 36.1142C82.4699 36.2149 83.0742 36.3157 83.326 36.2149C83.7289 36.0135 83.7793 36.0135 83.88 36.1646C83.9304 36.2653 84.0311 36.2653 84.1318 36.2149C84.2325 36.1646 84.3836 36.1646 84.434 36.2149C84.5347 36.2653 84.5347 36.2653 84.5851 36.1142C84.5851 36.0135 84.6858 35.9127 84.8369 35.8624C85.139 35.7616 85.0383 35.6105 84.6858 35.4594C84.1822 35.2579 84.3836 34.9053 84.8872 35.0564C85.2397 35.1572 85.3908 35.1068 85.1894 34.9053C85.0887 34.8046 85.0887 34.8046 85.2397 34.8046C85.3405 34.8549 85.693 34.7038 85.9951 34.5527C86.398 34.3008 86.5995 34.2505 86.7002 34.3512C86.9016 34.5023 87.0024 34.4016 86.8513 34.1497C86.7506 33.9483 86.7506 33.8979 87.1534 33.6964C87.506 33.4949 87.657 33.4445 87.7074 33.5957C87.7578 33.6964 87.8081 33.646 87.7578 33.4445C87.7578 33.2934 87.7578 33.1927 87.8585 33.1927C87.9592 33.1927 87.9592 33.1423 87.8585 33.092C87.7578 33.0416 87.7578 32.9408 87.8081 32.8905C87.8585 32.8401 88.0096 32.7394 88.1606 32.5882C88.3117 32.4371 88.4124 32.3868 88.4628 32.4875C88.5132 32.5379 88.5635 32.5882 88.6642 32.5379C88.765 32.4875 88.9161 32.4875 89.0168 32.5379C89.3189 32.6386 89.3693 32.5379 89.1679 32.286L88.9664 32.0845H89.3693C89.5707 32.0845 89.7722 32.1349 89.8225 32.1853C89.8729 32.2356 89.8729 32.2356 89.9233 32.1349C89.9736 31.8831 90.5276 31.6312 90.6787 31.7319C90.8297 31.8327 90.8297 31.7823 90.9305 31.4297C90.9808 31.0771 91.0312 31.0268 91.2326 31.0771C91.5348 31.1779 92.0888 31.1275 92.2398 30.9764C92.3909 30.8253 92.3406 30.7245 92.0888 30.6742C91.988 30.6238 91.9377 30.5734 91.9377 30.523C91.9377 30.4727 92.0384 30.4727 92.0888 30.523C92.1391 30.5734 92.2398 30.6238 92.2902 30.5734C92.3406 30.523 92.3406 30.4727 92.2398 30.4223C92.0888 30.2712 92.3406 30.1201 92.542 30.2208C92.5924 30.2712 92.7434 30.2208 92.7938 30.1201C92.9449 29.969 92.9952 30.0193 93.096 30.2208C93.1967 30.3719 93.2974 30.4727 93.3478 30.4223C93.3981 30.3719 93.4485 30.3216 93.3981 30.2712C93.3478 30.2208 93.3981 30.1201 93.4988 30.0697C93.5996 30.0193 93.4988 29.969 93.1967 29.8682C92.9449 29.8179 92.7434 29.7171 92.7434 29.7171C92.7434 29.6667 92.9952 29.566 93.1967 29.4653C93.4988 29.3645 93.6499 29.3141 93.7003 29.4149C93.7507 29.4653 93.801 29.5156 93.8514 29.5156C93.9017 29.4653 94.0025 29.4653 94.1032 29.4653C94.2039 29.4653 94.2543 29.3645 94.2039 29.163C94.1535 29.0119 94.2039 28.8608 94.3046 28.8104C94.4557 28.7097 95.3118 28.8608 95.2615 28.9615C95.2615 29.0119 95.3622 29.0623 95.4629 29.0623C95.614 29.1127 95.6643 29.0623 95.5636 29.0119C95.4629 28.9615 95.5133 28.9112 95.6643 28.8104L95.8658 28.6593H95.5636C95.1104 28.6593 95.06 28.5082 95.3622 28.206C95.614 27.9541 95.6643 27.9541 95.7147 28.0549C95.8154 28.2564 95.9665 28.1052 95.9161 27.8534C95.8658 27.6015 95.8658 27.6015 96.319 27.7526C96.6212 27.8534 96.7723 27.803 96.7219 27.7023C96.7219 27.6015 96.7723 27.5008 96.8226 27.5008C96.9234 27.4504 96.9737 27.5008 96.9737 27.6519C96.9737 27.8534 97.0241 27.8534 97.1248 27.6015C97.2255 27.4001 97.2255 27.3497 97.0241 27.3497C96.7219 27.3497 96.7219 27.1986 97.0241 26.9971C97.1752 26.8963 97.3262 26.7956 97.2759 26.7452C97.2255 26.6949 97.2759 26.5941 97.3766 26.5438C97.4773 26.4934 97.578 26.5438 97.578 26.5941C97.6284 26.6949 97.6284 26.7452 97.578 26.7956C97.5277 26.7956 97.4773 26.9467 97.3766 27.0475C97.2759 27.2489 97.2759 27.2489 97.4773 27.1482C97.578 27.0978 97.6788 26.9971 97.6284 26.9467C97.578 26.8963 97.6284 26.846 97.6788 26.846C97.7291 26.846 97.9809 26.7452 98.2327 26.6445C98.4845 26.5438 98.7867 26.443 98.9378 26.4934C99.0889 26.5437 99.1896 26.4934 99.1896 26.3926C99.1896 26.2919 99.391 26.2919 99.7435 26.3423C100.046 26.3926 100.298 26.3926 100.348 26.3423C100.348 26.2919 100.348 26.2919 100.247 26.2919C100.146 26.3423 100.146 26.3423 100.146 26.2415C100.146 26.1912 100.096 26.0904 99.9953 26.0904C99.7939 25.9897 99.7939 25.8889 99.9953 25.7378C100.046 25.6874 100.146 25.6874 100.146 25.7882C100.146 25.8386 100.298 25.8889 100.449 25.8386C100.6 25.7882 100.65 25.7378 100.549 25.6874C100.398 25.5867 101.103 25.3852 101.305 25.4356C101.405 25.486 101.657 25.3852 101.909 25.2845C102.262 25.1334 102.312 25.0326 102.262 24.9319C102.211 24.8311 102.161 24.8311 102.06 24.9319C102.01 25.0326 101.859 25.0326 101.758 24.9823C101.557 24.8311 100.7 24.9823 100.65 25.1837C100.549 25.4356 100.348 25.486 100.247 25.2845C100.197 25.1334 100.197 25.0326 100.348 24.9823C100.449 24.9319 100.549 24.8311 100.499 24.7304C100.499 24.6297 100.549 24.5793 100.7 24.6297C100.851 24.68 100.902 24.6297 100.952 24.5289C101.003 24.4282 101.103 24.3778 101.254 24.4282C101.456 24.4785 101.506 24.4785 101.557 24.3274C101.557 24.2267 101.657 24.0756 101.758 24.0252C102.362 23.6222 102.362 23.6222 102.362 23.8237C102.362 23.9748 102.413 24.0252 102.513 24.0252C102.614 24.0252 102.664 23.9748 102.614 23.9245C102.564 23.8741 102.664 23.8237 102.765 23.7734C103.017 23.723 103.118 23.5719 103.118 23.32C103.118 23.1689 103.168 23.2193 103.369 23.32C103.571 23.4711 103.621 23.4711 103.722 23.32C103.823 23.0682 103.974 22.9674 104.024 23.1689C104.024 23.2696 104.175 23.3704 104.326 23.3704C104.628 23.4208 104.78 23.4208 104.628 23.32C104.578 23.2696 104.578 23.2193 104.578 23.1185C104.628 23.0682 104.578 22.9674 104.528 22.8667C104.427 22.7659 104.477 22.7156 104.679 22.6652C104.88 22.6148 104.931 22.5645 104.83 22.5141C104.78 22.4637 104.83 22.4133 105.031 22.4133C105.233 22.4133 105.334 22.4637 105.334 22.5141C105.334 22.6148 105.434 22.5645 105.585 22.4133C105.736 22.3126 105.938 22.2119 106.039 22.2622C106.139 22.3126 106.19 22.2622 106.139 22.2119C106.089 22.1615 106.29 21.96 106.492 21.8089C106.744 21.6578 106.844 21.4563 106.794 21.4563C106.744 21.4059 106.895 21.3556 107.147 21.3556C107.549 21.3052 107.549 21.3052 107.499 21.1541C107.449 21.0533 107.549 20.9526 107.801 20.8015C108.003 20.7007 108.254 20.5496 108.355 20.4993C108.456 20.3985 108.506 20.4489 108.506 20.5496C108.506 20.6504 108.557 20.7007 108.657 20.6504C108.708 20.6 108.758 20.4993 108.758 20.3985C108.758 20.197 109.161 19.9452 109.312 20.0963C109.413 20.197 109.463 20.1467 109.564 19.9452C109.765 19.643 110.118 19.4415 109.967 19.6933C109.866 19.8444 109.866 19.8444 110.017 19.7941C110.269 19.6933 110.42 19.0889 110.269 18.9378C110.118 18.7866 110.219 18.3837 110.42 18.3837C110.47 18.3837 110.571 18.4844 110.621 18.5348C110.672 18.6859 110.873 18.6355 111.075 18.4844C111.125 18.4341 111.125 18.5348 111.075 18.6859C111.024 18.837 111.024 18.9881 111.024 19.0385C111.075 19.0889 111.377 18.6859 111.427 18.5348C111.427 18.4844 111.478 18.3837 111.578 18.3333C111.629 18.2829 111.578 18.1822 111.326 18.0815C111.125 18.0311 110.974 17.9303 110.974 17.88C110.974 17.8296 110.924 17.88 110.772 17.9303C110.47 18.0815 110.319 17.9303 110.571 17.6785C110.672 17.5777 110.722 17.477 110.672 17.477C110.521 17.4266 110.621 17.074 110.873 16.9733C110.974 16.9229 111.125 16.7718 111.125 16.6207C111.175 16.4696 111.276 16.3689 111.377 16.3185C111.478 16.2681 111.578 16.1674 111.578 16.0666C111.578 16.0163 111.679 15.9155 111.83 15.9155C111.981 15.8651 112.031 15.8148 111.981 15.714C111.931 15.6133 111.83 15.6133 111.729 15.6133C111.478 15.714 111.377 15.2607 111.578 15.0088C111.83 14.6562 111.83 14.6059 111.528 14.5555C111.276 14.5051 111.276 14.5051 111.427 14.4044C111.578 14.354 111.578 14.2533 111.326 13.9007C111.175 13.6488 111.024 13.4473 110.974 13.4473C110.924 13.4473 110.873 13.3466 110.873 13.2459C110.873 13.1451 110.722 12.994 110.621 12.9436C110.47 12.8429 110.37 12.7421 110.37 12.6918C110.37 12.6414 110.219 12.591 110.067 12.591C109.866 12.591 109.816 12.5407 109.866 12.3896C109.916 12.1881 109.765 12.037 109.564 12.0873C109.513 12.1377 109.513 12.1881 109.614 12.1881C109.715 12.2384 109.665 12.2384 109.614 12.2384C109.513 12.2384 109.463 12.1377 109.463 12.0873C109.463 11.9866 109.362 11.9362 109.211 11.8858C109.111 11.8355 108.909 11.7347 108.859 11.5836C108.758 11.4325 108.607 11.2814 108.506 11.2814C108.406 11.2814 108.305 11.231 108.305 11.1807C108.305 11.1303 108.154 11.0799 107.902 11.0295C107.65 10.9792 107.499 10.8784 107.499 10.8281C107.499 10.7777 107.398 10.6769 107.247 10.6266C107.096 10.5762 106.995 10.4755 106.995 10.4251C106.995 10.3747 106.844 10.274 106.693 10.274C106.542 10.274 106.341 10.1229 106.24 9.97176C105.988 9.56879 105.787 9.46805 104.931 9.56879C103.974 9.66953 103.923 9.66953 103.42 10.1732C102.816 10.7777 102.463 10.9792 102.312 10.8281C102.211 10.7273 102.06 10.7273 101.657 10.9288C101.355 11.0799 101.154 11.1807 101.103 11.1303C101.053 10.9792 100.6 11.1303 99.4917 11.634C98.8874 11.9362 98.1824 12.2384 98.0313 12.2888C97.8802 12.3392 97.6788 12.4399 97.6284 12.4399C97.5277 12.4903 97.427 12.0873 97.2759 11.5836C97.2759 11.4829 97.2759 11.3318 97.3766 11.3318C97.4773 11.2814 97.4773 11.1807 97.3766 11.0799C97.2759 10.9288 97.2759 10.9288 97.4773 10.8784C97.7795 10.8281 97.9306 10.4251 97.7795 10.2236C97.7291 10.1229 97.6788 10.0221 97.7795 10.0221C97.8298 9.97176 97.8298 9.97176 97.6788 9.92139C97.5277 9.92139 97.5277 9.87102 97.6284 9.82065C97.9306 9.66953 97.6284 8.76286 96.7723 7.50359C96.4198 6.94951 95.614 6.24432 95.2111 6.14358C95.0097 6.09321 94.8586 5.99246 94.8082 5.94209C94.7579 5.89172 94.7075 5.84135 94.6571 5.84135C94.6068 5.84135 94.4053 5.74062 94.1535 5.53913C93.9521 5.38802 93.4988 5.18653 93.1967 5.08578C92.8945 4.98505 92.5924 4.8843 92.5924 4.83393C92.542 4.78356 92.3406 4.68282 92.0888 4.58208C91.837 4.48134 91.5852 4.33022 91.5348 4.22948C91.4341 4.028 90.5779 3.67541 90.3765 3.82652C90.2758 3.87688 90.1751 3.87689 90.0743 3.87689C89.7722 3.77615 87.4052 4.53171 86.2973 5.08578C85.693 5.38801 85.0887 5.63987 84.9879 5.63987C84.8872 5.63987 84.3333 5.84135 83.7793 6.14358C83.2253 6.4458 81.916 7.05025 80.9087 7.55396C79.9015 8.05767 77.4842 9.31693 75.5202 10.3747C74.7648 10.7777 73.959 11.231 73.2036 11.634C73.2036 11.5836 73.2036 11.5332 73.1532 11.5332C73.1029 11.0799 72.9518 10.8784 72.3475 10.6266C71.6424 10.3243 71.5921 10.3243 71.1388 10.6266C70.5849 10.9792 70.2827 11.0295 70.182 10.7777C70.1316 10.6266 70.0309 10.5762 69.6784 10.6769C69.4266 10.7273 69.2251 10.7273 69.2251 10.6769C69.2251 10.5258 68.8223 10.4755 67.9158 10.5762C67.3618 10.6266 66.8582 10.6769 66.7071 10.6769C66.556 10.6769 66.405 10.6769 66.3546 10.6769C66.3042 10.6769 66.2539 10.274 66.2539 9.77027C66.2539 9.66953 66.3042 9.56879 66.3546 9.56879C66.4553 9.56879 66.4553 9.46805 66.405 9.3673C66.3546 9.21619 66.3546 9.16582 66.5057 9.16582C66.7575 9.21619 66.9589 8.91397 66.8582 8.66212C66.8078 8.56138 66.8078 8.46063 66.8582 8.46063C66.9086 8.46063 66.9086 8.41026 66.8078 8.35989C66.7071 8.30952 66.7071 8.25915 66.7575 8.25915C67.0093 8.20878 66.9589 7.3021 66.556 5.84135C66.405 5.2369 65.9014 4.27986 65.5992 4.02801C65.4481 3.92726 65.3474 3.77615 65.3474 3.72578C65.3474 3.67541 65.297 3.57466 65.2467 3.57466C65.1963 3.57466 65.0452 3.37318 64.8941 3.17169C64.7431 2.97021 64.4409 2.61762 64.1891 2.46651C63.9373 2.26502 63.7359 2.11391 63.7359 2.01318C63.7359 1.9628 63.5344 1.76131 63.333 1.61021C63.1315 1.45909 62.9301 1.20724 62.9301 1.1065C62.8797 0.854645 62.225 0.300568 62.074 0.350937C62.0236 0.350937 61.8725 0.350929 61.8222 0.30056C61.5704 0.0990753 59.4552 0.149452 58.448 0.350937C57.8941 0.451675 57.3401 0.552422 57.2897 0.502052C57.189 0.451675 56.7358 0.552414 56.1818 0.653152C55.93 0.703529 55.4767 0.804268 55.0235 0.905006C54.5703 1.00575 54.0163 1.15687 53.5631 1.25761C53.1098 1.35835 52.304 1.55983 51.4479 1.81168C50.5414 2.06354 49.5846 2.36576 48.6781 2.66798C46.9155 3.27244 44.9011 3.97763 44.196 4.27986C43.3399 4.63245 42.8866 4.83393 42.8866 4.93467C42.8866 5.03542 42.8363 5.03542 42.7356 4.98505C42.6348 4.93468 41.9802 5.13615 41.3255 5.43838C40.6708 5.74061 40.0161 6.04284 40.0161 6.14358C40.0161 6.24432 40.0161 6.24432 39.865 6.19395C39.7139 6.0932 38.9082 6.4458 38.8075 6.64729C38.7571 6.69765 38.1528 6.99988 37.4477 7.35247C36.3902 7.85618 36.088 8.00729 35.9873 8.25915C35.8866 8.46063 35.8362 8.511 35.7858 8.35989C35.7355 8.15841 35.4333 8.25915 33.6203 9.3673C33.1671 9.61916 32.7642 9.87102 32.311 10.1732C31.8577 10.4755 31.3541 10.7777 30.8505 11.0799C30.3469 11.3821 29.7929 11.7347 29.1886 12.1377C28.5843 12.5407 27.98 12.994 27.2749 13.4473C26.1166 14.2029 25.0591 15.1096 24.908 15.2103C24.8576 15.2607 24.5555 15.5126 24.1022 15.8651C23.9008 16.0163 23.649 16.2177 23.3468 16.4696C23.095 16.6711 22.7928 16.9229 22.541 17.1748C21.9871 17.6785 21.4331 18.1318 21.0302 18.4844C20.6273 18.837 20.3755 19.0889 20.3252 19.1896C20.2245 19.2904 19.9223 19.643 19.318 20.2474C19.0158 20.5496 18.6633 20.9022 18.2101 21.3556C17.8072 21.8089 17.3036 22.3126 16.7496 22.917C15.692 24.0252 15.0877 24.7808 13.8287 26.3423C13.5769 26.6949 13.0229 27.3497 12.6704 27.803C12.3179 28.2564 11.7136 28.9615 11.4114 29.4149C11.1092 29.8682 10.5553 30.6238 10.2028 31.0771C9.85023 31.5808 9.4977 32.0342 9.44734 32.1853C9.39698 32.3364 9.14518 32.7394 8.89338 33.092C8.64157 33.4445 8.28905 33.9986 8.13797 34.2505C7.98689 34.5023 7.63437 35.0564 7.43293 35.409C6.82861 36.3661 6.325 37.172 5.72068 38.2298C5.41851 38.7335 5.01562 39.4387 4.86454 39.7409C4.4113 40.4965 3.6559 41.9572 3.45446 42.5113C3.35374 42.7631 3.15229 43.1157 3.00121 43.3172C2.85013 43.5187 2.59833 43.9217 2.4976 44.2239C2.34653 44.5261 2.04436 45.1306 1.84292 45.5335C1.64148 45.9365 1.28896 46.6921 1.03716 47.2462C0.684631 47.9513 0.533546 48.2536 0.332108 48.3543C-0.0204163 48.5558 -0.0707779 48.7573 0.080307 49.2106ZM8.18833 65.5307C8.13797 65.6315 8.08762 65.6315 8.08762 65.5811C8.08762 65.5307 8.08761 65.4804 8.13797 65.43C8.23869 65.43 8.23869 65.4804 8.18833 65.5307ZM8.4905 65.9337C8.44014 66.0345 8.38977 66.0345 8.38977 65.9841C8.38977 65.9337 8.38978 65.8833 8.44013 65.833C8.54086 65.7826 8.54086 65.833 8.4905 65.9337ZM11.4114 81.6998C11.4114 81.6494 11.4618 81.5487 11.5625 81.5487C11.6632 81.4983 11.6632 81.5487 11.5625 81.6494C11.5121 81.6998 11.4114 81.7501 11.4114 81.6998ZM11.7639 82.1027C11.6632 82.2035 11.6128 82.2035 11.6128 82.1531C11.6128 82.1027 11.6632 82.002 11.7639 82.002C11.8143 81.9516 11.8143 82.002 11.7639 82.1027ZM110.269 17.6785C110.42 17.7792 110.37 17.8296 110.269 17.7792C110.168 17.7289 110.067 17.6785 110.118 17.6281C110.067 17.5778 110.168 17.6281 110.269 17.6785ZM110.017 19.1896C110.269 19.5926 110.017 19.5926 109.715 19.1896C109.614 19.0385 109.564 18.9378 109.665 18.8874C109.765 18.837 109.916 18.9378 110.017 19.1896ZM109.614 16.0666C109.665 16.0163 109.765 16.0666 109.765 16.117C109.816 16.1674 109.816 16.2177 109.765 16.2177C109.765 16.2177 109.665 16.2177 109.614 16.1674C109.564 16.1674 109.564 16.117 109.614 16.0666ZM109.413 19.3911C109.513 19.3407 109.614 19.3911 109.665 19.4918C109.715 19.5926 109.715 19.643 109.614 19.5926C109.564 19.5422 109.413 19.5422 109.362 19.4918C109.312 19.4918 109.312 19.4415 109.413 19.3911ZM107.952 15.2103C108.154 15.2103 108.204 15.2607 108.103 15.3111C108.053 15.3614 107.952 15.3111 107.902 15.3111C107.801 15.2607 107.852 15.2607 107.952 15.2103ZM106.945 17.3259C106.995 17.2755 107.096 17.3259 107.096 17.3763C107.147 17.4266 107.147 17.477 107.096 17.477C107.096 17.477 106.995 17.477 106.945 17.4266C106.844 17.4266 106.844 17.3763 106.945 17.3259ZM106.039 21.3556C106.341 21.3052 106.391 21.3052 106.391 21.557C106.391 21.7585 106.341 21.8593 106.089 22.0104C105.787 22.1615 105.787 22.1615 105.686 21.8593C105.636 21.4059 105.686 21.4059 106.039 21.3556ZM104.981 18.6859C105.031 18.6355 105.082 18.6859 105.082 18.7866C105.082 18.837 105.031 18.9378 105.031 18.9378C105.031 18.9378 104.981 18.9378 104.931 18.837C104.88 18.7866 104.931 18.7363 104.981 18.6859ZM103.873 22.7156C103.923 22.6652 103.974 22.6652 103.974 22.7156C104.024 22.7659 103.974 22.8667 103.923 22.8667C103.873 22.9171 103.823 22.9171 103.823 22.8667C103.772 22.8667 103.823 22.7659 103.873 22.7156ZM101.456 16.1674C101.506 16.117 101.557 16.1674 101.557 16.2177C101.557 16.2681 101.506 16.3689 101.506 16.3689C101.456 16.3689 101.456 16.3689 101.405 16.3185C101.405 16.2681 101.405 16.1674 101.456 16.1674ZM97.8802 19.4918C97.9809 19.4918 98.0816 19.4918 98.0816 19.4918C98.0816 19.4918 98.0313 19.5422 97.9306 19.5926C97.8298 19.643 97.7795 19.643 97.7291 19.5926C97.7291 19.5422 97.7795 19.4918 97.8802 19.4918ZM91.0312 29.6667C91.1823 29.5156 92.1895 29.8179 92.1391 30.0193C92.0888 30.2208 91.7362 30.4223 91.5348 30.3719C91.283 30.4223 90.8801 29.8179 91.0312 29.6667ZM90.5779 29.5156C90.6283 29.4653 90.729 29.5156 90.7794 29.5156C90.8297 29.566 90.8297 29.6164 90.729 29.6667C90.6283 29.7171 90.5276 29.7171 90.5276 29.6667C90.4772 29.6164 90.5276 29.566 90.5779 29.5156ZM90.0743 30.9764C90.6787 30.0697 90.6787 30.0697 90.8297 30.5734C90.9305 30.926 90.9305 30.926 90.5276 31.1275C90.3261 31.2282 90.0743 31.2786 90.024 31.2282C89.9736 31.2282 90.024 31.0771 90.0743 30.9764ZM88.8153 31.4801C88.9664 31.4297 89.1679 31.2786 89.2182 31.1779C89.2686 31.0771 89.3189 31.0771 89.3189 31.1779C89.3189 31.2786 89.3693 31.329 89.47 31.329C89.6715 31.329 90.1247 31.5305 90.024 31.5808C89.9736 31.5808 89.7218 31.6312 89.47 31.6312C89.2182 31.6312 88.916 31.6816 88.8153 31.7319C88.7146 31.7823 88.6139 31.7823 88.5635 31.7319C88.5635 31.6816 88.6642 31.5808 88.8153 31.4801ZM88.0599 29.8682C88.1103 29.8179 88.1606 29.8682 88.211 29.9186C88.2614 29.969 88.211 30.0193 88.1606 30.0697C88.1103 30.1201 88.0599 30.0697 88.0096 30.0193C88.0096 29.969 88.0096 29.9186 88.0599 29.8682ZM86.5491 31.9334C86.6498 31.9334 86.7002 32.0342 86.7002 32.1349C86.7002 32.286 86.3477 32.5379 86.1966 32.4371C86.0455 32.3364 86.3477 31.8831 86.5491 31.9334ZM86.0959 33.0416C86.247 32.8905 86.4988 32.8905 86.4988 33.092C86.4988 33.1927 86.1966 33.3438 85.7937 33.5453C85.6426 33.5957 85.6426 33.4445 85.8441 33.2934C85.8944 33.2934 85.9951 33.1423 86.0959 33.0416ZM85.4412 32.5882C85.8441 32.689 85.8944 32.7394 85.6426 32.7897C85.5419 32.7897 85.4915 32.8905 85.4412 32.9408C85.4412 33.1423 85.2397 33.092 85.0887 32.8401C84.9376 32.5379 85.0383 32.4875 85.4412 32.5882ZM83.9807 22.6148C84.0311 22.5645 84.0815 22.6148 84.1318 22.6652C84.1822 22.7156 84.1318 22.7659 84.0815 22.8163C84.0311 22.8667 83.9807 22.8163 83.9304 22.7659C83.88 22.7156 83.88 22.6652 83.9807 22.6148ZM84.1822 34.2001C84.434 34.1497 84.434 34.1497 84.3333 34.3008C84.1318 34.5527 84.0815 34.5527 83.9304 34.452C83.7289 34.3009 83.7793 34.3009 84.1822 34.2001ZM84.1318 34.8549C84.4843 34.8046 84.5347 34.8549 84.4843 35.006C84.4843 35.1572 84.3836 35.2075 84.2325 35.2579C84.0815 35.3083 84.0311 35.3083 84.1318 35.3586C84.2325 35.409 84.1318 35.4594 83.9304 35.6105C83.7289 35.7112 83.5779 35.7112 83.5779 35.6609C83.5779 35.6105 83.5275 35.5601 83.4268 35.6105C83.326 35.6105 83.2253 35.5601 83.2253 35.4594C83.2253 35.3586 83.175 35.3083 83.0742 35.3586C83.0239 35.409 82.9232 35.3586 82.9232 35.3083C82.8224 35.2075 83.5778 34.9053 84.1318 34.8549ZM79.0454 35.0564C79.0958 34.9557 79.1461 34.9557 79.1461 35.0564C79.1461 35.2075 78.9951 35.3586 78.9447 35.2579C78.9447 35.2075 78.9447 35.1068 79.0454 35.0564ZM78.5922 38.0787C78.6425 37.9275 78.6929 37.9276 78.844 38.0283C79.0958 38.1794 79.0454 38.2801 78.7433 38.2298C78.5922 38.2298 78.5418 38.1794 78.5922 38.0787ZM75.9231 40.9498C75.8727 40.8491 76.0742 40.5972 76.1749 40.6476C76.2252 40.6979 76.2756 40.7483 76.2252 40.7987C76.2252 40.9498 75.9734 41.0505 75.9231 40.9498ZM76.1245 40.1439C76.1749 40.0935 76.2252 40.1439 76.2252 40.1942C76.2252 40.2446 76.2252 40.3453 76.1749 40.3453C76.1749 40.3453 76.1245 40.3453 76.0742 40.295C76.0238 40.2446 76.0742 40.1942 76.1245 40.1439ZM77.2828 35.6609C77.3835 35.6609 77.3835 35.6609 77.2324 35.7616C77.1317 35.812 77.0814 35.8623 77.0814 35.812C77.0814 35.7112 77.1821 35.6609 77.2828 35.6609ZM76.8799 38.5824C77.1317 38.4313 77.1821 38.4313 77.2828 38.5824C77.3835 38.7839 77.3332 38.8846 77.0814 38.9853C77.031 39.0357 76.9806 39.0861 77.031 39.1365C77.0814 39.1868 77.031 39.2372 76.8799 39.1868C76.7792 39.1868 76.7288 39.0861 76.7288 39.0861C76.7792 39.0357 76.7288 38.9853 76.6785 38.935C76.6281 38.8342 76.6785 38.6831 76.8799 38.5824ZM76.6785 40.5468C76.7288 40.3957 76.7792 40.295 76.7792 40.295C76.8296 40.295 76.8799 40.3454 76.9303 40.3957C76.9806 40.4965 76.9303 40.5972 76.8296 40.6476C76.6281 40.7987 76.5778 40.7483 76.6785 40.5468ZM76.1245 39.0861C76.326 39.1364 76.3763 39.3883 76.2252 39.489C76.1749 39.5394 76.0742 39.489 76.0238 39.489C75.9734 39.4387 75.9231 39.3379 75.9231 39.2372C75.9231 39.0357 75.9231 38.9853 76.1245 39.0861ZM75.6209 37.6253C75.6713 37.575 75.772 37.6253 75.772 37.6757C75.8223 37.7261 75.8223 37.7764 75.772 37.7764C75.772 37.7764 75.6713 37.7764 75.6209 37.7261C75.5705 37.6757 75.5705 37.6253 75.6209 37.6253ZM18.4619 70.6182C18.3611 70.7189 18.3108 70.7189 18.3108 70.6686C18.3108 70.6182 18.3611 70.5175 18.4619 70.5175C18.5626 70.5175 18.5626 70.5678 18.4619 70.6182ZM60.3113 47.3973C60.3617 47.4476 60.3617 47.498 60.261 47.5484C60.1603 47.5987 60.1099 47.5987 60.0595 47.5484C60.0092 47.498 60.0595 47.4476 60.1099 47.3973C60.1099 47.3973 60.2106 47.3973 60.3113 47.3973ZM61.1675 37.1216C61.2682 37.1216 61.2682 37.1216 61.1675 37.2224C61.0667 37.2727 61.0164 37.3231 61.0164 37.2727C61.0164 37.172 61.0667 37.1216 61.1675 37.1216ZM61.2178 41.0002C61.1171 41.0505 61.0668 41.1009 61.0668 41.0505C61.0668 41.0002 61.1675 40.9498 61.2682 40.9498C61.3689 40.8491 61.3186 40.8994 61.2178 41.0002ZM61.2682 47.2965C61.2682 47.2965 61.1675 47.2965 61.1171 47.2462C61.0668 47.1958 61.0668 47.1454 61.1171 47.1454C61.1675 47.095 61.2682 47.1454 61.2682 47.1958C61.3186 47.2462 61.3186 47.2965 61.2682 47.2965ZM51.1961 56.5144C51.2968 56.5144 51.2968 56.5144 51.1961 56.6151C51.0954 56.6655 51.045 56.7159 51.045 56.6655C51.045 56.6151 51.1458 56.5144 51.1961 56.5144ZM55.9804 30.6238C56.0307 30.5734 56.1314 30.6238 56.1314 30.6742C56.1818 30.7245 56.1818 30.7749 56.1314 30.7749C56.1314 30.7749 56.0307 30.7749 55.9804 30.7245C55.93 30.7245 55.93 30.6742 55.9804 30.6238ZM29.239 77.7709C29.2893 77.7205 29.3397 77.7205 29.3901 77.7709C29.4404 77.8212 29.4404 77.8716 29.3901 77.922C29.3397 77.9723 29.2893 77.9723 29.239 77.922C29.1886 77.8716 29.1886 77.8212 29.239 77.7709ZM30.0447 77.5694C29.9944 77.922 29.944 77.9723 29.944 77.6701C29.944 77.5694 29.9944 77.4183 30.0447 77.3679C30.0447 77.3175 30.0447 77.4183 30.0447 77.5694ZM30.0951 79.282C30.2462 79.1309 30.2462 79.1309 30.1958 79.3827C30.1455 79.6849 30.1455 79.6849 30.0447 79.5842C29.9944 79.4835 29.9944 79.3827 30.0951 79.282ZM30.6994 76.7634C30.7498 76.7131 30.8002 76.7131 30.8505 76.7634C30.9009 76.8138 30.9009 76.8642 30.8505 76.9145C30.8002 76.9649 30.7498 76.9649 30.6994 76.9145C30.6491 76.8642 30.6491 76.8138 30.6994 76.7634ZM31.1023 73.5397C31.203 73.439 31.203 74.0434 31.1023 74.1442C31.052 74.1945 31.0519 74.0938 31.0519 73.8923C31.0016 73.7412 31.052 73.5901 31.1023 73.5397ZM31.4548 73.7916C31.5052 73.7412 31.6059 73.7412 31.6563 73.7412C31.7066 73.7916 31.6563 73.8923 31.6059 73.9427C31.5556 73.993 31.4548 73.993 31.4045 73.993C31.4045 73.9427 31.4045 73.8419 31.4548 73.7916ZM31.6059 77.7205C31.7066 77.6701 31.7066 77.7205 31.6059 77.8212C31.5052 77.922 31.4548 77.922 31.4548 77.8716C31.4548 77.8212 31.5556 77.7709 31.6059 77.7205ZM31.6059 78.1738C31.6563 78.1234 31.757 78.1234 31.8074 78.1234C31.8577 78.1738 31.8074 78.2242 31.7066 78.2746C31.6059 78.3249 31.5556 78.3249 31.5052 78.3249C31.5052 78.2746 31.5556 78.2242 31.6059 78.1738ZM31.9584 75.7056C32.0088 75.6553 32.0592 75.6553 32.1095 75.7056C32.1599 75.756 32.1599 75.8064 32.1095 75.8568C32.0592 75.9071 32.0088 75.9071 31.9584 75.8568C31.9081 75.8568 31.9081 75.756 31.9584 75.7056ZM32.3613 77.922C32.4117 77.8716 32.462 77.8716 32.5124 77.922C32.5628 77.9723 32.5628 78.0227 32.5628 78.0227C32.5628 78.0227 32.4621 78.0227 32.4117 78.0227C32.311 78.0227 32.311 77.9723 32.3613 77.922ZM32.8649 74.396C32.9657 74.3456 32.9657 74.396 32.8649 74.4967C32.7642 74.5975 32.7138 74.5975 32.7138 74.5471C32.7138 74.4967 32.7642 74.396 32.8649 74.396ZM32.9153 77.519C33.016 77.4686 33.1167 77.4686 33.1671 77.519C33.2678 77.6197 33.1167 77.7205 32.8649 77.6701C32.6635 77.6701 32.6635 77.6197 32.9153 77.519ZM33.1167 77.2168C33.0664 77.2168 33.0664 77.116 33.1167 77.0657C33.1671 77.0153 33.2678 77.0153 33.2678 77.0657C33.2678 77.116 33.2678 77.2168 33.2678 77.2168C33.2678 77.2671 33.1671 77.2671 33.1167 77.2168ZM33.2175 71.9278C33.3685 71.8271 33.4693 71.8775 33.4693 72.079C33.4693 72.2804 33.3182 72.3308 33.2175 72.1797C33.1167 72.079 33.1167 71.9782 33.2175 71.9278ZM33.9729 71.5752C34.0232 71.5249 34.0736 71.5249 34.1239 71.5752C34.1743 71.6256 34.1743 71.676 34.1239 71.7264C34.0736 71.7767 34.0232 71.7767 33.9729 71.7264C33.9225 71.676 33.9225 71.6256 33.9729 71.5752ZM34.1743 68.3515C34.3254 68.2508 34.4261 68.2004 34.4765 68.2508C34.5772 68.3515 34.4765 68.4019 34.1743 68.5026C33.9729 68.553 33.9729 68.553 34.1743 68.3515ZM36.5916 65.7322C36.6923 65.6315 36.8938 65.7322 36.8938 65.833C36.8938 65.9841 36.7427 66.0345 36.642 65.9337C36.5412 65.8833 36.5412 65.7826 36.5916 65.7322ZM38.4549 51.3766C38.5053 51.3262 38.5557 51.3766 38.5557 51.4269C38.5557 51.4773 38.5556 51.578 38.5053 51.578C38.5053 51.578 38.4549 51.578 38.4046 51.5277C38.4046 51.5277 38.4046 51.4269 38.4549 51.3766ZM39.1096 66.9915C39.16 66.9411 39.3111 66.9411 39.3614 66.9915C39.4621 67.0419 39.4621 67.1426 39.4118 67.193C39.3614 67.2434 39.2103 67.2434 39.16 67.193C39.0593 67.0922 39.0089 67.0419 39.1096 66.9915ZM39.3614 64.6744C39.3614 64.6241 39.3614 64.5233 39.4118 64.473C39.4621 64.4226 39.5125 64.473 39.5125 64.5233C39.5125 64.5737 39.5125 64.6744 39.4621 64.7248C39.4118 64.7752 39.3614 64.7248 39.3614 64.6744ZM42.9874 64.0196C43.0377 63.9693 43.1385 63.9693 43.1888 64.0196C43.2392 64.0196 43.2392 64.1204 43.1888 64.1707C43.1385 64.2211 43.0377 64.2211 42.9874 64.1707C42.937 64.1204 42.937 64.07 42.9874 64.0196ZM47.6709 60.0403C47.7716 59.99 47.822 59.99 47.822 60.0403C47.822 60.0907 47.822 60.1914 47.822 60.1914C47.822 60.1914 47.7212 60.1914 47.6709 60.1914C47.5702 60.1914 47.5702 60.0907 47.6709 60.0403ZM48.8292 58.2774C48.9299 58.2774 48.9803 58.2774 48.9803 58.3277C48.9803 58.4788 48.7285 58.6803 48.6781 58.5796C48.6277 58.4788 48.6781 58.3277 48.8292 58.2774ZM23.2965 79.4835C23.2461 79.6346 22.8936 79.7353 22.8936 79.6346C22.8936 79.6346 22.9943 79.5338 23.1454 79.4835C23.2461 79.3323 23.2965 79.3827 23.2965 79.4835ZM25.462 80.7427C25.4116 80.6924 25.4116 80.5916 25.4116 80.4405C25.4116 80.239 25.462 80.239 25.613 80.239C25.7138 80.239 25.8145 80.3398 25.8145 80.3901C25.8648 80.5412 25.5627 80.8435 25.462 80.7427ZM26.1166 81.5487C26.0663 81.599 26.0159 81.599 25.9656 81.5487C25.9152 81.4983 25.9152 81.4479 25.9656 81.3975C26.0159 81.3472 26.0663 81.3472 26.1166 81.3975C26.1166 81.4479 26.1166 81.4983 26.1166 81.5487ZM26.8217 82.5561C26.8217 82.6064 26.7713 82.6568 26.6706 82.6568C26.5699 82.6568 26.4692 82.6568 26.4692 82.6064C26.4692 82.5057 26.8217 82.4553 26.8217 82.5561ZM27.0231 80.1887C26.9728 80.239 26.9728 80.1383 26.9224 80.0375C26.9224 79.9368 26.9224 79.7857 26.9728 79.7353C27.0735 79.6849 27.0735 80.0879 27.0231 80.1887ZM27.2246 73.4893C27.0735 73.6908 26.6706 73.8419 26.5699 73.7412C26.5195 73.6908 26.7713 73.439 27.1742 73.1871C27.3253 73.0864 27.3756 73.2879 27.2246 73.4893ZM28.4332 80.4909C28.3325 80.4909 28.2821 80.4909 28.3325 80.4405C28.3829 80.3901 28.4332 80.2894 28.4836 80.1887C28.5339 80.0879 28.5843 80.0879 28.6347 80.1887C28.7354 80.3901 28.685 80.4909 28.4332 80.4909ZM29.3397 80.4909C29.1886 80.642 29.0879 80.7427 29.1383 80.7931C29.1886 80.8435 29.1383 80.8938 29.0879 80.8938C29.0375 80.8938 28.9368 80.8435 28.8865 80.7931C28.7857 80.5916 29.0879 80.1887 29.3901 80.1383C29.6922 80.0375 29.6922 80.1887 29.3397 80.4909ZM29.5411 79.282C29.4908 79.282 29.4404 79.1812 29.4404 79.1309C29.4404 79.0805 29.5411 79.0805 29.5915 79.1309C29.7426 79.2316 29.7426 79.3323 29.5411 79.282ZM29.7929 75.4034C29.7929 75.3531 29.8433 75.3027 29.944 75.2523C30.0447 75.2019 30.0447 75.2523 29.944 75.3531C29.8433 75.4034 29.7929 75.4538 29.7929 75.4034ZM30.1958 81.045C30.0951 81.0953 29.9944 81.045 29.944 80.9946C29.8937 80.9442 29.8937 80.8435 29.944 80.7931C29.9944 80.7427 30.0951 80.7427 30.1958 80.8435C30.2965 80.8938 30.2965 80.9946 30.1958 81.045ZM30.1455 80.5412C30.1455 80.4909 30.1455 80.3901 30.1958 80.3398C30.2462 80.2894 30.2965 80.3901 30.2965 80.4909C30.2965 80.7427 30.1958 80.7427 30.1455 80.5412ZM30.1455 77.116C30.0951 77.0657 30.1455 77.0153 30.2462 76.9649C30.3469 76.9145 30.3973 76.9145 30.4476 76.9145C30.4476 76.9145 30.4476 77.0153 30.3469 77.0657C30.2462 77.116 30.1958 77.1664 30.1455 77.116ZM30.498 78.9798C30.3469 79.1309 30.3469 79.1309 30.3973 78.8286C30.4476 78.6272 30.5483 78.5264 30.5987 78.5768C30.6491 78.6272 30.8002 78.6272 30.8505 78.6272C30.9512 78.6272 30.9009 78.6775 30.8001 78.6775C30.7498 78.8286 30.5987 78.9294 30.498 78.9798ZM31.2534 81.3472C31.203 81.3975 31.1527 81.3472 31.1023 81.2968C31.052 81.2464 31.0016 81.2968 30.9512 81.3472C30.9009 81.4479 30.8505 81.4479 30.8001 81.4479C30.7498 81.3975 30.7498 81.2968 30.9512 81.1961C31.0016 81.1961 31.0016 81.0953 30.9512 80.9946C30.9512 80.8938 31.0016 80.9442 31.1023 81.045C31.203 81.1961 31.3038 81.2968 31.2534 81.3472ZM31.8074 80.3398C31.6563 80.4405 31.5556 80.4909 31.6059 80.4405C31.7066 80.239 31.5556 80.1383 31.4045 80.2894C31.203 80.4909 31.2534 80.0375 31.5052 79.7857C31.6563 79.6346 31.757 79.6346 31.8577 79.8361C31.9584 79.9872 32.0592 80.0879 32.0592 80.0879C32.0592 80.1383 31.9584 80.239 31.8074 80.3398ZM32.0592 78.7279C32.0088 78.7279 32.0088 78.7783 32.0592 78.8286C32.1095 78.879 32.0592 78.9294 32.0088 78.9294C31.9081 78.9294 31.9081 78.879 31.9081 78.7279C31.9081 78.476 31.9584 78.4257 32.1095 78.5768C32.1095 78.6775 32.1095 78.7279 32.0592 78.7279ZM32.6635 80.1383C32.6131 80.2894 32.5124 80.4405 32.462 80.4909C32.4117 80.5412 32.4117 80.4909 32.462 80.4405C32.5124 80.3901 32.462 80.2894 32.3613 80.239C32.2102 80.1383 32.2606 80.0879 32.5628 79.9872C32.7642 79.8864 32.7642 79.8864 32.6635 80.1383ZM33.4189 78.879C33.3685 78.9294 33.2174 78.9798 33.0664 79.0301C32.8649 79.0805 32.8146 79.1309 32.8649 79.2316C32.9153 79.282 32.8649 79.3827 32.7642 79.3827C32.6635 79.3827 32.7139 79.4331 32.7642 79.4835C32.8649 79.5338 32.8649 79.6346 32.6131 79.7857C32.462 79.8864 32.2606 79.9872 32.2606 79.9368C32.2102 79.8864 32.2102 79.7857 32.2606 79.6346C32.311 79.5338 32.2606 79.4835 32.2102 79.4835C32.1599 79.5338 32.1095 79.4835 32.0592 79.4331C32.0088 79.3323 32.0592 79.2316 32.3613 79.0805C32.6131 78.9294 32.7642 78.7783 32.8649 78.6272C33.016 78.3249 33.0664 78.3249 33.0664 78.6775C33.0664 78.9294 33.0664 78.9294 33.2678 78.879C33.4189 78.8286 33.4693 78.8286 33.4189 78.879ZM33.5196 76.6123C33.4693 76.6627 33.3685 76.6627 33.3685 76.6123C33.3182 76.562 33.2678 76.562 33.2678 76.6627C33.2678 76.7131 33.2175 76.7634 33.1671 76.7131C33.0664 76.6123 33.3685 76.4108 33.5196 76.5116C33.5196 76.5116 33.5196 76.562 33.5196 76.6123ZM33.7714 75.2523C33.7714 75.4034 33.6707 75.4538 33.4693 75.4034C33.1671 75.4034 33.1167 75.2523 33.3685 75.1516C33.4693 75.1012 33.6203 74.8997 33.6707 74.6479C33.7714 74.2449 33.8218 74.1945 34.1239 74.1442C34.5268 74.0938 34.5268 74.0938 34.3757 74.2449C34.1743 74.4967 33.7714 75.1516 33.7714 75.2523ZM35.0808 74.8997C34.9297 74.9501 34.9297 74.9501 34.9801 74.799C35.0304 74.6982 34.9297 74.6982 34.7283 74.799C34.3757 75.0005 34.275 74.9501 34.5268 74.6479C34.6275 74.5471 34.829 74.4464 34.9297 74.4967C35.1815 74.5975 35.2822 74.8493 35.0808 74.8997ZM36.1384 72.1293C36.0376 72.079 36.0376 71.9782 36.1887 71.8775C36.3902 71.7264 36.5412 71.7264 36.4909 71.9278C36.4909 72.1293 36.2894 72.2301 36.1384 72.1293ZM36.793 71.0715C36.7427 71.1219 36.642 71.1723 36.5412 71.1219C36.4909 71.1219 36.4909 71.0212 36.5412 70.9708C36.5916 70.9204 36.6923 70.8701 36.793 70.9204C36.8938 70.9204 36.8938 71.0212 36.793 71.0715ZM36.8938 69.0567C36.8434 69.1071 36.6923 69.0567 36.642 69.0567C36.4405 68.956 36.642 68.8552 36.8434 68.956C36.9441 69.0063 36.9441 69.0567 36.8938 69.0567ZM37.5484 64.9263C37.6995 64.8256 37.7499 64.8256 37.6995 64.9767C37.5988 65.2285 37.3974 65.3796 37.3974 65.2285C37.3974 65.1278 37.4477 65.027 37.5484 64.9263ZM37.5988 70.8197C37.3974 70.9708 37.3974 70.9708 37.3974 70.7189C37.3974 70.5678 37.4981 70.4167 37.5988 70.4167C37.8506 70.3663 37.8506 70.6182 37.5988 70.8197ZM38.1528 66.5885C38.052 66.8404 38.0017 66.8908 37.8506 66.8404C37.8002 66.8404 37.8506 66.7396 37.9513 66.5885C38.1528 66.4374 38.2031 66.4374 38.1528 66.5885ZM38.4549 69.6612C38.3542 69.7619 38.3039 69.7619 38.3039 69.7115C38.3039 69.6612 38.4046 69.6108 38.4549 69.5604C38.5557 69.51 38.5557 69.5604 38.4549 69.6612ZM38.4046 66.3871C38.3038 66.2863 38.5556 65.9337 38.7571 65.8833C38.8578 65.8833 38.9082 65.9337 38.8075 66.0345C38.606 66.3871 38.5053 66.4878 38.4046 66.3871ZM39.5125 69.2582C39.3111 69.2582 39.5125 68.9056 39.7643 68.8048C39.9657 68.7041 40.0161 68.7041 40.0161 68.9056C40.0161 69.0567 39.7139 69.3086 39.5125 69.2582ZM40.0665 68.2004C39.865 68.3515 39.7139 68.553 39.7139 68.6537C39.7139 68.8048 39.6636 68.8048 39.6132 68.7545C39.5125 68.6034 39.16 68.9056 39.2607 69.0567C39.3111 69.1574 39.2607 69.2582 39.16 69.3589C39.0089 69.51 39.0089 69.4597 38.8578 69.1574C38.7067 68.7545 38.8074 68.6034 39.1096 68.6537C39.3614 68.7041 39.9154 68.3011 39.865 68.0997C39.8147 67.8982 40.1672 67.6967 40.2679 67.8478C40.3686 67.8982 40.2679 67.9989 40.0665 68.2004ZM40.5197 67.6967C40.419 67.7974 40.3686 67.7974 40.3686 67.7471C40.3686 67.6967 40.4693 67.6463 40.5197 67.5959C40.6204 67.5456 40.6204 67.596 40.5197 67.6967ZM40.3183 66.2359C40.2679 66.1856 40.2679 66.1352 40.2679 66.0345C40.3183 65.8833 40.4694 65.833 40.5701 65.9337C40.6708 66.0345 40.419 66.3367 40.3183 66.2359ZM41.124 67.7471C41.0737 67.7974 40.973 67.7974 40.9226 67.7471C40.8722 67.6967 40.9226 67.5959 41.0233 67.4952C41.124 67.3945 41.2248 67.3945 41.2248 67.4952C41.2751 67.5959 41.2248 67.6967 41.124 67.7471ZM42.383 65.4804C42.4838 65.5307 42.4334 65.5811 42.3327 65.6819C42.1816 65.833 42.1312 65.7826 42.1816 65.6315C42.232 65.5307 42.232 65.4804 42.1816 65.4804C42.1312 65.5307 42.1312 65.43 42.1312 65.2285C42.1312 64.8759 42.3327 64.6744 42.6348 64.7248C42.8866 64.7752 42.8866 64.9263 42.6348 64.9767C42.5341 65.027 42.4838 65.0774 42.5341 65.1278C42.5845 65.1782 42.5341 65.2285 42.4334 65.2789C42.3327 65.3796 42.2823 65.43 42.383 65.4804ZM42.4838 66.0345C42.4838 65.8833 42.5845 65.7826 42.7356 65.6819C42.937 65.5811 42.937 65.5307 42.7356 65.5811C42.5341 65.6315 42.5341 65.6315 42.7356 65.43C42.8867 65.3293 43.0881 65.2285 43.1888 65.1782C43.491 65.1278 43.4406 65.6315 43.0881 65.7826C42.937 65.8833 42.7356 65.9841 42.6348 66.0848C42.5341 66.2359 42.4838 66.2359 42.4838 66.0345ZM42.8866 66.6389C42.8866 66.6389 42.8363 66.6389 42.7859 66.5885C42.7356 66.5382 42.7859 66.4878 42.7859 66.4374C42.8363 66.3871 42.8866 66.4374 42.8866 66.4878C42.937 66.5382 42.937 66.6389 42.8866 66.6389ZM43.2392 66.0848C43.1385 66.3367 43.0881 66.3871 42.9874 66.2863C42.937 66.2359 42.9874 66.1352 43.0881 66.0345C43.2895 65.9337 43.2895 65.9337 43.2392 66.0848ZM43.4406 66.6389C43.3903 66.6893 43.2895 66.6893 43.2895 66.5885C43.2895 66.5382 43.3399 66.4374 43.3903 66.3367C43.4406 66.2863 43.5413 66.2863 43.5413 66.3871C43.5917 66.4878 43.5413 66.5885 43.4406 66.6389ZM44.3471 65.7322C44.2464 65.833 44.1457 65.833 44.196 65.7826C44.2464 65.7322 44.3471 65.6315 44.3975 65.6315C44.4982 65.5811 44.4982 65.6315 44.3471 65.7322ZM45.3543 64.0196C45.2536 64.2715 44.4982 64.8759 44.3975 64.7248C44.3471 64.6744 44.2967 64.7248 44.3471 64.9263C44.3975 65.3796 44.0449 65.5811 43.7428 65.3293C43.4406 65.0774 43.3399 64.5737 43.5413 64.4226C43.6421 64.3722 43.6421 64.2211 43.5917 64.1707C43.491 64.0196 43.5413 63.9693 43.7931 63.8685C43.8939 63.8181 43.9946 63.8685 43.9946 63.9693C44.0449 64.1707 44.4478 64.1707 44.4982 63.9693C44.5485 63.8685 44.6493 63.8685 44.75 63.9693C44.8507 64.07 44.9514 64.07 45.0018 64.0196C45.0018 63.9693 45.1025 63.8685 45.2536 63.8685C45.4047 63.8181 45.4047 63.8685 45.3543 64.0196ZM45.1529 62.6092C45.1025 62.6092 45.0521 62.5589 45.1025 62.5085C45.455 62.1559 45.6061 62.0552 45.6565 62.1559C45.8075 62.4078 45.455 62.71 45.1529 62.6092ZM47.5702 61.2492C47.3687 61.4507 47.0666 61.7529 46.9155 61.9544C46.6133 62.307 46.3112 62.5085 46.2104 62.4078C46.0594 62.2063 46.1601 61.9544 46.3615 61.904C46.5126 61.8537 46.6637 61.7026 46.7644 61.5515L46.9155 61.2996L46.4119 61.4507C45.8075 61.6018 45.6565 61.6018 45.9586 61.35C46.1097 61.2492 46.3111 61.1485 46.4119 61.1989C46.563 61.1989 46.6133 61.1989 46.714 60.9974C46.7644 60.7959 46.8651 60.7455 47.0666 60.7455C47.3687 60.7455 47.3687 60.8966 47.1169 61.0981C47.0162 61.1989 46.9658 61.2492 47.0666 61.2492C47.1673 61.2492 47.2176 61.2492 47.6205 60.9974C48.0234 60.6448 47.973 60.8966 47.5702 61.2492ZM48.6277 59.0329C49.081 58.6803 49.081 58.6803 49.1313 58.9322C49.1817 59.2344 49.081 59.3351 48.5774 59.3351H48.1745L48.6277 59.0329ZM49.081 60.6448C49.081 60.6448 48.9803 60.6448 48.9299 60.6448C48.8795 60.5944 48.8795 60.544 48.9299 60.4937C48.9803 60.4433 49.081 60.4433 49.081 60.4937C49.1313 60.544 49.081 60.6448 49.081 60.6448ZM48.6781 60.0907C48.4263 60.0907 48.4263 60.0907 48.5774 59.8892C48.6781 59.7885 48.8795 59.587 49.081 59.4863C49.3831 59.3351 49.4335 59.3351 49.4335 59.5366C49.3831 59.7885 48.9803 60.0907 48.6781 60.0907ZM49.4335 58.1262C49.3328 58.1766 49.2824 58.227 49.2824 58.1766C49.2824 58.1262 49.3831 58.0759 49.4335 58.0255C49.5342 58.0255 49.5342 58.0759 49.4335 58.1262ZM49.9371 58.1262C49.8867 58.227 49.786 58.2774 49.786 58.3277C49.786 58.3277 49.786 58.2774 49.786 58.1262C49.786 57.8744 49.9371 57.7736 49.9875 57.8744C50.0378 57.9248 49.9875 58.0255 49.9371 58.1262ZM49.9371 57.5722C49.8867 57.5218 49.8867 57.421 50.0378 57.3707C50.1889 57.2699 50.2393 57.2699 50.2896 57.421C50.2896 57.5722 50.0882 57.6729 49.9371 57.5722ZM53.0594 58.1766C53.0091 58.2774 52.9084 58.3277 52.7573 58.2774C52.5558 58.227 52.5055 58.227 52.5558 58.0759C52.6062 57.9751 52.5558 57.8744 52.5055 57.824C52.4551 57.7736 52.4551 57.7736 52.5055 57.7736C52.5558 57.7736 52.6566 57.7736 52.7069 57.7233C52.8076 57.6225 52.858 57.6729 52.8076 57.8744C52.8076 58.0759 52.8076 58.1262 52.9587 58.0759C53.1098 58.0255 53.1098 58.0759 53.0594 58.1766ZM53.0594 57.4714C52.9587 57.5722 52.9084 57.5218 52.9084 57.4714C52.9587 57.2699 53.2609 56.9173 53.3112 57.0181C53.412 57.1188 53.3112 57.3203 53.0594 57.4714ZM53.6134 56.9677C53.5127 57.0181 53.5127 57.0181 53.4623 56.8166C53.4623 56.5144 53.5631 56.4136 53.6638 56.5647C53.7645 56.7159 53.7645 56.867 53.6134 56.9677ZM53.5631 55.7588C53.3616 55.7588 53.3113 55.7588 53.4623 55.8092C53.6134 55.8596 53.5631 55.9099 53.3616 56.0107C53.1602 56.1114 53.1098 56.1618 53.2105 56.2121C53.3113 56.2625 53.2609 56.3633 53.0594 56.5144C52.9084 56.6151 52.8076 56.7662 52.8076 56.867C52.8076 57.0685 52.7069 57.2699 52.4551 57.4714C52.304 57.5722 52.304 57.5722 52.304 57.3707C52.304 57.1692 52.304 57.1692 52.0019 57.421C51.8004 57.6225 51.6997 57.6729 51.6997 57.5722C51.6997 57.4714 51.6494 57.4714 51.6494 57.5722C51.599 57.7233 50.5414 58.1766 50.34 58.1766C50.2393 58.1766 50.2393 58.1262 50.34 58.0759C50.4407 58.0255 50.5918 57.7736 50.7429 57.5218C50.9947 57.1188 51.2465 56.9173 51.0954 57.2699C51.045 57.3707 51.1458 57.3707 51.3472 57.2196C51.5486 57.0685 51.7501 56.9677 51.8004 56.9677C51.8508 56.9677 51.9515 56.9173 51.9012 56.8166C51.9012 56.6151 52.2537 56.5647 52.304 56.7662C52.3544 56.9677 52.7573 56.5144 52.7573 56.2625C52.7573 56.1618 52.8076 56.061 52.858 56.0107C52.9587 55.9099 52.9084 55.7588 52.7573 55.5573C52.7069 55.507 52.7573 55.4062 52.858 55.3558C52.9587 55.2551 53.0091 55.2551 53.1098 55.3558C53.1602 55.4566 53.3616 55.507 53.5631 55.507C53.7645 55.507 53.8652 55.5573 53.8149 55.6581C53.8149 55.7084 53.7141 55.7588 53.5631 55.7588ZM53.8652 55.3055C53.8149 55.3558 53.7141 55.3558 53.6638 55.3055C53.6134 55.2551 53.6134 55.2551 53.7141 55.2047C53.9156 55.1544 53.9659 55.2047 53.8652 55.3055ZM55.0739 54.3988C54.9731 54.4492 54.8724 54.4492 54.8221 54.3484C54.7213 54.1973 54.9228 54.0966 55.1242 54.1973C55.1746 54.2981 55.1746 54.3484 55.0739 54.3988ZM55.1746 52.8877C55.0739 52.938 54.9731 52.938 54.9228 52.8877C54.8221 52.7366 54.8221 52.7366 55.0739 52.6862C55.2753 52.5855 55.376 52.7366 55.1746 52.8877ZM55.5775 55.1544C55.4767 55.2047 55.4264 55.2551 55.4264 55.2047C55.4264 55.1544 55.5271 55.104 55.5775 55.0536C55.6782 55.0033 55.6782 55.0536 55.5775 55.1544ZM56.0811 54.1469C55.9804 54.1973 55.93 54.1973 55.93 54.0966C55.93 53.9958 55.9804 53.9455 56.0811 53.8951C56.1818 53.8447 56.2322 53.8447 56.2322 53.9455C56.1818 53.9958 56.1314 54.0966 56.0811 54.1469ZM56.5847 53.1395C56.5343 53.0892 56.5847 52.9884 56.7861 52.938C56.9372 52.8373 57.0883 52.8373 57.0883 52.8877C57.1386 53.0892 56.7358 53.2403 56.5847 53.1395ZM57.1386 47.8002C57.1386 47.7499 57.2394 47.6995 57.2897 47.6491C57.3904 47.6491 57.3904 47.6491 57.2897 47.7499C57.2394 47.8506 57.1386 47.901 57.1386 47.8002ZM57.4912 52.384C57.3904 52.4343 57.2897 52.4847 57.2394 52.4343C57.189 52.384 57.2394 52.2832 57.2897 52.2329C57.3904 52.1825 57.4912 52.1825 57.5415 52.1825C57.6422 52.2329 57.5919 52.2832 57.4912 52.384ZM58.5991 50.5706C58.5487 50.621 58.3977 50.621 58.3473 50.621C58.2969 50.5706 58.2969 50.5202 58.3977 50.4195C58.4984 50.3691 58.5991 50.3188 58.6495 50.3691C58.6998 50.4195 58.6998 50.5203 58.5991 50.5706ZM58.6495 49.9662C58.5487 50.0165 58.4984 50.0669 58.4984 50.0165C58.4984 49.9662 58.5991 49.9158 58.6495 49.8654C58.7502 49.8654 58.7502 49.9158 58.6495 49.9662ZM59.5056 50.7217C59.4049 50.7217 59.3545 50.8225 59.3545 50.8728C59.3545 51.024 59.1027 51.2254 59.0523 51.1247C59.0523 51.0743 59.0523 50.9736 59.0523 50.8728C59.1027 50.6714 59.5056 50.4195 59.6063 50.5706C59.6567 50.621 59.6063 50.6714 59.5056 50.7217ZM60.0092 48.9084C59.8581 48.858 59.7574 48.7573 59.7574 48.7069C59.8077 48.5558 60.2106 48.6565 60.3113 48.8076C60.4624 49.0091 60.3113 49.0595 60.0092 48.9084ZM60.7646 48.8076C60.6135 48.8076 60.4624 48.7573 60.3617 48.6565C60.2106 48.455 60.261 48.2536 60.5631 48.3039C60.6639 48.3039 60.7646 48.3039 60.7142 48.2536C60.7142 48.2032 60.8149 48.2032 60.9157 48.1528C61.2178 48.1025 61.1675 48.3543 60.8653 48.5054C60.7142 48.5558 60.7142 48.6062 60.8149 48.7069C61.0164 48.8076 61.0164 48.8076 60.7646 48.8076ZM61.3689 49.1099C61.3186 49.1099 61.2178 49.1099 61.0668 49.1099C60.8653 49.0595 60.8653 49.0595 61.0164 48.9588C61.1171 48.9084 61.2682 48.9084 61.3186 48.9588C61.3689 49.0091 61.4193 49.0595 61.3689 49.1099ZM61.6711 45.735C61.7214 45.6847 61.8222 45.735 61.8222 45.7854C61.8725 45.8358 61.8725 45.8861 61.8222 45.8861C61.8222 45.8861 61.7214 45.8861 61.6711 45.8358C61.6207 45.8358 61.6207 45.7854 61.6711 45.735ZM61.8725 48.4047C61.6711 48.6565 61.6711 48.6565 61.6711 48.5558C61.6711 48.5054 61.7214 48.3543 61.8222 48.3039C61.9732 48.2032 61.9732 48.2032 61.8725 48.4047ZM62.5776 48.7069C62.5776 48.7069 62.4768 48.7069 62.4265 48.6565C62.3761 48.6062 62.3761 48.5558 62.4265 48.5558C62.4768 48.5054 62.5272 48.5558 62.5776 48.6062C62.6279 48.6565 62.6279 48.7069 62.5776 48.7069ZM62.6783 46.8936C62.3258 47.095 62.225 47.1454 62.225 46.9943C62.225 46.8936 62.1747 46.7928 62.1243 46.7424C62.0236 46.6921 62.225 46.541 62.4265 46.541C62.5272 46.541 62.6783 46.4402 62.8294 46.3898C62.8797 46.3395 62.9804 46.3898 63.0308 46.4402C63.1315 46.541 62.9804 46.6921 62.6783 46.8936ZM62.9301 48.5054C62.8797 48.5558 62.8294 48.5054 62.779 48.455C62.7286 48.4047 62.779 48.3543 62.8294 48.3039C62.8797 48.2536 62.9301 48.3039 62.9804 48.3543C62.9804 48.4047 62.9804 48.455 62.9301 48.5054ZM63.1819 47.5987C63.1315 47.7499 62.9804 47.8002 62.9301 47.6491C62.8797 47.5987 62.9301 47.498 62.9804 47.4476C63.0812 47.3469 63.2322 47.3973 63.1819 47.5987ZM63.4841 46.7928C63.4841 46.7928 63.3833 46.7928 63.333 46.7424C63.2826 46.6921 63.2826 46.6417 63.3833 46.5913C63.4841 46.541 63.5344 46.541 63.5344 46.6417C63.5344 46.7424 63.5344 46.7928 63.4841 46.7928ZM63.8366 42.2091C63.7862 42.2594 63.6855 42.2594 63.6351 42.2091C63.5848 42.1587 63.5344 42.1083 63.6351 42.1083C63.6855 42.058 63.7862 42.058 63.8366 42.1083C63.8869 42.1587 63.8869 42.2091 63.8366 42.2091ZM65.8006 44.0224C65.8006 44.0224 65.6999 44.0224 65.6495 43.972C65.5992 43.9217 65.5992 43.8713 65.6495 43.8713C65.6999 43.8209 65.7503 43.8713 65.8006 43.9217C65.851 43.9217 65.851 43.972 65.8006 44.0224ZM66.3042 45.5335C66.2035 45.5335 66.1028 45.5839 66.0524 45.6847C65.9517 45.8861 64.8941 46.2387 64.7934 46.138C64.6423 45.9869 64.7934 45.8358 65.0956 45.8358C65.2467 45.8358 65.3474 45.7854 65.3977 45.6847C65.3977 45.4328 65.6999 45.2817 66.1028 45.2817C66.3546 45.2817 66.5057 45.3824 66.5057 45.4328C66.4553 45.5335 66.405 45.5839 66.3042 45.5335ZM66.3042 45.1306C66.2539 45.0802 66.2539 44.9291 66.2539 44.778C66.2539 44.5765 66.3042 44.5261 66.405 44.5765C66.4553 44.6269 66.5057 44.7276 66.5057 44.8284C66.556 45.1306 66.405 45.2817 66.3042 45.1306ZM66.9589 44.9291C66.8078 44.8787 66.8078 44.5765 66.9086 44.4758C67.0093 44.4254 67.11 44.4758 67.1604 44.5765C67.2611 44.778 67.1604 44.9795 66.9589 44.9291ZM67.4625 42.8135C67.4625 42.8135 67.3618 42.8135 67.3114 42.7631C67.2611 42.7128 67.2611 42.6624 67.3114 42.6624C67.3618 42.612 67.4625 42.6624 67.4625 42.7128C67.4625 42.7631 67.4625 42.8135 67.4625 42.8135ZM67.8654 44.1735C67.664 44.4758 67.6136 44.4758 67.6136 44.2239C67.6136 44.0224 67.664 43.972 67.815 44.0224C67.9661 43.972 67.9661 44.0224 67.8654 44.1735ZM67.7143 43.7202C67.664 43.6698 67.7647 43.5691 67.9158 43.5187C68.1676 43.418 68.2683 43.4683 68.2683 43.6698C68.2179 43.8209 67.7647 43.8713 67.7143 43.7202ZM68.2179 44.8284C68.1676 44.8284 68.0668 44.8284 68.0165 44.778C67.9661 44.6772 68.1172 44.5765 68.2179 44.6772C68.3186 44.7276 68.3186 44.778 68.2179 44.8284ZM68.4697 43.0654C68.4194 43.015 68.4194 42.9143 68.4697 42.8639C68.5704 42.8135 68.7719 42.8639 68.7215 43.015C68.6712 43.1661 68.5201 43.2165 68.4697 43.0654ZM68.9733 42.3098C68.9733 42.3098 68.923 42.3098 68.8726 42.2594C68.8223 42.2091 68.8726 42.1587 68.923 42.1083C68.9733 42.058 69.0237 42.1083 69.0237 42.1587C69.0237 42.2091 68.9733 42.3098 68.9733 42.3098ZM72.7 41.9572C72.7 41.9572 72.5993 41.9572 72.5489 41.9068C72.4986 41.8565 72.4986 41.8061 72.5489 41.8061C72.5993 41.7557 72.6496 41.8061 72.7 41.8565C72.7 41.9068 72.7 41.9572 72.7 41.9572ZM71.8439 41.2017C71.9446 41.1513 72.0453 41.1513 72.0957 41.1513C72.146 41.2017 72.146 41.252 72.0957 41.3024C71.995 41.3528 71.8942 41.3528 71.8439 41.3528C71.7432 41.3024 71.7432 41.252 71.8439 41.2017ZM71.6424 39.6402C71.6424 39.5898 71.7432 39.5394 71.8439 39.5394C71.9446 39.5394 71.9446 39.5394 71.8439 39.6402C71.7432 39.6905 71.6424 39.6905 71.6424 39.6402ZM69.9302 42.2594C69.9805 42.2091 70.0813 42.2594 70.0813 42.3098C70.1316 42.3602 70.1316 42.4106 70.0813 42.4106C70.0813 42.4106 69.9805 42.4105 69.9302 42.3602C69.8798 42.3098 69.8798 42.2594 69.9302 42.2594ZM72.7 42.4106C72.5993 42.612 72.4482 42.7128 72.0957 42.9143C71.7935 43.0654 71.5921 43.2165 71.5921 43.2669C71.5921 43.4683 70.5345 44.0224 70.4338 43.8713C70.3834 43.8209 70.3331 43.7706 70.2827 43.8209C70.2323 43.8713 70.0309 43.8209 69.8798 43.7202C69.5777 43.5691 69.5777 43.5691 69.6784 43.3676C69.7791 43.1661 69.8295 43.1661 70.182 43.1661C70.5345 43.1661 70.5849 43.1661 70.6352 42.9143C70.6856 42.6624 70.6856 42.6624 70.5849 42.8135C70.4841 42.9646 70.4338 42.9646 70.4338 42.7128C70.4338 42.5617 70.4841 42.4105 70.5849 42.3602C70.736 42.2594 70.736 42.3098 70.6352 42.4609C70.5345 42.612 70.5849 42.612 70.7359 42.5617C70.8367 42.5113 71.0381 42.4609 71.1892 42.4609C71.3906 42.4609 71.441 42.4105 71.441 42.3098C71.3906 42.1083 71.8439 41.8565 71.9446 42.0076C71.995 42.1083 72.0957 42.1083 72.146 42.1083C72.1964 42.058 72.2971 42.1083 72.3978 42.2091C72.3978 42.2594 72.5489 42.3098 72.6496 42.2594C72.8007 42.1587 72.8007 42.2091 72.7 42.4106ZM73.5561 21.2044C73.5058 21.2044 73.5058 21.2044 73.4554 21.2044C73.4554 21.1541 73.4554 21.1037 73.5058 21.1037C73.5058 21.1037 73.5561 21.1541 73.5561 21.2044ZM75.1173 38.6831C75.0669 38.7335 75.0166 38.6831 74.9662 38.5824C74.9159 38.4816 74.9662 38.4313 75.0166 38.3809C75.1173 38.3305 75.1677 38.3809 75.1677 38.4816C75.1677 38.5824 75.1677 38.6831 75.1173 38.6831ZM54.671 16.1674C54.7213 16.1674 54.7717 16.1674 54.7717 16.2681C54.7717 16.3185 54.7717 16.3688 54.7213 16.4192C54.671 16.4192 54.6206 16.4192 54.6206 16.3185C54.6206 16.2177 54.6206 16.1674 54.671 16.1674ZM49.4335 26.6949C49.4839 26.6949 49.4839 26.7452 49.4335 26.7956C49.3831 26.846 49.2824 26.846 49.3328 26.7956C49.2824 26.6949 49.3831 26.6949 49.4335 26.6949ZM46.2608 12.2384C46.2608 12.2384 46.3615 12.2384 46.4119 12.2888C46.4622 12.3392 46.4622 12.3896 46.4119 12.3896C46.3615 12.3896 46.3112 12.3896 46.2608 12.3392C46.2104 12.2888 46.2104 12.2384 46.2608 12.2384ZM45.5557 29.1127C45.6061 29.1127 45.6061 29.163 45.5557 29.2134C45.5054 29.2638 45.455 29.2638 45.455 29.2134C45.4047 29.1127 45.455 29.1127 45.5557 29.1127ZM43.5413 30.8756C43.5917 30.8756 43.6421 30.8756 43.6421 30.9764C43.6421 31.0267 43.6421 31.0267 43.6421 31.0267L43.5917 31.0771L43.5413 31.0267C43.5413 30.926 43.5413 30.8756 43.5413 30.8756ZM42.383 31.1275C42.4334 31.1275 42.4838 31.1275 42.5341 31.1779C42.5845 31.2282 42.5845 31.2786 42.5845 31.2786C42.5845 31.2786 42.5341 31.2786 42.4334 31.2282C42.383 31.1779 42.3327 31.1275 42.383 31.1275ZM41.3255 31.9334C41.3758 31.9334 41.4262 31.9334 41.4766 31.9838C41.5269 32.0342 41.5269 32.0845 41.5269 32.0845C41.5269 32.0845 41.4766 32.0845 41.3758 32.0342C41.2751 31.9838 41.2751 31.9334 41.3255 31.9334ZM39.4118 30.0697C39.4621 30.0697 39.5125 30.0697 39.5629 30.1201C39.6132 30.1704 39.6132 30.2208 39.6132 30.2208C39.5629 30.2208 39.5125 30.2208 39.4621 30.1704C39.4118 30.1201 39.4118 30.1201 39.4118 30.0697ZM39.4118 33.8475C39.4621 33.8475 39.6132 33.7971 39.6636 33.7468C39.7139 33.7468 39.7643 33.7468 39.8147 33.7971C39.6636 33.8979 39.5125 34.049 39.3111 34.1497C39.3111 34.049 39.2607 33.9986 39.16 33.9483C39.1096 33.8979 39.2607 33.8475 39.4118 33.8475ZM39.1096 8.35989C39.16 8.30952 39.2103 8.41026 39.16 8.511C39.1096 8.71249 39.0089 8.76286 39.0089 8.511C39.0089 8.511 39.0593 8.41026 39.1096 8.35989ZM38.606 33.0416C38.6564 33.0416 38.7067 33.0416 38.7571 33.092C38.8075 33.1423 38.8075 33.1927 38.8075 33.1927C38.8075 33.1927 38.7571 33.1927 38.6564 33.1423C38.606 33.092 38.5556 33.0416 38.606 33.0416ZM38.5053 34.1497C38.5556 34.0994 38.606 34.1497 38.6564 34.2001C38.7067 34.2505 38.7067 34.3008 38.7067 34.3008C38.7067 34.3008 38.6564 34.3009 38.5557 34.2505C38.5053 34.2505 38.4549 34.2001 38.5053 34.1497ZM37.8002 34.3008C37.8506 34.3008 37.901 34.3008 37.9513 34.3008C38.0017 34.3512 38.0017 34.4016 37.9513 34.452C37.901 34.5023 37.8506 34.5023 37.8002 34.452C37.7499 34.4016 37.7499 34.3512 37.8002 34.3008ZM37.347 28.6593C37.3974 28.6593 37.3974 28.7097 37.347 28.7601C37.2966 28.8104 37.2463 28.8104 37.2463 28.7601C37.1959 28.7097 37.2463 28.6593 37.347 28.6593ZM36.7427 25.2845C36.793 25.2845 36.793 25.3349 36.7427 25.3852C36.6923 25.4356 36.5916 25.4356 36.5916 25.3852C36.5916 25.3349 36.642 25.2845 36.7427 25.2845ZM35.6851 34.3008C35.7355 34.3008 35.7355 34.3009 35.6851 34.4016C35.6348 34.452 35.5844 34.452 35.5844 34.4016C35.5844 34.4016 35.6348 34.3008 35.6851 34.3008ZM31.5556 18.7866C31.6059 18.7363 31.6563 18.7866 31.7066 18.837C31.757 18.8874 31.757 18.9378 31.757 18.9378C31.757 18.9378 31.6563 18.9378 31.6059 18.8874C31.5052 18.8874 31.5052 18.837 31.5556 18.7866ZM20.9799 38.129C21.0302 38.0787 21.0806 38.129 21.0806 38.1794C21.131 38.2298 21.131 38.2801 21.131 38.3305C21.131 38.3305 21.0806 38.3305 21.0302 38.2801C20.9799 38.2298 20.9295 38.129 20.9799 38.129ZM10.5049 56.0107C10.5553 55.9603 10.6056 56.0107 10.5553 56.1114C10.5049 56.2121 10.4546 56.2121 10.4546 56.1618C10.4042 56.1114 10.4546 56.061 10.5049 56.0107Z" fill="#F5CED0"/>
<circle cx="45" cy="37" r="17" fill="white"/>
<path d="M45 59.1005C57.7025 59.1005 68 48.8156 68 36.1285C68 23.4414 57.7025 13.1565 45 13.1565C32.2975 13.1565 22 23.4414 22 36.1285C22 48.8156 32.2975 59.1005 45 59.1005Z" stroke="#151F41" stroke-width="2" stroke-miterlimit="10" stroke-linecap="round" stroke-linejoin="round"/>
<path d="M44.9999 53.7271C54.7311 53.7271 62.6199 45.848 62.6199 36.1286C62.6199 26.4092 54.7311 18.53 44.9999 18.53C35.2686 18.53 27.3799 26.4092 27.3799 36.1286C27.3799 45.848 35.2686 53.7271 44.9999 53.7271Z" stroke="#151F41" stroke-width="2" stroke-miterlimit="10" stroke-linecap="round" stroke-linejoin="round"/>
<path d="M45.0003 38.4287C46.2722 38.4287 47.3033 37.3989 47.3033 36.1285C47.3033 34.8582 46.2722 33.8284 45.0003 33.8284C43.7284 33.8284 42.6973 34.8582 42.6973 36.1285C42.6973 37.3989 43.7284 38.4287 45.0003 38.4287Z" stroke="#151F41" stroke-width="2" stroke-miterlimit="10" stroke-linecap="round" stroke-linejoin="round"/>
<path d="M49.6019 21.9568L45.7109 33.9412" stroke="#151F41" stroke-width="2" stroke-miterlimit="10" stroke-linecap="round" stroke-linejoin="round"/>
<path d="M47.3037 36.1284H53.7707" stroke="#151F41" stroke-width="2" stroke-miterlimit="10" stroke-linecap="round" stroke-linejoin="round"/>
<path d="M27.3799 36.1284H32.5439" stroke="#151F41" stroke-width="2" stroke-miterlimit="10" stroke-linecap="round" stroke-linejoin="round"/>
<path d="M57.4541 36.1284H62.6201" stroke="#151F41" stroke-width="2" stroke-miterlimit="10" stroke-linecap="round" stroke-linejoin="round"/>
<path d="M45 18.53V23.6887" stroke="#151F41" stroke-width="2" stroke-miterlimit="10" stroke-linecap="round" stroke-linejoin="round"/>
<path d="M45 48.5674V53.7271" stroke="#151F41" stroke-width="2" stroke-miterlimit="10" stroke-linecap="round" stroke-linejoin="round"/>
<path d="M53.0745 54.4606C52.8062 54.2831 52.4918 54.1879 52.17 54.1866H52C51.4696 54.1866 50.9609 53.9761 50.5858 53.6015C50.2107 53.2269 50 52.7188 50 52.189C50 51.6593 50.2107 51.1512 50.5858 50.7766C50.9609 50.4019 51.4696 50.1915 52 50.1915H52.09C52.421 50.1837 52.742 50.0767 53.0113 49.8844C53.2806 49.692 53.4857 49.4232 53.6 49.1128C53.7331 48.8115 53.7728 48.4774 53.714 48.1534C53.6552 47.8294 53.5005 47.5304 53.27 47.295L53.21 47.2351C53.024 47.0496 52.8765 46.8293 52.7759 46.5868C52.6752 46.3443 52.6234 46.0843 52.6234 45.8218C52.6234 45.5593 52.6752 45.2994 52.7759 45.0569C52.8765 44.8144 53.024 44.5941 53.21 44.4085C53.3957 44.2228 53.6163 44.0755 53.8591 43.975C54.1019 43.8744 54.3622 43.8227 54.625 43.8227C54.8878 43.8227 55.1481 43.8744 55.3909 43.975C55.6337 44.0755 55.8543 44.2228 56.04 44.4085L56.1 44.4685C56.3357 44.6987 56.635 44.8532 56.9594 44.9119C57.2838 44.9707 57.6184 44.931 57.92 44.7981H58C58.2958 44.6715 58.548 44.4612 58.7257 44.1933C58.9034 43.9253 58.9987 43.6113 59 43.2899V43.1201C59 42.5903 59.2107 42.0822 59.5858 41.7076C59.9609 41.333 60.4696 41.1226 61 41.1226C61.5304 41.1226 62.0391 41.333 62.4142 41.7076C62.7893 42.0822 63 42.5903 63 43.1201V43.21C63.0013 43.5314 63.0966 43.8454 63.2743 44.1134C63.452 44.3813 63.7042 44.5916 64 44.7182C64.3016 44.8511 64.6362 44.8908 64.9606 44.832C65.285 44.7733 65.5843 44.6188 65.82 44.3886L65.88 44.3286C66.0657 44.1429 66.2863 43.9956 66.5291 43.8951C66.7719 43.7945 67.0322 43.7428 67.295 43.7428" stroke="#F5CED0" stroke-width="7" stroke-linecap="round" stroke-linejoin="round"/>
<path d="M68.4 55.1055C68.2669 55.4068 68.2272 55.7409 68.286 56.0649C68.3448 56.3889 68.4995 56.6879 68.73 56.9233L68.79 56.9832C68.976 57.1687 69.1235 57.389 69.2241 57.6315C69.3248 57.874 69.3766 58.134 69.3766 58.3965C69.3766 58.659 69.3248 58.9189 69.2241 59.1614C69.1235 59.4039 68.976 59.6243 68.79 59.8098C68.6043 59.9955 68.3837 60.1428 68.1409 60.2434C67.8981 60.3439 67.6378 60.3956 67.375 60.3956C67.1122 60.3956 66.8519 60.3439 66.6091 60.2434C66.3663 60.1428 66.1457 59.9955 65.96 59.8098L65.9 59.7498C65.6643 59.5196 65.365 59.3651 65.0406 59.3064C64.7162 59.2476 64.3816 59.2873 64.08 59.4202C63.7842 59.5469 63.532 59.7571 63.3543 60.025C63.1766 60.293 63.0813 60.607 63.08 60.9284V61.0982C63.08 61.628 62.8693 62.1361 62.4942 62.5107C62.1191 62.8853 61.6104 63.0958 61.08 63.0958C60.5496 63.0958 60.0409 62.8853 59.6658 62.5107C59.2907 62.1361 59.08 61.628 59.08 61.0982V61.0083C59.0723 60.6777 58.9651 60.3571 58.7725 60.0881C58.5799 59.8192 58.3107 59.6143 58 59.5001C57.6984 59.3672 57.3638 59.3275 57.0394 59.3863C56.715 59.445 56.4157 59.5995 56.18 59.8297L56.12 59.8897C55.9343 60.0754 55.7137 60.2227 55.4709 60.3233C55.2281 60.4238 54.9678 60.4755 54.705 60.4755C54.4422 60.4755 54.1819 60.4238 53.9391 60.3233C53.6963 60.2227 53.4757 60.0754 53.29 59.8897C53.104 59.7042 52.9565 59.4838 52.8559 59.2413C52.7552 58.9988 52.7034 58.7389 52.7034 58.4764C52.7034 58.2139 52.7552 57.954 52.8559 57.7115C52.9565 57.4689 53.104 57.2486 53.29 57.0631L53.35 57.0032C53.5805 56.7678 53.7352 56.4688 53.794 56.1448C53.8528 55.8208 53.8131 55.4867 53.68 55.1854C53.5532 54.89 53.3428 54.6381 53.0745 54.4606C52.8062 54.2831 52.4918 54.1879 52.17 54.1866H52C51.4696 54.1866 50.9609 53.9762 50.5858 53.6016C50.2107 53.2269 50 52.7189 50 52.1891C50 51.6593 50.2107 51.1512 50.5858 50.7766C50.9609 50.402 51.4696 50.1915 52 50.1915H52.09C52.421 50.1838 52.742 50.0768 53.0113 49.8844C53.2806 49.692 53.4857 49.4232 53.6 49.1128C53.7331 48.8116 53.7728 48.4774 53.714 48.1534C53.6552 47.8294 53.5005 47.5304 53.27 47.295L53.21 47.2351C53.024 47.0496 52.8765 46.8293 52.7759 46.5868C52.6752 46.3443 52.6234 46.0843 52.6234 45.8218C52.6234 45.5593 52.6752 45.2994 52.7759 45.0569C52.8765 44.8144 53.024 44.5941 53.21 44.4086C53.3957 44.2228 53.6163 44.0755 53.8591 43.975C54.1019 43.8744 54.3622 43.8227 54.625 43.8227C54.8878 43.8227 55.1481 43.8744 55.3909 43.975C55.6337 44.0755 55.8543 44.2228 56.04 44.4086L56.1 44.4685C56.3357 44.6987 56.635 44.8532 56.9594 44.9119C57.2838 44.9707 57.6184 44.931 57.92 44.7981H58C58.2958 44.6715 58.548 44.4612 58.7257 44.1933C58.9034 43.9253 58.9987 43.6113 59 43.2899V43.1201C59 42.5903 59.2107 42.0822 59.5858 41.7076C59.9609 41.333 60.4696 41.1226 61 41.1226C61.5304 41.1226 62.0391 41.333 62.4142 41.7076C62.7893 42.0822 63 42.5903 63 43.1201V43.21C63.0013 43.5314 63.0966 43.8454 63.2743 44.1134C63.452 44.3813 63.7042 44.5916 64 44.7182C64.3016 44.8511 64.6362 44.8908 64.9606 44.832C65.285 44.7733 65.5843 44.6188 65.82 44.3886L65.88 44.3286C66.0657 44.1429 66.2863 43.9956 66.5291 43.8951C66.7719 43.7945 67.0322 43.7428 67.295 43.7428C67.5578 43.7428 67.8181 43.7945 68.0609 43.8951C68.3037 43.9956 68.5243 44.1429 68.71 44.3286C68.896 44.5142 69.0435 44.7345 69.1441 44.977C69.2448 45.2195 69.2966 45.4794 69.2966 45.7419C69.2966 46.0044 69.2448 46.2644 69.1441 46.5069C69.0435 46.7494 68.896 46.9697 68.71 47.1552L68.65 47.2151C68.4195 47.4505 68.2648 47.7495 68.206 48.0735C68.1472 48.3975 68.1869 48.7317 68.32 49.0329V49.1128C68.4468 49.4082 68.6572 49.6602 68.9255 49.8376C69.1938 50.0151 69.5082 50.1103 69.83 50.1116H70C70.5304 50.1116 71.0391 50.3221 71.4142 50.6967C71.7893 51.0713 72 51.5794 72 52.1092C72 52.6389 71.7893 53.147 71.4142 53.5217C71.0391 53.8963 70.5304 54.1067 70 54.1067H69.91C69.5882 54.108 69.2738 54.2032 69.0055 54.3807C68.7372 54.5582 68.5268 54.8101 68.4 55.1055Z" fill="white" stroke="#60FEB2" stroke-width="2" stroke-linecap="round" stroke-linejoin="round"/>
<path d="M61 55.1055C62.6569 55.1055 64 53.764 64 52.1091C64 50.4543 62.6569 49.1128 61 49.1128C59.3431 49.1128 58 50.4543 58 52.1091C58 53.764 59.3431 55.1055 61 55.1055Z" fill="white" stroke="#60FEB2" stroke-width="2" stroke-linecap="round" stroke-linejoin="round"/>
</svg>
