<svg width="198" height="74" viewBox="0 0 198 74" fill="none" xmlns="http://www.w3.org/2000/svg">
<g clip-path="url(#clip0)">
<path d="M61.4563 27.6502C61.4943 27.8026 61.5324 27.9168 61.5705 28.0692C61.6467 28.0692 61.7228 28.0311 61.799 28.0311C61.6847 27.3455 61.6086 26.6219 61.4182 25.9364C61.2278 25.2508 61.1897 24.6796 61.3801 23.9178C61.7609 22.661 61.6847 21.2519 61.6086 19.8808C60.7709 20.9091 61.3801 22.2421 60.7709 23.3847C60.5805 23.3847 60.314 23.4227 60.0093 23.4227C59.9713 23.8417 59.9332 24.2606 59.9332 24.6415C59.8951 24.6415 59.857 24.6415 59.857 24.6415C59.7809 23.9178 59.6667 23.1942 59.5905 22.5087C59.4763 22.5087 59.362 22.5087 59.2097 22.5087C59.1336 22.8515 59.0574 23.1561 58.9813 23.4227C58.7528 23.3085 58.4863 23.1561 58.4863 23.1561C57.839 23.8036 57.3059 24.2606 56.7347 24.8319C56.7728 24.0321 56.849 23.3085 56.887 22.4706C56.1255 22.9657 55.7828 22.3183 55.7067 21.8231C55.5924 20.9853 55.7447 20.1093 55.7828 19.081C55.364 19.0429 54.7166 19.0048 54.0313 18.9287C53.9551 18.1669 53.8028 17.4814 54.869 17.291C55.0974 17.2529 55.2117 16.6435 55.402 16.2246C55.4782 16.2246 55.6686 16.3008 55.897 16.3388C55.9351 15.8437 55.9732 15.3867 56.0113 14.8154C56.4682 14.8535 56.849 14.8916 57.2297 14.9297C57.1917 15.5391 57.1917 16.1103 57.1536 16.6816C57.2297 16.7197 57.2678 16.7578 57.344 16.7959C57.5724 16.4531 57.839 16.1103 57.9151 15.958C58.334 16.0722 58.7147 16.2627 59.0955 16.3008C59.5905 16.3769 59.819 16.4912 59.819 17.0244C59.819 18.7001 59.7809 18.7382 57.877 19.0429C57.8009 19.4238 57.7628 19.8427 57.6867 20.3759C58.1055 20.2997 58.4101 20.2236 58.6767 20.2236C58.9432 20.2236 59.2097 20.2997 59.5143 20.3378C59.6286 20.0712 59.7809 19.7665 59.9332 19.4619C60.4282 19.4999 60.9613 19.538 61.6086 19.6142C61.6467 18.4335 62.9413 17.748 62.6747 16.2627C63.0555 16.415 63.3982 16.5674 63.7409 16.7197C63.5505 16.9482 63.3982 17.1386 63.2078 17.3672C63.1697 17.3291 63.0936 17.291 63.0555 17.2529C63.0555 17.7099 63.0555 18.205 63.0555 18.624C63.284 18.4335 63.5124 18.205 63.779 17.9765C64.3882 18.7001 65.759 17.1006 66.0636 18.8525C66.1397 18.8144 66.2159 18.8144 66.3301 18.7763C66.4824 17.7099 66.6347 16.6816 66.787 15.501C66.9393 16.1484 67.0536 16.6816 67.2059 17.2148C67.282 17.4814 67.5105 17.7099 67.7009 17.9384C67.8913 17.7099 68.1197 17.4814 68.3101 17.2529C68.3863 17.1767 68.4243 17.0244 68.5767 16.6816C68.8051 17.9384 68.9955 18.9287 69.1859 19.957C69.3001 20.5663 69.3763 21.1376 69.4905 21.747C69.9474 24.2987 69.7951 26.8504 69.6428 29.4021C69.4905 32.1824 69.4143 34.9626 69.3001 37.7429C69.224 40.0661 69.1859 42.4274 69.1097 44.7887C69.1097 45.3599 69.1097 45.8931 69.1097 46.4644C69.1859 46.5025 69.3001 46.5025 69.3763 46.5406C69.4905 46.274 69.6809 46.0455 69.6809 45.7789C69.3763 42.0465 71.204 38.8854 72.3844 35.6101C73.679 32.03 75.1259 28.5262 76.5347 24.9842C76.649 24.7176 76.8013 24.451 77.1059 24.2225C77.1059 24.87 77.1059 25.5174 77.1059 26.1649C77.144 26.203 77.2201 26.203 77.2582 26.2411C77.4105 25.9745 77.5628 25.7459 77.7151 25.4794C78.667 23.6132 79.619 21.747 80.609 19.9189C80.8374 19.4619 81.3705 19.1572 81.637 18.7382C81.9417 18.2812 82.1701 17.748 82.3224 17.4052C82.7032 17.4433 83.0459 17.5957 83.3505 17.4814C84.6832 17.1006 85.064 17.2148 85.7874 18.2812C86.8917 18.1289 87.9578 17.9384 89.1763 17.7861C89.2524 17.9384 89.4047 18.2431 89.6332 18.6621C89.6713 18.2431 89.7094 17.9003 89.7474 17.5957C90.4328 17.5957 90.547 18.205 90.8897 18.5478C91.6132 19.2333 91.5751 20.1093 91.9178 20.871C92.489 22.0517 92.3367 23.2323 92.2605 24.413C92.1082 26.5457 91.8417 28.6404 91.7655 30.7732C91.6894 33.363 91.7655 35.9528 91.7655 38.5427C91.7655 39.6471 91.9178 40.7516 91.6894 41.818C91.1563 44.7125 91.2705 47.607 91.042 50.5015C90.7755 53.5864 90.3947 56.6713 90.052 59.7562C89.9378 60.7084 89.4047 61.432 88.529 61.7748C87.6913 62.1175 86.7774 62.4603 85.9017 62.5746C85.4447 62.6507 84.9497 62.3841 84.4167 62.3841C84.112 62.3841 83.7313 61.6224 83.3505 61.1654C83.1601 61.2797 82.9697 61.3939 82.7413 61.5082C82.7032 61.432 82.6651 61.3558 82.627 61.2797C81.9036 58.8041 81.9417 56.2905 82.132 53.7387C82.2843 51.9106 82.2843 50.0825 82.3986 48.2164C82.4367 47.3404 82.589 46.5025 82.6651 45.6265C82.7413 44.4078 82.7794 43.1891 82.8555 41.9703C82.8936 41.3229 83.122 40.6754 83.1982 40.028C83.2744 39.4948 83.5028 38.9235 83.3505 38.4284C82.9317 36.9431 83.4267 35.572 83.5409 34.1628C83.617 33.363 83.6551 32.5252 83.6932 31.7254C83.579 31.6873 83.4647 31.6492 83.3505 31.6111C82.2463 33.8581 81.104 36.1052 80.0378 38.3522C79.6951 39.0758 79.619 39.9137 79.3905 40.6754C79.2001 41.2848 78.9336 41.8561 78.629 42.3893C75.9255 46.6168 74.3644 51.2632 73.1459 56.1C72.8032 57.3949 72.6509 58.766 71.6228 59.7943C71.2801 60.099 71.242 60.7084 71.0517 61.2035C70.8994 61.5463 70.8232 61.9271 70.6328 62.2699C70.0997 63.1078 69.757 63.1458 68.9955 62.4984C68.8432 62.3841 68.6909 62.2699 68.4624 62.1175C68.1197 62.5746 67.8151 62.9935 67.5105 63.4886C65.797 62.9173 64.0836 62.3461 62.1797 61.6986C62.4463 61.432 62.5224 61.3177 62.7509 61.1273C62.1797 60.975 61.6847 60.8607 61.342 60.7845C61.1517 59.7182 60.9993 58.6518 60.809 57.5473C60.6186 56.4428 60.2759 55.3002 60.314 54.1958C60.3901 52.063 60.7328 49.9683 60.847 47.8736C60.9613 46.0455 60.8851 44.1793 60.8851 42.3512C60.8851 39.6852 60.8851 36.9812 60.8851 34.696C60.6186 35.1911 60.1617 36.0671 59.7047 36.9431C59.6286 36.905 59.5524 36.8669 59.4763 36.8288C59.819 35.9148 60.1997 35.0007 60.5424 34.0867C60.5043 34.0867 60.4663 34.0486 60.4282 34.0486C60.1236 34.3913 59.857 34.696 59.5524 35.0388C59.9713 33.8962 60.0093 32.6013 61.1136 31.8015C61.2659 31.6873 61.304 31.3445 61.304 31.116C61.304 30.0115 61.304 28.907 61.304 27.8026C61.3801 27.6883 61.4182 27.6502 61.4563 27.6502ZM58.1055 22.7753C58.1817 22.7753 58.2578 22.8134 58.372 22.8134C58.4863 22.3944 58.6386 21.9374 58.7909 21.328C58.2959 21.3661 58.0293 21.4042 57.6486 21.4042C57.839 21.9755 57.9532 22.3563 58.1055 22.7753Z" fill="#158FCE"/>
<path d="M173.098 61.0892C172.907 61.2035 172.679 61.3178 172.451 61.432C172.412 61.3559 172.336 61.2797 172.336 61.2035C171.651 58.8803 171.689 56.519 171.841 54.1196C171.956 52.2153 172.032 50.3111 172.146 48.4068C172.222 47.1119 172.451 45.7789 172.527 44.484C172.603 43.57 172.451 42.6559 172.565 41.7418C172.641 40.8659 173.174 39.9899 173.06 39.152C172.755 37.0193 173.212 34.9626 173.402 32.906C173.441 32.4871 173.364 32.0681 173.326 31.6111C173.25 31.573 173.136 31.573 173.06 31.535C171.841 34.0486 170.242 36.4099 169.519 39.0759C168.605 42.5036 166.206 45.0934 165.254 48.4068C164.34 51.6821 163.274 54.8813 162.246 58.0805C162.094 58.5756 161.713 58.9565 161.446 59.4516C161.18 60.0229 160.951 60.5941 160.685 61.1654C160.532 61.5082 160.456 61.889 160.266 62.1937C159.733 62.9935 159.428 63.0316 158.667 62.4222C158.514 62.308 158.362 62.1937 158.134 62.0033C157.791 62.4984 157.486 62.9174 157.182 63.3363C155.849 62.9174 154.478 62.5746 153.222 62.0414C152.841 61.889 151.851 62.0033 152.232 61.0131C151.775 60.8607 151.318 60.7084 150.937 60.5941C150.823 59.6801 150.937 58.6518 150.594 57.8139C149.604 55.5669 149.871 53.2056 150.137 50.9585C150.518 47.8355 150.48 44.7125 150.556 41.5514C150.632 39.114 150.556 36.7146 150.556 34.5056C150.29 35.0388 149.871 35.8386 149.452 36.6384C149.376 36.6003 149.3 36.5622 149.224 36.5241C149.566 35.6482 149.871 34.8103 150.214 33.9343C150.176 33.8962 150.137 33.8962 150.099 33.8582C149.833 34.1628 149.528 34.4675 149.262 34.7722C149.681 33.6677 149.719 32.3728 150.785 31.573C150.899 31.4969 150.975 31.2684 150.975 31.116C151.127 29.9734 151.356 28.8309 151.394 27.6883C151.432 27.0028 151.242 26.3172 151.051 25.6317C150.899 25.0223 150.823 24.5653 151.051 23.8798C151.394 22.7753 151.47 21.5566 151.394 20.414C151.318 19.3476 151.584 18.4336 152.156 17.5576C152.384 17.2148 152.384 16.7578 152.574 16.1484C152.841 16.2627 153.184 16.415 153.526 16.6055C153.298 16.7959 153.107 17.0244 152.765 17.3291C152.765 17.5957 152.765 18.0527 152.765 18.5478C153.069 18.1289 153.412 17.7099 153.717 17.291C153.831 17.8242 153.983 18.2812 154.783 17.9004C155.011 17.7861 155.544 18.205 156.039 18.4336C156.154 17.6719 156.306 16.7197 156.458 15.7676C156.496 15.7676 156.534 15.7676 156.611 15.7676C156.687 16.2246 156.763 16.6435 156.915 17.0625C156.991 17.3291 157.258 17.5576 157.41 17.7861C157.601 17.5576 157.829 17.3291 158.019 17.0625C158.096 16.9482 158.134 16.7959 158.248 16.5674C159.2 20.3759 159.695 24.1464 159.504 27.9549C159.276 32.7156 159.086 37.5144 158.895 42.275C158.857 43.2653 158.819 44.2174 158.819 45.2076C158.819 45.5504 158.857 45.9312 158.895 46.274C158.971 46.274 159.086 46.3121 159.162 46.3121C159.276 45.8932 159.542 45.4742 159.466 45.0934C159.162 42.5797 160.152 40.3708 161.027 38.1237C162.703 33.7058 164.416 29.326 166.13 24.9081C166.244 24.6034 166.434 24.2987 166.739 24.0321C166.739 24.6796 166.739 25.3651 166.739 26.0126C166.815 26.0126 166.891 26.0506 166.967 26.0506C167.539 24.9081 168.072 23.7274 168.643 22.5849C169.214 21.4804 169.747 20.3759 170.394 19.3476C170.889 18.5478 171.575 17.8623 172.108 17.2148C172.336 17.2148 172.755 17.291 173.06 17.2148C174.278 16.8721 174.773 17.0244 175.268 17.8623C176.258 17.8623 177.134 17.9004 177.972 17.8242C178.2 17.8242 178.429 17.5195 178.733 17.3291C178.886 17.7099 179.038 18.0527 179.228 18.4336C179.266 18.0527 179.304 17.748 179.342 17.4053C179.647 17.4433 179.952 17.4433 180.294 17.4814C180.751 18.7002 181.246 19.8808 181.703 21.0995C181.817 21.4423 181.932 21.8232 181.932 22.1659C181.741 25.0223 181.475 27.8407 181.361 30.6971C181.284 32.2967 181.437 33.9343 181.437 35.5339C181.437 37.2097 181.361 38.8854 181.284 40.5612C181.132 43.7604 181.018 46.9596 180.751 50.1206C180.485 53.3198 180.066 56.5571 179.609 59.7182C179.419 60.975 178.505 61.5844 177.21 61.5844C176.944 61.5844 176.715 61.8129 176.449 61.9271C175.954 62.1937 175.497 62.6508 174.926 62.0795C174.887 62.0414 174.811 62.0033 174.773 61.9652C173.783 62.0033 173.783 62.0033 173.098 61.0892Z" fill="#158FCE"/>
<path d="M3.08447 60.8987C2.74178 61.2795 2.5514 61.5081 2.28486 61.8508C2.17063 61.47 2.09447 61.2415 1.98024 60.9749C1.67563 60.9749 1.37101 61.0129 1.02832 61.0129C1.75178 59.8323 2.09447 58.5755 1.5614 57.2044C1.52332 57.5472 1.48524 57.8899 1.48524 58.2327C1.48524 58.5755 1.52332 58.9182 1.52332 59.2991C1.10447 59.4134 0.723703 59.4895 0.26678 59.6038C-0.075912 58.9182 -0.152066 58.347 0.342934 57.6995C0.609473 57.2806 0.685626 56.7093 0.723703 56.1761C0.799857 55.4525 0.723703 54.7289 0.723703 53.7386C1.14255 54.1957 1.33293 54.4242 1.67563 54.805C2.62755 52.9007 4.26486 51.4154 3.92216 49.0541C4.07447 49.3588 4.1887 49.7016 4.34101 50.0063C4.37909 50.0063 4.45524 50.0063 4.49332 50.0063C4.49332 49.3207 4.49332 48.6733 4.49332 47.9877C4.5314 47.9877 4.60755 47.9496 4.64563 47.9496C4.79793 48.2543 4.95024 48.5971 5.1787 49.016C6.39716 46.7309 7.53947 44.5981 8.68178 42.5034C8.91024 42.5796 9.25293 42.6939 9.82409 42.8462C8.98639 40.7515 8.1487 38.9615 7.57755 37.0572C5.78793 31.2301 4.07447 25.4031 2.43717 19.576C1.86601 17.5194 1.59947 15.3485 1.18063 13.2538C1.10447 12.7968 0.837934 12.4159 0.723703 12.0732C0.990242 11.8447 1.2187 11.5781 1.52332 11.2734C1.7137 11.7685 1.90409 12.3398 2.0564 12.911C2.09447 12.911 2.17063 12.873 2.2087 12.873C2.2087 12.5683 2.28486 12.2255 2.2087 11.9589C1.78986 10.664 1.75178 9.44527 2.7037 8.34079C2.93216 8.07419 3.1987 7.76951 3.5414 7.61717C3.65563 7.57908 3.96024 7.95994 4.1887 8.18845C4.26486 8.26462 4.34101 8.37888 4.37909 8.45505C5.71178 8.22654 5.33101 7.19823 5.44524 6.16992C5.78793 6.66503 6.0164 7.0078 6.32101 7.46483C6.20678 7.65525 5.90216 8.03611 5.59755 8.49313C5.94024 8.53122 6.32101 8.5693 6.77793 8.60739C6.89216 8.79782 7.04447 9.17867 7.27293 9.44527C9.44332 12.0351 10.6999 15.12 11.6899 18.2049C12.2991 20.033 13.2891 21.4803 14.2029 23.0799C14.8502 24.2224 15.2691 25.4412 15.8402 26.8122C17.1349 24.3367 18.7722 22.1277 18.1249 19.119C18.2391 19.0809 18.3533 19.0809 18.4676 19.0428C18.6579 19.4237 18.8864 19.8045 19.191 20.3377C19.9526 19.2332 20.4856 18.4715 21.0187 17.7098C21.5518 16.9481 22.0087 16.1483 22.6179 15.4628C23.9506 13.8632 24.9025 12.1493 24.7502 9.94038C24.9406 10.3212 25.1691 10.7021 25.3595 11.121C26.3875 10.8163 27.3776 10.5878 28.3675 10.2831C28.9006 10.1308 29.3575 10.0546 29.4718 10.8163C30.1572 10.5497 30.8045 10.2831 31.4518 10.0546C31.3375 10.4355 31.1472 11.0068 30.9187 11.6923C31.5279 11.2734 32.0229 10.9306 32.3656 10.7021C32.7845 11.4638 33.2795 12.1874 33.6222 13.0253C33.7364 13.2919 33.546 13.8251 33.2795 14.0155C31.6041 15.5009 30.8806 17.5575 29.7383 19.3856C27.5679 22.8894 25.8164 26.6599 24.2172 30.5065C23.4937 32.2584 22.5418 33.8961 21.666 35.61C21.6279 35.7242 21.5518 35.8385 21.4375 35.9146C20.181 37.0572 19.8764 38.5045 20.7141 40.066C23.646 45.6264 25.7783 51.5297 27.4537 57.5853C27.606 58.1185 27.8725 58.6516 28.2533 59.0706C28.101 59.6038 27.9487 60.0989 27.7964 60.6702C27.5679 60.4036 27.4156 60.2132 27.1491 59.8704C26.8445 60.1751 26.5399 60.4417 26.2733 60.7083C25.5499 61.5081 24.6741 61.6985 23.646 61.47C22.7322 61.2795 21.7802 61.2415 20.8664 61.051C20.3333 60.9368 19.6479 60.8225 19.3814 60.4417C18.4295 59.2229 17.6299 57.8899 16.8302 56.5569C15.6499 54.5765 14.5456 52.558 13.3652 50.4633C12.3372 52.0248 11.3091 53.5482 10.3191 55.0716C10.0145 55.5667 9.70986 56.0618 9.36716 56.4808C9.17678 56.7093 8.83409 56.8616 8.56755 57.014C8.18678 57.1663 8.87216 58.0042 7.92024 57.8518C7.92024 57.8518 7.84409 58.0042 7.84409 58.0804C7.84409 59.9846 6.09255 60.9368 5.48332 62.4983C5.40716 62.6887 4.5314 62.4602 4.30293 62.6887C3.80793 63.2219 3.5414 63.1838 3.16063 62.6125C2.97024 62.3459 2.5514 62.2317 2.09447 61.9651C2.43717 61.927 2.66563 61.8889 2.89409 61.8508C2.85601 61.7747 2.93216 61.47 3.08447 60.8987Z" fill="#158FCE"/>
<path d="M51.5182 37.6286C52.9651 37.781 54.4121 37.8952 55.859 38.0095C55.9732 37.0574 55.9351 36.2195 56.2398 35.4959C56.354 35.1912 57.1917 35.2293 57.8009 35.0769C57.8009 36.1433 57.8009 37.0954 57.8009 38.1999C57.1917 38.1618 56.6586 38.1237 55.859 38.0476C56.354 38.9616 56.7348 39.7233 57.1536 40.5231L57.1917 40.485C57.0013 41.0563 56.8109 41.6276 56.5825 42.1989C56.4301 42.5036 56.2398 42.9225 55.9732 43.0749C55.0975 43.4557 54.1455 43.7604 53.2317 44.1032C52.8128 42.5417 52.5844 42.3893 50.9851 42.6178C51.0232 43.151 51.0232 43.151 52.3559 44.2174C52.4701 44.3317 52.6986 44.3698 52.889 44.3317C53.0032 44.3317 53.1175 44.1793 53.2698 44.0651C53.1936 44.5602 53.0794 45.0553 53.0794 45.5504C53.0794 46.2359 52.7367 46.5025 52.0894 46.5025C49.6905 46.3883 47.2917 46.3121 44.8928 46.1979C44.7405 46.1979 44.6263 46.0836 44.2836 45.9313C44.2836 49.8921 44.2836 53.7388 44.2836 57.6235C46.2636 57.6235 48.3959 57.6616 50.5282 57.6235C51.5563 57.5854 52.5463 57.4331 53.5363 57.3569C53.8028 57.3188 54.1075 57.2807 54.2978 57.395C55.3259 58.1948 56.4682 57.8139 57.5725 57.6616C57.6486 57.6616 57.7628 57.6997 57.9913 57.7378C57.9913 58.9565 57.9913 60.2133 57.9913 61.3559C57.6867 61.3178 57.4582 61.2416 57.2298 61.2416C55.7828 61.394 54.3359 61.5463 52.889 61.6986C51.899 61.8129 50.8328 61.8129 50.3759 63.1459C50.1094 62.8031 49.9571 62.6127 49.7286 62.308C49.5001 62.4603 49.2717 62.6508 49.0051 62.8793C48.0532 62.0033 47.1394 62.5365 46.1875 63.2982C46.1875 63.4506 46.1494 63.7172 46.1494 64.0218C46.0732 64.0218 45.959 63.9838 45.8828 63.9838C45.9971 63.3744 46.1113 62.765 46.1494 62.3461C45.6163 62.2699 45.0451 62.0795 44.5501 62.1937C44.0171 62.308 43.5221 62.765 42.989 63.0697C42.9509 62.8412 42.9509 62.5365 42.9128 62.308C40.7044 61.9271 38.4198 62.9935 36.4017 61.3559C36.4778 61.9652 36.5159 62.4223 36.554 62.8793C36.4778 62.8793 36.3636 62.9174 36.2875 62.9174C35.8686 61.7367 35.564 60.518 35.0309 59.4135C34.5359 58.3471 34.574 57.3188 34.7263 56.2524C34.8405 55.3003 34.9167 54.3101 35.0309 53.2817C35.2213 53.396 35.3355 53.4722 35.3736 53.5103C35.3736 51.7964 35.3736 50.0064 35.3736 47.9498C34.6882 48.4449 34.2313 48.7877 33.8125 49.0924C33.7363 49.0543 33.6982 49.0162 33.6221 48.9781C34.0409 48.3306 34.4217 47.6451 34.8405 46.9977C34.8405 46.9977 35.1071 47.15 35.4117 47.3023C35.3355 46.8834 35.2594 46.5406 35.2213 46.1979C35.1832 45.9313 35.1451 45.6266 35.1832 45.36C35.2975 44.2174 35.4878 43.0749 35.564 41.9323C35.564 41.6657 35.2975 41.361 35.1451 41.0563C35.0309 41.0944 34.9548 41.1706 34.8405 41.2087C34.8405 40.2565 34.8025 39.2663 34.8405 38.3142C34.9548 34.8484 35.069 31.3445 35.2213 27.8788C35.2594 27.2313 35.2213 26.5839 35.4498 26.0126C36.1351 24.2607 35.6401 22.4706 35.8305 20.6806C35.9828 19.1191 36.9728 18.2812 38.534 18.4717C39.6001 18.5859 40.7425 18.4717 41.8086 18.2051C43.3317 17.8242 44.8167 18.167 46.3017 18.0146C46.6825 17.9766 47.0632 17.8623 47.444 17.7861C47.7105 17.748 48.0151 17.7861 48.3198 17.748C48.6244 17.71 48.929 17.6719 49.2717 17.6338H49.2336C49.3098 18.5478 49.8809 18.8525 50.7186 18.8525C51.2517 18.8525 51.7848 18.8525 52.2036 18.8525C52.4321 19.6142 52.6225 20.2617 52.8128 20.9091C52.889 20.9091 52.9651 20.871 53.0413 20.871C53.0794 20.2617 53.1555 19.6523 53.1936 19.0049C53.0032 18.9287 52.7748 18.8525 52.4701 18.7383C52.5844 18.2812 52.6986 17.8623 52.8509 17.3291C53.8028 17.7861 53.879 18.5097 53.6886 19.4619C53.879 19.2334 53.9171 19.1572 53.9932 19.1191C54.0694 19.1191 54.1075 19.1191 54.1836 19.1572C54.1075 19.6142 53.9171 20.0332 53.9551 20.4902C53.9551 20.871 53.5744 21.5185 54.4882 21.6328C54.4121 21.0996 54.3359 20.6806 54.2598 20.2236C54.7167 20.3759 55.0594 20.5283 55.6305 20.7568C55.5163 21.6328 55.4021 22.7372 55.2117 24.0321C54.9832 23.7655 54.869 23.6132 54.7928 23.4609C54.7167 23.537 54.6786 23.5751 54.6025 23.6513C54.869 23.8798 55.1736 24.1083 55.4021 24.3368C55.5544 24.9081 54.1836 24.2987 54.9832 25.1747C53.7267 25.2128 53.5744 25.0604 53.4982 23.956C53.4601 23.3466 53.4221 22.7753 53.3078 22.166C53.2698 21.9755 53.0413 21.6328 52.9271 21.6328C51.2898 21.6328 49.5763 20.9472 47.9771 22.2802C48.2436 22.2802 48.4721 22.2802 48.7005 22.3183C49.1575 22.3564 49.919 22.3183 49.9951 22.5087C50.2617 23.2323 50.3378 24.0321 50.414 24.7938C50.414 24.9462 50.1475 25.2509 49.9951 25.2509C49.2717 25.327 48.5482 25.327 47.8248 25.289C47.7867 25.289 47.7486 25.0224 47.7486 24.87C47.5201 24.9462 47.2536 25.0604 46.9109 25.1747C46.8728 24.6034 46.8348 24.1083 46.7967 23.3847C45.9971 24.1845 45.8067 25.4794 44.474 25.2128C44.4359 24.6415 44.3978 24.0702 44.3598 23.4989C43.7505 24.0702 43.2555 24.5272 42.5701 25.1747C43.3698 25.1747 43.9409 25.1747 44.5121 25.1747C44.5501 25.8602 44.6644 26.5458 44.6644 27.2313C44.6644 29.326 44.6644 31.4207 44.6644 33.7058C46.1875 33.7058 47.7867 33.7058 49.3478 33.7058C50.6425 33.7058 50.9471 33.9344 51.0613 35.2673C51.0994 35.6863 51.1375 36.0671 51.1755 36.5242C51.404 36.448 51.5944 36.4099 51.8609 36.2956C51.6325 36.7908 51.5944 37.2097 51.5182 37.6286C50.5282 37.7048 50.8328 38.3903 50.8709 38.9616C51.7467 38.9997 51.8228 38.8855 51.5182 37.6286ZM47.444 38.0857C47.4059 38.0857 47.3298 38.1237 47.2917 38.1237C47.2917 39.1521 47.2917 40.2184 47.2917 41.2848C47.6725 41.2848 48.0151 41.2848 48.434 41.2848C48.0913 40.904 47.8248 40.5993 47.4059 40.1423C48.3959 40.2184 49.1575 40.2565 49.8809 40.3327C49.8809 39.9138 49.8809 39.571 49.8809 39.2663C49.5001 39.2663 49.1955 39.2663 48.8909 39.2663C48.5482 39.2663 48.2055 39.2663 48.1675 39.2663C47.8248 38.7331 47.6344 38.3903 47.444 38.0857ZM44.7405 22.6991C46.7967 22.4325 46.7967 22.4325 47.2155 21.5947C45.5021 21.5566 45.5021 21.5566 44.7405 22.6991ZM50.7567 39.0378C50.0332 39.4187 50.0332 39.4187 50.4521 41.5134C50.5663 40.7516 50.6425 39.9518 50.7567 39.0378ZM44.474 37.7048C44.474 38.4284 44.474 39.0378 44.474 39.5329C44.6644 39.2663 45.0451 38.9997 45.1213 38.6569C45.1975 38.3142 45.5021 37.5525 44.474 37.7048ZM44.7786 33.9344C44.6644 33.9344 44.5501 33.9724 44.4359 33.9724C44.2836 35.3435 44.2836 35.3816 45.0071 35.6482C44.9309 35.0388 44.8548 34.5056 44.7786 33.9344Z" fill="#158FCE"/>
<path d="M148.728 19.043C148.919 19.957 149.071 20.9091 149.223 21.7851C148.843 21.9755 148.538 22.0517 148.462 22.204C148.005 23.2323 147.167 23.1943 146.253 23.2323C144.159 23.3466 142.065 23.5751 139.895 23.7655C139.895 23.9179 139.818 24.1083 139.856 24.3368C140.009 27.2313 140.161 30.1258 140.275 33.0584C140.313 34.5056 140.275 35.9529 140.199 37.4382C140.161 37.8572 139.742 38.3142 139.856 38.695C140.047 39.4567 140.466 40.1804 140.77 40.904C140.846 41.0563 140.923 41.2468 140.846 41.5134C140.618 41.2087 140.351 40.904 140.009 40.447C139.971 40.8659 139.895 41.1706 139.933 41.4753C140.618 44.1413 140.009 46.8453 139.933 49.5113C139.856 51.8345 139.704 54.1196 139.552 56.4048C139.476 57.2426 139.057 58.1186 139.171 58.8803C139.323 60.0229 138.828 60.975 138.448 62.0414C138.371 60.975 138.295 59.9467 138.219 58.8803C138.181 58.8803 138.105 58.8803 138.067 58.8803C137.953 59.642 137.8 60.4418 137.686 61.2035C137.572 61.2035 137.458 61.2035 137.343 61.2035C137.153 60.8227 136.925 60.4799 136.734 60.099C136.658 60.099 136.582 60.099 136.544 60.099C136.506 60.4418 136.468 60.8227 136.43 61.1654C136.087 61.1273 135.744 61.1273 135.363 61.0893C135.287 60.518 135.211 59.9467 135.097 59.185C134.906 59.7563 134.754 60.099 134.64 60.518C134.335 60.7084 133.498 60.1752 133.612 61.1654C133.498 60.8608 133.46 60.518 133.307 60.2133C133.193 60.0229 132.926 59.7944 132.812 59.8324C132.013 60.061 131.975 59.6039 131.86 58.9946C131.48 56.4428 130.985 53.9292 130.642 51.4156C130.49 50.3492 130.68 49.2447 130.718 48.1402C130.718 47.9879 130.832 47.8355 130.832 47.6832C130.832 45.4362 130.908 43.1891 130.87 40.9421C130.832 37.8952 130.68 34.8484 130.642 31.8016C130.642 29.2879 130.756 26.7362 130.794 24.1464C129.918 24.1083 128.966 23.8036 128.053 24.4892C127.824 24.6415 127.367 24.4511 126.796 24.413C127.139 24.0702 127.291 23.8798 127.634 23.4989C127.101 23.6894 126.834 23.7655 126.606 23.9179C125.882 24.3368 125.311 24.3368 124.74 23.537C124.169 22.7372 123.445 22.9658 122.531 23.5751C122.417 22.166 122.341 20.9091 122.265 19.6142C121.998 19.6523 121.808 19.7285 121.503 19.7666C121.694 19.1191 121.884 18.5478 122.113 17.8242C122.227 18.4336 122.303 18.9287 122.417 19.5C123.75 19.2715 125.045 18.9668 126.377 18.8906C131.594 18.5478 136.81 18.167 142.027 18.0146C143.778 17.9766 145.568 18.5478 147.358 18.8525C147.738 18.8906 148.233 18.9668 148.728 19.043ZM139.057 50.1587C139.095 50.1587 139.171 50.1587 139.209 50.1587C139.209 49.4732 139.209 48.7496 139.209 48.064C139.171 48.064 139.095 48.064 139.057 48.064C139.057 48.7877 139.057 49.4732 139.057 50.1587Z" fill="#158FCE"/>
<path d="M100.752 51.0342C101.209 52.8623 102.694 52.5195 103.95 52.7861C104.902 53.0146 105.816 53.5097 106.692 54.0429C106.996 54.2334 107.187 54.7666 107.339 55.1474C107.682 56.0995 107.872 57.0898 108.253 58.0038C108.557 58.7655 108.634 59.4511 108.291 60.1747C108.1 60.5936 108.062 61.0887 107.986 61.5458C107.872 62.4979 107.72 63.3739 106.844 63.9451C106.768 63.9832 106.654 64.0594 106.654 64.1356C106.159 65.9256 104.521 66.6492 103.227 67.6394C102.465 68.2107 101.627 68.7058 100.98 69.3533C100.142 70.1531 99.457 71.1052 98.7716 71.905C98.5432 71.7907 98.1624 71.448 97.7816 71.4099C97.5532 71.4099 97.2485 71.8669 97.0962 72.1716C96.8678 72.7048 96.7155 73.2761 96.5251 73.9235C95.6493 73.1618 94.8878 72.4382 94.0501 71.7146C93.8216 71.8288 93.517 71.905 93.2505 72.0193C93.2124 71.9431 93.2124 71.8669 93.1743 71.7907C93.8978 71.448 94.6593 71.1814 95.3828 70.8005C95.9539 70.4958 96.5251 70.115 97.0201 69.696C98.8859 68.2107 99.6855 66.3445 99.2666 63.9071C98.9239 61.8504 98.6193 59.7938 97.4009 58.0038C97.2105 57.6991 97.1343 57.2802 97.1343 56.9374C97.0962 55.1855 97.1343 53.4716 97.1343 51.4912C97.7435 52.4053 97.3628 53.5859 98.5051 54.0429C98.6574 53.7382 98.8097 53.4336 99.0382 52.9385C99.457 53.3193 99.7997 53.6621 100.219 54.0429C100.257 53.1289 99.6474 52.0244 100.752 51.0342Z" fill="#158FCE"/>
<path d="M186.768 51.3389C187.187 52.4433 187.491 53.2812 187.796 54.1572C187.91 54.1572 188.024 54.1191 188.139 54.1191C188.291 53.7763 188.443 53.4717 188.672 52.9765C189.09 53.3955 189.471 53.7383 189.852 54.1191C190.042 53.2051 189.281 52.0625 190.309 51.2246C190.385 51.2246 190.461 51.2627 190.499 51.3008C191.032 52.7099 192.289 52.5576 193.469 52.8242C194.497 53.0527 195.487 53.5478 196.401 54.0429C196.706 54.2334 196.896 54.7285 197.049 55.1474C197.391 56.0995 197.734 57.0517 197.924 58.0038C198.077 58.7274 198.039 59.4511 198 60.1747C197.962 60.6698 197.734 61.1649 197.696 61.6219C197.62 62.536 197.049 63.1834 196.668 63.9832C195.373 66.573 192.67 67.4871 190.766 69.3152C189.928 70.115 189.243 71.029 188.519 71.8669C188.253 71.7907 187.834 71.4861 187.377 71.4861C187.187 71.4861 186.92 72.0193 186.768 72.362C186.539 72.8571 186.425 73.3903 186.235 73.9616C185.473 73.3522 184.826 72.8191 184.179 72.2859C183.798 71.9812 183.836 71.6384 184.293 71.3718C184.597 71.1814 184.902 71.029 185.207 70.8386C188.672 68.6297 189.509 66.9158 188.862 63.2215C188.557 61.4696 188.177 59.7557 187.187 58.2323C186.958 57.8896 186.806 57.3945 186.806 56.9755C186.768 55.1474 186.768 53.3574 186.768 51.3389Z" fill="#158FCE"/>
<path d="M77.715 2.20895C78.5908 2.20895 79.2762 2.28513 79.9616 2.17087C80.4185 2.0947 80.647 2.13278 80.8373 2.55172C81.18 3.27535 82.4366 3.88471 83.3123 3.73237C83.2362 4.22748 83.16 4.72259 83.0458 5.4843C83.4266 5.02728 83.655 4.72259 83.9216 4.37982C84.3023 6.36027 84.1881 8.1122 82.627 9.63561C80.3423 11.8827 77.7912 12.6063 74.6689 11.8065C73.6408 11.5399 72.5746 11.5399 71.8893 10.6258C71.3943 9.97838 70.9754 9.21667 70.4804 8.49305C70.3662 8.60731 70.2519 8.72156 70.1377 8.8739C70.0996 8.83582 70.0616 8.79773 70.0235 8.72156C69.8712 8.07411 69.8712 7.35049 69.6046 6.77921C69.1096 5.78898 69.5285 4.91302 69.6808 3.99897C69.8712 2.74215 70.1758 1.48533 70.4423 -0.0380859C70.8231 0.990221 70.4043 1.94236 71.3943 2.62789C71.4704 2.17087 71.5466 1.90427 71.6227 1.33299C71.9273 2.20895 72.1177 2.85641 72.3462 3.50386C72.27 3.58003 72.1939 3.61812 72.1558 3.69429C72.0416 3.42769 71.9654 3.123 71.8512 2.85641C71.7369 2.93258 71.6608 3.00875 71.5466 3.08492C71.5846 4.91302 71.8893 6.70304 73.2981 8.07411C74.4785 9.21667 75.7731 8.95008 76.3443 7.42666C76.8012 6.16984 76.9916 4.83685 77.3343 3.58003C77.4485 3.08492 77.6008 2.58981 77.715 2.20895Z" fill="#158FCE"/>
<path d="M50.871 22.166C51.1757 22.2041 51.4041 22.2422 51.6326 22.2803C51.6326 23.2324 51.6326 24.1465 51.6326 25.1367C51.2518 25.0605 50.9853 25.0224 50.6807 24.9463C50.7568 24.0322 50.7949 23.1562 50.871 22.166Z" fill="#158FCE"/>
<path d="M51.4038 17.748C51.4038 16.7197 51.4038 15.7295 51.4038 14.7393C52.013 14.7393 52.2034 15.5771 51.8607 17.6718C51.7846 17.1386 51.7465 16.872 51.7465 16.5674C51.7084 16.5674 51.6703 16.5674 51.5942 16.5674C51.5561 16.9863 51.5561 17.4433 51.518 17.8623C51.48 17.8242 51.4419 17.7861 51.4038 17.748Z" fill="#158FCE"/>
<path d="M60.5427 16.834C60.6569 17.4434 60.8093 18.0527 60.8854 18.6621C60.8854 18.7763 60.6189 18.9668 60.4666 19.0049C60.3904 19.0429 60.1619 18.8144 60.1619 18.6621C60.1239 18.0908 60.1619 17.4814 60.1619 16.9102C60.2762 16.8721 60.3904 16.8721 60.5427 16.834Z" fill="#158FCE"/>
<path d="M53.27 14.9297C53.765 14.9297 54.0696 14.9297 54.6408 14.9297C54.2981 15.501 53.9935 15.9199 53.7269 16.3388C53.6508 16.3008 53.5366 16.3008 53.4604 16.2627C53.3843 15.8437 53.3462 15.4248 53.27 14.9297Z" fill="#158FCE"/>
<path d="M49.0814 17.6718C49.2718 17.0244 49.4622 16.415 49.6906 15.7676C49.7668 15.7676 49.8048 15.7676 49.881 15.8057C49.881 16.4531 49.881 17.1006 49.881 17.8242C49.6145 17.748 49.3479 17.7099 49.0814 17.6718C49.0814 17.6718 49.0433 17.6338 49.0814 17.6718Z" fill="#158FCE"/>
<path d="M57.1539 40.5234C57.5346 41.3994 57.9154 42.2754 58.2962 43.1513C57.3442 42.5039 57.0777 41.5517 57.1539 40.5234C57.1539 40.5234 57.1919 40.5234 57.1539 40.5234Z" fill="#158FCE"/>
<path d="M148.728 19.0429C148.652 18.4336 148.576 17.8242 148.5 17.2148C148.538 17.2148 148.576 17.2148 148.614 17.1768C148.843 17.8242 149.109 18.4717 149.376 19.1953C149.147 19.1572 148.919 19.081 148.728 19.0429Z" fill="#158FCE"/>
</g>
<defs>
<clipPath id="clip0">
<rect width="198" height="74" fill="white"/>
</clipPath>
</defs>
</svg>
