<svg width="1440" height="1239" viewBox="0 0 1440 1239" fill="none" xmlns="http://www.w3.org/2000/svg">
<path d="M2.416 1130.66C103.408 1233.96 268.912 1270.82 420.4 1206.5C572.08 1142.18 679.984 1167.52 742 1204.2C804.016 1240.87 944.176 1197.28 1045.17 1116.84C1146.16 1036.39 1270.19 981.284 1385.2 1075.56C1405.74 1092.45 1423.02 1110.69 1438 1129.7L1440 1.14244C1220.74 42.2304 1064 -58.8577 866 61.1424C668 181.143 477.504 106.262 392.64 53.2704C307.584 0.470409 197.376 -22.5696 82.56 39.4464C47.424 58.4544 20.544 81.8785 -1.57356e-05 105.302L-2 1126.05C-0.464 1127.59 0.88 1129.12 2.416 1130.66Z" fill="#158FCE"/>
<mask id="mask0" mask-type="alpha" maskUnits="userSpaceOnUse" x="0" y="0" width="1441" height="1239">
<path d="M4.416 1130.96C105.408 1234.26 270.912 1271.12 422.4 1206.8C574.08 1142.48 681.984 1167.83 744 1204.5C806.016 1241.17 946.176 1197.59 1047.17 1117.14C1148.16 1036.69 1272.19 981.588 1387.2 1075.86C1407.74 1092.76 1425.02 1111 1440 1130L1440 1.14244C1220.74 42.2304 1064 -58.8577 866 61.1424C668 181.143 477.504 106.262 392.64 53.2704C307.584 0.470409 197.376 -22.5696 82.5601 39.4464C47.4241 58.4544 20.5441 81.8785 9.15527e-05 105.302L0 1126.36C1.536 1127.89 2.88 1129.43 4.416 1130.96Z" fill="#158FCE"/>
</mask>
<g mask="url(#mask0)">
<g filter="url(#filter0_d)">
<path d="M1572.73 -255.106C1459.94 -271.963 754.751 -214.418 915.789 2.39328C963.461 66.3322 1055.9 70.9823 1112.87 118.646C1193.1 185.491 1166.94 286.631 1203.56 370.914C1277.98 538.899 1630.87 666.777 1715.74 444.153C1754.7 341.851 1677.96 269.193 1670.98 170.96C1664 65.1697 1742.49 29.7126 1758.77 -67.3582C1802.37 -324.858 1393.09 -259.175 1258.21 -212.674" fill="#158FCE"/>
</g>
<g filter="url(#filter1_d)">
<path d="M888.764 1060.54C888.481 1060.97 888.223 1061.45 888.026 1061.93C714.328 1484.36 -240.144 1766.71 -167.141 973.237C-92.0767 164.644 1111.63 719.146 888.764 1060.54Z" fill="#158FCE"/>
</g>
<g opacity="0.5">
<rect x="-1.00244" y="1058" width="1.9976" height="1.9976" rx="0.5" fill="white"/>
<rect x="8.99707" y="1058" width="1.9976" height="1.9976" rx="0.5" fill="white"/>
<rect x="18.9971" y="1058" width="1.9976" height="1.9976" rx="0.5" fill="white"/>
<rect x="28.9971" y="1058" width="1.9976" height="1.9976" rx="0.5" fill="white"/>
<rect x="38.9966" y="1058" width="1.9976" height="1.9976" rx="0.5" fill="white"/>
<rect x="48.9961" y="1058" width="1.9976" height="1.9976" rx="0.5" fill="white"/>
<rect x="58.9961" y="1058" width="1.9976" height="1.9976" rx="0.5" fill="white"/>
<rect x="68.9961" y="1058" width="1.9976" height="1.9976" rx="0.5" fill="white"/>
<rect x="78.9956" y="1058" width="1.9976" height="1.9976" rx="0.5" fill="white"/>
<rect x="88.9951" y="1058" width="1.9976" height="1.9976" rx="0.5" fill="white"/>
<rect x="-1.00244" y="1068" width="1.9976" height="1.9976" rx="0.5" fill="white"/>
<rect x="8.99707" y="1068" width="1.9976" height="1.9976" rx="0.5" fill="white"/>
<rect x="18.9971" y="1068" width="1.9976" height="1.9976" rx="0.5" fill="white"/>
<rect x="28.9971" y="1068" width="1.9976" height="1.9976" rx="0.5" fill="white"/>
<rect x="38.9966" y="1068" width="1.9976" height="1.9976" rx="0.5" fill="white"/>
<rect x="48.9961" y="1068" width="1.9976" height="1.9976" rx="0.5" fill="white"/>
<rect x="58.9961" y="1068" width="1.9976" height="1.9976" rx="0.5" fill="white"/>
<rect x="68.9961" y="1068" width="1.9976" height="1.9976" rx="0.5" fill="white"/>
<rect x="88.9951" y="1068" width="1.9976" height="1.9976" rx="0.5" fill="white"/>
<rect x="-1.00244" y="1078" width="1.9976" height="1.9976" rx="0.5" fill="white"/>
<rect x="8.99707" y="1078" width="1.9976" height="1.9976" rx="0.5" fill="white"/>
<rect x="18.9971" y="1078" width="1.9976" height="1.9976" rx="0.5" fill="white"/>
<rect x="28.9971" y="1078" width="1.9976" height="1.9976" rx="0.5" fill="white"/>
<rect x="38.9966" y="1078" width="1.9976" height="1.9976" rx="0.5" fill="white"/>
<rect x="48.9961" y="1078" width="1.9976" height="1.9976" rx="0.5" fill="white"/>
<rect x="58.9961" y="1078" width="1.9976" height="1.9976" rx="0.5" fill="white"/>
<rect x="78.9956" y="1078" width="1.9976" height="1.9976" rx="0.5" fill="white"/>
<rect x="88.9951" y="1078" width="1.9976" height="1.9976" rx="0.5" fill="white"/>
<rect x="-1.00244" y="1088" width="1.9976" height="1.9976" rx="0.5" fill="white"/>
<rect x="8.99707" y="1088" width="1.9976" height="1.9976" rx="0.5" fill="white"/>
<rect x="18.9971" y="1088" width="1.9976" height="1.9976" rx="0.5" fill="white"/>
<rect x="28.9971" y="1088" width="1.9976" height="1.9976" rx="0.5" fill="white"/>
<rect x="38.9966" y="1088" width="1.9976" height="1.9976" rx="0.5" fill="white"/>
<rect x="48.9961" y="1088" width="1.9976" height="1.9976" rx="0.5" fill="white"/>
<rect x="68.9961" y="1088" width="1.9976" height="1.9976" rx="0.5" fill="white"/>
<rect x="78.9956" y="1088" width="1.9976" height="1.9976" rx="0.5" fill="white"/>
<rect x="88.9951" y="1088" width="1.9976" height="1.9976" rx="0.5" fill="white"/>
<rect x="-1.00244" y="1098" width="1.9976" height="1.9976" rx="0.5" fill="white"/>
<rect x="8.99707" y="1098" width="1.9976" height="1.9976" rx="0.5" fill="white"/>
<rect x="18.9971" y="1098" width="1.9976" height="1.9976" rx="0.5" fill="white"/>
<rect x="28.9971" y="1098" width="1.9976" height="1.9976" rx="0.5" fill="white"/>
<rect x="48.9961" y="1098" width="1.9976" height="1.9976" rx="0.5" fill="white"/>
<rect x="58.9961" y="1098" width="1.9976" height="1.9976" rx="0.5" fill="white"/>
<rect x="68.9961" y="1098" width="1.9976" height="1.9976" rx="0.5" fill="white"/>
<rect x="78.9956" y="1098" width="1.9976" height="1.9976" rx="0.5" fill="white"/>
<rect x="88.9951" y="1098" width="1.9976" height="1.9976" rx="0.5" fill="white"/>
<rect x="-1.00244" y="1108" width="1.9976" height="1.9976" rx="0.5" fill="white"/>
<rect x="8.99707" y="1108" width="1.9976" height="1.9976" rx="0.5" fill="white"/>
<rect x="18.9971" y="1108" width="1.9976" height="1.9976" rx="0.5" fill="white"/>
<rect x="28.9971" y="1108" width="1.9976" height="1.9976" rx="0.5" fill="white"/>
<rect x="38.9966" y="1108" width="1.9976" height="1.9976" rx="0.5" fill="white"/>
<rect x="48.9961" y="1108" width="1.9976" height="1.9976" rx="0.5" fill="white"/>
<rect x="58.9961" y="1108" width="1.9976" height="1.9976" rx="0.5" fill="white"/>
<rect x="68.9961" y="1108" width="1.9976" height="1.9976" rx="0.5" fill="white"/>
<rect x="78.9956" y="1108" width="1.9976" height="1.9976" rx="0.5" fill="white"/>
<rect x="88.9951" y="1108" width="1.9976" height="1.9976" rx="0.5" fill="white"/>
<rect x="8.99707" y="1118" width="1.9976" height="1.9976" rx="0.5" fill="white"/>
<rect x="18.9971" y="1118" width="1.9976" height="1.9976" rx="0.5" fill="white"/>
<rect x="28.9971" y="1118" width="1.9976" height="1.9976" rx="0.5" fill="white"/>
<rect x="38.9966" y="1118" width="1.9976" height="1.9976" rx="0.5" fill="white"/>
<rect x="48.9961" y="1118" width="1.9976" height="1.9976" rx="0.5" fill="white"/>
<rect x="58.9961" y="1118" width="1.9976" height="1.9976" rx="0.5" fill="white"/>
<rect x="68.9961" y="1118" width="1.9976" height="1.9976" rx="0.5" fill="white"/>
<rect x="78.9956" y="1118" width="1.9976" height="1.9976" rx="0.5" fill="white"/>
<rect x="88.9951" y="1118" width="1.9976" height="1.9976" rx="0.5" fill="white"/>
<rect x="-1.00244" y="1128" width="1.9976" height="1.9976" rx="0.5" fill="white"/>
<rect x="8.99707" y="1128" width="1.9976" height="1.9976" rx="0.5" fill="white"/>
<rect x="18.9971" y="1128" width="1.9976" height="1.9976" rx="0.5" fill="white"/>
<rect x="28.9971" y="1128" width="1.9976" height="1.9976" rx="0.5" fill="white"/>
<rect x="38.9966" y="1128" width="1.9976" height="1.9976" rx="0.5" fill="white"/>
<rect x="48.9961" y="1128" width="1.9976" height="1.9976" rx="0.5" fill="white"/>
<rect x="58.9961" y="1128" width="1.9976" height="1.9976" rx="0.5" fill="white"/>
<rect x="68.9961" y="1128" width="1.9976" height="1.9976" rx="0.5" fill="white"/>
<rect x="78.9956" y="1128" width="1.9976" height="1.9976" rx="0.5" fill="white"/>
<rect x="88.9951" y="1128" width="1.9976" height="1.9976" rx="0.5" fill="white"/>
<rect x="-1.00244" y="1138" width="1.9976" height="1.9976" rx="0.5" fill="white"/>
<rect x="8.99707" y="1138" width="1.9976" height="1.9976" rx="0.5" fill="white"/>
<rect x="18.9971" y="1138" width="1.9976" height="1.9976" rx="0.5" fill="white"/>
<rect x="28.9971" y="1138" width="1.9976" height="1.9976" rx="0.5" fill="white"/>
<rect x="48.9961" y="1138" width="1.9976" height="1.9976" rx="0.5" fill="white"/>
<rect x="58.9961" y="1138" width="1.9976" height="1.9976" rx="0.5" fill="white"/>
<rect x="68.9961" y="1138" width="1.9976" height="1.9976" rx="0.5" fill="white"/>
<rect x="78.9956" y="1138" width="1.9976" height="1.9976" rx="0.5" fill="white"/>
<rect x="88.9951" y="1138" width="1.9976" height="1.9976" rx="0.5" fill="white"/>
<rect x="-1.00244" y="1148" width="1.9976" height="1.9976" rx="0.5" fill="white"/>
<rect x="18.9971" y="1148" width="1.9976" height="1.9976" rx="0.5" fill="white"/>
<rect x="28.9971" y="1148" width="1.9976" height="1.9976" rx="0.5" fill="white"/>
<rect x="38.9966" y="1148" width="1.9976" height="1.9976" rx="0.5" fill="white"/>
<rect x="48.9961" y="1148" width="1.9976" height="1.9976" rx="0.5" fill="white"/>
<rect x="58.9961" y="1148" width="1.9976" height="1.9976" rx="0.5" fill="white"/>
<rect x="68.9961" y="1148" width="1.9976" height="1.9976" rx="0.5" fill="white"/>
<rect x="78.9956" y="1148" width="1.9976" height="1.9976" rx="0.5" fill="white"/>
<rect x="88.9951" y="1148" width="1.9976" height="1.9976" rx="0.5" fill="white"/>
<rect x="-1.00244" y="1158" width="1.9976" height="1.9976" rx="0.5" fill="white"/>
<rect x="8.99707" y="1158" width="1.9976" height="1.9976" rx="0.5" fill="white"/>
<rect x="18.9971" y="1158" width="1.9976" height="1.9976" rx="0.5" fill="white"/>
<rect x="38.9966" y="1158" width="1.9976" height="1.9976" rx="0.5" fill="white"/>
<rect x="48.9961" y="1158" width="1.9976" height="1.9976" rx="0.5" fill="white"/>
<rect x="58.9961" y="1158" width="1.9976" height="1.9976" rx="0.5" fill="white"/>
<rect x="68.9961" y="1158" width="1.9976" height="1.9976" rx="0.5" fill="white"/>
<rect x="78.9956" y="1158" width="1.9976" height="1.9976" rx="0.5" fill="white"/>
<rect x="88.9951" y="1158" width="1.9976" height="1.9976" rx="0.5" fill="white"/>
<rect x="-1.00244" y="1168" width="1.9976" height="1.9976" rx="0.5" fill="white"/>
<rect x="8.99707" y="1168" width="1.9976" height="1.9976" rx="0.5" fill="white"/>
<rect x="18.9971" y="1168" width="1.9976" height="1.9976" rx="0.5" fill="white"/>
<rect x="28.9971" y="1168" width="1.9976" height="1.9976" rx="0.5" fill="white"/>
<rect x="38.9966" y="1168" width="1.9976" height="1.9976" rx="0.5" fill="white"/>
<rect x="48.9961" y="1168" width="1.9976" height="1.9976" rx="0.5" fill="white"/>
<rect x="58.9961" y="1168" width="1.9976" height="1.9976" rx="0.5" fill="white"/>
<rect x="68.9961" y="1168" width="1.9976" height="1.9976" rx="0.5" fill="white"/>
<rect x="78.9956" y="1168" width="1.9976" height="1.9976" rx="0.5" fill="white"/>
<rect x="88.9951" y="1168" width="1.9976" height="1.9976" rx="0.5" fill="white"/>
<rect x="-1.00244" y="1177.99" width="1.9976" height="1.9976" rx="0.5" fill="white"/>
<rect x="8.99707" y="1177.99" width="1.9976" height="1.9976" rx="0.5" fill="white"/>
<rect x="18.9971" y="1177.99" width="1.9976" height="1.9976" rx="0.5" fill="white"/>
<rect x="28.9971" y="1177.99" width="1.9976" height="1.9976" rx="0.5" fill="white"/>
<rect x="38.9966" y="1177.99" width="1.9976" height="1.9976" rx="0.5" fill="white"/>
<rect x="48.9961" y="1177.99" width="1.9976" height="1.9976" rx="0.5" fill="white"/>
<rect x="68.9961" y="1177.99" width="1.9976" height="1.9976" rx="0.5" fill="white"/>
<rect x="78.9956" y="1177.99" width="1.9976" height="1.9976" rx="0.5" fill="white"/>
<rect x="88.9951" y="1177.99" width="1.9976" height="1.9976" rx="0.5" fill="white"/>
<rect x="-1.00244" y="1187.99" width="1.9976" height="1.9976" rx="0.5" fill="white"/>
<rect x="8.99707" y="1187.99" width="1.9976" height="1.9976" rx="0.5" fill="white"/>
<rect x="18.9971" y="1187.99" width="1.9976" height="1.9976" rx="0.5" fill="white"/>
<rect x="28.9971" y="1187.99" width="1.9976" height="1.9976" rx="0.5" fill="white"/>
<rect x="38.9966" y="1187.99" width="1.9976" height="1.9976" rx="0.5" fill="white"/>
<rect x="48.9961" y="1187.99" width="1.9976" height="1.9976" rx="0.5" fill="white"/>
<rect x="58.9961" y="1187.99" width="1.9976" height="1.9976" rx="0.5" fill="white"/>
<rect x="68.9961" y="1187.99" width="1.9976" height="1.9976" rx="0.5" fill="white"/>
<rect x="78.9956" y="1187.99" width="1.9976" height="1.9976" rx="0.5" fill="white"/>
<rect x="88.9951" y="1187.99" width="1.9976" height="1.9976" rx="0.5" fill="white"/>
<rect x="78.9956" y="1068" width="1.9976" height="1.9976" rx="0.5" fill="white"/>
<rect x="68.9961" y="1078" width="1.9976" height="1.9976" rx="0.5" fill="white"/>
<rect x="58.9961" y="1088" width="1.9976" height="1.9976" rx="0.5" fill="white"/>
<rect x="38.9966" y="1098" width="1.9976" height="1.9976" rx="0.5" fill="white"/>
<rect x="-1.00244" y="1118" width="1.9976" height="1.9976" rx="0.5" fill="white"/>
<rect x="38.9966" y="1138" width="1.9976" height="1.9976" rx="0.5" fill="white"/>
<rect x="8.99707" y="1148" width="1.9976" height="1.9976" rx="0.5" fill="white"/>
<rect x="28.9971" y="1158" width="1.9976" height="1.9976" rx="0.5" fill="white"/>
<rect x="58.9961" y="1177.99" width="1.9976" height="1.9976" rx="0.5" fill="white"/>
</g>
<path d="M1.69824 29.7234L45.7234 -14.3018C39.3838 -12.1885 33.3964 -9.19484 27.7611 -5.14452L10.8555 11.7611C6.80516 17.3964 3.81145 23.3838 1.69824 29.7234Z" fill="#117BC3"/>
<path d="M70.0252 -18C67.0314 -18 63.8616 -18 60.8679 -17.6478L-1.6478 44.8679C-2 47.8616 -2 51.0314 -2 54.0252L70.0252 -18Z" fill="#117BC3"/>
<path d="M102.428 -9.01898C100.49 -10.0756 98.5533 -11.1322 96.6162 -12.0127L3.9873 80.6162C4.86781 82.5533 5.92441 84.6666 6.98101 86.6037L102.428 -9.01898Z" fill="#117BC3"/>
<path d="M87.9876 -15.1821C85.6983 -15.8865 83.2329 -16.4148 80.7675 -16.9431L-0.76709 64.7676C-0.238788 67.233 0.289514 69.5223 0.993917 71.9877L87.9876 -15.1821Z" fill="#117BC3"/>
<path d="M113.874 0.31438L109.471 -4.08813L11.9116 93.4716L16.3141 97.8741L113.874 0.31438Z" fill="#117BC3"/>
<path d="M119.862 6.12573L22.126 103.862L26.7046 108.264L124.264 10.7043L119.862 6.12573Z" fill="#117BC3"/>
<path d="M33.5728 113.019C35.5099 114.076 37.447 115.132 39.3841 116.013L131.837 23.5599C130.956 21.6228 129.9 19.5095 128.843 17.7485L33.5728 113.019Z" fill="#117BC3"/>
<path d="M48.1885 119.182C50.4778 119.887 52.9432 120.415 55.4086 120.943L136.943 39.4088C136.415 36.9434 135.887 34.6541 135.182 32.1887L48.1885 119.182Z" fill="#117BC3"/>
<path d="M65.9751 122C68.9688 122 72.1386 122 75.1323 121.648L137.648 59.1323C138 56.1386 138 52.9688 138 49.9751L65.9751 122Z" fill="#117BC3"/>
<path d="M134.478 74.2766L90.4526 118.302C96.7923 116.189 102.78 113.195 108.415 109.145L125.321 92.2389C129.195 86.7798 132.365 80.6162 134.478 74.2766Z" fill="#117BC3"/>
</g>
<defs>
<filter id="filter0_d" x="642" y="-499.144" width="1370" height="1321" filterUnits="userSpaceOnUse" color-interpolation-filters="sRGB">
<feFlood flood-opacity="0" result="BackgroundImageFix"/>
<feColorMatrix in="SourceAlpha" type="matrix" values="0 0 0 0 0 0 0 0 0 0 0 0 0 0 0 0 0 0 127 0"/>
<feOffset dy="8.71336"/>
<feGaussianBlur stdDeviation="125"/>
<feColorMatrix type="matrix" values="0 0 0 0 0.0224284 0 0 0 0 0.273123 0 0 0 0 0.6625 0 0 0 0.5 0"/>
<feBlend mode="normal" in2="BackgroundImageFix" result="effect1_dropShadow"/>
<feBlend mode="normal" in="SourceGraphic" in2="effect1_dropShadow" result="shape"/>
</filter>
<filter id="filter1_d" x="-421.117" y="314.158" width="1587.36" height="1420.94" filterUnits="userSpaceOnUse" color-interpolation-filters="sRGB">
<feFlood flood-opacity="0" result="BackgroundImageFix"/>
<feColorMatrix in="SourceAlpha" type="matrix" values="0 0 0 0 0 0 0 0 0 0 0 0 0 0 0 0 0 0 127 0"/>
<feOffset dy="8.71336"/>
<feGaussianBlur stdDeviation="125"/>
<feColorMatrix type="matrix" values="0 0 0 0 0.0224284 0 0 0 0 0.273123 0 0 0 0 0.6625 0 0 0 0.5 0"/>
<feBlend mode="normal" in2="BackgroundImageFix" result="effect1_dropShadow"/>
<feBlend mode="normal" in="SourceGraphic" in2="effect1_dropShadow" result="shape"/>
</filter>
</defs>
</svg>
