<?xml version="1.0" encoding="UTF-8"?>
<svg viewBox="0 0 92 89" xmlns="http://www.w3.org/2000/svg">
<mask id="a" fill="white">
<path d="m9.9478 59.771h67.594v-37.496h2.5508v37.751c4.5913 1.0203 7.9072 5.1015 7.9072 9.6928v18.365h-88v-18.365c0-5.3565 4.3362-9.9478 9.9478-9.9478zm42.087 15.049v6.8869h-16.07v-6.8869h16.07zm-2.5507 2.5507h-10.968v1.7855h10.968v-1.7855zm27.293-2.5507v6.8869h-16.07v-6.8869h16.07zm-2.5507 2.5507h-10.968v1.7855h10.968v-1.7855zm-46.933-2.5507v6.8869h-16.07v-6.8869h16.07zm-2.5508 2.5507h-10.968v1.7855h10.968v-1.7855zm53.31-14.794h-68.104c-4.0812 0-7.3971 3.0608-7.3971 7.142v15.559h82.643v-15.559c0-4.0812-3.0609-7.142-7.142-7.142z"/>
</mask>
<path d="m9.9478 59.771h67.594v-37.496h2.5508v37.751c4.5913 1.0203 7.9072 5.1015 7.9072 9.6928v18.365h-88v-18.365c0-5.3565 4.3362-9.9478 9.9478-9.9478zm42.087 15.049v6.8869h-16.07v-6.8869h16.07zm-2.5507 2.5507h-10.968v1.7855h10.968v-1.7855zm27.293-2.5507v6.8869h-16.07v-6.8869h16.07zm-2.5507 2.5507h-10.968v1.7855h10.968v-1.7855zm-46.933-2.5507v6.8869h-16.07v-6.8869h16.07zm-2.5508 2.5507h-10.968v1.7855h10.968v-1.7855zm53.31-14.794h-68.104c-4.0812 0-7.3971 3.0608-7.3971 7.142v15.559h82.643v-15.559c0-4.0812-3.0609-7.142-7.142-7.142z" fill="#151F41"/>
<path d="m77.542 59.771v0.5h0.5v-0.5h-0.5zm0-37.496v-0.5h-0.5v0.5h0.5zm2.5508 0h0.5v-0.5h-0.5v0.5zm0 37.751h-0.5v0.4011l0.3915 0.087 0.1085-0.4881zm7.9072 28.058v0.5h0.5v-0.5h-0.5zm-88 0h-0.5v0.5h0.5v-0.5zm52.035-13.264h0.5v-0.5h-0.5v0.5zm0 6.8869v0.5h0.5v-0.5h-0.5zm-16.07 0h-0.5v0.5h0.5v-0.5zm0-6.8869v-0.5h-0.5v0.5h0.5zm13.519 2.5507h0.5v-0.5h-0.5v0.5zm-10.968 0v-0.5h-0.5v0.5h0.5zm0 1.7855h-0.5v0.5h0.5v-0.5zm10.968 0v0.5h0.5v-0.5h-0.5zm27.293-4.3362h0.5v-0.5h-0.5v0.5zm0 6.8869v0.5h0.5v-0.5h-0.5zm-16.07 0h-0.5v0.5h0.5v-0.5zm0-6.8869v-0.5h-0.5v0.5h0.5zm13.519 2.5507h0.5v-0.5h-0.5v0.5zm-10.968 0v-0.5h-0.5v0.5h0.5zm0 1.7855h-0.5v0.5h0.5v-0.5zm10.968 0v0.5h0.5v-0.5h-0.5zm-46.933-4.3362h0.5v-0.5h-0.5v0.5zm0 6.8869v0.5h0.5v-0.5h-0.5zm-16.07 0h-0.5v0.5h0.5v-0.5zm0-6.8869v-0.5h-0.5v0.5h0.5zm13.519 2.5507h0.5v-0.5h-0.5v0.5zm-10.968 0v-0.5h-0.5v0.5h0.5zm0 1.7855h-0.5v0.5h0.5v-0.5zm10.968 0v0.5h0.5v-0.5h-0.5zm-22.191 6.1217h-0.5v0.5h0.5v-0.5zm82.643 0v0.5h0.5v-0.5h-0.5zm-75.246-25.007h67.594v-1h-67.594v1zm68.094-0.5v-37.496h-1v37.496h1zm-0.5-36.996h2.5508v-1h-2.5508v1zm2.0508-0.5v37.751h1v-37.751h-1zm0.3915 38.239c4.3689 0.9709 7.5157 4.8543 7.5157 9.2047h1c0-4.8322-3.4851-9.1111-8.2988-10.181l-0.2169 0.9761zm7.5157 9.2047v18.365h1v-18.365h-1zm0.5 17.865h-88v1h88v-1zm-87.5 0.5v-18.365h-1v18.365h1zm0-18.365c0-5.0888 4.1207-9.4478 9.4478-9.4478v-1c-5.896 0-10.448 4.8235-10.448 10.448h1zm51.035 5.1015v0.0134 0.0135 0.0134 0.0135 0.0134 0.0135 0.0134 0.0135 0.0134 0.0135 0.0134 0.0135 0.0134 0.0135 0.0134 0.0135 0.0134 0.0135 0.0134 0.0135 0.0134 0.0135 0.0134 0.0135 0.0134 0.0135 0.0134 0.0135 0.0134 0.0135 0.0134 0.0135 0.0134 0.0135 0.0134 0.0135 0.0134 0.0135 0.0134 0.0135 0.0134 0.0135 0.0135 0.0134 0.0135 0.0134 0.0135 0.0134 0.0135 0.0134 0.0135 0.0134 0.0135 0.0134 0.0135 0.0134 0.0135 0.0134 0.0135 0.0134 0.0135 0.0134 0.0135 0.0134 0.0135 0.0134 0.0135 0.0134 0.0135 0.0134 0.0135 0.0134 0.0135 0.0134 0.0135 0.0134 0.0135 0.0134 0.0135 0.0134 0.0135 0.0134 0.0135 0.0134 0.0135 0.0134 0.0135 0.0134 0.0135 0.0134 0.0135 0.0134 0.0135 0.0135 0.0134 0.0135 0.0134 0.0135 0.0134 0.0135 0.0134 0.0135 0.0134 0.0135 0.0134 0.0135 0.0134 0.0135 0.0134 0.0135 0.0134 0.0135 0.0134 0.0135 0.0134 0.0135 0.0134 0.0135 0.0134 0.0135 0.0134 0.0135 0.0134 0.0135 0.0134 0.0135 0.0134 0.0135 0.0134 0.0135 0.0134 0.0135 0.0134 0.0135 0.0134 0.0135 0.0135 0.0134 0.0135 0.0134 0.0135 0.0134 0.0135 0.0134 0.0135 0.0134 0.0135 0.0134 0.0135 0.0134 0.0135 0.0134 0.0135 0.0134 0.0135 0.0134 0.0135 0.0134 0.0135 0.0134 0.0135 0.0134 0.0135 0.0134 0.0135 0.0134 0.0135 0.0134 0.0135 0.0134 0.0135 0.0134 0.0135 0.0134 0.0135 0.0134 0.0135 0.0134 0.0135 0.0134 0.0135 0.0134 0.0135 0.0134 0.0135 0.0135 0.0134 0.0135 0.0134 0.0135 0.0134 0.0135 0.0134 0.0135 0.0134 0.0135 0.0134 0.0135 0.0134 0.0135 0.0134 0.0135 0.0134 0.0135 0.0134 0.0135 0.0134 0.0135 0.0134 0.0135 0.0134 0.0135 0.0134 0.0135 0.0134 0.0135 0.0134 0.0135 0.0134 0.0135 0.0134 0.0135 0.0134 0.0135 0.0134 0.0135 0.0134 0.0135 0.0135 0.0134 0.0135 0.0134 0.0135 0.0134 0.0135 0.0134 0.0135 0.0134 0.0135 0.0134 0.0135 0.0134 0.0135 0.0134 0.0135 0.0134 0.0135 0.0134 0.0135 0.0134 0.0135 0.0134 0.0135 0.0134 0.0135 0.0134 0.0135 0.0134 0.0135 0.0134 0.0135 0.0134 0.0135 0.0134 0.0135 0.0134 0.0135 0.0134 0.0135 0.0134 0.0135 0.0134 0.0135 0.0134 0.0135 0.0134 0.0135 0.0135 0.0134 0.0135 0.0134 0.0135 0.0134 0.0135 0.0134 0.0135 0.0134 0.0135 0.0134 0.0135 0.0134 0.0135 0.0134 0.0135 0.0134 0.0135 0.0134 0.0135 0.0134 0.0135 0.0134 0.0135 0.0134 0.0135 0.0134 0.0135 0.0134 0.0135 0.0134 0.0135 0.0134 0.0135 0.0134 0.0135 0.0134 0.0135 0.0134 0.0135 0.0134 0.0135 0.0134 0.0135 0.0135 0.0134 0.0135 0.0134 0.0135 0.0134 0.0135 0.0134 0.0135 0.0134 0.0135 0.0134 0.0135 0.0134 0.0135 0.0134 0.0135 0.0134 0.0135 0.0134 0.0135 0.0134 0.0135 0.0134 0.0135 0.0134 0.0135 0.0134 0.0135 0.0134 0.0135 0.0134 0.0135 0.0134 0.0135 0.0134 0.0135 0.0134 0.0135 0.0134 0.0135 0.0134 0.0135 0.0134 0.0135 0.0134 0.0135 0.0135 0.0134 0.0135 0.0134 0.0135 0.0134 0.0135 0.0134 0.0135 0.0134 0.0135 0.0134 0.0135 0.0134 0.0135 0.0134 0.0135 0.0134 0.0135 0.0134 0.0135 0.0134 0.0135 0.0134 0.0135 0.0134 0.0135 0.0134 0.0135 0.0134 0.0135 0.0134 0.0135 0.0134 0.0135 0.0134 0.0135 0.0134 0.0135 0.0134 0.0135 0.0134 0.0135 0.0134 0.0135 0.0134 0.0135 0.0135 0.0134 0.0135 0.0134 0.0135 0.0134 0.0135 0.0134 0.0135 0.0134 0.0135 0.0134 0.0135 0.0134 0.0135 0.0134 0.0135 0.0134 0.0135 0.0134 0.0135 0.0134 0.0135 0.0134 0.0135 0.0134 0.0135 0.0134 0.0135 0.0134 0.0135 0.0134 0.0135 0.0134 0.0135 0.0134 0.0135 0.0134 0.0135 0.0134 0.0135 0.0134 0.0135 0.0134 0.0135 0.0135 0.0134 0.0135 0.0134 0.0135 0.0134 0.0135 0.0134 0.0135 0.0134 0.0135 0.0134 0.0135 0.0134 0.0135 0.0134 0.0135 0.0134 0.0135 0.0134 0.0135 0.0134 0.0135 0.0134 0.0135 0.0134 0.0135 0.0134 0.0135 0.0134 0.0135 0.0134 0.0135 0.0134 0.0135 0.0134 0.0135 0.0134 0.0135 0.0134 0.0135 0.0134 0.0135 0.0134 0.0135 0.0134 0.0135 0.0135 0.0134 0.0135 0.0134h1v-0.0134-0.0135-0.0134-0.0135-0.0135-0.0134-0.0135-0.0134-0.0135-0.0134-0.0135-0.0134-0.0135-0.0134-0.0135-0.0134-0.0135-0.0134-0.0135-0.0134-0.0135-0.0134-0.0135-0.0134-0.0135-0.0134-0.0135-0.0134-0.0135-0.0134-0.0135-0.0134-0.0135-0.0134-0.0135-0.0134-0.0135-0.0134-0.0135-0.0134-0.0135-0.0134-0.0135-0.0134-0.0135-0.0134-0.0135-0.0134-0.0135-0.0134-0.0135-0.0135-0.0134-0.0135-0.0134-0.0135-0.0134-0.0135-0.0134-0.0135-0.0134-0.0135-0.0134-0.0135-0.0134-0.0135-0.0134-0.0135-0.0134-0.0135-0.0134-0.0135-0.0134-0.0135-0.0134-0.0135-0.0134-0.0135-0.0134-0.0135-0.0134-0.0135-0.0134-0.0135-0.0134-0.0135-0.0134-0.0135-0.0134-0.0135-0.0134-0.0135-0.0134-0.0135-0.0134-0.0135-0.0135-0.0134-0.0135-0.0134-0.0135-0.0134-0.0135-0.0134-0.0135-0.0134-0.0135-0.0134-0.0135-0.0134-0.0135-0.0134-0.0135-0.0134-0.0135-0.0134-0.0135-0.0134-0.0135-0.0134-0.0135-0.0134-0.0135-0.0134-0.0135-0.0134-0.0135-0.0134-0.0135-0.0134-0.0135-0.0134-0.0135-0.0134-0.0135-0.0134-0.0135-0.0134-0.0135-0.0134-0.0135-0.0134-0.0135-0.0135-0.0134-0.0135-0.0134-0.0135-0.0134-0.0135-0.0134-0.0135-0.0134-0.0135-0.0134-0.0135-0.0134-0.0135-0.0134-0.0135-0.0134-0.0135-0.0134-0.0135-0.0134-0.0135-0.0134-0.0135-0.0134-0.0135-0.0134-0.0135-0.0134-0.0135-0.0134-0.0135-0.0134-0.0135-0.0134-0.0135-0.0134-0.0135-0.0134-0.0135-0.0134-0.0135-0.0134-0.0135-0.0134-0.0135-0.0135-0.0134-0.0135-0.0134-0.0135-0.0134-0.0135-0.0134-0.0135-0.0134-0.0135-0.0134-0.0135-0.0134-0.0135-0.0134-0.0135-0.0134-0.0135-0.0134-0.0135-0.0134-0.0135-0.0134-0.0135-0.0134-0.0135-0.0134-0.0135-0.0134-0.0135-0.0134-0.0135-0.0134-0.0135-0.0134-0.0135-0.0134-0.0135-0.0134-0.0135-0.0134-0.0135-0.0134-0.0135-0.0135-0.0134-0.0135-0.0134-0.0135-0.0134-0.0135-0.0134-0.0135-0.0134-0.0135-0.0134-0.0135-0.0134-0.0135-0.0134-0.0135-0.0134-0.0135-0.0134-0.0135-0.0134-0.0135-0.0134-0.0135-0.0134-0.0135-0.0134-0.0135-0.0134-0.0135-0.0134-0.0135-0.0134-0.0135-0.0134-0.0135-0.0134-0.0135-0.0134-0.0135-0.0134-0.0135-0.0134-0.0135-0.0134-0.0135-0.0134-0.0135-0.0135-0.0134-0.0135-0.0134-0.0135-0.0134-0.0135-0.0134-0.0135-0.0134-0.0135-0.0134-0.0135-0.0134-0.0135-0.0134-0.0135-0.0134-0.0135-0.0134-0.0135-0.0134-0.0135-0.0134-0.0135-0.0134-0.0135-0.0134-0.0135-0.0134-0.0135-0.0134-0.0135-0.0134-0.0135-0.0134-0.0135-0.0134-0.0135-0.0134-0.0135-0.0134-0.0135-0.0135-0.0134-0.0135-0.0134-0.0135-0.0134-0.0135-0.0134-0.0135-0.0134-0.0135-0.0134-0.0135-0.0134-0.0135-0.0134-0.0135-0.0134-0.0135-0.0134-0.0135-0.0134-0.0135-0.0134-0.0135-0.0134-0.0135-0.0134-0.0135-0.0134-0.0135-0.0134-0.0135-0.0134-0.0135-0.0134-0.0135-0.0134-0.0135-0.0134-0.0135-0.0134-0.0135-0.0134-0.0135-0.0134-0.0135-0.0134-0.0135-0.0135-0.0134-0.0135-0.0134-0.0135-0.0134-0.0135-0.0134-0.0135-0.0134-0.0135-0.0134-0.0135-0.0134-0.0135-0.0134-0.0135-0.0134-0.0135-0.0134-0.0135-0.0134-0.0135-0.0134-0.0135-0.0134-0.0135-0.0134-0.0135-0.0134-0.0135-0.0134-0.0135-0.0134-0.0135-0.0134-0.0135-0.0134-0.0135-0.0134-0.0135-0.0134-0.0135-0.0135-0.0134-0.0135-0.0134-0.0135-0.0134-0.0135-0.0134-0.0135-0.0134-0.0135-0.0134-0.0135-0.0134-0.0135-0.0134-0.0135-0.0134-0.0135-0.0134-0.0135-0.0134-0.0135-0.0134-0.0135-0.0134-0.0135-0.0134-0.0135-0.0134-0.0135-0.0134-0.0135-0.0134-0.0135-0.0134-0.0135-0.0134-0.0135-0.0134-0.0135-0.0134-0.0135-0.0134-0.0135-0.0134-0.0135-0.0134-0.0135-0.0134-0.0135-0.0135-0.0134-0.0135-0.0134-0.0135-0.0134-0.0135-0.0134-0.0135-0.0134-0.0135-0.0134-0.0135-0.0134-0.0135-0.0134-0.0135-0.0134-0.0135-0.0134-0.0135-0.0134-0.0135-0.0134-0.0135-0.0134-0.0135-0.0134-0.0135-0.0134-0.0135-0.0134-0.0135-0.0134-0.0135-0.0134-0.0135-0.0134-0.0135-0.0134-0.0135-0.0134h-1zm0.5 6.3869h-16.07v1h16.07v-1zm-15.57 0.5v-0.0134-0.0135-0.0134-0.0135-0.0135-0.0134-0.0135-0.0134-0.0135-0.0134-0.0135-0.0134-0.0135-0.0134-0.0135-0.0134-0.0135-0.0134-0.0135-0.0134-0.0135-0.0134-0.0135-0.0134-0.0135-0.0134-0.0135-0.0134-0.0135-0.0134-0.0135-0.0134-0.0135-0.0134-0.0135-0.0134-0.0135-0.0134-0.0135-0.0134-0.0135-0.0134-0.0135-0.0134-0.0135-0.0134-0.0135-0.0134-0.0135-0.0134-0.0135-0.0135-0.0134-0.0135-0.0134-0.0135-0.0134-0.0135-0.0134-0.0135-0.0134-0.0135-0.0134-0.0135-0.0134-0.0135-0.0134-0.0135-0.0134-0.0135-0.0134-0.0135-0.0134-0.0135-0.0134-0.0135-0.0134-0.0135-0.0134-0.0135-0.0134-0.0135-0.0134-0.0135-0.0134-0.0135-0.0134-0.0135-0.0134-0.0135-0.0134-0.0135-0.0134-0.0135-0.0134-0.0135-0.0135-0.0134-0.0135-0.0134-0.0135-0.0134-0.0135-0.0134-0.0135-0.0134-0.0135-0.0134-0.0135-0.0134-0.0135-0.0134-0.0135-0.0134-0.0135-0.0134-0.0135-0.0134-0.0135-0.0134-0.0135-0.0134-0.0135-0.0134-0.0135-0.0134-0.0135-0.0134-0.0135-0.0134-0.0135-0.0134-0.0135-0.0134-0.0135-0.0134-0.0135-0.0134-0.0135-0.0134-0.0135-0.0134-0.0135-0.0135-0.0134-0.0135-0.0134-0.0135-0.0134-0.0135-0.0134-0.0135-0.0134-0.0135-0.0134-0.0135-0.0134-0.0135-0.0134-0.0135-0.0134-0.0135-0.0134-0.0135-0.0134-0.0135-0.0134-0.0135-0.0134-0.0135-0.0134-0.0135-0.0134-0.0135-0.0134-0.0135-0.0134-0.0135-0.0134-0.0135-0.0134-0.0135-0.0134-0.0135-0.0134-0.0135-0.0134-0.0135-0.0134-0.0135-0.0135-0.0134-0.0135-0.0134-0.0135-0.0134-0.0135-0.0134-0.0135-0.0134-0.0135-0.0134-0.0135-0.0134-0.0135-0.0134-0.0135-0.0134-0.0135-0.0134-0.0135-0.0134-0.0135-0.0134-0.0135-0.0134-0.0135-0.0134-0.0135-0.0134-0.0135-0.0134-0.0135-0.0134-0.0135-0.0134-0.0135-0.0134-0.0135-0.0134-0.0135-0.0134-0.0135-0.0134-0.0135-0.0135-0.0134-0.0135-0.0134-0.0135-0.0134-0.0135-0.0134-0.0135-0.0134-0.0135-0.0134-0.0135-0.0134-0.0135-0.0134-0.0135-0.0134-0.0135-0.0134-0.0135-0.0134-0.0135-0.0134-0.0135-0.0134-0.0135-0.0134-0.0135-0.0134-0.0135-0.0134-0.0135-0.0134-0.0135-0.0134-0.0135-0.0134-0.0135-0.0134-0.0135-0.0134-0.0135-0.0134-0.0135-0.0134-0.0135-0.0134-0.0135-0.0135-0.0134-0.0135-0.0134-0.0135-0.0134-0.0135-0.0134-0.0135-0.0134-0.0135-0.0134-0.0135-0.0134-0.0135-0.0134-0.0135-0.0134-0.0135-0.0134-0.0135-0.0134-0.0135-0.0134-0.0135-0.0134-0.0135-0.0134-0.0135-0.0134-0.0135-0.0134-0.0135-0.0134-0.0135-0.0134-0.0135-0.0134-0.0135-0.0134-0.0135-0.0134-0.0135-0.0135-0.0134-0.0135-0.0134-0.0135-0.0134-0.0135-0.0134-0.0135-0.0134-0.0135-0.0134-0.0135-0.0134-0.0135-0.0134-0.0135-0.0134-0.0135-0.0134-0.0135-0.0134-0.0135-0.0134-0.0135-0.0134-0.0135-0.0134-0.0135-0.0134-0.0135-0.0134-0.0135-0.0134-0.0135-0.0134-0.0135-0.0134-0.0135-0.0134-0.0135-0.0134-0.0135-0.0134-0.0135-0.0134-0.0135-0.0134-0.0135-0.0135-0.0134-0.0135-0.0134-0.0135-0.0134-0.0135-0.0134-0.0135-0.0134-0.0135-0.0134-0.0135-0.0134-0.0135-0.0134-0.0135-0.0134-0.0135-0.0134-0.0135-0.0134-0.0135-0.0134-0.0135-0.0134-0.0135-0.0134-0.0135-0.0134-0.0135-0.0134-0.0135-0.0134-0.0135-0.0134-0.0135-0.0134-0.0135-0.0134-0.0135-0.0134-0.0135-0.0135-0.0134-0.0135-0.0134-0.0135-0.0134-0.0135-0.0134-0.0135-0.0134-0.0135-0.0134-0.0135-0.0134-0.0135-0.0134-0.0135-0.0134-0.0135-0.0134-0.0135-0.0134-0.0135-0.0134-0.0135-0.0134-0.0135-0.0134-0.0135-0.0134-0.0135-0.0134-0.0135-0.0134-0.0135-0.0134-0.0135-0.0134-0.0135-0.0134-0.0135-0.0134-0.0135-0.0134-0.0135-0.0134-0.0135-0.0134-0.0135-0.0134-0.0135-0.0135-0.0134-0.0135-0.0134-0.0135-0.0134-0.0135-0.0134-0.0135-0.0134-0.0135-0.0134-0.0135-0.0134-0.0135-0.0134-0.0135-0.0134-0.0135-0.0134-0.0135-0.0134-0.0135-0.0134-0.0135-0.0134-0.0135-0.0134-0.0135-0.0134-0.0135-0.0134-0.0135-0.0134-0.0135-0.0134-0.0135-0.0134-0.0135-0.0134-0.0135-0.0134h-1v0.0134 0.0135 0.0134 0.0135 0.0134 0.0135 0.0134 0.0135 0.0134 0.0135 0.0134 0.0135 0.0134 0.0135 0.0134 0.0135 0.0134 0.0135 0.0134 0.0135 0.0134 0.0135 0.0134 0.0135 0.0134 0.0135 0.0134 0.0135 0.0134 0.0135 0.0134 0.0135 0.0134 0.0135 0.0134 0.0135 0.0134 0.0135 0.0134 0.0135 0.0134 0.0135 0.0135 0.0134 0.0135 0.0134 0.0135 0.0134 0.0135 0.0134 0.0135 0.0134 0.0135 0.0134 0.0135 0.0134 0.0135 0.0134 0.0135 0.0134 0.0135 0.0134 0.0135 0.0134 0.0135 0.0134 0.0135 0.0134 0.0135 0.0134 0.0135 0.0134 0.0135 0.0134 0.0135 0.0134 0.0135 0.0134 0.0135 0.0134 0.0135 0.0134 0.0135 0.0134 0.0135 0.0134 0.0135 0.0134 0.0135 0.0134 0.0135 0.0134 0.0135 0.0135 0.0134 0.0135 0.0134 0.0135 0.0134 0.0135 0.0134 0.0135 0.0134 0.0135 0.0134 0.0135 0.0134 0.0135 0.0134 0.0135 0.0134 0.0135 0.0134 0.0135 0.0134 0.0135 0.0134 0.0135 0.0134 0.0135 0.0134 0.0135 0.0134 0.0135 0.0134 0.0135 0.0134 0.0135 0.0134 0.0135 0.0134 0.0135 0.0134 0.0135 0.0134 0.0135 0.0135 0.0134 0.0135 0.0134 0.0135 0.0134 0.0135 0.0134 0.0135 0.0134 0.0135 0.0134 0.0135 0.0134 0.0135 0.0134 0.0135 0.0134 0.0135 0.0134 0.0135 0.0134 0.0135 0.0134 0.0135 0.0134 0.0135 0.0134 0.0135 0.0134 0.0135 0.0134 0.0135 0.0134 0.0135 0.0134 0.0135 0.0134 0.0135 0.0134 0.0135 0.0134 0.0135 0.0134 0.0135 0.0134 0.0135 0.0134 0.0135 0.0135 0.0134 0.0135 0.0134 0.0135 0.0134 0.0135 0.0134 0.0135 0.0134 0.0135 0.0134 0.0135 0.0134 0.0135 0.0134 0.0135 0.0134 0.0135 0.0134 0.0135 0.0134 0.0135 0.0134 0.0135 0.0134 0.0135 0.0134 0.0135 0.0134 0.0135 0.0134 0.0135 0.0134 0.0135 0.0134 0.0135 0.0134 0.0135 0.0134 0.0135 0.0134 0.0135 0.0135 0.0134 0.0135 0.0134 0.0135 0.0134 0.0135 0.0134 0.0135 0.0134 0.0135 0.0134 0.0135 0.0134 0.0135 0.0134 0.0135 0.0134 0.0135 0.0134 0.0135 0.0134 0.0135 0.0134 0.0135 0.0134 0.0135 0.0134 0.0135 0.0134 0.0135 0.0134 0.0135 0.0134 0.0135 0.0134 0.0135 0.0134 0.0135 0.0134 0.0135 0.0134 0.0135 0.0134 0.0135 0.0134 0.0135 0.0134 0.0135 0.0135 0.0134 0.0135 0.0134 0.0135 0.0134 0.0135 0.0134 0.0135 0.0134 0.0135 0.0134 0.0135 0.0134 0.0135 0.0134 0.0135 0.0134 0.0135 0.0134 0.0135 0.0134 0.0135 0.0134 0.0135 0.0134 0.0135 0.0134 0.0135 0.0134 0.0135 0.0134 0.0135 0.0134 0.0135 0.0134 0.0135 0.0134 0.0135 0.0134 0.0135 0.0134 0.0135 0.0134 0.0135 0.0135 0.0134 0.0135 0.0134 0.0135 0.0134 0.0135 0.0134 0.0135 0.0134 0.0135 0.0134 0.0135 0.0134 0.0135 0.0134 0.0135 0.0134 0.0135 0.0134 0.0135 0.0134 0.0135 0.0134 0.0135 0.0134 0.0135 0.0134 0.0135 0.0134 0.0135 0.0134 0.0135 0.0134 0.0135 0.0134 0.0135 0.0134 0.0135 0.0134 0.0135 0.0134 0.0135 0.0134 0.0135 0.0134 0.0135 0.0135 0.0134 0.0135 0.0134 0.0135 0.0134 0.0135 0.0134 0.0135 0.0134 0.0135 0.0134 0.0135 0.0134 0.0135 0.0134 0.0135 0.0134 0.0135 0.0134 0.0135 0.0134 0.0135 0.0134 0.0135 0.0134 0.0135 0.0134 0.0135 0.0134 0.0135 0.0134 0.0135 0.0134 0.0135 0.0134 0.0135 0.0134 0.0135 0.0134 0.0135 0.0134 0.0135 0.0134 0.0135 0.0134 0.0135 0.0135 0.0134 0.0135 0.0134 0.0135 0.0134 0.0135 0.0134 0.0135 0.0134 0.0135 0.0134 0.0135 0.0134 0.0135 0.0134 0.0135 0.0134 0.0135 0.0134 0.0135 0.0134 0.0135 0.0134 0.0135 0.0134 0.0135 0.0134 0.0135 0.0134 0.0135 0.0134 0.0135 0.0134 0.0135 0.0134 0.0135 0.0134 0.0135 0.0134 0.0135 0.0134 0.0135 0.0134 0.0135 0.0135 0.0134 0.0135 0.0134 0.0135 0.0134 0.0135 0.0134 0.0135 0.0134 0.0135 0.0134 0.0135 0.0134 0.0135 0.0134 0.0135 0.0134 0.0135 0.0134 0.0135 0.0134 0.0135 0.0134 0.0135 0.0134 0.0135 0.0134 0.0135 0.0134 0.0135 0.0134 0.0135 0.0134 0.0135 0.0134 0.0135 0.0134 0.0135 0.0134 0.0135 0.0134 0.0135 0.0134 0.0135 0.0134 0.0135 0.0135 0.0134 0.0135 0.0134h1zm-0.5-6.3869h16.07v-1h-16.07v1zm13.519 1.5507h-10.968v1h10.968v-1zm-11.468 0.5v1.7855h1v-1.7855h-1zm0.5 2.2855h10.968v-1h-10.968v1zm11.468-0.5v-1.7855h-1v1.7855h1zm26.293-4.3362v0.0134 0.0135 0.0134 0.0135 0.0134 0.0135 0.0134 0.0135 0.0134 0.0135 0.0134 0.0135 0.0134 0.0135 0.0134 0.0135 0.0134 0.0135 0.0134 0.0135 0.0134 0.0135 0.0134 0.0135 0.0134 0.0135 0.0134 0.0135 0.0134 0.0135 0.0134 0.0135 0.0134 0.0135 0.0134 0.0135 0.0134 0.0135 0.0134 0.0135 0.0134 0.0135 0.0135 0.0134 0.0135 0.0134 0.0135 0.0134 0.0135 0.0134 0.0135 0.0134 0.0135 0.0134 0.0135 0.0134 0.0135 0.0134 0.0135 0.0134 0.0135 0.0134 0.0135 0.0134 0.0135 0.0134 0.0135 0.0134 0.0135 0.0134 0.0135 0.0134 0.0135 0.0134 0.0135 0.0134 0.0135 0.0134 0.0135 0.0134 0.0135 0.0134 0.0135 0.0134 0.0135 0.0134 0.0135 0.0134 0.0135 0.0134 0.0135 0.0134 0.0135 0.0135 0.0134 0.0135 0.0134 0.0135 0.0134 0.0135 0.0134 0.0135 0.0134 0.0135 0.0134 0.0135 0.0134 0.0135 0.0134 0.0135 0.0134 0.0135 0.0134 0.0135 0.0134 0.0135 0.0134 0.0135 0.0134 0.0135 0.0134 0.0135 0.0134 0.0135 0.0134 0.0135 0.0134 0.0135 0.0134 0.0135 0.0134 0.0135 0.0134 0.0135 0.0134 0.0135 0.0135 0.0134 0.0135 0.0134 0.0135 0.0134 0.0135 0.0134 0.0135 0.0134 0.0135 0.0134 0.0135 0.0134 0.0135 0.0134 0.0135 0.0134 0.0135 0.0134 0.0135 0.0134 0.0135 0.0134 0.0135 0.0134 0.0135 0.0134 0.0135 0.0134 0.0135 0.0134 0.0135 0.0134 0.0135 0.0134 0.0135 0.0134 0.0135 0.0134 0.0135 0.0134 0.0135 0.0134 0.0135 0.0134 0.0135 0.0134 0.0135 0.0135 0.0134 0.0135 0.0134 0.0135 0.0134 0.0135 0.0134 0.0135 0.0134 0.0135 0.0134 0.0135 0.0134 0.0135 0.0134 0.0135 0.0134 0.0135 0.0134 0.0135 0.0134 0.0135 0.0134 0.0135 0.0134 0.0135 0.0134 0.0135 0.0134 0.0135 0.0134 0.0135 0.0134 0.0135 0.0134 0.0135 0.0134 0.0135 0.0134 0.0135 0.0134 0.0135 0.0135 0.0134 0.0135 0.0134 0.0135 0.0134 0.0135 0.0134 0.0135 0.0134 0.0135 0.0134 0.0135 0.0134 0.0135 0.0134 0.0135 0.0134 0.0135 0.0134 0.0135 0.0134 0.0135 0.0134 0.0135 0.0134 0.0135 0.0134 0.0135 0.0134 0.0135 0.0134 0.0135 0.0134 0.0135 0.0134 0.0135 0.0134 0.0135 0.0134 0.0135 0.0134 0.0135 0.0134 0.0135 0.0134 0.0135 0.0134 0.0135 0.0135 0.0134 0.0135 0.0134 0.0135 0.0134 0.0135 0.0134 0.0135 0.0134 0.0135 0.0134 0.0135 0.0134 0.0135 0.0134 0.0135 0.0134 0.0135 0.0134 0.0135 0.0134 0.0135 0.0134 0.0135 0.0134 0.0135 0.0134 0.0135 0.0134 0.0135 0.0134 0.0135 0.0134 0.0135 0.0134 0.0135 0.0134 0.0135 0.0134 0.0135 0.0134 0.0135 0.0134 0.0135 0.0135 0.0134 0.0135 0.0134 0.0135 0.0134 0.0135 0.0134 0.0135 0.0134 0.0135 0.0134 0.0135 0.0134 0.0135 0.0134 0.0135 0.0134 0.0135 0.0134 0.0135 0.0134 0.0135 0.0134 0.0135 0.0134 0.0135 0.0134 0.0135 0.0134 0.0135 0.0134 0.0135 0.0134 0.0135 0.0134 0.0135 0.0134 0.0135 0.0134 0.0135 0.0134 0.0135 0.0134 0.0135 0.0134 0.0135 0.0135 0.0134 0.0135 0.0134 0.0135 0.0134 0.0135 0.0134 0.0135 0.0134 0.0135 0.0134 0.0135 0.0134 0.0135 0.0134 0.0135 0.0134 0.0135 0.0134 0.0135 0.0134 0.0135 0.0134 0.0135 0.0134 0.0135 0.0134 0.0135 0.0134 0.0135 0.0134 0.0135 0.0134 0.0135 0.0134 0.0135 0.0134 0.0135 0.0134 0.0135 0.0134 0.0135 0.0134 0.0135 0.0134 0.0135 0.0135 0.0134 0.0135 0.0134 0.0135 0.0134 0.0135 0.0134 0.0135 0.0134 0.0135 0.0134 0.0135 0.0134 0.0135 0.0134 0.0135 0.0134 0.0135 0.0134 0.0135 0.0134 0.0135 0.0134 0.0135 0.0134 0.0135 0.0134 0.0135 0.0134 0.0135 0.0134 0.0135 0.0134 0.0135 0.0134 0.0135 0.0134 0.0135 0.0134 0.0135 0.0134 0.0135 0.0134 0.0135 0.0135 0.0134 0.0135 0.0134 0.0135 0.0134 0.0135 0.0134 0.0135 0.0134 0.0135 0.0134 0.0135 0.0134 0.0135 0.0134 0.0135 0.0134 0.0135 0.0134 0.0135 0.0134 0.0135 0.0134 0.0135 0.0134 0.0135 0.0134 0.0135 0.0134 0.0135 0.0134 0.0135 0.0134 0.0135 0.0134 0.0135 0.0134 0.0135 0.0134 0.0135 0.0134 0.0135 0.0134 0.0135 0.0134 0.0135 0.0135 0.0134 0.0135 0.0134h1v-0.0134-0.0135-0.0134-0.0135-0.0135-0.0134-0.0135-0.0134-0.0135-0.0134-0.0135-0.0134-0.0135-0.0134-0.0135-0.0134-0.0135-0.0134-0.0135-0.0134-0.0135-0.0134-0.0135-0.0134-0.0135-0.0134-0.0135-0.0134-0.0135-0.0134-0.0135-0.0134-0.0135-0.0134-0.0135-0.0134-0.0135-0.0134-0.0135-0.0134-0.0135-0.0134-0.0135-0.0134-0.0135-0.0134-0.0135-0.0134-0.0135-0.0134-0.0135-0.0135-0.0134-0.0135-0.0134-0.0135-0.0134-0.0135-0.0134-0.0135-0.0134-0.0135-0.0134-0.0135-0.0134-0.0135-0.0134-0.0135-0.0134-0.0135-0.0134-0.0135-0.0134-0.0135-0.0134-0.0135-0.0134-0.0135-0.0134-0.0135-0.0134-0.0135-0.0134-0.0135-0.0134-0.0135-0.0134-0.0135-0.0134-0.0135-0.0134-0.0135-0.0134-0.0135-0.0134-0.0135-0.0135-0.0134-0.0135-0.0134-0.0135-0.0134-0.0135-0.0134-0.0135-0.0134-0.0135-0.0134-0.0135-0.0134-0.0135-0.0134-0.0135-0.0134-0.0135-0.0134-0.0135-0.0134-0.0135-0.0134-0.0135-0.0134-0.0135-0.0134-0.0135-0.0134-0.0135-0.0134-0.0135-0.0134-0.0135-0.0134-0.0135-0.0134-0.0135-0.0134-0.0135-0.0134-0.0135-0.0134-0.0135-0.0134-0.0135-0.0135-0.0134-0.0135-0.0134-0.0135-0.0134-0.0135-0.0134-0.0135-0.0134-0.0135-0.0134-0.0135-0.0134-0.0135-0.0134-0.0135-0.0134-0.0135-0.0134-0.0135-0.0134-0.0135-0.0134-0.0135-0.0134-0.0135-0.0134-0.0135-0.0134-0.0135-0.0134-0.0135-0.0134-0.0135-0.0134-0.0135-0.0134-0.0135-0.0134-0.0135-0.0134-0.0135-0.0134-0.0135-0.0134-0.0135-0.0135-0.0134-0.0135-0.0134-0.0135-0.0134-0.0135-0.0134-0.0135-0.0134-0.0135-0.0134-0.0135-0.0134-0.0135-0.0134-0.0135-0.0134-0.0135-0.0134-0.0135-0.0134-0.0135-0.0134-0.0135-0.0134-0.0135-0.0134-0.0135-0.0134-0.0135-0.0134-0.0135-0.0134-0.0135-0.0134-0.0135-0.0134-0.0135-0.0134-0.0135-0.0134-0.0135-0.0134-0.0135-0.0135-0.0134-0.0135-0.0134-0.0135-0.0134-0.0135-0.0134-0.0135-0.0134-0.0135-0.0134-0.0135-0.0134-0.0135-0.0134-0.0135-0.0134-0.0135-0.0134-0.0135-0.0134-0.0135-0.0134-0.0135-0.0134-0.0135-0.0134-0.0135-0.0134-0.0135-0.0134-0.0135-0.0134-0.0135-0.0134-0.0135-0.0134-0.0135-0.0134-0.0135-0.0134-0.0135-0.0134-0.0135-0.0134-0.0135-0.0134-0.0135-0.0135-0.0134-0.0135-0.0134-0.0135-0.0134-0.0135-0.0134-0.0135-0.0134-0.0135-0.0134-0.0135-0.0134-0.0135-0.0134-0.0135-0.0134-0.0135-0.0134-0.0135-0.0134-0.0135-0.0134-0.0135-0.0134-0.0135-0.0134-0.0135-0.0134-0.0135-0.0134-0.0135-0.0134-0.0135-0.0134-0.0135-0.0134-0.0135-0.0134-0.0135-0.0134-0.0135-0.0135-0.0134-0.0135-0.0134-0.0135-0.0134-0.0135-0.0134-0.0135-0.0134-0.0135-0.0134-0.0135-0.0134-0.0135-0.0134-0.0135-0.0134-0.0135-0.0134-0.0135-0.0134-0.0135-0.0134-0.0135-0.0134-0.0135-0.0134-0.0135-0.0134-0.0135-0.0134-0.0135-0.0134-0.0135-0.0134-0.0135-0.0134-0.0135-0.0134-0.0135-0.0134-0.0135-0.0134-0.0135-0.0134-0.0135-0.0134-0.0135-0.0135-0.0134-0.0135-0.0134-0.0135-0.0134-0.0135-0.0134-0.0135-0.0134-0.0135-0.0134-0.0135-0.0134-0.0135-0.0134-0.0135-0.0134-0.0135-0.0134-0.0135-0.0134-0.0135-0.0134-0.0135-0.0134-0.0135-0.0134-0.0135-0.0134-0.0135-0.0134-0.0135-0.0134-0.0135-0.0134-0.0135-0.0134-0.0135-0.0134-0.0135-0.0134-0.0135-0.0135-0.0134-0.0135-0.0134-0.0135-0.0134-0.0135-0.0134-0.0135-0.0134-0.0135-0.0134-0.0135-0.0134-0.0135-0.0134-0.0135-0.0134-0.0135-0.0134-0.0135-0.0134-0.0135-0.0134-0.0135-0.0134-0.0135-0.0134-0.0135-0.0134-0.0135-0.0134-0.0135-0.0134-0.0135-0.0134-0.0135-0.0134-0.0135-0.0134-0.0135-0.0134-0.0135-0.0134-0.0135-0.0134-0.0135-0.0134-0.0135-0.0134-0.0135-0.0135-0.0134-0.0135-0.0134-0.0135-0.0134-0.0135-0.0134-0.0135-0.0134-0.0135-0.0134-0.0135-0.0134-0.0135-0.0134-0.0135-0.0134-0.0135-0.0134-0.0135-0.0134-0.0135-0.0134-0.0135-0.0134-0.0135-0.0134-0.0135-0.0134-0.0135-0.0134-0.0135-0.0134-0.0135-0.0134-0.0135-0.0134-0.0135-0.0134-0.0135-0.0134h-1zm0.5 6.3869h-16.07v1h16.07v-1zm-15.57 0.5v-0.0134-0.0135-0.0134-0.0135-0.0135-0.0134-0.0135-0.0134-0.0135-0.0134-0.0135-0.0134-0.0135-0.0134-0.0135-0.0134-0.0135-0.0134-0.0135-0.0134-0.0135-0.0134-0.0135-0.0134-0.0135-0.0134-0.0135-0.0134-0.0135-0.0134-0.0135-0.0134-0.0135-0.0134-0.0135-0.0134-0.0135-0.0134-0.0135-0.0134-0.0135-0.0134-0.0135-0.0134-0.0135-0.0134-0.0135-0.0134-0.0135-0.0134-0.0135-0.0135-0.0134-0.0135-0.0134-0.0135-0.0134-0.0135-0.0134-0.0135-0.0134-0.0135-0.0134-0.0135-0.0134-0.0135-0.0134-0.0135-0.0134-0.0135-0.0134-0.0135-0.0134-0.0135-0.0134-0.0135-0.0134-0.0135-0.0134-0.0135-0.0134-0.0135-0.0134-0.0135-0.0134-0.0135-0.0134-0.0135-0.0134-0.0135-0.0134-0.0135-0.0134-0.0135-0.0134-0.0135-0.0135-0.0134-0.0135-0.0134-0.0135-0.0134-0.0135-0.0134-0.0135-0.0134-0.0135-0.0134-0.0135-0.0134-0.0135-0.0134-0.0135-0.0134-0.0135-0.0134-0.0135-0.0134-0.0135-0.0134-0.0135-0.0134-0.0135-0.0134-0.0135-0.0134-0.0135-0.0134-0.0135-0.0134-0.0135-0.0134-0.0135-0.0134-0.0135-0.0134-0.0135-0.0134-0.0135-0.0134-0.0135-0.0134-0.0135-0.0135-0.0134-0.0135-0.0134-0.0135-0.0134-0.0135-0.0134-0.0135-0.0134-0.0135-0.0134-0.0135-0.0134-0.0135-0.0134-0.0135-0.0134-0.0135-0.0134-0.0135-0.0134-0.0135-0.0134-0.0135-0.0134-0.0135-0.0134-0.0135-0.0134-0.0135-0.0134-0.0135-0.0134-0.0135-0.0134-0.0135-0.0134-0.0135-0.0134-0.0135-0.0134-0.0135-0.0134-0.0135-0.0134-0.0135-0.0135-0.0134-0.0135-0.0134-0.0135-0.0134-0.0135-0.0134-0.0135-0.0134-0.0135-0.0134-0.0135-0.0134-0.0135-0.0134-0.0135-0.0134-0.0135-0.0134-0.0135-0.0134-0.0135-0.0134-0.0135-0.0134-0.0135-0.0134-0.0135-0.0134-0.0135-0.0134-0.0135-0.0134-0.0135-0.0134-0.0135-0.0134-0.0135-0.0134-0.0135-0.0134-0.0135-0.0134-0.0135-0.0135-0.0134-0.0135-0.0134-0.0135-0.0134-0.0135-0.0134-0.0135-0.0134-0.0135-0.0134-0.0135-0.0134-0.0135-0.0134-0.0135-0.0134-0.0135-0.0134-0.0135-0.0134-0.0135-0.0134-0.0135-0.0134-0.0135-0.0134-0.0135-0.0134-0.0135-0.0134-0.0135-0.0134-0.0135-0.0134-0.0135-0.0134-0.0135-0.0134-0.0135-0.0134-0.0135-0.0134-0.0135-0.0134-0.0135-0.0134-0.0135-0.0135-0.0134-0.0135-0.0134-0.0135-0.0134-0.0135-0.0134-0.0135-0.0134-0.0135-0.0134-0.0135-0.0134-0.0135-0.0134-0.0135-0.0134-0.0135-0.0134-0.0135-0.0134-0.0135-0.0134-0.0135-0.0134-0.0135-0.0134-0.0135-0.0134-0.0135-0.0134-0.0135-0.0134-0.0135-0.0134-0.0135-0.0134-0.0135-0.0134-0.0135-0.0134-0.0135-0.0135-0.0134-0.0135-0.0134-0.0135-0.0134-0.0135-0.0134-0.0135-0.0134-0.0135-0.0134-0.0135-0.0134-0.0135-0.0134-0.0135-0.0134-0.0135-0.0134-0.0135-0.0134-0.0135-0.0134-0.0135-0.0134-0.0135-0.0134-0.0135-0.0134-0.0135-0.0134-0.0135-0.0134-0.0135-0.0134-0.0135-0.0134-0.0135-0.0134-0.0135-0.0134-0.0135-0.0134-0.0135-0.0134-0.0135-0.0134-0.0135-0.0135-0.0134-0.0135-0.0134-0.0135-0.0134-0.0135-0.0134-0.0135-0.0134-0.0135-0.0134-0.0135-0.0134-0.0135-0.0134-0.0135-0.0134-0.0135-0.0134-0.0135-0.0134-0.0135-0.0134-0.0135-0.0134-0.0135-0.0134-0.0135-0.0134-0.0135-0.0134-0.0135-0.0134-0.0135-0.0134-0.0135-0.0134-0.0135-0.0134-0.0135-0.0134-0.0135-0.0135-0.0134-0.0135-0.0134-0.0135-0.0134-0.0135-0.0134-0.0135-0.0134-0.0135-0.0134-0.0135-0.0134-0.0135-0.0134-0.0135-0.0134-0.0135-0.0134-0.0135-0.0134-0.0135-0.0134-0.0135-0.0134-0.0135-0.0134-0.0135-0.0134-0.0135-0.0134-0.0135-0.0134-0.0135-0.0134-0.0135-0.0134-0.0135-0.0134-0.0135-0.0134-0.0135-0.0134-0.0135-0.0134-0.0135-0.0134-0.0135-0.0134-0.0135-0.0135-0.0134-0.0135-0.0134-0.0135-0.0134-0.0135-0.0134-0.0135-0.0134-0.0135-0.0134-0.0135-0.0134-0.0135-0.0134-0.0135-0.0134-0.0135-0.0134-0.0135-0.0134-0.0135-0.0134-0.0135-0.0134-0.0135-0.0134-0.0135-0.0134-0.0135-0.0134-0.0135-0.0134-0.0135-0.0134-0.0135-0.0134-0.0135-0.0134-0.0135-0.0134h-1v0.0134 0.0135 0.0134 0.0135 0.0134 0.0135 0.0134 0.0135 0.0134 0.0135 0.0134 0.0135 0.0134 0.0135 0.0134 0.0135 0.0134 0.0135 0.0134 0.0135 0.0134 0.0135 0.0134 0.0135 0.0134 0.0135 0.0134 0.0135 0.0134 0.0135 0.0134 0.0135 0.0134 0.0135 0.0134 0.0135 0.0134 0.0135 0.0134 0.0135 0.0134 0.0135 0.0135 0.0134 0.0135 0.0134 0.0135 0.0134 0.0135 0.0134 0.0135 0.0134 0.0135 0.0134 0.0135 0.0134 0.0135 0.0134 0.0135 0.0134 0.0135 0.0134 0.0135 0.0134 0.0135 0.0134 0.0135 0.0134 0.0135 0.0134 0.0135 0.0134 0.0135 0.0134 0.0135 0.0134 0.0135 0.0134 0.0135 0.0134 0.0135 0.0134 0.0135 0.0134 0.0135 0.0134 0.0135 0.0134 0.0135 0.0134 0.0135 0.0134 0.0135 0.0135 0.0134 0.0135 0.0134 0.0135 0.0134 0.0135 0.0134 0.0135 0.0134 0.0135 0.0134 0.0135 0.0134 0.0135 0.0134 0.0135 0.0134 0.0135 0.0134 0.0135 0.0134 0.0135 0.0134 0.0135 0.0134 0.0135 0.0134 0.0135 0.0134 0.0135 0.0134 0.0135 0.0134 0.0135 0.0134 0.0135 0.0134 0.0135 0.0134 0.0135 0.0134 0.0135 0.0135 0.0134 0.0135 0.0134 0.0135 0.0134 0.0135 0.0134 0.0135 0.0134 0.0135 0.0134 0.0135 0.0134 0.0135 0.0134 0.0135 0.0134 0.0135 0.0134 0.0135 0.0134 0.0135 0.0134 0.0135 0.0134 0.0135 0.0134 0.0135 0.0134 0.0135 0.0134 0.0135 0.0134 0.0135 0.0134 0.0135 0.0134 0.0135 0.0134 0.0135 0.0134 0.0135 0.0134 0.0135 0.0134 0.0135 0.0134 0.0135 0.0135 0.0134 0.0135 0.0134 0.0135 0.0134 0.0135 0.0134 0.0135 0.0134 0.0135 0.0134 0.0135 0.0134 0.0135 0.0134 0.0135 0.0134 0.0135 0.0134 0.0135 0.0134 0.0135 0.0134 0.0135 0.0134 0.0135 0.0134 0.0135 0.0134 0.0135 0.0134 0.0135 0.0134 0.0135 0.0134 0.0135 0.0134 0.0135 0.0134 0.0135 0.0134 0.0135 0.0135 0.0134 0.0135 0.0134 0.0135 0.0134 0.0135 0.0134 0.0135 0.0134 0.0135 0.0134 0.0135 0.0134 0.0135 0.0134 0.0135 0.0134 0.0135 0.0134 0.0135 0.0134 0.0135 0.0134 0.0135 0.0134 0.0135 0.0134 0.0135 0.0134 0.0135 0.0134 0.0135 0.0134 0.0135 0.0134 0.0135 0.0134 0.0135 0.0134 0.0135 0.0134 0.0135 0.0134 0.0135 0.0134 0.0135 0.0134 0.0135 0.0135 0.0134 0.0135 0.0134 0.0135 0.0134 0.0135 0.0134 0.0135 0.0134 0.0135 0.0134 0.0135 0.0134 0.0135 0.0134 0.0135 0.0134 0.0135 0.0134 0.0135 0.0134 0.0135 0.0134 0.0135 0.0134 0.0135 0.0134 0.0135 0.0134 0.0135 0.0134 0.0135 0.0134 0.0135 0.0134 0.0135 0.0134 0.0135 0.0134 0.0135 0.0134 0.0135 0.0134 0.0135 0.0135 0.0134 0.0135 0.0134 0.0135 0.0134 0.0135 0.0134 0.0135 0.0134 0.0135 0.0134 0.0135 0.0134 0.0135 0.0134 0.0135 0.0134 0.0135 0.0134 0.0135 0.0134 0.0135 0.0134 0.0135 0.0134 0.0135 0.0134 0.0135 0.0134 0.0135 0.0134 0.0135 0.0134 0.0135 0.0134 0.0135 0.0134 0.0135 0.0134 0.0135 0.0134 0.0135 0.0134 0.0135 0.0134 0.0135 0.0135 0.0134 0.0135 0.0134 0.0135 0.0134 0.0135 0.0134 0.0135 0.0134 0.0135 0.0134 0.0135 0.0134 0.0135 0.0134 0.0135 0.0134 0.0135 0.0134 0.0135 0.0134 0.0135 0.0134 0.0135 0.0134 0.0135 0.0134 0.0135 0.0134 0.0135 0.0134 0.0135 0.0134 0.0135 0.0134 0.0135 0.0134 0.0135 0.0134 0.0135 0.0134 0.0135 0.0134 0.0135 0.0134 0.0135 0.0135 0.0134 0.0135 0.0134 0.0135 0.0134 0.0135 0.0134 0.0135 0.0134 0.0135 0.0134 0.0135 0.0134 0.0135 0.0134 0.0135 0.0134 0.0135 0.0134 0.0135 0.0134 0.0135 0.0134 0.0135 0.0134 0.0135 0.0134 0.0135 0.0134 0.0135 0.0134 0.0135 0.0134 0.0135 0.0134 0.0135 0.0134 0.0135 0.0134 0.0135 0.0134 0.0135 0.0134 0.0135 0.0135 0.0134 0.0135 0.0134 0.0135 0.0134 0.0135 0.0134 0.0135 0.0134 0.0135 0.0134 0.0135 0.0134 0.0135 0.0134 0.0135 0.0134 0.0135 0.0134 0.0135 0.0134 0.0135 0.0134 0.0135 0.0134 0.0135 0.0134 0.0135 0.0134 0.0135 0.0134 0.0135 0.0134 0.0135 0.0134 0.0135 0.0134 0.0135 0.0134 0.0135 0.0134 0.0135 0.0134 0.0135 0.0134 0.0135 0.0135 0.0134 0.0135 0.0134h1zm-0.5-6.3869h16.07v-1h-16.07v1zm13.519 1.5507h-10.968v1h10.968v-1zm-11.468 0.5v1.7855h1v-1.7855h-1zm0.5 2.2855h10.968v-1h-10.968v1zm11.468-0.5v-1.7855h-1v1.7855h1zm-47.933-4.3362v0.0134 0.0135 0.0134 0.0135 0.0134 0.0135 0.0134 0.0135 0.0134 0.0135 0.0134 0.0135 0.0134 0.0135 0.0134 0.0135 0.0134 0.0135 0.0134 0.0135 0.0134 0.0135 0.0134 0.0135 0.0134 0.0135 0.0134 0.0135 0.0134 0.0135 0.0134 0.0135 0.0134 0.0135 0.0134 0.0135 0.0134 0.0135 0.0134 0.0135 0.0134 0.0135 0.0135 0.0134 0.0135 0.0134 0.0135 0.0134 0.0135 0.0134 0.0135 0.0134 0.0135 0.0134 0.0135 0.0134 0.0135 0.0134 0.0135 0.0134 0.0135 0.0134 0.0135 0.0134 0.0135 0.0134 0.0135 0.0134 0.0135 0.0134 0.0135 0.0134 0.0135 0.0134 0.0135 0.0134 0.0135 0.0134 0.0135 0.0134 0.0135 0.0134 0.0135 0.0134 0.0135 0.0134 0.0135 0.0134 0.0135 0.0134 0.0135 0.0134 0.0135 0.0135 0.0134 0.0135 0.0134 0.0135 0.0134 0.0135 0.0134 0.0135 0.0134 0.0135 0.0134 0.0135 0.0134 0.0135 0.0134 0.0135 0.0134 0.0135 0.0134 0.0135 0.0134 0.0135 0.0134 0.0135 0.0134 0.0135 0.0134 0.0135 0.0134 0.0135 0.0134 0.0135 0.0134 0.0135 0.0134 0.0135 0.0134 0.0135 0.0134 0.0135 0.0134 0.0135 0.0135 0.0134 0.0135 0.0134 0.0135 0.0134 0.0135 0.0134 0.0135 0.0134 0.0135 0.0134 0.0135 0.0134 0.0135 0.0134 0.0135 0.0134 0.0135 0.0134 0.0135 0.0134 0.0135 0.0134 0.0135 0.0134 0.0135 0.0134 0.0135 0.0134 0.0135 0.0134 0.0135 0.0134 0.0135 0.0134 0.0135 0.0134 0.0135 0.0134 0.0135 0.0134 0.0135 0.0134 0.0135 0.0134 0.0135 0.0134 0.0135 0.0135 0.0134 0.0135 0.0134 0.0135 0.0134 0.0135 0.0134 0.0135 0.0134 0.0135 0.0134 0.0135 0.0134 0.0135 0.0134 0.0135 0.0134 0.0135 0.0134 0.0135 0.0134 0.0135 0.0134 0.0135 0.0134 0.0135 0.0134 0.0135 0.0134 0.0135 0.0134 0.0135 0.0134 0.0135 0.0134 0.0135 0.0134 0.0135 0.0134 0.0135 0.0134 0.0135 0.0135 0.0134 0.0135 0.0134 0.0135 0.0134 0.0135 0.0134 0.0135 0.0134 0.0135 0.0134 0.0135 0.0134 0.0135 0.0134 0.0135 0.0134 0.0135 0.0134 0.0135 0.0134 0.0135 0.0134 0.0135 0.0134 0.0135 0.0134 0.0135 0.0134 0.0135 0.0134 0.0135 0.0134 0.0135 0.0134 0.0135 0.0134 0.0135 0.0134 0.0135 0.0134 0.0135 0.0134 0.0135 0.0134 0.0135 0.0134 0.0135 0.0135 0.0134 0.0135 0.0134 0.0135 0.0134 0.0135 0.0134 0.0135 0.0134 0.0135 0.0134 0.0135 0.0134 0.0135 0.0134 0.0135 0.0134 0.0135 0.0134 0.0135 0.0134 0.0135 0.0134 0.0135 0.0134 0.0135 0.0134 0.0135 0.0134 0.0135 0.0134 0.0135 0.0134 0.0135 0.0134 0.0135 0.0134 0.0135 0.0134 0.0135 0.0134 0.0135 0.0134 0.0135 0.0135 0.0134 0.0135 0.0134 0.0135 0.0134 0.0135 0.0134 0.0135 0.0134 0.0135 0.0134 0.0135 0.0134 0.0135 0.0134 0.0135 0.0134 0.0135 0.0134 0.0135 0.0134 0.0135 0.0134 0.0135 0.0134 0.0135 0.0134 0.0135 0.0134 0.0135 0.0134 0.0135 0.0134 0.0135 0.0134 0.0135 0.0134 0.0135 0.0134 0.0135 0.0134 0.0135 0.0134 0.0135 0.0134 0.0135 0.0135 0.0134 0.0135 0.0134 0.0135 0.0134 0.0135 0.0134 0.0135 0.0134 0.0135 0.0134 0.0135 0.0134 0.0135 0.0134 0.0135 0.0134 0.0135 0.0134 0.0135 0.0134 0.0135 0.0134 0.0135 0.0134 0.0135 0.0134 0.0135 0.0134 0.0135 0.0134 0.0135 0.0134 0.0135 0.0134 0.0135 0.0134 0.0135 0.0134 0.0135 0.0134 0.0135 0.0134 0.0135 0.0134 0.0135 0.0135 0.0134 0.0135 0.0134 0.0135 0.0134 0.0135 0.0134 0.0135 0.0134 0.0135 0.0134 0.0135 0.0134 0.0135 0.0134 0.0135 0.0134 0.0135 0.0134 0.0135 0.0134 0.0135 0.0134 0.0135 0.0134 0.0135 0.0134 0.0135 0.0134 0.0135 0.0134 0.0135 0.0134 0.0135 0.0134 0.0135 0.0134 0.0135 0.0134 0.0135 0.0134 0.0135 0.0134 0.0135 0.0135 0.0134 0.0135 0.0134 0.0135 0.0134 0.0135 0.0134 0.0135 0.0134 0.0135 0.0134 0.0135 0.0134 0.0135 0.0134 0.0135 0.0134 0.0135 0.0134 0.0135 0.0134 0.0135 0.0134 0.0135 0.0134 0.0135 0.0134 0.0135 0.0134 0.0135 0.0134 0.0135 0.0134 0.0135 0.0134 0.0135 0.0134 0.0135 0.0134 0.0135 0.0134 0.0135 0.0134 0.0135 0.0134 0.0135 0.0135 0.0134 0.0135 0.0134h1v-0.0134-0.0135-0.0134-0.0135-0.0135-0.0134-0.0135-0.0134-0.0135-0.0134-0.0135-0.0134-0.0135-0.0134-0.0135-0.0134-0.0135-0.0134-0.0135-0.0134-0.0135-0.0134-0.0135-0.0134-0.0135-0.0134-0.0135-0.0134-0.0135-0.0134-0.0135-0.0134-0.0135-0.0134-0.0135-0.0134-0.0135-0.0134-0.0135-0.0134-0.0135-0.0134-0.0135-0.0134-0.0135-0.0134-0.0135-0.0134-0.0135-0.0134-0.0135-0.0135-0.0134-0.0135-0.0134-0.0135-0.0134-0.0135-0.0134-0.0135-0.0134-0.0135-0.0134-0.0135-0.0134-0.0135-0.0134-0.0135-0.0134-0.0135-0.0134-0.0135-0.0134-0.0135-0.0134-0.0135-0.0134-0.0135-0.0134-0.0135-0.0134-0.0135-0.0134-0.0135-0.0134-0.0135-0.0134-0.0135-0.0134-0.0135-0.0134-0.0135-0.0134-0.0135-0.0134-0.0135-0.0135-0.0134-0.0135-0.0134-0.0135-0.0134-0.0135-0.0134-0.0135-0.0134-0.0135-0.0134-0.0135-0.0134-0.0135-0.0134-0.0135-0.0134-0.0135-0.0134-0.0135-0.0134-0.0135-0.0134-0.0135-0.0134-0.0135-0.0134-0.0135-0.0134-0.0135-0.0134-0.0135-0.0134-0.0135-0.0134-0.0135-0.0134-0.0135-0.0134-0.0135-0.0134-0.0135-0.0134-0.0135-0.0134-0.0135-0.0135-0.0134-0.0135-0.0134-0.0135-0.0134-0.0135-0.0134-0.0135-0.0134-0.0135-0.0134-0.0135-0.0134-0.0135-0.0134-0.0135-0.0134-0.0135-0.0134-0.0135-0.0134-0.0135-0.0134-0.0135-0.0134-0.0135-0.0134-0.0135-0.0134-0.0135-0.0134-0.0135-0.0134-0.0135-0.0134-0.0135-0.0134-0.0135-0.0134-0.0135-0.0134-0.0135-0.0134-0.0135-0.0134-0.0135-0.0135-0.0134-0.0135-0.0134-0.0135-0.0134-0.0135-0.0134-0.0135-0.0134-0.0135-0.0134-0.0135-0.0134-0.0135-0.0134-0.0135-0.0134-0.0135-0.0134-0.0135-0.0134-0.0135-0.0134-0.0135-0.0134-0.0135-0.0134-0.0135-0.0134-0.0135-0.0134-0.0135-0.0134-0.0135-0.0134-0.0135-0.0134-0.0135-0.0134-0.0135-0.0134-0.0135-0.0134-0.0135-0.0135-0.0134-0.0135-0.0134-0.0135-0.0134-0.0135-0.0134-0.0135-0.0134-0.0135-0.0134-0.0135-0.0134-0.0135-0.0134-0.0135-0.0134-0.0135-0.0134-0.0135-0.0134-0.0135-0.0134-0.0135-0.0134-0.0135-0.0134-0.0135-0.0134-0.0135-0.0134-0.0135-0.0134-0.0135-0.0134-0.0135-0.0134-0.0135-0.0134-0.0135-0.0134-0.0135-0.0134-0.0135-0.0134-0.0135-0.0134-0.0135-0.0135-0.0134-0.0135-0.0134-0.0135-0.0134-0.0135-0.0134-0.0135-0.0134-0.0135-0.0134-0.0135-0.0134-0.0135-0.0134-0.0135-0.0134-0.0135-0.0134-0.0135-0.0134-0.0135-0.0134-0.0135-0.0134-0.0135-0.0134-0.0135-0.0134-0.0135-0.0134-0.0135-0.0134-0.0135-0.0134-0.0135-0.0134-0.0135-0.0134-0.0135-0.0134-0.0135-0.0135-0.0134-0.0135-0.0134-0.0135-0.0134-0.0135-0.0134-0.0135-0.0134-0.0135-0.0134-0.0135-0.0134-0.0135-0.0134-0.0135-0.0134-0.0135-0.0134-0.0135-0.0134-0.0135-0.0134-0.0135-0.0134-0.0135-0.0134-0.0135-0.0134-0.0135-0.0134-0.0135-0.0134-0.0135-0.0134-0.0135-0.0134-0.0135-0.0134-0.0135-0.0134-0.0135-0.0134-0.0135-0.0134-0.0135-0.0134-0.0135-0.0135-0.0134-0.0135-0.0134-0.0135-0.0134-0.0135-0.0134-0.0135-0.0134-0.0135-0.0134-0.0135-0.0134-0.0135-0.0134-0.0135-0.0134-0.0135-0.0134-0.0135-0.0134-0.0135-0.0134-0.0135-0.0134-0.0135-0.0134-0.0135-0.0134-0.0135-0.0134-0.0135-0.0134-0.0135-0.0134-0.0135-0.0134-0.0135-0.0134-0.0135-0.0134-0.0135-0.0135-0.0134-0.0135-0.0134-0.0135-0.0134-0.0135-0.0134-0.0135-0.0134-0.0135-0.0134-0.0135-0.0134-0.0135-0.0134-0.0135-0.0134-0.0135-0.0134-0.0135-0.0134-0.0135-0.0134-0.0135-0.0134-0.0135-0.0134-0.0135-0.0134-0.0135-0.0134-0.0135-0.0134-0.0135-0.0134-0.0135-0.0134-0.0135-0.0134-0.0135-0.0134-0.0135-0.0134-0.0135-0.0134-0.0135-0.0134-0.0135-0.0134-0.0135-0.0135-0.0134-0.0135-0.0134-0.0135-0.0134-0.0135-0.0134-0.0135-0.0134-0.0135-0.0134-0.0135-0.0134-0.0135-0.0134-0.0135-0.0134-0.0135-0.0134-0.0135-0.0134-0.0135-0.0134-0.0135-0.0134-0.0135-0.0134-0.0135-0.0134-0.0135-0.0134-0.0135-0.0134-0.0135-0.0134-0.0135-0.0134-0.0135-0.0134-0.0135-0.0134h-1zm0.5 6.3869h-16.07v1h16.07v-1zm-15.57 0.5v-0.0134-0.0135-0.0134-0.0135-0.0135-0.0134-0.0135-0.0134-0.0135-0.0134-0.0135-0.0134-0.0135-0.0134-0.0135-0.0134-0.0135-0.0134-0.0135-0.0134-0.0135-0.0134-0.0135-0.0134-0.0135-0.0134-0.0135-0.0134-0.0135-0.0134-0.0135-0.0134-0.0135-0.0134-0.0135-0.0134-0.0135-0.0134-0.0135-0.0134-0.0135-0.0134-0.0135-0.0134-0.0135-0.0134-0.0135-0.0134-0.0135-0.0134-0.0135-0.0135-0.0134-0.0135-0.0134-0.0135-0.0134-0.0135-0.0134-0.0135-0.0134-0.0135-0.0134-0.0135-0.0134-0.0135-0.0134-0.0135-0.0134-0.0135-0.0134-0.0135-0.0134-0.0135-0.0134-0.0135-0.0134-0.0135-0.0134-0.0135-0.0134-0.0135-0.0134-0.0135-0.0134-0.0135-0.0134-0.0135-0.0134-0.0135-0.0134-0.0135-0.0134-0.0135-0.0134-0.0135-0.0135-0.0134-0.0135-0.0134-0.0135-0.0134-0.0135-0.0134-0.0135-0.0134-0.0135-0.0134-0.0135-0.0134-0.0135-0.0134-0.0135-0.0134-0.0135-0.0134-0.0135-0.0134-0.0135-0.0134-0.0135-0.0134-0.0135-0.0134-0.0135-0.0134-0.0135-0.0134-0.0135-0.0134-0.0135-0.0134-0.0135-0.0134-0.0135-0.0134-0.0135-0.0134-0.0135-0.0134-0.0135-0.0134-0.0135-0.0135-0.0134-0.0135-0.0134-0.0135-0.0134-0.0135-0.0134-0.0135-0.0134-0.0135-0.0134-0.0135-0.0134-0.0135-0.0134-0.0135-0.0134-0.0135-0.0134-0.0135-0.0134-0.0135-0.0134-0.0135-0.0134-0.0135-0.0134-0.0135-0.0134-0.0135-0.0134-0.0135-0.0134-0.0135-0.0134-0.0135-0.0134-0.0135-0.0134-0.0135-0.0134-0.0135-0.0134-0.0135-0.0134-0.0135-0.0135-0.0134-0.0135-0.0134-0.0135-0.0134-0.0135-0.0134-0.0135-0.0134-0.0135-0.0134-0.0135-0.0134-0.0135-0.0134-0.0135-0.0134-0.0135-0.0134-0.0135-0.0134-0.0135-0.0134-0.0135-0.0134-0.0135-0.0134-0.0135-0.0134-0.0135-0.0134-0.0135-0.0134-0.0135-0.0134-0.0135-0.0134-0.0135-0.0134-0.0135-0.0134-0.0135-0.0134-0.0135-0.0135-0.0134-0.0135-0.0134-0.0135-0.0134-0.0135-0.0134-0.0135-0.0134-0.0135-0.0134-0.0135-0.0134-0.0135-0.0134-0.0135-0.0134-0.0135-0.0134-0.0135-0.0134-0.0135-0.0134-0.0135-0.0134-0.0135-0.0134-0.0135-0.0134-0.0135-0.0134-0.0135-0.0134-0.0135-0.0134-0.0135-0.0134-0.0135-0.0134-0.0135-0.0134-0.0135-0.0134-0.0135-0.0134-0.0135-0.0134-0.0135-0.0135-0.0134-0.0135-0.0134-0.0135-0.0134-0.0135-0.0134-0.0135-0.0134-0.0135-0.0134-0.0135-0.0134-0.0135-0.0134-0.0135-0.0134-0.0135-0.0134-0.0135-0.0134-0.0135-0.0134-0.0135-0.0134-0.0135-0.0134-0.0135-0.0134-0.0135-0.0134-0.0135-0.0134-0.0135-0.0134-0.0135-0.0134-0.0135-0.0134-0.0135-0.0134-0.0135-0.0135-0.0134-0.0135-0.0134-0.0135-0.0134-0.0135-0.0134-0.0135-0.0134-0.0135-0.0134-0.0135-0.0134-0.0135-0.0134-0.0135-0.0134-0.0135-0.0134-0.0135-0.0134-0.0135-0.0134-0.0135-0.0134-0.0135-0.0134-0.0135-0.0134-0.0135-0.0134-0.0135-0.0134-0.0135-0.0134-0.0135-0.0134-0.0135-0.0134-0.0135-0.0134-0.0135-0.0134-0.0135-0.0134-0.0135-0.0134-0.0135-0.0135-0.0134-0.0135-0.0134-0.0135-0.0134-0.0135-0.0134-0.0135-0.0134-0.0135-0.0134-0.0135-0.0134-0.0135-0.0134-0.0135-0.0134-0.0135-0.0134-0.0135-0.0134-0.0135-0.0134-0.0135-0.0134-0.0135-0.0134-0.0135-0.0134-0.0135-0.0134-0.0135-0.0134-0.0135-0.0134-0.0135-0.0134-0.0135-0.0134-0.0135-0.0134-0.0135-0.0135-0.0134-0.0135-0.0134-0.0135-0.0134-0.0135-0.0134-0.0135-0.0134-0.0135-0.0134-0.0135-0.0134-0.0135-0.0134-0.0135-0.0134-0.0135-0.0134-0.0135-0.0134-0.0135-0.0134-0.0135-0.0134-0.0135-0.0134-0.0135-0.0134-0.0135-0.0134-0.0135-0.0134-0.0135-0.0134-0.0135-0.0134-0.0135-0.0134-0.0135-0.0134-0.0135-0.0134-0.0135-0.0134-0.0135-0.0134-0.0135-0.0134-0.0135-0.0135-0.0134-0.0135-0.0134-0.0135-0.0134-0.0135-0.0134-0.0135-0.0134-0.0135-0.0134-0.0135-0.0134-0.0135-0.0134-0.0135-0.0134-0.0135-0.0134-0.0135-0.0134-0.0135-0.0134-0.0135-0.0134-0.0135-0.0134-0.0135-0.0134-0.0135-0.0134-0.0135-0.0134-0.0135-0.0134-0.0135-0.0134-0.0135-0.0134-0.0135-0.0134h-1v0.0134 0.0135 0.0134 0.0135 0.0134 0.0135 0.0134 0.0135 0.0134 0.0135 0.0134 0.0135 0.0134 0.0135 0.0134 0.0135 0.0134 0.0135 0.0134 0.0135 0.0134 0.0135 0.0134 0.0135 0.0134 0.0135 0.0134 0.0135 0.0134 0.0135 0.0134 0.0135 0.0134 0.0135 0.0134 0.0135 0.0134 0.0135 0.0134 0.0135 0.0134 0.0135 0.0135 0.0134 0.0135 0.0134 0.0135 0.0134 0.0135 0.0134 0.0135 0.0134 0.0135 0.0134 0.0135 0.0134 0.0135 0.0134 0.0135 0.0134 0.0135 0.0134 0.0135 0.0134 0.0135 0.0134 0.0135 0.0134 0.0135 0.0134 0.0135 0.0134 0.0135 0.0134 0.0135 0.0134 0.0135 0.0134 0.0135 0.0134 0.0135 0.0134 0.0135 0.0134 0.0135 0.0134 0.0135 0.0134 0.0135 0.0134 0.0135 0.0134 0.0135 0.0135 0.0134 0.0135 0.0134 0.0135 0.0134 0.0135 0.0134 0.0135 0.0134 0.0135 0.0134 0.0135 0.0134 0.0135 0.0134 0.0135 0.0134 0.0135 0.0134 0.0135 0.0134 0.0135 0.0134 0.0135 0.0134 0.0135 0.0134 0.0135 0.0134 0.0135 0.0134 0.0135 0.0134 0.0135 0.0134 0.0135 0.0134 0.0135 0.0134 0.0135 0.0134 0.0135 0.0135 0.0134 0.0135 0.0134 0.0135 0.0134 0.0135 0.0134 0.0135 0.0134 0.0135 0.0134 0.0135 0.0134 0.0135 0.0134 0.0135 0.0134 0.0135 0.0134 0.0135 0.0134 0.0135 0.0134 0.0135 0.0134 0.0135 0.0134 0.0135 0.0134 0.0135 0.0134 0.0135 0.0134 0.0135 0.0134 0.0135 0.0134 0.0135 0.0134 0.0135 0.0134 0.0135 0.0134 0.0135 0.0134 0.0135 0.0134 0.0135 0.0135 0.0134 0.0135 0.0134 0.0135 0.0134 0.0135 0.0134 0.0135 0.0134 0.0135 0.0134 0.0135 0.0134 0.0135 0.0134 0.0135 0.0134 0.0135 0.0134 0.0135 0.0134 0.0135 0.0134 0.0135 0.0134 0.0135 0.0134 0.0135 0.0134 0.0135 0.0134 0.0135 0.0134 0.0135 0.0134 0.0135 0.0134 0.0135 0.0134 0.0135 0.0134 0.0135 0.0135 0.0134 0.0135 0.0134 0.0135 0.0134 0.0135 0.0134 0.0135 0.0134 0.0135 0.0134 0.0135 0.0134 0.0135 0.0134 0.0135 0.0134 0.0135 0.0134 0.0135 0.0134 0.0135 0.0134 0.0135 0.0134 0.0135 0.0134 0.0135 0.0134 0.0135 0.0134 0.0135 0.0134 0.0135 0.0134 0.0135 0.0134 0.0135 0.0134 0.0135 0.0134 0.0135 0.0134 0.0135 0.0134 0.0135 0.0134 0.0135 0.0135 0.0134 0.0135 0.0134 0.0135 0.0134 0.0135 0.0134 0.0135 0.0134 0.0135 0.0134 0.0135 0.0134 0.0135 0.0134 0.0135 0.0134 0.0135 0.0134 0.0135 0.0134 0.0135 0.0134 0.0135 0.0134 0.0135 0.0134 0.0135 0.0134 0.0135 0.0134 0.0135 0.0134 0.0135 0.0134 0.0135 0.0134 0.0135 0.0134 0.0135 0.0134 0.0135 0.0134 0.0135 0.0135 0.0134 0.0135 0.0134 0.0135 0.0134 0.0135 0.0134 0.0135 0.0134 0.0135 0.0134 0.0135 0.0134 0.0135 0.0134 0.0135 0.0134 0.0135 0.0134 0.0135 0.0134 0.0135 0.0134 0.0135 0.0134 0.0135 0.0134 0.0135 0.0134 0.0135 0.0134 0.0135 0.0134 0.0135 0.0134 0.0135 0.0134 0.0135 0.0134 0.0135 0.0134 0.0135 0.0134 0.0135 0.0134 0.0135 0.0135 0.0134 0.0135 0.0134 0.0135 0.0134 0.0135 0.0134 0.0135 0.0134 0.0135 0.0134 0.0135 0.0134 0.0135 0.0134 0.0135 0.0134 0.0135 0.0134 0.0135 0.0134 0.0135 0.0134 0.0135 0.0134 0.0135 0.0134 0.0135 0.0134 0.0135 0.0134 0.0135 0.0134 0.0135 0.0134 0.0135 0.0134 0.0135 0.0134 0.0135 0.0134 0.0135 0.0134 0.0135 0.0134 0.0135 0.0135 0.0134 0.0135 0.0134 0.0135 0.0134 0.0135 0.0134 0.0135 0.0134 0.0135 0.0134 0.0135 0.0134 0.0135 0.0134 0.0135 0.0134 0.0135 0.0134 0.0135 0.0134 0.0135 0.0134 0.0135 0.0134 0.0135 0.0134 0.0135 0.0134 0.0135 0.0134 0.0135 0.0134 0.0135 0.0134 0.0135 0.0134 0.0135 0.0134 0.0135 0.0134 0.0135 0.0134 0.0135 0.0135 0.0134 0.0135 0.0134 0.0135 0.0134 0.0135 0.0134 0.0135 0.0134 0.0135 0.0134 0.0135 0.0134 0.0135 0.0134 0.0135 0.0134 0.0135 0.0134 0.0135 0.0134 0.0135 0.0134 0.0135 0.0134 0.0135 0.0134 0.0135 0.0134 0.0135 0.0134 0.0135 0.0134 0.0135 0.0134 0.0135 0.0134 0.0135 0.0134 0.0135 0.0134 0.0135 0.0134 0.0135 0.0134 0.0135 0.0135 0.0134 0.0135 0.0134h1zm-0.5-6.3869h16.07v-1h-16.07v1zm13.519 1.5507h-10.968v1h10.968v-1zm-11.468 0.5v1.7855h1v-1.7855h-1zm0.5 2.2855h10.968v-1h-10.968v1zm11.468-0.5v-1.7855h-1v1.7855h1zm52.81-17.08h-68.104v1h68.104v-1zm-68.104 0c-4.334 0-7.8971 3.262-7.8971 7.642h1c0-3.7823 3.0688-6.642 6.8971-6.642v-1zm-7.8971 7.642v15.559h1v-15.559h-1zm0.5 16.059h82.643v-1h-82.643v1zm83.143-0.5v-15.559h-1v15.559h1zm0-15.559c0-4.3573-3.2847-7.642-7.642-7.642v1c3.805 0 6.642 2.837 6.642 6.642h1z" fill="#fff" mask="url(#a)"/>
<path d="m91.153 11.954c-6.6029-6.6029-17.304-6.6029-23.907 0l1.1384 1.1385c5.9199-5.9199 15.597-6.0338 21.63 0l1.1384-1.1385z" fill="#60FEB2"/>
<path d="m84.664 18.443c-3.0738-3.0738-7.969-3.1876-11.043-0.1138l1.2522 1.2523c2.3908-2.3908 6.2615-2.3908 8.6522 0l1.1384-1.1385z" fill="#60FEB2"/>
<path d="m87.851 15.255c-4.7815-4.7815-12.523-4.7815-17.304 0l1.1384 1.1384c4.0984-4.0984 10.929-4.0984 15.027 0l1.1385-1.1384z" fill="#60FEB2"/>
</svg>
