<svg width="248" height="176" viewBox="0 0 248 176" fill="none" xmlns="http://www.w3.org/2000/svg">
<path fill-rule="evenodd" clip-rule="evenodd" d="M192.296 93.1262C191.042 94.7262 190.701 97.6975 191.84 98.4403C193.492 99.6402 193.72 100.783 193.264 102.669C193.037 103.64 193.264 104.954 193.777 105.811C195.544 108.268 192.923 109.983 192.866 112.04C192.809 112.668 191.669 112.84 190.871 112.725C188.763 112.268 187.966 109.583 185.63 109.583C185.915 107.583 184.262 107.24 183.123 106.383C182.61 106.154 182.04 106.154 181.47 105.926C180.673 105.697 179.875 105.297 179.191 105.754C177.995 106.44 177.311 107.64 177.767 109.183C177.995 110.154 178.28 111.068 176.969 111.525C176.001 110.611 175.83 108.554 173.779 109.183C173.779 109.126 173.778 109.126 173.722 109.011C173.722 109.126 173.722 109.011 173.722 109.126L173.779 109.183C173.722 113.697 174.177 114.097 178.394 113.297C178.622 113.297 178.849 113.125 179.077 113.011C180.73 112.611 182.382 113.983 183.977 113.011C184.205 114.782 186.085 115.182 186.655 116.725C187.282 118.039 188.137 119.411 187.51 120.897C186.085 124.382 184.718 128.039 181.47 130.268C179.932 131.353 178.337 133.01 176.058 132.096L175.887 131.868C175.83 131.868 175.83 131.868 175.83 131.868C175.944 131.925 175.944 131.982 176.058 132.096C175.83 132.667 175.431 133.353 175.602 133.867C176.058 135.582 175.716 136.724 173.835 137.182C172.012 137.639 171.67 139.467 171.841 140.61C171.955 144.096 169.79 145.296 167.226 146.667C161.813 149.238 161.643 148.153 163.067 153.867C163.124 154.267 163.295 154.495 163.295 154.895C163.409 155.695 163.067 156.552 162.383 156.666C160.218 156.952 158.338 157.809 156.116 156.609C153.666 155.295 150.874 154.038 147.968 153.981C147.113 153.752 146.658 154.552 145.86 154.724H145.803C145.062 156.666 143.125 156.038 141.758 156.552C140.96 156.838 141.131 156.152 141.188 155.695C141.416 154.609 140.561 154.952 140.105 154.781C139.65 154.895 139.479 155.238 139.251 155.581C138.567 156.381 139.308 158.038 138.225 158.495C136.402 159.066 135.946 160.781 134.579 161.809C132.926 163.066 131.958 165.58 129.394 163.123C129.337 163.009 128.767 163.009 128.71 163.123C127.571 164.78 125.576 164.209 124.095 165.009C119.594 167.523 114.751 169.523 110.591 172.837C108.825 174.437 106.603 176.209 104.21 175.98C100.962 175.58 97.6008 176.151 94.5241 175.123C93.8404 174.323 93.1567 173.637 92.302 173.066C89.5671 172.837 86.8323 171.923 84.2113 171.752C81.9323 171.637 82.0462 170.894 81.9323 169.466C79.3683 166.78 76.5195 164.609 72.873 163.352C70.537 162.552 67.9161 162.495 65.8649 160.666C65.7509 160.438 65.58 160.381 65.4091 160.209C65.0102 160.152 64.7823 159.923 64.5544 159.866C64.9533 160.152 65.2382 160.552 65.8649 160.666C65.2951 159.695 64.2126 159.638 63.301 159.295C61.4207 158.552 59.7684 157.638 58.344 156.267C57.6603 155.809 56.6917 155.752 56.1789 155.067C54.2987 152.61 52.0196 151.01 49.1708 150.152C47.9743 149.695 46.9487 149.067 45.8092 148.667C43.4731 147.981 41.0801 147.524 38.858 148.838C38.6301 150.152 39.8836 150.61 40.2254 151.638C38.5731 150.895 36.5789 150.781 35.1545 149.524C34.2429 148.781 32.8755 149.181 32.0778 148.21H32.1348C29.7418 148.153 28.0325 146.495 26.2092 145.238C24.1581 144.496 22.2209 143.524 20.4546 142.267C20.1127 141.81 19.372 141.924 18.9732 141.524C13.9023 139.296 8.77439 136.953 3.70348 134.725C3.41859 134.782 3.19069 134.896 2.96278 134.896C2.62092 134.667 2.33604 134.439 2.22209 134.096C2.10813 134.096 2.10813 134.153 2.10813 134.153C2.33604 134.439 2.62092 134.61 2.96278 134.953C2.16511 134.839 1.25348 134.953 0.626742 134.096C0.740695 133.982 0.740695 133.982 0.854648 133.925C0.569766 133.696 0.284883 133.41 0 133.182C0.341859 132.667 0.968601 132.553 1.53837 132.496C1.42441 132.267 1.31046 132.096 1.25348 131.925C1.9372 131.867 2.50697 131.982 2.96278 132.553L2.9058 132.61C2.96278 132.61 2.96278 132.553 3.01976 132.553C3.47557 132.553 4.33022 132.61 4.33022 132.496C5.46975 129.353 7.63486 130.382 9.74299 130.839C10.7116 131.068 11.6232 131.696 12.4779 131.525C15.6116 130.782 18.8023 131.239 21.936 131.068C23.1895 131.01 24.1011 130.839 24.329 129.468H24.386C23.3034 129.696 22.5057 129.182 22.0499 128.268C21.1953 126.725 19.9988 125.468 18.6313 124.496C16.2383 122.839 15.7255 120.439 15.4406 117.925C15.3267 116.725 15.3267 115.468 15.3267 114.325C15.3267 114.268 15.3837 114.268 15.4406 114.268C15.4406 114.154 15.4406 114.154 15.4406 114.154L15.3267 114.268C13.5604 113.983 11.9651 113.64 10.9395 111.925L11.1674 111.697V111.583C11.0535 111.754 11.0535 111.868 10.9395 111.925C8.94532 111.525 8.94532 109.811 8.71741 108.326C6.83719 104.611 7.57788 101.183 9.51509 97.8689C9.62904 97.1832 10.1988 97.4118 10.5976 97.2403C10.5976 97.1832 10.5976 97.1832 10.5976 97.1832C10.9965 96.7832 11.4523 96.6689 12.0221 96.4975L12.25 96.6118L12.4779 96.4975C12.8197 95.9832 13.5034 96.1547 14.0162 95.6975L13.9593 95.7547C14.1302 95.469 14.4151 95.2404 14.8139 95.1833C14.7569 95.1833 14.7569 95.1833 14.7 95.1833L14.8139 95.069C14.8139 95.069 14.8139 95.069 14.8139 95.1833C15.2697 94.0405 16.2383 94.1547 17.036 94.3833C18.0046 94.7833 18.8023 94.8976 19.7709 95.0119C20.0557 94.5547 20.4546 94.1547 20.8534 94.3833C22.9046 95.469 24.8418 94.1547 26.836 94.2119C28.0325 94.269 28.6022 93.5833 28.4883 92.3834C28.2604 90.6692 29.229 89.5264 30.1406 88.155C30.1406 88.155 30.1406 88.155 30.1406 88.2693C29.2859 87.0122 29.3429 85.9836 30.1406 84.7837V84.8408C30.0266 83.4123 29.8557 82.041 30.0266 80.5553C30.1406 79.2411 29.4569 77.7554 30.8813 76.6697C30.1976 73.927 30.7104 71.2414 30.7673 68.5558C30.7673 67.9272 30.9952 67.413 31.622 67.1844C31.7929 65.1274 30.6534 62.956 32.3057 61.1275C32.7615 60.499 32.3627 59.6419 32.9894 58.8419L33.1604 58.7848L33.0464 58.5562C33.1034 56.2706 33.1604 53.8707 35.8952 53.2993C37.4336 52.8421 37.9464 52.2136 38.3452 50.7851C38.7441 49.2994 39.9406 48.328 41.7638 49.0709C43.815 49.7565 46.094 49.2994 48.2022 50.0423C49.5696 50.4422 50.994 50.2137 52.4754 49.5851C55.0394 48.4423 55.0963 48.5566 56.5207 50.9565C57.0335 51.6993 57.6033 52.5564 58.5149 52.0993C59.4265 51.6993 60.3382 51.1279 61.2498 50.7851C61.9335 50.5565 61.0219 49.4708 61.2498 48.728C61.4207 48.2709 61.5347 47.8138 62.1044 47.6423C63.4149 48.6709 64.7254 49.7565 66.0358 50.7851C66.0358 50.8994 65.9219 50.8994 65.8079 51.0136C65.8079 51.0136 65.8649 51.0136 65.9219 51.0136L66.0358 50.7851C67.5742 50.8422 67.6881 49.3566 68.3149 48.4995C67.8021 48.2138 67.8021 47.5852 67.5742 47.0138V47.0709C66.3777 46.3281 66.3207 45.0139 66.0928 43.8711C65.8649 42.614 65.58 41.1283 66.9475 40.2141C68.087 39.357 69.2835 39.9284 70.3661 40.4426C70.6509 40.6141 71.0498 40.8426 71.3916 40.9569C73.6137 41.5283 75.4939 39.5855 75.0381 37.2428C74.6393 35.1286 74.0126 33.0144 73.1009 31.0145C72.3033 29.3574 72.7591 28.8431 74.5823 28.6717C77.2032 28.386 79.6532 28.9574 82.1602 29.3574C82.1602 29.5288 82.2172 29.586 82.2742 29.7574C83.5846 29.3574 84.8381 29.0145 86.1486 29.5288C87.459 30.1574 88.8834 30.2716 90.1939 30.843C90.4218 30.843 90.6497 30.9573 90.8776 30.9573C93.8404 30.2145 96.9171 30.3288 99.8229 29.3574L99.766 29.4717C101.532 27.986 103.754 28.5003 105.748 27.986L105.692 28.0432C106.888 27.4146 108.085 28.5574 109.338 27.986L109.452 28.0432L109.623 27.986C112.187 27.2432 113.326 30.7859 115.947 30.1573C116.061 29.8716 116.289 29.586 116.574 29.4717C118.112 28.1003 119.594 26.7861 121.246 25.6432C122.784 23.7576 125.121 24.1576 127.058 23.6433C129.223 21.8148 132.186 23.7005 134.18 21.9863C134.864 21.5291 135.775 21.3006 136.174 21.872C137.655 23.6433 139.365 23.1291 141.245 22.672L141.359 22.9005L141.473 22.7291C141.929 22.2148 142.441 22.272 142.954 22.672C143.182 22.672 143.467 22.672 143.695 22.672C144.151 22.2148 144.72 22.3862 145.176 21.9863V22.0434C146.943 19.9863 149.222 22.5005 151.102 21.3006L151.045 21.4149C153.324 18.3864 155.204 21.0149 156.97 21.9863C158.794 22.9005 159.192 24.5576 158.053 26.3289C157.483 27.3003 157.483 28.4431 156.686 29.2431L156.743 29.1288C156.572 29.586 156.572 30.2716 155.945 30.6145C155.717 31.0716 155.831 31.5859 155.717 32.043C155.261 34.5572 155.774 35.5286 158.794 35.7571C161.927 35.9857 164.947 35.5857 168.024 35.3L167.91 35.3571C168.537 34.5 169.448 34.8429 170.246 34.8429C171.044 34.8429 172.069 34.5 172.468 35.5286C172.867 36.5 172.126 37.1285 171.499 37.6999C170.36 38.8999 169.277 40.157 167.739 41.0141C166.827 42.4997 165.745 43.8711 164.092 44.5568H164.036H164.092C164.605 45.3567 165.517 45.2996 166.201 45.5282C167.91 46.1567 170.018 45.5853 171.442 47.1852L171.329 47.0709C173.38 46.671 175.203 47.4709 176.912 48.2709C178.052 48.728 179.077 49.2423 180.331 49.1852C180.901 48.8423 181.47 48.4423 181.983 48.4423C182.382 48.3852 182.496 47.8138 182.952 47.9852C184.433 48.9566 185.915 49.8137 187.054 51.4136C188.535 53.4707 187.909 56.2134 190.074 57.8705C191.555 58.9562 191.726 60.499 190.644 62.0418C190.245 62.4989 189.96 63.1846 189.96 63.6988C189.96 65.5273 189.162 65.9845 187.51 66.0987C185.459 66.213 184.49 67.2416 185.003 69.1272C185.573 71.1271 184.604 71.8699 183.294 72.6699L183.066 72.8985L183.18 73.0699C182.952 73.6984 183.066 74.3841 182.382 74.8412C182.439 74.7841 182.439 74.7841 182.439 74.7841C182.667 75.8698 181.755 76.4983 181.527 77.4126C182.154 78.2125 183.635 77.5268 183.863 78.7839L183.806 78.7268C186.142 78.4411 188.308 78.6125 189.903 80.7839C189.903 80.841 189.732 80.8981 189.732 80.9553L189.903 80.7839C191.555 81.1267 192.524 82.041 192.866 83.698C195.601 86.2122 195.658 87.4122 193.321 89.4692C193.663 91.1834 193.094 92.0977 192.296 93.1262ZM89.3962 171.523C89.5102 171.294 89.5102 171.009 89.6241 170.723C89.5102 171.009 89.3392 171.294 89.0544 171.466C89.1683 171.523 89.2823 171.523 89.3962 171.523ZM33.2743 64.4988C33.3313 64.4417 33.3883 64.2702 33.3883 64.2702C33.3883 64.3274 33.2743 64.2702 33.2743 64.2702C33.1604 64.2702 33.3883 64.4417 33.2743 64.4988ZM11.7941 106.669C11.7941 106.726 11.8511 106.669 11.8511 106.726C11.8511 106.669 11.8511 106.497 11.8511 106.44C11.8511 106.554 11.7372 106.611 11.7941 106.669ZM39.5417 65.0702C39.5417 65.0702 39.5987 65.0702 39.5987 65.1274C39.5987 65.0702 39.5417 65.0702 39.5417 65.0702ZM18.4604 118.611C18.6883 119.068 19.0871 119.525 19.3151 120.039C19.429 119.468 19.1441 119.068 19.2011 118.439C19.0871 118.268 19.0871 118.154 19.0871 117.982C18.9732 117.982 18.9732 118.097 18.8592 118.097C18.5174 118.097 18.2325 117.754 18.0616 117.525C18.1185 117.925 18.2325 118.268 18.4604 118.611ZM27.8046 126.725C27.8046 126.668 27.8615 126.668 27.8615 126.668C27.8046 126.668 27.8046 126.668 27.8046 126.725ZM23.1895 113.183C23.1895 113.297 23.3034 113.297 23.3034 113.297L23.3604 113.24L23.1895 113.183ZM24.6708 109.354C24.8418 109.24 25.1267 109.068 25.4115 109.068C25.3546 109.011 25.2976 109.068 25.2406 109.011C25.0697 108.783 24.8988 109.354 24.6708 109.354ZM25.6964 105.126C25.7534 105.011 25.9243 104.897 25.8674 104.897C25.8104 104.954 25.6394 104.954 25.4685 104.954C25.5825 104.954 25.5825 105.126 25.6964 105.126ZM39.5417 93.5833C39.5987 93.5833 39.5987 93.5262 39.7127 93.5262C39.5417 93.5262 39.5417 93.5833 39.5417 93.5833ZM27.1208 125.925C27.0069 125.925 26.9499 125.925 26.8929 125.925C26.9499 125.982 27.0069 125.925 27.1208 125.982V125.925ZM43.3022 57.7562C43.3022 57.7562 43.1882 57.6991 43.2452 57.5848C43.1882 57.6991 43.1882 57.6991 43.1882 57.6991C43.1882 57.6991 43.1882 57.7562 43.3022 57.7562ZM55.4382 151.238C55.3812 151.067 55.2673 151.124 55.1533 151.01C55.2673 151.352 55.894 151.352 55.894 151.924C55.7231 151.581 55.4952 151.467 55.4382 151.238ZM25.3546 136.553C25.3546 136.724 25.1267 136.724 25.1267 136.839C25.2406 136.782 25.3546 136.724 25.5255 136.724C25.4685 136.667 25.4115 136.61 25.3546 136.553ZM25.6964 126.039H25.6395V126.096L25.6964 126.039ZM32.8755 75.0698C32.9324 75.0127 33.0464 75.0127 33.0464 75.0127C32.8755 75.0127 32.8185 75.0698 32.8185 74.9555C32.8185 74.7841 33.0464 74.8412 33.1604 74.7841V74.727C32.8755 74.7841 32.7045 74.9555 32.4766 75.0127C32.6476 75.0127 32.7615 75.0698 32.8755 75.0698ZM57.3754 154.609C57.0335 154.038 56.6917 153.581 56.4068 152.781C56.5207 153.352 56.6347 153.809 56.9196 154.267C57.0905 154.438 57.2614 154.495 57.3754 154.609ZM7.97672 132.096C8.20462 131.81 8.48951 131.81 8.88834 131.81C8.43253 131.696 8.09067 131.867 7.57788 131.81C7.74881 131.982 7.86276 131.982 7.97672 132.096ZM10.3128 110.268C10.1418 109.468 9.9709 108.611 8.94532 108.154C10.1988 108.383 10.0849 109.468 10.3128 110.268ZM31.9638 80.0982C31.9069 80.9553 32.2487 81.7552 32.5906 82.3838C32.1348 81.0124 32.3627 79.5839 32.7045 78.1554C32.4197 78.7839 32.0208 79.4125 31.9638 80.0982ZM35.6673 54.7278C36.1231 54.4421 36.351 53.9278 37.1487 53.9278C37.6045 53.9278 38.1173 53.585 38.2313 53.1278C38.4022 52.2707 38.915 52.3279 39.2568 51.8136C38.6871 53.6421 37.4906 54.3849 35.6673 54.7278ZM79.8242 30.2716C79.8811 30.2716 79.9381 30.2716 79.9951 30.2716C79.9381 30.2145 79.8242 30.2716 79.8242 30.2716ZM160.218 145.981C160.218 145.81 159.933 145.581 159.876 145.524C159.762 145.524 159.762 145.581 159.762 145.524C159.99 145.638 160.161 145.81 160.218 146.095C160.218 146.038 160.218 146.038 160.218 145.981ZM158.908 152.781C158.566 153.581 157.939 154.038 156.97 154.038C158.167 154.209 158.794 153.867 158.908 152.781ZM167.625 132.039C167.283 131.639 167.226 131.925 166.941 132.039C167.112 132.153 167.397 132.21 167.511 132.496C167.511 132.267 167.739 132.21 167.625 132.039ZM179.704 123.125C179.704 123.296 179.704 123.525 179.818 123.754C179.875 123.868 179.989 123.696 180.103 123.696C179.932 123.468 179.647 123.411 179.704 123.125ZM179.59 122.211C179.476 122.154 179.59 122.154 179.59 122.096C179.476 122.211 179.476 122.268 179.476 122.325C179.476 122.268 179.476 122.268 179.59 122.211ZM192.353 107.983L192.296 108.04C192.239 108.497 192.467 108.897 192.353 109.354C192.467 108.897 192.353 108.497 192.353 107.983ZM173.095 113.297C173.323 113.525 173.38 114.04 173.722 114.04C173.949 114.04 174.12 113.983 174.348 114.04C173.835 113.811 173.323 113.583 173.095 113.297ZM163.865 145.41C161.586 145.867 161.187 146.61 161.073 148.61C161.415 146.953 162.212 145.81 163.865 145.41ZM187.624 65.7559C187.795 65.4702 187.567 65.2988 187.567 65.0702C187.339 65.3559 187.624 65.9845 186.997 66.0987C187.282 66.0987 187.282 65.6988 187.624 65.7559Z" fill="#151F41"/>
<path d="M77.6568 106.771H145.251V69.2755H147.802V107.026C152.393 108.047 155.709 112.128 155.709 116.719V135.084H67.709V116.719C67.709 111.362 72.0452 106.771 77.6568 106.771ZM119.744 121.82C119.744 124.116 119.744 126.412 119.744 128.707H103.674C103.674 126.412 103.674 124.116 103.674 121.82H119.744ZM117.193 124.371H106.225V126.157H117.193V124.371ZM144.486 121.82C144.486 124.116 144.486 126.412 144.486 128.707H128.416C128.416 126.412 128.416 124.116 128.416 121.82H144.486ZM141.935 124.371H130.967V126.157H141.935V124.371ZM95.0017 121.82C95.0017 124.116 95.0017 126.412 95.0017 128.707H78.9322C78.9322 126.412 78.9322 124.116 78.9322 121.82H95.0017ZM92.451 124.371H81.4829V126.157H92.451V124.371ZM145.761 109.577H77.6568C73.5757 109.577 70.2597 112.638 70.2597 116.719V132.278H152.903V116.719C152.903 112.638 149.842 109.577 145.761 109.577Z" fill="white"/>
<path d="M158.861 58.9537C152.258 52.3508 141.557 52.3508 134.954 58.9537L136.092 60.0922C142.012 54.1723 151.689 54.0584 157.722 60.0922L158.861 58.9537Z" fill="#60FEB2"/>
<path d="M152.372 65.4428C149.298 62.3691 144.403 62.2552 141.329 65.329L142.581 66.5813C144.972 64.1906 148.843 64.1906 151.233 66.5813L152.372 65.4428Z" fill="#60FEB2"/>
<path d="M155.559 62.2552C150.778 57.4738 143.037 57.4738 138.255 62.2552L139.394 63.3936C143.492 59.2953 150.323 59.2953 154.421 63.3936L155.559 62.2552Z" fill="#60FEB2"/>
<path fill-rule="evenodd" clip-rule="evenodd" d="M242.062 109.284C241.993 107.972 240.895 107.006 239.797 106.522C238.63 105.97 237.394 106.177 236.571 107.144C235.678 108.318 236.159 109.422 236.914 110.389C237.6 111.355 238.355 112.322 239.042 113.15C239.797 114.048 240.003 115.981 241.307 115.429C243.229 114.738 241.65 113.15 241.169 112.184C240.62 110.941 241.993 110.458 242.062 109.284Z" fill="#151F41"/>
<path fill-rule="evenodd" clip-rule="evenodd" d="M222.429 98.859C223.871 97.9615 223.184 96.5807 224.214 95.8902C224.969 95.2689 224.969 94.6475 223.939 94.1642C223.253 93.819 222.566 94.2332 222.361 95.0617C222.155 95.8902 222.292 96.9259 221.331 97.202C217.968 98.0996 219.409 99.6875 220.645 101.275C221.331 102.38 221.743 103.623 223.184 104.037C223.527 103.899 223.939 103.761 223.939 103.554C223.939 103.14 223.871 102.725 223.665 102.38C222.91 101.206 220.919 99.8946 222.429 98.859Z" fill="#151F41"/>
<path fill-rule="evenodd" clip-rule="evenodd" d="M185.913 21.6002C185.776 23.0501 185.295 24.5 186.462 26.157C189.276 23.2572 189.276 23.2572 185.913 21.6002Z" fill="#151F41"/>
<path fill-rule="evenodd" clip-rule="evenodd" d="M221.61 89.8166C221.061 89.0571 220.306 88.1596 219.345 86.7097C218.453 88.7119 217.355 89.9547 219.414 90.7832C219.826 90.9903 221.199 91.1974 221.61 89.8166Z" fill="#151F41"/>
<path fill-rule="evenodd" clip-rule="evenodd" d="M173.357 6.68884C174.112 8.06967 174.936 9.24338 176.995 10.0719C175.691 6.96501 175.691 6.96501 173.357 6.68884Z" fill="#151F41"/>
<path fill-rule="evenodd" clip-rule="evenodd" d="M230.735 94.716C230.323 94.3707 230.049 94.0946 229.774 93.7494V93.8184C229.706 91.2639 227.029 90.9187 226.48 88.7094C224.97 89.6759 225.176 90.7116 225.862 91.471C226.686 92.4376 227.441 93.4732 227.99 94.716C227.99 94.9921 227.99 95.2683 227.99 95.5445C228.745 96.0277 229.294 96.5801 229.774 97.3395C230.323 98.3061 231.01 98.3061 231.559 97.3395C232.245 97.5467 233 98.3061 233.412 97.7538C234.373 96.5801 232.726 95.6135 232.794 94.3707C232.794 93.6803 231.49 94.5779 230.735 94.716Z" fill="#151F41"/>
<path fill-rule="evenodd" clip-rule="evenodd" d="M224.695 100.725C225.038 100.794 225.724 100.449 225.793 100.173C226.136 98.792 225.107 98.3777 223.597 98.1016C223.734 99.2062 223.459 100.449 224.695 100.725Z" fill="#151F41"/>
<path fill-rule="evenodd" clip-rule="evenodd" d="M160.592 2.20157C160.523 1.64924 160.18 1.16595 159.631 0.958828C159.151 0.889787 158.67 0.889787 158.67 1.37308C158.396 2.27062 159.082 2.61582 159.563 2.82295C160.386 3.03007 160.592 2.68486 160.592 2.20157Z" fill="#151F41"/>
<path fill-rule="evenodd" clip-rule="evenodd" d="M167.519 16.633C167.588 16.1498 167.244 15.8736 166.764 15.9426C166.489 15.9426 165.872 16.0117 165.803 16.3569C165.529 16.9782 166.078 17.3235 166.695 17.3925C167.107 17.3235 167.45 17.1163 167.519 16.633Z" fill="#151F41"/>
<path fill-rule="evenodd" clip-rule="evenodd" d="M245.976 119.85C245.496 119.85 245.084 120.057 245.084 120.471C245.084 121.092 245.427 121.645 246.045 121.714C246.457 121.783 246.8 121.507 247.006 121.023C247.006 120.333 246.525 120.057 245.976 119.85Z" fill="#151F41"/>
<path fill-rule="evenodd" clip-rule="evenodd" d="M213.511 94.4412C213.648 94.9935 214.266 95.4077 214.815 95.3387C215.364 95.2697 215.57 94.8554 215.364 94.3031C215.227 93.8888 214.815 93.3365 214.266 93.5436C213.785 93.5436 213.511 94.0269 213.511 94.4412Z" fill="#151F41"/>
<path fill-rule="evenodd" clip-rule="evenodd" d="M237.391 101.621C237.116 101.483 236.842 101.207 236.636 101.276C236.499 101.414 236.361 101.759 236.361 102.035C236.499 102.104 236.91 102.449 237.116 102.38C237.322 102.242 237.322 101.759 237.391 101.621Z" fill="#151F41"/>
<path fill-rule="evenodd" clip-rule="evenodd" d="M197.442 42.7292C197.168 42.315 196.756 42.315 196.344 42.4531C195.932 42.5221 195.795 42.8673 196.07 43.1435C196.344 43.4887 196.687 43.8339 197.168 43.4887C197.305 43.3506 197.374 43.0054 197.442 42.7292Z" fill="#151F41"/>
<path fill-rule="evenodd" clip-rule="evenodd" d="M178.777 12.6256C178.708 12.0732 178.159 12.0042 177.816 11.7971C177.404 11.659 177.13 11.7971 177.13 12.1423C177.061 12.6256 177.473 12.8327 178.022 12.8327C178.296 12.9017 178.571 12.7636 178.777 12.6256Z" fill="#151F41"/>
<path fill-rule="evenodd" clip-rule="evenodd" d="M163.261 7.44831C162.986 7.31022 162.711 7.24118 162.506 7.03406C162.437 7.31022 162.162 7.65543 162.3 7.79351C162.3 8.00064 162.711 8.06968 162.986 8.13872C162.986 8.00064 163.123 7.65543 163.261 7.44831Z" fill="#151F41"/>
<path fill-rule="evenodd" clip-rule="evenodd" d="M211.65 60.4703C211.513 60.1941 211.513 59.918 211.239 59.8489C211.033 59.5037 210.827 59.7109 210.689 59.918C210.827 60.1251 210.827 60.4703 211.033 60.6084C211.101 60.6774 211.307 60.5394 211.65 60.4703Z" fill="#151F41"/>
<path fill-rule="evenodd" clip-rule="evenodd" d="M238.697 122.746C238.697 122.953 238.972 123.16 239.109 123.367C239.178 123.16 239.384 122.953 239.384 122.746C239.384 122.47 239.178 122.263 239.109 122.056C238.972 122.263 238.697 122.401 238.697 122.746Z" fill="#151F41"/>
<path fill-rule="evenodd" clip-rule="evenodd" d="M216.459 82.9099C216.528 82.9099 216.665 82.8408 216.803 82.8408C216.803 82.4956 216.665 82.4266 216.391 82.6337C216.253 82.6337 216.391 82.8408 216.459 82.9099Z" fill="#151F41"/>
<path fill-rule="evenodd" clip-rule="evenodd" d="M213.918 63.58C212.888 62.4063 211.653 62.4753 210.486 63.2348C209.593 63.9252 209.525 64.6846 210.417 65.4441C211.653 66.7559 212.819 66.5488 213.986 65.4441C214.81 64.8227 214.81 64.2013 213.918 63.58Z" fill="#151F41"/>
<path fill-rule="evenodd" clip-rule="evenodd" d="M228.611 118.192C228.749 118.261 228.749 118.468 228.886 118.468C229.023 118.399 229.229 118.261 229.298 118.192C229.229 118.123 229.023 117.985 228.955 117.985C228.817 118.054 228.749 118.123 228.611 118.192Z" fill="#151F41"/>
<path fill-rule="evenodd" clip-rule="evenodd" d="M232.798 112.667C233.141 112.736 233.21 112.529 233.004 112.252C233.004 112.183 232.798 112.252 232.729 112.322C232.798 112.46 232.798 112.529 232.798 112.667Z" fill="#151F41"/>
<path fill-rule="evenodd" clip-rule="evenodd" d="M225.179 112.186C225.247 112.255 225.385 112.324 225.453 112.324C225.659 112.324 225.659 112.186 225.659 111.979C225.453 111.979 225.385 111.91 225.247 111.91C225.179 111.841 225.179 112.117 225.179 112.186Z" fill="#151F41"/>
<path d="M87.9984 71L71 74.1099V98.3726C71 100.24 71.8409 102.257 73.5039 104.37C74.9781 106.238 77.0654 108.152 79.7068 110.058C83.0046 112.43 86.3664 114.196 87.9984 115C89.6331 114.196 92.9949 112.43 96.2918 110.058C98.9351 108.153 101.019 106.239 102.492 104.37C104.156 102.254 105 100.24 105 98.3726V74.1099L87.9984 71Z" fill="white"/>
<path d="M96 86L85.1321 97L80 92" stroke="#60FEB2" stroke-width="6" stroke-miterlimit="10" stroke-linecap="round"/>
</svg>
