<svg width="269" height="189" viewBox="0 0 269 189" fill="none" xmlns="http://www.w3.org/2000/svg">
<path fill-rule="evenodd" clip-rule="evenodd" d="M232.587 100.134C231.077 98.2012 230.665 94.611 232.038 93.7135C234.028 92.2636 234.303 90.8828 233.754 88.6044C233.479 87.4307 233.754 85.8428 234.371 84.8072C236.499 81.8384 233.342 79.7671 233.273 77.2816C233.204 76.5222 231.832 76.315 230.871 76.4531C228.331 77.0055 227.37 80.2504 224.556 80.2504C224.899 82.6669 222.909 83.0811 221.536 84.1167C220.918 84.3929 220.232 84.3929 219.546 84.6691C218.585 84.9452 217.624 85.4285 216.8 84.8762C215.359 84.0477 214.535 82.5978 215.084 80.7337C215.359 79.56 215.702 78.4553 214.123 77.903C212.956 79.0077 212.75 81.4932 210.28 80.7337C210.28 80.8027 210.28 80.8027 210.211 80.9408C210.211 80.8027 210.211 80.9408 210.211 80.8027L210.28 80.7337C210.211 75.2794 210.76 74.7961 215.839 75.7627C216.114 75.7627 216.388 75.9698 216.663 76.1079C218.653 76.5912 220.644 74.9342 222.566 76.1079C222.84 73.9676 225.105 73.4843 225.792 71.6202C226.547 70.0323 227.576 68.3753 226.821 66.5802C225.105 62.3687 223.458 57.95 219.546 55.2574C217.692 53.9456 215.771 51.9434 213.025 53.0481L212.819 53.3242C212.75 53.3242 212.75 53.3242 212.75 53.3242C212.888 53.2552 212.888 53.1861 213.025 53.0481C212.75 52.3576 212.27 51.5291 212.476 50.9078C213.025 48.8365 212.613 47.4557 210.348 46.9034C208.152 46.351 207.74 44.1417 207.946 42.7609C208.083 38.5493 205.475 37.0995 202.386 35.4425C195.866 32.3356 195.66 33.6474 197.376 26.7432C197.444 26.26 197.65 25.9838 197.65 25.5005C197.788 24.5339 197.376 23.4983 196.552 23.3602C193.944 23.015 191.679 21.9794 189.002 23.4293C186.05 25.0172 182.687 26.5361 179.187 26.6052C178.157 26.8813 177.608 25.9147 176.647 25.7076H176.579C175.686 23.3602 173.353 24.1197 171.705 23.4983C170.744 23.1531 170.95 23.9816 171.019 24.5339C171.293 25.8457 170.264 25.4315 169.715 25.6386C169.166 25.5005 168.96 25.0863 168.685 24.672C167.862 23.7054 168.754 21.7032 167.45 21.1509C165.253 20.4605 164.704 18.3892 163.057 17.1465C161.066 15.6276 159.9 12.5897 156.811 15.5585C156.742 15.6966 156.056 15.6966 155.987 15.5585C154.615 13.5563 152.212 14.2467 150.428 13.2802C145.005 10.2423 139.171 7.82588 134.161 3.82147C132.033 1.88831 129.356 -0.251981 126.473 0.0241852C122.561 0.507476 118.511 -0.182939 114.805 1.05981C113.981 2.02639 113.157 2.85489 112.128 3.5453C108.833 3.82147 105.539 4.92613 102.381 5.13326C99.6358 5.27134 99.7731 6.16888 99.6358 7.89492C96.5471 11.1399 93.1153 13.7634 88.7225 15.2824C85.9083 16.2489 82.751 16.318 80.28 18.5273C80.1428 18.8035 79.9369 18.8725 79.7309 19.0796C79.2505 19.1487 78.9759 19.4248 78.7014 19.4939C79.1818 19.1487 79.525 18.6654 80.28 18.5273C79.5937 19.701 78.2896 19.7701 77.1914 20.1843C74.9263 21.0818 72.9358 22.1865 71.2199 23.8435C70.3962 24.3958 69.2294 24.4649 68.6117 25.2934C66.3466 28.2622 63.6011 30.1953 60.1692 31.2309C58.7279 31.7833 57.4924 32.5427 56.1196 33.026C53.3055 33.8545 50.4227 34.4069 47.7459 32.8189C47.4713 31.2309 48.9813 30.6786 49.3932 29.4359C47.4027 30.3334 45.0004 30.4715 43.2844 31.9904C42.1862 32.8879 40.5389 32.4046 39.578 33.5784H39.6466C36.7638 33.6474 34.7047 35.6496 32.5083 37.1685C30.0374 38.0661 27.7037 39.2398 25.5759 40.7587C25.1641 41.311 24.2718 41.1729 23.7914 41.6562C17.6826 44.3488 11.5052 47.1795 5.3965 49.8721C5.05331 49.8031 4.77876 49.665 4.50421 49.665C4.09238 49.9412 3.7492 50.2174 3.61192 50.6316C3.47465 50.6316 3.47465 50.5626 3.47465 50.5626C3.7492 50.2174 4.09238 50.0102 4.50421 49.596C3.54328 49.7341 2.44508 49.596 1.69007 50.6316C1.82735 50.7697 1.82735 50.7697 1.96462 50.8387C1.62143 51.1149 1.27825 51.4601 0.935059 51.7363C1.34688 52.3576 2.1019 52.4957 2.78827 52.5648C2.651 52.8409 2.51372 53.0481 2.44508 53.2552C3.26873 53.3242 3.95511 53.1861 4.50421 52.4957L4.43557 52.4267C4.50421 52.4267 4.50421 52.4957 4.57285 52.4957C5.12195 52.4957 6.15151 52.4267 6.15151 52.5648C7.52426 56.362 10.1325 55.1193 12.6721 54.567C13.8389 54.2908 14.9371 53.5313 15.9667 53.7385C19.7417 54.636 23.5854 54.0837 27.3605 54.2908C28.8705 54.3598 29.9687 54.567 30.2433 56.224H30.3119C29.0078 55.9478 28.0469 56.5692 27.4978 57.6738C26.4682 59.538 25.0268 61.0569 23.3795 62.2306C20.4968 64.2328 19.879 67.1325 19.5358 70.1703C19.3986 71.6202 19.3986 73.1391 19.3986 74.52C19.3986 74.589 19.4672 74.589 19.5358 74.589C19.5358 74.7271 19.5358 74.7271 19.5358 74.7271L19.3986 74.589C17.2708 74.9342 15.3489 75.3485 14.1135 77.4197L14.388 77.6959V77.834C14.2507 77.6268 14.2507 77.4887 14.1135 77.4197C11.7112 77.903 11.7112 79.9742 11.4366 81.7693C9.17156 86.257 10.0639 90.3995 12.3975 94.4039C12.5348 95.2324 13.2212 94.9563 13.7016 95.1634C13.7016 95.2324 13.7016 95.2324 13.7016 95.2324C14.1821 95.7157 14.7312 95.8538 15.4176 96.0609L15.6921 95.9228L15.9667 96.0609C16.3785 96.6823 17.2022 96.4752 17.8199 97.0275L17.7513 96.9585C17.9572 97.3037 18.3004 97.5798 18.7808 97.6489C18.7122 97.6489 18.7122 97.6489 18.6435 97.6489L18.7808 97.787C18.7808 97.787 18.7808 97.7869 18.7808 97.6489C19.3299 99.0297 20.4968 98.8916 21.4577 98.6155C22.6245 98.1322 23.5854 97.9941 24.7523 97.856C25.0955 98.4083 25.5759 98.8916 26.0564 98.6155C28.5273 97.3037 30.861 98.8916 33.2633 98.8226C34.7047 98.7535 35.3911 99.582 35.2538 101.032C34.9793 103.103 36.1461 104.484 37.2443 106.141C37.2443 106.141 37.2443 106.141 37.2443 106.003C36.2147 107.522 36.2834 108.765 37.2443 110.214V110.145C37.107 111.871 36.9011 113.528 37.107 115.323C37.2443 116.911 36.4207 118.707 38.1366 120.018C37.313 123.332 37.9307 126.577 37.9993 129.822C37.9993 130.582 38.2739 131.203 39.0289 131.479C39.2348 133.965 37.862 136.588 39.8525 138.798C40.4016 139.557 39.9212 140.593 40.6762 141.559L40.8821 141.628L40.7448 141.904C40.8135 144.666 40.8821 147.566 44.1767 148.256C46.0299 148.809 46.6477 149.568 47.1281 151.294C47.6086 153.089 49.05 154.263 51.2464 153.365C53.7173 152.537 56.4628 153.089 59.0024 152.192C60.6497 151.708 62.3657 151.985 64.1502 152.744C67.2389 154.125 67.3075 153.987 69.0235 151.087C69.6412 150.189 70.3276 149.154 71.4258 149.706C72.524 150.189 73.6222 150.88 74.7204 151.294C75.5441 151.57 74.4459 152.882 74.7204 153.78C74.9263 154.332 75.0636 154.884 75.75 155.091C77.3286 153.849 78.9073 152.537 80.486 151.294C80.486 151.156 80.3487 151.156 80.2114 151.018C80.2114 151.018 80.28 151.018 80.3487 151.018L80.486 151.294C82.3392 151.225 82.4764 153.02 83.2315 154.056C82.6137 154.401 82.6137 155.16 82.3392 155.851V155.782C80.8978 156.679 80.8291 158.267 80.5546 159.648C80.28 161.167 79.9369 162.962 81.5842 164.067C82.9569 165.102 84.3983 164.412 85.7024 163.791C86.0456 163.584 86.5261 163.307 86.9379 163.169C89.6147 162.479 91.8798 164.826 91.3307 167.657C90.8502 170.211 90.0952 172.766 88.997 175.182C88.0361 177.185 88.5852 177.806 90.7816 178.013C93.9389 178.358 96.8903 177.668 99.9104 177.185C99.9104 176.978 99.979 176.909 100.048 176.701C101.626 177.185 103.136 177.599 104.715 176.978C106.294 176.218 108.01 176.08 109.588 175.39C109.863 175.39 110.137 175.252 110.412 175.252C113.981 176.149 117.688 176.011 121.188 177.185L121.119 177.047C123.247 178.842 125.924 178.22 128.326 178.842L128.258 178.773C129.699 179.532 131.14 178.151 132.65 178.842L132.788 178.773L132.994 178.842C136.082 179.739 137.455 175.459 140.612 176.218C140.75 176.563 141.024 176.909 141.367 177.047C143.221 178.704 145.005 180.292 146.996 181.672C148.849 183.951 151.663 183.467 153.997 184.089C156.605 186.298 160.174 184.02 162.576 186.091C163.4 186.643 164.498 186.92 164.979 186.229C166.763 184.089 168.822 184.71 171.088 185.263L171.225 184.986L171.362 185.194C171.911 185.815 172.529 185.746 173.147 185.263C173.421 185.263 173.764 185.263 174.039 185.263C174.588 185.815 175.274 185.608 175.823 186.091V186.022C177.951 188.507 180.697 185.47 182.962 186.92L182.893 186.781C185.639 190.441 187.904 187.265 190.031 186.091C192.228 184.986 192.708 182.984 191.336 180.844C190.649 179.67 190.649 178.289 189.688 177.323L189.757 177.461C189.551 176.909 189.551 176.08 188.796 175.666C188.521 175.113 188.659 174.492 188.521 173.94C187.972 170.902 188.59 169.728 192.228 169.452C196.003 169.176 199.641 169.659 203.347 170.004L203.21 169.935C203.965 170.971 205.063 170.557 206.024 170.557C206.985 170.557 208.22 170.971 208.701 169.728C209.181 168.555 208.289 167.795 207.534 167.105C206.161 165.655 204.857 164.136 203.004 163.1C201.906 161.305 200.602 159.648 198.611 158.82H198.543H198.611C199.229 157.853 200.327 157.922 201.151 157.646C203.21 156.886 205.749 157.577 207.465 155.644L207.328 155.782C209.799 156.265 211.995 155.299 214.055 154.332C215.427 153.78 216.663 153.158 218.173 153.227C218.859 153.642 219.546 154.125 220.163 154.125C220.644 154.194 220.781 154.884 221.33 154.677C223.115 153.503 224.899 152.468 226.272 150.535C228.057 148.049 227.302 144.735 229.91 142.733C231.694 141.421 231.9 139.557 230.596 137.693C230.116 137.141 229.773 136.312 229.773 135.691C229.773 133.481 228.812 132.929 226.821 132.791C224.35 132.653 223.183 131.41 223.801 129.132C224.488 126.715 223.321 125.818 221.742 124.851L221.467 124.575L221.605 124.368C221.33 123.608 221.467 122.78 220.644 122.228C220.712 122.297 220.712 122.297 220.712 122.297C220.987 120.985 219.889 120.225 219.614 119.121C220.369 118.154 222.154 118.983 222.428 117.464L222.36 117.533C225.174 117.878 227.782 117.671 229.704 115.047C229.704 114.978 229.498 114.909 229.498 114.84L229.704 115.047C231.694 114.633 232.861 113.528 233.273 111.526C236.568 108.488 236.636 107.039 233.822 104.553C234.234 102.482 233.548 101.377 232.587 100.134ZM108.627 5.40942C108.765 5.68559 108.765 6.0308 108.902 6.376C108.765 6.0308 108.559 5.68559 108.216 5.47846C108.353 5.40942 108.49 5.40942 108.627 5.40942ZM41.0194 134.724C41.088 134.793 41.1567 135 41.1567 135C41.1567 134.931 41.0194 135 41.0194 135C40.8821 135 41.1567 134.793 41.0194 134.724ZM15.143 83.7715C15.143 83.7025 15.2117 83.7715 15.2117 83.7025C15.2117 83.7715 15.2117 83.9786 15.2117 84.0477C15.2117 83.9096 15.0744 83.8406 15.143 83.7715ZM48.5695 134.034C48.5695 134.034 48.6381 134.034 48.6381 133.965C48.6381 134.034 48.5695 134.034 48.5695 134.034ZM23.1736 69.3419C23.4482 68.7895 23.9286 68.2372 24.2032 67.6158C24.3405 68.3062 23.9973 68.7895 24.0659 69.549C23.9286 69.7561 23.9286 69.8942 23.9286 70.1013C23.7914 70.1013 23.7914 69.9632 23.6541 69.9632C23.2423 69.9632 22.8991 70.3775 22.6932 70.6536C22.7618 70.1703 22.8991 69.7561 23.1736 69.3419ZM34.4302 59.538C34.4302 59.607 34.4988 59.607 34.4988 59.607C34.4302 59.607 34.4302 59.607 34.4302 59.538ZM28.8705 75.9008C28.8705 75.7627 29.0078 75.7627 29.0078 75.7627L29.0764 75.8318L28.8705 75.9008ZM30.6551 80.5266C30.861 80.6647 31.2042 80.8718 31.5474 80.8718C31.4788 80.9408 31.4101 80.8718 31.3415 80.9408C31.1356 81.217 30.9297 80.5266 30.6551 80.5266ZM31.8906 85.6356C31.9592 85.7737 32.1651 85.9118 32.0965 85.9118C32.0279 85.8428 31.8219 85.8428 31.616 85.8428C31.7533 85.8428 31.7533 85.6356 31.8906 85.6356ZM48.5695 99.582C48.6381 99.582 48.6381 99.6511 48.7754 99.6511C48.5695 99.6511 48.5695 99.582 48.5695 99.582ZM33.6065 60.5045C33.4692 60.5045 33.4006 60.5045 33.332 60.5045C33.4006 60.4355 33.4692 60.5045 33.6065 60.4355V60.5045ZM53.0996 142.871C53.0996 142.871 52.9623 142.94 53.0309 143.078C52.9623 142.94 52.9623 142.94 52.9623 142.94C52.9623 142.94 52.9623 142.871 53.0996 142.871ZM67.7194 29.9192C67.6507 30.1263 67.5135 30.0572 67.3762 30.1953C67.5135 29.7811 68.2685 29.7811 68.2685 29.0907C68.0626 29.5049 67.788 29.643 67.7194 29.9192ZM31.4788 47.6628C31.4788 47.4557 31.2042 47.4557 31.2042 47.3176C31.3415 47.3867 31.4788 47.4557 31.6847 47.4557C31.616 47.5247 31.5474 47.5938 31.4788 47.6628ZM31.8906 60.3665H31.8219V60.2974L31.8906 60.3665ZM40.5389 121.951C40.6076 122.021 40.7448 122.021 40.7448 122.021C40.5389 122.021 40.4703 121.951 40.4703 122.09C40.4703 122.297 40.7448 122.228 40.8821 122.297V122.366C40.5389 122.297 40.333 122.09 40.0585 122.021C40.2644 122.021 40.4016 121.951 40.5389 121.951ZM70.0531 25.8457C69.6412 26.5361 69.2294 27.0885 68.8862 28.055C69.0235 27.3646 69.1608 26.8123 69.504 26.26C69.7099 26.0528 69.9158 25.9838 70.0531 25.8457ZM10.5443 53.0481C10.8189 53.3933 11.1621 53.3933 11.6425 53.3933C11.0934 53.5313 10.6816 53.3242 10.0639 53.3933C10.2698 53.1861 10.407 53.1861 10.5443 53.0481ZM13.3585 79.4219C13.1525 80.3885 12.9466 81.4241 11.7112 81.9764C13.2212 81.7003 13.0839 80.3885 13.3585 79.4219ZM39.4407 115.876C39.3721 114.84 39.7839 113.874 40.1957 113.114C39.6466 114.771 39.9212 116.497 40.333 118.223C39.9898 117.464 39.5093 116.704 39.4407 115.876ZM43.9022 146.53C44.4513 146.875 44.7258 147.497 45.6867 147.497C46.2358 147.497 46.8536 147.911 46.9908 148.463C47.1968 149.499 47.8145 149.43 48.2263 150.051C47.5399 147.842 46.0986 146.945 43.9022 146.53ZM97.0962 176.08C97.1649 176.08 97.2335 176.08 97.3022 176.08C97.2335 176.149 97.0962 176.08 97.0962 176.08ZM193.944 36.271C193.944 36.4781 193.601 36.7543 193.532 36.8233C193.395 36.8233 193.395 36.7543 193.395 36.8233C193.669 36.6852 193.875 36.4781 193.944 36.1329C193.944 36.2019 193.944 36.2019 193.944 36.271ZM192.365 28.055C191.953 27.0885 191.198 26.5361 190.031 26.5361C191.473 26.329 192.228 26.7432 192.365 28.055ZM202.867 53.1171C202.455 53.6004 202.386 53.2552 202.043 53.1171C202.249 52.979 202.592 52.91 202.729 52.5648C202.729 52.8409 203.004 52.91 202.867 53.1171ZM217.418 63.8876C217.418 63.6804 217.418 63.4043 217.555 63.1281C217.624 62.99 217.761 63.1972 217.898 63.1972C217.692 63.4733 217.349 63.5424 217.418 63.8876ZM217.281 64.9922C217.143 65.0613 217.281 65.0613 217.281 65.1303C217.143 64.9922 217.143 64.9232 217.143 64.8542C217.143 64.9232 217.143 64.9232 217.281 64.9922ZM232.655 82.1836L232.587 82.1145C232.518 81.5622 232.793 81.0789 232.655 80.5266C232.793 81.0789 232.655 81.5622 232.655 82.1836ZM209.456 75.7627C209.73 75.4865 209.799 74.8652 210.211 74.8652C210.485 74.8652 210.691 74.9342 210.966 74.8652C210.348 75.1413 209.73 75.4175 209.456 75.7627ZM198.337 36.9614C195.591 36.4091 195.111 35.5115 194.973 33.0951C195.385 35.0973 196.346 36.4781 198.337 36.9614ZM226.958 133.205C227.164 133.55 226.89 133.758 226.89 134.034C226.615 133.689 226.958 132.929 226.203 132.791C226.547 132.791 226.547 133.274 226.958 133.205Z" fill="#BAF5F5"/>
<path fill-rule="evenodd" clip-rule="evenodd" d="M263.061 112.284C262.992 110.972 261.894 110.006 260.796 109.522C259.629 108.97 258.393 109.177 257.57 110.144C256.677 111.318 257.158 112.422 257.913 113.389C258.599 114.355 259.354 115.322 260.041 116.15C260.796 117.048 261.002 118.981 262.306 118.429C264.228 117.738 262.649 116.15 262.168 115.184C261.619 113.941 262.992 113.458 263.061 112.284Z" fill="#BAF5F5"/>
<path fill-rule="evenodd" clip-rule="evenodd" d="M243.428 101.859C244.87 100.961 244.183 99.5807 245.213 98.8902C245.968 98.2689 245.968 97.6475 244.938 97.1642C244.252 96.819 243.565 97.2332 243.36 98.0617C243.154 98.8902 243.291 99.9259 242.33 100.202C238.967 101.1 240.408 102.688 241.644 104.275C242.33 105.38 242.742 106.623 244.183 107.037C244.526 106.899 244.938 106.761 244.938 106.554C244.938 106.14 244.87 105.725 244.664 105.38C243.909 104.206 241.918 102.895 243.428 101.859Z" fill="#BAF5F5"/>
<path fill-rule="evenodd" clip-rule="evenodd" d="M206.912 24.6002C206.775 26.0501 206.294 27.5 207.461 29.157C210.275 26.2572 210.275 26.2572 206.912 24.6002Z" fill="#BAF5F5"/>
<path fill-rule="evenodd" clip-rule="evenodd" d="M242.609 92.8166C242.06 92.0571 241.305 91.1596 240.344 89.7097C239.452 91.7119 238.354 92.9547 240.413 93.7832C240.825 93.9903 242.198 94.1974 242.609 92.8166Z" fill="#BAF5F5"/>
<path fill-rule="evenodd" clip-rule="evenodd" d="M194.357 9.68884C195.112 11.0697 195.936 12.2434 197.995 13.0719C196.691 9.96501 196.691 9.96501 194.357 9.68884Z" fill="#BAF5F5"/>
<path fill-rule="evenodd" clip-rule="evenodd" d="M251.734 97.716C251.322 97.3707 251.048 97.0946 250.773 96.7494V96.8184C250.705 94.2639 248.028 93.9187 247.479 91.7094C245.969 92.6759 246.175 93.7116 246.861 94.471C247.685 95.4376 248.44 96.4732 248.989 97.716C248.989 97.9921 248.989 98.2683 248.989 98.5445C249.744 99.0277 250.293 99.5801 250.773 100.34C251.322 101.306 252.009 101.306 252.558 100.34C253.244 100.547 253.999 101.306 254.411 100.754C255.372 99.5801 253.725 98.6135 253.793 97.3707C253.793 96.6803 252.489 97.5779 251.734 97.716Z" fill="#BAF5F5"/>
<path fill-rule="evenodd" clip-rule="evenodd" d="M245.695 103.725C246.038 103.794 246.724 103.449 246.793 103.173C247.136 101.792 246.107 101.378 244.597 101.102C244.734 102.206 244.459 103.449 245.695 103.725Z" fill="#BAF5F5"/>
<path fill-rule="evenodd" clip-rule="evenodd" d="M181.591 5.20157C181.522 4.64924 181.179 4.16595 180.63 3.95883C180.15 3.88979 179.669 3.88979 179.669 4.37308C179.395 5.27062 180.081 5.61582 180.562 5.82295C181.385 6.03007 181.591 5.68486 181.591 5.20157Z" fill="#BAF5F5"/>
<path fill-rule="evenodd" clip-rule="evenodd" d="M188.519 19.633C188.587 19.1498 188.244 18.8736 187.764 18.9426C187.489 18.9426 186.871 19.0117 186.803 19.3569C186.528 19.9782 187.077 20.3235 187.695 20.3925C188.107 20.3235 188.45 20.1163 188.519 19.633Z" fill="#BAF5F5"/>
<path fill-rule="evenodd" clip-rule="evenodd" d="M266.975 122.85C266.495 122.85 266.083 123.057 266.083 123.471C266.083 124.092 266.426 124.645 267.044 124.714C267.456 124.783 267.799 124.507 268.005 124.023C268.005 123.333 267.524 123.057 266.975 122.85Z" fill="#BAF5F5"/>
<path fill-rule="evenodd" clip-rule="evenodd" d="M234.51 97.4412C234.647 97.9935 235.265 98.4077 235.814 98.3387C236.363 98.2697 236.569 97.8554 236.363 97.3031C236.226 96.8888 235.814 96.3365 235.265 96.5436C234.784 96.5436 234.51 97.0269 234.51 97.4412Z" fill="#BAF5F5"/>
<path fill-rule="evenodd" clip-rule="evenodd" d="M258.391 104.621C258.116 104.483 257.842 104.207 257.636 104.276C257.499 104.414 257.361 104.759 257.361 105.035C257.499 105.104 257.91 105.449 258.116 105.38C258.322 105.242 258.322 104.759 258.391 104.621Z" fill="#BAF5F5"/>
<path fill-rule="evenodd" clip-rule="evenodd" d="M218.442 45.7292C218.167 45.315 217.755 45.315 217.344 45.4531C216.932 45.5221 216.795 45.8673 217.069 46.1435C217.344 46.4887 217.687 46.8339 218.167 46.4887C218.305 46.3506 218.373 46.0054 218.442 45.7292Z" fill="#BAF5F5"/>
<path fill-rule="evenodd" clip-rule="evenodd" d="M199.776 15.6256C199.708 15.0732 199.159 15.0042 198.815 14.7971C198.404 14.659 198.129 14.7971 198.129 15.1423C198.06 15.6256 198.472 15.8327 199.021 15.8327C199.296 15.9017 199.57 15.7636 199.776 15.6256Z" fill="#BAF5F5"/>
<path fill-rule="evenodd" clip-rule="evenodd" d="M184.26 10.4483C183.986 10.3102 183.711 10.2412 183.505 10.0341C183.436 10.3102 183.162 10.6554 183.299 10.7935C183.299 11.0006 183.711 11.0697 183.986 11.1387C183.986 11.0006 184.123 10.6554 184.26 10.4483Z" fill="#BAF5F5"/>
<path fill-rule="evenodd" clip-rule="evenodd" d="M232.65 63.4703C232.513 63.1941 232.513 62.918 232.239 62.8489C232.033 62.5037 231.827 62.7109 231.689 62.918C231.827 63.1251 231.827 63.4703 232.033 63.6084C232.101 63.6774 232.307 63.5394 232.65 63.4703Z" fill="#BAF5F5"/>
<path fill-rule="evenodd" clip-rule="evenodd" d="M259.696 125.746C259.696 125.953 259.971 126.16 260.108 126.367C260.177 126.16 260.383 125.953 260.383 125.746C260.383 125.47 260.177 125.263 260.108 125.056C259.971 125.263 259.696 125.401 259.696 125.746Z" fill="#BAF5F5"/>
<path fill-rule="evenodd" clip-rule="evenodd" d="M237.458 85.9099C237.527 85.9099 237.664 85.8408 237.802 85.8408C237.802 85.4956 237.664 85.4266 237.39 85.6337C237.253 85.6337 237.39 85.8408 237.458 85.9099Z" fill="#BAF5F5"/>
<path fill-rule="evenodd" clip-rule="evenodd" d="M234.917 66.58C233.887 65.4063 232.652 65.4753 231.485 66.2348C230.593 66.9252 230.524 67.6846 231.416 68.4441C232.652 69.7559 233.818 69.5488 234.985 68.4441C235.809 67.8227 235.809 67.2013 234.917 66.58Z" fill="#BAF5F5"/>
<path fill-rule="evenodd" clip-rule="evenodd" d="M249.61 121.192C249.748 121.261 249.748 121.468 249.885 121.468C250.022 121.399 250.228 121.261 250.297 121.192C250.228 121.123 250.022 120.985 249.954 120.985C249.816 121.054 249.748 121.123 249.61 121.192Z" fill="#BAF5F5"/>
<path fill-rule="evenodd" clip-rule="evenodd" d="M253.797 115.667C254.14 115.736 254.209 115.529 254.003 115.252C254.003 115.183 253.797 115.252 253.729 115.322C253.797 115.46 253.797 115.529 253.797 115.667Z" fill="#BAF5F5"/>
<path fill-rule="evenodd" clip-rule="evenodd" d="M246.179 115.186C246.247 115.255 246.385 115.324 246.453 115.324C246.659 115.324 246.659 115.186 246.659 114.979C246.453 114.979 246.385 114.91 246.247 114.91C246.179 114.841 246.179 115.117 246.179 115.186Z" fill="#BAF5F5"/>
</svg>
