<svg width="205" height="156" viewBox="0 0 205 156" fill="none" xmlns="http://www.w3.org/2000/svg">
<path fill-rule="evenodd" clip-rule="evenodd" d="M53.1719 11.3065H53.2766V11.2014L53.1719 11.3065Z" fill="#151F41"/>
<path fill-rule="evenodd" clip-rule="evenodd" d="M35.684 107.834C35.1604 107.94 34.7415 108.15 34.8462 108.78C34.8462 109.305 35.3698 109.62 35.7887 109.725C36.3123 109.83 36.6265 109.305 36.6265 108.78C36.7312 108.255 36.3123 107.94 35.684 107.834Z" fill="#151F41"/>
<path fill-rule="evenodd" clip-rule="evenodd" d="M188.473 25.3812C187.531 25.1711 186.798 25.0661 186.379 25.5913C186.169 25.6963 186.274 26.2215 186.379 26.2215C187.112 26.7467 187.635 26.2215 188.473 25.3812Z" fill="#151F41"/>
<path fill-rule="evenodd" clip-rule="evenodd" d="M30.8665 113.717C30.4476 113.717 30.0287 113.822 30.1335 114.137C30.3429 114.767 30.9712 114.872 31.5996 114.977C31.7043 114.767 32.1232 114.662 32.1232 114.557C32.0185 113.822 31.3901 113.822 30.8665 113.717Z" fill="#151F41"/>
<path fill-rule="evenodd" clip-rule="evenodd" d="M17.4612 141.971C16.9376 141.971 16.5187 141.971 15.9951 141.971C15.5762 142.076 14.9479 142.076 15.0526 142.601C15.262 143.337 15.9951 143.442 16.6234 143.442C16.9376 143.442 17.2518 143.547 17.4612 143.547C17.6707 143.757 17.9848 143.757 18.1943 143.442C18.4037 143.442 18.7179 143.442 18.9273 143.442C18.9273 143.442 19.032 143.337 19.032 143.232C19.1368 143.022 19.032 142.917 18.9273 142.706C18.6131 142.286 17.8801 142.496 17.4612 141.971Z" fill="#151F41"/>
<path fill-rule="evenodd" clip-rule="evenodd" d="M36.2072 141.551C35.6836 141.551 35.4742 141.761 35.5789 142.181C35.5789 142.601 35.7884 143.022 36.1025 143.442C36.312 143.127 36.6261 142.916 36.7309 142.706C36.8356 142.286 36.7309 141.761 36.2072 141.551Z" fill="#151F41"/>
<path fill-rule="evenodd" clip-rule="evenodd" d="M30.0293 147.538C30.2387 147.748 30.5529 147.958 30.7624 148.168C31.0765 148.378 31.3907 148.273 31.3907 147.958C31.4954 147.538 31.0765 147.328 30.6576 147.328C30.3435 147.328 30.134 147.433 30.0293 147.538Z" fill="#151F41"/>
<path fill-rule="evenodd" clip-rule="evenodd" d="M192.243 28.0071C192.034 27.9021 191.824 27.9021 191.51 27.692C191.51 27.9021 191.406 28.1122 191.301 28.3222C191.51 28.4273 191.824 28.6373 191.929 28.5323C192.034 28.5323 192.139 28.2172 192.243 28.0071Z" fill="#151F41"/>
<path fill-rule="evenodd" clip-rule="evenodd" d="M8.66526 81.0503C7.51332 80.6302 6.46611 79.6848 5 81.1553C6.25666 82.1007 7.51332 81.6805 8.66526 81.7855C8.97943 81.7855 9.18887 81.7856 9.39832 81.8906C9.92193 82.2057 10.3408 82.2057 10.8644 81.7855C10.8644 81.7855 10.9691 81.6805 10.9691 81.5755C11.0739 81.3654 10.9691 81.2604 10.7597 81.0503C10.1314 81.0503 9.39832 81.0503 8.66526 81.0503Z" fill="#151F41"/>
<path fill-rule="evenodd" clip-rule="evenodd" d="M14.529 121.699C14.529 121.699 14.7385 121.594 14.7385 121.489C14.6337 121.279 14.4243 121.279 14.2148 121.489C14.3196 121.594 14.4243 121.699 14.529 121.699Z" fill="#151F41"/>
<path fill-rule="evenodd" clip-rule="evenodd" d="M35.5667 107.531V107.624C35.5667 107.624 35.5667 107.624 35.5667 107.531C35.5667 106.876 35.4102 106.034 36.1141 105.567C36.2705 105.473 36.2705 105.286 36.1923 105.099C36.1141 104.538 36.1923 103.977 36.7397 103.696V103.79C37.0526 103.322 36.8961 102.667 37.4436 102.48L37.3654 102.574C37.5218 102.013 37.4436 101.452 37.8346 101.077L37.991 100.89L37.9128 100.703C37.6782 97.8976 38.3039 95.8401 40.7283 94.9984C41.3539 94.8113 41.7449 93.9696 42.3706 93.9696V94.0631C42.3706 93.5955 42.6052 93.4084 42.918 93.4084C42.9962 93.4084 43.0744 93.3149 43.0744 93.3149L42.918 93.4084C42.918 93.4084 42.918 93.4084 42.8398 93.4084C42.9962 92.8473 43.3873 92.6602 43.8565 92.5667C45.3424 92.1926 46.4373 91.2574 47.2194 89.8545H47.2976C46.9848 89.5739 46.3591 89.6674 46.2809 89.1063C45.8899 89.1998 45.7335 89.0128 45.577 88.6387L45.6552 88.5451L45.577 88.6387C45.1078 88.3581 45.0296 87.8905 44.9514 87.3293L45.0296 87.2358C45.0296 87.2358 44.9514 87.2358 44.9514 87.3293C44.4821 87.2358 43.9347 87.3293 43.6219 87.0487C42.8398 86.4876 43.0744 86.1135 43.8565 85.9264C44.4822 85.0847 45.4206 85.1782 46.2027 84.7106H46.1245C46.3591 84.3365 46.2809 83.6818 46.7501 83.4013L46.6719 83.4948C46.5937 82.6531 46.5155 81.8113 46.3591 80.9696C45.9681 78.6315 46.0463 78.538 48.2361 78.0703C48.3925 77.7898 48.5489 77.5092 48.7835 77.3221C49.722 75.6387 50.4258 73.6747 52.1464 72.8329C52.381 72.2718 52.9284 72.4588 53.2413 72.0847V72.1783C53.7887 71.6171 54.3361 71.1495 54.9618 70.8689C55.5874 69.466 56.6041 69.279 57.699 69.3725C57.8554 69.466 58.09 69.466 58.09 69.3725C57.699 68.9049 57.3862 68.5308 57.0733 68.0632L57.1516 67.9696V67.8761C57.1516 67.9696 57.1516 68.0632 57.1516 68.0632C55.1964 66.9409 55.04 66.0991 55.9003 62.6387C55.9785 62.0776 56.0567 61.6099 56.4477 61.3294L56.5259 61.4229C56.5259 61.3294 56.5259 61.3294 56.4477 61.3294C56.4477 60.2071 56.6823 59.2718 57.5426 58.6171C57.5426 58.1495 57.699 57.6819 58.09 57.3078C58.2464 57.1207 58.4811 56.8402 58.6375 56.6531C58.6375 56.7466 58.7157 56.8402 58.7939 56.9337C58.7939 56.9337 58.7939 56.9337 58.7939 56.8402L58.6375 56.6531C58.7939 56.4661 59.0285 56.1855 59.1849 55.9984L59.3413 56.092C59.3413 56.092 59.2631 55.9984 59.1849 55.9984C59.4195 54.315 60.4362 53.5668 61.3747 52.7251L61.5311 52.8186C61.4529 52.7251 61.4529 52.7251 61.3747 52.7251C61.3747 51.4157 61.6093 50.1999 62.4696 49.1711C63.3298 48.0488 65.0504 47.1136 63.9555 44.9625C63.7991 44.5884 64.2683 44.2143 64.6593 44.3078C65.285 44.4949 65.9107 44.7754 66.5363 44.869C68.2568 45.056 69.1953 43.8402 68.5697 41.8762C68.0222 40.2863 68.8043 40.0992 69.5081 39.9122C70.2902 39.6316 71.1505 39.7251 71.9325 39.5381C71.9325 39.6316 71.9325 39.6316 71.9325 39.6316L71.8543 39.5381C72.0107 39.351 72.2454 39.164 72.4018 38.8834L72.5582 38.9769C72.5582 38.9769 72.5582 38.9769 72.5582 38.8834C72.48 38.8834 72.48 38.8834 72.4018 38.8834C72.0107 38.1352 70.603 37.4805 72.48 36.8258C73.262 36.4517 73.8877 35.5165 74.5133 34.8618C74.5915 34.9553 74.5915 34.9553 74.6697 34.9553L74.5133 34.8618C74.6697 33.646 75.3736 32.8978 76.1557 32.2431L76.3121 32.3366C76.3121 32.2431 76.2339 32.2431 76.1557 32.2431C76.4685 29.1568 78.9711 26.4446 81.4737 26.4446C79.9878 26.6316 79.5967 28.8762 78.3454 29.2503C77.6416 29.5309 77.7198 30.1856 77.5634 30.7467C78.5018 28.7827 79.5967 27.0057 81.4737 26.4446L81.5519 26.5381L81.7083 26.4446C82.2557 25.6028 82.9596 26.164 83.4288 26.4446C85.3058 27.7539 87.2609 27.7539 89.2943 27.5669C93.6738 27.1928 97.9752 27.7539 102.277 28.3151C102.433 28.0345 102.589 28.0345 102.824 28.3151C102.902 28.5021 103.059 28.5021 103.215 28.3151C104.701 28.5956 106.343 27.4733 107.751 29.0633H107.673C108.298 28.9697 108.924 28.7827 109.393 29.5309C110.566 29.6244 111.739 29.5309 112.913 29.6244C114.164 29.8115 115.493 29.1568 116.588 30.1856C116.745 30.2791 116.979 30.2791 117.136 30.2791C117.527 30.4661 117.761 30.8402 117.84 31.3079C117.84 31.2143 117.84 31.1208 117.84 30.9338C117.605 30.6532 117.37 30.4661 117.136 30.1856C118.856 30.3726 120.655 29.5309 122.141 30.7467C122.297 30.8402 122.376 30.9338 122.532 30.8402C123.705 30.8402 124.878 30.7467 125.973 30.7467C127.146 30.8402 128.397 30.1856 129.258 31.4949L129.414 31.5884L129.57 31.4949C132.308 31.4949 135.045 31.4949 137.782 31.4014C138.486 31.4014 139.268 31.2143 139.737 32.1496C139.894 32.0561 140.128 32.0561 140.285 32.0561C141.145 30.9338 142.24 31.3079 143.178 31.5884C144.351 32.0561 145.525 32.0561 146.698 32.1496C147.323 32.4302 148.027 32.4302 148.653 32.1496C150.217 30.7467 152.016 31.682 153.736 31.4949C153.736 31.4949 153.736 31.5884 153.658 31.5884C154.44 30.5597 155.613 31.5884 156.473 30.8402H156.786C157.255 30.1856 158.116 30.5597 158.663 30.1856L158.898 30.2791L158.976 30.092C159.367 29.7179 159.758 29.8115 160.149 29.5309L160.071 29.6244C161.088 28.5956 162.261 29.1568 163.356 28.8762C164.529 28.0345 165.389 28.5956 166.093 29.6244C166.406 29.7179 166.562 29.905 166.718 30.2791C166.718 30.1856 166.718 30.1856 166.718 30.1856C167.344 30.092 167.892 30.3726 168.283 30.9338C168.986 31.9625 168.517 32.4302 167.735 32.6172L167.813 32.5237C167.657 32.8978 167.5 33.0848 167.188 33.1784C167.344 34.0201 167.188 35.1424 168.361 35.2359C169.377 35.3294 169.534 36.2647 169.534 37.2935C168.986 37.574 168.439 37.7611 167.892 38.0417L167.735 37.9481C167.735 38.0417 167.813 38.0417 167.813 38.0417C167.813 38.0417 167.892 38.1352 167.97 38.1352C168.048 39.164 168.595 39.2575 169.299 39.351C172.897 39.9122 176.572 40.1927 180.248 40.0057C181.812 39.9122 183.22 40.3798 184.94 41.128C183.767 42.5309 182.438 41.8762 181.187 41.9697H180.952L180.717 42.1568C179.779 43.2791 178.371 42.2503 177.354 42.9985C179.075 44.0273 180.796 44.0273 182.516 44.1208C182.672 44.2143 182.751 44.2143 182.985 44.0273C185.879 42.8114 188.773 43.5596 191.666 43.4661C192.292 43.4661 192.292 44.2143 191.979 44.6819C191.666 45.1496 191.197 45.6172 190.806 45.9913C190.65 45.9913 190.65 45.8977 190.493 45.8042C190.493 45.8977 190.571 45.8042 190.571 45.8978L190.728 45.9913C191.197 47.6747 191.353 49.5452 192.605 50.8546C192.839 51.1351 192.605 51.6963 192.292 51.9769C192.683 53.2862 193.23 54.6891 192.214 55.9049C192.057 56.092 191.901 56.3725 191.744 56.5596V56.4661C191.666 56.4661 191.666 56.4661 191.666 56.4661C191.744 56.6531 191.744 56.6531 191.744 56.6531C191.666 57.1207 191.197 57.0272 191.119 57.3078C191.041 57.4013 191.041 57.4948 191.041 57.4948C190.571 58.243 190.102 58.8042 189.398 59.0848V58.9912C188.929 60.02 187.991 60.02 187.287 60.4876C187.13 60.7682 186.817 61.0488 186.505 61.1423L186.27 61.0488L186.192 61.2358C185.332 62.4517 184.158 62.5452 182.907 62.6387L182.751 62.4517C182.829 62.5452 182.829 62.5452 182.907 62.6387C178.606 64.7898 174.07 65.4445 169.456 65.1639C169.377 64.9768 169.612 64.7898 169.612 64.6027C169.612 64.7898 169.534 64.9768 169.456 65.1639L169.221 65.0704L169.065 65.1639C169.456 66.1927 170.707 65.4445 171.254 66.4732L171.176 66.6603H171.254C171.254 66.5668 171.254 66.5668 171.254 66.4732C173.21 66.3797 175.086 67.0344 176.963 67.5955C179.857 68.4373 182.516 68.3437 185.175 66.5668C185.566 67.0344 185.957 66.6603 186.27 66.4732C186.426 66.2862 186.661 66.0991 186.817 65.9121C186.974 65.9121 187.13 65.9121 187.365 65.8186C187.599 65.6315 187.756 65.4445 187.991 65.2574C188.147 65.2574 188.382 65.2574 188.538 65.2574H188.46C188.694 65.0704 188.851 64.8833 189.085 64.6963C189.242 64.6963 189.398 64.6963 189.633 64.6963V64.5092C189.946 64.4157 190.102 64.1351 190.337 64.0416C190.415 64.1351 190.571 64.1351 190.65 64.0416C190.962 64.1351 191.432 63.8545 191.432 64.5092C191.432 64.9768 191.041 65.1639 190.728 65.2574C190.571 65.2574 190.337 65.2574 190.18 65.4445C190.728 65.8186 190.806 66.4732 191.041 66.8473H191.119C191.197 66.8473 191.119 66.9409 191.197 66.9409C191.432 67.315 191.901 67.502 191.979 68.2502C192.057 70.1207 192.214 72.1783 192.996 73.9552C193.465 74.984 193.074 75.8257 192.448 76.5739C192.37 77.1351 192.292 77.6027 191.823 77.8833L191.666 77.6962C191.666 77.6962 191.666 77.6962 191.588 77.7898C191.666 77.7898 191.744 77.7898 191.901 77.8833C191.901 78.538 191.588 79.0991 191.353 79.6603C190.65 79.6603 190.962 79.0056 190.806 78.538V78.6315C191.041 78.9121 191.119 79.3797 191.353 79.6603C191.666 79.6603 192.057 79.7538 192.448 79.7538C193.23 79.6603 194.012 79.5667 194.794 79.5667C195.42 79.6603 196.046 79.1926 196.593 79.4732C197.453 79.9408 196.906 80.2214 196.28 80.4085H196.202C195.264 81.0631 194.247 80.4085 193.465 81.0631C192.761 81.0631 192.057 81.0631 191.432 81.1567C191.041 82.0919 190.102 81.4372 189.711 82.279C190.571 82.8401 191.744 81.9984 192.526 82.9336C192.683 82.9336 192.918 83.0272 193.074 83.0272C193.23 82.8401 193.465 82.8401 193.543 83.0272C193.778 83.0272 194.012 83.0272 194.169 83.1207C196.28 81.7178 198.157 83.4013 200.112 83.7754C200.582 83.7754 201.129 83.9624 200.973 84.7106C200.973 85.2718 200.504 85.6459 200.112 85.6459C198.627 85.7394 197.141 85.7394 195.655 85.7394C194.951 85.7394 194.169 85.8329 193.465 85.8329C193.074 86.3941 192.526 86.3941 191.979 86.3941C189.007 86.5811 186.035 86.8617 183.064 87.1423C182.985 87.0487 182.985 86.9552 182.907 86.8617C182.907 86.8617 182.907 86.8617 182.907 86.9552C182.594 87.0487 182.281 87.1423 181.969 87.1423C181.812 87.3293 181.656 87.1423 181.499 87.1423C181.499 87.2358 181.421 87.1423 181.343 87.2358C181.578 87.2358 181.734 87.1423 181.969 87.1423C181.969 87.2358 182.047 87.1423 182.047 87.2358C182.281 87.0487 182.516 86.7682 182.907 86.9552C182.985 87.0487 182.985 87.0487 183.142 87.1423C183.924 88.2646 185.019 87.6099 185.957 87.7034C187.208 87.984 188.538 87.2358 189.633 88.2646C189.789 88.2646 190.024 88.2646 190.258 88.2646C190.884 87.8905 191.588 88.0775 192.292 88.0775C193.621 87.984 195.029 87.8905 196.437 87.7969C196.515 87.8905 196.671 87.7969 196.75 87.7034C196.984 87.8905 197.141 88.171 197.375 88.3581C197.375 88.3581 197.453 88.4516 197.453 88.5451C197.532 88.7322 197.453 88.9192 197.297 89.0128L197.219 88.9192C197.297 89.1998 197.297 89.3869 197.297 89.6674C197.453 89.948 197.532 90.2286 197.766 90.3221C197.375 91.0703 196.75 90.9768 196.124 90.9768C196.124 91.1638 196.124 91.4444 196.124 91.6315H196.202C196.515 92.0991 196.515 92.5667 196.046 92.9408C195.498 93.0343 195.029 93.0343 194.482 93.1279C194.012 94.0631 193.7 95.0919 192.996 95.8401C192.135 96.5883 191.901 96.0271 191.823 95.0919H191.51H191.197C190.65 94.9048 190.18 94.7178 189.711 94.5307C189.242 94.4372 188.616 94.4372 188.616 95.0919C188.616 97.7106 187.052 97.43 185.644 97.7106C184.784 97.8041 183.767 97.3365 183.455 98.8329C183.767 98.9264 184.158 98.9264 184.471 99.0199C186.114 99.0199 187.678 99.0199 189.32 99.1134C189.867 99.207 190.415 99.5811 190.337 100.329C190.258 100.984 189.711 100.984 189.32 100.984C189.007 100.984 188.773 101.077 188.46 101.077C188.382 101.732 188.538 102.574 187.834 102.948C187.599 102.293 187.599 101.545 187.912 100.89C187.991 100.797 188.147 100.797 188.225 100.89C188.225 100.797 188.225 100.797 188.147 100.797C188.069 100.797 188.069 100.797 188.069 100.797L187.912 100.89C187.756 100.984 187.599 100.984 187.365 100.984C187.756 101.545 187.912 102.106 187.834 102.854C187.521 102.854 187.13 102.854 186.817 102.854C185.566 103.603 184.08 102.574 182.907 103.509C182.36 103.509 181.812 103.509 181.265 103.509C179.857 104.818 178.293 103.79 176.807 104.164C176.338 104.631 175.634 104.912 175.165 105.473C175.321 105.941 175.556 106.221 175.712 106.689C175.869 106.689 176.025 106.782 176.181 106.782C177.354 106.689 178.606 106.502 178.449 108.653C178.84 108.653 179.153 108.559 179.544 108.559V109.027C179.622 109.214 179.466 109.401 179.388 109.588H179.466C179.544 109.401 179.544 109.214 179.544 109.027C179.544 109.027 179.544 108.84 179.388 108.84C180.483 108.185 181.812 107.25 182.594 107.718C184.471 108.653 186.27 108.092 188.069 108.279C188.538 108.279 189.164 107.531 189.789 108.466C188.46 110.056 186.896 109.588 185.41 109.588C185.019 109.588 184.784 109.682 184.393 109.682C183.533 110.336 182.438 109.588 181.499 110.243C180.952 110.336 180.483 110.43 179.935 110.43C178.528 111.459 176.963 110.711 175.556 110.991C175.556 110.898 175.556 110.898 175.556 110.898V110.991C174.695 111.739 173.757 112.207 172.662 112.207C172.74 112.02 172.74 111.833 172.74 111.646H172.662C172.74 111.833 172.819 112.113 172.662 112.207C172.349 112.3 171.958 112.394 171.724 112.394C171.724 112.488 171.645 112.581 171.645 112.768C172.74 112.768 173.913 112.768 175.008 112.862C175.165 112.768 175.321 112.488 175.399 112.488C178.449 112.3 181.499 112.113 184.549 111.926C184.549 111.926 184.549 112.113 184.706 112.488C182.907 113.049 181.187 113.703 179.231 113.516C179.075 113.516 178.919 113.516 178.84 113.61C177.276 114.826 175.556 113.984 173.835 114.264C173.288 114.358 172.74 114.358 172.193 114.452C172.115 114.358 172.115 114.171 172.115 114.077H172.036C172.036 114.264 172.115 114.358 172.193 114.452C172.662 114.919 173.21 114.826 173.757 114.919C174.774 115.2 174.852 115.854 174.461 116.883C174.148 116.883 173.913 116.79 173.679 116.79H173.444L173.288 116.883C170.942 118.286 170.942 118.286 171.098 121.466C173.679 120.157 176.338 120.437 178.919 119.595C179.31 119.595 179.622 119.595 180.013 119.595C179.779 120.063 179.622 120.437 179.466 120.905H179.231H179.075C178.684 120.998 178.293 120.998 177.98 121.185C177.354 121.653 176.181 121.466 176.26 122.869C176.338 124.272 177.276 124.552 178.215 124.833C179.31 125.113 180.326 125.394 181.265 126.142C183.298 126.236 185.332 126.61 187.834 128.2C185.879 128.2 184.628 128.2 183.376 128.2C183.22 128.387 182.985 128.667 182.829 128.854C182.829 128.667 182.829 128.387 182.829 128.2C182.751 128.2 182.751 128.2 182.672 128.2C182.751 128.387 182.985 128.574 182.829 128.854C182.672 128.854 182.438 128.854 182.281 128.948C181.421 129.603 181.108 131.005 179.622 130.538C178.84 130.257 178.997 131.567 178.919 132.221C179.31 132.689 179.388 133.437 178.762 133.437C176.338 133.437 173.992 133.718 171.645 133.157C171.333 133.25 171.02 133.157 170.707 133.063C170.707 133.063 170.629 133.063 170.551 133.063C170.394 132.969 170.16 132.969 169.925 132.969C169.69 133.531 169.377 134.185 169.377 134.84C169.768 134.84 170.081 134.84 170.472 134.84C170.629 135.121 170.863 135.308 171.02 135.495C174.617 135.214 178.137 136.523 181.734 136.243C182.203 136.149 182.438 136.523 182.594 136.898C183.767 136.898 184.94 136.898 186.114 136.898C186.426 136.898 186.817 137.085 186.817 137.552C186.896 138.02 186.661 138.394 186.27 138.487C185.957 138.675 185.644 138.675 185.332 138.675C184.628 138.768 183.924 138.862 183.22 138.862C182.985 139.049 182.751 139.142 182.594 139.329C182.438 139.236 182.203 139.049 182.125 138.955C182.281 138.768 182.438 138.675 182.594 138.487C182.516 138.487 182.516 138.487 182.438 138.487C182.438 138.675 182.438 139.049 182.047 138.955C181.89 139.049 181.734 139.142 181.656 139.236C180.483 140.919 179.701 139.516 178.762 138.768C178.606 138.768 178.371 138.768 178.215 138.768C177.042 139.984 175.712 139.049 174.383 139.516C173.757 140.358 172.819 139.89 172.036 140.264C171.489 140.451 171.098 140.919 171.176 141.667C171.176 142.509 171.724 142.696 172.271 142.696C174.07 142.696 175.947 142.79 177.746 142.79C178.684 142.79 179.466 142.79 180.326 142.79C180.483 142.883 180.796 142.883 180.952 142.79C182.594 141.48 184.393 142.322 186.035 142.041C186.114 142.135 186.27 142.135 186.348 142.041C186.974 142.228 187.678 141.106 188.382 142.416C187.599 142.696 186.974 143.07 186.27 143.351C186.114 143.351 185.957 143.444 185.879 143.444C185.879 144.099 186.114 144.286 186.739 144.192C188.069 144.099 188.069 144.192 189.164 145.408C187.365 145.221 185.566 145.969 184.158 144.286C183.846 143.912 183.142 144.099 182.594 144.099C182.281 144.005 181.89 144.005 181.578 143.912C180.796 144.005 180.092 144.099 179.231 144.192C178.762 144.941 178.058 144.754 177.433 144.66L177.276 144.567L177.12 144.66C175.79 144.847 174.461 145.315 173.21 144.66C172.271 146.063 170.863 145.221 169.768 145.315H169.612C166.797 145.689 164.059 145.128 161.244 145.689C162.104 147.466 162.495 147.746 163.277 147.84C163.903 147.933 164.607 148.308 165.311 148.027V148.121C169.299 148.027 173.366 148.027 177.354 148.027C177.902 148.027 178.371 148.027 178.84 147.933C178.84 147.746 178.84 147.559 178.84 147.372C178.997 147.559 179.231 147.746 179.388 147.933C179.544 148.027 179.779 148.027 179.935 148.027C180.248 148.401 180.405 148.214 180.639 148.027C181.03 148.027 181.343 148.027 181.656 148.027C182.36 147.372 183.22 148.027 183.924 147.372C184.08 147.466 184.315 147.372 184.393 147.279C185.175 146.531 186.114 146.157 186.426 147.653C186.739 148.869 185.566 148.588 184.94 148.682H185.019C184.315 149.43 183.376 148.682 182.751 149.336H182.516L182.281 149.43C181.578 150.085 180.639 149.43 179.935 150.085H179.701H179.466C179.075 150.459 178.684 150.833 178.137 151.3C178.84 151.394 179.31 151.394 179.857 151.207C180.248 151.02 180.561 151.113 180.717 151.674C180.874 152.142 180.561 152.423 180.17 152.61C179.935 152.797 179.622 152.797 179.388 152.797H179.466C179.075 153.171 178.606 153.077 178.215 153.358C177.902 153.451 177.589 153.451 177.276 153.545C176.651 154.48 175.79 154.013 175.008 154.106C174.461 154.2 173.913 154.2 173.366 154.2C172.115 154.667 170.863 154.574 169.534 154.2C169.143 154.2 168.752 154.2 168.361 154.2C168.048 154.574 167.579 154.48 167.266 154.854C167.109 154.854 166.875 154.948 166.64 154.948C166.327 155.135 166.171 154.854 165.858 154.948C165.78 155.041 166.015 155.041 165.936 155.135C164.92 155.041 163.825 155.509 162.886 154.854L162.652 154.761H162.495C162.182 154.574 162.026 154.574 161.791 154.761C161.635 155.322 161.166 155.415 160.697 155.509C160.306 156.164 159.914 156.164 159.523 155.509C159.367 155.322 159.132 155.041 158.976 154.948C158.898 154.761 158.663 154.761 158.507 154.761C158.194 154.854 157.725 154.854 157.334 154.948L157.255 154.854C157.334 154.854 157.334 154.854 157.334 154.948C156.395 155.883 155.379 155.415 154.284 155.415C154.753 155.228 155.222 155.041 155.613 154.854C155.613 154.761 155.613 154.667 155.613 154.574C155.3 155.135 154.753 155.041 154.284 155.415H154.205C153.423 155.603 152.641 155.696 151.859 155.79C150.53 155.79 149.044 155.977 147.949 154.761C143.882 154.667 139.815 155.415 135.749 153.732C134.028 153.077 131.917 152.516 129.883 153.358C128.632 153.826 126.833 154.2 126.364 151.581C126.364 151.487 126.442 151.487 126.52 151.394L126.364 151.581C125.269 151.3 124.018 151.955 123.001 150.926C122.297 150.739 121.437 151.207 120.89 150.178C120.42 149.898 119.951 149.804 119.482 150.085C119.169 150.085 119.091 149.898 119.247 149.523C119.325 149.71 119.404 149.898 119.482 150.085C118.622 150.085 117.683 150.552 117.057 149.523C117.449 149.523 117.761 149.43 118.152 149.43C118.074 149.336 117.918 149.43 117.761 149.336C117.527 149.523 117.292 149.71 117.057 149.523C116.745 149.336 116.432 149.243 116.041 149.43C114.946 150.085 113.929 150.739 113.069 148.869L113.147 148.775C113.147 148.775 113.147 148.775 113.069 148.775V148.869C110.254 149.243 108.064 146.531 105.248 146.25C104.153 145.969 102.902 146.718 101.885 145.595C101.885 145.502 102.042 145.408 102.042 145.408L101.885 145.595C101.494 145.502 101.025 145.408 100.869 144.941L100.947 144.754C100.947 144.754 100.947 144.754 100.869 144.754C100.869 144.847 100.869 144.941 100.869 145.034C98.8355 145.034 96.8803 144.567 95.238 143.07C95.3162 142.977 95.3944 142.883 95.3944 142.883L95.238 143.07C94.8469 142.977 94.4559 142.883 94.1431 142.322L94.2995 142.228C94.2995 142.228 94.2213 142.322 94.1431 142.322C93.5956 142.322 92.8918 142.416 92.579 141.667L92.4225 141.48L92.2661 141.574C91.7187 141.106 90.8584 141.574 90.3892 140.826V140.919C89.8418 140.451 89.1379 141.013 88.7469 140.264V140.358C85.384 140.826 82.8032 138.675 80.3006 136.617C79.7531 136.43 79.0493 136.617 78.7365 135.869L78.8147 135.775C78.7365 135.775 78.7365 135.775 78.7365 135.775C78.7365 135.775 78.7365 135.775 78.7365 135.869C74.9826 135.308 71.8543 132.782 68.7261 130.631C68.7261 130.538 68.8043 130.444 68.8825 130.351L68.7261 130.631C68.335 130.538 67.8658 130.444 67.6312 129.977L67.7876 129.79C67.7876 129.79 67.7094 129.79 67.6312 129.79C67.6312 129.883 67.6312 129.977 67.6312 130.07C66.6927 129.696 65.5978 129.509 64.894 128.761L64.9722 128.574C64.9722 128.667 64.9722 128.667 64.9722 128.761C63.1734 128.574 61.6875 127.826 60.5144 126.049L60.5926 125.862L60.5144 126.049C59.0285 125.113 57.3862 124.739 56.0567 123.43C56.1349 123.336 56.1349 123.243 56.2131 123.243L56.0567 123.43C55.6656 123.336 55.1964 123.243 55.04 122.682L55.1182 122.495V122.401C55.1182 122.495 55.1182 122.588 55.1182 122.588C53.7105 122.682 52.9284 121.934 52.3028 120.624L52.381 120.531C52.381 120.531 52.381 120.437 52.3028 120.437C52.3028 120.531 52.3028 120.531 52.3028 120.624C50.3476 120.718 49.4873 118.847 48.3925 117.351L48.5489 117.164C48.4707 117.257 48.4707 117.351 48.3925 117.444C46.7501 116.416 45.1078 115.293 43.2309 114.732C41.4321 114.264 39.7116 113.516 37.9128 113.329C35.7231 113.049 34.941 111.646 35.0192 109.401C34.941 108.372 35.0974 107.905 35.5667 107.531ZM194.951 84.6171C194.794 84.5236 194.638 84.5236 194.56 84.3365C194.482 84.43 194.482 84.5236 194.403 84.5236C194.56 84.8041 194.716 84.6171 194.951 84.6171ZM36.6615 108.934C36.8961 109.588 36.8961 110.43 37.6 110.711C37.9128 110.898 38.1474 110.523 38.4603 110.523C37.6782 110.336 37.1308 109.775 36.6615 108.934ZM85.2276 136.71C85.2276 136.71 85.2276 136.71 85.1494 136.617C84.8365 136.991 84.4455 137.272 84.2109 137.552C84.2891 136.804 84.7583 136.804 85.2276 136.71ZM123.783 149.149C123.705 149.149 123.705 148.962 123.627 148.869C123.627 148.962 123.705 149.056 123.627 149.243C123.705 149.243 123.783 149.149 123.783 149.149ZM176.025 43.8402C176.025 43.9337 176.025 43.9337 176.025 43.9337C176.103 43.9337 176.181 43.9337 176.26 43.9337C176.181 43.8402 176.103 43.9337 176.025 43.8402ZM135.201 151.394C135.28 151.394 135.28 151.487 135.358 151.487C135.28 151.394 135.28 151.3 135.28 151.3L135.201 151.394ZM169.065 112.862H169.143H169.065ZM180.561 83.8689C180.561 83.8689 180.561 83.8689 180.561 83.7754C180.639 83.7754 180.639 83.7754 180.639 83.7754C180.561 83.7754 180.561 83.7754 180.561 83.7754C180.639 83.7754 180.561 83.7754 180.561 83.8689C180.483 83.9624 180.483 84.0559 180.405 84.0559C180.483 84.0559 180.483 84.1495 180.483 84.1495C180.483 83.9624 180.561 83.9624 180.561 83.8689ZM189.398 77.2286C189.398 77.2286 189.476 77.2286 189.398 77.2286C189.398 77.2286 189.398 77.1351 189.398 77.0416C189.164 77.1351 188.929 77.2286 188.694 77.2286C189.007 77.3221 189.242 76.948 189.398 77.2286ZM161.791 143.257C161.791 143.257 161.791 143.257 161.87 143.257C161.791 143.257 161.791 143.257 161.791 143.257ZM167.188 139.236C167.266 139.142 167.344 139.142 167.344 139.142L167.188 139.236C167.188 139.329 167.188 139.329 167.188 139.329C167.188 139.329 167.188 139.329 167.188 139.236ZM178.997 90.3221C178.997 90.5092 178.997 90.6962 178.997 90.8833C178.919 90.6962 179.075 90.5092 179.153 90.3221C178.997 90.3221 178.997 90.3221 178.997 90.3221ZM161.791 43.3726C161.791 43.3726 161.791 43.2791 161.791 43.3726C161.87 43.4661 161.791 43.4661 161.87 43.5596C161.87 43.4661 161.791 43.3726 161.87 43.2791C161.87 43.092 161.791 43.1855 161.791 43.3726ZM152.798 46.3654C153.345 46.5524 153.971 46.6459 154.205 46.1783C154.44 45.8977 154.049 45.8042 153.893 45.6172C153.58 46.0848 153.189 46.3654 152.798 46.3654ZM122.61 34.3007C122.532 34.2071 122.454 34.2071 122.532 34.1136C122.688 33.7395 122.376 34.2071 122.454 34.3007C122.532 34.3007 122.532 34.3007 122.61 34.3007ZM152.954 119.502C152.954 119.502 152.798 119.502 152.798 119.595C152.876 119.595 152.72 119.689 152.798 119.689C152.876 119.595 152.876 119.502 152.954 119.502ZM166.015 77.7898C166.015 77.8833 166.015 77.9768 166.093 78.0703C166.015 77.9768 166.015 77.8833 166.015 77.7898ZM164.216 74.4229C164.216 74.3293 164.216 74.3293 164.138 74.3293C164.138 74.3293 164.216 74.3293 164.216 74.4229ZM166.249 76.761C166.249 76.6675 166.249 76.6675 166.249 76.761C166.171 76.6675 166.327 76.5739 166.249 76.4804C166.249 76.4804 166.249 76.6675 166.249 76.761ZM166.406 85.9264C166.484 86.02 166.484 86.02 166.484 86.1135C166.484 86.02 166.484 86.02 166.484 86.02C166.406 86.02 166.484 85.9264 166.406 85.9264ZM164.529 85.9264C164.45 85.9264 164.372 85.9264 164.294 85.9264C164.372 85.9264 164.45 86.02 164.607 86.02C164.529 86.02 164.45 86.02 164.529 85.9264ZM163.434 85.7394C163.356 85.8329 163.356 85.8329 163.356 85.8329C163.434 85.7394 163.434 85.7394 163.434 85.7394ZM174.148 92.9408C174.226 92.9408 174.148 93.0343 174.148 92.9408C174.304 93.0343 174.304 92.8473 174.461 92.8473C174.383 92.9408 174.226 92.9408 174.148 92.9408ZM101.494 40.7539C101.494 40.7539 101.416 40.7539 101.494 40.7539C101.416 40.7539 101.416 40.7539 101.338 40.7539C101.416 40.7539 101.416 40.7539 101.494 40.7539ZM82.9596 39.2575C82.9596 39.2575 82.8814 39.164 82.9596 39.2575C82.8814 39.2575 82.9596 39.2575 82.9596 39.2575ZM93.361 33.1784C93.1264 33.7395 92.7354 34.2071 92.579 34.8618H92.6572C92.579 34.2071 92.8136 33.5525 93.361 33.1784ZM111.036 51.3222C111.036 51.8833 111.27 52.351 111.036 53.0992C111.661 52.8186 111.974 52.7251 112.443 52.4445C111.661 52.538 111.114 52.2574 111.036 51.3222ZM152.876 122.401C152.954 122.308 152.954 122.401 152.954 122.495C152.954 122.401 152.954 122.401 152.954 122.401C152.954 122.401 152.876 122.308 152.876 122.401ZM155.691 138.768C155.613 138.768 155.613 138.768 155.691 138.768C155.613 138.768 155.691 138.768 155.691 138.768ZM151.234 137.459C151.077 137.085 151.155 136.71 151.077 136.43C150.999 136.71 151.155 137.085 151.077 137.459H151.234ZM151.859 140.732C152.328 140.732 152.798 141.2 153.267 141.387C152.72 141.293 152.25 141.106 151.937 140.545C151.937 140.639 151.859 140.732 151.859 140.732ZM125.347 142.041C125.66 141.854 125.973 142.135 126.286 142.041C125.973 142.041 125.66 142.041 125.347 142.041ZM139.659 145.969C139.737 145.969 139.737 146.063 139.816 146.063C139.737 145.969 139.659 145.876 139.659 145.782C139.659 145.782 139.659 145.876 139.659 145.969ZM141.301 140.732C141.301 140.639 141.301 140.639 141.301 140.732V140.732ZM143.648 142.135C143.569 142.135 143.491 142.135 143.491 142.135V142.041C143.491 142.041 143.491 142.041 143.413 142.041C143.491 142.041 143.491 142.135 143.491 142.135H143.648ZM114.477 52.9121C114.477 53.0056 114.32 53.1927 114.398 53.2862C114.711 53.2862 114.711 53.1927 114.946 53.0992C114.79 53.0992 114.633 53.0056 114.477 52.9121ZM136.687 139.61C136.687 139.516 136.765 139.61 136.844 139.516C136.844 139.516 136.687 139.423 136.609 139.423C136.609 139.516 136.687 139.516 136.687 139.61ZM167.422 128.387C167.422 128.48 167.657 128.574 167.813 128.761C167.657 128.574 167.422 128.48 167.422 128.387ZM158.741 140.171C156.552 140.264 154.362 140.732 152.25 140.358C152.172 140.358 152.172 140.451 152.172 140.451C154.284 139.89 156.552 139.89 158.741 140.171ZM146.776 146.531C146.854 146.531 146.932 146.531 147.089 146.531C147.01 146.531 147.01 146.531 147.01 146.531C146.932 146.531 146.854 146.531 146.776 146.531ZM109.393 61.1423C109.393 61.4229 109.315 61.7035 109.315 61.8905C109.315 61.6099 109.471 61.3294 109.393 61.1423ZM89.6071 31.682C89.5289 31.7755 89.3725 31.7755 89.2161 31.869H89.3725C89.4507 31.7755 89.5289 31.869 89.6071 31.682ZM129.805 51.7898C129.962 51.6028 130.274 51.9769 130.431 51.6963C130.274 51.5092 130.196 51.4157 130.04 51.3222C130.04 51.3222 129.962 51.2287 129.883 51.1351C129.883 51.5092 129.883 51.6028 129.805 51.7898ZM176.26 71.1495C176.181 71.1495 176.181 71.1495 176.26 71.1495C176.181 71.1495 176.26 71.1495 176.26 71.1495ZM176.181 71.1495C176.26 71.1495 176.26 71.1495 176.181 71.1495C176.26 71.1495 176.338 71.1495 176.338 71.056C176.338 71.1495 176.26 71.1495 176.181 71.1495ZM180.17 95.7466C180.17 95.7466 180.17 95.7466 180.092 95.7466C180.17 95.7466 180.17 95.7466 180.17 95.7466ZM173.522 96.4948C173.601 96.4948 173.522 96.4948 173.522 96.4948V96.4948ZM168.439 128.106C168.439 128.2 168.439 128.2 168.439 128.293C168.517 128.106 168.674 128.2 168.752 128.106C168.674 128.106 168.595 128.106 168.439 128.106ZM168.439 128.667C168.439 128.761 168.439 128.761 168.439 128.854C168.439 128.854 168.439 128.854 168.517 128.854C168.517 128.761 168.517 128.667 168.439 128.667ZM156.239 142.696C156.082 143.07 156.004 143.351 155.848 143.631V143.725C155.77 143.164 156.004 142.883 156.317 142.696H156.239ZM129.727 148.121C129.727 148.121 129.727 148.214 129.727 148.308C129.727 148.214 129.727 148.214 129.727 148.121ZM87.4956 43.2791C87.4173 43.092 87.4173 42.9985 87.4956 42.8114C87.3391 42.7179 87.1827 42.8114 87.1045 42.7179C87.1827 42.905 87.3391 42.9985 87.4956 43.2791ZM160.306 49.6387C160.462 49.4517 160.306 49.2646 160.306 48.9841C160.149 49.0776 159.993 49.1711 159.836 49.0776C159.993 49.2646 160.071 49.5452 160.306 49.6387ZM187.287 77.7898C187.208 77.9768 187.052 78.2574 186.974 78.4444C186.974 78.538 187.052 78.538 187.052 78.6315C187.052 78.725 186.974 78.725 186.974 78.725C186.974 79.0991 187.13 79.1926 187.13 78.9121C187.13 78.8185 187.052 78.725 186.974 78.538C186.896 78.1639 187.13 77.9768 187.287 77.6962C187.443 77.7898 187.365 77.7898 187.287 77.7898ZM185.566 81.1567C185.41 81.0631 185.253 80.9696 185.175 80.8761C185.253 80.9696 185.332 81.0631 185.488 81.1567H185.566ZM168.752 105.286C168.674 105.473 168.517 105.38 168.439 105.567C168.517 105.567 168.517 105.567 168.674 105.567C168.674 105.38 168.752 105.38 168.752 105.286ZM166.171 112.207C166.249 112.207 166.327 112.207 166.406 112.207C166.484 111.646 166.797 111.646 167.188 111.646C166.797 111.833 166.406 111.739 166.171 112.207ZM162.965 132.689C162.965 132.689 163.043 132.782 163.121 132.782C163.043 132.689 163.043 132.689 162.965 132.689ZM162.417 135.401C162.417 135.401 162.495 135.401 162.495 135.495C162.495 135.308 162.652 135.308 162.652 135.214C162.574 135.214 162.495 135.214 162.417 135.401ZM167.344 136.336V136.243C167.344 136.243 167.344 136.243 167.344 136.336ZM71.4633 45.9913C71.5415 45.9913 71.4633 45.9913 71.4633 45.9913C71.5415 45.9913 71.7761 46.2719 71.8543 46.3654C71.8543 46.3654 71.8543 46.4589 72.0107 46.4589C71.7761 46.5524 71.6197 46.1783 71.4633 45.9913ZM68.2568 51.0416C68.1004 50.8546 67.8658 51.0416 67.7094 51.0416C67.8658 51.1351 68.0222 51.3222 68.1004 51.6028C68.1786 51.3222 68.4133 51.2287 68.2568 51.0416ZM53.0066 111.365C53.0066 111.365 53.0848 111.365 53.0848 111.459C53.163 111.459 53.2413 111.459 53.2413 111.459C53.163 111.459 53.0848 111.459 53.0066 111.365ZM53.2413 108.279C53.2413 108.279 53.2413 108.279 53.2413 108.185C53.2413 108.279 53.0848 108.185 53.0848 108.279C53.0848 108.185 53.163 108.185 53.2413 108.279ZM60.358 118.847C60.358 118.941 60.358 118.941 60.358 118.941C60.358 118.941 60.358 118.941 60.358 118.847ZM50.3476 95.653C50.2694 95.5595 50.2694 95.3725 50.1912 95.2789C50.1912 95.3725 50.1912 95.5595 50.3476 95.653ZM72.9492 128.293C72.871 128.2 72.871 128.106 72.871 128.106C72.871 128.2 72.871 128.2 72.871 128.2C72.871 128.293 72.871 128.293 72.9492 128.293ZM48.0796 94.5307C48.5489 94.4372 49.0963 94.6243 49.5656 94.1566C49.5656 94.0631 49.5656 94.1566 49.6438 94.1566C49.6438 94.0631 49.6438 94.1566 49.6438 94.1566C49.6438 94.0631 49.6438 94.0631 49.6438 94.0631C49.1745 94.5307 48.6271 94.6243 48.0796 94.5307ZM62.0785 69.8401V69.6531C62.0785 69.5596 62.0786 69.5596 62.0003 69.466C62.0786 69.5596 62.0785 69.6531 62.0785 69.8401ZM119.247 31.5884C119.325 31.4949 119.404 31.4949 119.404 31.4014C119.247 31.4014 119.091 31.4949 118.934 31.5884C119.091 31.5884 119.169 31.4949 119.247 31.5884ZM139.972 48.2359C139.972 47.8618 139.894 47.6747 139.659 47.5812C139.659 47.6747 139.503 47.7682 139.424 47.8618C139.737 47.7682 139.737 48.1423 139.972 48.2359ZM166.249 39.351C166.327 39.351 166.327 39.5381 166.406 39.5381C166.484 39.5381 166.484 39.5381 166.484 39.4445C166.406 39.4445 166.249 39.7251 166.249 39.351ZM170.472 41.6891C170.081 41.9697 169.768 41.6891 169.377 41.4086C169.299 41.4086 169.299 41.5021 169.221 41.4086C169.299 41.5021 169.377 41.5956 169.456 41.7827C169.847 41.7827 170.16 41.7827 170.472 41.6891C170.551 41.6891 170.629 41.7827 170.629 41.7827C170.785 41.6891 170.707 41.5956 170.707 41.4086C170.707 41.4086 170.707 41.4086 170.629 41.4086C170.629 41.5021 170.629 41.5956 170.472 41.6891ZM177.276 52.351C177.589 51.8833 178.606 51.6963 179.388 51.4157C179.31 51.4157 179.31 51.4157 179.231 51.4157C178.449 51.2287 177.746 51.5092 177.198 52.1639C177.12 52.2574 177.276 52.2574 177.276 52.351ZM165.389 47.1136C165.389 47.2071 165.389 47.2071 165.389 47.3006C165.389 47.3941 165.311 47.3941 165.311 47.4877C165.389 47.9553 165.702 48.0488 166.093 48.0488C165.702 47.7682 165.467 47.6747 165.389 47.1136ZM182.829 82.3725C182.829 82.279 182.751 82.279 182.751 82.1854C182.672 82.279 182.829 82.279 182.829 82.3725ZM179.779 89.4804C179.701 89.5739 179.544 89.5739 179.466 89.6674C179.544 89.6674 179.622 89.6674 179.779 89.6674C179.779 89.5739 179.779 89.5739 179.779 89.4804ZM188.929 89.948C188.851 89.948 188.773 89.948 188.773 89.761C188.694 89.761 188.616 89.761 188.538 89.761C188.538 89.948 188.773 89.948 188.929 89.948ZM181.108 96.3077C181.108 96.3077 181.187 96.3077 181.108 96.3077V96.3077ZM175.086 102.667C175.086 102.761 175.086 102.761 175.008 102.761C175.008 102.761 175.086 102.761 175.086 102.667ZM171.489 106.221C171.411 106.408 171.333 106.689 171.176 106.876C171.254 106.876 171.333 106.876 171.489 106.876C171.333 106.689 171.411 106.408 171.489 106.221ZM167.97 111.739C167.892 111.552 167.813 111.459 167.813 111.365C167.813 111.552 167.892 111.552 167.97 111.739C167.892 111.926 167.892 112.02 167.892 112.207C167.97 112.207 167.97 112.207 168.048 112.207C167.97 112.02 167.97 111.926 167.97 111.739ZM147.48 153.358C147.402 153.358 147.402 153.358 147.48 153.358V153.451V153.545C147.402 153.545 147.402 153.451 147.48 153.358ZM60.9837 124.178C60.9055 124.178 60.8272 124.178 60.749 124.178C60.5926 124.272 60.4362 124.178 60.2798 124.178V124.272C60.5144 124.272 60.749 124.272 60.9837 124.178C60.9837 124.272 60.9837 124.272 60.9837 124.178C60.9837 124.272 60.9837 124.178 60.9837 124.178ZM52.6156 116.322C52.5374 116.322 52.5374 116.322 52.6156 116.322C52.4592 116.229 52.5374 116.322 52.4592 116.322H52.381C52.381 116.322 52.3028 116.229 52.4592 116.509C52.5374 116.416 52.6156 116.416 52.6156 116.322ZM56.3695 70.4013C56.3695 70.4013 56.2913 70.4948 56.3695 70.5883C56.3695 70.4948 56.5259 70.4013 56.5259 70.3078C56.4477 70.3078 56.3695 70.3078 56.3695 70.4013ZM77.0159 32.0561C77.3288 31.4014 78.0326 31.869 78.5018 31.5884C78.0326 31.7755 77.5634 31.7755 77.1723 31.5884C77.1723 31.869 77.0159 31.869 77.0159 32.0561ZM111.114 29.905C111.27 29.905 111.427 30.1856 111.505 30.2791C111.661 30.1856 111.896 30.3726 111.974 30.092C111.661 29.9985 111.427 29.905 111.114 29.905ZM153.032 32.0561C153.189 32.1496 153.111 32.3366 153.189 32.5237C153.189 32.2431 153.423 32.4302 153.423 32.0561C153.267 32.0561 153.189 32.0561 153.032 32.0561ZM164.841 35.9841C164.92 36.0776 164.998 36.1712 165.076 36.2647C164.92 36.1712 164.92 36.0776 164.841 35.9841ZM188.851 44.4949C188.851 44.5884 188.851 44.5884 188.929 44.5884V44.4949C188.851 44.4949 188.851 44.4949 188.851 44.4949ZM190.962 76.2934C191.119 75.8257 190.884 75.4516 190.884 75.0775C190.728 75.8257 190.728 76.761 189.867 76.948C190.258 76.948 190.728 77.1351 190.962 76.2934ZM188.929 80.9696C188.929 81.0631 188.929 81.0631 188.929 80.9696C188.929 81.0631 188.929 81.0631 188.929 80.9696ZM187.834 82.3725C187.678 82.466 187.834 82.6531 187.756 82.7466C187.834 82.6531 187.834 82.5595 187.912 82.3725C187.912 82.3725 187.834 82.466 187.834 82.3725ZM188.225 85.6459C188.147 85.5523 188.147 85.4588 188.147 85.3653C187.991 85.4588 187.756 85.3653 187.756 85.6459C187.912 85.7394 188.069 85.6459 188.225 85.6459ZM182.751 86.5811C182.829 86.4876 182.829 86.3941 182.907 86.3005C182.829 86.3005 182.829 86.3005 182.829 86.3005L182.751 86.207C182.751 86.3005 182.829 86.3005 182.829 86.3005C182.829 86.4876 182.829 86.5811 182.751 86.5811ZM182.594 88.3581C182.438 88.2646 182.203 88.0775 182.125 87.8905C182.281 88.0775 182.36 88.3581 182.594 88.3581ZM164.529 115.013C164.685 115.013 164.841 115.106 164.998 115.2C164.998 115.106 164.998 115.106 164.998 115.013C164.841 115.013 164.685 115.013 164.529 115.013ZM167.892 135.401C167.97 135.401 167.97 135.401 167.97 135.401C167.892 135.401 167.892 135.401 167.892 135.401ZM180.248 137.459C180.092 137.459 179.935 137.552 179.779 137.552C180.326 137.552 180.796 137.646 181.187 137.833C180.874 137.739 180.639 137.459 180.248 137.459ZM176.416 138.581C176.416 138.487 176.416 138.487 176.416 138.394C176.338 138.487 176.26 138.487 176.181 138.581C176.26 138.581 176.338 138.581 176.416 138.581ZM166.171 154.574C166.093 154.387 166.093 154.293 166.015 154.2C165.936 154.2 165.936 154.2 165.858 154.2C165.936 154.293 166.015 154.48 165.936 154.574C166.015 154.574 166.093 154.574 166.171 154.574ZM157.412 154.106C157.49 154.106 157.568 154.106 157.725 154.106C157.568 154.013 157.412 153.919 157.334 153.639C157.412 153.732 157.412 153.919 157.412 154.106ZM105.327 145.876C105.327 145.689 105.248 145.502 105.248 145.315C105.327 145.502 105.405 145.689 105.327 145.876ZM94.1431 141.48C94.1431 141.387 94.1431 141.387 94.1431 141.293C94.1431 141.387 94.1431 141.48 94.1431 141.48ZM38.0692 111.365C37.5218 111.272 37.209 110.804 36.8179 110.43C37.1308 110.804 37.2872 111.365 37.7564 111.365C37.8346 111.272 37.9128 111.365 38.0692 111.365Z" fill="#151F41"/>
<path fill-rule="evenodd" clip-rule="evenodd" d="M204.3 84.0393V84.1357C204.3 84.1357 204.3 84.1357 204.3 84.0393C204.3 83.3645 204.493 82.4969 203.624 82.0149C203.431 81.9185 203.431 81.7257 203.528 81.5329C203.624 80.9545 203.528 80.376 202.852 80.0868V80.1832C202.465 79.7012 202.658 79.0264 201.982 78.8336L202.079 78.93C201.886 78.3516 201.982 77.7732 201.499 77.3876L201.306 77.1947L201.403 77.0019C201.693 74.1099 200.92 71.989 197.926 71.1214C197.153 70.9286 196.67 70.061 195.898 70.061V70.1573C195.898 69.6753 195.608 69.4825 195.222 69.4825C195.125 69.4825 195.029 69.3861 195.029 69.3861L195.222 69.4825C195.222 69.4825 195.222 69.4825 195.318 69.4825C195.125 68.9041 194.642 68.7113 194.063 68.6149C192.228 68.2293 190.876 67.2653 189.91 65.8192H189.813C190.2 65.53 190.972 65.6264 191.069 65.048C191.552 65.1444 191.745 64.9516 191.938 64.566L191.841 64.4696L191.938 64.566C192.517 64.2768 192.614 63.7948 192.711 63.2164L192.614 63.12C192.614 63.12 192.711 63.12 192.711 63.2164C193.29 63.12 193.966 63.2164 194.352 62.9272C195.318 62.3487 195.029 61.9631 194.063 61.7703C193.29 60.9027 192.131 60.9991 191.165 60.5171H191.262C190.972 60.1315 191.069 59.4567 190.489 59.1674L190.586 59.2639C190.682 58.3962 190.779 57.5286 190.972 56.661C191.455 54.2509 191.359 54.1545 188.654 53.6725C188.461 53.3833 188.268 53.0941 187.978 52.9013C186.819 51.166 185.95 49.1416 183.825 48.2739C183.536 47.6955 182.859 47.8883 182.473 47.5027V47.5991C181.797 47.0207 181.121 46.5387 180.348 46.2495C179.576 44.8035 178.32 44.6106 176.968 44.7071C176.775 44.8035 176.485 44.8035 176.485 44.7071C176.968 44.225 177.354 43.8394 177.741 43.3574L177.644 43.261V43.1646C177.644 43.261 177.644 43.3574 177.644 43.3574C180.059 42.2006 180.252 41.333 179.189 37.7661C179.093 37.1876 178.996 36.7056 178.513 36.4164L178.417 36.5128C178.417 36.4164 178.417 36.4164 178.513 36.4164C178.513 35.2596 178.224 34.2956 177.161 33.6207C177.161 33.1387 176.968 32.6567 176.485 32.2711C176.292 32.0783 176.002 31.7891 175.809 31.5963C175.809 31.6927 175.713 31.7891 175.616 31.8855C175.616 31.8855 175.616 31.8855 175.616 31.7891L175.809 31.5963C175.616 31.4035 175.326 31.1143 175.133 30.9215L174.94 31.0179C174.94 31.0179 175.037 30.9215 175.133 30.9215C174.843 29.1862 173.588 28.415 172.429 27.5474L172.236 27.6438C172.332 27.5474 172.332 27.5474 172.429 27.5474C172.429 26.1977 172.139 24.9445 171.077 23.8841C170.014 22.7272 167.89 21.7632 169.242 19.546C169.435 19.1604 168.855 18.7747 168.372 18.8711C167.6 19.0639 166.827 19.3532 166.055 19.4496C163.93 19.6424 162.771 18.3891 163.544 16.3647C164.22 14.7258 163.254 14.533 162.385 14.3402C161.419 14.051 160.356 14.1474 159.391 13.9546C159.391 14.051 159.391 14.051 159.391 14.051L159.487 13.9546C159.294 13.7618 159.004 13.569 158.811 13.2798L158.618 13.3762C158.618 13.3762 158.618 13.3762 158.618 13.2798C158.714 13.2798 158.714 13.2798 158.811 13.2798C159.294 12.5086 161.032 11.8337 158.715 11.1589C157.749 10.7733 156.976 9.80929 156.203 9.13448C156.107 9.23088 156.107 9.23088 156.01 9.23088L156.203 9.13448C156.01 7.88124 155.141 7.11002 154.175 6.4352L153.982 6.5316C153.982 6.4352 154.079 6.4352 154.175 6.4352C153.789 3.25392 150.698 0.458238 147.608 0.458238C149.443 0.651043 149.926 2.96471 151.471 3.35032C152.34 3.63953 152.244 4.31434 152.437 4.89276C151.278 2.8683 149.926 1.03665 147.608 0.458238L147.511 0.554641L147.318 0.458238C146.642 -0.409386 145.773 0.16903 145.193 0.458238C142.875 1.80788 140.461 1.80788 137.95 1.61507C132.541 1.22946 127.229 1.80788 121.918 2.38629C121.724 2.09708 121.531 2.09708 121.241 2.38629C121.145 2.5791 120.952 2.5791 120.759 2.38629C118.924 2.6755 116.895 1.51867 115.157 3.15751H115.254C114.481 3.06111 113.708 2.8683 113.129 3.63953C111.68 3.73593 110.231 3.63953 108.783 3.73593C107.237 3.92873 105.596 3.25391 104.243 4.31434C104.05 4.41075 103.761 4.41075 103.567 4.41075C103.084 4.60355 102.795 4.98916 102.698 5.47118C102.698 5.37477 102.698 5.27837 102.698 5.08557C102.988 4.79636 103.278 4.60355 103.567 4.31434C101.443 4.50715 99.2213 3.63953 97.3862 4.89276C97.1931 4.98916 97.0965 5.08557 96.9033 4.98916C95.4546 4.98916 94.0059 4.89276 92.6538 4.89276C91.2051 4.98916 89.6598 4.31434 88.5975 5.66398L88.4043 5.76038L88.2111 5.66398C84.8308 5.66398 81.4506 5.66398 78.0703 5.56758C77.201 5.56758 76.2352 5.37477 75.6558 6.3388C75.4626 6.2424 75.1729 6.2424 74.9797 6.2424C73.9173 5.08556 72.5652 5.47118 71.4062 5.76038C69.9575 6.2424 68.5088 6.2424 67.0601 6.3388C66.2875 6.62801 65.4183 6.62801 64.6456 6.3388C62.714 4.89276 60.4927 5.85679 58.3679 5.66398C58.3679 5.66398 58.3679 5.76038 58.4645 5.76038C57.4987 4.69995 56.05 5.76038 54.9876 4.98916H54.6013C54.0218 4.31434 52.9595 4.69995 52.2834 4.31434L51.9937 4.41075L51.8971 4.21794C51.4142 3.83233 50.9313 3.92873 50.4484 3.63953L50.545 3.73593C49.2894 2.6755 47.8407 3.25391 46.4886 2.96471C45.0399 2.09708 43.9775 2.6755 43.1083 3.73593C42.722 3.83233 42.5288 4.02514 42.3357 4.41075C42.3357 4.31434 42.3357 4.31434 42.3357 4.31434C41.563 4.21794 40.887 4.50715 40.4041 5.08557C39.5349 6.14599 40.1143 6.62801 41.0801 6.82081L40.9836 6.72441C41.1767 7.11002 41.3699 7.30283 41.7562 7.39923C41.563 8.26685 41.7562 9.42368 40.3075 9.52009C39.052 9.61649 38.8588 10.5805 38.8588 11.6409C39.5349 11.9302 40.2109 12.123 40.887 12.4122L41.0801 12.3158C41.0801 12.4122 40.9836 12.4122 40.9836 12.4122C40.9836 12.4122 40.887 12.5086 40.7904 12.5086C40.6938 13.569 40.0178 13.6654 39.1485 13.7618C34.7059 14.3402 30.1666 14.6294 25.6273 14.4366C23.6957 14.3402 21.9573 14.8222 19.8325 15.5935C21.2812 17.0395 22.9231 16.3647 24.4684 16.4611H24.7581L25.0479 16.6539C26.2068 17.8107 27.9453 16.7503 29.2008 17.5215C27.076 18.5819 24.9513 18.5819 22.8265 18.6783C22.6334 18.7747 22.5368 18.7747 22.247 18.5819C18.6736 17.3287 15.1001 18.0999 11.5267 18.0035C10.754 18.0035 10.754 18.7747 11.1404 19.2568C11.5267 19.7388 12.1062 20.2208 12.5891 20.6064C12.7822 20.6064 12.7822 20.51 12.9754 20.4136C12.9754 20.51 12.8788 20.4136 12.8788 20.51L12.6856 20.6064C12.1062 22.3416 11.913 24.2697 10.3677 25.6193C10.078 25.9085 10.3677 26.487 10.754 26.7762C10.2711 28.1258 9.59507 29.5718 10.8506 30.8251C11.0438 31.0179 11.2369 31.3071 11.4301 31.4999V31.4035C11.5267 31.4035 11.5267 31.4035 11.5267 31.4035C11.4301 31.5963 11.4301 31.5963 11.4301 31.5963C11.5267 32.0783 12.1062 31.9819 12.2027 32.2711C12.2993 32.3675 12.2993 32.4639 12.2993 32.4639C12.8788 33.2351 13.4583 33.8136 14.3275 34.1028V34.0064C14.907 35.0668 16.0659 35.0668 16.9351 35.5488C17.1283 35.838 17.5146 36.1272 17.9009 36.2236L18.1907 36.1272L18.2873 36.32C19.3496 37.5733 20.7983 37.6697 22.3436 37.7661L22.5368 37.5733C22.4402 37.6697 22.4402 37.6697 22.3436 37.7661C27.6555 39.9833 33.2572 40.6581 38.9554 40.3689C39.052 40.1761 38.7622 39.9833 38.7622 39.7905C38.7622 39.9833 38.8588 40.1761 38.9554 40.3689L39.2451 40.2725L39.4383 40.3689C38.9554 41.4294 37.4101 40.6581 36.734 41.7186L36.8306 41.9114H36.734C36.734 41.815 36.734 41.815 36.734 41.7186C34.3195 41.6222 32.0016 42.297 29.6837 42.8754C26.1102 43.743 22.8265 43.6466 19.5428 41.815C19.0599 42.297 18.577 41.9114 18.1907 41.7186C17.9975 41.5258 17.7078 41.333 17.5146 41.1402C17.3215 41.1402 17.1283 41.1402 16.8386 41.0438C16.5488 40.8509 16.3557 40.6581 16.0659 40.4653C15.8728 40.4653 15.583 40.4653 15.3899 40.4653H15.4864C15.1967 40.2725 15.0035 40.0797 14.7138 39.8869C14.5206 39.8869 14.3275 39.8869 14.0377 39.8869V39.6941C13.6514 39.5977 13.4583 39.3085 13.1685 39.2121C13.0719 39.3085 12.8788 39.3085 12.7822 39.2121C12.3959 39.3085 11.8164 39.0193 11.8164 39.6941C11.8164 40.1761 12.2993 40.3689 12.6856 40.4653C12.8788 40.4653 13.1685 40.4653 13.3617 40.6581C12.6856 41.0438 12.5891 41.7186 12.2993 42.1042H12.2027C12.1062 42.1042 12.2027 42.2006 12.1062 42.2006C11.8164 42.5862 11.2369 42.779 11.1404 43.5502C11.0438 45.4783 10.8506 47.5991 9.88481 49.4308C9.30533 50.4912 9.78823 51.3588 10.5609 52.1301C10.6575 52.7085 10.754 53.1905 11.3335 53.4797L11.5267 53.2869C11.5267 53.2869 11.5267 53.2869 11.6233 53.3833C11.5267 53.3833 11.4301 53.3833 11.2369 53.4797C11.2369 54.1545 11.6233 54.7329 11.913 55.3113C12.7822 55.3113 12.3959 54.6365 12.5891 54.1545V54.2509C12.2993 54.5401 12.2027 55.0221 11.913 55.3113C11.5267 55.3113 11.0438 55.4077 10.5609 55.4077C9.59507 55.3113 8.62927 55.2149 7.66347 55.2149C6.89083 55.3113 6.11819 54.8293 5.44214 55.1185C4.37976 55.6006 5.05582 55.8898 5.82845 56.0826H5.92503C7.08399 56.7574 8.33953 56.0826 9.30533 56.7574C10.1746 56.7574 11.0438 56.7574 11.8164 56.8538C12.2993 57.8178 13.4583 57.143 13.9412 58.0106C12.8788 58.589 11.4301 57.7214 10.4643 58.6854C10.2711 58.6854 9.98139 58.7818 9.78823 58.7818C9.59507 58.589 9.30533 58.589 9.20875 58.7818C8.91901 58.7818 8.62927 58.7818 8.43611 58.8782C5.82845 57.4322 3.51054 59.1674 1.09604 59.5531C0.516558 59.5531 -0.159501 59.7459 0.0336586 60.5171C0.0336586 61.0955 0.613138 61.4811 1.09604 61.4811C2.93106 61.5775 4.76608 61.5775 6.60109 61.5775C7.47031 61.5775 8.43611 61.6739 9.30533 61.6739C9.78823 62.2523 10.4643 62.2523 11.1404 62.2523C14.8104 62.4451 18.4804 62.7343 22.1505 63.0236C22.247 62.9272 22.247 62.8308 22.3436 62.7343C22.3436 62.7343 22.3436 62.7343 22.3436 62.8307C22.7299 62.9272 23.1163 63.0236 23.5026 63.0236C23.6957 63.2164 23.8889 63.0236 24.0821 63.0236C24.0821 63.12 24.1786 63.0236 24.2752 63.12C23.9855 63.12 23.7923 63.0236 23.5026 63.0236C23.5026 63.12 23.406 63.0236 23.406 63.12C23.1163 62.9271 22.8265 62.6379 22.3436 62.8307C22.247 62.9272 22.247 62.9272 22.0539 63.0236C21.0881 64.1804 19.736 63.5056 18.577 63.602C17.0317 63.8912 15.3899 63.12 14.0377 64.1804C13.8446 64.1804 13.5548 64.1804 13.2651 64.1804C12.4925 63.7948 11.6233 63.9876 10.754 63.9876C9.11217 63.8912 7.37373 63.7948 5.6353 63.6984C5.53872 63.7948 5.34556 63.6984 5.24898 63.602C4.95924 63.7948 4.76608 64.084 4.47634 64.2768C4.47634 64.2768 4.37976 64.3732 4.37976 64.4696C4.28318 64.6624 4.37976 64.8552 4.57292 64.9516L4.6695 64.8552C4.57292 65.1444 4.57292 65.3372 4.57292 65.6264C4.37976 65.9156 4.28318 66.2048 3.99344 66.3012C4.47634 67.0725 5.24898 66.9761 6.02161 66.9761C6.02161 67.1689 6.02161 67.4581 6.02161 67.6509H5.92503C5.53871 68.1329 5.53872 68.6149 6.1182 69.0005C6.79425 69.0969 7.37373 69.0969 8.04979 69.1933C8.62927 70.1573 9.01559 71.2178 9.88481 71.989C10.9472 72.7602 11.2369 72.1818 11.3335 71.2178H11.7198H12.1062C12.7822 71.025 13.3617 70.8322 13.9412 70.6394C14.5206 70.543 15.2933 70.543 15.2933 71.2178C15.2933 73.9171 17.2249 73.6278 18.9633 73.9171C20.0257 74.0135 21.2812 73.5314 21.6676 75.0739C21.2812 75.1703 20.7983 75.1703 20.412 75.2667C18.3838 75.2667 16.4522 75.2667 14.4241 75.3631C13.748 75.4595 13.0719 75.8451 13.1685 76.6163C13.2651 77.2911 13.9412 77.2911 14.4241 77.2911C14.8104 77.2911 15.1001 77.3876 15.4864 77.3876C15.583 78.0624 15.3899 78.93 16.2591 79.3156C16.5488 78.6408 16.5488 77.8696 16.1625 77.1947C16.0659 77.0983 15.8728 77.0983 15.7762 77.1947C15.7762 77.0983 15.7762 77.0983 15.8728 77.0983C15.9693 77.0983 15.9693 77.0983 15.9693 77.0983L16.1625 77.1947C16.3557 77.2911 16.5488 77.2911 16.8386 77.2911C16.3557 77.8696 16.1625 78.448 16.2591 79.2192C16.6454 79.2192 17.1283 79.2192 17.5146 79.2192C19.0599 79.9904 20.8949 78.93 22.3436 79.894C23.0197 79.894 23.6957 79.894 24.3718 79.894C26.1102 81.2437 28.0418 80.1832 29.8769 80.5688C30.4563 81.0508 31.3256 81.3401 31.905 81.9185C31.7119 82.4005 31.4221 82.6897 31.229 83.1717C31.0358 83.1717 30.8427 83.2681 30.6495 83.2681C29.2008 83.1717 27.6555 82.9789 27.8487 85.1962C27.3658 85.1962 26.9795 85.0998 26.4966 85.0998V85.5818C26.4 85.7746 26.5931 85.9674 26.6897 86.1602H26.5931C26.4966 85.9674 26.4966 85.7746 26.4966 85.5818C26.4966 85.5818 26.4966 85.389 26.6897 85.389C25.3376 84.7141 23.6957 83.7501 22.7299 84.2321C20.412 85.1962 18.1907 84.6177 15.9693 84.8105C15.3899 84.8105 14.6172 84.0393 13.8446 85.0034C15.4864 86.6422 17.418 86.1602 19.2531 86.1602C19.736 86.1602 20.0257 86.2566 20.5086 86.2566C21.571 86.9314 22.9231 86.1602 24.0821 86.835C24.7581 86.9314 25.3376 87.0278 26.0137 87.0278C27.7521 88.0882 29.6837 87.317 31.4221 87.6062C31.4221 87.5098 31.4221 87.5098 31.4221 87.5098V87.6062C32.4845 88.3774 33.6435 88.8595 34.9956 88.8595C34.899 88.6667 34.899 88.4739 34.899 88.2811H34.9956C34.899 88.4739 34.8024 88.7631 34.9956 88.8595C35.3819 88.9559 35.8648 89.0523 36.1546 89.0523C36.1546 89.1487 36.2511 89.2451 36.2511 89.4379C34.899 89.4379 33.4503 89.4379 32.0982 89.5343C31.905 89.4379 31.7119 89.1487 31.6153 89.1487C27.8487 88.9559 24.0821 88.7631 20.3154 88.5703C20.3154 88.5703 20.3154 88.7631 20.1223 89.1487C22.3436 89.7271 24.4684 90.4019 26.8829 90.2091C27.076 90.2091 27.2692 90.2091 27.3658 90.3055C29.2974 91.5587 31.4221 90.6911 33.5469 90.9803C34.223 91.0767 34.899 91.0767 35.5751 91.1731C35.6717 91.0767 35.6717 90.8839 35.6717 90.7875H35.7682C35.7682 90.9803 35.6717 91.0767 35.5751 91.1731C34.9956 91.6551 34.3195 91.5587 33.6435 91.6551C32.3879 91.9444 32.2914 92.6192 32.7743 93.6796C33.1606 93.6796 33.4503 93.5832 33.7401 93.5832H34.0298L34.223 93.6796C37.1204 95.1256 37.1204 95.1256 36.9272 98.4033C33.7401 97.0537 30.4563 97.3429 27.2692 96.4753C26.7863 96.4753 26.4 96.4753 25.9171 96.4753C26.2068 96.9573 26.4 97.3429 26.5931 97.8249H26.8829H27.076C27.5589 97.9213 28.0418 97.9213 28.4282 98.1141C29.2008 98.5961 30.6495 98.4033 30.5529 99.8494C30.4563 101.295 29.2974 101.585 28.1384 101.874C26.7863 102.163 25.5308 102.452 24.3718 103.223C21.8607 103.32 19.3496 103.705 16.2591 105.344C18.6736 105.344 20.2189 105.344 21.7641 105.344C21.9573 105.537 22.247 105.826 22.4402 106.019C22.4402 105.826 22.4402 105.537 22.4402 105.344C22.5368 105.344 22.5368 105.344 22.6334 105.344C22.5368 105.537 22.247 105.73 22.4402 106.019C22.6334 106.019 22.9231 106.019 23.1163 106.116C24.1786 106.79 24.565 108.236 26.4 107.754C27.3658 107.465 27.1726 108.815 27.2692 109.49C26.7863 109.972 26.6897 110.743 27.4624 110.743C30.4563 110.743 33.3537 111.032 36.2511 110.454C36.6375 110.55 37.0238 110.454 37.4101 110.357C37.4101 110.357 37.5067 110.357 37.6033 110.357C37.7964 110.261 38.0862 110.261 38.3759 110.261C38.6656 110.839 39.052 111.514 39.052 112.189C38.5691 112.189 38.1827 112.189 37.6998 112.189C37.5067 112.478 37.2169 112.671 37.0238 112.864C32.5811 112.575 28.235 113.924 23.7923 113.635C23.2128 113.539 22.9231 113.924 22.7299 114.31C21.2812 114.31 19.8325 114.31 18.3838 114.31C17.9975 114.31 17.5146 114.503 17.5146 114.985C17.418 115.467 17.7078 115.852 18.1907 115.949C18.577 116.141 18.9633 116.141 19.3496 116.141C20.2189 116.238 21.0881 116.334 21.9573 116.334C22.247 116.527 22.5368 116.623 22.7299 116.816C22.9231 116.72 23.2128 116.527 23.3094 116.431C23.1163 116.238 22.9231 116.141 22.7299 115.949C22.8265 115.949 22.8265 115.949 22.9231 115.949C22.9231 116.141 22.9231 116.527 23.406 116.431C23.5992 116.527 23.7923 116.623 23.8889 116.72C25.3376 118.455 26.3034 117.009 27.4624 116.238C27.6555 116.238 27.9453 116.238 28.1384 116.238C29.5871 117.491 31.229 116.527 32.8708 117.009C33.6435 117.877 34.8024 117.395 35.7682 117.78C36.4443 117.973 36.9272 118.455 36.8306 119.226C36.8306 120.094 36.1546 120.287 35.4785 120.287C33.2572 120.287 30.9392 120.383 28.7179 120.383C27.5589 120.383 26.5931 120.383 25.5308 120.383C25.3376 120.48 24.9513 120.48 24.7581 120.383C22.7299 119.033 20.5086 119.901 18.4804 119.612C18.3838 119.708 18.1907 119.708 18.0941 119.612C17.3215 119.805 16.4522 118.648 15.583 119.998C16.5488 120.287 17.3215 120.672 18.1907 120.962C18.3838 120.962 18.577 121.058 18.6736 121.058C18.6736 121.733 18.3838 121.926 17.6112 121.829C15.9693 121.733 15.9693 121.829 14.6172 123.082C16.8386 122.89 19.0599 123.661 20.7983 121.926C21.1847 121.54 22.0539 121.733 22.7299 121.733C23.1163 121.636 23.5992 121.636 23.9855 121.54C24.9513 121.636 25.8205 121.733 26.8829 121.829C27.4624 122.6 28.3316 122.408 29.1042 122.311L29.2974 122.215L29.4905 122.311C31.1324 122.504 32.7743 122.986 34.3195 122.311C35.4785 123.757 37.2169 122.89 38.5691 122.986H38.7622C42.2391 123.372 45.6194 122.793 49.0963 123.372C48.0339 125.203 47.551 125.492 46.5852 125.589C45.8125 125.685 44.9433 126.071 44.0741 125.782V125.878C39.1485 125.782 34.1264 125.782 29.2008 125.782C28.5247 125.782 27.9453 125.782 27.3658 125.685C27.3658 125.492 27.3658 125.3 27.3658 125.107C27.1726 125.3 26.8829 125.492 26.6897 125.685C26.4966 125.782 26.2068 125.782 26.0137 125.782C25.6273 126.167 25.4342 125.974 25.1444 125.782C24.6615 125.782 24.2752 125.782 23.8889 125.782C23.0197 125.107 21.9573 125.782 21.0881 125.107C20.8949 125.203 20.6052 125.107 20.5086 125.01C19.5428 124.239 18.3838 123.854 17.9975 125.396C17.6112 126.649 19.0599 126.36 19.8325 126.456H19.736C20.6052 127.228 21.7641 126.457 22.5368 127.131H22.8265L23.1163 127.228C23.9855 127.903 25.1444 127.228 26.0137 127.903H26.3034H26.5931C27.076 128.288 27.5589 128.674 28.235 129.156C27.3658 129.252 26.7863 129.252 26.1102 129.059C25.6273 128.867 25.241 128.963 25.0479 129.541C24.8547 130.023 25.241 130.313 25.7239 130.505C26.0137 130.698 26.4 130.698 26.6897 130.698H26.5931C27.076 131.084 27.6555 130.987 28.1384 131.277C28.5247 131.373 28.9111 131.373 29.2974 131.469C30.07 132.433 31.1324 131.951 32.0982 132.048C32.7743 132.144 33.4503 132.144 34.1264 132.144C35.6717 132.626 37.2169 132.53 38.8588 132.144C39.3417 132.144 39.8246 132.144 40.3075 132.144C40.6938 132.53 41.2733 132.433 41.6596 132.819C41.8528 132.819 42.1425 132.915 42.4323 132.915C42.8186 133.108 43.0117 132.819 43.3981 132.915C43.4946 133.012 43.2049 133.012 43.3015 133.108C44.557 133.012 45.9091 133.494 47.0681 132.819L47.3578 132.723H47.551C47.9373 132.53 48.1305 132.53 48.4202 132.723C48.6134 133.301 49.1928 133.397 49.7723 133.494C50.2552 134.169 50.7381 134.169 51.221 133.494C51.4142 133.301 51.7039 133.012 51.8971 132.915C51.9937 132.723 52.2834 132.723 52.4766 132.723C52.8629 132.819 53.4424 132.819 53.9253 132.915L54.0218 132.819C53.9253 132.819 53.9253 132.819 53.9253 132.915C55.0842 133.88 56.3398 133.397 57.6919 133.397C57.1124 133.205 56.5329 133.012 56.05 132.819C56.05 132.723 56.05 132.626 56.05 132.53C56.4363 133.108 57.1124 133.012 57.6919 133.397H57.7885C58.7543 133.59 59.7201 133.687 60.6859 133.783C62.3277 133.783 64.1627 133.976 65.5149 132.723C70.537 132.626 75.5592 133.397 80.5813 131.662C82.7061 130.987 85.3137 130.409 87.8248 131.277C89.3701 131.759 91.5914 132.144 92.1709 129.445C92.1709 129.349 92.0743 129.349 91.9778 129.252L92.1709 129.445C93.523 129.156 95.0683 129.831 96.3239 128.77C97.1931 128.577 98.2555 129.059 98.9315 127.999C99.511 127.71 100.09 127.613 100.67 127.903C101.056 127.903 101.153 127.71 100.96 127.324C100.863 127.517 100.767 127.71 100.67 127.903C101.732 127.903 102.891 128.385 103.664 127.324C103.181 127.324 102.795 127.228 102.312 127.228C102.408 127.131 102.602 127.228 102.795 127.131C103.084 127.324 103.374 127.517 103.664 127.324C104.05 127.131 104.437 127.035 104.919 127.228C106.272 127.903 107.527 128.577 108.59 126.649L108.493 126.553C108.493 126.553 108.493 126.553 108.59 126.553V126.649C112.066 127.035 114.771 124.239 118.248 123.95C119.6 123.661 121.145 124.432 122.4 123.275C122.4 123.179 122.207 123.082 122.207 123.082L122.4 123.275C122.883 123.179 123.463 123.082 123.656 122.6L123.559 122.408C123.559 122.408 123.559 122.408 123.656 122.408C123.656 122.504 123.656 122.6 123.656 122.697C126.167 122.697 128.582 122.215 130.61 120.672C130.513 120.576 130.417 120.48 130.417 120.48L130.61 120.672C131.093 120.576 131.576 120.48 131.962 119.901L131.769 119.805C131.769 119.805 131.865 119.901 131.962 119.901C132.638 119.901 133.507 119.998 133.893 119.226L134.087 119.033L134.28 119.13C134.956 118.648 136.018 119.13 136.598 118.359V118.455C137.274 117.973 138.143 118.551 138.626 117.78V117.877C142.779 118.359 145.966 116.141 149.057 114.021C149.733 113.828 150.602 114.021 150.988 113.249L150.892 113.153C150.988 113.153 150.988 113.153 150.988 113.153C150.988 113.153 150.988 113.153 150.988 113.249C155.624 112.671 159.487 110.068 163.35 107.851C163.35 107.754 163.254 107.658 163.157 107.562L163.35 107.851C163.833 107.754 164.413 107.658 164.702 107.176L164.509 106.983C164.509 106.983 164.606 106.983 164.702 106.983C164.702 107.08 164.702 107.176 164.702 107.272C165.861 106.887 167.214 106.694 168.083 105.923L167.986 105.73C167.986 105.826 167.986 105.826 167.986 105.923C170.208 105.73 172.043 104.959 173.491 103.127L173.395 102.934L173.491 103.127C175.326 102.163 177.354 101.777 178.996 100.428C178.9 100.331 178.9 100.235 178.803 100.235L178.996 100.428C179.479 100.331 180.059 100.235 180.252 99.6566L180.155 99.4638V99.3674C180.155 99.4638 180.155 99.5602 180.155 99.5602C181.894 99.6566 182.859 98.8853 183.632 97.5357L183.536 97.4393C183.536 97.4393 183.536 97.3429 183.632 97.3429C183.632 97.4393 183.632 97.4393 183.632 97.5357C186.047 97.6321 187.109 95.7041 188.461 94.1616L188.268 93.9688C188.365 94.0652 188.365 94.1616 188.461 94.258C190.489 93.1976 192.517 92.0407 194.835 91.4623C197.057 90.9803 199.181 90.2091 201.403 90.0163C204.107 89.7271 205.073 88.2811 204.976 85.9674C205.073 84.907 204.88 84.4249 204.3 84.0393ZM7.47031 60.4207C7.66347 60.3243 7.85663 60.3243 7.95321 60.1315C8.04979 60.2279 8.04979 60.3243 8.14637 60.3243C7.95321 60.6135 7.76005 60.4207 7.47031 60.4207ZM202.948 85.4854C202.658 86.1602 202.658 87.0278 201.789 87.317C201.403 87.5098 201.113 87.1242 200.727 87.1242C201.693 86.9314 202.369 86.353 202.948 85.4854ZM142.972 114.117C142.972 114.117 142.972 114.117 143.069 114.021C143.455 114.406 143.938 114.695 144.228 114.985C144.131 114.213 143.551 114.213 142.972 114.117ZM95.3581 126.939C95.4546 126.939 95.4546 126.746 95.5512 126.649C95.5512 126.746 95.4546 126.842 95.5512 127.035C95.4546 127.035 95.3581 126.939 95.3581 126.939ZM30.8427 18.3891C30.8427 18.4855 30.8427 18.4855 30.8427 18.4855C30.7461 18.4855 30.6495 18.4855 30.5529 18.4855C30.6495 18.3891 30.7461 18.4855 30.8427 18.3891ZM81.2574 129.252C81.1608 129.252 81.1608 129.349 81.0642 129.349C81.1608 129.252 81.1608 129.156 81.1608 129.156L81.2574 129.252ZM39.4383 89.5343H39.3417H39.4383ZM25.241 59.6495C25.241 59.6495 25.241 59.6495 25.241 59.5531C25.1444 59.5531 25.1444 59.5531 25.1444 59.5531C25.241 59.5531 25.241 59.5531 25.241 59.5531C25.1444 59.5531 25.241 59.5531 25.241 59.6495C25.3376 59.7459 25.3376 59.8423 25.4342 59.8423C25.3376 59.8423 25.3376 59.9387 25.3376 59.9387C25.3376 59.7459 25.241 59.7459 25.241 59.6495ZM14.3275 52.8049C14.3275 52.8049 14.2309 52.8049 14.3275 52.8049C14.3275 52.8049 14.3275 52.7085 14.3275 52.6121C14.6172 52.7085 14.907 52.8049 15.1967 52.8049C14.8104 52.9013 14.5206 52.5157 14.3275 52.8049ZM48.4202 120.865C48.4202 120.865 48.4202 120.865 48.3236 120.865C48.4202 120.865 48.4202 120.865 48.4202 120.865ZM41.7562 116.72C41.6596 116.623 41.563 116.623 41.563 116.623L41.7562 116.72C41.7562 116.816 41.7562 116.816 41.7562 116.816C41.7562 116.816 41.7562 116.816 41.7562 116.72ZM27.1726 66.3012C27.1726 66.494 27.1726 66.6869 27.1726 66.8797C27.2692 66.6869 27.076 66.494 26.9795 66.3012C27.1726 66.3012 27.1726 66.3012 27.1726 66.3012ZM48.4202 17.9071C48.4202 17.9071 48.4202 17.8107 48.4202 17.9071C48.3236 18.0035 48.4202 18.0035 48.3236 18.0999C48.3236 18.0035 48.4202 17.9071 48.3236 17.8107C48.3236 17.6179 48.4202 17.7143 48.4202 17.9071ZM59.5269 20.992C58.8508 21.1848 58.0782 21.2812 57.7885 20.7992C57.4987 20.51 57.9816 20.4136 58.1748 20.2208C58.5611 20.7028 59.044 20.992 59.5269 20.992ZM96.8068 8.55606C96.9033 8.45966 96.9999 8.45966 96.9033 8.36325C96.7102 7.97764 97.0965 8.45966 96.9999 8.55606C96.9033 8.55606 96.9033 8.55606 96.8068 8.55606ZM59.3337 96.3789C59.3337 96.3789 59.5269 96.3789 59.5269 96.4753C59.4303 96.4753 59.6235 96.5717 59.5269 96.5717C59.4303 96.4753 59.4303 96.3789 59.3337 96.3789ZM43.2049 53.3833C43.2049 53.4797 43.2049 53.5761 43.1083 53.6725C43.2049 53.5761 43.2049 53.4797 43.2049 53.3833ZM45.4262 49.9128C45.4262 49.8164 45.4262 49.8164 45.5228 49.8164C45.5228 49.8164 45.4262 49.8164 45.4262 49.9128ZM42.9152 52.3229C42.9152 52.2265 42.9152 52.2265 42.9152 52.3229C43.0117 52.2265 42.8186 52.1301 42.9152 52.0337C42.9152 52.0337 42.9152 52.2265 42.9152 52.3229ZM42.722 61.7703C42.6254 61.8667 42.6254 61.8667 42.6254 61.9631C42.6254 61.8667 42.6254 61.8667 42.6254 61.8667C42.722 61.8667 42.6254 61.7703 42.722 61.7703ZM45.0399 61.7703C45.1365 61.7703 45.2331 61.7703 45.3297 61.7703C45.2331 61.7703 45.1365 61.8667 44.9433 61.8667C45.0399 61.8667 45.1365 61.8667 45.0399 61.7703ZM46.392 61.5775C46.4886 61.6739 46.4886 61.6739 46.4886 61.6739C46.392 61.5775 46.392 61.5775 46.392 61.5775ZM33.1606 69.0005C33.064 69.0005 33.1606 69.0969 33.1606 69.0005C32.9674 69.0969 32.9674 68.9041 32.7743 68.9041C32.8708 69.0005 33.064 69.0005 33.1606 69.0005ZM122.883 15.2078C122.883 15.2078 122.98 15.2078 122.883 15.2078C122.98 15.2078 122.98 15.2078 123.076 15.2078C122.98 15.2078 122.98 15.2078 122.883 15.2078ZM145.773 13.6654C145.773 13.6654 145.869 13.569 145.773 13.6654C145.869 13.6654 145.773 13.6654 145.773 13.6654ZM132.928 7.39923C133.217 7.97764 133.7 8.45966 133.893 9.13448H133.797C133.893 8.45966 133.604 7.78484 132.928 7.39923ZM111.101 26.1013C111.101 26.6798 110.811 27.1618 111.101 27.933C110.328 27.6438 109.942 27.5474 109.362 27.2582C110.328 27.3546 111.004 27.0654 111.101 26.1013ZM59.4303 99.3674C59.3337 99.271 59.3337 99.3674 59.3337 99.4638C59.3337 99.3674 59.3337 99.3674 59.3337 99.3674C59.3337 99.3674 59.4303 99.271 59.4303 99.3674ZM55.9534 116.238C56.05 116.238 56.05 116.238 55.9534 116.238C56.05 116.238 55.9534 116.238 55.9534 116.238ZM61.4585 114.888C61.6517 114.503 61.5551 114.117 61.6517 113.828C61.7482 114.117 61.5551 114.503 61.6517 114.888H61.4585ZM60.6859 118.262C60.1064 118.262 59.5269 118.744 58.9474 118.937C59.6235 118.841 60.203 118.648 60.5893 118.069C60.5893 118.166 60.6859 118.262 60.6859 118.262ZM93.4265 119.612C93.0401 119.419 92.6538 119.708 92.2675 119.612C92.6538 119.612 93.0401 119.612 93.4265 119.612ZM75.7523 123.661C75.6558 123.661 75.6557 123.757 75.5592 123.757C75.6557 123.661 75.7523 123.564 75.7523 123.468C75.7523 123.468 75.7523 123.564 75.7523 123.661ZM73.7242 118.262C73.7242 118.166 73.7242 118.166 73.7242 118.262V118.262ZM70.8268 119.708C70.9233 119.708 71.0199 119.708 71.0199 119.708V119.612C71.0199 119.612 71.0199 119.612 71.1165 119.612C71.0199 119.612 71.0199 119.708 71.0199 119.708H70.8268ZM106.851 27.7402C106.851 27.8366 107.044 28.0294 106.948 28.1258C106.561 28.1258 106.561 28.0294 106.272 27.933C106.465 27.933 106.658 27.8366 106.851 27.7402ZM79.4224 117.105C79.4224 117.009 79.3258 117.105 79.2292 117.009C79.2292 117.009 79.4224 116.913 79.519 116.913C79.519 117.009 79.4224 117.009 79.4224 117.105ZM41.4665 105.537C41.4665 105.634 41.1767 105.73 40.9836 105.923C41.1767 105.73 41.4665 105.634 41.4665 105.537ZM52.1868 117.684C54.8911 117.78 57.5953 118.262 60.203 117.877C60.2995 117.877 60.2995 117.973 60.2995 117.973C57.6919 117.395 54.8911 117.395 52.1868 117.684ZM66.9636 124.239C66.867 124.239 66.7704 124.239 66.5772 124.239C66.6738 124.239 66.6738 124.239 66.6738 124.239C66.7704 124.239 66.867 124.239 66.9636 124.239ZM113.129 36.2236C113.129 36.5128 113.225 36.802 113.225 36.9948C113.225 36.7056 113.032 36.4164 113.129 36.2236ZM137.563 5.85679C137.66 5.95319 137.853 5.95319 138.046 6.04959H137.853C137.757 5.95319 137.66 6.04959 137.563 5.85679ZM87.9214 26.5834C87.7282 26.3905 87.3419 26.7762 87.1488 26.487C87.3419 26.2941 87.4385 26.1977 87.6317 26.1013C87.6317 26.1013 87.7282 26.0049 87.8248 25.9085C87.8248 26.2941 87.8248 26.3905 87.9214 26.5834ZM30.5529 46.5387C30.6495 46.5387 30.6495 46.5387 30.5529 46.5387C30.6495 46.5387 30.5529 46.5387 30.5529 46.5387ZM30.6495 46.5387C30.5529 46.5387 30.5529 46.5387 30.6495 46.5387C30.5529 46.5387 30.4563 46.5387 30.4563 46.4423C30.4563 46.5387 30.5529 46.5387 30.6495 46.5387ZM25.7239 71.8926C25.7239 71.8926 25.7239 71.8926 25.8205 71.8926C25.7239 71.8926 25.7239 71.8926 25.7239 71.8926ZM33.9332 72.6638C33.8366 72.6638 33.9332 72.6638 33.9332 72.6638V72.6638ZM40.2109 105.248C40.2109 105.344 40.2109 105.344 40.2109 105.441C40.1143 105.248 39.9212 105.344 39.8246 105.248C39.9212 105.248 40.0178 105.248 40.2109 105.248ZM40.2109 105.826C40.2109 105.923 40.2109 105.923 40.2109 106.019C40.2109 106.019 40.2109 106.019 40.1143 106.019C40.1143 105.923 40.1143 105.826 40.2109 105.826ZM55.2774 120.287C55.4705 120.672 55.5671 120.962 55.7603 121.251V121.347C55.8569 120.769 55.5671 120.48 55.1808 120.287H55.2774ZM88.018 125.878C88.018 125.878 88.018 125.974 88.018 126.071C88.018 125.974 88.018 125.974 88.018 125.878ZM140.171 17.8107C140.268 17.6179 140.268 17.5215 140.171 17.3287C140.364 17.2323 140.557 17.3287 140.654 17.2323C140.557 17.4251 140.364 17.5215 140.171 17.8107ZM50.2552 24.3661C50.0621 24.1733 50.2552 23.9805 50.2552 23.6913C50.4484 23.7877 50.6415 23.8841 50.8347 23.7877C50.6415 23.9805 50.545 24.2697 50.2552 24.3661ZM16.9351 53.3833C17.0317 53.5761 17.2249 53.8653 17.3215 54.0581C17.3215 54.1545 17.2249 54.1545 17.2249 54.2509C17.2249 54.3473 17.3215 54.3473 17.3215 54.3473C17.3215 54.7329 17.1283 54.8293 17.1283 54.5401C17.1283 54.4437 17.2249 54.3473 17.3215 54.1545C17.418 53.7689 17.1283 53.5761 16.9351 53.2869C16.742 53.3833 16.8386 53.3833 16.9351 53.3833ZM19.0599 56.8538C19.2531 56.7574 19.4462 56.661 19.5428 56.5646C19.4462 56.661 19.3496 56.7574 19.1565 56.8538H19.0599ZM39.8246 81.7257C39.9212 81.9185 40.1143 81.8221 40.2109 82.0149C40.1143 82.0149 40.1143 82.0149 39.9212 82.0149C39.9212 81.8221 39.8246 81.8221 39.8246 81.7257ZM43.0117 88.8595C42.9152 88.8595 42.8186 88.8595 42.722 88.8595C42.6254 88.2811 42.2391 88.2811 41.7562 88.2811C42.2391 88.4739 42.722 88.3774 43.0117 88.8595ZM46.9715 109.972C46.9715 109.972 46.8749 110.068 46.7784 110.068C46.8749 109.972 46.8749 109.972 46.9715 109.972ZM47.6476 112.767C47.6476 112.767 47.551 112.767 47.551 112.864C47.551 112.671 47.3578 112.671 47.3578 112.575C47.4544 112.575 47.551 112.575 47.6476 112.767ZM41.563 113.731V113.635C41.563 113.635 41.563 113.635 41.563 113.731ZM159.97 20.6064C159.873 20.6064 159.97 20.6064 159.97 20.6064C159.873 20.6064 159.584 20.8956 159.487 20.992C159.487 20.992 159.487 21.0884 159.294 21.0884C159.584 21.1848 159.777 20.7992 159.97 20.6064ZM163.93 25.8121C164.123 25.6193 164.413 25.8121 164.606 25.8121C164.413 25.9085 164.22 26.1013 164.123 26.3905C164.026 26.1013 163.737 26.0049 163.93 25.8121ZM182.763 87.9918C182.763 87.9918 182.666 87.9918 182.666 88.0882C182.57 88.0882 182.473 88.0882 182.473 88.0882C182.57 88.0882 182.666 88.0882 182.763 87.9918ZM182.473 84.8105C182.473 84.8105 182.473 84.8105 182.473 84.7141C182.473 84.8105 182.666 84.7141 182.666 84.8105C182.666 84.7141 182.57 84.7141 182.473 84.8105ZM173.684 95.704C173.684 95.8005 173.684 95.8005 173.684 95.8005C173.684 95.8005 173.684 95.8005 173.684 95.704ZM186.047 71.7962C186.143 71.6998 186.143 71.507 186.24 71.4106C186.24 71.507 186.24 71.6998 186.047 71.7962ZM158.135 105.441C158.232 105.344 158.232 105.248 158.232 105.248C158.232 105.344 158.232 105.344 158.232 105.344C158.232 105.441 158.232 105.441 158.135 105.441ZM188.847 70.6394C188.268 70.543 187.592 70.7358 187.012 70.2538C187.012 70.1573 187.012 70.2538 186.916 70.2538C186.916 70.1573 186.916 70.2538 186.916 70.2538C186.916 70.1573 186.916 70.1573 186.916 70.1573C187.495 70.6394 188.171 70.7358 188.847 70.6394ZM171.56 45.1891V44.9963C171.56 44.8999 171.56 44.8999 171.656 44.8035C171.56 44.8999 171.56 44.9963 171.56 45.1891ZM100.96 5.76038C100.863 5.66398 100.767 5.66398 100.767 5.56758C100.96 5.56758 101.153 5.66398 101.346 5.76038C101.153 5.76038 101.056 5.66398 100.96 5.76038ZM75.366 22.9201C75.366 22.5344 75.4626 22.3416 75.7523 22.2452C75.7523 22.3416 75.9455 22.438 76.0421 22.5344C75.6557 22.438 75.6558 22.8237 75.366 22.9201ZM42.9152 13.7618C42.8186 13.7618 42.8186 13.9546 42.722 13.9546C42.6254 13.9546 42.6254 13.9546 42.6254 13.8582C42.722 13.8582 42.9152 14.1474 42.9152 13.7618ZM37.6998 16.1719C38.1827 16.4611 38.5691 16.1719 39.052 15.8827C39.1485 15.8827 39.1485 15.9791 39.2451 15.8827C39.1485 15.9791 39.052 16.0755 38.9554 16.2683C38.4725 16.2683 38.0862 16.2683 37.6998 16.1719C37.6033 16.1719 37.5067 16.2683 37.5067 16.2683C37.3135 16.1719 37.4101 16.0755 37.4101 15.8827C37.4101 15.8827 37.4101 15.8827 37.5067 15.8827C37.5067 15.9791 37.5067 16.0755 37.6998 16.1719ZM29.2974 27.1618C28.9111 26.6798 27.6555 26.487 26.6897 26.1977C26.7863 26.1977 26.7863 26.1977 26.8829 26.1977C27.8487 26.0049 28.7179 26.2941 29.394 26.969C29.4905 27.0654 29.2974 27.0654 29.2974 27.1618ZM43.9775 21.7632C43.9775 21.8596 43.9775 21.8596 43.9775 21.956C43.9775 22.0524 44.0741 22.0524 44.0741 22.1488C43.9775 22.6308 43.5912 22.7272 43.1083 22.7272C43.5912 22.438 43.881 22.3416 43.9775 21.7632ZM22.4402 58.107C22.4402 58.0106 22.5368 58.0106 22.5368 57.9142C22.6334 58.0106 22.4402 58.0106 22.4402 58.107ZM26.2068 65.4336C26.3034 65.53 26.4966 65.53 26.5931 65.6264C26.4966 65.6264 26.4 65.6264 26.2068 65.6264C26.2068 65.53 26.2068 65.53 26.2068 65.4336ZM14.907 65.9156C15.0035 65.9156 15.1001 65.9156 15.1001 65.7228C15.1967 65.7228 15.2933 65.7228 15.3899 65.7228C15.3899 65.9156 15.1001 65.9156 14.907 65.9156ZM24.565 72.471C24.565 72.471 24.4684 72.471 24.565 72.471V72.471ZM32.0016 79.0264C32.0016 79.1228 32.0016 79.1228 32.0982 79.1228C32.0982 79.1228 32.0016 79.1228 32.0016 79.0264ZM36.4443 82.6897C36.5409 82.8825 36.6375 83.1717 36.8306 83.3645C36.734 83.3645 36.6375 83.3645 36.4443 83.3645C36.6375 83.1717 36.5409 82.8825 36.4443 82.6897ZM40.7904 88.3774C40.887 88.1846 40.9836 88.0882 40.9836 87.9918C40.9836 88.1846 40.887 88.1846 40.7904 88.3774C40.887 88.5703 40.887 88.6667 40.887 88.8595C40.7904 88.8595 40.7904 88.8595 40.6938 88.8595C40.7904 88.6667 40.7904 88.5703 40.7904 88.3774ZM66.0943 131.277C66.1909 131.277 66.1909 131.277 66.0943 131.277V131.373V131.469C66.1909 131.469 66.1909 131.373 66.0943 131.277ZM172.912 101.199C173.008 101.199 173.105 101.199 173.201 101.199C173.395 101.295 173.588 101.199 173.781 101.199V101.295C173.491 101.295 173.201 101.295 172.912 101.199C172.912 101.295 172.912 101.295 172.912 101.199C172.912 101.295 172.912 101.199 172.912 101.199ZM183.246 93.1012C183.342 93.1012 183.342 93.1012 183.246 93.1012C183.439 93.0048 183.342 93.1012 183.439 93.1012H183.536C183.536 93.1012 183.632 93.0048 183.439 93.294C183.342 93.1976 183.246 93.1976 183.246 93.1012ZM178.61 45.7675C178.61 45.7675 178.707 45.8639 178.61 45.9603C178.61 45.8639 178.417 45.7675 178.417 45.6711C178.513 45.6711 178.61 45.6711 178.61 45.7675ZM153.113 6.2424C152.727 5.56758 151.857 6.04959 151.278 5.76038C151.857 5.95319 152.437 5.95319 152.92 5.76038C152.92 6.04959 153.113 6.04959 153.113 6.2424ZM111.004 4.02514C110.811 4.02514 110.618 4.31434 110.521 4.41075C110.328 4.31434 110.038 4.50715 109.942 4.21794C110.328 4.12154 110.618 4.02514 111.004 4.02514ZM59.2372 6.2424C59.044 6.3388 59.1406 6.5316 59.044 6.72441C59.044 6.4352 58.7543 6.62801 58.7543 6.2424C58.9474 6.2424 59.044 6.2424 59.2372 6.2424ZM44.6536 10.2913C44.557 10.3877 44.4604 10.4841 44.3639 10.5805C44.557 10.4841 44.557 10.3877 44.6536 10.2913ZM15.0035 19.0639C15.0035 19.1604 15.0035 19.1604 14.907 19.1604V19.0639C15.0035 19.0639 15.0035 19.0639 15.0035 19.0639ZM12.3959 51.8408C12.2027 51.3588 12.4925 50.9732 12.4925 50.5876C12.6856 51.3588 12.6856 52.3229 13.748 52.5157C13.2651 52.5157 12.6856 52.7085 12.3959 51.8408ZM14.907 56.661C14.907 56.7574 14.907 56.7574 14.907 56.661C14.907 56.7574 14.907 56.7574 14.907 56.661ZM16.2591 58.107C16.4522 58.2034 16.2591 58.3962 16.3557 58.4926C16.2591 58.3962 16.2591 58.2998 16.1625 58.107C16.1625 58.107 16.2591 58.2034 16.2591 58.107ZM15.7762 61.4811C15.8728 61.3847 15.8728 61.2883 15.8728 61.1919C16.0659 61.2883 16.3557 61.1919 16.3557 61.4811C16.1625 61.5775 15.9693 61.4811 15.7762 61.4811ZM22.5368 62.4451C22.4402 62.3487 22.4402 62.2523 22.3436 62.1559C22.4402 62.1559 22.4402 62.1559 22.4402 62.1559L22.5368 62.0595C22.5368 62.1559 22.4402 62.1559 22.4402 62.1559C22.4402 62.3487 22.4402 62.4451 22.5368 62.4451ZM22.7299 64.2768C22.9231 64.1804 23.2128 63.9876 23.3094 63.7948C23.1163 63.9876 23.0197 64.2768 22.7299 64.2768ZM45.0399 91.7515C44.8467 91.7515 44.6536 91.8479 44.4604 91.9443C44.4604 91.8479 44.4604 91.8479 44.4604 91.7515C44.6536 91.7515 44.8467 91.7515 45.0399 91.7515ZM40.887 112.767C40.7904 112.767 40.7904 112.767 40.7904 112.767C40.887 112.767 40.887 112.767 40.887 112.767ZM25.6273 114.888C25.8205 114.888 26.0137 114.985 26.2068 114.985C25.5308 114.985 24.9513 115.081 24.4684 115.274C24.8547 115.177 25.1444 114.888 25.6273 114.888ZM30.3598 116.045C30.3598 115.949 30.3598 115.949 30.3598 115.852C30.4563 115.949 30.5529 115.949 30.6495 116.045C30.5529 116.045 30.4563 116.045 30.3598 116.045ZM43.0117 132.53C43.1083 132.337 43.1083 132.241 43.2049 132.144C43.3015 132.144 43.3015 132.144 43.3981 132.144C43.3015 132.241 43.2049 132.433 43.3015 132.53C43.2049 132.53 43.1083 132.53 43.0117 132.53ZM53.8287 132.048C53.7321 132.048 53.6355 132.048 53.4424 132.048C53.6355 131.951 53.8287 131.855 53.9253 131.566C53.8287 131.662 53.8287 131.855 53.8287 132.048ZM118.151 123.564C118.151 123.372 118.248 123.179 118.248 122.986C118.151 123.179 118.054 123.372 118.151 123.564ZM131.962 119.033C131.962 118.937 131.962 118.937 131.962 118.841C131.962 118.937 131.962 119.033 131.962 119.033ZM201.21 87.9918C201.886 87.8954 202.272 87.4134 202.755 87.0278C202.369 87.4134 202.175 87.9918 201.596 87.9918C201.499 87.8954 201.403 87.9918 201.21 87.9918Z" fill="#151F41"/>
<mask id="path-13-inside-1" fill="white">
<path d="M139.4 39.4C143.6 39.4 147.1 36 147.1 31.7C147.1 27.4 143.7 24 139.4 24C135.2 24 131.7 27.4 131.7 31.7C131.7 34.5 133.2 36.9 135.4 38.2L133.1 48.3C131.2 48.4 129.4 49.1 128.1 50.4L118.2 43.6C118.5 42.9 118.7 42.2 118.7 41.4C118.7 38.3 116.2 35.8 113.1 35.8C110 35.8 107.6 38.3 107.6 41.3C107.6 42.8 108.2 44.1 109.1 45.1L106.1 55.4C106.1 55.6 106.1 55.7 106.1 55.9C105.6 55.9 105.1 55.8 104.5 55.8C101.3 55.8 98.2 56.3 95.6 57.2L89.9 53.9C90.4 52.7 90.6 51.5 90.6 50.1C90.6 44.5 86 39.9 80.4 39.9C78.5 39.9 76.7 40.4 75.2 41.3L68.5 34.8C68.9 34 69.2 33.1 69.2 32.2C69.2 29.1 66.7 26.6 63.6 26.6C60.5 26.6 58 29.2 58 32.3C58 35.4 60.5 37.9 63.6 37.9C64.4 37.9 65.2 37.7 65.8 37.4L72.4 43.8C71 45.6 70.1 47.8 70.1 50.2C70.1 53.4 71.6 56.3 73.9 58.2L66.9 70C66.8 70 66.6 70 66.5 70C62.8 70 59.7 73 59.7 76.8C59.7 80.6 62.7 83.6 66.5 83.6C67.2 83.6 67.9 83.5 68.6 83.2C68.7 83.4 68.7 83.5 68.9 83.6L75.6 90.9C74.6 92.4 73.9 94.1 73.9 96C73.9 100.9 77.9 104.9 82.8 104.9C85.9 104.9 88.6 103.3 90.2 100.9L117.8 104.8C118.6 109.9 123 113.8 128.3 113.8C134.2 113.8 138.9 109 138.9 103.2C138.9 97.4 134.1 92.6 128.3 92.6C123.2 92.6 118.9 96.3 117.9 101.1L91.5 97.4C91.6 97 91.6 96.5 91.6 96.1C91.6 91.2 87.6 87.2 82.7 87.2C81 87.2 79.5 87.7 78.2 88.5L71.6 81.3C72.6 80.1 73.3 78.6 73.3 76.9C73.3 74.6 72.2 72.6 70.5 71.4L77.2 60.1C78.2 60.4 79.3 60.6 80.4 60.6C83.4 60.6 86.1 59.3 87.9 57.3L91.6 59.5C90.8 60 90.1 60.5 89.5 61.2C89.1 61.5 88.9 62 88.9 62.5C88.9 62.6 88.9 62.7 88.9 62.7C88.9 62.8 88.9 62.8 88.9 62.9V84.7C88.9 84.9 88.9 85.2 89 85.4C89.1 85.6 89.2 85.8 89.4 86C92.6 89.1 98.2 91 104.4 91C110.6 91 116.2 89.1 119.4 86C119.6 85.8 119.7 85.6 119.8 85.4C119.9 85.2 119.9 84.9 119.9 84.7V70.8L132.7 74.1C133 76.9 135.4 79.1 138.2 79.1C141.3 79.1 143.8 76.6 143.8 73.5C143.8 70.4 141.3 67.9 138.2 67.9C136.2 67.9 134.5 68.9 133.5 70.5L118.5 66.6C118.4 66.6 118.4 66.6 118.3 66.6C118.2 66.6 118.1 66.5 118 66.5C117 66.5 116.2 67.3 116.2 68.3V68.7C113.6 70.9 109.1 72.2 104.3 72.2C99.5 72.2 95 70.9 92.4 68.7V65.7C95.6 67.5 99.8 68.5 104.3 68.5C110.5 68.5 116.1 66.6 119.3 63.5C119.7 63.2 119.9 62.7 119.9 62.2C119.9 61.7 119.7 61.2 119.3 60.9C117 58.7 113.5 57.1 109.5 56.4L112.2 46.9C112.5 46.9 112.7 47 113 47C113.9 47 114.8 46.7 115.6 46.3L126 53.5C125.7 54.3 125.5 55.1 125.5 56C125.5 60.2 128.9 63.7 133.2 63.7C137.4 63.7 140.9 60.3 140.9 56C140.9 53 139.1 50.4 136.6 49.1L138.7 39.4C139 39.4 139.2 39.4 139.4 39.4ZM128.4 96.3C132.2 96.3 135.3 99.4 135.3 103.2C135.3 107 132.2 110.1 128.4 110.1C124.6 110.1 121.5 107 121.5 103.2C121.5 99.4 124.6 96.3 128.4 96.3ZM63.5 76.8C63.5 75.1 64.9 73.7 66.6 73.7C68.3 73.7 69.7 75.1 69.7 76.8C69.7 78.5 68.3 79.9 66.6 79.9C64.9 79.9 63.5 78.5 63.5 76.8ZM88.1 96.1C88.1 99 85.8 101.3 82.9 101.3C80 101.3 77.7 99 77.7 96.1C77.7 93.2 80 90.9 82.9 90.9C85.8 90.9 88.1 93.2 88.1 96.1ZM61.7 32.3C61.7 31.2 62.6 30.4 63.6 30.4C64.6 30.4 65.5 31.2 65.5 32.3C65.5 33.4 64.6 34.2 63.6 34.2C62.6 34.2 61.7 33.3 61.7 32.3ZM80.4 56.8C76.8 56.8 73.8 53.9 73.8 50.2C73.8 46.6 76.7 43.6 80.4 43.6C84.1 43.6 87 46.5 87 50.2C87 53.8 84 56.8 80.4 56.8ZM92.6 83.6V80.6C95.8 82.4 100 83.4 104.5 83.4C109 83.4 113.2 82.4 116.4 80.6V83.6C113.8 85.8 109.3 87.1 104.5 87.1C99.7 87.2 95.2 85.8 92.6 83.6ZM138.4 71.6C139.5 71.6 140.3 72.5 140.3 73.5C140.3 74.6 139.4 75.4 138.4 75.4C137.4 75.4 136.5 74.5 136.5 73.5C136.4 72.4 137.3 71.6 138.4 71.6ZM104.5 76C109 76 113.2 75 116.4 73.2V76.2C113.8 78.4 109.3 79.7 104.5 79.7C99.7 79.7 95.2 78.4 92.6 76.2V73.2C95.8 75 100 76 104.5 76ZM104.5 64.9C100.3 64.9 96.4 63.9 93.8 62.2C96.5 60.5 100.4 59.5 104.5 59.5C108.7 59.5 112.6 60.5 115.2 62.2C112.6 63.9 108.7 64.9 104.5 64.9ZM111.2 41.3C111.2 40.2 112.1 39.4 113.1 39.4C114.1 39.4 115.1 40.3 115.1 41.3C115.1 42.3 114.2 43.3 113.1 43.3C112 43.3 111.2 42.4 111.2 41.3ZM133.4 60C131.2 60 129.4 58.2 129.4 56C129.4 53.8 131.2 52 133.4 52C133.7 52 133.9 52 134.2 52.1C136 52.5 137.4 54.1 137.4 56C137.4 58.2 135.6 60 133.4 60ZM139.4 27.7C141.6 27.7 143.4 29.5 143.4 31.7C143.4 33.9 141.6 35.7 139.4 35.7C137.2 35.7 135.4 33.9 135.4 31.7C135.4 29.5 137.1 27.7 139.4 27.7Z"/>
</mask>
<path d="M139.4 39.4C143.6 39.4 147.1 36 147.1 31.7C147.1 27.4 143.7 24 139.4 24C135.2 24 131.7 27.4 131.7 31.7C131.7 34.5 133.2 36.9 135.4 38.2L133.1 48.3C131.2 48.4 129.4 49.1 128.1 50.4L118.2 43.6C118.5 42.9 118.7 42.2 118.7 41.4C118.7 38.3 116.2 35.8 113.1 35.8C110 35.8 107.6 38.3 107.6 41.3C107.6 42.8 108.2 44.1 109.1 45.1L106.1 55.4C106.1 55.6 106.1 55.7 106.1 55.9C105.6 55.9 105.1 55.8 104.5 55.8C101.3 55.8 98.2 56.3 95.6 57.2L89.9 53.9C90.4 52.7 90.6 51.5 90.6 50.1C90.6 44.5 86 39.9 80.4 39.9C78.5 39.9 76.7 40.4 75.2 41.3L68.5 34.8C68.9 34 69.2 33.1 69.2 32.2C69.2 29.1 66.7 26.6 63.6 26.6C60.5 26.6 58 29.2 58 32.3C58 35.4 60.5 37.9 63.6 37.9C64.4 37.9 65.2 37.7 65.8 37.4L72.4 43.8C71 45.6 70.1 47.8 70.1 50.2C70.1 53.4 71.6 56.3 73.9 58.2L66.9 70C66.8 70 66.6 70 66.5 70C62.8 70 59.7 73 59.7 76.8C59.7 80.6 62.7 83.6 66.5 83.6C67.2 83.6 67.9 83.5 68.6 83.2C68.7 83.4 68.7 83.5 68.9 83.6L75.6 90.9C74.6 92.4 73.9 94.1 73.9 96C73.9 100.9 77.9 104.9 82.8 104.9C85.9 104.9 88.6 103.3 90.2 100.9L117.8 104.8C118.6 109.9 123 113.8 128.3 113.8C134.2 113.8 138.9 109 138.9 103.2C138.9 97.4 134.1 92.6 128.3 92.6C123.2 92.6 118.9 96.3 117.9 101.1L91.5 97.4C91.6 97 91.6 96.5 91.6 96.1C91.6 91.2 87.6 87.2 82.7 87.2C81 87.2 79.5 87.7 78.2 88.5L71.6 81.3C72.6 80.1 73.3 78.6 73.3 76.9C73.3 74.6 72.2 72.6 70.5 71.4L77.2 60.1C78.2 60.4 79.3 60.6 80.4 60.6C83.4 60.6 86.1 59.3 87.9 57.3L91.6 59.5C90.8 60 90.1 60.5 89.5 61.2C89.1 61.5 88.9 62 88.9 62.5C88.9 62.6 88.9 62.7 88.9 62.7C88.9 62.8 88.9 62.8 88.9 62.9V84.7C88.9 84.9 88.9 85.2 89 85.4C89.1 85.6 89.2 85.8 89.4 86C92.6 89.1 98.2 91 104.4 91C110.6 91 116.2 89.1 119.4 86C119.6 85.8 119.7 85.6 119.8 85.4C119.9 85.2 119.9 84.9 119.9 84.7V70.8L132.7 74.1C133 76.9 135.4 79.1 138.2 79.1C141.3 79.1 143.8 76.6 143.8 73.5C143.8 70.4 141.3 67.9 138.2 67.9C136.2 67.9 134.5 68.9 133.5 70.5L118.5 66.6C118.4 66.6 118.4 66.6 118.3 66.6C118.2 66.6 118.1 66.5 118 66.5C117 66.5 116.2 67.3 116.2 68.3V68.7C113.6 70.9 109.1 72.2 104.3 72.2C99.5 72.2 95 70.9 92.4 68.7V65.7C95.6 67.5 99.8 68.5 104.3 68.5C110.5 68.5 116.1 66.6 119.3 63.5C119.7 63.2 119.9 62.7 119.9 62.2C119.9 61.7 119.7 61.2 119.3 60.9C117 58.7 113.5 57.1 109.5 56.4L112.2 46.9C112.5 46.9 112.7 47 113 47C113.9 47 114.8 46.7 115.6 46.3L126 53.5C125.7 54.3 125.5 55.1 125.5 56C125.5 60.2 128.9 63.7 133.2 63.7C137.4 63.7 140.9 60.3 140.9 56C140.9 53 139.1 50.4 136.6 49.1L138.7 39.4C139 39.4 139.2 39.4 139.4 39.4ZM128.4 96.3C132.2 96.3 135.3 99.4 135.3 103.2C135.3 107 132.2 110.1 128.4 110.1C124.6 110.1 121.5 107 121.5 103.2C121.5 99.4 124.6 96.3 128.4 96.3ZM63.5 76.8C63.5 75.1 64.9 73.7 66.6 73.7C68.3 73.7 69.7 75.1 69.7 76.8C69.7 78.5 68.3 79.9 66.6 79.9C64.9 79.9 63.5 78.5 63.5 76.8ZM88.1 96.1C88.1 99 85.8 101.3 82.9 101.3C80 101.3 77.7 99 77.7 96.1C77.7 93.2 80 90.9 82.9 90.9C85.8 90.9 88.1 93.2 88.1 96.1ZM61.7 32.3C61.7 31.2 62.6 30.4 63.6 30.4C64.6 30.4 65.5 31.2 65.5 32.3C65.5 33.4 64.6 34.2 63.6 34.2C62.6 34.2 61.7 33.3 61.7 32.3ZM80.4 56.8C76.8 56.8 73.8 53.9 73.8 50.2C73.8 46.6 76.7 43.6 80.4 43.6C84.1 43.6 87 46.5 87 50.2C87 53.8 84 56.8 80.4 56.8ZM92.6 83.6V80.6C95.8 82.4 100 83.4 104.5 83.4C109 83.4 113.2 82.4 116.4 80.6V83.6C113.8 85.8 109.3 87.1 104.5 87.1C99.7 87.2 95.2 85.8 92.6 83.6ZM138.4 71.6C139.5 71.6 140.3 72.5 140.3 73.5C140.3 74.6 139.4 75.4 138.4 75.4C137.4 75.4 136.5 74.5 136.5 73.5C136.4 72.4 137.3 71.6 138.4 71.6ZM104.5 76C109 76 113.2 75 116.4 73.2V76.2C113.8 78.4 109.3 79.7 104.5 79.7C99.7 79.7 95.2 78.4 92.6 76.2V73.2C95.8 75 100 76 104.5 76ZM104.5 64.9C100.3 64.9 96.4 63.9 93.8 62.2C96.5 60.5 100.4 59.5 104.5 59.5C108.7 59.5 112.6 60.5 115.2 62.2C112.6 63.9 108.7 64.9 104.5 64.9ZM111.2 41.3C111.2 40.2 112.1 39.4 113.1 39.4C114.1 39.4 115.1 40.3 115.1 41.3C115.1 42.3 114.2 43.3 113.1 43.3C112 43.3 111.2 42.4 111.2 41.3ZM133.4 60C131.2 60 129.4 58.2 129.4 56C129.4 53.8 131.2 52 133.4 52C133.7 52 133.9 52 134.2 52.1C136 52.5 137.4 54.1 137.4 56C137.4 58.2 135.6 60 133.4 60ZM139.4 27.7C141.6 27.7 143.4 29.5 143.4 31.7C143.4 33.9 141.6 35.7 139.4 35.7C137.2 35.7 135.4 33.9 135.4 31.7C135.4 29.5 137.1 27.7 139.4 27.7Z" fill="white" stroke="#151F41" stroke-width="1.2" mask="url(#path-13-inside-1)"/>
<circle cx="80.5" cy="50.5" r="7.5" fill="white"/>
<path d="M92.2008 83.6V83.7855L92.3424 83.9054C95.0365 86.185 99.6397 87.6005 104.505 87.5C109.357 87.4992 113.962 86.1879 116.659 83.9054L116.801 83.7855V83.6V80.6V79.9161L116.205 80.2514C113.076 82.0114 108.946 83 104.501 83C100.055 83 95.9258 82.0114 92.7969 80.2514L92.2008 79.9161V80.6V83.6ZM116.801 73.2V72.5161L116.205 72.8514C113.076 74.6114 108.946 75.6 104.501 75.6C100.055 75.6 95.9258 74.6114 92.7969 72.8514L92.2008 72.5161V73.2V76.2V76.3855L92.3424 76.5054C95.0408 78.7886 99.6473 80.1 104.501 80.1C109.354 80.1 113.961 78.7886 116.659 76.5054L116.801 76.3855V76.2V73.2ZM93.5877 61.8615L93.0601 62.1936L93.5819 62.5348C96.2649 64.2891 100.248 65.3 104.501 65.3C108.754 65.3 112.737 64.2891 115.42 62.5348L115.932 62.2L115.42 61.8652C112.737 60.1109 108.754 59.1 104.501 59.1C100.345 59.1 96.366 60.1122 93.5877 61.8615Z" fill="#60FEB2" stroke="#60FEB2" stroke-width="0.8"/>
</svg>
