<svg width="224" height="147" viewBox="0 0 224 147" fill="none" xmlns="http://www.w3.org/2000/svg">
<path fill-rule="evenodd" clip-rule="evenodd" d="M48.1719 4.30645H48.2766V4.20142L48.1719 4.30645Z" fill="#151F41"/>
<path fill-rule="evenodd" clip-rule="evenodd" d="M30.684 100.834C30.1604 100.94 29.7415 101.15 29.8462 101.78C29.8462 102.305 30.3698 102.62 30.7887 102.725C31.3123 102.83 31.6265 102.305 31.6265 101.78C31.7312 101.255 31.3123 100.94 30.684 100.834Z" fill="#151F41"/>
<path fill-rule="evenodd" clip-rule="evenodd" d="M183.473 18.3812C182.531 18.1711 181.798 18.0661 181.379 18.5913C181.169 18.6963 181.274 19.2215 181.379 19.2215C182.112 19.7467 182.635 19.2215 183.473 18.3812Z" fill="#151F41"/>
<path fill-rule="evenodd" clip-rule="evenodd" d="M25.8665 106.717C25.4476 106.717 25.0287 106.822 25.1335 107.137C25.3429 107.767 25.9712 107.872 26.5996 107.977C26.7043 107.767 27.1232 107.662 27.1232 107.557C27.0185 106.822 26.3901 106.822 25.8665 106.717Z" fill="#151F41"/>
<path fill-rule="evenodd" clip-rule="evenodd" d="M12.4612 134.971C11.9376 134.971 11.5187 134.971 10.9951 134.971C10.5762 135.076 9.94788 135.076 10.0526 135.601C10.262 136.337 10.9951 136.442 11.6234 136.442C11.9376 136.442 12.2518 136.547 12.4612 136.547C12.6707 136.757 12.9848 136.757 13.1943 136.442C13.4037 136.442 13.7179 136.442 13.9273 136.442C13.9273 136.442 14.032 136.337 14.032 136.232C14.1368 136.022 14.032 135.917 13.9273 135.706C13.6131 135.286 12.8801 135.496 12.4612 134.971Z" fill="#151F41"/>
<path fill-rule="evenodd" clip-rule="evenodd" d="M31.2072 134.551C30.6836 134.551 30.4742 134.761 30.5789 135.181C30.5789 135.601 30.7884 136.022 31.1025 136.442C31.312 136.127 31.6261 135.916 31.7309 135.706C31.8356 135.286 31.7309 134.761 31.2072 134.551Z" fill="#151F41"/>
<path fill-rule="evenodd" clip-rule="evenodd" d="M25.0293 140.538C25.2387 140.748 25.5529 140.958 25.7624 141.168C26.0765 141.378 26.3907 141.273 26.3907 140.958C26.4954 140.538 26.0765 140.328 25.6576 140.328C25.3435 140.328 25.134 140.433 25.0293 140.538Z" fill="#151F41"/>
<path fill-rule="evenodd" clip-rule="evenodd" d="M187.243 21.0071C187.034 20.9021 186.824 20.9021 186.51 20.692C186.51 20.9021 186.406 21.1122 186.301 21.3222C186.51 21.4273 186.824 21.6373 186.929 21.5323C187.034 21.5323 187.139 21.2172 187.243 21.0071Z" fill="#151F41"/>
<path fill-rule="evenodd" clip-rule="evenodd" d="M3.66526 74.0503C2.51332 73.6302 1.46611 72.6848 0 74.1553C1.25666 75.1007 2.51332 74.6805 3.66526 74.7855C3.97943 74.7855 4.18887 74.7856 4.39832 74.8906C4.92193 75.2057 5.34081 75.2057 5.86442 74.7855C5.86442 74.7855 5.96914 74.6805 5.96914 74.5755C6.07387 74.3654 5.96914 74.2604 5.7597 74.0503C5.13137 74.0503 4.39832 74.0503 3.66526 74.0503Z" fill="#151F41"/>
<path fill-rule="evenodd" clip-rule="evenodd" d="M9.52901 114.699C9.52901 114.699 9.73845 114.594 9.73845 114.489C9.63373 114.279 9.42429 114.279 9.21484 114.489C9.31957 114.594 9.42429 114.699 9.52901 114.699Z" fill="#151F41"/>
<path fill-rule="evenodd" clip-rule="evenodd" d="M223.058 91.8014V91.9065C223.058 91.9065 223.058 91.9065 223.058 91.8014C223.058 91.0662 223.268 90.1208 222.325 89.5957C222.116 89.4906 222.116 89.2806 222.221 89.0705C222.325 88.4403 222.221 87.8101 221.488 87.495V87.6C221.069 87.0748 221.278 86.3396 220.545 86.1295L220.65 86.2345C220.44 85.6043 220.545 84.9741 220.021 84.5539L219.812 84.3439L219.917 84.1338C220.231 80.9827 219.393 78.6719 216.147 77.7266C215.309 77.5165 214.785 76.5712 213.948 76.5712V76.6762C213.948 76.1511 213.633 75.941 213.214 75.941C213.11 75.941 213.005 75.836 213.005 75.836L213.214 75.941C213.214 75.941 213.214 75.941 213.319 75.941C213.11 75.3108 212.586 75.1007 211.958 74.9957C209.968 74.5755 208.502 73.5252 207.455 71.9496H207.35C207.769 71.6345 208.607 71.7395 208.711 71.1093C209.235 71.2144 209.444 71.0043 209.654 70.5842L209.549 70.4791L209.654 70.5842C210.282 70.2691 210.387 69.7439 210.492 69.1137L210.387 69.0086C210.387 69.0086 210.492 69.0086 210.492 69.1137C211.12 69.0086 211.853 69.1137 212.272 68.7985C213.319 68.1683 213.005 67.7482 211.958 67.5381C211.12 66.5928 209.863 66.6978 208.816 66.1726H208.921C208.607 65.7525 208.711 65.0173 208.083 64.7021L208.188 64.8072C208.293 63.8619 208.397 62.9165 208.607 61.9712C209.13 59.3453 209.026 59.2403 206.093 58.7151C205.884 58.4 205.675 58.0849 205.36 57.8748C204.104 55.9842 203.161 53.7784 200.857 52.8331C200.543 52.2029 199.81 52.4129 199.391 51.9928V52.0978C198.658 51.4676 197.925 50.9424 197.087 50.6273C196.25 49.0518 194.888 48.8417 193.422 48.9467C193.213 49.0518 192.898 49.0518 192.898 48.9467C193.422 48.4216 193.841 48.0014 194.26 47.4762L194.155 47.3712V47.2662C194.155 47.3712 194.155 47.4762 194.155 47.4762C196.773 46.2158 196.983 45.2705 195.831 41.3842C195.726 40.7539 195.621 40.2288 195.098 39.9137L194.993 40.0187C194.993 39.9137 194.993 39.9137 195.098 39.9137C195.098 38.6532 194.783 37.6029 193.631 36.8676C193.631 36.3424 193.422 35.8173 192.898 35.3971C192.689 35.187 192.375 34.8719 192.165 34.6619C192.165 34.7669 192.061 34.8719 191.956 34.977C191.956 34.977 191.956 34.977 191.956 34.8719L192.165 34.6619C191.956 34.4518 191.642 34.1367 191.432 33.9266L191.223 34.0316C191.223 34.0316 191.328 33.9266 191.432 33.9266C191.118 32.036 189.757 31.1957 188.5 30.2503L188.291 30.3554C188.395 30.2503 188.395 30.2503 188.5 30.2503C188.5 28.7798 188.186 27.4144 187.034 26.259C185.882 24.9985 183.578 23.9482 185.044 21.5324C185.254 21.1122 184.625 20.6921 184.102 20.7971C183.264 21.0072 182.426 21.3223 181.588 21.4273C179.285 21.6374 178.028 20.2719 178.866 18.0662C179.599 16.2806 178.552 16.0705 177.609 15.8604C176.562 15.5453 175.41 15.6503 174.363 15.4403C174.363 15.5453 174.363 15.5453 174.363 15.5453L174.467 15.4403C174.258 15.2302 173.944 15.0201 173.734 14.705L173.525 14.8101C173.525 14.8101 173.525 14.8101 173.525 14.705C173.63 14.705 173.63 14.705 173.734 14.705C174.258 13.8647 176.143 13.1295 173.63 12.3942C172.582 11.9741 171.745 10.9237 170.907 10.1885C170.802 10.2935 170.802 10.2935 170.697 10.2935L170.907 10.1885C170.697 8.82301 169.755 7.98272 168.708 7.24747L168.498 7.3525C168.498 7.24747 168.603 7.24747 168.708 7.24747C168.289 3.78128 164.938 0.735237 161.587 0.735237C163.576 0.945309 164.1 3.46617 165.775 3.88632C166.718 4.20142 166.613 4.93668 166.823 5.56689C165.566 3.36114 164.1 1.36545 161.587 0.735237L161.482 0.840273L161.272 0.735237C160.539 -0.210086 159.597 0.42013 158.969 0.735237C156.455 2.20574 153.837 2.20574 151.114 1.99567C145.25 1.57553 139.49 2.20574 133.731 2.83596C133.521 2.52085 133.312 2.52085 132.998 2.83596C132.893 3.04603 132.683 3.04603 132.474 2.83596C130.484 3.15106 128.285 1.89063 126.4 3.67624H126.505C125.667 3.57121 124.829 3.36114 124.201 4.20142C122.63 4.30646 121.059 4.20142 119.488 4.30646C117.813 4.51653 116.033 3.78128 114.567 4.93668C114.357 5.04171 114.043 5.04171 113.833 5.04171C113.31 5.25178 112.996 5.67193 112.891 6.19711C112.891 6.09207 112.891 5.98704 112.891 5.77696C113.205 5.46186 113.519 5.25178 113.833 4.93668C111.53 5.14675 109.121 4.20142 107.131 5.56689C106.922 5.67193 106.817 5.77696 106.608 5.67193C105.037 5.67193 103.466 5.56689 102 5.56689C100.429 5.67193 98.7535 4.93668 97.6016 6.40718L97.3921 6.51222L97.1827 6.40718C93.5174 6.40718 89.8522 6.40718 86.1869 6.30214C85.2444 6.30214 84.1972 6.09207 83.5688 7.14243C83.3594 7.0374 83.0452 7.0374 82.8358 7.0374C81.6839 5.77696 80.2178 6.19711 78.9611 6.51222C77.3903 7.0374 75.8194 7.0374 74.2486 7.14243C73.4108 7.45754 72.4683 7.45754 71.6306 7.14243C69.5361 5.56689 67.1275 6.61725 64.8236 6.40718C64.8236 6.40718 64.8236 6.51222 64.9284 6.51222C63.8811 5.35682 62.3103 6.51222 61.1584 5.67193H60.7395C60.1112 4.93668 58.9592 5.35682 58.2262 4.93668L57.912 5.04171L57.8073 4.83164C57.2837 4.4115 56.7601 4.51653 56.2365 4.20142L56.3412 4.30646C54.9798 3.15106 53.409 3.78128 51.9429 3.46617C50.372 2.52085 49.2201 3.15106 48.2776 4.30646C47.8587 4.4115 47.6493 4.62157 47.4398 5.04171C47.4398 4.93668 47.4398 4.93668 47.4398 4.93668C46.602 4.83164 45.869 5.14675 45.3454 5.77696C44.4029 6.93236 45.0312 7.45754 46.0784 7.66761L45.9737 7.56258C46.1832 7.98272 46.3926 8.19279 46.8115 8.29783C46.602 9.24315 46.8115 10.5036 45.2407 10.6086C43.8793 10.7137 43.6698 11.764 43.6698 12.9194C44.4029 13.2345 45.1359 13.4446 45.869 13.7597L46.0784 13.6547C46.0784 13.7597 45.9737 13.7597 45.9737 13.7597C45.9737 13.7597 45.869 13.8647 45.7643 13.8647C45.6595 15.0201 44.9265 15.1252 43.984 15.2302C39.1668 15.8604 34.2449 16.1755 29.3229 15.9655C27.2285 15.8604 25.3435 16.3856 23.0396 17.2259C24.6105 18.8014 26.3907 18.0662 28.0663 18.1712H28.3804L28.6946 18.3813C29.9513 19.6417 31.8363 18.4863 33.1976 19.3266C30.8938 20.482 28.5899 20.482 26.286 20.587C26.0766 20.6921 25.9718 20.6921 25.6577 20.482C21.783 19.1165 17.9083 19.9568 14.0335 19.8518C13.1958 19.8518 13.1958 20.6921 13.6147 21.2173C14.0336 21.7424 14.6619 22.2676 15.1855 22.6878C15.3949 22.6878 15.3949 22.5827 15.6044 22.4777C15.6044 22.5827 15.4997 22.4777 15.4997 22.5827L15.2902 22.6878C14.6619 24.5784 14.4524 26.6791 12.7769 28.1496C12.4627 28.4647 12.7769 29.0949 13.1958 29.4101C12.6722 30.8806 11.9391 32.4561 13.3005 33.8216C13.5099 34.0316 13.7194 34.3467 13.9288 34.5568V34.4518C14.0336 34.4518 14.0335 34.4518 14.0335 34.4518C13.9288 34.6619 13.9288 34.6619 13.9288 34.6619C14.0336 35.187 14.6619 35.082 14.7666 35.3971C14.8713 35.5021 14.8713 35.6072 14.8713 35.6072C15.4997 36.4475 16.128 37.0777 17.0705 37.3928V37.2878C17.6988 38.4431 18.9555 38.4431 19.898 38.9683C20.1074 39.2834 20.5263 39.5985 20.9452 39.7036L21.2594 39.5985L21.3641 39.8086C22.516 41.1741 24.0868 41.2791 25.7624 41.3842L25.9718 41.1741C25.8671 41.2791 25.8671 41.2791 25.7624 41.3842C31.5221 43.8 37.596 44.5352 43.7746 44.2201C43.8793 44.0101 43.5651 43.8 43.5651 43.5899C43.5651 43.8 43.6698 44.0101 43.7746 44.2201L44.0887 44.1151L44.2982 44.2201C43.7746 45.3755 42.099 44.5352 41.3659 45.6906L41.4707 45.9007H41.3659C41.3659 45.7957 41.3659 45.7957 41.3659 45.6906C38.7479 45.5856 36.2346 46.3209 33.7213 46.9511C29.8465 47.8964 26.286 47.7914 22.7255 45.7957C22.2019 46.3208 21.6782 45.9007 21.2594 45.6906C21.0499 45.4806 20.7357 45.2705 20.5263 45.0604C20.3169 45.0604 20.1074 45.0604 19.7933 44.9554C19.4791 44.7453 19.2696 44.5352 18.9555 44.3252C18.746 44.3252 18.4319 44.3252 18.2224 44.3252H18.3271C18.013 44.1151 17.8035 43.905 17.4894 43.6949C17.2799 43.6949 17.0705 43.6949 16.7563 43.6949V43.4849C16.3374 43.3798 16.128 43.0647 15.8138 42.9597C15.7091 43.0647 15.4997 43.0647 15.3949 42.9597C14.976 43.0647 14.3477 42.7496 14.3477 43.4849C14.3477 44.0101 14.8713 44.2201 15.2902 44.3252C15.4997 44.3252 15.8138 44.3252 16.0233 44.5352C15.2902 44.9554 15.1855 45.6906 14.8713 46.1108H14.7666C14.6619 46.1108 14.7666 46.2158 14.6619 46.2158C14.3477 46.636 13.7194 46.846 13.6147 47.6863C13.5099 49.787 13.3005 52.0978 12.2533 54.0935C11.6249 55.2489 12.1486 56.1942 12.9863 57.0345C13.0911 57.6647 13.1958 58.1899 13.8241 58.505L14.0335 58.2949C14.0335 58.2949 14.0336 58.2949 14.1383 58.4C14.0336 58.4 13.9288 58.4 13.7194 58.505C13.7194 59.2403 14.1383 59.8705 14.4524 60.5007C15.3949 60.5007 14.976 59.7655 15.1855 59.2403V59.3453C14.8713 59.6604 14.7666 60.1856 14.4524 60.5007C14.0336 60.5007 13.5099 60.6057 12.9863 60.6057C11.9391 60.5007 10.8919 60.3957 9.84468 60.3957C9.0069 60.5007 8.16913 59.9755 7.43607 60.2906C6.28413 60.8158 7.01719 61.1309 7.85496 61.341H7.95968C9.21635 62.0762 10.5777 61.341 11.6249 62.0762C12.5674 62.0762 13.5099 62.0762 14.3477 62.1813C14.8713 63.2316 16.128 62.4964 16.6516 63.4417C15.4997 64.0719 13.9288 63.1266 12.8816 64.177C12.6722 64.177 12.358 64.282 12.1486 64.282C11.9391 64.0719 11.6249 64.0719 11.5202 64.282C11.2061 64.282 10.8919 64.282 10.6825 64.387C7.85496 62.8115 5.34164 64.7021 2.72359 65.1223C2.09526 65.1223 1.36221 65.3324 1.57165 66.1726C1.57165 66.8029 2.19998 67.223 2.72359 67.223C4.71331 67.328 6.70302 67.328 8.69274 67.328C9.63523 67.328 10.6825 67.4331 11.6249 67.4331C12.1486 68.0633 12.8816 68.0633 13.6147 68.0633C17.5941 68.2734 21.5735 68.5885 25.553 68.9036C25.6577 68.7985 25.6577 68.6935 25.7624 68.5885C25.7624 68.5885 25.7624 68.5885 25.7624 68.6935C26.1813 68.7985 26.6002 68.9036 27.0191 68.9036C27.2285 69.1137 27.4379 68.9036 27.6474 68.9036C27.6474 69.0086 27.7521 68.9036 27.8568 69.0086C27.5427 69.0086 27.3332 68.9036 27.0191 68.9036C27.0191 69.0086 26.9143 68.9036 26.9143 69.0086C26.6002 68.7985 26.286 68.4834 25.7624 68.6935C25.6577 68.7985 25.6577 68.7985 25.4482 68.9036C24.401 70.164 22.9349 69.4288 21.6782 69.5338C20.0027 69.8489 18.2224 69.0086 16.7563 70.164C16.5469 70.164 16.2327 70.164 15.9185 70.164C15.0808 69.7439 14.1383 69.9539 13.1958 69.9539C11.4155 69.8489 9.53051 69.7439 7.64552 69.6388C7.5408 69.7439 7.33135 69.6388 7.22663 69.5338C6.91247 69.7439 6.70302 70.059 6.38886 70.2691C6.38886 70.2691 6.28413 70.3741 6.28413 70.4791C6.17941 70.6892 6.28413 70.8993 6.49358 71.0043L6.5983 70.8993C6.49358 71.2144 6.49358 71.4244 6.49358 71.7396C6.28413 72.0547 6.17941 72.3698 5.86525 72.4748C6.38886 73.3151 7.22663 73.2101 8.06441 73.2101C8.06441 73.4201 8.06441 73.7352 8.06441 73.9453H7.95968C7.5408 74.4705 7.5408 74.9957 8.16913 75.4158C8.90218 75.5209 9.53051 75.5209 10.2636 75.6259C10.8919 76.6762 11.3108 77.8316 12.2533 78.6719C13.4052 79.5122 13.7194 78.882 13.8241 77.8316H14.243H14.6619C15.3949 77.6216 16.0233 77.4115 16.6516 77.2014C17.2799 77.0964 18.1177 77.0964 18.1177 77.8316C18.1177 80.7726 20.2121 80.4575 22.0971 80.7727C23.2491 80.8777 24.6105 80.3525 25.0293 82.0331C24.6105 82.1381 24.0868 82.1381 23.668 82.2432C21.4688 82.2432 19.3744 82.2432 17.1752 82.3482C16.4422 82.4532 15.7091 82.8734 15.8138 83.7137C15.9185 84.4489 16.6516 84.4489 17.1752 84.4489C17.5941 84.4489 17.9083 84.5539 18.3271 84.5539C18.4319 85.2892 18.2224 86.2345 19.1649 86.6547C19.4791 85.9194 19.4791 85.0791 19.0602 84.3439C18.9555 84.2388 18.746 84.2388 18.6413 84.3439C18.6413 84.2388 18.6413 84.2388 18.746 84.2388C18.8508 84.2388 18.8508 84.2388 18.8508 84.2388L19.0602 84.3439C19.2696 84.4489 19.4791 84.4489 19.7933 84.4489C19.2696 85.0791 19.0602 85.7093 19.1649 86.5496C19.5838 86.5496 20.1074 86.5496 20.5263 86.5496C22.2019 87.3899 24.1916 86.2345 25.7624 87.2849C26.4954 87.2849 27.2285 87.2849 27.9616 87.2849C29.8465 88.7554 31.941 87.6 33.9307 88.0201C34.559 88.5453 35.5015 88.8604 36.1299 89.4906C35.9204 90.0158 35.6062 90.3309 35.3968 90.8561C35.1874 90.8561 34.9779 90.9611 34.7685 90.9611C33.1976 90.8561 31.5221 90.646 31.7315 93.0619C31.2079 93.0619 30.789 92.9568 30.2654 92.9568V93.482C30.1607 93.6921 30.3702 93.9021 30.4749 94.1122H30.3702C30.2654 93.9021 30.2654 93.6921 30.2654 93.482C30.2654 93.482 30.2654 93.2719 30.4749 93.2719C29.0088 92.5367 27.2285 91.4863 26.1813 92.0115C23.668 93.0619 21.2594 92.4316 18.8508 92.6417C18.2224 92.6417 17.3846 91.8014 16.5469 92.8518C18.3271 94.6374 20.4216 94.1122 22.4113 94.1122C22.9349 94.1122 23.2491 94.2172 23.7727 94.2172C24.9246 94.9525 26.3907 94.1122 27.6474 94.8475C28.3804 94.9525 29.0088 95.0575 29.7418 95.0575C31.6268 96.2129 33.7213 95.3727 35.6062 95.6878C35.6062 95.5827 35.6062 95.5827 35.6062 95.5827V95.6878C36.7582 96.528 38.0149 97.0532 39.481 97.0532C39.3762 96.8432 39.3762 96.6331 39.3762 96.423H39.481C39.3762 96.6331 39.2715 96.9482 39.481 97.0532C39.8998 97.1583 40.4235 97.2633 40.7376 97.2633C40.7376 97.3683 40.8423 97.4734 40.8423 97.6834C39.3762 97.6834 37.8054 97.6834 36.3393 97.7885C36.1299 97.6834 35.9204 97.3683 35.8157 97.3683C31.7315 97.1583 27.6474 96.9482 23.5632 96.7381C23.5632 96.7381 23.5632 96.9482 23.3538 97.3683C25.7624 97.9985 28.0663 98.7338 30.6843 98.5237C30.8938 98.5237 31.1032 98.5237 31.2079 98.6288C33.3024 99.9942 35.6063 99.0489 37.9101 99.364C38.6432 99.469 39.3762 99.4691 40.1093 99.5741C40.214 99.4691 40.214 99.259 40.214 99.1539H40.3187C40.3187 99.364 40.214 99.4691 40.1093 99.5741C39.481 100.099 38.7479 99.9942 38.0149 100.099C36.6535 100.414 36.5487 101.15 37.0724 102.305C37.4912 102.305 37.8054 102.2 38.1196 102.2H38.4337L38.6432 102.305C41.7848 103.881 41.7848 103.881 41.5754 107.452C38.1196 105.981 34.559 106.296 31.1032 105.351C30.5796 105.351 30.1607 105.351 29.6371 105.351C29.9513 105.876 30.1607 106.296 30.3702 106.822H30.6843H30.8938C31.4174 106.927 31.941 106.927 32.3599 107.137C33.1976 107.662 34.7685 107.452 34.6637 109.027C34.559 110.603 33.3024 110.918 32.0457 111.233C30.5796 111.548 29.2182 111.863 27.9616 112.704C25.2388 112.809 22.516 113.229 19.1649 115.014C21.783 115.014 23.4585 115.014 25.1341 115.014C25.3435 115.224 25.6577 115.54 25.8671 115.75C25.8671 115.54 25.8671 115.224 25.8671 115.014C25.9718 115.014 25.9718 115.014 26.0766 115.014C25.9718 115.224 25.6577 115.435 25.8671 115.75C26.0766 115.75 26.3907 115.75 26.6002 115.855C27.7521 116.59 28.171 118.165 30.1607 117.64C31.2079 117.325 30.9985 118.796 31.1032 119.531C30.5796 120.056 30.4749 120.896 31.3127 120.896C34.559 120.896 37.7007 121.212 40.8423 120.581C41.2612 120.686 41.6801 120.581 42.099 120.476C42.099 120.476 42.2037 120.476 42.3084 120.476C42.5179 120.371 42.8321 120.371 43.1462 120.371C43.4604 121.001 43.8793 121.737 43.8793 122.472C43.3557 122.472 42.9368 122.472 42.4132 122.472C42.2037 122.787 41.8896 122.997 41.6801 123.207C36.8629 122.892 32.1504 124.363 27.3332 124.047C26.7049 123.942 26.3907 124.363 26.1813 124.783C24.6105 124.783 23.0396 124.783 21.4688 124.783C21.0499 124.783 20.5263 124.993 20.5263 125.518C20.4216 126.043 20.7357 126.463 21.2594 126.568C21.6782 126.778 22.0971 126.778 22.516 126.778C23.4585 126.883 24.401 126.988 25.3435 126.988C25.6577 127.199 25.9718 127.304 26.1813 127.514C26.3907 127.409 26.7049 127.199 26.8096 127.094C26.6002 126.883 26.3907 126.778 26.1813 126.568C26.286 126.568 26.286 126.568 26.3907 126.568C26.3907 126.778 26.3907 127.199 26.9143 127.094C27.1238 127.199 27.3332 127.304 27.4379 127.409C29.0088 129.299 30.056 127.724 31.3127 126.883C31.5221 126.883 31.8363 126.883 32.0457 126.883C33.6165 128.249 35.3968 127.199 37.1771 127.724C38.0149 128.669 39.2715 128.144 40.3187 128.564C41.0518 128.774 41.5754 129.299 41.4707 130.14C41.4707 131.085 40.7376 131.295 40.0046 131.295C37.596 131.295 35.0826 131.4 32.674 131.4C31.4174 131.4 30.3702 131.4 29.2182 131.4C29.0088 131.505 28.5899 131.505 28.3804 131.4C26.1813 129.929 23.7727 130.875 21.5735 130.56C21.4688 130.665 21.2594 130.665 21.1546 130.56C20.3169 130.77 19.3744 129.509 18.4319 130.98C19.4791 131.295 20.3169 131.715 21.2594 132.03C21.4688 132.03 21.6782 132.135 21.783 132.135C21.783 132.87 21.4688 133.081 20.631 132.976C18.8508 132.87 18.8508 132.976 17.3846 134.341C19.7933 134.131 22.2019 134.971 24.0868 133.081C24.5057 132.66 25.4482 132.87 26.1813 132.87C26.6002 132.765 27.1238 132.765 27.5427 132.66C28.5899 132.765 29.5324 132.87 30.6843 132.976C31.3127 133.816 32.2551 133.606 33.0929 133.501L33.3024 133.396L33.5118 133.501C35.2921 133.711 37.0724 134.236 38.7479 133.501C40.0046 135.076 41.8896 134.131 43.3557 134.236H43.5651C47.3351 134.656 51.0004 134.026 54.7703 134.656C53.6184 136.652 53.0948 136.967 52.0476 137.072C51.2098 137.177 50.2673 137.597 49.3248 137.282V137.387C43.984 137.282 38.5385 137.282 33.1976 137.282C32.4646 137.282 31.8363 137.282 31.2079 137.177C31.2079 136.967 31.2079 136.757 31.2079 136.547C30.9985 136.757 30.6843 136.967 30.4749 137.177C30.2654 137.282 29.9513 137.282 29.7418 137.282C29.3229 137.702 29.1135 137.492 28.7993 137.282C28.2757 137.282 27.8568 137.282 27.4379 137.282C26.4954 136.547 25.3435 137.282 24.401 136.547C24.1916 136.652 23.8774 136.547 23.7727 136.442C22.7255 135.601 21.4688 135.181 21.0499 136.862C20.631 138.227 22.2019 137.912 23.0396 138.017H22.9349C23.8774 138.858 25.1341 138.017 25.9718 138.753H26.286L26.6002 138.858C27.5427 139.593 28.7993 138.858 29.7418 139.593H30.056H30.3702C30.8938 140.013 31.4174 140.433 32.1504 140.958C31.2079 141.063 30.5796 141.063 29.8465 140.853C29.3229 140.643 28.9041 140.748 28.6946 141.378C28.4852 141.904 28.9041 142.219 29.4277 142.429C29.7418 142.639 30.1607 142.639 30.4749 142.639H30.3702C30.8938 143.059 31.5221 142.954 32.0457 143.269C32.4646 143.374 32.8835 143.374 33.3024 143.479C34.1401 144.529 35.2921 144.004 36.3393 144.109C37.0724 144.214 37.8054 144.214 38.5385 144.214C40.214 144.74 41.8896 144.635 43.6698 144.214C44.1934 144.214 44.717 144.214 45.2407 144.214C45.6595 144.635 46.2879 144.529 46.7068 144.95C46.9162 144.95 47.2304 145.055 47.5445 145.055C47.9634 145.265 48.1729 144.95 48.5918 145.055C48.6965 145.16 48.3823 145.16 48.487 145.265C49.8484 145.16 51.3145 145.685 52.5712 144.95L52.8853 144.845H53.0948C53.5137 144.635 53.7231 144.635 54.0373 144.845C54.2467 145.475 54.8751 145.58 55.5034 145.685C56.027 146.42 56.5506 146.42 57.0742 145.685C57.2837 145.475 57.5978 145.16 57.8073 145.055C57.912 144.845 58.2262 144.845 58.4356 144.845C58.8545 144.95 59.4828 144.95 60.0064 145.055L60.1112 144.95C60.0064 144.95 60.0064 144.95 60.0064 145.055C61.2631 146.105 62.6245 145.58 64.0906 145.58C63.4623 145.37 62.8339 145.16 62.3103 144.95C62.3103 144.845 62.3103 144.74 62.3103 144.635C62.7292 145.265 63.4623 145.16 64.0906 145.58H64.1953C65.2425 145.79 66.2897 145.895 67.337 146C69.1172 146 71.107 146.21 72.5731 144.845C78.0186 144.74 83.4641 145.58 88.9097 143.689C91.2135 142.954 94.041 142.324 96.7638 143.269C98.4393 143.794 100.848 144.214 101.476 141.273C101.476 141.168 101.372 141.168 101.267 141.063L101.476 141.273C102.942 140.958 104.618 141.694 105.979 140.538C106.922 140.328 108.074 140.853 108.807 139.698C109.435 139.383 110.063 139.278 110.692 139.593C111.111 139.593 111.215 139.383 111.006 138.963C110.901 139.173 110.797 139.383 110.692 139.593C111.844 139.593 113.1 140.118 113.938 138.963C113.415 138.963 112.996 138.858 112.472 138.858C112.577 138.753 112.786 138.858 112.996 138.753C113.31 138.963 113.624 139.173 113.938 138.963C114.357 138.753 114.776 138.647 115.3 138.858C116.766 139.593 118.127 140.328 119.279 138.227L119.174 138.122C119.174 138.122 119.174 138.122 119.279 138.122V138.227C123.049 138.647 125.981 135.601 129.751 135.286C131.217 134.971 132.893 135.812 134.254 134.551C134.254 134.446 134.045 134.341 134.045 134.341L134.254 134.551C134.778 134.446 135.406 134.341 135.616 133.816L135.511 133.606C135.511 133.606 135.511 133.606 135.616 133.606C135.616 133.711 135.616 133.816 135.616 133.921C138.338 133.921 140.956 133.396 143.156 131.715C143.051 131.61 142.946 131.505 142.946 131.505L143.156 131.715C143.679 131.61 144.203 131.505 144.622 130.875L144.412 130.77C144.412 130.77 144.517 130.875 144.622 130.875C145.355 130.875 146.297 130.98 146.716 130.14L146.926 129.929L147.135 130.035C147.868 129.509 149.02 130.035 149.648 129.194V129.299C150.381 128.774 151.324 129.404 151.847 128.564V128.669C156.351 129.194 159.806 126.778 163.157 124.468C163.891 124.258 164.833 124.468 165.252 123.627L165.147 123.522C165.252 123.522 165.252 123.522 165.252 123.522C165.252 123.522 165.252 123.522 165.252 123.627C170.279 122.997 174.467 120.161 178.656 117.745C178.656 117.64 178.552 117.535 178.447 117.43L178.656 117.745C179.18 117.64 179.808 117.535 180.122 117.01L179.913 116.8C179.913 116.8 180.018 116.8 180.122 116.8C180.122 116.905 180.122 117.01 180.122 117.115C181.379 116.695 182.845 116.485 183.788 115.645L183.683 115.435C183.683 115.54 183.683 115.54 183.683 115.645C186.092 115.435 188.081 114.594 189.652 112.599L189.547 112.388L189.652 112.599C191.642 111.548 193.841 111.128 195.621 109.658C195.516 109.553 195.516 109.447 195.412 109.447L195.621 109.658C196.145 109.553 196.773 109.447 196.983 108.817L196.878 108.607V108.502C196.878 108.607 196.878 108.712 196.878 108.712C198.763 108.817 199.81 107.977 200.648 106.506L200.543 106.401C200.543 106.401 200.543 106.296 200.648 106.296C200.648 106.401 200.648 106.401 200.648 106.506C203.266 106.611 204.418 104.511 205.884 102.83L205.674 102.62C205.779 102.725 205.779 102.83 205.884 102.935C208.083 101.78 210.282 100.519 212.796 99.8892C215.204 99.364 217.508 98.5237 219.917 98.3137C222.849 97.9985 223.896 96.423 223.791 93.9021C223.896 92.7467 223.687 92.2216 223.058 91.8014ZM9.63523 66.0676C9.84468 65.9626 10.0541 65.9626 10.1588 65.7525C10.2636 65.8575 10.2636 65.9626 10.3683 65.9626C10.1588 66.2777 9.9494 66.0676 9.63523 66.0676ZM221.592 93.377C221.278 94.1122 221.278 95.0575 220.336 95.3727C219.917 95.5827 219.603 95.1626 219.184 95.1626C220.231 94.9525 220.964 94.3223 221.592 93.377ZM156.56 124.573C156.56 124.573 156.56 124.573 156.665 124.468C157.084 124.888 157.607 125.203 157.921 125.518C157.817 124.678 157.188 124.678 156.56 124.573ZM104.932 138.542C105.037 138.542 105.037 138.332 105.142 138.227C105.142 138.332 105.037 138.437 105.142 138.647C105.037 138.647 104.932 138.542 104.932 138.542ZM34.9779 20.2719C34.9779 20.377 34.9779 20.377 34.9779 20.377C34.8732 20.377 34.7685 20.377 34.6637 20.377C34.7685 20.2719 34.8732 20.377 34.9779 20.2719ZM89.6427 141.063C89.538 141.063 89.538 141.168 89.4333 141.168C89.538 141.063 89.538 140.958 89.538 140.958L89.6427 141.063ZM44.2982 97.7885H44.1934H44.2982ZM28.9041 65.2273C28.9041 65.2273 28.9041 65.2273 28.9041 65.1223C28.7993 65.1223 28.7993 65.1223 28.7993 65.1223C28.9041 65.1223 28.9041 65.1223 28.9041 65.1223C28.7993 65.1223 28.9041 65.1223 28.9041 65.2273C29.0088 65.3324 29.0088 65.4374 29.1135 65.4374C29.0088 65.4374 29.0088 65.5424 29.0088 65.5424C29.0088 65.3324 28.9041 65.3324 28.9041 65.2273ZM17.0705 57.7698C17.0705 57.7698 16.9658 57.7698 17.0705 57.7698C17.0705 57.7698 17.0705 57.6647 17.0705 57.5597C17.3846 57.6647 17.6988 57.7698 18.013 57.7698C17.5941 57.8748 17.2799 57.4547 17.0705 57.7698ZM54.0373 131.925C54.0373 131.925 54.0373 131.925 53.9326 131.925C54.0373 131.925 54.0373 131.925 54.0373 131.925ZM46.8115 127.409C46.7068 127.304 46.602 127.304 46.602 127.304L46.8115 127.409C46.8115 127.514 46.8115 127.514 46.8115 127.514C46.8115 127.514 46.8115 127.514 46.8115 127.409ZM30.9985 72.4748C30.9985 72.6849 30.9985 72.895 30.9985 73.105C31.1032 72.895 30.8938 72.6849 30.789 72.4748C30.9985 72.4748 30.9985 72.4748 30.9985 72.4748ZM54.0373 19.7467C54.0373 19.7467 54.0373 19.6417 54.0373 19.7467C53.9326 19.8518 54.0373 19.8518 53.9326 19.9568C53.9326 19.8518 54.0373 19.7467 53.9326 19.6417C53.9326 19.4316 54.0373 19.5367 54.0373 19.7467ZM66.0803 23.1079C65.3472 23.318 64.5095 23.423 64.1953 22.8978C63.8811 22.5827 64.4048 22.4777 64.6142 22.2676C65.0331 22.7928 65.5567 23.1079 66.0803 23.1079ZM106.503 9.55826C106.608 9.45322 106.712 9.45322 106.608 9.34819C106.398 8.92804 106.817 9.45322 106.712 9.55826C106.608 9.55826 106.608 9.55826 106.503 9.55826ZM65.8709 105.246C65.8709 105.246 66.0803 105.246 66.0803 105.351C65.9756 105.351 66.185 105.456 66.0803 105.456C65.9756 105.351 65.9756 105.246 65.8709 105.246ZM48.3823 58.4C48.3823 58.505 48.3823 58.6101 48.2776 58.7151C48.3823 58.6101 48.3823 58.505 48.3823 58.4ZM50.7909 54.6187C50.7909 54.5137 50.7909 54.5137 50.8956 54.5137C50.8956 54.5137 50.7909 54.5137 50.7909 54.6187ZM48.0681 57.2446C48.0681 57.1396 48.0681 57.1396 48.0681 57.2446C48.1729 57.1396 47.9634 57.0345 48.0681 56.9295C48.0681 56.9295 48.0681 57.1396 48.0681 57.2446ZM47.8587 67.5381C47.754 67.6432 47.754 67.6432 47.754 67.7482C47.754 67.6432 47.754 67.6432 47.754 67.6432C47.8587 67.6432 47.754 67.5381 47.8587 67.5381ZM50.372 67.5381C50.4767 67.5381 50.5815 67.5381 50.6862 67.5381C50.5815 67.5381 50.4767 67.6432 50.2673 67.6432C50.372 67.6432 50.4767 67.6432 50.372 67.5381ZM51.8381 67.328C51.9429 67.4331 51.9429 67.4331 51.9429 67.4331C51.8381 67.328 51.8381 67.328 51.8381 67.328ZM37.4912 75.4158C37.3865 75.4158 37.4912 75.5209 37.4912 75.4158C37.2818 75.5209 37.2818 75.3108 37.0724 75.3108C37.1771 75.4158 37.3865 75.4158 37.4912 75.4158ZM134.778 16.8057C134.778 16.8057 134.883 16.8057 134.778 16.8057C134.883 16.8057 134.883 16.8057 134.987 16.8057C134.883 16.8057 134.883 16.8057 134.778 16.8057ZM159.597 15.1252C159.597 15.1252 159.702 15.0201 159.597 15.1252C159.702 15.1252 159.597 15.1252 159.597 15.1252ZM145.669 8.29783C145.983 8.92804 146.507 9.45322 146.716 10.1885H146.611C146.716 9.45322 146.402 8.71797 145.669 8.29783ZM122.002 28.6748C122.002 29.305 121.688 29.8302 122.002 30.6705C121.164 30.3554 120.745 30.2503 120.117 29.9352C121.164 30.0403 121.897 29.7252 122.002 28.6748ZM65.9756 108.502C65.8709 108.397 65.8709 108.502 65.8709 108.607C65.8709 108.502 65.8709 108.502 65.8709 108.502C65.8709 108.502 65.9756 108.397 65.9756 108.502ZM62.2056 126.883C62.3103 126.883 62.3103 126.883 62.2056 126.883C62.3103 126.883 62.2056 126.883 62.2056 126.883ZM68.1747 125.413C68.3842 124.993 68.2795 124.573 68.3842 124.258C68.4889 124.573 68.2795 124.993 68.3842 125.413H68.1747ZM67.337 129.089C66.7086 129.089 66.0803 129.614 65.452 129.824C66.185 129.719 66.8134 129.509 67.2322 128.879C67.2322 128.984 67.337 129.089 67.337 129.089ZM102.838 130.56C102.419 130.35 102 130.665 101.581 130.56C102 130.56 102.419 130.56 102.838 130.56ZM83.6736 134.971C83.5688 134.971 83.5688 135.076 83.4641 135.076C83.5688 134.971 83.6736 134.866 83.6736 134.761C83.6736 134.761 83.6736 134.866 83.6736 134.971ZM81.4744 129.089C81.4744 128.984 81.4744 128.984 81.4744 129.089V129.089ZM78.3328 130.665C78.4375 130.665 78.5422 130.665 78.5422 130.665V130.56C78.5422 130.56 78.5422 130.56 78.6469 130.56C78.5422 130.56 78.5422 130.665 78.5422 130.665H78.3328ZM117.394 30.4604C117.394 30.5655 117.603 30.7755 117.499 30.8806C117.08 30.8806 117.08 30.7755 116.766 30.6705C116.975 30.6705 117.185 30.5655 117.394 30.4604ZM87.653 127.829C87.653 127.724 87.5483 127.829 87.4436 127.724C87.4436 127.724 87.653 127.619 87.7577 127.619C87.7577 127.724 87.653 127.724 87.653 127.829ZM46.4973 115.224C46.4973 115.329 46.1832 115.435 45.9737 115.645C46.1832 115.435 46.4973 115.329 46.4973 115.224ZM58.1214 128.459C61.0537 128.564 63.9859 129.089 66.8134 128.669C66.9181 128.669 66.9181 128.774 66.9181 128.774C64.0906 128.144 61.0537 128.144 58.1214 128.459ZM74.1439 135.601C74.0392 135.601 73.9344 135.601 73.725 135.601C73.8297 135.601 73.8297 135.601 73.8297 135.601C73.9344 135.601 74.0392 135.601 74.1439 135.601ZM124.201 39.7036C124.201 40.0187 124.306 40.3338 124.306 40.5439C124.306 40.2288 124.096 39.9137 124.201 39.7036ZM150.696 6.61725C150.8 6.72229 151.01 6.72229 151.219 6.82732H151.01C150.905 6.72229 150.8 6.82732 150.696 6.61725ZM96.8685 29.2C96.6591 28.9899 96.2402 29.4101 96.0307 29.0949C96.2402 28.8849 96.3449 28.7798 96.5544 28.6748C96.5544 28.6748 96.6591 28.5698 96.7638 28.4647C96.7638 28.8849 96.7638 28.9899 96.8685 29.2ZM34.6637 50.9424C34.7685 50.9424 34.7685 50.9424 34.6637 50.9424C34.7685 50.9424 34.6637 50.9424 34.6637 50.9424ZM34.7685 50.9424C34.6638 50.9424 34.6638 50.9424 34.7685 50.9424C34.6638 50.9424 34.559 50.9424 34.559 50.8374C34.559 50.9424 34.6638 50.9424 34.7685 50.9424ZM29.4277 78.5669C29.4277 78.5669 29.4277 78.5669 29.5324 78.5669C29.4277 78.5669 29.4277 78.5669 29.4277 78.5669ZM38.329 79.4072C38.2243 79.4072 38.329 79.4072 38.329 79.4072V79.4072ZM45.1359 114.909C45.1359 115.014 45.1359 115.014 45.1359 115.119C45.0312 114.909 44.8218 115.014 44.717 114.909C44.8218 114.909 44.9265 114.909 45.1359 114.909ZM45.1359 115.54C45.1359 115.645 45.1359 115.645 45.1359 115.75C45.1359 115.75 45.1359 115.75 45.0312 115.75C45.0312 115.645 45.0312 115.54 45.1359 115.54ZM61.4725 131.295C61.682 131.715 61.7867 132.03 61.9962 132.345V132.45C62.1009 131.82 61.7867 131.505 61.3678 131.295H61.4725ZM96.9732 137.387C96.9732 137.387 96.9732 137.492 96.9732 137.597C96.9732 137.492 96.9732 137.492 96.9732 137.387ZM153.523 19.6417C153.628 19.4316 153.628 19.3266 153.523 19.1165C153.732 19.0115 153.942 19.1165 154.047 19.0115C153.942 19.2216 153.732 19.3266 153.523 19.6417ZM56.027 26.7842C55.8176 26.5741 56.027 26.364 56.027 26.0489C56.2365 26.1539 56.4459 26.259 56.6553 26.1539C56.4459 26.364 56.3412 26.6791 56.027 26.7842ZM19.898 58.4C20.0027 58.6101 20.2121 58.9252 20.3169 59.1352C20.3169 59.2403 20.2121 59.2403 20.2121 59.3453C20.2121 59.4503 20.3169 59.4503 20.3169 59.4503C20.3169 59.8705 20.1074 59.9755 20.1074 59.6604C20.1074 59.5554 20.2121 59.4503 20.3169 59.2403C20.4216 58.8201 20.1074 58.6101 19.898 58.2949C19.6885 58.4 19.7933 58.4 19.898 58.4ZM22.2019 62.1813C22.4113 62.0762 22.6207 61.9712 22.7255 61.8662C22.6207 61.9712 22.516 62.0762 22.3066 62.1813H22.2019ZM44.717 89.2806C44.8218 89.4906 45.0312 89.3856 45.1359 89.5957C45.0312 89.5957 45.0312 89.5957 44.8218 89.5957C44.8218 89.3856 44.717 89.3856 44.717 89.2806ZM48.1729 97.0532C48.0681 97.0532 47.9634 97.0532 47.8587 97.0532C47.754 96.423 47.3351 96.423 46.8115 96.423C47.3351 96.6331 47.8587 96.528 48.1729 97.0532ZM52.4665 120.056C52.4665 120.056 52.3617 120.161 52.257 120.161C52.3617 120.056 52.3617 120.056 52.4665 120.056ZM53.1995 123.102C53.1995 123.102 53.0948 123.102 53.0948 123.207C53.0948 122.997 52.8853 122.997 52.8853 122.892C52.9901 122.892 53.0948 122.892 53.1995 123.102ZM46.602 124.153V124.047C46.602 124.047 46.602 124.047 46.602 124.153ZM174.991 22.6878C174.886 22.6878 174.991 22.6878 174.991 22.6878C174.886 22.6878 174.572 23.0029 174.467 23.1079C174.467 23.1079 174.467 23.2129 174.258 23.2129C174.572 23.318 174.782 22.8978 174.991 22.6878ZM179.285 28.3597C179.494 28.1496 179.808 28.3597 180.018 28.3597C179.808 28.4647 179.599 28.6748 179.494 28.9899C179.389 28.6748 179.075 28.5698 179.285 28.3597ZM199.705 96.1079C199.705 96.1079 199.601 96.1079 199.601 96.2129C199.496 96.2129 199.391 96.2129 199.391 96.2129C199.496 96.2129 199.601 96.2129 199.705 96.1079ZM199.391 92.6417C199.391 92.6417 199.391 92.6417 199.391 92.5367C199.391 92.6417 199.601 92.5367 199.601 92.6417C199.601 92.5367 199.496 92.5367 199.391 92.6417ZM189.862 104.511C189.862 104.616 189.862 104.616 189.862 104.616C189.862 104.616 189.862 104.616 189.862 104.511ZM203.266 78.4619C203.371 78.3568 203.371 78.1468 203.475 78.0417C203.475 78.1468 203.475 78.3568 203.266 78.4619ZM173.001 115.119C173.106 115.014 173.106 114.909 173.106 114.909C173.106 115.014 173.106 115.014 173.106 115.014C173.106 115.119 173.106 115.119 173.001 115.119ZM206.303 77.2014C205.674 77.0964 204.941 77.3065 204.313 76.7813C204.313 76.6762 204.313 76.7813 204.208 76.7813C204.208 76.6762 204.208 76.7813 204.208 76.7813C204.208 76.6762 204.208 76.6762 204.208 76.6762C204.837 77.2014 205.57 77.3065 206.303 77.2014ZM187.558 49.4719V49.2619C187.558 49.1568 187.558 49.1568 187.662 49.0518C187.558 49.1568 187.558 49.2619 187.558 49.4719ZM111.006 6.51222C110.901 6.40718 110.797 6.40718 110.797 6.30214C111.006 6.30214 111.215 6.40718 111.425 6.51222C111.215 6.51222 111.111 6.40718 111.006 6.51222ZM83.2547 25.2086C83.2547 24.7885 83.3594 24.5784 83.6736 24.4734C83.6736 24.5784 83.883 24.6834 83.9877 24.7885C83.5688 24.6834 83.5688 25.1036 83.2547 25.2086ZM48.0681 15.2302C47.9634 15.2302 47.9634 15.4403 47.8587 15.4403C47.754 15.4403 47.754 15.4403 47.754 15.3352C47.8587 15.3352 48.0681 15.6503 48.0681 15.2302ZM42.4132 17.8561C42.9368 18.1712 43.3557 17.8561 43.8793 17.541C43.984 17.541 43.984 17.646 44.0887 17.541C43.984 17.646 43.8793 17.7511 43.7746 17.9611C43.2509 17.9611 42.8321 17.9611 42.4132 17.8561C42.3084 17.8561 42.2037 17.9611 42.2037 17.9611C41.9943 17.8561 42.099 17.7511 42.099 17.541C42.099 17.541 42.099 17.541 42.2037 17.541C42.2037 17.646 42.2037 17.7511 42.4132 17.8561ZM33.3024 29.8302C32.8835 29.305 31.5221 29.0949 30.4749 28.7798C30.5796 28.7798 30.5796 28.7798 30.6843 28.7798C31.7315 28.5698 32.674 28.8849 33.4071 29.6201C33.5118 29.7252 33.3024 29.7252 33.3024 29.8302ZM49.2201 23.9482C49.2201 24.0532 49.2201 24.0532 49.2201 24.1583C49.2201 24.2633 49.3248 24.2633 49.3248 24.3683C49.2201 24.8935 48.8012 24.9985 48.2776 24.9985C48.8012 24.6834 49.1154 24.5784 49.2201 23.9482ZM25.8671 63.5467C25.8671 63.4417 25.9718 63.4417 25.9718 63.3367C26.0766 63.4417 25.8671 63.4417 25.8671 63.5467ZM29.9513 71.5295C30.056 71.6345 30.2654 71.6345 30.3702 71.7396C30.2654 71.7396 30.1607 71.7396 29.9513 71.7396C29.9513 71.6345 29.9513 71.6345 29.9513 71.5295ZM17.6988 72.0547C17.8035 72.0547 17.9083 72.0547 17.9083 71.8446C18.013 71.8446 18.1177 71.8446 18.2224 71.8446C18.2224 72.0547 17.9083 72.0547 17.6988 72.0547ZM28.171 79.1971C28.171 79.1971 28.0663 79.1971 28.171 79.1971V79.1971ZM36.2346 86.3396C36.2346 86.4446 36.2346 86.4446 36.3393 86.4446C36.3393 86.4446 36.2346 86.4446 36.2346 86.3396ZM41.0518 90.3309C41.1565 90.541 41.2612 90.8561 41.4707 91.0662C41.3659 91.0662 41.2612 91.0662 41.0518 91.0662C41.2612 90.8561 41.1565 90.541 41.0518 90.3309ZM45.7643 96.528C45.869 96.318 45.9737 96.2129 45.9737 96.1079C45.9737 96.318 45.869 96.318 45.7643 96.528C45.869 96.7381 45.869 96.8432 45.869 97.0532C45.7643 97.0532 45.7643 97.0532 45.6595 97.0532C45.7643 96.8432 45.7643 96.7381 45.7643 96.528ZM73.2014 143.269C73.3061 143.269 73.3061 143.269 73.2014 143.269V143.374V143.479C73.3061 143.479 73.3061 143.374 73.2014 143.269ZM189.024 110.498C189.128 110.498 189.233 110.498 189.338 110.498C189.547 110.603 189.757 110.498 189.966 110.498V110.603C189.652 110.603 189.338 110.603 189.024 110.498C189.024 110.603 189.024 110.603 189.024 110.498C189.024 110.603 189.024 110.498 189.024 110.498ZM200.229 101.675C200.334 101.675 200.334 101.675 200.229 101.675C200.438 101.57 200.334 101.675 200.438 101.675H200.543C200.543 101.675 200.648 101.57 200.438 101.885C200.334 101.78 200.229 101.78 200.229 101.675ZM195.202 50.1021C195.202 50.1021 195.307 50.2072 195.202 50.3122C195.202 50.2072 194.993 50.1021 194.993 49.9971C195.098 49.9971 195.202 49.9971 195.202 50.1021ZM167.556 7.0374C167.137 6.30214 166.194 6.82732 165.566 6.51222C166.194 6.72229 166.823 6.72229 167.346 6.51222C167.346 6.82732 167.556 6.82732 167.556 7.0374ZM121.897 4.62157C121.688 4.62157 121.478 4.93668 121.373 5.04171C121.164 4.93668 120.85 5.14675 120.745 4.83164C121.164 4.7266 121.478 4.62157 121.897 4.62157ZM65.7661 7.0374C65.5567 7.14243 65.6614 7.3525 65.5567 7.56258C65.5567 7.24747 65.2425 7.45754 65.2425 7.0374C65.452 7.0374 65.5567 7.0374 65.7661 7.0374ZM49.9531 11.4489C49.8484 11.5539 49.7437 11.659 49.639 11.764C49.8484 11.659 49.8484 11.5539 49.9531 11.4489ZM17.8035 21.0072C17.8035 21.1122 17.8035 21.1122 17.6988 21.1122V21.0072C17.8035 21.0072 17.8035 21.0072 17.8035 21.0072ZM14.976 56.7194C14.7666 56.1942 15.0808 55.7741 15.0808 55.3539C15.2902 56.1942 15.2902 57.2446 16.4422 57.4547C15.9185 57.4547 15.2902 57.6647 14.976 56.7194ZM17.6988 61.9712C17.6988 62.0762 17.6988 62.0762 17.6988 61.9712C17.6988 62.0762 17.6988 62.0762 17.6988 61.9712ZM19.1649 63.5467C19.3744 63.6518 19.1649 63.8619 19.2696 63.9669C19.1649 63.8619 19.1649 63.7568 19.0602 63.5467C19.0602 63.5467 19.1649 63.6518 19.1649 63.5467ZM18.6413 67.223C18.746 67.118 18.746 67.0129 18.746 66.9079C18.9555 67.0129 19.2696 66.9079 19.2696 67.223C19.0602 67.328 18.8508 67.223 18.6413 67.223ZM25.9718 68.2734C25.8671 68.1683 25.8671 68.0633 25.7624 67.9583C25.8671 67.9583 25.8671 67.9583 25.8671 67.9583L25.9718 67.8532C25.9718 67.9583 25.8671 67.9583 25.8671 67.9583C25.8671 68.1683 25.8671 68.2734 25.9718 68.2734ZM26.1813 70.2691C26.3907 70.164 26.7049 69.9539 26.8096 69.7439C26.6002 69.9539 26.4954 70.2691 26.1813 70.2691ZM50.372 100.204C50.1626 100.204 49.9531 100.309 49.7437 100.414C49.7437 100.309 49.7437 100.309 49.7437 100.204C49.9531 100.204 50.1626 100.204 50.372 100.204ZM45.869 123.102C45.7643 123.102 45.7643 123.102 45.7643 123.102C45.869 123.102 45.869 123.102 45.869 123.102ZM29.3229 125.413C29.5324 125.413 29.7418 125.518 29.9513 125.518C29.2182 125.518 28.5899 125.623 28.0663 125.833C28.4852 125.728 28.7993 125.413 29.3229 125.413ZM34.4543 126.673C34.4543 126.568 34.4543 126.568 34.4543 126.463C34.559 126.568 34.6638 126.568 34.7685 126.673C34.6638 126.673 34.559 126.673 34.4543 126.673ZM48.1729 144.635C48.2776 144.424 48.2776 144.319 48.3823 144.214C48.487 144.214 48.487 144.214 48.5918 144.214C48.487 144.319 48.3823 144.529 48.487 144.635C48.3823 144.635 48.2776 144.635 48.1729 144.635ZM59.9017 144.109C59.797 144.109 59.6923 144.109 59.4828 144.109C59.6923 144.004 59.9017 143.899 60.0064 143.584C59.9017 143.689 59.9017 143.899 59.9017 144.109ZM129.646 134.866C129.646 134.656 129.751 134.446 129.751 134.236C129.646 134.446 129.542 134.656 129.646 134.866ZM144.622 129.929C144.622 129.824 144.622 129.824 144.622 129.719C144.622 129.824 144.622 129.929 144.622 129.929ZM219.707 96.1079C220.44 96.0029 220.859 95.4777 221.383 95.0575C220.964 95.4777 220.754 96.1079 220.126 96.1079C220.021 96.0029 219.917 96.1079 219.707 96.1079Z" fill="#151F41"/>
<path d="M136.805 110.071L132 119.514L134.934 121L139.358 112.304L158.088 109.372C158.301 109.339 158.506 109.264 158.691 109.151C158.875 109.038 159.036 108.891 159.163 108.716C159.29 108.542 159.382 108.344 159.432 108.134C159.482 107.924 159.491 107.707 159.457 107.494L156.478 88.8294L160 85.3232L157.675 83L153.56 87.1017C153.376 87.285 153.238 87.5092 153.158 87.7559C153.078 88.0026 153.057 88.2648 153.098 88.5209L155.948 106.386L138.01 109.194C137.754 109.235 137.512 109.336 137.302 109.489C137.093 109.641 136.923 109.841 136.805 110.071Z" fill="white"/>
<path d="M69.066 51.477L67.6147 42.5011L85.9879 39.6512C86.2512 39.6103 86.501 39.5081 86.7167 39.3532C86.9323 39.1983 87.1077 38.9951 87.2285 38.7602L93 27.509L89.9929 26L84.5989 36.4933L65.4234 39.4697C65.2045 39.5038 64.9945 39.5801 64.8056 39.6945C64.6166 39.8088 64.4522 39.9588 64.322 40.1359C64.1917 40.3131 64.0981 40.5138 64.0464 40.7267C63.9948 40.9397 63.9861 41.1606 64.021 41.3768L65.7302 52L69.066 51.477Z" fill="white"/>
<path d="M69.839 54.3492L66.6016 54.8645L67.1233 58.1424L70.3608 57.6271L69.839 54.3492Z" fill="white"/>
<path d="M149.481 61.7404L151.931 46.2305C151.965 46.0169 151.956 45.7987 151.906 45.5885C151.856 45.3782 151.765 45.18 151.639 45.0051C151.512 44.8302 151.353 44.6822 151.17 44.5694C150.986 44.4567 150.783 44.3814 150.571 44.348L135.156 41.9099L128.096 27.901C127.999 27.7077 127.865 27.5356 127.702 27.3946C127.539 27.2535 127.349 27.1462 127.145 27.079C126.732 26.946 126.283 26.982 125.896 27.1793L112 34.3391L98.1044 27.1809C97.9131 27.0824 97.7043 27.0229 97.4901 27.0058C97.2758 26.9888 97.0603 27.0144 96.856 27.0813C96.6516 27.1482 96.4623 27.255 96.2991 27.3957C96.1358 27.5363 96.0017 27.7081 95.9045 27.901L88.844 41.9083L73.4279 44.3464C73.2158 44.38 73.0124 44.4554 72.8292 44.5682C72.6461 44.6811 72.4869 44.8291 72.3607 45.004C72.2345 45.1788 72.1438 45.377 72.0937 45.5872C72.0437 45.7973 72.0353 46.0154 72.069 46.2288L74.5189 61.7387L63.4798 72.836C63.3277 72.9888 63.2071 73.1702 63.1247 73.3699C63.0424 73.5696 63 73.7838 63 74C63 74.2163 63.0424 74.4304 63.1247 74.6301C63.2071 74.8299 63.3277 75.0113 63.4798 75.164L74.5172 86.2597L72.0674 101.77C72.0336 101.983 72.0421 102.201 72.0923 102.412C72.1424 102.622 72.2333 102.82 72.3596 102.995C72.486 103.17 72.6454 103.318 72.8287 103.431C73.012 103.543 73.2156 103.619 73.4279 103.652L88.8423 106.09L95.9045 120.099C96.0013 120.292 96.1352 120.464 96.2983 120.605C96.4614 120.747 96.6506 120.854 96.855 120.921C97.0182 120.973 97.1884 121 97.3597 121C97.6184 121 97.8736 120.939 98.1044 120.821L112 113.661L125.896 120.819C126.087 120.918 126.296 120.977 126.51 120.994C126.724 121.011 126.94 120.986 127.144 120.919C127.348 120.852 127.538 120.745 127.701 120.604C127.864 120.464 127.998 120.292 128.096 120.099L135.156 106.092L150.572 103.654C150.784 103.62 150.988 103.545 151.171 103.432C151.354 103.319 151.513 103.171 151.639 102.996C151.766 102.821 151.856 102.623 151.906 102.413C151.956 102.203 151.965 101.985 151.931 101.771L149.481 86.2613L160.52 75.164C160.672 75.0113 160.793 74.8299 160.875 74.6301C160.958 74.4304 161 74.2163 161 74C161 73.7838 160.958 73.5696 160.875 73.3699C160.793 73.1702 160.672 72.9888 160.52 72.836L149.481 61.7404ZM146.582 84.5219C146.399 84.7056 146.263 84.9302 146.183 85.1774C146.103 85.4246 146.083 85.6873 146.123 85.944L148.447 100.655L133.823 102.968C133.568 103.009 133.326 103.109 133.117 103.262C132.908 103.415 132.738 103.616 132.621 103.848L125.925 117.135L112.745 110.345C112.514 110.226 112.259 110.164 112 110.164C111.741 110.164 111.486 110.226 111.255 110.345L98.075 117.135L91.3788 103.848C91.2616 103.616 91.0914 103.415 90.8822 103.262C90.6729 103.109 90.4305 103.008 90.1751 102.968L75.5511 100.66L77.8768 85.9489C77.9174 85.6923 77.897 85.4295 77.8172 85.1823C77.7375 84.9351 77.6006 84.7105 77.4179 84.5268L66.9472 74L77.4179 63.4781C77.6006 63.2945 77.7375 63.0698 77.8172 62.8226C77.897 62.5754 77.9174 62.3127 77.8768 62.056L75.5527 47.3402L90.1767 45.027C90.4319 44.9865 90.6739 44.8857 90.8829 44.7328C91.0918 44.5799 91.2618 44.3793 91.3788 44.1474L98.075 30.8603L111.255 37.6502C111.486 37.7691 111.741 37.8311 112 37.8311C112.259 37.8311 112.514 37.7691 112.745 37.6502L125.925 30.8603L132.621 44.1474C132.738 44.3795 132.909 44.5803 133.118 44.7332C133.327 44.8861 133.569 44.9868 133.825 45.027L148.449 47.3402L146.123 62.0511C146.083 62.3078 146.103 62.5705 146.183 62.8177C146.263 63.0649 146.399 63.2896 146.582 63.4732L157.053 74L146.582 84.5219Z" fill="white"/>
<path d="M125.92 49H124C124 48.4696 123.789 47.9609 123.414 47.5858C123.039 47.2107 122.53 47 122 47C121.47 47 120.961 47.2107 120.586 47.5858C120.211 47.9609 120 48.4696 120 49H118C118 48.4696 117.789 47.9609 117.414 47.5858C117.039 47.2107 116.53 47 116 47C115.47 47 114.961 47.2107 114.586 47.5858C114.211 47.9609 114 48.4696 114 49H112C112 48.4696 111.789 47.9609 111.414 47.5858C111.039 47.2107 110.53 47 110 47C109.47 47 108.961 47.2107 108.586 47.5858C108.211 47.9609 108 48.4696 108 49H106C106 48.4696 105.789 47.9609 105.414 47.5858C105.039 47.2107 104.53 47 104 47C103.47 47 102.961 47.2107 102.586 47.5858C102.211 47.9609 102 48.4696 102 49H100.08C99.7936 49 99.5189 49.1138 99.3163 49.3163C99.1138 49.5189 99 49.7936 99 50.08V95.92C99 96.2064 99.1138 96.4811 99.3163 96.6837C99.5189 96.8862 99.7936 97 100.08 97H102C102 97.5304 102.211 98.0391 102.586 98.4142C102.961 98.7893 103.47 99 104 99C104.53 99 105.039 98.7893 105.414 98.4142C105.789 98.0391 106 97.5304 106 97H108C108 97.5304 108.211 98.0391 108.586 98.4142C108.961 98.7893 109.47 99 110 99C110.53 99 111.039 98.7893 111.414 98.4142C111.789 98.0391 112 97.5304 112 97H114C114 97.5304 114.211 98.0391 114.586 98.4142C114.961 98.7893 115.47 99 116 99C116.53 99 117.039 98.7893 117.414 98.4142C117.789 98.0391 118 97.5304 118 97H120C120 97.5304 120.211 98.0391 120.586 98.4142C120.961 98.7893 121.47 99 122 99C122.53 99 123.039 98.7893 123.414 98.4142C123.789 98.0391 124 97.5304 124 97H125.92C126.206 97 126.481 96.8862 126.684 96.6837C126.886 96.4811 127 96.2064 127 95.92V50.08C127 49.7936 126.886 49.5189 126.684 49.3163C126.481 49.1138 126.206 49 125.92 49Z" fill="white"/>
<path d="M118.81 72.29C118.865 72.2364 118.904 72.1685 118.922 72.0939C118.941 72.0194 118.938 71.9411 118.914 71.8682C118.89 71.7952 118.846 71.7305 118.787 71.6813C118.728 71.6321 118.656 71.6005 118.58 71.59L115.25 71.11C115.168 71.0981 115.089 71.0664 115.021 71.0177C114.953 70.969 114.898 70.9046 114.86 70.83L113.37 67.83C113.336 67.7628 113.284 67.7064 113.219 67.667C113.155 67.6276 113.081 67.6068 113.005 67.6068C112.93 67.6068 112.856 67.6276 112.791 67.667C112.727 67.7064 112.675 67.7628 112.64 67.83L111.15 70.83C111.113 70.9046 111.057 70.969 110.989 71.0177C110.922 71.0664 110.843 71.0981 110.76 71.11L107.43 71.59C107.354 71.6005 107.283 71.6321 107.224 71.6813C107.165 71.7305 107.121 71.7952 107.097 71.8682C107.073 71.9411 107.07 72.0194 107.088 72.0939C107.106 72.1685 107.145 72.2364 107.2 72.29L109.61 74.64C109.671 74.6988 109.716 74.7714 109.742 74.8515C109.768 74.9316 109.774 75.0169 109.76 75.1L109.19 78.42C109.178 78.4946 109.187 78.571 109.216 78.6408C109.245 78.7105 109.293 78.771 109.354 78.8155C109.415 78.8599 109.487 78.8867 109.562 78.8928C109.637 78.8989 109.713 78.8841 109.78 78.85L112.78 77.28C112.854 77.2414 112.937 77.2213 113.02 77.2213C113.104 77.2213 113.186 77.2414 113.26 77.28L116.26 78.85C116.328 78.8841 116.403 78.8989 116.478 78.8928C116.554 78.8867 116.626 78.8599 116.687 78.8155C116.748 78.771 116.795 78.7105 116.824 78.6408C116.853 78.571 116.862 78.4946 116.85 78.42L116.28 75.1C116.266 75.0169 116.272 74.9316 116.298 74.8515C116.325 74.7714 116.37 74.6988 116.43 74.64L118.81 72.29Z" fill="#60FEB2"/>
<path d="M123 57H103V59H123V57Z" fill="#151F41"/>
<path d="M123 87H103V89H123V87Z" fill="#151F41"/>
<path d="M123 91H103V93H123V91Z" fill="#151F41"/>
<path d="M123 53H103V55H123V53Z" fill="#151F41"/>
</svg>
