<svg width="258" height="169" viewBox="0 0 258 169" fill="none" xmlns="http://www.w3.org/2000/svg">
<g clip-path="url(#clip0)">
<path fill-rule="evenodd" clip-rule="evenodd" d="M122.242 12.3962C122.829 12.3962 123.417 12.3962 124.005 12.3962C125.18 11.6132 126.356 12.3962 127.531 11.6132C128.119 11.6132 128.706 11.6132 129.294 11.6132C129.882 10.8302 130.469 10.8302 131.057 10.8302C132.233 10.8302 132.82 10.8302 133.996 10.8302C134.583 10.8302 134.583 10.8302 135.171 10.0472C135.759 10.0472 136.934 10.0472 137.522 10.0472C137.522 9.26414 138.11 10.0472 138.697 9.26414L139.285 8.48112C138.697 7.69811 138.11 7.69811 137.522 8.48112C136.346 8.48112 135.759 8.48112 134.583 8.48112C133.996 8.48112 132.82 7.69811 132.233 9.26414C131.645 9.26414 131.057 9.26414 130.469 9.26414C129.294 10.0472 128.119 9.26414 127.531 10.0472C126.943 10.0472 126.943 10.0472 126.356 10.0472C125.768 10.0472 125.18 10.0472 124.592 10.8302H124.005H123.417H122.829C121.066 10.8302 119.303 10.8302 118.128 10.8302C117.54 10.8302 117.54 11.6132 117.54 11.6132C117.54 12.3962 118.128 12.3962 118.128 12.3962C119.303 12.3962 121.066 13.1792 122.242 12.3962ZM133.996 10.0472H134.583C134.583 10.0472 133.996 9.26414 133.996 10.0472ZM119.891 11.6132H119.303C119.303 11.6132 119.303 11.6132 119.891 11.6132Z" fill="#F5CED0"/>
<path fill-rule="evenodd" clip-rule="evenodd" d="M257.414 89.9153C257.414 89.9153 256.826 89.9153 256.826 89.1323C256.826 89.1323 256.826 89.1323 257.414 89.9153C256.826 89.1323 256.238 88.3493 256.238 88.3493C255.651 86.0002 256.826 84.4342 255.651 82.0852C255.651 81.3021 255.063 80.5191 254.475 80.5191L253.888 79.7361L253.3 78.9531C252.712 77.387 251.537 75.821 250.361 75.038L249.774 74.255C249.186 73.4719 248.598 73.4719 248.011 73.4719C245.66 75.038 242.721 74.255 240.958 75.821H240.37H239.783C239.195 75.821 238.607 75.821 238.02 76.604C237.432 76.604 236.257 76.604 235.669 77.387C235.081 77.387 235.081 77.387 234.493 78.1701C233.906 78.1701 232.73 78.9531 233.318 76.604C234.493 72.6889 233.906 69.5568 233.318 65.6418C232.73 64.0757 232.73 62.5097 234.493 60.9436C233.318 60.1606 232.143 60.1606 231.555 59.3776C230.38 57.8116 229.204 55.4625 227.441 55.4625C227.441 53.8965 226.266 53.1135 226.266 52.3304C226.266 49.9814 225.678 49.9814 224.503 49.9814C220.389 49.9814 216.862 50.7644 212.749 50.7644C212.749 50.7644 212.161 50.7644 212.161 51.5474H211.573C210.985 50.7644 210.985 50.7644 210.398 51.5474C208.635 51.5474 206.284 51.5474 205.108 49.1984C204.521 48.4153 203.933 48.4153 202.758 48.4153C202.17 47.6323 201.582 48.4153 200.995 47.6323C200.995 46.0663 199.819 45.2833 199.819 44.5002C200.407 44.5002 200.407 44.5002 200.407 43.7172C201.582 43.7172 202.17 42.9342 202.758 42.1512C203.345 41.3682 203.933 39.8021 205.108 39.8021C207.459 39.0191 208.635 36.6701 210.398 35.887C212.161 34.321 213.336 31.1889 212.161 29.6229C211.573 26.4908 211.573 24.1418 210.985 21.7927C210.985 21.0097 210.985 21.0097 210.398 20.2267C210.398 17.8776 209.81 15.5285 209.222 13.9625C209.222 13.1795 209.222 12.3965 208.635 12.3965C208.635 10.8304 208.047 9.2644 206.872 8.48138C206.872 7.69836 206.872 6.91534 206.284 6.91534L205.696 6.13232C205.696 5.3493 205.696 5.3493 205.108 4.56628C205.108 3.78326 205.108 3.78326 204.521 3.78326H203.933C202.17 4.56628 199.819 3.78326 198.056 4.56628C197.468 4.56628 196.293 4.56628 195.705 4.56628C195.118 4.56628 194.53 4.56628 193.942 3.78326C191.591 4.56628 189.241 5.3493 187.477 6.91534C186.302 6.91534 185.127 6.13232 184.539 7.69836C183.364 8.48138 181.6 7.69836 180.425 9.2644C179.837 10.0474 178.662 9.2644 178.074 10.0474C177.487 10.0474 176.899 10.0474 176.899 10.8304C176.311 10.8304 175.136 10.8304 174.548 10.8304C174.548 10.8304 173.96 10.8304 173.96 11.6135C171.61 12.3965 168.671 13.1795 166.32 13.9625L165.733 14.7455C163.382 14.7455 161.619 16.3116 159.268 15.5285L158.68 16.3116H158.092C157.505 15.5285 157.505 15.5285 156.917 16.3116C155.154 16.3116 153.979 16.3116 152.803 17.0946C151.04 18.6606 148.689 18.6606 146.339 20.2267C145.163 21.0097 144.575 18.6606 143.4 19.4436C142.225 19.4436 142.812 21.7927 141.049 22.5757C139.874 23.3587 138.111 23.3587 136.935 23.3587V24.1418V23.3587H136.348V24.1418C135.76 24.1418 135.172 24.1418 134.585 24.1418L133.997 24.9248C133.409 24.9248 132.821 24.9248 132.821 24.1418C132.821 23.3587 133.997 23.3587 133.997 22.5757C132.234 21.7927 131.058 23.3587 130.471 25.7078C129.883 25.7078 129.295 25.7078 129.295 24.9248C129.295 22.5757 128.708 23.3587 127.532 24.1418C126.944 24.9248 126.357 25.7078 126.357 26.4908H125.769H125.181H124.594C124.006 26.4908 122.831 26.4908 122.831 24.9248C122.831 23.3587 122.831 23.3587 121.655 23.3587C121.067 23.3587 120.48 23.3587 119.892 24.1418C120.48 24.9248 121.655 25.7078 121.655 27.2738C121.067 28.0568 119.892 27.2738 119.304 28.0569C118.717 28.0569 118.717 28.0569 118.129 28.0569C116.954 26.4908 116.954 26.4908 116.954 22.5757C116.954 20.2267 118.129 19.4436 119.304 18.6606C120.48 18.6606 121.655 18.6606 122.831 19.4436C123.418 20.2267 124.594 20.2267 125.181 19.4436C126.357 19.4436 127.532 19.4436 128.708 19.4436C131.646 19.4436 134.585 18.6606 136.935 17.0946C138.698 16.3116 139.874 17.0946 141.637 16.3116C142.225 15.5285 142.812 15.5285 143.988 15.5285H144.575C145.163 15.5285 145.751 15.5285 146.339 14.7455C148.102 14.7455 149.865 13.9625 151.628 13.1795C152.215 13.1795 152.803 13.1795 153.391 12.3965C154.566 12.3965 155.742 13.1795 156.329 11.6135C156.329 11.6135 156.329 11.6135 156.917 11.6135C157.505 11.6135 158.68 10.8304 158.68 10.8304C158.68 10.8304 158.68 10.8304 158.68 10.0474C156.917 8.48138 155.742 7.69836 153.979 9.2644C153.391 9.2644 152.803 10.0474 152.215 9.2644C148.689 8.48138 145.751 10.0474 142.225 12.3965C141.637 12.3965 141.637 12.3965 141.049 13.1795C140.462 13.1795 140.462 13.1795 139.874 13.9625C139.286 13.9625 139.286 13.9625 138.698 13.9625C138.111 13.9625 137.523 13.9625 136.935 13.9625C133.997 12.3965 131.646 13.9625 129.295 14.7455C128.12 14.7455 126.944 15.5285 125.769 14.7455C124.594 13.9625 123.418 13.1795 124.006 16.3116C124.006 17.0946 123.418 17.0946 122.831 17.0946C121.655 17.0946 121.067 17.0946 119.892 17.0946C119.892 17.0946 119.892 17.0946 119.304 17.0946H118.717C118.717 17.0946 118.717 17.0946 118.129 17.0946C115.778 15.5285 112.84 13.9625 110.489 16.3116C109.901 16.3116 109.901 16.3116 109.313 16.3116C108.726 15.5285 108.138 15.5285 106.963 15.5285C104.612 15.5285 102.849 15.5285 100.498 15.5285C99.3226 13.9625 98.1472 14.7455 96.9718 14.7455C96.3841 13.9625 95.7964 13.9625 95.2087 13.9625C94.621 13.1795 94.621 13.1795 94.0333 13.1795C93.4456 13.1795 93.4456 13.9625 93.4456 13.9625L92.8579 14.7455C92.8579 15.5285 91.6825 14.7455 91.6825 16.3116C91.6825 17.0946 91.6825 17.8776 92.2702 17.8776C92.2702 18.6606 92.8579 19.4436 93.4456 20.2267C94.0333 21.7927 94.0333 23.3587 94.621 24.9248C94.621 26.4908 94.621 27.2738 95.7964 28.0569C95.7964 28.8399 96.3841 29.6229 96.3841 30.4059C95.7964 30.4059 95.2087 30.4059 94.621 31.1889C94.0333 31.1889 93.4456 32.755 93.4456 33.538C93.4456 34.321 94.0333 34.321 94.621 34.321C95.2087 34.321 95.7964 35.104 95.7964 35.887C95.7964 36.6701 95.2087 36.6701 94.621 37.4531C93.4456 39.0191 91.6825 38.2361 89.9194 39.0191C89.3317 39.0191 88.1563 39.0191 87.5686 39.8021C86.3932 39.8021 85.2178 39.0191 84.6301 40.5852C83.4547 40.5852 82.2793 39.8021 81.6916 41.3682C79.9285 42.1512 78.7531 39.8021 76.99 42.1512C76.4023 42.9342 74.0515 42.1512 72.8761 42.9342C71.113 43.7172 69.3499 42.1512 67.5868 43.7172C64.0606 43.7172 61.1221 43.7172 57.5959 43.7172C55.2451 42.9342 52.8943 42.1512 50.5435 42.1512C48.7804 42.1512 47.605 42.1512 47.0173 42.9342H46.4296C46.4296 42.1512 45.8419 42.1512 45.2542 42.1512C44.0788 41.3682 42.9034 42.1512 41.728 41.3682C41.1403 40.5852 40.5526 40.5852 39.9649 41.3682C39.3772 40.5852 38.7895 41.3682 38.2018 40.5852C38.2018 40.5852 38.2018 40.5852 37.6141 40.5852C37.6141 39.8021 37.0264 39.8021 36.4387 39.8021C35.851 39.0191 34.6756 39.0191 34.0879 39.8021C34.0879 40.5852 35.2633 40.5852 35.2633 40.5852L34.6756 41.3682C34.0879 41.3682 34.0879 41.3682 33.5002 41.3682C32.9125 41.3682 32.3248 41.3682 31.7371 41.3682C31.7371 41.3682 31.7371 41.3682 31.1494 41.3682C31.1494 41.3682 31.1494 41.3682 31.7371 41.3682L32.3248 42.1512C32.3248 42.9342 32.9125 42.9342 33.5002 42.9342C33.5002 43.7172 34.0879 43.7172 34.6756 43.7172C35.2633 46.0663 35.851 46.0663 36.4387 46.0663C37.0264 48.4153 35.851 47.6323 35.2633 47.6323C35.2633 46.8493 34.6756 46.8493 34.0879 46.8493C33.5002 45.2833 32.3248 46.8493 31.7371 46.8493C29.3863 45.2833 27.6232 45.2833 25.2724 46.8493C25.2724 46.0663 24.6847 46.0663 24.097 46.0663C23.5093 45.2833 22.3339 46.0663 21.7462 45.2833C21.1585 44.5002 20.5708 45.2833 20.5708 44.5002C18.8077 43.7172 17.0446 43.7172 15.2815 44.5002C15.8692 46.0663 16.4569 46.0663 17.6323 46.0663C17.6323 47.6323 18.22 47.6323 18.8077 47.6323V46.8493V47.6323C19.3954 48.4153 19.3954 47.6323 19.9831 48.4153C19.9831 48.4153 19.9831 48.4153 20.5708 48.4153C21.1585 48.4153 21.1585 48.4153 21.7462 49.1984C22.3339 49.9814 22.9216 49.9814 22.9216 49.9814C23.5093 50.7644 24.097 50.7644 24.6847 50.7644C25.2724 51.5474 25.8601 52.3304 26.4478 52.3304C27.0355 53.1135 27.6232 53.8965 28.2109 53.8965C29.3863 56.2455 31.1494 57.8116 32.9125 57.8116C32.9125 58.5946 33.5002 58.5946 34.0879 58.5946C35.2633 60.9436 37.0264 61.7267 38.7895 61.7267C38.7895 62.5097 39.3772 62.5097 39.9649 62.5097C39.9649 63.2927 40.5526 63.2927 41.1403 63.2927C41.728 64.0757 42.3157 64.0757 42.9034 64.0757C44.6665 66.4248 47.605 66.4248 49.9558 67.9908C52.3066 68.7738 54.6574 69.5568 57.0082 69.5568C57.5959 69.5568 58.1836 70.3399 58.7713 71.1229C58.7713 72.6889 58.1836 72.6889 57.5959 72.6889C56.4205 72.6889 55.8328 73.4719 56.4205 74.255C57.0082 75.038 57.5959 74.255 57.5959 75.038C57.0082 75.821 56.4205 75.038 55.8328 75.038V75.821V75.038C55.8328 75.038 55.8328 75.038 55.2451 75.038C54.6574 74.255 53.482 75.038 52.8943 74.255C51.7189 73.4719 50.5435 73.4719 49.3681 74.255C48.1927 75.821 49.3681 75.821 49.9558 75.821C50.5435 76.604 51.1312 76.604 51.7189 77.387C49.3681 77.387 47.0173 77.387 45.2542 77.387C44.6665 77.387 43.4911 77.387 43.4911 78.1701C43.4911 79.7361 42.3157 79.7361 41.1403 79.7361C40.5526 79.7361 39.9649 80.5191 39.3772 81.3021C39.9649 82.0852 40.5526 81.3021 41.728 81.3021C42.3157 82.0852 42.9034 81.3021 43.4911 82.0852C45.2542 83.6512 47.0173 83.6512 48.7804 83.6512C49.3681 83.6512 49.3681 84.4342 49.3681 84.4342C49.3681 85.2172 48.7804 84.4342 48.1927 85.2172C46.4296 83.6512 44.0788 85.2172 41.728 84.4342C41.1403 82.8682 39.9649 83.6512 38.7895 83.6512C36.4387 80.5191 34.0879 82.8682 32.3248 85.2172C31.1494 86.7833 29.974 86.7833 28.2109 86.7833C27.6232 86.7833 27.0355 86.7833 25.8601 86.7833C25.8601 86.7833 25.2724 86.7833 25.2724 86.0002C24.6847 86.0002 24.097 86.0002 23.5093 86.0002L22.9216 85.2172C22.3339 85.2172 21.7462 85.2172 21.1585 85.2172C21.1585 84.4342 20.5708 84.4342 19.9831 84.4342C19.3954 84.4342 19.3954 84.4342 18.8077 85.2172C18.8077 86.0002 19.3954 86.0002 19.3954 86.0002H19.9831C20.5708 86.0002 20.5708 86.0002 21.1585 86.0002L21.7462 86.7833H22.3339L22.9216 87.5663C23.5093 87.5663 23.5093 87.5663 24.097 87.5663L24.6847 88.3493C24.6847 88.3493 24.6847 88.3493 25.2724 88.3493C27.0355 91.4814 29.3863 92.2644 32.3248 92.2644C32.9125 93.0474 34.0879 93.8304 35.2633 93.8304C38.7895 96.9625 41.1403 96.9625 43.4911 98.5285C44.0788 98.5285 44.6665 98.5285 44.6665 97.7455H45.2542C45.2542 98.5285 45.8419 98.5285 46.4296 98.5285C45.8419 100.095 44.0788 100.095 43.4911 100.878C42.3157 101.661 42.3157 102.444 40.5526 102.444C34.6756 102.444 28.7986 102.444 23.5093 102.444C22.3339 102.444 21.7462 101.661 20.5708 103.227C20.5708 103.227 20.5708 104.01 21.1585 104.01C21.7462 104.01 21.7462 104.01 22.3339 104.01C22.3339 104.793 23.5093 104.793 24.097 104.793C25.8601 104.793 27.6232 104.793 28.7986 104.793C31.1494 106.359 33.5002 104.793 35.851 104.793C35.851 105.576 36.4387 105.576 37.0264 105.576C41.728 106.359 46.4296 107.925 51.1312 109.491C51.1312 111.057 50.5435 111.057 49.9558 111.057C48.7804 111.057 47.605 111.84 45.8419 111.84C47.0173 112.623 48.1927 111.84 49.3681 111.84C48.1927 111.84 47.0173 111.84 45.8419 111.84C45.2542 111.057 44.6665 111.057 44.0788 111.057C42.9034 111.057 41.1403 111.057 39.9649 111.057H39.3772C38.2018 110.274 37.0264 111.057 35.851 110.274C35.2633 109.491 34.6756 109.491 34.0879 109.491C31.7371 109.491 29.3863 109.491 27.0355 109.491C25.8601 109.491 25.2724 109.491 24.097 109.491C21.1585 107.925 17.6323 108.708 14.1061 108.708C12.9307 108.708 13.5184 110.274 14.1061 111.057V111.84C14.1061 111.84 14.1061 111.84 14.1061 111.057C11.7553 111.057 9.99225 111.057 7.64145 111.057C7.05375 111.057 6.46605 111.057 5.87835 111.057C5.29065 111.057 4.70295 111.057 4.70295 111.057C3.52756 111.057 2.93986 111.057 1.17676 110.274C1.76446 111.84 2.93986 111.84 3.52756 112.623C4.11526 112.623 5.29065 112.623 5.87835 113.406C6.46605 113.406 7.05375 113.406 7.64145 113.406C9.40455 114.972 10.5799 114.189 12.343 114.189C11.7553 113.406 11.1676 113.406 9.99225 112.623C10.5799 113.406 11.1676 112.623 11.7553 113.406C12.343 113.406 12.343 113.406 12.9307 113.406C14.6938 114.972 17.0446 114.189 18.8077 114.189C19.9831 115.755 21.7462 114.972 22.9216 114.972C24.097 116.538 25.8601 115.755 27.0355 115.755C27.6232 116.538 28.2109 116.538 28.7986 116.538C29.3863 118.104 30.5617 117.321 31.7371 117.321C32.3248 118.104 33.5002 118.104 34.6756 118.104C35.2633 118.887 35.851 118.104 36.4387 118.887C39.9649 120.453 42.3157 120.453 44.0788 120.453C45.8419 121.236 48.1927 121.236 49.9558 122.019C50.5435 122.802 51.1312 122.802 51.7189 122.802L52.3066 123.585L52.8943 124.368C52.8943 125.151 52.8943 125.151 52.3066 125.934C50.5435 124.368 50.5435 124.368 49.3681 126.717C48.1927 128.283 49.3681 128.283 49.9558 129.066L50.5435 129.849C51.1312 131.415 51.1312 132.981 52.3066 133.764C52.3066 134.547 52.8943 134.547 53.482 134.547C53.482 134.547 54.0697 134.547 54.0697 135.33C54.6574 136.896 55.2451 138.463 57.0082 138.463C57.5959 140.029 58.1836 141.595 59.9467 141.595C60.5344 142.378 61.1221 143.161 61.7098 143.161L62.2975 143.944L62.8852 144.727C62.8852 145.51 63.4729 145.51 63.4729 145.51C63.4729 146.293 64.6483 146.293 64.0606 147.076C63.4729 147.076 62.8852 147.076 62.2975 147.859L61.7098 148.642L61.1221 149.425C60.5344 150.208 61.1221 150.991 60.5344 150.991L59.9467 151.774L59.359 152.557C59.359 154.123 59.359 154.906 59.359 156.472L59.9467 157.255C59.9467 157.255 60.5344 157.255 60.5344 158.038C60.5344 158.038 60.5344 158.821 61.1221 158.821L61.7098 159.604C62.2975 160.387 62.2975 159.604 62.8852 160.387H63.4729H64.0606H64.6483H65.236L65.8237 159.604C66.9991 159.604 66.9991 158.821 66.4114 158.038C65.236 157.255 64.0606 156.472 63.4729 154.906C62.8852 154.123 62.8852 154.123 63.4729 153.34H64.0606L64.6483 154.123L65.236 153.34V152.557C65.236 151.774 65.8237 150.991 65.236 149.425V148.642C65.8237 148.642 66.9991 149.425 67.5868 150.208C69.3499 151.774 74.0515 154.906 76.4023 155.689C76.99 156.472 78.1654 156.472 78.7531 157.255C78.7531 158.038 79.3408 158.038 79.9285 158.038C79.9285 158.821 80.5162 158.821 81.1039 158.821C81.1039 159.604 81.6916 159.604 82.2793 159.604C82.867 160.387 83.4547 160.387 84.0424 160.387C85.8055 161.17 87.5686 162.736 89.3317 162.736C89.9194 164.302 91.6825 164.302 92.8579 164.302C94.621 164.302 96.3841 165.085 98.1472 165.085C101.673 166.651 105.787 167.434 109.901 167.434C115.19 168.217 120.48 169 125.769 168.217C126.944 168.217 128.708 168.217 129.883 168.217C131.646 168.217 133.409 169 135.172 167.434C135.172 167.434 135.76 167.434 136.348 167.434C137.523 167.434 138.698 167.434 139.874 167.434C141.637 166.651 142.812 165.085 144.575 167.434C145.163 168.217 145.751 167.434 146.339 167.434C148.689 168.217 151.628 166.651 153.979 166.651C158.68 167.434 162.206 165.085 165.733 161.953C166.908 161.953 168.083 161.953 168.671 161.953C171.022 160.387 173.96 161.953 176.311 161.17H176.899C176.899 161.953 176.899 162.736 177.487 162.736C178.074 162.736 178.074 161.953 178.074 161.17C178.662 160.387 180.425 159.604 181.013 160.387C181.6 162.736 182.188 161.17 182.776 161.17C183.364 159.604 185.127 159.604 185.714 158.821C189.241 158.821 192.179 158.038 195.118 155.689C197.468 155.689 199.819 155.689 200.995 152.557C202.17 152.557 203.345 152.557 203.933 150.991C205.108 150.991 206.284 150.991 206.872 149.425C209.222 148.642 211.573 147.076 213.336 144.727C214.512 143.944 215.687 143.161 216.862 141.595C217.45 141.595 218.038 140.812 218.626 140.029C219.801 140.029 220.976 139.246 221.564 137.679L222.152 136.896C223.327 136.896 223.915 135.33 224.503 134.547C225.09 134.547 225.09 134.547 225.678 133.764L226.266 132.981L226.853 132.198L227.441 131.415L228.029 130.632V129.849C228.616 129.849 229.204 129.066 229.204 128.283C229.792 127.5 230.38 128.283 230.967 127.5C231.555 127.5 232.143 127.5 232.143 126.717C232.73 126.717 233.318 126.717 233.318 125.934C235.081 125.934 236.844 125.151 238.02 123.585C239.195 123.585 240.958 123.585 242.134 123.585C242.721 123.585 243.309 123.585 243.897 122.019L244.484 121.236C245.072 121.236 245.66 121.236 246.247 120.453H246.835C247.423 119.67 248.01 120.453 248.598 119.67C249.186 119.67 249.774 119.67 249.774 118.104C249.774 117.321 249.186 117.321 248.598 117.321C248.01 117.321 247.423 117.321 246.835 118.104H248.011C247.423 118.104 246.835 118.104 246.835 118.104C246.835 118.104 246.835 118.887 246.247 118.887H245.66C244.484 118.104 245.66 116.538 245.66 115.755C245.66 115.755 245.66 115.755 245.66 116.538C246.247 115.755 247.423 115.755 247.423 114.189C247.423 112.623 247.423 111.057 247.423 109.491C246.835 106.359 248.011 104.793 249.186 102.444C250.361 100.878 252.124 100.095 253.888 100.095H254.475C255.063 100.095 255.063 99.3116 255.063 99.3116C256.238 99.3116 256.826 98.5285 256.826 96.9625C258.001 94.6134 258.589 92.2644 257.414 89.9153ZM25.8601 113.406H25.2724C25.2724 114.189 25.2724 114.189 25.8601 113.406C25.2724 113.406 25.2724 113.406 25.8601 113.406ZM31.1494 114.189H30.5617C31.1494 114.189 31.1494 114.189 31.1494 114.189ZM94.621 16.3116C94.621 16.3116 94.621 15.5285 94.621 16.3116C94.621 15.5285 94.621 15.5285 94.621 16.3116C94.621 15.5285 94.621 16.3116 94.621 16.3116ZM227.441 60.9436C226.853 60.9436 226.853 60.9436 227.441 60.9436C226.853 60.9436 227.441 60.9436 227.441 60.9436C227.441 60.9436 227.441 61.7267 227.441 60.9436ZM241.546 119.67C241.546 118.887 241.546 118.887 241.546 119.67C241.546 118.887 242.133 118.887 241.546 119.67C242.133 118.887 241.546 118.887 241.546 119.67ZM69.3499 148.642C69.3499 148.642 69.3499 147.859 69.3499 148.642C69.3499 147.859 69.3499 148.642 69.3499 148.642ZM71.7007 47.6323C71.7007 46.8493 71.7007 46.8493 71.7007 47.6323C71.7007 46.8493 71.7007 46.8493 71.7007 47.6323C71.7007 46.8493 71.7007 46.8493 71.7007 47.6323C71.7007 46.8493 71.7007 46.8493 71.7007 47.6323ZM82.867 57.8116C82.867 58.5946 83.4547 58.5946 83.4547 59.3776C83.4547 59.3776 82.867 59.3776 82.2793 59.3776C82.867 59.3776 82.867 58.5946 82.867 57.8116ZM216.862 56.2455C216.275 56.2455 216.275 56.2455 216.862 56.2455C216.275 57.0285 216.275 56.2455 216.862 56.2455C216.275 56.2455 216.275 56.2455 216.862 56.2455ZM220.389 55.4625C220.389 55.4625 219.801 55.4625 220.389 55.4625C219.801 55.4625 220.389 55.4625 220.389 55.4625ZM55.8328 119.67C55.2451 119.67 55.2451 119.67 55.8328 119.67C55.2451 119.67 55.2451 119.67 55.8328 119.67ZM161.619 150.208C161.031 150.208 161.031 150.208 161.619 150.208C161.031 150.208 161.031 149.425 161.619 150.208C161.619 149.425 161.619 150.208 161.619 150.208ZM79.3408 122.019C80.5162 121.236 81.6916 119.67 82.2793 118.887C81.1039 118.887 79.9285 119.67 79.3408 122.019ZM98.1472 59.3776C98.7349 59.3776 98.7349 58.5946 98.1472 59.3776C98.7349 59.3776 98.7349 59.3776 98.1472 59.3776ZM192.767 59.3776C192.767 59.3776 193.354 59.3776 192.767 59.3776C192.767 60.1606 192.767 59.3776 192.767 59.3776ZM193.354 58.5946C193.354 57.8116 193.354 58.5946 193.354 58.5946V58.5946ZM215.687 75.821C215.099 75.821 215.099 75.821 214.512 75.821L215.099 75.038C215.099 75.038 215.099 75.038 215.687 75.821ZM229.204 90.6984C229.204 90.6984 229.792 90.6984 229.204 90.6984C229.792 90.6984 229.204 90.6984 229.204 90.6984ZM89.9194 125.151C89.9194 125.151 90.5071 125.151 89.9194 125.151C90.5071 125.151 89.9194 125.934 89.9194 125.151C89.9194 125.934 89.9194 125.151 89.9194 125.151ZM113.427 49.1984L114.015 48.4153C114.015 49.1984 113.427 49.1984 113.427 49.1984ZM196.293 85.2172V84.4342V85.2172ZM165.145 96.9625C164.557 96.9625 164.557 96.9625 163.969 97.7455C163.969 96.9625 164.557 96.9625 165.145 96.9625ZM162.206 93.8304C162.206 93.0474 162.206 93.0474 162.206 93.8304C162.206 93.0474 162.206 93.8304 162.206 93.8304ZM163.382 89.9153C163.382 89.9153 163.382 90.6984 163.382 89.9153C163.382 90.6984 163.382 89.9153 163.382 89.9153ZM159.268 94.6134C159.268 94.6134 159.268 95.3965 159.268 94.6134C159.268 95.3965 159.268 94.6134 159.268 94.6134ZM164.557 89.1323C165.145 89.1323 165.145 88.3493 165.733 88.3493C165.145 88.3493 164.557 88.3493 164.557 89.1323ZM169.846 90.6984C169.259 90.6984 169.259 89.9153 169.846 90.6984C169.259 89.9153 169.259 89.1323 169.259 89.1323C169.259 89.1323 169.259 89.9153 169.846 90.6984C169.259 89.9153 169.259 90.6984 169.846 90.6984ZM158.092 71.9059C158.092 71.9059 157.505 71.9059 158.092 71.9059V71.9059ZM97.5595 91.4814C97.5595 91.4814 97.5595 92.2644 97.5595 91.4814V91.4814ZM102.261 87.5663C102.261 86.7833 102.261 86.7833 102.261 87.5663C102.261 86.7833 102.261 86.7833 102.261 87.5663C102.261 86.7833 102.261 87.5663 102.261 87.5663ZM104.024 84.4342C104.612 84.4342 104.612 84.4342 104.024 84.4342C104.612 84.4342 104.612 84.4342 104.024 84.4342C104.612 84.4342 104.612 84.4342 104.024 84.4342ZM100.498 103.227C101.086 103.227 100.498 103.227 100.498 103.227C100.498 104.01 100.498 104.01 100.498 103.227C100.498 104.01 100.498 103.227 100.498 103.227ZM115.778 88.3493H115.19H115.778ZM116.954 118.887C117.541 118.104 116.954 118.104 116.954 118.887C116.954 118.104 117.541 118.104 116.954 118.887C117.541 118.104 116.954 118.887 116.954 118.887ZM125.769 84.4342C126.357 84.4342 125.769 83.6512 125.769 84.4342C126.357 83.6512 125.769 83.6512 125.769 84.4342ZM140.462 75.821C140.462 76.604 140.462 76.604 140.462 75.821V75.821ZM138.698 86.7833C138.698 87.5663 138.698 87.5663 138.698 86.7833C138.698 87.5663 138.698 87.5663 138.698 86.7833C138.698 87.5663 138.698 87.5663 138.698 86.7833ZM142.812 71.1229C142.812 71.1229 142.812 70.3399 142.812 71.1229C142.812 70.3399 142.812 71.1229 142.812 71.1229ZM115.778 122.019C115.778 122.019 115.778 122.802 115.778 122.019C115.778 122.802 115.778 122.802 115.778 122.019C115.778 122.802 115.778 122.802 115.778 122.019ZM157.505 100.878C157.505 101.661 157.505 101.661 157.505 100.878C157.505 101.661 157.505 101.661 157.505 100.878C157.505 100.878 157.505 101.661 157.505 100.878ZM109.313 93.8304H109.901H110.489C110.489 93.8304 109.901 93.0474 109.313 93.8304ZM123.418 113.406C123.418 113.406 124.006 113.406 123.418 113.406V113.406ZM128.708 120.453C128.708 121.236 128.708 121.236 128.708 120.453V120.453ZM132.234 63.2927C132.821 63.2927 132.821 63.2927 132.234 63.2927C132.821 63.2927 132.234 63.2927 132.234 63.2927ZM125.181 57.8116C124.594 57.0285 125.181 56.2455 125.769 56.2455C125.769 57.8116 125.769 58.5946 126.357 59.3776C125.769 58.5946 125.181 57.8116 125.181 57.8116ZM79.9285 107.142C79.9285 107.925 79.9285 107.925 79.9285 107.142C79.3408 107.925 79.3408 107.142 79.9285 107.142C79.9285 107.142 79.3408 107.925 79.9285 107.142C79.9285 107.142 79.9285 107.925 79.9285 107.142C79.9285 107.925 79.9285 107.925 79.9285 107.142ZM126.357 124.368C126.357 125.151 126.357 125.151 126.357 124.368C126.357 125.151 126.357 124.368 126.357 124.368ZM165.145 62.5097H165.733C165.733 62.5097 165.733 62.5097 165.145 62.5097ZM133.409 38.2361C133.409 39.0191 132.821 39.0191 133.409 38.2361C132.821 39.0191 133.409 39.0191 133.409 38.2361ZM129.883 55.4625C130.471 53.8965 129.883 53.1135 129.295 52.3304C129.295 53.8965 129.883 54.6795 130.471 55.4625C130.471 55.4625 130.471 55.4625 129.883 55.4625ZM116.366 49.9814C116.366 50.7644 116.366 50.7644 116.366 49.9814C116.366 50.7644 116.366 49.9814 116.366 49.9814ZM206.284 133.764C206.284 133.764 205.696 133.764 206.284 133.764C205.696 133.764 205.696 133.764 206.284 133.764C205.696 133.764 205.696 133.764 206.284 133.764ZM219.801 118.104C219.801 118.104 219.801 118.887 219.801 118.104V118.104ZM224.503 104.793C224.503 104.793 225.09 104.793 224.503 104.793C224.503 104.793 225.09 104.793 224.503 104.793ZM205.108 64.0757C205.108 64.0757 205.108 64.8587 205.108 64.0757C204.521 64.0757 204.521 64.0757 205.108 64.0757C204.521 64.0757 205.108 64.0757 205.108 64.0757ZM197.468 72.6889C197.468 71.9059 196.881 71.9059 197.468 72.6889C196.881 71.9059 196.881 71.9059 197.468 72.6889C196.293 71.1229 195.705 71.9059 195.118 72.6889C195.705 71.9059 196.293 71.9059 197.468 72.6889C196.881 71.9059 196.881 72.6889 197.468 72.6889ZM193.354 79.7361C193.354 78.9531 193.354 78.9531 193.354 78.1701C193.354 78.9531 193.354 79.7361 193.354 79.7361ZM183.364 67.2078V67.9908V67.2078ZM172.785 42.9342C172.785 42.1512 172.785 42.1512 172.785 42.1512C173.373 42.9342 172.785 42.9342 172.785 42.9342ZM135.172 36.6701C135.172 36.6701 135.76 35.887 136.348 35.887C135.76 36.6701 135.172 36.6701 135.172 36.6701ZM132.821 35.887L133.409 36.6701C133.409 36.6701 132.821 36.6701 132.821 35.887ZM114.015 51.5474C112.84 52.3304 112.84 53.8965 111.664 53.8965C112.252 53.1135 113.427 53.1135 114.015 51.5474ZM108.138 61.7267C108.138 62.5097 108.138 62.5097 108.138 61.7267C108.138 62.5097 107.55 62.5097 108.138 61.7267ZM75.2269 93.8304C74.6392 93.8304 75.2269 93.8304 75.2269 93.8304V93.8304ZM92.8579 141.595C92.8579 141.595 92.8579 142.378 92.8579 141.595V141.595ZM131.058 142.378C131.058 143.161 130.471 143.944 130.471 143.944C130.471 143.161 130.471 142.378 131.058 142.378ZM183.951 96.9625C183.951 97.7455 184.539 97.7455 183.951 96.9625C184.539 97.7455 183.951 97.7455 183.951 96.9625C183.951 97.7455 183.951 97.7455 183.951 96.9625ZM210.398 125.151C210.398 125.151 209.81 125.151 210.398 125.151V125.151ZM128.12 36.6701H127.532C127.532 36.6701 127.532 35.887 128.12 36.6701C127.532 35.887 128.12 36.6701 128.12 36.6701ZM95.7964 58.5946C96.3841 57.8116 96.9718 56.2455 97.5595 56.2455C97.5595 57.0285 96.3841 57.0285 95.7964 58.5946C95.7964 59.3776 95.7964 60.1606 96.3841 60.1606C96.3841 60.9436 97.5595 61.7267 98.1472 61.7267C98.7349 61.7267 99.3226 61.7267 99.3226 61.7267C99.3226 61.7267 98.7349 61.7267 98.1472 61.7267C97.5595 60.9436 96.9718 60.9436 96.3841 60.1606C96.3841 59.3776 96.3841 59.3776 95.7964 58.5946ZM95.2087 60.1606H94.621C94.621 60.1606 94.621 60.1606 95.2087 60.1606ZM79.9285 75.821C79.3408 75.821 79.3408 75.821 79.9285 75.821C79.3408 75.038 79.3408 75.038 79.9285 75.821C79.3408 75.038 79.3408 75.038 79.3408 75.038C79.3408 75.038 79.3408 75.038 79.9285 75.821C79.3408 75.821 79.3408 75.821 79.9285 75.821ZM79.3408 71.1229C79.3408 71.9059 79.3408 71.9059 79.3408 71.1229C79.3408 71.9059 79.3408 71.9059 79.3408 71.1229C79.3408 71.9059 79.3408 71.9059 79.3408 71.1229ZM73.4638 97.7455C73.4638 96.9625 72.8761 96.9625 72.2884 96.9625C72.8761 96.9625 73.4638 96.9625 73.4638 97.7455ZM121.067 143.944C121.067 143.161 121.067 143.161 121.067 143.944C121.655 143.161 121.655 143.161 121.067 143.944C121.655 143.161 121.655 143.944 121.067 143.944C121.655 143.944 121.655 143.944 121.067 143.944C121.655 143.161 121.067 143.944 121.067 143.944ZM134.585 139.246C134.585 140.029 134.585 140.029 134.585 139.246C134.585 140.029 134.585 140.029 134.585 139.246C134.585 140.029 134.585 139.246 134.585 139.246ZM139.874 128.283C139.874 128.283 139.286 129.066 139.874 128.283C139.286 128.283 139.286 128.283 139.874 128.283ZM166.32 134.547C166.32 134.547 166.908 134.547 166.32 134.547C166.908 134.547 166.32 134.547 166.32 134.547ZM180.425 114.972C180.425 114.189 180.425 114.189 180.425 113.406C181.013 113.406 181.013 113.406 181.013 114.189C180.425 114.972 180.425 114.972 180.425 114.972ZM236.844 108.708C236.844 109.491 237.432 110.274 237.432 110.274C237.432 110.274 236.844 109.491 236.844 108.708ZM213.336 63.2927V62.5097C213.336 62.5097 213.336 63.2927 213.336 63.2927ZM197.468 57.0285C197.468 56.2455 197.468 56.2455 197.468 57.0285C197.468 56.2455 197.468 56.2455 197.468 57.0285ZM118.129 35.887C118.129 35.887 118.717 35.887 118.129 35.887C118.129 36.6701 118.129 35.887 118.129 35.887ZM67.5868 68.7738C67.5868 68.7738 67.5868 67.9908 67.5868 68.7738C67.5868 67.2078 66.9991 67.9908 66.9991 67.9908C66.9991 67.9908 66.9991 67.9908 67.5868 67.9908C66.9991 67.9908 67.5868 67.9908 67.5868 68.7738C67.5868 67.9908 67.5868 67.9908 67.5868 68.7738ZM64.0606 125.151C64.0606 125.151 64.0606 124.368 64.0606 125.151V125.151ZM102.261 157.255L101.673 158.038C101.673 157.255 101.673 158.038 101.673 157.255C101.673 157.255 101.673 157.255 102.261 157.255ZM140.462 131.415C140.462 132.198 140.462 132.198 140.462 132.198H139.874C140.462 132.198 140.462 132.198 140.462 131.415ZM209.81 59.3776C209.81 59.3776 209.81 58.5946 209.81 59.3776C209.81 58.5946 209.81 58.5946 209.81 59.3776ZM193.942 20.2267C194.53 20.2267 194.53 20.2267 193.942 20.2267C194.53 20.2267 194.53 20.2267 193.942 20.2267C194.53 20.2267 194.53 20.2267 193.942 20.2267ZM176.311 30.4059C176.899 29.6229 178.074 28.8399 178.662 28.8399C178.074 28.8399 177.487 29.6229 176.311 30.4059ZM89.3317 57.8116C89.3317 58.5946 89.3317 58.5946 89.3317 57.8116C89.3317 58.5946 89.3317 58.5946 89.3317 57.8116ZM48.1927 105.576C48.7804 104.793 48.7804 104.793 49.3681 104.793C49.3681 104.793 49.3681 104.793 49.9558 104.793C49.3681 104.793 48.7804 104.793 48.1927 105.576ZM92.8579 158.821L92.2702 158.038L92.8579 158.821ZM101.673 141.595C101.673 141.595 102.261 141.595 101.673 141.595C102.261 141.595 102.261 141.595 101.673 141.595ZM101.673 158.821C102.261 158.821 102.849 159.604 102.261 160.387C102.261 159.604 101.673 158.821 101.673 158.821C101.673 158.038 101.673 158.821 101.673 158.821ZM151.628 158.821C151.628 159.604 151.628 159.604 151.628 160.387C151.628 159.604 151.04 159.604 150.452 159.604C151.04 158.821 151.04 158.821 151.628 158.821ZM172.785 153.34C172.785 153.34 173.373 153.34 172.785 153.34C173.373 153.34 173.373 153.34 172.785 153.34C173.373 153.34 172.785 153.34 172.785 153.34ZM219.801 126.717C219.801 126.717 219.801 127.5 219.801 126.717C219.801 128.283 219.801 129.066 220.389 129.849C219.801 129.066 219.801 128.283 219.801 126.717ZM240.37 116.538C240.37 117.321 240.37 117.321 240.37 116.538C240.37 117.321 240.37 116.538 240.37 116.538ZM223.915 64.0757C224.503 64.0757 224.503 64.8587 225.09 64.8587C224.503 64.0757 223.915 64.0757 223.915 64.0757ZM162.206 17.8776C162.206 17.8776 162.206 17.0946 162.206 17.8776V17.8776ZM123.418 30.4059C123.418 30.4059 122.831 30.4059 122.831 31.1889C122.831 30.4059 123.418 30.4059 123.418 30.4059ZM46.4296 51.5474C46.4296 51.5474 45.8419 50.7644 45.2542 50.7644C45.8419 51.5474 45.8419 51.5474 46.4296 51.5474ZM54.6574 65.6418C54.6574 64.8587 54.0697 65.6418 54.6574 65.6418C54.0697 65.6418 54.0697 65.6418 54.0697 64.8587C54.0697 64.8587 54.0697 64.8587 54.6574 65.6418ZM49.3681 96.1795C48.7804 96.1795 48.7804 96.9625 48.7804 96.9625C48.7804 96.9625 48.7804 96.1795 49.3681 96.1795ZM49.9558 105.576H50.5435C49.9558 106.359 49.9558 106.359 49.9558 105.576C49.3681 106.359 49.3681 106.359 49.9558 105.576ZM47.0173 119.67C47.0173 119.67 47.0173 118.887 47.0173 119.67V119.67ZM73.4638 150.208C73.4638 150.991 73.4638 151.774 72.8761 150.991C72.8761 150.991 73.4638 150.991 73.4638 150.208ZM86.3932 154.123C86.3932 154.123 86.9809 154.906 86.3932 154.123C86.3932 154.906 86.3932 154.123 86.3932 154.123ZM88.744 157.255C88.744 158.038 88.1563 158.038 88.1563 158.038C88.1563 158.038 88.1563 157.255 88.744 157.255ZM135.172 159.604C135.172 160.387 135.172 160.387 135.172 159.604V159.604ZM244.484 107.925C244.484 108.708 244.484 108.708 244.484 107.925V107.925ZM246.247 80.5191C246.247 79.7361 246.835 80.5191 247.423 79.7361C246.835 80.5191 246.247 80.5191 246.247 80.5191ZM251.537 87.5663C251.537 87.5663 251.537 86.7833 251.537 87.5663C251.537 86.7833 251.537 86.7833 251.537 87.5663C251.537 86.7833 251.537 86.7833 251.537 87.5663ZM250.361 92.2644C250.949 92.2644 250.949 92.2644 250.949 93.0474C250.949 93.0474 250.361 93.0474 250.361 92.2644C250.361 93.0474 250.361 92.2644 250.361 92.2644ZM231.555 78.9531C231.555 78.9531 232.143 78.9531 231.555 78.9531C232.143 78.9531 231.555 78.9531 231.555 78.9531ZM193.354 10.0474C193.354 9.2644 193.354 7.69836 192.767 7.69836H193.354C193.354 8.48138 193.354 9.2644 193.354 10.0474ZM108.138 27.2738C107.55 26.4908 107.55 25.7078 106.963 25.7078C106.963 27.2738 107.55 28.0568 108.138 27.2738ZM42.9034 44.5002V43.7172C42.9034 43.7172 42.9034 43.7172 42.9034 44.5002ZM28.7986 53.1135C28.7986 53.1135 28.7986 53.8965 28.7986 53.1135C28.7986 53.8965 28.7986 53.1135 28.7986 53.1135ZM33.5002 52.3304V53.1135C33.5002 52.3304 32.9125 52.3304 32.9125 52.3304C33.5002 52.3304 33.5002 52.3304 33.5002 52.3304ZM82.2793 146.293L82.867 147.076C82.867 146.293 82.2793 146.293 82.2793 146.293ZM238.02 122.019C238.02 122.802 238.02 122.802 238.02 122.019C238.02 122.802 238.02 122.802 238.02 122.019ZM246.247 104.01C246.247 104.01 246.835 104.01 246.247 104.01C246.835 104.01 246.247 104.01 246.247 104.01ZM256.238 90.6984L255.651 91.4814C255.651 90.6984 256.238 90.6984 256.238 90.6984ZM209.81 53.1135C209.81 52.3304 210.398 52.3304 209.81 53.1135C210.398 52.3304 210.398 52.3304 209.81 53.1135C210.398 52.3304 210.398 52.3304 209.81 53.1135ZM208.047 52.3304C207.459 52.3304 207.459 52.3304 208.047 52.3304C207.459 52.3304 207.459 52.3304 208.047 52.3304ZM200.995 43.7172C202.758 42.1512 203.933 41.3682 204.521 38.2361C203.345 40.5852 201.582 42.1512 200.995 43.7172ZM210.398 31.9719C210.398 32.755 210.398 33.538 210.398 33.538C210.398 33.538 210.985 32.755 210.398 31.9719ZM108.138 16.3116C108.138 16.3116 107.55 16.3116 108.138 16.3116C107.55 16.3116 107.55 16.3116 108.138 16.3116ZM38.7895 45.2833C39.3772 45.2833 39.3772 43.7172 39.3772 42.9342C39.3772 43.7172 39.3772 44.5002 38.7895 45.2833C39.3772 45.2833 39.3772 45.2833 38.7895 45.2833ZM42.3157 49.9814C41.728 49.1984 41.1403 49.1984 39.9649 48.4153C41.1403 49.1984 41.728 49.1984 42.3157 49.9814ZM44.6665 78.1701C44.0788 78.1701 44.0788 78.1701 44.6665 78.1701C44.0788 78.1701 44.6665 78.1701 44.6665 78.1701ZM51.1312 86.0002C50.5435 86.0002 50.5435 86.7833 51.1312 86.0002C50.5435 86.7833 50.5435 86.0002 49.9558 86.0002C50.5435 86.7833 50.5435 86.0002 51.1312 86.0002ZM51.7189 122.802C51.7189 122.019 51.1312 122.019 51.7189 122.802C51.7189 122.019 51.7189 122.019 51.7189 122.802ZM58.7713 138.463V139.246C58.7713 138.463 58.7713 138.463 58.7713 138.463ZM158.68 165.868C159.268 165.868 159.856 165.085 160.443 164.302C159.856 165.085 159.268 165.868 158.68 165.868ZM162.794 162.736C163.382 162.736 162.794 162.736 162.794 162.736V162.736Z" fill="#F5CED0"/>
<path fill-rule="evenodd" clip-rule="evenodd" d="M77.5754 38.2358C76.9877 39.8019 75.2246 39.0189 75.2246 40.5849C77.5754 40.5849 77.5754 40.5849 77.5754 38.2358Z" fill="#F5CED0"/>
<path fill-rule="evenodd" clip-rule="evenodd" d="M45.8398 36.6699L46.4275 37.4529C46.4275 38.236 47.0152 38.236 47.6029 38.236H48.1906C48.7783 39.019 48.7783 39.019 49.366 39.019L48.7783 38.236L49.366 39.019C49.9537 39.802 51.1291 39.019 51.7168 39.802C52.3045 40.585 52.8922 39.802 53.4799 40.585C54.6553 42.1511 55.8307 41.368 57.0061 41.368C57.5938 41.368 57.5938 41.368 58.1815 41.368C58.7692 42.1511 59.9446 41.368 60.5323 42.1511C61.12 42.1511 61.12 42.1511 61.7077 42.1511C62.8831 42.1511 64.0585 42.1511 65.2339 42.1511C68.7601 43.7171 71.6986 40.585 74.6371 38.236C69.3478 39.019 64.0585 39.802 59.3569 39.019C58.7692 39.019 58.7692 39.019 58.1815 39.019C57.0061 38.236 55.8307 39.019 55.243 38.236C54.6553 38.236 54.0676 38.236 53.4799 38.236C52.8922 38.236 52.3045 38.236 51.7168 37.4529H51.1291C50.5414 36.6699 49.9537 36.6699 49.366 36.6699H48.7783L48.1906 35.8869C47.6029 35.8869 46.4275 35.8869 45.8398 36.6699C45.8398 35.8869 45.8398 35.8869 45.8398 36.6699Z" fill="#F5CED0"/>
<path fill-rule="evenodd" clip-rule="evenodd" d="M143.4 7.69808C144.576 6.91506 145.751 8.4811 146.927 6.13205C145.751 5.34903 144.576 6.91506 143.4 7.69808Z" fill="#F5CED0"/>
<path fill-rule="evenodd" clip-rule="evenodd" d="M229.204 52.3303C229.204 51.5472 229.204 51.5472 228.616 51.5472C228.028 51.5472 227.44 51.5472 227.44 52.3303C227.44 53.1133 227.44 53.1133 228.028 53.1133C228.616 52.3303 229.204 52.3303 229.204 52.3303Z" fill="#F5CED0"/>
<path fill-rule="evenodd" clip-rule="evenodd" d="M154.564 5.34938C155.151 5.34938 155.739 5.34938 156.327 5.34938H156.914C157.502 4.56636 156.914 4.56636 156.327 4.56636C155.151 4.56636 153.976 3.78334 152.8 5.34938C152.8 5.34938 152.8 5.34938 152.213 5.34938C151.625 5.34938 151.625 5.34938 151.625 6.1324C151.625 6.91542 152.213 6.91542 152.213 6.91542C153.388 6.1324 153.976 6.1324 154.564 5.34938Z" fill="#F5CED0"/>
<path fill-rule="evenodd" clip-rule="evenodd" d="M82.277 36.6702C81.6893 36.6702 81.1016 36.6702 81.1016 37.4532H81.6893C82.277 37.4532 82.277 37.4532 82.277 36.6702Z" fill="#F5CED0"/>
<path fill-rule="evenodd" clip-rule="evenodd" d="M79.9276 37.453C79.3398 37.453 79.3398 37.453 79.3398 37.453C79.3398 38.236 79.3398 38.236 79.9276 37.453C79.9276 38.236 79.9276 37.453 79.9276 37.453Z" fill="#F5CED0"/>
<path fill-rule="evenodd" clip-rule="evenodd" d="M0 110.274C0 110.274 0.587699 110.274 0 110.274C0.587699 110.274 0.587699 110.274 0.587699 110.274C0.587699 109.491 0.587699 109.491 0 110.274C0 109.491 0 110.274 0 110.274Z" fill="#F5CED0"/>
<path fill-rule="evenodd" clip-rule="evenodd" d="M194.53 3.78319C194.53 3.00017 193.943 3.00017 194.53 3.78319C193.943 3.00017 193.355 3.00017 193.943 3.78319C193.943 3.78319 193.943 4.56621 194.53 3.78319Z" fill="#F5CED0"/>
<path fill-rule="evenodd" clip-rule="evenodd" d="M168.083 6.91528C168.083 6.13226 167.495 6.13226 167.495 6.13226C166.907 6.13226 166.319 6.13226 165.732 6.13226C165.144 6.91528 165.144 6.91528 165.732 7.6983C166.319 7.6983 166.907 7.6983 167.495 7.6983C167.495 7.6983 168.083 7.6983 168.083 6.91528Z" fill="#F5CED0"/>
<path fill-rule="evenodd" clip-rule="evenodd" d="M202.757 46.066C203.345 46.849 203.345 46.066 202.757 46.066C203.345 46.066 203.345 46.066 202.757 46.066C203.345 46.066 202.757 46.066 202.757 46.066Z" fill="#F5CED0"/>
<path fill-rule="evenodd" clip-rule="evenodd" d="M207.457 46.0664C207.457 45.2834 208.045 45.2834 207.457 46.0664C208.045 45.2834 207.457 45.2834 207.457 46.0664C207.457 45.2834 207.457 45.2834 207.457 46.0664C207.457 45.2834 207.457 45.2834 207.457 46.0664Z" fill="#F5CED0"/>
<path fill-rule="evenodd" clip-rule="evenodd" d="M172.194 163.519C172.782 162.736 172.194 162.736 172.194 163.519C172.194 162.736 172.194 163.519 172.194 163.519Z" fill="#F5CED0"/>
<path fill-rule="evenodd" clip-rule="evenodd" d="M135.757 22.5754L136.345 23.3585V22.5754H135.757Z" fill="#F5CED0"/>
</g>
<path d="M163.358 38.3768H114.489L95.0801 55.145V131.38C95.0801 135.183 98.1994 138.295 102.012 138.295H163.185C166.998 138.295 170.117 135.183 170.117 131.38V45.2915C170.29 41.4884 167.171 38.3768 163.358 38.3768Z" fill="white" stroke="#151F41" stroke-width="1.5" stroke-miterlimit="10"/>
<path d="M117.608 39.2411V61.0226H104.438" stroke="#151F41" stroke-width="1.5" stroke-miterlimit="10"/>
<path d="M143.256 61.0226V14.0024C143.256 11.2365 145.509 9.16205 148.108 9.16205H194.031C196.804 9.16205 198.884 11.4093 198.884 14.0024V46.1559C198.884 48.9218 196.631 50.9963 194.031 50.9963H154.52L143.256 61.0226Z" fill="white" stroke="#151F41" stroke-width="1.5" stroke-miterlimit="10" stroke-linecap="round" stroke-linejoin="round"/>
<path d="M172.716 20.9171C175.315 18.324 179.474 18.324 181.9 20.7442C184.5 23.3372 184.326 27.3132 181.727 29.9062L170.983 40.797L160.238 30.0791C157.639 27.4861 157.639 23.3372 160.065 20.9171C162.665 18.324 166.824 18.4969 169.25 21.0899L170.983 22.4729L172.716 20.9171Z" fill="#DF5C62" stroke="#DF5C62" stroke-width="1.5" stroke-miterlimit="10" stroke-linecap="round" stroke-linejoin="round"/>
<path d="M107.903 76.9265H160.412" stroke="#151F41" stroke-width="1.5" stroke-miterlimit="10" stroke-linecap="round"/>
<path d="M107.903 88.5087H143.949" stroke="#151F41" stroke-width="1.5" stroke-miterlimit="10" stroke-linecap="round"/>
<path d="M107.903 100.264H140.656" stroke="#151F41" stroke-width="1.5" stroke-miterlimit="10" stroke-linecap="round"/>
<path d="M107.903 112.019H140.656" stroke="#151F41" stroke-width="1.5" stroke-miterlimit="10" stroke-linecap="round"/>
<path d="M107.903 123.774H123.846" stroke="#151F41" stroke-width="1.5" stroke-miterlimit="10" stroke-linecap="round"/>
<defs>
<clipPath id="clip0">
<rect width="258" height="166" fill="white" transform="translate(0 3)"/>
</clipPath>
</defs>
</svg>
