<svg width="258" height="166" viewBox="0 0 258 166" fill="none" xmlns="http://www.w3.org/2000/svg">
<g clip-path="url(#clip0)">
<path fill-rule="evenodd" clip-rule="evenodd" d="M122.241 9.39622C122.828 9.39622 123.416 9.39622 124.004 9.39622C125.179 8.6132 126.355 9.39622 127.53 8.6132C128.118 8.6132 128.705 8.6132 129.293 8.6132C129.881 7.83018 130.468 7.83018 131.056 7.83018C132.232 7.83018 132.819 7.83018 133.995 7.83018C134.582 7.83018 134.582 7.83018 135.17 7.04716C135.758 7.04716 136.933 7.04716 137.521 7.04716C137.521 6.26414 138.109 7.04716 138.696 6.26414L139.284 5.48112C138.696 4.69811 138.109 4.69811 137.521 5.48112C136.345 5.48112 135.758 5.48112 134.582 5.48112C133.995 5.48112 132.819 4.69811 132.232 6.26414C131.644 6.26414 131.056 6.26414 130.468 6.26414C129.293 7.04716 128.118 6.26414 127.53 7.04716C126.942 7.04716 126.942 7.04716 126.355 7.04716C125.767 7.04716 125.179 7.04716 124.591 7.83018H124.004H123.416H122.828C121.065 7.83018 119.302 7.83018 118.127 7.83018C117.539 7.83018 117.539 8.6132 117.539 8.6132C117.539 9.39622 118.127 9.39622 118.127 9.39622C119.302 9.39622 121.065 10.1792 122.241 9.39622ZM133.995 7.04716H134.582C134.582 7.04716 133.995 6.26414 133.995 7.04716ZM119.89 8.6132H119.302C119.302 8.6132 119.302 8.6132 119.89 8.6132Z" fill="#151F41"/>
<path fill-rule="evenodd" clip-rule="evenodd" d="M257.413 86.9153C257.413 86.9153 256.825 86.9153 256.825 86.1323C256.825 86.1323 256.825 86.1323 257.413 86.9153C256.825 86.1323 256.237 85.3493 256.237 85.3493C255.65 83.0002 256.825 81.4342 255.65 79.0852C255.65 78.3021 255.062 77.5191 254.474 77.5191L253.887 76.7361L253.299 75.9531C252.711 74.387 251.536 72.821 250.36 72.038L249.773 71.255C249.185 70.4719 248.597 70.4719 248.01 70.4719C245.659 72.038 242.72 71.255 240.957 72.821H240.369H239.782C239.194 72.821 238.606 72.821 238.019 73.604C237.431 73.604 236.256 73.604 235.668 74.387C235.08 74.387 235.08 74.387 234.492 75.1701C233.905 75.1701 232.729 75.9531 233.317 73.604C234.492 69.6889 233.905 66.5568 233.317 62.6418C232.729 61.0757 232.729 59.5097 234.492 57.9436C233.317 57.1606 232.142 57.1606 231.554 56.3776C230.379 54.8116 229.203 52.4625 227.44 52.4625C227.44 50.8965 226.265 50.1135 226.265 49.3304C226.265 46.9814 225.677 46.9814 224.502 46.9814C220.388 46.9814 216.861 47.7644 212.748 47.7644C212.748 47.7644 212.16 47.7644 212.16 48.5474H211.572C210.984 47.7644 210.984 47.7644 210.397 48.5474C208.634 48.5474 206.283 48.5474 205.107 46.1984C204.52 45.4153 203.932 45.4153 202.757 45.4153C202.169 44.6323 201.581 45.4153 200.994 44.6323C200.994 43.0663 199.818 42.2833 199.818 41.5002C200.406 41.5002 200.406 41.5002 200.406 40.7172C201.581 40.7172 202.169 39.9342 202.757 39.1512C203.344 38.3682 203.932 36.8021 205.107 36.8021C207.458 36.0191 208.634 33.6701 210.397 32.887C212.16 31.321 213.335 28.1889 212.16 26.6229C211.572 23.4908 211.572 21.1418 210.984 18.7927C210.984 18.0097 210.984 18.0097 210.397 17.2267C210.397 14.8776 209.809 12.5285 209.221 10.9625C209.221 10.1795 209.221 9.39647 208.634 9.39647C208.634 7.83043 208.046 6.2644 206.871 5.48138C206.871 4.69836 206.871 3.91534 206.283 3.91534L205.695 3.13232C205.695 2.3493 205.695 2.3493 205.107 1.56628C205.107 0.783264 205.107 0.783264 204.52 0.783264H203.932C202.169 1.56628 199.818 0.783264 198.055 1.56628C197.467 1.56628 196.292 1.56628 195.704 1.56628C195.117 1.56628 194.529 1.56628 193.941 0.783264C191.59 1.56628 189.24 2.3493 187.476 3.91534C186.301 3.91534 185.126 3.13232 184.538 4.69836C183.363 5.48138 181.6 4.69836 180.424 6.2644C179.836 7.04742 178.661 6.2644 178.073 7.04741C177.486 7.04741 176.898 7.04741 176.898 7.83043C176.31 7.83043 175.135 7.83043 174.547 7.83043C174.547 7.83043 173.959 7.83043 173.959 8.61345C171.609 9.39647 168.67 10.1795 166.319 10.9625L165.732 11.7455C163.381 11.7455 161.618 13.3116 159.267 12.5285L158.679 13.3116H158.092C157.504 12.5285 157.504 12.5285 156.916 13.3116C155.153 13.3116 153.978 13.3116 152.802 14.0946C151.039 15.6606 148.688 15.6606 146.338 17.2267C145.162 18.0097 144.574 15.6606 143.399 16.4436C142.224 16.4436 142.811 18.7927 141.048 19.5757C139.873 20.3587 138.11 20.3587 136.934 20.3587V21.1418V20.3587H136.347V21.1418C135.759 21.1418 135.171 21.1418 134.584 21.1418L133.996 21.9248C133.408 21.9248 132.82 21.9248 132.82 21.1418C132.82 20.3587 133.996 20.3587 133.996 19.5757C132.233 18.7927 131.057 20.3587 130.47 22.7078C129.882 22.7078 129.294 22.7078 129.294 21.9248C129.294 19.5757 128.707 20.3587 127.531 21.1418C126.943 21.9248 126.356 22.7078 126.356 23.4908H125.768H125.18H124.593C124.005 23.4908 122.83 23.4908 122.83 21.9248C122.83 20.3587 122.83 20.3587 121.654 20.3587C121.066 20.3587 120.479 20.3587 119.891 21.1418C120.479 21.9248 121.654 22.7078 121.654 24.2738C121.066 25.0568 119.891 24.2738 119.303 25.0569C118.716 25.0569 118.716 25.0569 118.128 25.0569C116.953 23.4908 116.953 23.4908 116.953 19.5757C116.953 17.2267 118.128 16.4436 119.303 15.6606C120.479 15.6606 121.654 15.6606 122.83 16.4436C123.417 17.2267 124.593 17.2267 125.18 16.4436C126.356 16.4436 127.531 16.4436 128.707 16.4436C131.645 16.4436 134.584 15.6606 136.934 14.0946C138.697 13.3116 139.873 14.0946 141.636 13.3116C142.224 12.5285 142.811 12.5285 143.987 12.5285H144.574C145.162 12.5285 145.75 12.5285 146.338 11.7455C148.101 11.7455 149.864 10.9625 151.627 10.1795C152.215 10.1795 152.802 10.1795 153.39 9.39647C154.565 9.39647 155.741 10.1795 156.328 8.61345C156.328 8.61345 156.328 8.61345 156.916 8.61345C157.504 8.61345 158.679 7.83043 158.679 7.83043C158.679 7.83043 158.679 7.83043 158.679 7.04741C156.916 5.48138 155.741 4.69836 153.978 6.2644C153.39 6.2644 152.802 7.04742 152.215 6.2644C148.688 5.48138 145.75 7.04742 142.224 9.39647C141.636 9.39647 141.636 9.39647 141.048 10.1795C140.461 10.1795 140.461 10.1795 139.873 10.9625C139.285 10.9625 139.285 10.9625 138.697 10.9625C138.11 10.9625 137.522 10.9625 136.934 10.9625C133.996 9.39647 131.645 10.9625 129.294 11.7455C128.119 11.7455 126.943 12.5285 125.768 11.7455C124.593 10.9625 123.417 10.1795 124.005 13.3116C124.005 14.0946 123.417 14.0946 122.83 14.0946C121.654 14.0946 121.066 14.0946 119.891 14.0946C119.891 14.0946 119.891 14.0946 119.303 14.0946H118.716C118.716 14.0946 118.716 14.0946 118.128 14.0946C115.777 12.5285 112.839 10.9625 110.488 13.3116C109.9 13.3116 109.9 13.3116 109.312 13.3116C108.725 12.5285 108.137 12.5285 106.962 12.5285C104.611 12.5285 102.848 12.5285 100.497 12.5285C99.3216 10.9625 98.1462 11.7455 96.9708 11.7455C96.3831 10.9625 95.7954 10.9625 95.2077 10.9625C94.62 10.1795 94.62 10.1795 94.0323 10.1795C93.4446 10.1795 93.4446 10.9625 93.4446 10.9625L92.8569 11.7455C92.8569 12.5285 91.6815 11.7455 91.6815 13.3116C91.6815 14.0946 91.6815 14.8776 92.2692 14.8776C92.2692 15.6606 92.8569 16.4436 93.4446 17.2267C94.0323 18.7927 94.0323 20.3587 94.62 21.9248C94.62 23.4908 94.62 24.2738 95.7954 25.0569C95.7954 25.8399 96.3831 26.6229 96.3831 27.4059C95.7954 27.4059 95.2077 27.4059 94.62 28.1889C94.0323 28.1889 93.4446 29.755 93.4446 30.538C93.4446 31.321 94.0323 31.321 94.62 31.321C95.2077 31.321 95.7954 32.104 95.7954 32.887C95.7954 33.6701 95.2077 33.6701 94.62 34.4531C93.4446 36.0191 91.6815 35.2361 89.9184 36.0191C89.3307 36.0191 88.1553 36.0191 87.5676 36.8021C86.3922 36.8021 85.2168 36.0191 84.6291 37.5852C83.4537 37.5852 82.2783 36.8021 81.6906 38.3682C79.9275 39.1512 78.7521 36.8021 76.989 39.1512C76.4013 39.9342 74.0505 39.1512 72.8751 39.9342C71.112 40.7172 69.3489 39.1512 67.5858 40.7172C64.0596 40.7172 61.1211 40.7172 57.5949 40.7172C55.2441 39.9342 52.8933 39.1512 50.5425 39.1512C48.7794 39.1512 47.604 39.1512 47.0163 39.9342H46.4286C46.4286 39.1512 45.8409 39.1512 45.2532 39.1512C44.0778 38.3682 42.9024 39.1512 41.727 38.3682C41.1393 37.5852 40.5516 37.5852 39.9639 38.3682C39.3762 37.5852 38.7885 38.3682 38.2008 37.5852C38.2008 37.5852 38.2008 37.5852 37.6131 37.5852C37.6131 36.8021 37.0254 36.8021 36.4377 36.8021C35.85 36.0191 34.6746 36.0191 34.087 36.8021C34.087 37.5852 35.2623 37.5852 35.2623 37.5852L34.6746 38.3682C34.0869 38.3682 34.0869 38.3682 33.4992 38.3682C32.9115 38.3682 32.3239 38.3682 31.7362 38.3682C31.7362 38.3682 31.7362 38.3682 31.1485 38.3682C31.1485 38.3682 31.1485 38.3682 31.7362 38.3682L32.3239 39.1512C32.3239 39.9342 32.9115 39.9342 33.4992 39.9342C33.4992 40.7172 34.0869 40.7172 34.6746 40.7172C35.2623 43.0663 35.85 43.0663 36.4377 43.0663C37.0254 45.4153 35.85 44.6323 35.2623 44.6323C35.2623 43.8493 34.6746 43.8493 34.087 43.8493C33.4993 42.2833 32.3239 43.8493 31.7362 43.8493C29.3854 42.2833 27.6223 42.2833 25.2715 43.8493C25.2715 43.0663 24.6838 43.0663 24.0961 43.0663C23.5084 42.2833 22.333 43.0663 21.7453 42.2833C21.1576 41.5002 20.5699 42.2833 20.5699 41.5002C18.8068 40.7172 17.0437 40.7172 15.2806 41.5002C15.8683 43.0663 16.456 43.0663 17.6314 43.0663C17.6314 44.6323 18.2191 44.6323 18.8068 44.6323V43.8493V44.6323C19.3945 45.4153 19.3945 44.6323 19.9822 45.4153C19.9822 45.4153 19.9822 45.4153 20.5699 45.4153C21.1576 45.4153 21.1576 45.4153 21.7453 46.1984C22.333 46.9814 22.9207 46.9814 22.9207 46.9814C23.5084 47.7644 24.0961 47.7644 24.6838 47.7644C25.2715 48.5474 25.8592 49.3304 26.4469 49.3304C27.0346 50.1135 27.6223 50.8965 28.21 50.8965C29.3854 53.2455 31.1485 54.8116 32.9116 54.8116C32.9116 55.5946 33.4993 55.5946 34.087 55.5946C35.2623 57.9436 37.0254 58.7267 38.7885 58.7267C38.7885 59.5097 39.3762 59.5097 39.9639 59.5097C39.9639 60.2927 40.5516 60.2927 41.1393 60.2927C41.727 61.0757 42.3147 61.0757 42.9024 61.0757C44.6655 63.4248 47.604 63.4248 49.9548 64.9908C52.3056 65.7738 54.6564 66.5568 57.0072 66.5568C57.5949 66.5568 58.1826 67.3399 58.7703 68.1229C58.7703 69.6889 58.1826 69.6889 57.5949 69.6889C56.4195 69.6889 55.8318 70.4719 56.4195 71.255C57.0072 72.038 57.5949 71.255 57.5949 72.038C57.0072 72.821 56.4195 72.038 55.8318 72.038V72.821V72.038C55.8318 72.038 55.8318 72.038 55.2441 72.038C54.6564 71.255 53.481 72.038 52.8933 71.255C51.7179 70.4719 50.5425 70.4719 49.3671 71.255C48.1917 72.821 49.3671 72.821 49.9548 72.821C50.5425 73.604 51.1302 73.604 51.7179 74.387C49.3671 74.387 47.0163 74.387 45.2532 74.387C44.6655 74.387 43.4901 74.387 43.4901 75.1701C43.4901 76.7361 42.3147 76.7361 41.1393 76.7361C40.5516 76.7361 39.9639 77.5191 39.3762 78.3021C39.9639 79.0852 40.5516 78.3021 41.727 78.3021C42.3147 79.0852 42.9024 78.3021 43.4901 79.0852C45.2532 80.6512 47.0163 80.6512 48.7794 80.6512C49.3671 80.6512 49.3671 81.4342 49.3671 81.4342C49.3671 82.2172 48.7794 81.4342 48.1917 82.2172C46.4286 80.6512 44.0778 82.2172 41.727 81.4342C41.1393 79.8682 39.9639 80.6512 38.7885 80.6512C36.4377 77.5191 34.0869 79.8682 32.3239 82.2172C31.1485 83.7833 29.9731 83.7833 28.21 83.7833C27.6223 83.7833 27.0346 83.7833 25.8592 83.7833C25.8592 83.7833 25.2715 83.7833 25.2715 83.0002C24.6838 83.0002 24.0961 83.0002 23.5084 83.0002L22.9207 82.2172C22.333 82.2172 21.7453 82.2172 21.1576 82.2172C21.1576 81.4342 20.5699 81.4342 19.9822 81.4342C19.3945 81.4342 19.3945 81.4342 18.8068 82.2172C18.8068 83.0002 19.3945 83.0002 19.3945 83.0002H19.9822C20.5699 83.0002 20.5699 83.0002 21.1576 83.0002L21.7453 83.7833H22.333L22.9207 84.5663C23.5084 84.5663 23.5084 84.5663 24.0961 84.5663L24.6838 85.3493C24.6838 85.3493 24.6838 85.3493 25.2715 85.3493C27.0346 88.4814 29.3854 89.2644 32.3239 89.2644C32.9116 90.0474 34.0869 90.8304 35.2623 90.8304C38.7885 93.9625 41.1393 93.9625 43.4901 95.5285C44.0778 95.5285 44.6655 95.5285 44.6655 94.7455H45.2532C45.2532 95.5285 45.8409 95.5285 46.4286 95.5285C45.8409 97.0946 44.0778 97.0946 43.4901 97.8776C42.3147 98.6606 42.3147 99.4436 40.5516 99.4436C34.6746 99.4436 28.7977 99.4436 23.5084 99.4436C22.333 99.4436 21.7453 98.6606 20.5699 100.227C20.5699 100.227 20.5699 101.01 21.1576 101.01C21.7453 101.01 21.7453 101.01 22.333 101.01C22.333 101.793 23.5084 101.793 24.0961 101.793C25.8592 101.793 27.6223 101.793 28.7977 101.793C31.1485 103.359 33.4992 101.793 35.85 101.793C35.85 102.576 36.4377 102.576 37.0254 102.576C41.727 103.359 46.4286 104.925 51.1302 106.491C51.1302 108.057 50.5425 108.057 49.9548 108.057C48.7794 108.057 47.604 108.84 45.8409 108.84C47.0163 109.623 48.1917 108.84 49.3671 108.84C48.1917 108.84 47.0163 108.84 45.8409 108.84C45.2532 108.057 44.6655 108.057 44.0778 108.057C42.9024 108.057 41.1393 108.057 39.9639 108.057H39.3762C38.2008 107.274 37.0254 108.057 35.85 107.274C35.2623 106.491 34.6746 106.491 34.087 106.491C31.7362 106.491 29.3854 106.491 27.0346 106.491C25.8592 106.491 25.2715 106.491 24.0961 106.491C21.1576 104.925 17.6314 105.708 14.1052 105.708C12.9298 105.708 13.5175 107.274 14.1052 108.057V108.84C14.1052 108.84 14.1052 108.84 14.1052 108.057C11.7544 108.057 9.99127 108.057 7.64047 108.057C7.05277 108.057 6.46508 108.057 5.87738 108.057C5.28968 108.057 4.70198 108.057 4.70198 108.057C3.52658 108.057 2.93888 108.057 1.17578 107.274C1.76348 108.84 2.93888 108.84 3.52658 109.623C4.11428 109.623 5.28968 109.623 5.87738 110.406C6.46508 110.406 7.05277 110.406 7.64047 110.406C9.40357 111.972 10.579 111.189 12.3421 111.189C11.7544 110.406 11.1667 110.406 9.99127 109.623C10.579 110.406 11.1667 109.623 11.7544 110.406C12.3421 110.406 12.3421 110.406 12.9298 110.406C14.6929 111.972 17.0437 111.189 18.8068 111.189C19.9822 112.755 21.7453 111.972 22.9207 111.972C24.0961 113.538 25.8592 112.755 27.0346 112.755C27.6223 113.538 28.21 113.538 28.7977 113.538C29.3854 115.104 30.5608 114.321 31.7362 114.321C32.3239 115.104 33.4993 115.104 34.6746 115.104C35.2623 115.887 35.85 115.104 36.4377 115.887C39.9639 117.453 42.3147 117.453 44.0778 117.453C45.8409 118.236 48.1917 118.236 49.9548 119.019C50.5425 119.802 51.1302 119.802 51.7179 119.802L52.3056 120.585L52.8933 121.368C52.8933 122.151 52.8933 122.151 52.3056 122.934C50.5425 121.368 50.5425 121.368 49.3671 123.717C48.1917 125.283 49.3671 125.283 49.9548 126.066L50.5425 126.849C51.1302 128.415 51.1302 129.981 52.3056 130.764C52.3056 131.547 52.8933 131.547 53.481 131.547C53.481 131.547 54.0687 131.547 54.0687 132.33C54.6564 133.896 55.2441 135.463 57.0072 135.463C57.5949 137.029 58.1826 138.595 59.9457 138.595C60.5334 139.378 61.1211 140.161 61.7088 140.161L62.2965 140.944L62.8842 141.727C62.8842 142.51 63.4719 142.51 63.4719 142.51C63.4719 143.293 64.6473 143.293 64.0596 144.076C63.4719 144.076 62.8842 144.076 62.2965 144.859L61.7088 145.642L61.1211 146.425C60.5334 147.208 61.1211 147.991 60.5334 147.991L59.9457 148.774L59.358 149.557C59.358 151.123 59.358 151.906 59.358 153.472L59.9457 154.255C59.9457 154.255 60.5334 154.255 60.5334 155.038C60.5334 155.038 60.5334 155.821 61.1211 155.821L61.7088 156.604C62.2965 157.387 62.2965 156.604 62.8842 157.387H63.4719H64.0596H64.6473H65.235L65.8227 156.604C66.9981 156.604 66.9981 155.821 66.4104 155.038C65.235 154.255 64.0596 153.472 63.4719 151.906C62.8842 151.123 62.8842 151.123 63.4719 150.34H64.0596L64.6473 151.123L65.235 150.34V149.557C65.235 148.774 65.8227 147.991 65.235 146.425V145.642C65.8227 145.642 66.9981 146.425 67.5858 147.208C69.3489 148.774 74.0505 151.906 76.4013 152.689C76.989 153.472 78.1644 153.472 78.7521 154.255C78.7521 155.038 79.3398 155.038 79.9275 155.038C79.9275 155.821 80.5152 155.821 81.1029 155.821C81.1029 156.604 81.6906 156.604 82.2783 156.604C82.866 157.387 83.4537 157.387 84.0414 157.387C85.8045 158.17 87.5676 159.736 89.3307 159.736C89.9184 161.302 91.6815 161.302 92.8569 161.302C94.62 161.302 96.3831 162.085 98.1462 162.085C101.672 163.651 105.786 164.434 109.9 164.434C115.189 165.217 120.479 166 125.768 165.217C126.943 165.217 128.707 165.217 129.882 165.217C131.645 165.217 133.408 166 135.171 164.434C135.171 164.434 135.759 164.434 136.347 164.434C137.522 164.434 138.697 164.434 139.873 164.434C141.636 163.651 142.811 162.085 144.574 164.434C145.162 165.217 145.75 164.434 146.338 164.434C148.688 165.217 151.627 163.651 153.978 163.651C158.679 164.434 162.205 162.085 165.732 158.953C166.907 158.953 168.082 158.953 168.67 158.953C171.021 157.387 173.959 158.953 176.31 158.17H176.898C176.898 158.953 176.898 159.736 177.486 159.736C178.073 159.736 178.073 158.953 178.073 158.17C178.661 157.387 180.424 156.604 181.012 157.387C181.599 159.736 182.187 158.17 182.775 158.17C183.363 156.604 185.126 156.604 185.713 155.821C189.24 155.821 192.178 155.038 195.117 152.689C197.467 152.689 199.818 152.689 200.994 149.557C202.169 149.557 203.344 149.557 203.932 147.991C205.107 147.991 206.283 147.991 206.871 146.425C209.221 145.642 211.572 144.076 213.335 141.727C214.511 140.944 215.686 140.161 216.861 138.595C217.449 138.595 218.037 137.812 218.625 137.029C219.8 137.029 220.975 136.246 221.563 134.679L222.151 133.896C223.326 133.896 223.914 132.33 224.502 131.547C225.089 131.547 225.089 131.547 225.677 130.764L226.265 129.981L226.852 129.198L227.44 128.415L228.028 127.632V126.849C228.615 126.849 229.203 126.066 229.203 125.283C229.791 124.5 230.379 125.283 230.966 124.5C231.554 124.5 232.142 124.5 232.142 123.717C232.729 123.717 233.317 123.717 233.317 122.934C235.08 122.934 236.843 122.151 238.019 120.585C239.194 120.585 240.957 120.585 242.133 120.585C242.72 120.585 243.308 120.585 243.896 119.019L244.483 118.236C245.071 118.236 245.659 118.236 246.246 117.453H246.834C247.422 116.67 248.01 117.453 248.597 116.67C249.185 116.67 249.773 116.67 249.773 115.104C249.773 114.321 249.185 114.321 248.597 114.321C248.01 114.321 247.422 114.321 246.834 115.104H248.01C247.422 115.104 246.834 115.104 246.834 115.104C246.834 115.104 246.834 115.887 246.246 115.887H245.659C244.483 115.104 245.659 113.538 245.659 112.755C245.659 112.755 245.659 112.755 245.659 113.538C246.246 112.755 247.422 112.755 247.422 111.189C247.422 109.623 247.422 108.057 247.422 106.491C246.834 103.359 248.01 101.793 249.185 99.4436C250.36 97.8776 252.123 97.0946 253.887 97.0946H254.474C255.062 97.0946 255.062 96.3116 255.062 96.3116C256.237 96.3116 256.825 95.5285 256.825 93.9625C258 91.6134 258.588 89.2644 257.413 86.9153ZM25.8592 110.406H25.2715C25.2715 111.189 25.2715 111.189 25.8592 110.406C25.2715 110.406 25.2715 110.406 25.8592 110.406ZM31.1485 111.189H30.5608C31.1485 111.189 31.1485 111.189 31.1485 111.189ZM94.62 13.3116C94.62 13.3116 94.62 12.5285 94.62 13.3116C94.62 12.5285 94.62 12.5285 94.62 13.3116C94.62 12.5285 94.62 13.3116 94.62 13.3116ZM227.44 57.9436C226.852 57.9436 226.852 57.9436 227.44 57.9436C226.852 57.9436 227.44 57.9436 227.44 57.9436C227.44 57.9436 227.44 58.7267 227.44 57.9436ZM241.545 116.67C241.545 115.887 241.545 115.887 241.545 116.67C241.545 115.887 242.133 115.887 241.545 116.67C242.133 115.887 241.545 115.887 241.545 116.67ZM69.3489 145.642C69.3489 145.642 69.3489 144.859 69.3489 145.642C69.3489 144.859 69.3489 145.642 69.3489 145.642ZM71.6997 44.6323C71.6997 43.8493 71.6997 43.8493 71.6997 44.6323C71.6997 43.8493 71.6997 43.8493 71.6997 44.6323C71.6997 43.8493 71.6997 43.8493 71.6997 44.6323C71.6997 43.8493 71.6997 43.8493 71.6997 44.6323ZM82.866 54.8116C82.866 55.5946 83.4537 55.5946 83.4537 56.3776C83.4537 56.3776 82.866 56.3776 82.2783 56.3776C82.866 56.3776 82.866 55.5946 82.866 54.8116ZM216.861 53.2455C216.274 53.2455 216.274 53.2455 216.861 53.2455C216.274 54.0285 216.274 53.2455 216.861 53.2455C216.274 53.2455 216.274 53.2455 216.861 53.2455ZM220.388 52.4625C220.388 52.4625 219.8 52.4625 220.388 52.4625C219.8 52.4625 220.388 52.4625 220.388 52.4625ZM55.8318 116.67C55.2441 116.67 55.2441 116.67 55.8318 116.67C55.2441 116.67 55.2441 116.67 55.8318 116.67ZM161.618 147.208C161.03 147.208 161.03 147.208 161.618 147.208C161.03 147.208 161.03 146.425 161.618 147.208C161.618 146.425 161.618 147.208 161.618 147.208ZM79.3398 119.019C80.5152 118.236 81.6906 116.67 82.2783 115.887C81.1029 115.887 79.9275 116.67 79.3398 119.019ZM98.1462 56.3776C98.7339 56.3776 98.7339 55.5946 98.1462 56.3776C98.7339 56.3776 98.7339 56.3776 98.1462 56.3776ZM192.766 56.3776C192.766 56.3776 193.353 56.3776 192.766 56.3776C192.766 57.1606 192.766 56.3776 192.766 56.3776ZM193.354 55.5946C193.354 54.8116 193.354 55.5946 193.354 55.5946V55.5946ZM215.686 72.821C215.098 72.821 215.098 72.821 214.511 72.821L215.098 72.038C215.098 72.038 215.098 72.038 215.686 72.821ZM229.203 87.6984C229.203 87.6984 229.791 87.6984 229.203 87.6984C229.791 87.6984 229.203 87.6984 229.203 87.6984ZM89.9184 122.151C89.9184 122.151 90.5061 122.151 89.9184 122.151C90.5061 122.151 89.9184 122.934 89.9184 122.151C89.9184 122.934 89.9184 122.151 89.9184 122.151ZM113.426 46.1984L114.014 45.4153C114.014 46.1984 113.426 46.1984 113.426 46.1984ZM196.292 82.2172V81.4342V82.2172ZM165.144 93.9625C164.556 93.9625 164.556 93.9625 163.969 94.7455C163.969 93.9625 164.556 93.9625 165.144 93.9625ZM162.205 90.8304C162.205 90.0474 162.205 90.0474 162.205 90.8304C162.205 90.0474 162.205 90.8304 162.205 90.8304ZM163.381 86.9153C163.381 86.9153 163.381 87.6984 163.381 86.9153C163.381 87.6984 163.381 86.9153 163.381 86.9153ZM159.267 91.6134C159.267 91.6134 159.267 92.3965 159.267 91.6134C159.267 92.3965 159.267 91.6134 159.267 91.6134ZM164.556 86.1323C165.144 86.1323 165.144 85.3493 165.732 85.3493C165.144 85.3493 164.556 85.3493 164.556 86.1323ZM169.846 87.6984C169.258 87.6984 169.258 86.9153 169.846 87.6984C169.258 86.9153 169.258 86.1323 169.258 86.1323C169.258 86.1323 169.258 86.9153 169.846 87.6984C169.258 86.9153 169.258 87.6984 169.846 87.6984ZM158.092 68.9059C158.092 68.9059 157.504 68.9059 158.092 68.9059V68.9059ZM97.5585 88.4814C97.5585 88.4814 97.5585 89.2644 97.5585 88.4814V88.4814ZM102.26 84.5663C102.26 83.7833 102.26 83.7833 102.26 84.5663C102.26 83.7833 102.26 83.7833 102.26 84.5663C102.26 83.7833 102.26 84.5663 102.26 84.5663ZM104.023 81.4342C104.611 81.4342 104.611 81.4342 104.023 81.4342C104.611 81.4342 104.611 81.4342 104.023 81.4342C104.611 81.4342 104.611 81.4342 104.023 81.4342ZM100.497 100.227C101.085 100.227 100.497 100.227 100.497 100.227C100.497 101.01 100.497 101.01 100.497 100.227C100.497 101.01 100.497 100.227 100.497 100.227ZM115.777 85.3493H115.189H115.777ZM116.953 115.887C117.54 115.104 116.953 115.104 116.953 115.887C116.953 115.104 117.54 115.104 116.953 115.887C117.54 115.104 116.953 115.887 116.953 115.887ZM125.768 81.4342C126.356 81.4342 125.768 80.6512 125.768 81.4342C126.356 80.6512 125.768 80.6512 125.768 81.4342ZM140.461 72.821C140.461 73.604 140.461 73.604 140.461 72.821V72.821ZM138.697 83.7833C138.697 84.5663 138.697 84.5663 138.697 83.7833C138.697 84.5663 138.697 84.5663 138.697 83.7833C138.697 84.5663 138.697 84.5663 138.697 83.7833ZM142.811 68.1229C142.811 68.1229 142.811 67.3399 142.811 68.1229C142.811 67.3399 142.811 68.1229 142.811 68.1229ZM115.777 119.019C115.777 119.019 115.777 119.802 115.777 119.019C115.777 119.802 115.777 119.802 115.777 119.019C115.777 119.802 115.777 119.802 115.777 119.019ZM157.504 97.8776C157.504 98.6606 157.504 98.6606 157.504 97.8776C157.504 98.6606 157.504 98.6606 157.504 97.8776C157.504 97.8776 157.504 98.6606 157.504 97.8776ZM109.312 90.8304H109.9H110.488C110.488 90.8304 109.9 90.0474 109.312 90.8304ZM123.417 110.406C123.417 110.406 124.005 110.406 123.417 110.406V110.406ZM128.707 117.453C128.707 118.236 128.707 118.236 128.707 117.453V117.453ZM132.233 60.2927C132.82 60.2927 132.82 60.2927 132.233 60.2927C132.82 60.2927 132.233 60.2927 132.233 60.2927ZM125.18 54.8116C124.593 54.0285 125.18 53.2455 125.768 53.2455C125.768 54.8116 125.768 55.5946 126.356 56.3776C125.768 55.5946 125.18 54.8116 125.18 54.8116ZM79.9275 104.142C79.9275 104.925 79.9275 104.925 79.9275 104.142C79.3398 104.925 79.3398 104.142 79.9275 104.142C79.9275 104.142 79.3398 104.925 79.9275 104.142C79.9275 104.142 79.9275 104.925 79.9275 104.142C79.9275 104.925 79.9275 104.925 79.9275 104.142ZM126.356 121.368C126.356 122.151 126.356 122.151 126.356 121.368C126.356 122.151 126.356 121.368 126.356 121.368ZM165.144 59.5097H165.732C165.732 59.5097 165.732 59.5097 165.144 59.5097ZM133.408 35.2361C133.408 36.0191 132.82 36.0191 133.408 35.2361C132.82 36.0191 133.408 36.0191 133.408 35.2361ZM129.882 52.4625C130.47 50.8965 129.882 50.1135 129.294 49.3304C129.294 50.8965 129.882 51.6795 130.47 52.4625C130.47 52.4625 130.47 52.4625 129.882 52.4625ZM116.365 46.9814C116.365 47.7644 116.365 47.7644 116.365 46.9814C116.365 47.7644 116.365 46.9814 116.365 46.9814ZM206.283 130.764C206.283 130.764 205.695 130.764 206.283 130.764C205.695 130.764 205.695 130.764 206.283 130.764C205.695 130.764 205.695 130.764 206.283 130.764ZM219.8 115.104C219.8 115.104 219.8 115.887 219.8 115.104V115.104ZM224.502 101.793C224.502 101.793 225.089 101.793 224.502 101.793C224.502 101.793 225.089 101.793 224.502 101.793ZM205.107 61.0757C205.107 61.0757 205.107 61.8587 205.107 61.0757C204.52 61.0757 204.52 61.0757 205.107 61.0757C204.52 61.0757 205.107 61.0757 205.107 61.0757ZM197.467 69.6889C197.467 68.9059 196.88 68.9059 197.467 69.6889C196.88 68.9059 196.88 68.9059 197.467 69.6889C196.292 68.1229 195.704 68.9059 195.117 69.6889C195.704 68.9059 196.292 68.9059 197.467 69.6889C196.88 68.9059 196.88 69.6889 197.467 69.6889ZM193.354 76.7361C193.354 75.9531 193.354 75.9531 193.354 75.1701C193.354 75.9531 193.354 76.7361 193.354 76.7361ZM183.363 64.2078V64.9908V64.2078ZM172.784 39.9342C172.784 39.1512 172.784 39.1512 172.784 39.1512C173.372 39.9342 172.784 39.9342 172.784 39.9342ZM135.171 33.6701C135.171 33.6701 135.759 32.887 136.347 32.887C135.759 33.6701 135.171 33.6701 135.171 33.6701ZM132.82 32.887L133.408 33.6701C133.408 33.6701 132.82 33.6701 132.82 32.887ZM114.014 48.5474C112.839 49.3304 112.839 50.8965 111.663 50.8965C112.251 50.1135 113.426 50.1135 114.014 48.5474ZM108.137 58.7267C108.137 59.5097 108.137 59.5097 108.137 58.7267C108.137 59.5097 107.549 59.5097 108.137 58.7267ZM75.2259 90.8304C74.6382 90.8304 75.2259 90.8304 75.2259 90.8304V90.8304ZM92.8569 138.595C92.8569 138.595 92.8569 139.378 92.8569 138.595V138.595ZM131.057 139.378C131.057 140.161 130.47 140.944 130.47 140.944C130.47 140.161 130.47 139.378 131.057 139.378ZM183.95 93.9625C183.95 94.7455 184.538 94.7455 183.95 93.9625C184.538 94.7455 183.95 94.7455 183.95 93.9625C183.95 94.7455 183.95 94.7455 183.95 93.9625ZM210.397 122.151C210.397 122.151 209.809 122.151 210.397 122.151V122.151ZM128.119 33.6701H127.531C127.531 33.6701 127.531 32.887 128.119 33.6701C127.531 32.887 128.119 33.6701 128.119 33.6701ZM95.7954 55.5946C96.3831 54.8116 96.9708 53.2455 97.5585 53.2455C97.5585 54.0285 96.3831 54.0285 95.7954 55.5946C95.7954 56.3776 95.7954 57.1606 96.3831 57.1606C96.3831 57.9436 97.5585 58.7267 98.1462 58.7267C98.7339 58.7267 99.3216 58.7267 99.3216 58.7267C99.3216 58.7267 98.7339 58.7267 98.1462 58.7267C97.5585 57.9436 96.9708 57.9436 96.3831 57.1606C96.3831 56.3776 96.3831 56.3776 95.7954 55.5946ZM95.2077 57.1606H94.62C94.62 57.1606 94.62 57.1606 95.2077 57.1606ZM79.9275 72.821C79.3398 72.821 79.3398 72.821 79.9275 72.821C79.3398 72.038 79.3398 72.038 79.9275 72.821C79.3398 72.038 79.3398 72.038 79.3398 72.038C79.3398 72.038 79.3398 72.038 79.9275 72.821C79.3398 72.821 79.3398 72.821 79.9275 72.821ZM79.3398 68.1229C79.3398 68.9059 79.3398 68.9059 79.3398 68.1229C79.3398 68.9059 79.3398 68.9059 79.3398 68.1229C79.3398 68.9059 79.3398 68.9059 79.3398 68.1229ZM73.4628 94.7455C73.4628 93.9625 72.8751 93.9625 72.2874 93.9625C72.8751 93.9625 73.4628 93.9625 73.4628 94.7455ZM121.066 140.944C121.066 140.161 121.066 140.161 121.066 140.944C121.654 140.161 121.654 140.161 121.066 140.944C121.654 140.161 121.654 140.944 121.066 140.944C121.654 140.944 121.654 140.944 121.066 140.944C121.654 140.161 121.066 140.944 121.066 140.944ZM134.584 136.246C134.584 137.029 134.584 137.029 134.584 136.246C134.584 137.029 134.584 137.029 134.584 136.246C134.584 137.029 134.584 136.246 134.584 136.246ZM139.873 125.283C139.873 125.283 139.285 126.066 139.873 125.283C139.285 125.283 139.285 125.283 139.873 125.283ZM166.319 131.547C166.319 131.547 166.907 131.547 166.319 131.547C166.907 131.547 166.319 131.547 166.319 131.547ZM180.424 111.972C180.424 111.189 180.424 111.189 180.424 110.406C181.012 110.406 181.012 110.406 181.012 111.189C180.424 111.972 180.424 111.972 180.424 111.972ZM236.843 105.708C236.843 106.491 237.431 107.274 237.431 107.274C237.431 107.274 236.843 106.491 236.843 105.708ZM213.335 60.2927V59.5097C213.335 59.5097 213.335 60.2927 213.335 60.2927ZM197.467 54.0285C197.467 53.2455 197.467 53.2455 197.467 54.0285C197.467 53.2455 197.467 53.2455 197.467 54.0285ZM118.128 32.887C118.128 32.887 118.716 32.887 118.128 32.887C118.128 33.6701 118.128 32.887 118.128 32.887ZM67.5858 65.7738C67.5858 65.7738 67.5858 64.9908 67.5858 65.7738C67.5858 64.2078 66.9981 64.9908 66.9981 64.9908C66.9981 64.9908 66.9981 64.9908 67.5858 64.9908C66.9981 64.9908 67.5858 64.9908 67.5858 65.7738C67.5858 64.9908 67.5858 64.9908 67.5858 65.7738ZM64.0596 122.151C64.0596 122.151 64.0596 121.368 64.0596 122.151V122.151ZM102.26 154.255L101.672 155.038C101.672 154.255 101.672 155.038 101.672 154.255C101.672 154.255 101.672 154.255 102.26 154.255ZM140.461 128.415C140.461 129.198 140.461 129.198 140.461 129.198H139.873C140.461 129.198 140.461 129.198 140.461 128.415ZM209.809 56.3776C209.809 56.3776 209.809 55.5946 209.809 56.3776C209.809 55.5946 209.809 55.5946 209.809 56.3776ZM193.941 17.2267C194.529 17.2267 194.529 17.2267 193.941 17.2267C194.529 17.2267 194.529 17.2267 193.941 17.2267C194.529 17.2267 194.529 17.2267 193.941 17.2267ZM176.31 27.4059C176.898 26.6229 178.073 25.8399 178.661 25.8399C178.073 25.8399 177.486 26.6229 176.31 27.4059ZM89.3307 54.8116C89.3307 55.5946 89.3307 55.5946 89.3307 54.8116C89.3307 55.5946 89.3307 55.5946 89.3307 54.8116ZM48.1917 102.576C48.7794 101.793 48.7794 101.793 49.3671 101.793C49.3671 101.793 49.3671 101.793 49.9548 101.793C49.3671 101.793 48.7794 101.793 48.1917 102.576ZM92.8569 155.821L92.2692 155.038L92.8569 155.821ZM101.672 138.595C101.672 138.595 102.26 138.595 101.672 138.595C102.26 138.595 102.26 138.595 101.672 138.595ZM101.672 155.821C102.26 155.821 102.848 156.604 102.26 157.387C102.26 156.604 101.672 155.821 101.672 155.821C101.672 155.038 101.672 155.821 101.672 155.821ZM151.627 155.821C151.627 156.604 151.627 156.604 151.627 157.387C151.627 156.604 151.039 156.604 150.451 156.604C151.039 155.821 151.039 155.821 151.627 155.821ZM172.784 150.34C172.784 150.34 173.372 150.34 172.784 150.34C173.372 150.34 173.372 150.34 172.784 150.34C173.372 150.34 172.784 150.34 172.784 150.34ZM219.8 123.717C219.8 123.717 219.8 124.5 219.8 123.717C219.8 125.283 219.8 126.066 220.388 126.849C219.8 126.066 219.8 125.283 219.8 123.717ZM240.369 113.538C240.369 114.321 240.369 114.321 240.369 113.538C240.369 114.321 240.369 113.538 240.369 113.538ZM223.914 61.0757C224.502 61.0757 224.502 61.8587 225.089 61.8587C224.502 61.0757 223.914 61.0757 223.914 61.0757ZM162.205 14.8776C162.205 14.8776 162.205 14.0946 162.205 14.8776V14.8776ZM123.417 27.4059C123.417 27.4059 122.83 27.4059 122.83 28.1889C122.83 27.4059 123.417 27.4059 123.417 27.4059ZM46.4286 48.5474C46.4286 48.5474 45.8409 47.7644 45.2532 47.7644C45.8409 48.5474 45.8409 48.5474 46.4286 48.5474ZM54.6564 62.6418C54.6564 61.8587 54.0687 62.6418 54.6564 62.6418C54.0687 62.6418 54.0687 62.6418 54.0687 61.8587C54.0687 61.8587 54.0687 61.8587 54.6564 62.6418ZM49.3671 93.1795C48.7794 93.1795 48.7794 93.9625 48.7794 93.9625C48.7794 93.9625 48.7794 93.1795 49.3671 93.1795ZM49.9548 102.576H50.5425C49.9548 103.359 49.9548 103.359 49.9548 102.576C49.3671 103.359 49.3671 103.359 49.9548 102.576ZM47.0163 116.67C47.0163 116.67 47.0163 115.887 47.0163 116.67V116.67ZM73.4628 147.208C73.4628 147.991 73.4628 148.774 72.8751 147.991C72.8751 147.991 73.4628 147.991 73.4628 147.208ZM86.3922 151.123C86.3922 151.123 86.9799 151.906 86.3922 151.123C86.3922 151.906 86.3922 151.123 86.3922 151.123ZM88.743 154.255C88.743 155.038 88.1553 155.038 88.1553 155.038C88.1553 155.038 88.1553 154.255 88.743 154.255ZM135.171 156.604C135.171 157.387 135.171 157.387 135.171 156.604V156.604ZM244.483 104.925C244.483 105.708 244.483 105.708 244.483 104.925V104.925ZM246.246 77.5191C246.246 76.7361 246.834 77.5191 247.422 76.7361C246.834 77.5191 246.246 77.5191 246.246 77.5191ZM251.536 84.5663C251.536 84.5663 251.536 83.7833 251.536 84.5663C251.536 83.7833 251.536 83.7833 251.536 84.5663C251.536 83.7833 251.536 83.7833 251.536 84.5663ZM250.36 89.2644C250.948 89.2644 250.948 89.2644 250.948 90.0474C250.948 90.0474 250.36 90.0474 250.36 89.2644C250.36 90.0474 250.36 89.2644 250.36 89.2644ZM231.554 75.9531C231.554 75.9531 232.142 75.9531 231.554 75.9531C232.142 75.9531 231.554 75.9531 231.554 75.9531ZM193.354 7.04741C193.354 6.2644 193.353 4.69836 192.766 4.69836H193.354C193.354 5.48138 193.354 6.2644 193.354 7.04741ZM108.137 24.2738C107.549 23.4908 107.549 22.7078 106.962 22.7078C106.962 24.2738 107.549 25.0568 108.137 24.2738ZM42.9024 41.5002V40.7172C42.9024 40.7172 42.9024 40.7172 42.9024 41.5002ZM28.7977 50.1135C28.7977 50.1135 28.7977 50.8965 28.7977 50.1135C28.7977 50.8965 28.7977 50.1135 28.7977 50.1135ZM33.4992 49.3304V50.1135C33.4992 49.3304 32.9116 49.3304 32.9116 49.3304C33.4992 49.3304 33.4992 49.3304 33.4992 49.3304ZM82.2783 143.293L82.866 144.076C82.866 143.293 82.2783 143.293 82.2783 143.293ZM238.019 119.019C238.019 119.802 238.019 119.802 238.019 119.019C238.019 119.802 238.019 119.802 238.019 119.019ZM246.246 101.01C246.246 101.01 246.834 101.01 246.246 101.01C246.834 101.01 246.246 101.01 246.246 101.01ZM256.237 87.6984L255.65 88.4814C255.65 87.6984 256.237 87.6984 256.237 87.6984ZM209.809 50.1135C209.809 49.3304 210.397 49.3304 209.809 50.1135C210.397 49.3304 210.397 49.3304 209.809 50.1135C210.397 49.3304 210.397 49.3304 209.809 50.1135ZM208.046 49.3304C207.458 49.3304 207.458 49.3304 208.046 49.3304C207.458 49.3304 207.458 49.3304 208.046 49.3304ZM200.994 40.7172C202.757 39.1512 203.932 38.3682 204.52 35.2361C203.344 37.5852 201.581 39.1512 200.994 40.7172ZM210.397 28.9719C210.397 29.755 210.397 30.538 210.397 30.538C210.397 30.538 210.984 29.755 210.397 28.9719ZM108.137 13.3116C108.137 13.3116 107.549 13.3116 108.137 13.3116C107.549 13.3116 107.549 13.3116 108.137 13.3116ZM38.7885 42.2833C39.3762 42.2833 39.3762 40.7172 39.3762 39.9342C39.3762 40.7172 39.3762 41.5002 38.7885 42.2833C39.3762 42.2833 39.3762 42.2833 38.7885 42.2833ZM42.3147 46.9814C41.727 46.1984 41.1393 46.1984 39.9639 45.4153C41.1393 46.1984 41.727 46.1984 42.3147 46.9814ZM44.6655 75.1701C44.0778 75.1701 44.0778 75.1701 44.6655 75.1701C44.0778 75.1701 44.6655 75.1701 44.6655 75.1701ZM51.1302 83.0002C50.5425 83.0002 50.5425 83.7833 51.1302 83.0002C50.5425 83.7833 50.5425 83.0002 49.9548 83.0002C50.5425 83.7833 50.5425 83.0002 51.1302 83.0002ZM51.7179 119.802C51.7179 119.019 51.1302 119.019 51.7179 119.802C51.7179 119.019 51.7179 119.019 51.7179 119.802ZM58.7703 135.463V136.246C58.7703 135.463 58.7703 135.463 58.7703 135.463ZM158.679 162.868C159.267 162.868 159.855 162.085 160.442 161.302C159.855 162.085 159.267 162.868 158.679 162.868ZM162.793 159.736C163.381 159.736 162.793 159.736 162.793 159.736V159.736Z" fill="#151F41"/>
<path d="M130.5 75.5L136 62.5L141.69 75.5L151 67.5L148 85.5H123.5L121 68L122 67.5L130.5 75.5Z" fill="white" stroke="#60FEB2" stroke-width="2" stroke-linejoin="round"/>
<path d="M144.802 97.8782C158.428 93.0183 165.534 78.0326 160.674 64.4068C155.814 50.781 140.829 43.6749 127.203 48.5349C113.577 53.3949 106.471 68.3805 111.331 82.0063C116.191 95.6321 131.177 102.738 144.802 97.8782Z" stroke="white" stroke-width="2" stroke-linecap="round" stroke-linejoin="round"/>
<path d="M136.001 62.1701C137.525 62.1701 138.76 60.935 138.76 59.4114C138.76 57.8878 137.525 56.6527 136.001 56.6527C134.477 56.6527 133.242 57.8878 133.242 59.4114C133.242 60.935 134.477 62.1701 136.001 62.1701Z" stroke="#60FEB2" stroke-width="2" stroke-linecap="round" stroke-linejoin="round"/>
<path d="M120.829 67.6876C122.353 67.6876 123.588 66.4525 123.588 64.9289C123.588 63.4053 122.353 62.1702 120.829 62.1702C119.305 62.1702 118.07 63.4053 118.07 64.9289C118.07 66.4525 119.305 67.6876 120.829 67.6876Z" stroke="#60FEB2" stroke-width="2" stroke-linecap="round" stroke-linejoin="round"/>
<path d="M151.175 67.6876C152.698 67.6876 153.933 66.4525 153.933 64.9289C153.933 63.4053 152.698 62.1702 151.175 62.1702C149.651 62.1702 148.416 63.4053 148.416 64.9289C148.416 66.4525 149.651 67.6876 151.175 67.6876Z" stroke="#60FEB2" stroke-width="2" stroke-linecap="round" stroke-linejoin="round"/>
<path d="M133.243 99.4128L118.07 127L113.932 115.965H100.139L115.312 91.1367" stroke="white" stroke-width="2" stroke-linecap="round" stroke-linejoin="round"/>
<path d="M138.76 99.4128L153.933 127L158.071 115.965H171.864L156.691 91.1367" stroke="white" stroke-width="2" stroke-linecap="round" stroke-linejoin="round"/>
<path d="M169.105 75.9637H176.002" stroke="white" stroke-width="2" stroke-linecap="round" stroke-linejoin="round"/>
<path d="M169.105 70.4463L173.699 66.3082" stroke="white" stroke-width="2" stroke-linecap="round" stroke-linejoin="round"/>
<path d="M169.105 81.4812L173.699 85.6193" stroke="white" stroke-width="2" stroke-linecap="round" stroke-linejoin="round"/>
<path d="M102.897 75.9637H96" stroke="white" stroke-width="2" stroke-linecap="round" stroke-linejoin="round"/>
<path d="M102.896 70.4463L98.3027 66.3082" stroke="white" stroke-width="2" stroke-linecap="round" stroke-linejoin="round"/>
<path d="M102.896 81.4812L98.3027 85.6193" stroke="white" stroke-width="2" stroke-linecap="round" stroke-linejoin="round"/>
<path fill-rule="evenodd" clip-rule="evenodd" d="M77.5754 35.2358C76.9877 36.8019 75.2246 36.0189 75.2246 37.5849C77.5754 37.5849 77.5754 37.5849 77.5754 35.2358Z" fill="#151F41"/>
<path fill-rule="evenodd" clip-rule="evenodd" d="M45.8398 33.6699L46.4275 34.4529C46.4275 35.236 47.0152 35.236 47.6029 35.236H48.1906C48.7783 36.019 48.7783 36.019 49.366 36.019L48.7783 35.236L49.366 36.019C49.9537 36.802 51.1291 36.019 51.7168 36.802C52.3045 37.585 52.8922 36.802 53.4799 37.585C54.6553 39.1511 55.8307 38.368 57.0061 38.368C57.5938 38.368 57.5938 38.368 58.1815 38.368C58.7692 39.1511 59.9446 38.368 60.5323 39.1511C61.12 39.1511 61.12 39.1511 61.7077 39.1511C62.8831 39.1511 64.0585 39.1511 65.2339 39.1511C68.7601 40.7171 71.6986 37.585 74.6371 35.236C69.3478 36.019 64.0585 36.802 59.3569 36.019C58.7692 36.019 58.7692 36.019 58.1815 36.019C57.0061 35.236 55.8307 36.019 55.243 35.236C54.6553 35.236 54.0676 35.236 53.4799 35.236C52.8922 35.236 52.3045 35.236 51.7168 34.4529H51.1291C50.5414 33.6699 49.9537 33.6699 49.366 33.6699H48.7783L48.1906 32.8869C47.6029 32.8869 46.4275 32.8869 45.8398 33.6699C45.8398 32.8869 45.8398 32.8869 45.8398 33.6699Z" fill="#151F41"/>
<path fill-rule="evenodd" clip-rule="evenodd" d="M143.4 4.69808C144.576 3.91506 145.751 5.4811 146.927 3.13205C145.751 2.34903 144.576 3.91506 143.4 4.69808Z" fill="#151F41"/>
<path fill-rule="evenodd" clip-rule="evenodd" d="M229.204 49.3303C229.204 48.5472 229.204 48.5472 228.617 48.5472C228.029 48.5472 227.441 48.5472 227.441 49.3303C227.441 50.1133 227.441 50.1133 228.029 50.1133C228.617 49.3303 229.204 49.3303 229.204 49.3303Z" fill="#151F41"/>
<path fill-rule="evenodd" clip-rule="evenodd" d="M154.564 2.34938C155.151 2.34938 155.739 2.34938 156.327 2.34938H156.914C157.502 1.56636 156.914 1.56636 156.327 1.56636C155.151 1.56636 153.976 0.783341 152.8 2.34938C152.8 2.34938 152.8 2.34938 152.213 2.34938C151.625 2.34938 151.625 2.34938 151.625 3.1324C151.625 3.91542 152.213 3.91542 152.213 3.91542C153.388 3.1324 153.976 3.1324 154.564 2.34938Z" fill="#151F41"/>
<path fill-rule="evenodd" clip-rule="evenodd" d="M82.277 33.6702C81.6893 33.6702 81.1016 33.6702 81.1016 34.4532H81.6893C82.277 34.4532 82.277 34.4532 82.277 33.6702Z" fill="#151F41"/>
<path fill-rule="evenodd" clip-rule="evenodd" d="M79.9276 34.453C79.3398 34.453 79.3398 34.453 79.3398 34.453C79.3398 35.236 79.3398 35.236 79.9276 34.453C79.9276 35.236 79.9276 34.453 79.9276 34.453Z" fill="#151F41"/>
<path fill-rule="evenodd" clip-rule="evenodd" d="M0 107.274C0 107.274 0.587699 107.274 0 107.274C0.587699 107.274 0.587699 107.274 0.587699 107.274C0.587699 106.491 0.587699 106.491 0 107.274C0 106.491 0 107.274 0 107.274Z" fill="#151F41"/>
<path fill-rule="evenodd" clip-rule="evenodd" d="M194.53 0.783187C194.53 0.00016816 193.943 0.00016816 194.53 0.783187C193.943 0.00016816 193.355 0.00016816 193.943 0.783187C193.943 0.783187 193.943 1.56621 194.53 0.783187Z" fill="#151F41"/>
<path fill-rule="evenodd" clip-rule="evenodd" d="M168.083 3.91528C168.083 3.13226 167.495 3.13226 167.495 3.13226C166.907 3.13226 166.319 3.13226 165.732 3.13226C165.144 3.91528 165.144 3.91528 165.732 4.6983C166.319 4.6983 166.907 4.6983 167.495 4.6983C167.495 4.6983 168.083 4.6983 168.083 3.91528Z" fill="#151F41"/>
<path fill-rule="evenodd" clip-rule="evenodd" d="M202.756 43.066C203.344 43.849 203.344 43.066 202.756 43.066C203.344 43.066 203.344 43.066 202.756 43.066C203.344 43.066 202.756 43.066 202.756 43.066Z" fill="#151F41"/>
<path fill-rule="evenodd" clip-rule="evenodd" d="M207.457 43.0664C207.457 42.2834 208.045 42.2834 207.457 43.0664C208.045 42.2834 207.457 42.2834 207.457 43.0664C207.457 42.2834 207.457 42.2834 207.457 43.0664C207.457 42.2834 207.457 42.2834 207.457 43.0664Z" fill="#151F41"/>
<path fill-rule="evenodd" clip-rule="evenodd" d="M172.195 160.519C172.783 159.736 172.195 159.736 172.195 160.519C172.195 159.736 172.195 160.519 172.195 160.519Z" fill="#151F41"/>
<path fill-rule="evenodd" clip-rule="evenodd" d="M135.756 19.5754L136.344 20.3585V19.5754H135.756Z" fill="#151F41"/>
</g>
<defs>
<clipPath id="clip0">
<rect width="258" height="166" fill="white"/>
</clipPath>
</defs>
</svg>
