<svg width="224" height="147" viewBox="0 0 224 147" fill="none" xmlns="http://www.w3.org/2000/svg">
<path fill-rule="evenodd" clip-rule="evenodd" d="M48.1719 4.30645H48.2766V4.20142L48.1719 4.30645Z" fill="#D4CDF6"/>
<path fill-rule="evenodd" clip-rule="evenodd" d="M30.683 100.834C30.1594 100.94 29.7405 101.15 29.8453 101.78C29.8453 102.305 30.3689 102.62 30.7878 102.725C31.3114 102.83 31.6255 102.305 31.6255 101.78C31.7302 101.255 31.3114 100.94 30.683 100.834Z" fill="#D4CDF6"/>
<path fill-rule="evenodd" clip-rule="evenodd" d="M183.473 18.3812C182.531 18.1711 181.798 18.0661 181.379 18.5913C181.169 18.6963 181.274 19.2215 181.379 19.2215C182.112 19.7467 182.635 19.2215 183.473 18.3812Z" fill="#D4CDF6"/>
<path fill-rule="evenodd" clip-rule="evenodd" d="M25.8665 106.717C25.4476 106.717 25.0287 106.822 25.1335 107.137C25.3429 107.767 25.9712 107.872 26.5996 107.977C26.7043 107.767 27.1232 107.662 27.1232 107.557C27.0185 106.822 26.3901 106.822 25.8665 106.717Z" fill="#D4CDF6"/>
<path fill-rule="evenodd" clip-rule="evenodd" d="M12.4622 134.971C11.9386 134.971 11.5197 134.971 10.9961 134.971C10.5772 135.076 9.94886 135.076 10.0536 135.601C10.263 136.337 10.9961 136.442 11.6244 136.442C11.9386 136.442 12.2527 136.547 12.4622 136.547C12.6716 136.757 12.9858 136.757 13.1952 136.442C13.4047 136.442 13.7188 136.442 13.9283 136.442C13.9283 136.442 14.033 136.337 14.033 136.232C14.1377 136.022 14.033 135.917 13.9283 135.706C13.6141 135.286 12.8811 135.496 12.4622 134.971Z" fill="#D4CDF6"/>
<path fill-rule="evenodd" clip-rule="evenodd" d="M31.2072 134.551C30.6836 134.551 30.4742 134.761 30.5789 135.181C30.5789 135.601 30.7884 136.022 31.1025 136.442C31.312 136.127 31.6261 135.916 31.7309 135.706C31.8356 135.286 31.7309 134.761 31.2072 134.551Z" fill="#D4CDF6"/>
<path fill-rule="evenodd" clip-rule="evenodd" d="M25.0283 140.538C25.2378 140.748 25.5519 140.958 25.7614 141.168C26.0755 141.378 26.3897 141.273 26.3897 140.958C26.4944 140.538 26.0755 140.328 25.6567 140.328C25.3425 140.328 25.133 140.433 25.0283 140.538Z" fill="#D4CDF6"/>
<path fill-rule="evenodd" clip-rule="evenodd" d="M187.242 21.0071C187.033 20.9021 186.823 20.9021 186.509 20.692C186.509 20.9021 186.405 21.1122 186.3 21.3222C186.509 21.4273 186.823 21.6373 186.928 21.5323C187.033 21.5323 187.138 21.2172 187.242 21.0071Z" fill="#D4CDF6"/>
<path fill-rule="evenodd" clip-rule="evenodd" d="M3.66526 74.0503C2.51332 73.6302 1.46611 72.6848 0 74.1553C1.25666 75.1007 2.51332 74.6805 3.66526 74.7855C3.97943 74.7855 4.18887 74.7856 4.39832 74.8906C4.92193 75.2057 5.34081 75.2057 5.86442 74.7855C5.86442 74.7855 5.96914 74.6805 5.96914 74.5755C6.07387 74.3654 5.96914 74.2604 5.7597 74.0503C5.13137 74.0503 4.39832 74.0503 3.66526 74.0503Z" fill="#D4CDF6"/>
<path fill-rule="evenodd" clip-rule="evenodd" d="M9.52999 114.699C9.52999 114.699 9.73943 114.594 9.73943 114.489C9.63471 114.279 9.42526 114.279 9.21582 114.489C9.32054 114.594 9.42526 114.699 9.52999 114.699Z" fill="#D4CDF6"/>
<path fill-rule="evenodd" clip-rule="evenodd" d="M223.057 91.8014V91.9065C223.057 91.9065 223.057 91.9065 223.057 91.8014C223.057 91.0662 223.267 90.1208 222.324 89.5957C222.115 89.4906 222.115 89.2806 222.22 89.0705C222.324 88.4403 222.22 87.8101 221.487 87.495V87.6C221.068 87.0748 221.277 86.3396 220.544 86.1295L220.649 86.2345C220.439 85.6043 220.544 84.9741 220.02 84.5539L219.811 84.3439L219.916 84.1338C220.23 80.9827 219.392 78.6719 216.146 77.7266C215.308 77.5165 214.784 76.5712 213.947 76.5712V76.6762C213.947 76.1511 213.632 75.941 213.214 75.941C213.109 75.941 213.004 75.836 213.004 75.836L213.214 75.941C213.214 75.941 213.214 75.941 213.318 75.941C213.109 75.3108 212.585 75.1007 211.957 74.9957C209.967 74.5755 208.501 73.5252 207.454 71.9496H207.349C207.768 71.6345 208.606 71.7395 208.71 71.1093C209.234 71.2144 209.444 71.0043 209.653 70.5842L209.548 70.4791L209.653 70.5842C210.281 70.2691 210.386 69.7439 210.491 69.1137L210.386 69.0086C210.386 69.0086 210.491 69.0086 210.491 69.1137C211.119 69.0086 211.852 69.1137 212.271 68.7985C213.318 68.1683 213.004 67.7482 211.957 67.5381C211.119 66.5928 209.862 66.6978 208.815 66.1726H208.92C208.606 65.7525 208.71 65.0173 208.082 64.7021L208.187 64.8072C208.292 63.8619 208.396 62.9165 208.606 61.9712C209.129 59.3453 209.025 59.2403 206.092 58.7151C205.883 58.4 205.674 58.0849 205.359 57.8748C204.103 55.9842 203.16 53.7784 200.856 52.8331C200.542 52.2029 199.809 52.4129 199.39 51.9928V52.0978C198.657 51.4676 197.924 50.9424 197.086 50.6273C196.249 49.0518 194.887 48.8417 193.421 48.9467C193.212 49.0518 192.897 49.0518 192.897 48.9467C193.421 48.4216 193.84 48.0014 194.259 47.4762L194.154 47.3712V47.2662C194.154 47.3712 194.154 47.4762 194.154 47.4762C196.772 46.2158 196.982 45.2705 195.83 41.3842C195.725 40.7539 195.62 40.2288 195.097 39.9137L194.992 40.0187C194.992 39.9137 194.992 39.9137 195.097 39.9137C195.097 38.6532 194.782 37.6029 193.631 36.8676C193.631 36.3424 193.421 35.8173 192.897 35.3971C192.688 35.187 192.374 34.8719 192.164 34.6619C192.164 34.7669 192.06 34.8719 191.955 34.977C191.955 34.977 191.955 34.977 191.955 34.8719L192.164 34.6619C191.955 34.4518 191.641 34.1367 191.431 33.9266L191.222 34.0316C191.222 34.0316 191.327 33.9266 191.431 33.9266C191.117 32.036 189.756 31.1957 188.499 30.2503L188.29 30.3554C188.394 30.2503 188.394 30.2503 188.499 30.2503C188.499 28.7798 188.185 27.4144 187.033 26.259C185.881 24.9985 183.577 23.9482 185.043 21.5324C185.253 21.1122 184.624 20.6921 184.101 20.7971C183.263 21.0072 182.425 21.3223 181.587 21.4273C179.284 21.6374 178.027 20.2719 178.865 18.0662C179.598 16.2806 178.551 16.0705 177.608 15.8604C176.561 15.5453 175.409 15.6503 174.362 15.4403C174.362 15.5453 174.362 15.5453 174.362 15.5453L174.466 15.4403C174.257 15.2302 173.943 15.0201 173.733 14.705L173.524 14.8101C173.524 14.8101 173.524 14.8101 173.524 14.705C173.629 14.705 173.629 14.705 173.733 14.705C174.257 13.8647 176.142 13.1295 173.629 12.3942C172.581 11.9741 171.744 10.9237 170.906 10.1885C170.801 10.2935 170.801 10.2935 170.696 10.2935L170.906 10.1885C170.696 8.82301 169.754 7.98272 168.707 7.24747L168.497 7.3525C168.497 7.24747 168.602 7.24747 168.707 7.24747C168.288 3.78128 164.937 0.735237 161.586 0.735237C163.575 0.945309 164.099 3.46617 165.775 3.88632C166.717 4.20142 166.612 4.93668 166.822 5.56689C165.565 3.36114 164.099 1.36545 161.586 0.735237L161.481 0.840273L161.271 0.735237C160.538 -0.210086 159.596 0.42013 158.968 0.735237C156.454 2.20574 153.836 2.20574 151.113 1.99567C145.249 1.57553 139.489 2.20574 133.73 2.83596C133.52 2.52085 133.311 2.52085 132.997 2.83596C132.892 3.04603 132.682 3.04603 132.473 2.83596C130.483 3.15106 128.284 1.89063 126.399 3.67624H126.504C125.666 3.57121 124.828 3.36114 124.2 4.20142C122.629 4.30646 121.058 4.20142 119.487 4.30646C117.812 4.51653 116.032 3.78128 114.566 4.93668C114.356 5.04171 114.042 5.04171 113.832 5.04171C113.309 5.25178 112.995 5.67193 112.89 6.19711C112.89 6.09207 112.89 5.98704 112.89 5.77696C113.204 5.46186 113.518 5.25178 113.832 4.93668C111.529 5.14675 109.12 4.20142 107.13 5.56689C106.921 5.67193 106.816 5.77696 106.607 5.67193C105.036 5.67193 103.465 5.56689 101.999 5.56689C100.428 5.67193 98.7525 4.93668 97.6006 6.40718L97.3912 6.51222L97.1817 6.40718C93.5164 6.40718 89.8512 6.40718 86.1859 6.30214C85.2434 6.30214 84.1962 6.09207 83.5679 7.14243C83.3584 7.0374 83.0443 7.0374 82.8348 7.0374C81.6829 5.77696 80.2168 6.19711 78.9601 6.51222C77.3893 7.0374 75.8185 7.0374 74.2476 7.14243C73.4099 7.45754 72.4674 7.45754 71.6296 7.14243C69.5351 5.56689 67.1265 6.61725 64.8227 6.40718C64.8227 6.40718 64.8227 6.51222 64.9274 6.51222C63.8802 5.35682 62.3093 6.51222 61.1574 5.67193H60.7385C60.1102 4.93668 58.9582 5.35682 58.2252 4.93668L57.911 5.04171L57.8063 4.83164C57.2827 4.4115 56.7591 4.51653 56.2355 4.20142L56.3402 4.30646C54.9788 3.15106 53.408 3.78128 51.9419 3.46617C50.371 2.52085 49.2191 3.15106 48.2766 4.30646C47.8577 4.4115 47.6483 4.62157 47.4388 5.04171C47.4388 4.93668 47.4388 4.93668 47.4388 4.93668C46.6011 4.83164 45.868 5.14675 45.3444 5.77696C44.4019 6.93236 45.0302 7.45754 46.0775 7.66761L45.9727 7.56258C46.1822 7.98272 46.3916 8.19279 46.8105 8.29783C46.6011 9.24315 46.8105 10.5036 45.2397 10.6086C43.8783 10.7137 43.6689 11.764 43.6689 12.9194C44.4019 13.2345 45.135 13.4446 45.868 13.7597L46.0775 13.6547C46.0775 13.7597 45.9727 13.7597 45.9727 13.7597C45.9727 13.7597 45.868 13.8647 45.7633 13.8647C45.6586 15.0201 44.9255 15.1252 43.983 15.2302C39.1658 15.8604 34.2439 16.1755 29.322 15.9655C27.2275 15.8604 25.3425 16.3856 23.0387 17.2259C24.6095 18.8014 26.3897 18.0662 28.0653 18.1712H28.3795L28.6936 18.3813C29.9503 19.6417 31.8353 18.4863 33.1967 19.3266C30.8928 20.482 28.5889 20.482 26.285 20.587C26.0756 20.6921 25.9709 20.6921 25.6567 20.482C21.782 19.1165 17.9073 19.9568 14.0326 19.8518C13.1948 19.8518 13.1948 20.6921 13.6137 21.2173C14.0326 21.7424 14.6609 22.2676 15.1845 22.6878C15.394 22.6878 15.394 22.5827 15.6034 22.4777C15.6034 22.5827 15.4987 22.4777 15.4987 22.5827L15.2892 22.6878C14.6609 24.5784 14.4515 26.6791 12.7759 28.1496C12.4617 28.4647 12.7759 29.0949 13.1948 29.4101C12.6712 30.8806 11.9381 32.4561 13.2995 33.8216C13.509 34.0316 13.7184 34.3467 13.9279 34.5568V34.4518C14.0326 34.4518 14.0326 34.4518 14.0326 34.4518C13.9279 34.6619 13.9279 34.6619 13.9279 34.6619C14.0326 35.187 14.6609 35.082 14.7656 35.3971C14.8703 35.5021 14.8703 35.6072 14.8703 35.6072C15.4987 36.4475 16.127 37.0777 17.0695 37.3928V37.2878C17.6978 38.4431 18.9545 38.4431 19.897 38.9683C20.1064 39.2834 20.5253 39.5985 20.9442 39.7036L21.2584 39.5985L21.3631 39.8086C22.515 41.1741 24.0859 41.2791 25.7614 41.3842L25.9709 41.1741C25.8661 41.2791 25.8661 41.2791 25.7614 41.3842C31.5211 43.8 37.595 44.5352 43.7736 44.2201C43.8783 44.0101 43.5641 43.8 43.5641 43.5899C43.5641 43.8 43.6689 44.0101 43.7736 44.2201L44.0877 44.1151L44.2972 44.2201C43.7736 45.3755 42.098 44.5352 41.365 45.6906L41.4697 45.9007H41.365C41.365 45.7957 41.365 45.7957 41.365 45.6906C38.7469 45.5856 36.2336 46.3209 33.7203 46.9511C29.8456 47.8964 26.285 47.7914 22.7245 45.7957C22.2009 46.3208 21.6773 45.9007 21.2584 45.6906C21.0489 45.4806 20.7348 45.2705 20.5253 45.0604C20.3159 45.0604 20.1064 45.0604 19.7923 44.9554C19.4781 44.7453 19.2687 44.5352 18.9545 44.3252C18.7451 44.3252 18.4309 44.3252 18.2214 44.3252H18.3262C18.012 44.1151 17.8026 43.905 17.4884 43.6949C17.279 43.6949 17.0695 43.6949 16.7553 43.6949V43.4849C16.3365 43.3798 16.127 43.0647 15.8128 42.9597C15.7081 43.0647 15.4987 43.0647 15.394 42.9597C14.9751 43.0647 14.3467 42.7496 14.3467 43.4849C14.3467 44.0101 14.8703 44.2201 15.2892 44.3252C15.4987 44.3252 15.8128 44.3252 16.0223 44.5352C15.2892 44.9554 15.1845 45.6906 14.8703 46.1108H14.7656C14.6609 46.1108 14.7656 46.2158 14.6609 46.2158C14.3467 46.636 13.7184 46.846 13.6137 47.6863C13.509 49.787 13.2995 52.0978 12.2523 54.0935C11.624 55.2489 12.1476 56.1942 12.9854 57.0345C13.0901 57.6647 13.1948 58.1899 13.8231 58.505L14.0326 58.2949C14.0326 58.2949 14.0326 58.2949 14.1373 58.4C14.0326 58.4 13.9279 58.4 13.7184 58.505C13.7184 59.2403 14.1373 59.8705 14.4515 60.5007C15.394 60.5007 14.9751 59.7655 15.1845 59.2403V59.3453C14.8703 59.6604 14.7656 60.1856 14.4515 60.5007C14.0326 60.5007 13.509 60.6057 12.9854 60.6057C11.9381 60.5007 10.8909 60.3957 9.8437 60.3957C9.00593 60.5007 8.16815 59.9755 7.4351 60.2906C6.28316 60.8158 7.01621 61.1309 7.85399 61.341H7.95871C9.21537 62.0762 10.5768 61.341 11.624 62.0762C12.5665 62.0762 13.509 62.0762 14.3467 62.1813C14.8703 63.2316 16.127 62.4964 16.6506 63.4417C15.4987 64.0719 13.9279 63.1266 12.8806 64.177C12.6712 64.177 12.357 64.282 12.1476 64.282C11.9381 64.0719 11.624 64.0719 11.5192 64.282C11.2051 64.282 10.8909 64.282 10.6815 64.387C7.85398 62.8115 5.34066 64.7021 2.72262 65.1223C2.09428 65.1223 1.36123 65.3324 1.57068 66.1726C1.57068 66.8029 2.19901 67.223 2.72262 67.223C4.71233 67.328 6.70205 67.328 8.69176 67.328C9.63426 67.328 10.6815 67.4331 11.624 67.4331C12.1476 68.0633 12.8806 68.0633 13.6137 68.0633C17.5931 68.2734 21.5725 68.5885 25.552 68.9036C25.6567 68.7985 25.6567 68.6935 25.7614 68.5885C25.7614 68.5885 25.7614 68.5885 25.7614 68.6935C26.1803 68.7985 26.5992 68.9036 27.0181 68.9036C27.2275 69.1137 27.437 68.9036 27.6464 68.9036C27.6464 69.0086 27.7511 68.9036 27.8559 69.0086C27.5417 69.0086 27.3322 68.9036 27.0181 68.9036C27.0181 69.0086 26.9134 68.9036 26.9134 69.0086C26.5992 68.7985 26.285 68.4834 25.7614 68.6935C25.6567 68.7985 25.6567 68.7985 25.4473 68.9036C24.4 70.164 22.9339 69.4288 21.6773 69.5338C20.0017 69.8489 18.2214 69.0086 16.7553 70.164C16.5459 70.164 16.2317 70.164 15.9176 70.164C15.0798 69.7439 14.1373 69.9539 13.1948 69.9539C11.4145 69.8489 9.52954 69.7439 7.64454 69.6388C7.53982 69.7439 7.33038 69.6388 7.22566 69.5338C6.91149 69.7439 6.70205 70.059 6.38788 70.2691C6.38788 70.2691 6.28316 70.3741 6.28316 70.4791C6.17844 70.6892 6.28316 70.8993 6.4926 71.0043L6.59732 70.8993C6.4926 71.2144 6.4926 71.4244 6.4926 71.7396C6.28316 72.0547 6.17844 72.3698 5.86427 72.4748C6.38788 73.3151 7.22565 73.2101 8.06343 73.2101C8.06343 73.4201 8.06343 73.7352 8.06343 73.9453H7.95871C7.53982 74.4705 7.53982 74.9957 8.16815 75.4158C8.9012 75.5209 9.52953 75.5209 10.2626 75.6259C10.8909 76.6762 11.3098 77.8316 12.2523 78.6719C13.4042 79.5122 13.7184 78.882 13.8231 77.8316H14.242H14.6609C15.394 77.6216 16.0223 77.4115 16.6506 77.2014C17.2789 77.0964 18.1167 77.0964 18.1167 77.8316C18.1167 80.7726 20.2112 80.4575 22.0962 80.7727C23.2481 80.8777 24.6095 80.3525 25.0284 82.0331C24.6095 82.1381 24.0859 82.1381 23.667 82.2432C21.4678 82.2432 19.3734 82.2432 17.1742 82.3482C16.4412 82.4532 15.7081 82.8734 15.8128 83.7137C15.9176 84.4489 16.6506 84.4489 17.1742 84.4489C17.5931 84.4489 17.9073 84.5539 18.3262 84.5539C18.4309 85.2892 18.2214 86.2345 19.1639 86.6547C19.4781 85.9194 19.4781 85.0791 19.0592 84.3439C18.9545 84.2388 18.7451 84.2388 18.6403 84.3439C18.6403 84.2388 18.6403 84.2388 18.7451 84.2388C18.8498 84.2388 18.8498 84.2388 18.8498 84.2388L19.0592 84.3439C19.2687 84.4489 19.4781 84.4489 19.7923 84.4489C19.2687 85.0791 19.0592 85.7093 19.1639 86.5496C19.5828 86.5496 20.1064 86.5496 20.5253 86.5496C22.2009 87.3899 24.1906 86.2345 25.7614 87.2849C26.4945 87.2849 27.2275 87.2849 27.9606 87.2849C29.8456 88.7554 31.94 87.6 33.9297 88.0201C34.5581 88.5453 35.5005 88.8604 36.1289 89.4906C35.9194 90.0158 35.6053 90.3309 35.3958 90.8561C35.1864 90.8561 34.9769 90.9611 34.7675 90.9611C33.1967 90.8561 31.5211 90.646 31.7306 93.0619C31.207 93.0619 30.7881 92.9568 30.2645 92.9568V93.482C30.1597 93.6921 30.3692 93.9021 30.4739 94.1122H30.3692C30.2645 93.9021 30.2645 93.6921 30.2645 93.482C30.2645 93.482 30.2645 93.2719 30.4739 93.2719C29.0078 92.5367 27.2275 91.4863 26.1803 92.0115C23.667 93.0619 21.2584 92.4316 18.8498 92.6417C18.2214 92.6417 17.3837 91.8014 16.5459 92.8518C18.3262 94.6374 20.4206 94.1122 22.4103 94.1122C22.9339 94.1122 23.2481 94.2172 23.7717 94.2172C24.9236 94.9525 26.3897 94.1122 27.6464 94.8475C28.3795 94.9525 29.0078 95.0575 29.7408 95.0575C31.6258 96.2129 33.7203 95.3727 35.6053 95.6878C35.6053 95.5827 35.6053 95.5827 35.6053 95.5827V95.6878C36.7572 96.528 38.0139 97.0532 39.48 97.0532C39.3753 96.8432 39.3753 96.6331 39.3753 96.423H39.48C39.3753 96.6331 39.2705 96.9482 39.48 97.0532C39.8989 97.1583 40.4225 97.2633 40.7366 97.2633C40.7366 97.3683 40.8414 97.4734 40.8414 97.6834C39.3753 97.6834 37.8044 97.6834 36.3383 97.7885C36.1289 97.6834 35.9194 97.3683 35.8147 97.3683C31.7306 97.1583 27.6464 96.9482 23.5623 96.7381C23.5623 96.7381 23.5623 96.9482 23.3528 97.3683C25.7614 97.9985 28.0653 98.7338 30.6833 98.5237C30.8928 98.5237 31.1022 98.5237 31.207 98.6288C33.3014 99.9942 35.6053 99.0489 37.9092 99.364C38.6422 99.469 39.3753 99.4691 40.1083 99.5741C40.213 99.4691 40.213 99.259 40.213 99.1539H40.3178C40.3178 99.364 40.213 99.4691 40.1083 99.5741C39.48 100.099 38.7469 99.9942 38.0139 100.099C36.6525 100.414 36.5478 101.15 37.0714 102.305C37.4903 102.305 37.8044 102.2 38.1186 102.2H38.4328L38.6422 102.305C41.7839 103.881 41.7839 103.881 41.5744 107.452C38.1186 105.981 34.5581 106.296 31.1022 105.351C30.5786 105.351 30.1597 105.351 29.6361 105.351C29.9503 105.876 30.1597 106.296 30.3692 106.822H30.6833H30.8928C31.4164 106.927 31.94 106.927 32.3589 107.137C33.1967 107.662 34.7675 107.452 34.6628 109.027C34.5581 110.603 33.3014 110.918 32.0447 111.233C30.5786 111.548 29.2172 111.863 27.9606 112.704C25.2378 112.809 22.515 113.229 19.1639 115.014C21.782 115.014 23.4575 115.014 25.1331 115.014C25.3425 115.224 25.6567 115.54 25.8661 115.75C25.8661 115.54 25.8661 115.224 25.8661 115.014C25.9709 115.014 25.9709 115.014 26.0756 115.014C25.9709 115.224 25.6567 115.435 25.8661 115.75C26.0756 115.75 26.3897 115.75 26.5992 115.855C27.7511 116.59 28.17 118.165 30.1597 117.64C31.207 117.325 30.9975 118.796 31.1022 119.531C30.5786 120.056 30.4739 120.896 31.3117 120.896C34.5581 120.896 37.6997 121.212 40.8414 120.581C41.2603 120.686 41.6791 120.581 42.098 120.476C42.098 120.476 42.2027 120.476 42.3075 120.476C42.5169 120.371 42.8311 120.371 43.1452 120.371C43.4594 121.001 43.8783 121.737 43.8783 122.472C43.3547 122.472 42.9358 122.472 42.4122 122.472C42.2027 122.787 41.8886 122.997 41.6791 123.207C36.8619 122.892 32.1495 124.363 27.3322 124.047C26.7039 123.942 26.3898 124.363 26.1803 124.783C24.6095 124.783 23.0387 124.783 21.4678 124.783C21.0489 124.783 20.5253 124.993 20.5253 125.518C20.4206 126.043 20.7348 126.463 21.2584 126.568C21.6773 126.778 22.0962 126.778 22.515 126.778C23.4575 126.883 24.4 126.988 25.3425 126.988C25.6567 127.199 25.9709 127.304 26.1803 127.514C26.3898 127.409 26.7039 127.199 26.8086 127.094C26.5992 126.883 26.3898 126.778 26.1803 126.568C26.285 126.568 26.285 126.568 26.3898 126.568C26.3898 126.778 26.3898 127.199 26.9134 127.094C27.1228 127.199 27.3322 127.304 27.437 127.409C29.0078 129.299 30.055 127.724 31.3117 126.883C31.5211 126.883 31.8353 126.883 32.0447 126.883C33.6156 128.249 35.3958 127.199 37.1761 127.724C38.0139 128.669 39.2705 128.144 40.3178 128.564C41.0508 128.774 41.5744 129.299 41.4697 130.14C41.4697 131.085 40.7366 131.295 40.0036 131.295C37.595 131.295 35.0817 131.4 32.6731 131.4C31.4164 131.4 30.3692 131.4 29.2172 131.4C29.0078 131.505 28.5889 131.505 28.3795 131.4C26.1803 129.929 23.7717 130.875 21.5725 130.56C21.4678 130.665 21.2584 130.665 21.1537 130.56C20.3159 130.77 19.3734 129.509 18.4309 130.98C19.4781 131.295 20.3159 131.715 21.2584 132.03C21.4678 132.03 21.6773 132.135 21.782 132.135C21.782 132.87 21.4678 133.081 20.6301 132.976C18.8498 132.87 18.8498 132.976 17.3837 134.341C19.7923 134.131 22.2009 134.971 24.0859 133.081C24.5048 132.66 25.4473 132.87 26.1803 132.87C26.5992 132.765 27.1228 132.765 27.5417 132.66C28.5889 132.765 29.5314 132.87 30.6833 132.976C31.3117 133.816 32.2542 133.606 33.0919 133.501L33.3014 133.396L33.5108 133.501C35.2911 133.711 37.0714 134.236 38.7469 133.501C40.0036 135.076 41.8886 134.131 43.3547 134.236H43.5641C47.3341 134.656 50.9994 134.026 54.7694 134.656C53.6174 136.652 53.0938 136.967 52.0466 137.072C51.2088 137.177 50.2663 137.597 49.3238 137.282V137.387C43.983 137.282 38.5375 137.282 33.1967 137.282C32.4636 137.282 31.8353 137.282 31.207 137.177C31.207 136.967 31.207 136.757 31.207 136.547C30.9975 136.757 30.6833 136.967 30.4739 137.177C30.2645 137.282 29.9503 137.282 29.7408 137.282C29.322 137.702 29.1125 137.492 28.7984 137.282C28.2747 137.282 27.8559 137.282 27.437 137.282C26.4945 136.547 25.3425 137.282 24.4 136.547C24.1906 136.652 23.8764 136.547 23.7717 136.442C22.7245 135.601 21.4678 135.181 21.0489 136.862C20.6301 138.227 22.2009 137.912 23.0387 138.017H22.9339C23.8764 138.858 25.1331 138.017 25.9709 138.753H26.285L26.5992 138.858C27.5417 139.593 28.7984 138.858 29.7408 139.593H30.055H30.3692C30.8928 140.013 31.4164 140.433 32.1495 140.958C31.207 141.063 30.5786 141.063 29.8456 140.853C29.322 140.643 28.9031 140.748 28.6936 141.378C28.4842 141.904 28.9031 142.219 29.4267 142.429C29.7409 142.639 30.1597 142.639 30.4739 142.639H30.3692C30.8928 143.059 31.5211 142.954 32.0447 143.269C32.4636 143.374 32.8825 143.374 33.3014 143.479C34.1392 144.529 35.2911 144.004 36.3383 144.109C37.0714 144.214 37.8044 144.214 38.5375 144.214C40.213 144.74 41.8886 144.635 43.6689 144.214C44.1925 144.214 44.7161 144.214 45.2397 144.214C45.6586 144.635 46.2869 144.529 46.7058 144.95C46.9152 144.95 47.2294 145.055 47.5436 145.055C47.9624 145.265 48.1719 144.95 48.5908 145.055C48.6955 145.16 48.3813 145.16 48.4861 145.265C49.8474 145.16 51.3135 145.685 52.5702 144.95L52.8844 144.845H53.0938C53.5127 144.635 53.7221 144.635 54.0363 144.845C54.2458 145.475 54.8741 145.58 55.5024 145.685C56.026 146.42 56.5496 146.42 57.0732 145.685C57.2827 145.475 57.5969 145.16 57.8063 145.055C57.911 144.845 58.2252 144.845 58.4346 144.845C58.8535 144.95 59.4818 144.95 60.0055 145.055L60.1102 144.95C60.0055 144.95 60.0055 144.95 60.0055 145.055C61.2621 146.105 62.6235 145.58 64.0896 145.58C63.4613 145.37 62.8329 145.16 62.3093 144.95C62.3093 144.845 62.3093 144.74 62.3093 144.635C62.7282 145.265 63.4613 145.16 64.0896 145.58H64.1943C65.2416 145.79 66.2888 145.895 67.336 146C69.1163 146 71.106 146.21 72.5721 144.845C78.0176 144.74 83.4632 145.58 88.9087 143.689C91.2126 142.954 94.0401 142.324 96.7628 143.269C98.4384 143.794 100.847 144.214 101.475 141.273C101.475 141.168 101.371 141.168 101.266 141.063L101.475 141.273C102.941 140.958 104.617 141.694 105.978 140.538C106.921 140.328 108.073 140.853 108.806 139.698C109.434 139.383 110.062 139.278 110.691 139.593C111.11 139.593 111.214 139.383 111.005 138.963C110.9 139.173 110.796 139.383 110.691 139.593C111.843 139.593 113.099 140.118 113.937 138.963C113.414 138.963 112.995 138.858 112.471 138.858C112.576 138.753 112.785 138.858 112.995 138.753C113.309 138.963 113.623 139.173 113.937 138.963C114.356 138.753 114.775 138.647 115.299 138.858C116.765 139.593 118.126 140.328 119.278 138.227L119.173 138.122C119.173 138.122 119.173 138.122 119.278 138.122V138.227C123.048 138.647 125.98 135.601 129.75 135.286C131.216 134.971 132.892 135.812 134.253 134.551C134.253 134.446 134.044 134.341 134.044 134.341L134.253 134.551C134.777 134.446 135.405 134.341 135.615 133.816L135.51 133.606C135.51 133.606 135.51 133.606 135.615 133.606C135.615 133.711 135.615 133.816 135.615 133.921C138.337 133.921 140.955 133.396 143.155 131.715C143.05 131.61 142.945 131.505 142.945 131.505L143.155 131.715C143.678 131.61 144.202 131.505 144.621 130.875L144.411 130.77C144.411 130.77 144.516 130.875 144.621 130.875C145.354 130.875 146.296 130.98 146.715 130.14L146.925 129.929L147.134 130.035C147.867 129.509 149.019 130.035 149.647 129.194V129.299C150.38 128.774 151.323 129.404 151.847 128.564V128.669C156.35 129.194 159.805 126.778 163.156 124.468C163.89 124.258 164.832 124.468 165.251 123.627L165.146 123.522C165.251 123.522 165.251 123.522 165.251 123.522C165.251 123.522 165.251 123.522 165.251 123.627C170.278 122.997 174.466 120.161 178.655 117.745C178.655 117.64 178.551 117.535 178.446 117.43L178.655 117.745C179.179 117.64 179.807 117.535 180.121 117.01L179.912 116.8C179.912 116.8 180.017 116.8 180.121 116.8C180.121 116.905 180.121 117.01 180.121 117.115C181.378 116.695 182.844 116.485 183.787 115.645L183.682 115.435C183.682 115.54 183.682 115.54 183.682 115.645C186.091 115.435 188.08 114.594 189.651 112.599L189.546 112.388L189.651 112.599C191.641 111.548 193.84 111.128 195.62 109.658C195.516 109.553 195.516 109.447 195.411 109.447L195.62 109.658C196.144 109.553 196.772 109.447 196.982 108.817L196.877 108.607V108.502C196.877 108.607 196.877 108.712 196.877 108.712C198.762 108.817 199.809 107.977 200.647 106.506L200.542 106.401C200.542 106.401 200.542 106.296 200.647 106.296C200.647 106.401 200.647 106.401 200.647 106.506C203.265 106.611 204.417 104.511 205.883 102.83L205.674 102.62C205.778 102.725 205.778 102.83 205.883 102.935C208.082 101.78 210.281 100.519 212.795 99.8892C215.203 99.364 217.507 98.5237 219.916 98.3137C222.848 97.9985 223.895 96.423 223.79 93.9021C223.895 92.7467 223.686 92.2216 223.057 91.8014ZM9.63426 66.0676C9.8437 65.9626 10.0531 65.9626 10.1579 65.7525C10.2626 65.8575 10.2626 65.9626 10.3673 65.9626C10.1579 66.2777 9.94842 66.0676 9.63426 66.0676ZM221.591 93.377C221.277 94.1122 221.277 95.0575 220.335 95.3727C219.916 95.5827 219.602 95.1626 219.183 95.1626C220.23 94.9525 220.963 94.3223 221.591 93.377ZM156.559 124.573C156.559 124.573 156.559 124.573 156.664 124.468C157.083 124.888 157.606 125.203 157.92 125.518C157.816 124.678 157.187 124.678 156.559 124.573ZM104.931 138.542C105.036 138.542 105.036 138.332 105.141 138.227C105.141 138.332 105.036 138.437 105.141 138.647C105.036 138.647 104.931 138.542 104.931 138.542ZM34.9769 20.2719C34.9769 20.377 34.9769 20.377 34.9769 20.377C34.8722 20.377 34.7675 20.377 34.6628 20.377C34.7675 20.2719 34.8722 20.377 34.9769 20.2719ZM89.6417 141.063C89.537 141.063 89.537 141.168 89.4323 141.168C89.537 141.063 89.537 140.958 89.537 140.958L89.6417 141.063ZM44.2972 97.7885H44.1925H44.2972ZM28.9031 65.2273C28.9031 65.2273 28.9031 65.2273 28.9031 65.1223C28.7984 65.1223 28.7984 65.1223 28.7984 65.1223C28.9031 65.1223 28.9031 65.1223 28.9031 65.1223C28.7984 65.1223 28.9031 65.1223 28.9031 65.2273C29.0078 65.3324 29.0078 65.4374 29.1125 65.4374C29.0078 65.4374 29.0078 65.5424 29.0078 65.5424C29.0078 65.3324 28.9031 65.3324 28.9031 65.2273ZM17.0695 57.7698C17.0695 57.7698 16.9648 57.7698 17.0695 57.7698C17.0695 57.7698 17.0695 57.6647 17.0695 57.5597C17.3837 57.6647 17.6978 57.7698 18.012 57.7698C17.5931 57.8748 17.2789 57.4547 17.0695 57.7698ZM54.0363 131.925C54.0363 131.925 54.0363 131.925 53.9316 131.925C54.0363 131.925 54.0363 131.925 54.0363 131.925ZM46.8105 127.409C46.7058 127.304 46.6011 127.304 46.6011 127.304L46.8105 127.409C46.8105 127.514 46.8105 127.514 46.8105 127.514C46.8105 127.514 46.8105 127.514 46.8105 127.409ZM30.9975 72.4748C30.9975 72.6849 30.9975 72.895 30.9975 73.105C31.1022 72.895 30.8928 72.6849 30.7881 72.4748C30.9975 72.4748 30.9975 72.4748 30.9975 72.4748ZM54.0363 19.7467C54.0363 19.7467 54.0363 19.6417 54.0363 19.7467C53.9316 19.8518 54.0363 19.8518 53.9316 19.9568C53.9316 19.8518 54.0363 19.7467 53.9316 19.6417C53.9316 19.4316 54.0363 19.5367 54.0363 19.7467ZM66.0793 23.1079C65.3463 23.318 64.5085 23.423 64.1943 22.8978C63.8802 22.5827 64.4038 22.4777 64.6132 22.2676C65.0321 22.7928 65.5557 23.1079 66.0793 23.1079ZM106.502 9.55826C106.607 9.45322 106.711 9.45322 106.607 9.34819C106.397 8.92804 106.816 9.45322 106.711 9.55826C106.607 9.55826 106.607 9.55826 106.502 9.55826ZM65.8699 105.246C65.8699 105.246 66.0793 105.246 66.0793 105.351C65.9746 105.351 66.184 105.456 66.0793 105.456C65.9746 105.351 65.9746 105.246 65.8699 105.246ZM48.3813 58.4C48.3813 58.505 48.3813 58.6101 48.2766 58.7151C48.3813 58.6101 48.3813 58.505 48.3813 58.4ZM50.7899 54.6187C50.7899 54.5137 50.7899 54.5137 50.8947 54.5137C50.8947 54.5137 50.7899 54.5137 50.7899 54.6187ZM48.0672 57.2446C48.0672 57.1396 48.0672 57.1396 48.0672 57.2446C48.1719 57.1396 47.9624 57.0345 48.0672 56.9295C48.0672 56.9295 48.0672 57.1396 48.0672 57.2446ZM47.8577 67.5381C47.753 67.6432 47.753 67.6432 47.753 67.7482C47.753 67.6432 47.753 67.6432 47.753 67.6432C47.8577 67.6432 47.753 67.5381 47.8577 67.5381ZM50.371 67.5381C50.4758 67.5381 50.5805 67.5381 50.6852 67.5381C50.5805 67.5381 50.4758 67.6432 50.2663 67.6432C50.3711 67.6432 50.4758 67.6432 50.371 67.5381ZM51.8372 67.328C51.9419 67.4331 51.9419 67.4331 51.9419 67.4331C51.8372 67.328 51.8372 67.328 51.8372 67.328ZM37.4903 75.4158C37.3855 75.4158 37.4903 75.5209 37.4903 75.4158C37.2808 75.5209 37.2808 75.3108 37.0714 75.3108C37.1761 75.4158 37.3855 75.4158 37.4903 75.4158ZM134.777 16.8057C134.777 16.8057 134.882 16.8057 134.777 16.8057C134.882 16.8057 134.882 16.8057 134.986 16.8057C134.882 16.8057 134.882 16.8057 134.777 16.8057ZM159.596 15.1252C159.596 15.1252 159.701 15.0201 159.596 15.1252C159.701 15.1252 159.596 15.1252 159.596 15.1252ZM145.668 8.29783C145.982 8.92804 146.506 9.45322 146.715 10.1885H146.61C146.715 9.45322 146.401 8.71797 145.668 8.29783ZM122.001 28.6748C122.001 29.305 121.687 29.8302 122.001 30.6705C121.163 30.3554 120.744 30.2503 120.116 29.9352C121.163 30.0403 121.896 29.7252 122.001 28.6748ZM65.9746 108.502C65.8699 108.397 65.8699 108.502 65.8699 108.607C65.8699 108.502 65.8699 108.502 65.8699 108.502C65.8699 108.502 65.9746 108.397 65.9746 108.502ZM62.2046 126.883C62.3093 126.883 62.3093 126.883 62.2046 126.883C62.3093 126.883 62.2046 126.883 62.2046 126.883ZM68.1738 125.413C68.3832 124.993 68.2785 124.573 68.3832 124.258C68.4879 124.573 68.2785 124.993 68.3832 125.413H68.1738ZM67.336 129.089C66.7077 129.089 66.0793 129.614 65.451 129.824C66.184 129.719 66.8124 129.509 67.2313 128.879C67.2313 128.984 67.336 129.089 67.336 129.089ZM102.837 130.56C102.418 130.35 101.999 130.665 101.58 130.56C101.999 130.56 102.418 130.56 102.837 130.56ZM83.6726 134.971C83.5679 134.971 83.5679 135.076 83.4631 135.076C83.5679 134.971 83.6726 134.866 83.6726 134.761C83.6726 134.761 83.6726 134.866 83.6726 134.971ZM81.4734 129.089C81.4734 128.984 81.4734 128.984 81.4734 129.089V129.089ZM78.3318 130.665C78.4365 130.665 78.5412 130.665 78.5412 130.665V130.56C78.5412 130.56 78.5412 130.56 78.6459 130.56C78.5412 130.56 78.5412 130.665 78.5412 130.665H78.3318ZM117.393 30.4604C117.393 30.5655 117.602 30.7755 117.498 30.8806C117.079 30.8806 117.079 30.7755 116.765 30.6705C116.974 30.6705 117.184 30.5655 117.393 30.4604ZM87.652 127.829C87.652 127.724 87.5473 127.829 87.4426 127.724C87.4426 127.724 87.652 127.619 87.7567 127.619C87.7567 127.724 87.652 127.724 87.652 127.829ZM46.4963 115.224C46.4963 115.329 46.1822 115.435 45.9727 115.645C46.1822 115.435 46.4963 115.329 46.4963 115.224ZM58.1205 128.459C61.0527 128.564 63.9849 129.089 66.8124 128.669C66.9171 128.669 66.9171 128.774 66.9171 128.774C64.0896 128.144 61.0527 128.144 58.1205 128.459ZM74.1429 135.601C74.0382 135.601 73.9335 135.601 73.724 135.601C73.8287 135.601 73.8287 135.601 73.8287 135.601C73.9335 135.601 74.0382 135.601 74.1429 135.601ZM124.2 39.7036C124.2 40.0187 124.305 40.3338 124.305 40.5439C124.305 40.2288 124.095 39.9137 124.2 39.7036ZM150.695 6.61725C150.799 6.72229 151.009 6.72229 151.218 6.82732H151.009C150.904 6.72229 150.799 6.82732 150.695 6.61725ZM96.8675 29.2C96.6581 28.9899 96.2392 29.4101 96.0298 29.0949C96.2392 28.8849 96.3439 28.7798 96.5534 28.6748C96.5534 28.6748 96.6581 28.5698 96.7628 28.4647C96.7628 28.8849 96.7628 28.9899 96.8675 29.2ZM34.6628 50.9424C34.7675 50.9424 34.7675 50.9424 34.6628 50.9424C34.7675 50.9424 34.6628 50.9424 34.6628 50.9424ZM34.7675 50.9424C34.6628 50.9424 34.6628 50.9424 34.7675 50.9424C34.6628 50.9424 34.5581 50.9424 34.5581 50.8374C34.5581 50.9424 34.6628 50.9424 34.7675 50.9424ZM29.4267 78.5669C29.4267 78.5669 29.4267 78.5669 29.5314 78.5669C29.4267 78.5669 29.4267 78.5669 29.4267 78.5669ZM38.328 79.4072C38.2233 79.4072 38.328 79.4072 38.328 79.4072V79.4072ZM45.135 114.909C45.135 115.014 45.135 115.014 45.135 115.119C45.0302 114.909 44.8208 115.014 44.7161 114.909C44.8208 114.909 44.9255 114.909 45.135 114.909ZM45.135 115.54C45.135 115.645 45.135 115.645 45.135 115.75C45.135 115.75 45.135 115.75 45.0302 115.75C45.0302 115.645 45.0302 115.54 45.135 115.54ZM61.4716 131.295C61.681 131.715 61.7857 132.03 61.9952 132.345V132.45C62.0999 131.82 61.7857 131.505 61.3668 131.295H61.4716ZM96.9723 137.387C96.9723 137.387 96.9723 137.492 96.9723 137.597C96.9723 137.492 96.9723 137.492 96.9723 137.387ZM153.522 19.6417C153.627 19.4316 153.627 19.3266 153.522 19.1165C153.732 19.0115 153.941 19.1165 154.046 19.0115C153.941 19.2216 153.732 19.3266 153.522 19.6417ZM56.026 26.7842C55.8166 26.5741 56.026 26.364 56.026 26.0489C56.2355 26.1539 56.4449 26.259 56.6544 26.1539C56.4449 26.364 56.3402 26.6791 56.026 26.7842ZM19.897 58.4C20.0017 58.6101 20.2112 58.9252 20.3159 59.1352C20.3159 59.2403 20.2112 59.2403 20.2112 59.3453C20.2112 59.4503 20.3159 59.4503 20.3159 59.4503C20.3159 59.8705 20.1064 59.9755 20.1064 59.6604C20.1064 59.5554 20.2112 59.4503 20.3159 59.2403C20.4206 58.8201 20.1064 58.6101 19.897 58.2949C19.6876 58.4 19.7923 58.4 19.897 58.4ZM22.2009 62.1813C22.4103 62.0762 22.6198 61.9712 22.7245 61.8662C22.6198 61.9712 22.515 62.0762 22.3056 62.1813H22.2009ZM44.7161 89.2806C44.8208 89.4906 45.0302 89.3856 45.135 89.5957C45.0302 89.5957 45.0302 89.5957 44.8208 89.5957C44.8208 89.3856 44.7161 89.3856 44.7161 89.2806ZM48.1719 97.0532C48.0672 97.0532 47.9624 97.0532 47.8577 97.0532C47.753 96.423 47.3341 96.423 46.8105 96.423C47.3341 96.6331 47.8577 96.528 48.1719 97.0532ZM52.4655 120.056C52.4655 120.056 52.3608 120.161 52.256 120.161C52.3608 120.056 52.3608 120.056 52.4655 120.056ZM53.1985 123.102C53.1985 123.102 53.0938 123.102 53.0938 123.207C53.0938 122.997 52.8844 122.997 52.8844 122.892C52.9891 122.892 53.0938 122.892 53.1985 123.102ZM46.6011 124.153V124.047C46.6011 124.047 46.6011 124.047 46.6011 124.153ZM174.99 22.6878C174.885 22.6878 174.99 22.6878 174.99 22.6878C174.885 22.6878 174.571 23.0029 174.466 23.1079C174.466 23.1079 174.466 23.2129 174.257 23.2129C174.571 23.318 174.781 22.8978 174.99 22.6878ZM179.284 28.3597C179.493 28.1496 179.807 28.3597 180.017 28.3597C179.807 28.4647 179.598 28.6748 179.493 28.9899C179.388 28.6748 179.074 28.5698 179.284 28.3597ZM199.704 96.1079C199.704 96.1079 199.6 96.1079 199.6 96.2129C199.495 96.2129 199.39 96.2129 199.39 96.2129C199.495 96.2129 199.6 96.2129 199.704 96.1079ZM199.39 92.6417C199.39 92.6417 199.39 92.6417 199.39 92.5367C199.39 92.6417 199.6 92.5367 199.6 92.6417C199.6 92.5367 199.495 92.5367 199.39 92.6417ZM189.861 104.511C189.861 104.616 189.861 104.616 189.861 104.616C189.861 104.616 189.861 104.616 189.861 104.511ZM203.265 78.4619C203.37 78.3568 203.37 78.1468 203.474 78.0417C203.474 78.1468 203.474 78.3568 203.265 78.4619ZM173 115.119C173.105 115.014 173.105 114.909 173.105 114.909C173.105 115.014 173.105 115.014 173.105 115.014C173.105 115.119 173.105 115.119 173 115.119ZM206.302 77.2014C205.674 77.0964 204.94 77.3065 204.312 76.7813C204.312 76.6762 204.312 76.7813 204.207 76.7813C204.207 76.6762 204.207 76.7813 204.207 76.7813C204.207 76.6762 204.207 76.6762 204.207 76.6762C204.836 77.2014 205.569 77.3065 206.302 77.2014ZM187.557 49.4719V49.2619C187.557 49.1568 187.557 49.1568 187.661 49.0518C187.557 49.1568 187.557 49.2619 187.557 49.4719ZM111.005 6.51222C110.9 6.40718 110.796 6.40718 110.796 6.30214C111.005 6.30214 111.214 6.40718 111.424 6.51222C111.214 6.51222 111.11 6.40718 111.005 6.51222ZM83.2537 25.2086C83.2537 24.7885 83.3584 24.5784 83.6726 24.4734C83.6726 24.5784 83.882 24.6834 83.9868 24.7885C83.5679 24.6834 83.5679 25.1036 83.2537 25.2086ZM48.0672 15.2302C47.9624 15.2302 47.9624 15.4403 47.8577 15.4403C47.753 15.4403 47.753 15.4403 47.753 15.3352C47.8577 15.3352 48.0672 15.6503 48.0672 15.2302ZM42.4122 17.8561C42.9358 18.1712 43.3547 17.8561 43.8783 17.541C43.983 17.541 43.983 17.646 44.0877 17.541C43.983 17.646 43.8783 17.7511 43.7736 17.9611C43.25 17.9611 42.8311 17.9611 42.4122 17.8561C42.3075 17.8561 42.2027 17.9611 42.2027 17.9611C41.9933 17.8561 42.098 17.7511 42.098 17.541C42.098 17.541 42.098 17.541 42.2027 17.541C42.2027 17.646 42.2027 17.7511 42.4122 17.8561ZM33.3014 29.8302C32.8825 29.305 31.5211 29.0949 30.4739 28.7798C30.5786 28.7798 30.5786 28.7798 30.6833 28.7798C31.7306 28.5698 32.6731 28.8849 33.4061 29.6201C33.5108 29.7252 33.3014 29.7252 33.3014 29.8302ZM49.2191 23.9482C49.2191 24.0532 49.2191 24.0532 49.2191 24.1583C49.2191 24.2633 49.3238 24.2633 49.3238 24.3683C49.2191 24.8935 48.8002 24.9985 48.2766 24.9985C48.8002 24.6834 49.1144 24.5784 49.2191 23.9482ZM25.8661 63.5467C25.8661 63.4417 25.9709 63.4417 25.9709 63.3367C26.0756 63.4417 25.8661 63.4417 25.8661 63.5467ZM29.9503 71.5295C30.055 71.6345 30.2645 71.6345 30.3692 71.7396C30.2645 71.7396 30.1597 71.7396 29.9503 71.7396C29.9503 71.6345 29.9503 71.6345 29.9503 71.5295ZM17.6978 72.0547C17.8026 72.0547 17.9073 72.0547 17.9073 71.8446C18.012 71.8446 18.1167 71.8446 18.2214 71.8446C18.2214 72.0547 17.9073 72.0547 17.6978 72.0547ZM28.17 79.1971C28.17 79.1971 28.0653 79.1971 28.17 79.1971V79.1971ZM36.2336 86.3396C36.2336 86.4446 36.2336 86.4446 36.3383 86.4446C36.3383 86.4446 36.2336 86.4446 36.2336 86.3396ZM41.0508 90.3309C41.1555 90.541 41.2603 90.8561 41.4697 91.0662C41.365 91.0662 41.2603 91.0662 41.0508 91.0662C41.2603 90.8561 41.1555 90.541 41.0508 90.3309ZM45.7633 96.528C45.868 96.318 45.9727 96.2129 45.9727 96.1079C45.9727 96.318 45.868 96.318 45.7633 96.528C45.868 96.7381 45.868 96.8432 45.868 97.0532C45.7633 97.0532 45.7633 97.0532 45.6586 97.0532C45.7633 96.8432 45.7633 96.7381 45.7633 96.528ZM73.2004 143.269C73.3051 143.269 73.3051 143.269 73.2004 143.269V143.374V143.479C73.3051 143.479 73.3051 143.374 73.2004 143.269ZM189.023 110.498C189.127 110.498 189.232 110.498 189.337 110.498C189.546 110.603 189.756 110.498 189.965 110.498V110.603C189.651 110.603 189.337 110.603 189.023 110.498C189.023 110.603 189.023 110.603 189.023 110.498C189.023 110.603 189.023 110.498 189.023 110.498ZM200.228 101.675C200.333 101.675 200.333 101.675 200.228 101.675C200.437 101.57 200.333 101.675 200.437 101.675H200.542C200.542 101.675 200.647 101.57 200.437 101.885C200.333 101.78 200.228 101.78 200.228 101.675ZM195.201 50.1021C195.201 50.1021 195.306 50.2072 195.201 50.3122C195.201 50.2072 194.992 50.1021 194.992 49.9971C195.097 49.9971 195.201 49.9971 195.201 50.1021ZM167.555 7.0374C167.136 6.30214 166.193 6.82732 165.565 6.51222C166.193 6.72229 166.822 6.72229 167.345 6.51222C167.345 6.82732 167.555 6.82732 167.555 7.0374ZM121.896 4.62157C121.687 4.62157 121.477 4.93668 121.372 5.04171C121.163 4.93668 120.849 5.14675 120.744 4.83164C121.163 4.7266 121.477 4.62157 121.896 4.62157ZM65.7652 7.0374C65.5557 7.14243 65.6604 7.3525 65.5557 7.56258C65.5557 7.24747 65.2416 7.45754 65.2416 7.0374C65.451 7.0374 65.5557 7.0374 65.7652 7.0374ZM49.9522 11.4489C49.8474 11.5539 49.7427 11.659 49.638 11.764C49.8474 11.659 49.8474 11.5539 49.9522 11.4489ZM17.8026 21.0072C17.8026 21.1122 17.8026 21.1122 17.6978 21.1122V21.0072C17.8026 21.0072 17.8026 21.0072 17.8026 21.0072ZM14.9751 56.7194C14.7656 56.1942 15.0798 55.7741 15.0798 55.3539C15.2892 56.1942 15.2892 57.2446 16.4412 57.4547C15.9176 57.4547 15.2892 57.6647 14.9751 56.7194ZM17.6978 61.9712C17.6978 62.0762 17.6978 62.0762 17.6978 61.9712C17.6978 62.0762 17.6978 62.0762 17.6978 61.9712ZM19.1639 63.5467C19.3734 63.6518 19.1639 63.8619 19.2687 63.9669C19.1639 63.8619 19.1639 63.7568 19.0592 63.5467C19.0592 63.5467 19.1639 63.6518 19.1639 63.5467ZM18.6403 67.223C18.7451 67.118 18.7451 67.0129 18.7451 66.9079C18.9545 67.0129 19.2687 66.9079 19.2687 67.223C19.0592 67.328 18.8498 67.223 18.6403 67.223ZM25.9709 68.2734C25.8661 68.1683 25.8661 68.0633 25.7614 67.9583C25.8661 67.9583 25.8661 67.9583 25.8661 67.9583L25.9709 67.8532C25.9709 67.9583 25.8661 67.9583 25.8661 67.9583C25.8661 68.1683 25.8661 68.2734 25.9709 68.2734ZM26.1803 70.2691C26.3898 70.164 26.7039 69.9539 26.8086 69.7439C26.5992 69.9539 26.4945 70.2691 26.1803 70.2691ZM50.371 100.204C50.1616 100.204 49.9522 100.309 49.7427 100.414C49.7427 100.309 49.7427 100.309 49.7427 100.204C49.9522 100.204 50.1616 100.204 50.371 100.204ZM45.868 123.102C45.7633 123.102 45.7633 123.102 45.7633 123.102C45.868 123.102 45.868 123.102 45.868 123.102ZM29.322 125.413C29.5314 125.413 29.7409 125.518 29.9503 125.518C29.2172 125.518 28.5889 125.623 28.0653 125.833C28.4842 125.728 28.7984 125.413 29.322 125.413ZM34.4533 126.673C34.4533 126.568 34.4533 126.568 34.4533 126.463C34.5581 126.568 34.6628 126.568 34.7675 126.673C34.6628 126.673 34.5581 126.673 34.4533 126.673ZM48.1719 144.635C48.2766 144.424 48.2766 144.319 48.3813 144.214C48.4861 144.214 48.4861 144.214 48.5908 144.214C48.4861 144.319 48.3813 144.529 48.4861 144.635C48.3813 144.635 48.2766 144.635 48.1719 144.635ZM59.9007 144.109C59.796 144.109 59.6913 144.109 59.4818 144.109C59.6913 144.004 59.9007 143.899 60.0055 143.584C59.9007 143.689 59.9007 143.899 59.9007 144.109ZM129.645 134.866C129.645 134.656 129.75 134.446 129.75 134.236C129.645 134.446 129.541 134.656 129.645 134.866ZM144.621 129.929C144.621 129.824 144.621 129.824 144.621 129.719C144.621 129.824 144.621 129.929 144.621 129.929ZM219.706 96.1079C220.439 96.0029 220.858 95.4777 221.382 95.0575C220.963 95.4777 220.753 96.1079 220.125 96.1079C220.02 96.0029 219.916 96.1079 219.706 96.1079Z" fill="#D4CDF6"/>
<path d="M94.9043 133.131H132.645" stroke="#151F41" stroke-width="1.5" stroke-miterlimit="10" stroke-linecap="round" stroke-linejoin="round"/>
<path d="M107.225 121.137V132.819" stroke="#151F41" stroke-width="1.5" stroke-miterlimit="10" stroke-linecap="round" stroke-linejoin="round"/>
<path d="M120.324 121.137V132.819" stroke="#151F41" stroke-width="1.5" stroke-miterlimit="10" stroke-linecap="round" stroke-linejoin="round"/>
<path d="M166.642 100.914V113.07C166.642 117.491 162.894 120.964 158.124 120.964H73.7918C69.0215 120.964 65.2734 117.491 65.2734 113.07V64.9177C65.2734 60.4971 69.0215 57.0238 73.7918 57.0238H141.598" fill="white"/>
<path d="M166.642 100.914V113.07C166.642 117.491 162.894 120.964 158.124 120.964H73.7918C69.0215 120.964 65.2734 117.491 65.2734 113.07V64.9177C65.2734 60.4971 69.0215 57.0238 73.7918 57.0238H141.598" stroke="#151F41" stroke-width="1.5" stroke-miterlimit="10" stroke-linejoin="round"/>
<rect x="63.5723" y="12.4352" width="99.8095" height="31.1905" rx="9.35714" fill="white" stroke="#151F41" stroke-width="1.5" stroke-miterlimit="10" stroke-linecap="round" stroke-linejoin="round"/>
<path d="M150.609 106.31C165.627 106.31 177.998 94.1774 177.998 78.9526C177.998 63.7279 165.627 51.5952 150.609 51.5952C135.591 51.5952 123.22 63.7279 123.22 78.9526C123.22 93.9549 135.368 106.31 150.609 106.31Z" fill="#D9D2F6" stroke="#D8D1EF" stroke-width="1.5" stroke-miterlimit="10"/>
<rect x="91.6436" y="59.2209" width="73.2976" height="56.1429" fill="white"/>
<path d="M150.609 106.56C165.763 106.56 178.248 94.317 178.248 78.9526C178.248 63.5882 165.763 51.3452 150.609 51.3452C135.454 51.3452 122.97 63.5882 122.97 78.9526C122.97 94.092 135.229 106.56 150.609 106.56Z" fill="white" stroke="#6D57C6" stroke-width="2" stroke-miterlimit="10"/>
<path d="M150.608 52.9897V59.6416" stroke="#6D57C6" stroke-width="1.5" stroke-miterlimit="10" stroke-linecap="round" stroke-linejoin="round"/>
<path d="M150.608 98.2645V104.702" stroke="#6D57C6" stroke-width="1.5" stroke-miterlimit="10" stroke-linecap="round" stroke-linejoin="round"/>
<path d="M176.388 78.9527H169.729" stroke="#6D57C6" stroke-width="1.5" stroke-miterlimit="10" stroke-linecap="round" stroke-linejoin="round"/>
<path d="M131.058 78.9527H124.613" stroke="#6D57C6" stroke-width="1.5" stroke-miterlimit="10" stroke-linecap="round" stroke-linejoin="round"/>
<path d="M164.358 67.7947L150.609 81.5276L141.586 72.9445" stroke="#6D57C6" stroke-width="1.5" stroke-miterlimit="10"/>
<path d="M120.027 20.242L133.444 28.0739L120.027 35.8187V20.242Z" fill="#6D57C6" stroke="#6D57C6" stroke-width="1.5" stroke-linecap="round" stroke-linejoin="round"/>
<path d="M86.8557 35.828L79.3125 28.0831L86.8557 20.2513" stroke="#CEC2FF" stroke-width="1.5" stroke-linecap="round" stroke-linejoin="round"/>
<path d="M80.4729 35.828L72.9297 28.0831L80.4729 20.2513" stroke="#CEC2FF" stroke-width="1.5" stroke-linecap="round" stroke-linejoin="round"/>
<path d="M143.108 35.8095L150.651 28.0646L143.108 20.2328" stroke="#CEC2FF" stroke-width="1.5" stroke-linecap="round" stroke-linejoin="round"/>
<path d="M149.491 35.8095L157.034 28.0646L149.491 20.2328" stroke="#CEC2FF" stroke-width="1.5" stroke-linecap="round" stroke-linejoin="round"/>
<path d="M98.3496 20.242V35.8187" stroke="#CEC2FF" stroke-width="1.5" stroke-linecap="round" stroke-linejoin="round"/>
<path d="M106.304 20.242V35.8187" stroke="#CEC2FF" stroke-width="1.5" stroke-linecap="round" stroke-linejoin="round"/>
</svg>
