<svg width="233" height="164" viewBox="0 0 233 164" fill="none" xmlns="http://www.w3.org/2000/svg">
<path fill-rule="evenodd" clip-rule="evenodd" d="M232.419 92.4168C232.419 92.4168 231.886 92.4167 231.886 91.7039C231.886 91.7039 231.886 91.7039 232.419 92.4168C231.886 91.7039 231.353 90.991 231.353 90.991C230.82 88.8523 231.886 87.4266 230.82 85.288C230.82 84.5751 230.287 83.8622 229.754 83.8622L229.22 83.1493L228.687 82.4364C228.154 81.0107 227.088 79.5849 226.022 78.872L225.489 78.1592C224.956 77.4463 224.423 77.4463 223.89 77.4463C221.757 78.872 219.092 78.1592 217.493 79.5849H216.96H216.427C215.894 79.5849 215.361 79.5849 214.828 80.2978C214.294 80.2978 213.228 80.2978 212.695 81.0107C212.162 81.0107 212.162 81.0107 211.629 81.7236C211.096 81.7236 210.03 82.4364 210.563 80.2978C211.629 76.7334 211.096 73.8819 210.563 70.3175C210.03 68.8917 210.03 67.466 211.629 66.0402C210.563 65.3273 209.497 65.3273 208.964 64.6144C207.898 63.1887 206.831 61.0501 205.232 61.0501C205.232 59.6243 204.166 58.9114 204.166 58.1985C204.166 56.0599 203.633 56.0599 202.567 56.0599C198.835 56.0599 195.637 56.7728 191.905 56.7728C191.905 56.7728 191.372 56.7728 191.372 57.4857H190.839C190.306 56.7728 190.306 56.7728 189.773 57.4857C188.174 57.4857 186.042 57.4857 184.976 55.347C184.443 54.6341 183.909 54.6341 182.843 54.6341C182.31 53.9213 181.777 54.6341 181.244 53.9213C181.244 52.4955 180.178 51.7826 180.178 51.0697C180.711 51.0697 180.711 51.0697 180.711 50.3569C181.777 50.3569 182.31 49.644 182.843 48.9311C183.376 48.2182 183.909 46.7925 184.976 46.7925C187.108 46.0796 188.174 43.9409 189.773 43.2281C191.372 41.8023 192.439 38.9508 191.372 37.525C190.839 34.6735 190.839 32.5349 190.306 30.3962C190.306 29.6834 190.306 29.6834 189.773 28.9705C189.773 26.8318 189.24 24.6932 188.707 23.2674C188.707 22.5546 188.707 21.8417 188.174 21.8417C188.174 20.4159 187.641 18.9902 186.575 18.2773C186.575 17.5644 186.575 16.8515 186.042 16.8515L185.509 16.1386C185.509 15.4258 185.509 15.4258 184.976 14.7129C184.976 14 184.976 14 184.442 14H183.909C182.31 14.7129 180.178 14 178.579 14.7129C178.046 14.7129 176.979 14.7129 176.446 14.7129C175.913 14.7129 175.38 14.7129 174.847 14C172.715 14.7129 170.583 15.4258 168.983 16.8515C167.917 16.8515 166.851 16.1386 166.318 17.5644C165.252 18.2773 163.653 17.5644 162.587 18.9902C162.054 19.703 160.987 18.9902 160.454 19.703C159.921 19.703 159.388 19.703 159.388 20.4159C158.855 20.4159 157.789 20.4159 157.256 20.4159C157.256 20.4159 156.723 20.4159 156.723 21.1288C154.591 21.8417 151.925 22.5546 149.793 23.2674L149.26 23.9803C147.128 23.9803 145.528 25.4061 143.396 24.6932L142.863 25.4061H142.33C141.797 24.6932 141.797 24.6932 141.264 25.4061C139.665 25.4061 138.598 25.4061 137.532 26.119C135.933 27.5447 133.801 27.5447 131.668 28.9705C130.602 29.6834 130.069 27.5447 129.003 28.2576C127.937 28.2576 128.47 30.3962 126.871 31.1091C125.805 31.822 124.205 31.822 123.139 31.822V32.5349V31.822H122.606V32.5349C122.073 32.5349 121.54 32.5349 121.007 32.5349L120.474 33.2477C119.941 33.2477 119.408 33.2477 119.408 32.5349C119.408 31.822 120.474 31.822 120.474 31.1091C118.875 30.3962 117.809 31.822 117.276 33.9606C116.743 33.9606 116.209 33.9606 116.209 33.2477C116.209 31.1091 115.676 31.822 114.61 32.5349C114.077 33.2477 113.544 33.9606 113.544 34.6735H113.011H112.478H111.945C111.412 34.6735 110.346 34.6735 110.346 33.2477C110.346 31.822 110.346 31.822 109.28 31.822C108.746 31.822 108.213 31.822 107.68 32.5349C108.213 33.2477 109.28 33.9606 109.28 35.3864C108.746 36.0993 107.68 35.3864 107.147 36.0993C106.614 36.0993 106.614 36.0993 106.081 36.0993C105.015 34.6735 105.015 34.6735 105.015 31.1091C105.015 28.9705 106.081 28.2576 107.147 27.5447C108.213 27.5447 109.28 27.5447 110.346 28.2576C110.879 28.9705 111.945 28.9705 112.478 28.2576C113.544 28.2576 114.61 28.2576 115.676 28.2576C118.342 28.2576 121.007 27.5447 123.139 26.119C124.739 25.4061 125.805 26.119 127.404 25.4061C127.937 24.6932 128.47 24.6932 129.536 24.6932H130.069C130.602 24.6932 131.135 24.6932 131.668 23.9803C133.268 23.9803 134.867 23.2674 136.466 22.5546C136.999 22.5546 137.532 22.5546 138.065 21.8417C139.131 21.8417 140.198 22.5546 140.731 21.1288C140.731 21.1288 140.731 21.1288 141.264 21.1288C141.797 21.1288 142.863 20.4159 142.863 20.4159C142.863 20.4159 142.863 20.4159 142.863 19.703C141.264 18.2773 140.198 17.5644 138.598 18.9902C138.065 18.9902 137.532 19.703 136.999 18.9902C133.801 18.2773 131.135 19.703 127.937 21.8417C127.404 21.8417 127.404 21.8417 126.871 22.5546C126.338 22.5546 126.338 22.5546 125.805 23.2674C125.272 23.2674 125.272 23.2674 124.739 23.2674C124.205 23.2674 123.672 23.2674 123.139 23.2674C120.474 21.8417 118.342 23.2674 116.209 23.9803C115.143 23.9803 114.077 24.6932 113.011 23.9803C111.945 23.2674 110.879 22.5546 111.412 25.4061C111.412 26.119 110.879 26.119 110.346 26.119C109.28 26.119 108.746 26.119 107.68 26.119C107.68 26.119 107.68 26.119 107.147 26.119H106.614C106.614 26.119 106.614 26.119 106.081 26.119C103.949 24.6932 101.283 23.2674 99.1512 25.4061C98.6181 25.4061 98.6181 25.4061 98.085 25.4061C97.552 24.6932 97.0189 24.6932 95.9527 24.6932C93.8205 24.6932 92.2212 24.6932 90.089 24.6932C89.0228 23.2674 87.9567 23.9803 86.8905 23.9803C86.3575 23.2674 85.8244 23.2674 85.2913 23.2674C84.7583 22.5546 84.7583 22.5546 84.2252 22.5546C83.6921 22.5546 83.6921 23.2674 83.6921 23.2674L83.159 23.9803C83.159 24.6932 82.0929 23.9803 82.0929 25.4061C82.0929 26.119 82.0929 26.8318 82.626 26.8318C82.626 27.5447 83.159 28.2576 83.6921 28.9705C84.2252 30.3962 84.2252 31.822 84.7583 33.2477C84.7583 34.6735 84.7582 35.3864 85.8244 36.0993C85.8244 36.8121 86.3575 37.525 86.3575 38.2379C85.8244 38.2379 85.2913 38.2379 84.7583 38.9508C84.2252 38.9508 83.6921 40.3765 83.6921 41.0894C83.6921 41.8023 84.2252 41.8023 84.7583 41.8023C85.2913 41.8023 85.8244 42.5152 85.8244 43.2281C85.8244 43.9409 85.2913 43.9409 84.7583 44.6538C83.6921 46.0796 82.0929 45.3667 80.4937 46.0796C79.9606 46.0796 78.8945 46.0796 78.3614 46.7925C77.2953 46.7925 76.2291 46.0796 75.6961 47.5053C74.6299 47.5053 73.5638 46.7925 73.0307 48.2182C71.4315 48.9311 70.3653 46.7925 68.7661 48.9311C68.2331 49.644 66.1008 48.9311 65.0346 49.644C63.4354 50.3569 61.8362 48.9311 60.237 50.3569C57.0386 50.3569 54.3732 50.3569 51.1748 50.3569C49.0425 49.644 46.9102 48.9311 44.778 48.9311C43.1787 48.9311 42.1126 48.9311 41.5795 49.644H41.0465C41.0465 48.9311 40.5134 48.9311 39.9803 48.9311C38.9142 48.2182 37.848 48.9311 36.7819 48.2182C36.2488 47.5053 35.7157 47.5053 35.1827 48.2182C34.6496 47.5053 34.1165 48.2182 33.5835 47.5053C33.5835 47.5053 33.5835 47.5053 33.0504 47.5053C33.0504 46.7925 32.5173 46.7925 31.9842 46.7925C31.4512 46.0796 30.385 46.0796 29.852 46.7925C29.852 47.5053 30.9181 47.5053 30.9181 47.5053L30.385 48.2182C29.852 48.2182 29.852 48.2182 29.3189 48.2182C28.7858 48.2182 28.2528 48.2182 27.7197 48.2182C27.7197 48.2182 27.7197 48.2182 27.1866 48.2182C27.1866 48.2182 27.1866 48.2182 27.7197 48.2182L28.2528 48.9311C28.2528 49.644 28.7858 49.644 29.3189 49.644C29.3189 50.3569 29.852 50.3569 30.385 50.3569C30.9181 52.4955 31.4512 52.4955 31.9842 52.4955C32.5173 54.6341 31.4512 53.9213 30.9181 53.9213C30.9181 53.2084 30.385 53.2084 29.852 53.2084C29.3189 51.7826 28.2528 53.2084 27.7197 53.2084C25.5874 51.7826 23.9882 51.7826 21.8559 53.2084C21.8559 52.4955 21.3228 52.4955 20.7898 52.4955C20.2567 51.7826 19.1905 52.4955 18.6575 51.7826C18.1244 51.0697 17.5913 51.7826 17.5913 51.0697C15.9921 50.3569 14.3929 50.3569 12.7937 51.0697C13.3268 52.4955 13.8598 52.4955 14.926 52.4955C14.926 53.9213 15.4591 53.9213 15.9921 53.9213V53.2084V53.9213C16.5252 54.6341 16.5252 53.9213 17.0583 54.6341C17.0583 54.6341 17.0583 54.6341 17.5913 54.6341C18.1244 54.6341 18.1244 54.6341 18.6575 55.347C19.1905 56.0599 19.7236 56.0599 19.7236 56.0599C20.2567 56.7728 20.7898 56.7728 21.3228 56.7728C21.8559 57.4857 22.389 58.1985 22.922 58.1985C23.4551 58.9114 23.9882 59.6243 24.5213 59.6243C25.5874 61.7629 27.1866 63.1887 28.7858 63.1887C28.7858 63.9016 29.3189 63.9016 29.852 63.9016C30.9181 66.0402 32.5173 66.7531 34.1165 66.7531C34.1165 67.466 34.6496 67.466 35.1827 67.466C35.1827 68.1788 35.7157 68.1788 36.2488 68.1788C36.7819 68.8917 37.315 68.8917 37.848 68.8917C39.4472 71.0304 42.1126 71.0304 44.2449 72.4561C46.3772 73.169 48.5094 73.8819 50.6417 73.8819C51.1748 73.8819 51.7079 74.5948 52.2409 75.3076C52.2409 76.7334 51.7079 76.7334 51.1748 76.7334C50.1087 76.7334 49.5756 77.4463 50.1087 78.1592C50.6417 78.872 51.1748 78.1592 51.1748 78.872C50.6417 79.5849 50.1087 78.872 49.5756 78.872V79.5849V78.872C49.5756 78.872 49.5756 78.872 49.0425 78.872C48.5094 78.1592 47.4433 78.872 46.9102 78.1592C45.8441 77.4463 44.7779 77.4463 43.7118 78.1592C42.6457 79.5849 43.7118 79.5849 44.2449 79.5849C44.7779 80.2978 45.311 80.2978 45.8441 81.0107C43.7118 81.0107 41.5795 81.0107 39.9803 81.0107C39.4472 81.0107 38.3811 81.0107 38.3811 81.7236C38.3811 83.1493 37.315 83.1493 36.2488 83.1493C35.7157 83.1493 35.1827 83.8622 34.6496 84.5751C35.1827 85.288 35.7157 84.5751 36.7819 84.5751C37.315 85.288 37.848 84.5751 38.3811 85.288C39.9803 86.7137 41.5795 86.7137 43.1787 86.7137C43.7118 86.7137 43.7118 87.4266 43.7118 87.4266C43.7118 88.1395 43.1787 87.4266 42.6457 88.1395C41.0465 86.7137 38.9142 88.1395 36.7819 87.4266C36.2488 86.0008 35.1827 86.7137 34.1165 86.7137C31.9842 83.8622 29.852 86.0008 28.2528 88.1395C27.1866 89.5652 26.1205 89.5652 24.5213 89.5652C23.9882 89.5652 23.4551 89.5652 22.389 89.5652C22.389 89.5652 21.8559 89.5652 21.8559 88.8524C21.3228 88.8524 20.7898 88.8524 20.2567 88.8524L19.7236 88.1395C19.1905 88.1395 18.6575 88.1395 18.1244 88.1395C18.1244 87.4266 17.5913 87.4266 17.0583 87.4266C16.5252 87.4266 16.5252 87.4266 15.9921 88.1395C15.9921 88.8524 16.5252 88.8524 16.5252 88.8524H17.0583C17.5913 88.8524 17.5913 88.8524 18.1244 88.8524L18.6575 89.5652H19.1905L19.7236 90.2781C20.2567 90.2781 20.2567 90.2781 20.7898 90.2781L21.3228 90.991C21.3228 90.991 21.3228 90.991 21.8559 90.991C23.4551 93.8425 25.5874 94.5554 28.2528 94.5554C28.7858 95.2683 29.852 95.9811 30.9181 95.9811C34.1165 98.8327 36.2488 98.8327 38.3811 100.258C38.9142 100.258 39.4472 100.258 39.4472 99.5455H39.9803C39.9803 100.258 40.5134 100.258 41.0465 100.258C40.5134 101.684 38.9142 101.684 38.3811 102.397C37.315 103.11 37.315 103.823 35.7157 103.823C30.385 103.823 25.0543 103.823 20.2567 103.823C19.1905 103.823 18.6575 103.11 17.5913 104.536C17.5913 104.536 17.5913 105.249 18.1244 105.249C18.6575 105.249 18.6575 105.249 19.1905 105.249C19.1905 105.961 20.2567 105.961 20.7898 105.961C22.389 105.961 23.9882 105.961 25.0543 105.961C27.1866 107.387 29.3189 105.961 31.4512 105.961C31.4512 106.674 31.9843 106.674 32.5173 106.674C36.7819 107.387 41.0465 108.813 45.311 110.239C45.311 111.665 44.7779 111.664 44.2449 111.664C43.1787 111.664 42.1126 112.377 40.5134 112.377C41.5795 113.09 42.6457 112.377 43.7118 112.377C42.6457 112.377 41.5795 112.377 40.5134 112.377C39.9803 111.664 39.4472 111.664 38.9142 111.664C37.848 111.664 36.2488 111.664 35.1827 111.664H34.6496C33.5835 110.952 32.5173 111.664 31.4512 110.952C30.9181 110.239 30.385 110.239 29.852 110.239C27.7197 110.239 25.5874 110.239 23.4551 110.239C22.389 110.239 21.8559 110.239 20.7898 110.239C18.1244 108.813 14.926 109.526 11.7276 109.526C10.6614 109.526 11.1945 110.952 11.7276 111.664V112.377C11.7276 112.377 11.7276 112.377 11.7276 111.664C9.59527 111.664 7.99606 111.664 5.86378 111.664C5.33071 111.664 4.79764 111.664 4.26457 111.664C3.7315 111.664 3.19842 111.664 3.19842 111.664C2.13228 111.664 1.59921 111.664 0 110.952C0.533071 112.377 1.59921 112.377 2.13228 113.09C2.66535 113.09 3.7315 113.09 4.26457 113.803C4.79764 113.803 5.33071 113.803 5.86378 113.803C7.46299 115.229 8.52913 114.516 10.1283 114.516C9.59527 113.803 9.0622 113.803 7.99606 113.09C8.52913 113.803 9.0622 113.09 9.59527 113.803C10.1283 113.803 10.1283 113.803 10.6614 113.803C12.2606 115.229 14.3929 114.516 15.9921 114.516C17.0583 115.942 18.6575 115.229 19.7236 115.229C20.7898 116.655 22.389 115.942 23.4551 115.942C23.9882 116.655 24.5213 116.655 25.0543 116.655C25.5874 118.08 26.6535 117.368 27.7197 117.368C28.2528 118.08 29.3189 118.08 30.385 118.08C30.9181 118.793 31.4512 118.08 31.9842 118.793C35.1827 120.219 37.315 120.219 38.9142 120.219C40.5134 120.932 42.6457 120.932 44.2449 121.645C44.7779 122.358 45.311 122.358 45.8441 122.358L46.3772 123.071L46.9102 123.783C46.9102 124.496 46.9102 124.496 46.3772 125.209C44.7779 123.783 44.7779 123.783 43.7118 125.922C42.6457 127.348 43.7118 127.348 44.2449 128.061L44.778 128.774C45.311 130.199 45.311 131.625 46.3772 132.338C46.3772 133.051 46.9102 133.051 47.4433 133.051C47.4433 133.051 47.9764 133.051 47.9764 133.764C48.5094 135.19 49.0425 136.615 50.6417 136.615C51.1748 138.041 51.7079 139.467 53.3071 139.467C53.8402 140.18 54.3732 140.893 54.9063 140.893L55.4394 141.605L55.9724 142.318C55.9724 143.031 56.5055 143.031 56.5055 143.031C56.5055 143.744 57.5716 143.744 57.0386 144.457C56.5055 144.457 55.9724 144.457 55.4394 145.17L54.9063 145.883L54.3732 146.596C53.8402 147.308 54.3732 148.021 53.8402 148.021L53.3071 148.734L52.774 149.447C52.774 150.873 52.774 151.586 52.774 153.012L53.3071 153.724C53.3071 153.724 53.8402 153.724 53.8402 154.437C53.8402 154.437 53.8402 155.15 54.3732 155.15L54.9063 155.863C55.4394 156.576 55.4394 155.863 55.9724 156.576H56.5055H57.0386H57.5716H58.1047L58.6378 155.863C59.7039 155.863 59.7039 155.15 59.1709 154.437C58.1047 153.724 57.0386 153.012 56.5055 151.586C55.9724 150.873 55.9724 150.873 56.5055 150.16H57.0386L57.5716 150.873L58.1047 150.16V149.447C58.1047 148.734 58.6378 148.021 58.1047 146.596V145.883C58.6378 145.883 59.7039 146.596 60.237 147.308C61.8362 148.734 66.1008 151.586 68.2331 152.299C68.7661 153.012 69.8323 153.012 70.3653 153.724C70.3653 154.437 70.8984 154.437 71.4315 154.437C71.4315 155.15 71.9646 155.15 72.4976 155.15C72.4976 155.863 73.0307 155.863 73.5638 155.863C74.0968 156.576 74.6299 156.576 75.163 156.576C76.7622 157.289 78.3614 158.715 79.9606 158.715C80.4937 160.14 82.0929 160.14 83.159 160.14C84.7583 160.14 86.3575 160.853 87.9567 160.853C91.1551 162.279 94.8866 162.992 98.6181 162.992C103.416 163.705 108.213 164.418 113.011 163.705C114.077 163.705 115.676 163.705 116.743 163.705C118.342 163.705 119.941 164.418 121.54 162.992C121.54 162.992 122.073 162.992 122.606 162.992C123.672 162.992 124.739 162.992 125.805 162.992C127.404 162.279 128.47 160.853 130.069 162.992C130.602 163.705 131.135 162.992 131.668 162.992C133.801 163.705 136.466 162.279 138.598 162.279C142.863 162.992 146.061 160.853 149.26 158.002C150.326 158.002 151.392 158.002 151.925 158.002C154.057 156.576 156.723 158.002 158.855 157.289H159.388C159.388 158.002 159.388 158.715 159.921 158.715C160.454 158.715 160.454 158.002 160.454 157.289C160.987 156.576 162.587 155.863 163.12 156.576C163.653 158.715 164.186 157.289 164.719 157.289C165.252 155.863 166.851 155.863 167.384 155.15C170.583 155.15 173.248 154.437 175.913 152.299C178.046 152.299 180.178 152.299 181.244 149.447C182.31 149.447 183.376 149.447 183.909 148.021C184.976 148.021 186.042 148.021 186.575 146.596C188.707 145.883 190.839 144.457 192.439 142.318C193.505 141.605 194.571 140.893 195.637 139.467C196.17 139.467 196.703 138.754 197.236 138.041C198.302 138.041 199.368 137.328 199.902 135.902L200.435 135.19C201.501 135.19 202.034 133.764 202.567 133.051C203.1 133.051 203.1 133.051 203.633 132.338L204.166 131.625L204.699 130.912L205.232 130.199L205.765 129.486V128.774C206.298 128.774 206.831 128.061 206.831 127.348C207.365 126.635 207.898 127.348 208.431 126.635C208.964 126.635 209.497 126.635 209.497 125.922C210.03 125.922 210.563 125.922 210.563 125.209C212.162 125.209 213.761 124.496 214.828 123.071C215.894 123.071 217.493 123.071 218.559 123.071C219.092 123.071 219.625 123.071 220.158 121.645L220.691 120.932C221.224 120.932 221.757 120.932 222.291 120.219H222.824C223.357 119.506 223.89 120.219 224.423 119.506C224.956 119.506 225.489 119.506 225.489 118.08C225.489 117.368 224.956 117.368 224.423 117.368C223.89 117.368 223.357 117.368 222.824 118.08H223.89C223.357 118.08 222.824 118.08 222.824 118.08C222.824 118.08 222.824 118.793 222.291 118.793H221.757C220.691 118.08 221.757 116.655 221.757 115.942C221.757 115.942 221.757 115.942 221.757 116.655C222.291 115.942 223.357 115.942 223.357 114.516C223.357 113.09 223.357 111.665 223.357 110.239C222.824 107.387 223.89 105.961 224.956 103.823C226.022 102.397 227.621 101.684 229.22 101.684H229.754C230.287 101.684 230.287 100.971 230.287 100.971C231.353 100.971 231.886 100.258 231.886 98.8327C232.952 96.694 233.485 94.5554 232.419 92.4168ZM22.389 113.803H21.8559C21.8559 114.516 21.8559 114.516 22.389 113.803C21.8559 113.803 21.8559 113.803 22.389 113.803ZM27.1866 114.516H26.6535C27.1866 114.516 27.1866 114.516 27.1866 114.516ZM84.7583 25.4061C84.7583 25.4061 84.7583 24.6932 84.7583 25.4061C84.7583 24.6932 84.7583 24.6932 84.7583 25.4061C84.7583 25.4061 84.7583 24.6932 84.7583 25.4061ZM205.232 66.0402C204.699 66.0402 204.699 66.0402 205.232 66.0402C204.699 66.0402 205.232 66.0402 205.232 66.0402C205.232 66.7531 205.232 66.0402 205.232 66.0402ZM218.026 119.506C218.026 118.793 218.026 118.793 218.026 119.506C218.026 118.793 218.559 118.793 218.026 119.506C218.026 118.793 218.559 118.793 218.026 119.506ZM61.8362 145.883C61.8362 145.883 61.8362 145.17 61.8362 145.883C61.8362 145.17 61.8362 145.883 61.8362 145.883ZM63.9685 53.9213C63.9685 53.2084 63.9685 53.2084 63.9685 53.9213C63.9685 53.2084 63.9685 53.2084 63.9685 53.9213C63.9685 53.2084 63.9685 53.2084 63.9685 53.9213C63.9685 53.2084 63.9685 53.2084 63.9685 53.9213ZM74.0968 63.1887C74.0968 63.9016 74.6299 63.9016 74.6299 64.6144C74.6299 64.6144 74.0968 64.6144 73.5638 64.6144C74.0968 64.6144 74.0968 63.9016 74.0968 63.1887ZM195.637 61.7629C195.104 61.7629 195.104 61.7629 195.637 61.7629C195.104 62.4758 195.104 61.7629 195.637 61.7629C195.104 61.7629 195.104 61.7629 195.637 61.7629ZM198.835 61.0501C198.835 61.0501 198.302 61.0501 198.835 61.0501C198.302 61.0501 198.835 61.0501 198.835 61.0501ZM49.5756 119.506C49.0425 119.506 49.0425 119.506 49.5756 119.506C49.0425 119.506 49.0425 119.506 49.5756 119.506ZM145.528 147.308C144.995 147.308 144.995 147.308 145.528 147.308C144.995 147.308 144.995 146.596 145.528 147.308C145.528 147.308 145.528 146.596 145.528 147.308ZM70.8984 121.645C71.9646 120.932 73.0307 119.506 73.5638 118.793C72.4976 118.793 71.4315 119.506 70.8984 121.645ZM87.9567 64.6144C88.4898 64.6144 88.4898 63.9016 87.9567 64.6144C88.4898 64.6144 88.4898 64.6144 87.9567 64.6144ZM173.781 64.6144C173.781 64.6144 174.314 64.6144 173.781 64.6144C173.781 65.3273 173.781 64.6144 173.781 64.6144ZM174.314 63.9016C174.314 63.1887 174.314 63.9016 174.314 63.9016V63.9016ZM194.571 79.5849C194.038 79.5849 194.038 79.5849 193.505 79.5849L194.038 78.872C194.038 78.872 194.038 78.872 194.571 79.5849ZM206.831 93.1296C206.831 93.1296 207.365 93.1296 206.831 93.1296C207.365 93.1296 206.831 93.1296 206.831 93.1296ZM80.4937 124.496C80.4937 124.496 81.0268 124.496 80.4937 124.496C81.0268 124.496 80.4937 125.209 80.4937 124.496C80.4937 124.496 80.4937 125.209 80.4937 124.496ZM101.817 55.347L102.35 54.6341C102.35 55.347 101.817 55.347 101.817 55.347ZM176.98 88.1395V87.4266V88.1395ZM148.727 98.8327C148.194 98.8327 148.194 98.8327 147.661 99.5455C147.661 98.8327 148.194 98.8327 148.727 98.8327ZM146.061 95.9811C146.061 95.2683 146.061 95.2683 146.061 95.9811C146.061 95.2683 146.061 95.9811 146.061 95.9811ZM147.128 92.4168C147.128 92.4168 147.128 93.1296 147.128 92.4168C147.128 93.1296 147.128 92.4168 147.128 92.4168ZM143.396 96.694C143.396 96.694 143.396 97.4069 143.396 96.694C143.396 97.4069 143.396 96.694 143.396 96.694ZM148.194 91.7039C148.727 91.7039 148.727 90.991 149.26 90.991C148.727 90.991 148.194 90.991 148.194 91.7039ZM152.991 93.1296C152.458 93.1296 152.458 92.4167 152.991 93.1296C152.458 92.4167 152.458 91.7039 152.458 91.7039C152.458 91.7039 152.458 92.4167 152.991 93.1296C152.458 93.1296 152.458 92.4167 152.991 93.1296ZM142.33 76.0205C142.33 76.0205 141.797 76.0205 142.33 76.0205V76.0205ZM87.4236 93.8425C87.4236 93.8425 87.4236 94.5554 87.4236 93.8425V93.8425ZM91.6882 90.2781C91.6882 89.5652 91.6882 89.5652 91.6882 90.2781C91.6882 89.5652 91.6882 89.5652 91.6882 90.2781C91.6882 90.2781 91.6882 89.5652 91.6882 90.2781ZM93.2874 87.4266C93.8205 87.4266 93.8205 87.4266 93.2874 87.4266C93.8205 87.4266 93.8205 87.4266 93.2874 87.4266C93.8205 87.4266 93.8205 87.4266 93.2874 87.4266ZM90.089 104.536C90.622 104.536 90.089 104.536 90.089 104.536C90.089 105.249 90.089 105.249 90.089 104.536C90.089 104.536 90.089 105.249 90.089 104.536ZM103.949 90.991H103.416C103.416 90.991 103.949 90.991 103.949 90.991ZM105.015 118.793C105.548 118.08 105.015 118.08 105.015 118.793C105.015 118.08 105.548 118.08 105.015 118.793C105.015 118.793 105.548 118.08 105.015 118.793ZM113.011 87.4266C113.544 87.4266 113.011 86.7137 113.011 87.4266C113.544 86.7137 113.011 86.7137 113.011 87.4266ZM126.338 79.5849C126.338 80.2978 126.338 80.2978 126.338 79.5849V79.5849ZM124.739 89.5652C124.739 90.2781 124.739 90.2781 124.739 89.5652C124.739 90.2781 124.739 90.2781 124.739 89.5652C124.739 90.2781 124.739 90.2781 124.739 89.5652ZM128.47 75.3076C128.47 75.3076 128.47 74.5948 128.47 75.3076C128.47 74.5948 128.47 75.3076 128.47 75.3076ZM103.949 121.645C103.949 121.645 103.949 122.358 103.949 121.645C103.949 122.358 103.949 122.358 103.949 121.645C103.949 122.358 103.949 122.358 103.949 121.645ZM141.797 102.397C141.797 103.11 141.797 103.11 141.797 102.397C141.797 103.11 141.797 103.11 141.797 102.397C141.797 103.11 141.797 102.397 141.797 102.397ZM98.085 95.9811H98.6181H99.1512C99.1512 95.9811 98.6181 95.2683 98.085 95.9811ZM110.879 113.803C110.879 113.803 111.412 113.803 110.879 113.803V113.803ZM115.676 120.219C115.676 120.932 115.676 120.932 115.676 120.219V120.219ZM118.875 68.1788C119.408 68.1788 119.408 68.1788 118.875 68.1788C119.408 68.1788 118.875 68.1788 118.875 68.1788ZM112.478 63.1887C111.945 62.4758 112.478 61.7629 113.011 61.7629C113.011 63.1887 113.011 63.9016 113.544 64.6144C113.011 63.9016 112.478 63.1887 112.478 63.1887ZM71.4315 108.1C71.4315 108.813 71.4315 108.813 71.4315 108.1C70.8984 108.813 70.8984 108.1 71.4315 108.1C70.8984 108.813 71.4315 108.1 71.4315 108.1C71.4315 108.813 71.4315 108.1 71.4315 108.1C71.4315 108.813 71.4315 108.813 71.4315 108.1ZM113.544 123.783C113.544 124.496 113.544 124.496 113.544 123.783C113.544 124.496 113.544 123.783 113.544 123.783ZM148.727 67.466H149.26C149.26 67.466 149.26 67.466 148.727 67.466ZM119.941 45.3667C119.941 46.0796 119.408 46.0796 119.941 45.3667C119.408 46.0796 119.941 46.0796 119.941 45.3667ZM116.743 61.0501C117.276 59.6243 116.743 58.9114 116.209 58.1985C116.209 59.6243 116.743 60.3372 117.276 61.0501C117.276 61.0501 117.276 61.0501 116.743 61.0501ZM104.482 56.0599C104.482 56.7728 104.482 56.7728 104.482 56.0599C104.482 56.7728 104.482 56.0599 104.482 56.0599ZM186.042 132.338C186.042 132.338 185.509 132.338 186.042 132.338C185.509 132.338 185.509 132.338 186.042 132.338C185.509 132.338 185.509 132.338 186.042 132.338ZM198.302 118.08C198.302 118.08 198.302 118.793 198.302 118.08V118.08ZM202.567 105.961C202.567 105.961 203.1 105.961 202.567 105.961C202.567 105.961 203.1 105.961 202.567 105.961ZM184.976 68.8917C184.976 68.8917 184.976 69.6046 184.976 68.8917C184.443 68.8917 184.443 68.8917 184.976 68.8917C184.976 68.8917 184.443 68.8917 184.976 68.8917ZM178.046 76.7334C178.046 76.0205 177.513 76.0205 178.046 76.7334C177.513 76.0205 177.513 76.0205 178.046 76.7334C176.979 75.3076 176.446 76.0205 175.913 76.7334C176.446 76.0205 176.979 76.0205 178.046 76.7334C177.513 76.7334 177.513 76.0205 178.046 76.7334ZM174.314 83.1493C174.314 82.4364 174.314 82.4364 174.314 81.7236C174.314 82.4364 174.314 83.1493 174.314 83.1493ZM165.252 71.7432V72.4561C165.252 72.4561 165.252 71.7432 165.252 71.7432ZM155.657 49.644C155.657 48.9311 155.657 48.9311 155.657 48.9311C156.19 49.644 155.657 49.644 155.657 49.644ZM121.54 43.9409C121.54 43.9409 122.073 43.2281 122.606 43.2281C122.073 43.9409 121.54 43.9409 121.54 43.9409ZM119.408 43.2281L119.941 43.9409C119.941 43.9409 119.408 43.9409 119.408 43.2281ZM102.35 57.4857C101.283 58.1985 101.283 59.6243 100.217 59.6243C100.75 58.9114 101.817 58.9114 102.35 57.4857ZM97.0189 66.7531C97.0189 67.466 97.0189 67.466 97.0189 66.7531C97.0189 67.466 96.4858 67.466 97.0189 66.7531ZM67.1669 95.9811C66.6339 95.9811 67.1669 95.9811 67.1669 95.9811V95.9811ZM83.159 139.467C83.159 139.467 83.159 140.18 83.159 139.467V139.467ZM117.809 140.18C117.809 140.893 117.276 141.605 117.276 141.605C117.276 140.893 117.276 140.18 117.809 140.18ZM165.785 98.8327C165.785 99.5455 166.318 99.5455 165.785 98.8327C166.318 99.5455 165.785 99.5455 165.785 98.8327C165.785 99.5455 165.785 99.5455 165.785 98.8327ZM189.773 124.496C189.773 124.496 189.24 124.496 189.773 124.496V124.496ZM115.143 43.9409H114.61C114.61 43.9409 114.61 43.2281 115.143 43.9409C115.143 43.9409 114.61 43.2281 115.143 43.9409ZM85.8244 63.9016C86.3575 63.1887 86.8905 61.7629 87.4236 61.7629C87.4236 62.4758 86.3575 62.4758 85.8244 63.9016C85.8244 64.6144 85.8244 65.3273 86.3575 65.3273C86.3575 66.0402 87.4236 66.7531 87.9567 66.7531C88.4898 66.7531 89.0228 66.7531 89.0228 66.7531C89.0228 66.7531 88.4898 66.7531 87.9567 66.7531C87.4236 66.0402 86.8905 66.0402 86.3575 65.3273C86.3575 64.6145 86.3575 64.6144 85.8244 63.9016ZM85.2913 65.3273H84.7583C84.7583 65.3273 84.7583 65.3273 85.2913 65.3273ZM71.4315 79.5849C70.8984 79.5849 70.8984 79.5849 71.4315 79.5849C70.8984 78.872 70.8984 78.872 71.4315 79.5849C70.8984 78.872 70.8984 78.872 70.8984 78.872C70.8984 78.872 70.8984 78.872 71.4315 79.5849C70.8984 79.5849 70.8984 79.5849 71.4315 79.5849ZM70.8984 75.3076C70.8984 76.0205 70.8984 76.0205 70.8984 75.3076C70.8984 76.0205 70.8984 76.0205 70.8984 75.3076C70.8984 76.0205 70.8984 76.0205 70.8984 75.3076ZM65.5677 99.5455C65.5677 98.8327 65.0346 98.8327 64.5016 98.8327C65.0346 98.8327 65.5677 98.8327 65.5677 99.5455ZM108.746 141.605C108.746 140.893 108.746 140.893 108.746 141.605C109.28 140.893 109.28 140.893 108.746 141.605C109.28 141.605 109.28 140.893 108.746 141.605C109.28 141.605 109.28 141.605 108.746 141.605C108.746 141.605 109.28 140.893 108.746 141.605ZM121.007 137.328C121.007 138.041 121.007 138.041 121.007 137.328C121.007 138.041 121.007 138.041 121.007 137.328C121.007 137.328 121.007 138.041 121.007 137.328ZM125.805 127.348C125.805 127.348 125.272 128.061 125.805 127.348C125.272 127.348 125.272 127.348 125.805 127.348ZM149.793 133.051C149.793 133.051 150.326 133.051 149.793 133.051C150.326 133.051 149.793 133.051 149.793 133.051ZM162.587 115.229C162.587 114.516 162.587 114.516 162.587 113.803C163.12 113.803 163.12 113.803 163.12 114.516C162.587 115.229 162.587 115.229 162.587 115.229ZM213.761 109.526C213.761 110.239 214.294 110.952 214.294 110.952C214.294 110.952 213.761 110.239 213.761 109.526ZM192.439 68.1788V67.466C192.439 67.466 192.439 68.1788 192.439 68.1788ZM178.046 62.4758C178.046 61.7629 178.046 61.7629 178.046 62.4758C178.046 61.7629 178.046 61.7629 178.046 62.4758ZM106.081 43.2281C106.081 43.2281 106.614 43.2281 106.081 43.2281C106.081 43.9409 106.081 43.2281 106.081 43.2281ZM60.237 73.169C60.237 73.169 60.237 72.4561 60.237 73.169C60.237 71.7432 59.7039 72.4561 59.7039 72.4561C59.7039 72.4561 59.7039 72.4561 60.237 72.4561C59.7039 72.4561 60.237 72.4561 60.237 73.169C60.237 72.4561 60.237 72.4561 60.237 73.169ZM57.0386 124.496C57.0386 124.496 57.0386 123.783 57.0386 124.496V124.496ZM91.6882 153.724L91.1551 154.437C91.1551 153.724 91.1551 154.437 91.1551 153.724C91.1551 153.724 91.1551 153.724 91.6882 153.724ZM126.338 130.199C126.338 130.912 126.338 130.912 126.338 130.912H125.805C126.338 130.912 126.338 130.912 126.338 130.199ZM189.24 64.6144C189.24 64.6144 189.24 63.9016 189.24 64.6144C189.24 63.9016 189.24 63.9016 189.24 64.6144ZM174.847 28.9705C175.38 28.9705 175.38 28.9705 174.847 28.9705C175.38 28.9705 175.38 28.9705 174.847 28.9705C175.38 28.9705 175.38 28.9705 174.847 28.9705ZM158.855 38.2379C159.388 37.525 160.454 36.8121 160.987 36.8121C160.454 36.8121 159.921 37.525 158.855 38.2379ZM79.9606 63.1887C79.9606 63.9016 79.9606 63.9016 79.9606 63.1887C79.9606 63.9016 79.9606 63.9016 79.9606 63.1887ZM42.6457 106.674C43.1787 105.961 43.1787 105.961 43.7118 105.961C43.7118 105.961 43.7118 105.961 44.2449 105.961C43.7118 105.961 43.1787 105.961 42.6457 106.674ZM83.159 155.15L82.626 154.437C82.626 154.437 83.159 155.15 83.159 155.15ZM91.1551 139.467C91.1551 139.467 91.6882 139.467 91.1551 139.467C91.6882 139.467 91.6882 139.467 91.1551 139.467ZM91.1551 155.15C91.6882 155.15 92.2212 155.863 91.6882 156.576C91.6882 155.863 91.1551 155.15 91.1551 155.15C91.1551 155.15 91.1551 154.437 91.1551 155.15ZM136.466 155.15C136.466 155.863 136.466 155.863 136.466 156.576C136.466 155.863 135.933 155.863 135.4 155.863C135.933 155.15 135.933 155.15 136.466 155.15ZM155.657 150.16C155.657 150.16 156.19 150.16 155.657 150.16C156.19 150.16 156.19 150.16 155.657 150.16C155.657 150.16 156.19 150.16 155.657 150.16ZM198.302 125.922C198.302 125.922 198.302 126.635 198.302 125.922C198.302 127.348 198.302 128.061 198.835 128.774C198.302 128.061 198.302 127.348 198.302 125.922ZM216.96 116.655C216.96 117.368 216.96 117.368 216.96 116.655C216.96 117.368 216.96 116.655 216.96 116.655ZM202.034 68.8917C202.567 68.8917 202.567 69.6046 203.1 69.6046C202.567 68.8917 202.034 68.8917 202.034 68.8917ZM146.061 26.8318C146.061 26.8318 146.061 26.119 146.061 26.8318V26.8318ZM110.879 38.2379C110.879 38.2379 110.346 38.2379 110.346 38.9508C110.346 38.2379 110.879 38.2379 110.879 38.2379ZM41.0465 57.4857C41.0465 57.4857 40.5134 56.7728 39.9803 56.7728C40.5134 57.4857 40.5134 57.4857 41.0465 57.4857ZM48.5094 70.3175C48.5094 69.6046 47.9764 70.3175 48.5094 70.3175C47.9764 70.3175 47.9764 70.3175 47.9764 69.6046C47.9764 69.6046 47.9764 69.6046 48.5094 70.3175ZM43.7118 98.1198C43.1787 98.1198 43.1787 98.8327 43.1787 98.8327C43.1787 98.8327 43.1787 98.1198 43.7118 98.1198ZM44.2449 106.674H44.778C44.2449 107.387 44.2449 107.387 44.2449 106.674C43.7118 107.387 43.7118 107.387 44.2449 106.674ZM41.5795 119.506C41.5795 119.506 41.5795 118.793 41.5795 119.506V119.506ZM65.5677 147.308C65.5677 148.021 65.5677 148.734 65.0346 148.021C65.0346 148.021 65.5677 148.021 65.5677 147.308ZM77.2953 150.873C77.2953 150.873 77.8283 151.586 77.2953 150.873C77.2953 151.586 77.2953 150.873 77.2953 150.873ZM79.4276 153.724C79.4276 154.437 78.8945 154.437 78.8945 154.437C78.8945 154.437 78.8945 153.724 79.4276 153.724ZM121.54 155.863C121.54 156.576 121.54 156.576 121.54 155.863V155.863ZM220.691 108.813C220.691 109.526 220.691 109.526 220.691 108.813V108.813ZM222.291 83.8622C222.291 83.1493 222.824 83.8622 223.357 83.1493C222.824 83.8622 222.291 83.8622 222.291 83.8622ZM227.088 90.2781C227.088 90.2781 227.088 89.5652 227.088 90.2781C227.088 89.5652 227.088 89.5652 227.088 90.2781C227.088 89.5652 227.088 89.5652 227.088 90.2781ZM226.022 94.5554C226.555 94.5554 226.555 94.5554 226.555 95.2683C226.555 95.2683 226.022 95.2683 226.022 94.5554C226.022 94.5554 226.022 95.2683 226.022 94.5554ZM208.964 82.4364C208.964 82.4364 209.497 82.4364 208.964 82.4364C209.497 82.4364 208.964 82.4364 208.964 82.4364ZM174.314 19.703C174.314 18.9902 174.314 17.5644 173.781 17.5644H174.314C174.314 18.2773 174.314 18.9902 174.314 19.703ZM97.0189 35.3864C96.4858 34.6735 96.4858 33.9606 95.9527 33.9606C95.9527 35.3864 96.4858 36.0993 97.0189 35.3864ZM37.848 51.0697V50.3569C37.848 50.3569 37.848 50.3569 37.848 51.0697ZM25.0543 58.9114C25.0543 58.9114 25.0543 59.6243 25.0543 58.9114C25.0543 59.6243 25.0543 58.9114 25.0543 58.9114ZM29.3189 58.1985V58.9114C29.3189 58.1985 28.7858 58.1985 28.7858 58.1985C29.3189 58.1985 29.3189 58.1985 29.3189 58.1985ZM73.5638 143.744L74.0968 144.457C74.0968 143.744 73.5638 143.744 73.5638 143.744ZM214.828 121.645C214.828 122.358 214.828 122.358 214.828 121.645C214.828 122.358 214.828 122.358 214.828 121.645ZM222.291 105.249C222.291 105.249 222.824 105.249 222.291 105.249C222.824 105.249 222.291 105.249 222.291 105.249ZM231.353 93.1296L230.82 93.8425C230.82 93.1296 231.353 93.1296 231.353 93.1296ZM189.24 58.9114C189.24 58.1985 189.773 58.1985 189.24 58.9114C189.773 58.1985 189.773 58.1985 189.24 58.9114C189.773 58.1985 189.773 58.1985 189.24 58.9114ZM187.641 58.1985C187.108 58.1985 187.108 58.1985 187.641 58.1985C187.108 58.1985 187.108 58.1985 187.641 58.1985ZM181.244 50.3569C182.843 48.9311 183.909 48.2182 184.442 45.3667C183.376 47.5053 181.777 48.9311 181.244 50.3569ZM189.773 39.6637C189.773 40.3765 189.773 41.0894 189.773 41.0894C189.773 41.0894 190.306 40.3765 189.773 39.6637ZM97.0189 25.4061C97.0189 25.4061 96.4858 25.4061 97.0189 25.4061C96.4858 25.4061 96.4858 25.4061 97.0189 25.4061ZM34.1165 51.7826C34.6496 51.7826 34.6496 50.3569 34.6496 49.644C34.6496 50.3569 34.6496 51.0697 34.1165 51.7826C34.6496 51.7826 34.6496 51.7826 34.1165 51.7826ZM37.315 56.0599C36.7819 55.347 36.2488 55.347 35.1827 54.6341C36.2488 55.347 36.7819 55.347 37.315 56.0599ZM39.4472 81.7236C38.9142 81.7236 38.9142 81.7236 39.4472 81.7236C38.9142 81.7236 39.4472 81.7236 39.4472 81.7236ZM45.311 88.8524C44.7779 88.8524 44.7779 89.5652 45.311 88.8524C44.7779 89.5652 44.7779 88.8524 44.2449 88.8524C44.7779 89.5652 44.7779 88.8524 45.311 88.8524ZM45.8441 122.358C45.8441 121.645 45.311 121.645 45.8441 122.358C45.8441 121.645 45.8441 121.645 45.8441 122.358ZM52.2409 136.615V137.328C52.2409 136.615 52.2409 136.615 52.2409 136.615ZM142.863 161.566C143.396 161.566 143.929 160.853 144.462 160.14C143.929 160.853 143.396 161.566 142.863 161.566ZM146.594 158.715C147.128 158.715 146.594 158.715 146.594 158.715V158.715Z" fill="#F5CED0"/>
<path d="M146.358 38.377H97.4892L78.0801 55.1452V131.38C78.0801 135.183 81.1994 138.295 85.0119 138.295H146.185C149.998 138.295 153.117 135.183 153.117 131.38V45.2917C153.29 41.4886 150.171 38.377 146.358 38.377Z" fill="white" stroke="#151F41" stroke-width="1.5" stroke-miterlimit="10"/>
<path d="M100.608 39.2412V61.0227H87.4375" stroke="#151F41" stroke-width="1.5" stroke-miterlimit="10"/>
<path d="M90.9033 76.9263H143.412" stroke="#151F41" stroke-width="1.5" stroke-miterlimit="10" stroke-linecap="round"/>
<path d="M90.9033 88.5088H126.949" stroke="#151F41" stroke-width="1.5" stroke-miterlimit="10" stroke-linecap="round"/>
<path d="M90.9033 100.264H123.656" stroke="#151F41" stroke-width="1.5" stroke-miterlimit="10" stroke-linecap="round"/>
<path d="M90.9033 112.019H123.656" stroke="#151F41" stroke-width="1.5" stroke-miterlimit="10" stroke-linecap="round"/>
<path d="M90.9033 123.774H106.846" stroke="#151F41" stroke-width="1.5" stroke-miterlimit="10" stroke-linecap="round"/>
<path d="M155.3 56.3H147.9L138.1 64.9C137.3 65.7 136 65.7 135.2 64.9L125.4 56.3H118C115.2 56.3 113 54.1 113 51.3V14C113 11.2 115.2 9 118 9H155.3C158.1 9 160.3 11.2 160.3 14V51.3C160.3 54 158.1 56.3 155.3 56.3Z" fill="#F5CED0" stroke="#151F41" stroke-width="1.51168" stroke-miterlimit="10" stroke-linecap="round" stroke-linejoin="round"/>
<path d="M142.8 23.9999C142.8 27.3999 140.1 30.0999 136.7 30.0999C133.3 30.0999 130.6 27.3999 130.6 23.9999C130.6 20.5999 133.3 17.8999 136.7 17.8999C140 17.8999 142.8 20.5999 142.8 23.9999Z" stroke="white" stroke-width="2.5" stroke-miterlimit="10"/>
<path d="M148.8 46.0002V40.5002C148.8 37.9002 146.6 35.7002 144 35.7002H129.3C126.7 35.7002 124.5 37.9002 124.5 40.5002V46.0002" stroke="white" stroke-width="2.5" stroke-miterlimit="10"/>
</svg>
