<svg width="986" height="314" viewBox="0 0 986 314" fill="none" xmlns="http://www.w3.org/2000/svg">
<path d="M79 269.721C99.3333 299.721 154.7 340.321 213.5 262.721C287 165.721 354.5 153.221 425 172.721C495.5 192.221 576.5 218.721 674 138.221C771.5 57.7207 868.5 122.721 910.5 166.221" stroke="white" stroke-width="2" stroke-miterlimit="16" stroke-linecap="round" stroke-dasharray="2 20"/>
<path d="M79 269.721C99.3333 299.721 154.7 340.321 213.5 262.721" stroke="#60FEB2" stroke-width="6" stroke-linecap="round"/>
<path d="M86.2015 304.561L86.1971 304.563C84.1216 305.65 81.8858 306.253 79.547 306.424C72.7745 306.924 66.5555 304.878 60.6767 302.457C52.7687 299.258 45.3923 295.03 38.2367 290.647C31.8101 286.737 25.4197 282.668 19.1428 278.439L19.1361 278.434C14.1386 275.028 9.45759 271.052 5.78849 265.936L86.2015 304.561ZM86.2015 304.561C90.6068 302.236 93.4752 298.434 95.6204 294.317L86.2015 304.561ZM1.5173 252.931L1.51736 252.931C1.6834 249.651 2.63711 246.669 3.86442 243.824L3.8672 243.818C6.28811 238.278 9.72548 233.508 13.3571 228.948C19.0411 221.805 25.1804 215.109 31.4923 208.591C35.9796 203.946 40.7673 199.545 46.419 196.138L1.5173 252.931ZM1.5173 252.931L1.51676 252.944M1.5173 252.931L1.51676 252.944M1.51676 252.944C1.30685 257.942 3.0841 262.166 5.78834 265.935L1.51676 252.944ZM62.4595 190.648L62.4654 190.647C72.0508 189.872 80.9314 192.165 89.0636 197.294C95.2725 201.2 99.8611 206.567 102.631 213.489L102.633 213.493C104.016 216.982 105.013 220.614 105.453 224.387C105.54 225.107 105.632 225.819 105.724 226.532C106.112 229.53 106.5 232.534 106.5 236.146C106.5 239.508 106.075 243.953 105.671 248.168C105.542 249.52 105.415 250.849 105.305 252.11C105.305 252.111 105.305 252.112 105.304 252.113L103.81 251.982L62.4595 190.648ZM62.4595 190.648C56.617 191.144 51.3309 193.17 46.4202 196.137L62.4595 190.648ZM102.015 275.104L102.016 275.099L95.6206 294.317C98.8229 288.19 100.623 281.653 102.015 275.104Z" fill="#37A5DE" stroke="#60FEB2" stroke-width="3"/>
<path d="M81.8515 260.988C83.9872 259.136 85.1222 256.889 84.988 254.704C84.8781 252.753 83.5113 250.889 81.1681 249.444C77.1896 247.012 69.8916 245.765 63.2648 248.778C58.8591 250.79 56.9187 251.333 52.4276 249.58C49.6084 248.481 46.7893 248.691 44.678 250.148C42.8718 251.395 41.7856 253.469 41.7856 255.679V255.691C41.7856 257.728 42.4691 259.42 43.8115 260.679C45.5933 262.37 48.5345 263.197 51.8784 262.975C55.4298 262.728 58.4442 263.333 61.6294 263.963C62.8254 264.21 64.0702 264.457 65.3761 264.654C71.832 265.704 77.9951 264.321 81.8515 260.988Z" fill="white"/>
<path d="M74.7511 227.391L74.7518 227.392C76.808 229.163 77.8374 231.27 77.7155 233.266C77.607 235.006 76.3979 236.745 74.1227 238.129L74.1207 238.13C70.2747 240.493 63.1524 241.719 56.6869 238.768C54.4884 237.764 52.8333 237.09 51.1449 236.912C49.4375 236.732 47.7446 237.063 45.4601 237.954C42.7649 239.005 40.1264 238.786 38.1773 237.441C36.5048 236.275 35.5 234.366 35.5 232.321V232.309C35.5 230.382 36.1375 228.84 37.3803 227.674L37.3803 227.674L37.3823 227.672C39.0296 226.108 41.8135 225.283 45.07 225.511L45.0703 225.511C48.655 225.761 51.7022 225.158 54.8418 224.537L54.9513 224.516C54.9516 224.516 54.9519 224.516 54.9521 224.516C55.1081 224.485 55.2642 224.455 55.4206 224.424C56.4797 224.218 57.5529 224.009 58.6816 223.827C65.0367 222.819 71.0366 224.18 74.7511 227.391Z" stroke="white"/>
<path d="M32.4545 128.18C31.4825 128.18 30.5705 128 29.7185 127.64C28.8785 127.268 28.1405 126.758 27.5045 126.11C26.8805 125.45 26.3885 124.682 26.0285 123.806C25.6805 122.93 25.5065 121.982 25.5065 120.962C25.5065 119.954 25.6805 119.018 26.0285 118.154C26.3885 117.278 26.8805 116.516 27.5045 115.868C28.1405 115.208 28.8785 114.692 29.7185 114.32C30.5585 113.948 31.4705 113.762 32.4545 113.762C33.3785 113.762 34.1705 113.882 34.8305 114.122C35.5025 114.362 36.1745 114.758 36.8465 115.31C36.9905 115.43 37.0865 115.544 37.1345 115.652C37.1825 115.76 37.2065 115.892 37.2065 116.048C37.2065 116.276 37.1225 116.468 36.9545 116.624C36.7985 116.768 36.6065 116.852 36.3785 116.876C36.1505 116.888 35.9285 116.81 35.7125 116.642C35.2685 116.258 34.8065 115.964 34.3265 115.76C33.8585 115.556 33.2345 115.454 32.4545 115.454C31.7465 115.454 31.0805 115.598 30.4565 115.886C29.8325 116.174 29.2805 116.57 28.8005 117.074C28.3325 117.578 27.9665 118.166 27.7025 118.838C27.4385 119.498 27.3065 120.206 27.3065 120.962C27.3065 121.73 27.4385 122.45 27.7025 123.122C27.9665 123.782 28.3325 124.364 28.8005 124.868C29.2805 125.372 29.8325 125.768 30.4565 126.056C31.0805 126.332 31.7465 126.47 32.4545 126.47C33.0665 126.47 33.6425 126.368 34.1825 126.164C34.7345 125.948 35.2625 125.654 35.7665 125.282C35.9825 125.126 36.1925 125.06 36.3965 125.084C36.6125 125.096 36.7925 125.18 36.9365 125.336C37.0805 125.48 37.1525 125.684 37.1525 125.948C37.1525 126.2 37.0565 126.422 36.8645 126.614C35.5685 127.658 34.0985 128.18 32.4545 128.18ZM40.8847 128.018C40.6207 128.018 40.3987 127.934 40.2187 127.766C40.0507 127.586 39.9667 127.364 39.9667 127.1V119.09C39.9667 118.814 40.0507 118.592 40.2187 118.424C40.3987 118.256 40.6207 118.172 40.8847 118.172C41.1607 118.172 41.3827 118.256 41.5507 118.424C41.7187 118.592 41.8027 118.802 41.8027 119.054C42.1147 118.742 42.4867 118.502 42.9187 118.334C43.3507 118.154 43.8187 118.064 44.3227 118.064C45.5827 118.064 46.5307 118.538 47.1667 119.486C47.5147 119.042 47.9587 118.694 48.4987 118.442C49.0387 118.19 49.6447 118.064 50.3167 118.064C51.3487 118.064 52.1887 118.4 52.8367 119.072C53.4847 119.744 53.8087 120.704 53.8087 121.952V127.1C53.8087 127.364 53.7247 127.586 53.5567 127.766C53.3887 127.934 53.1667 128.018 52.8907 128.018C52.6267 128.018 52.4047 127.934 52.2247 127.766C52.0567 127.586 51.9727 127.364 51.9727 127.1V121.952C51.9727 121.196 51.7867 120.638 51.4147 120.278C51.0427 119.906 50.5567 119.72 49.9567 119.72C49.3327 119.72 48.8167 119.936 48.4087 120.368C48.0127 120.8 47.8147 121.352 47.8147 122.024V127.1C47.8147 127.364 47.7307 127.586 47.5627 127.766C47.3947 127.934 47.1727 128.018 46.8967 128.018C46.6327 128.018 46.4107 127.934 46.2307 127.766C46.0627 127.586 45.9787 127.364 45.9787 127.1V121.952C45.9787 121.196 45.7927 120.638 45.4207 120.278C45.0487 119.906 44.5627 119.72 43.9627 119.72C43.3387 119.72 42.8227 119.936 42.4147 120.368C42.0067 120.8 41.8027 121.352 41.8027 122.024V127.1C41.8027 127.364 41.7187 127.586 41.5507 127.766C41.3827 127.934 41.1607 128.018 40.8847 128.018ZM62.7633 128.18C61.9833 128.18 61.2753 128.006 60.6393 127.658C60.0153 127.31 59.5233 126.836 59.1633 126.236C58.8033 125.636 58.6233 124.958 58.6233 124.202L58.6413 119.846H56.4453C56.1933 119.846 55.9893 119.768 55.8333 119.612C55.6773 119.456 55.5993 119.252 55.5993 119C55.5993 118.748 55.6773 118.544 55.8333 118.388C55.9893 118.232 56.1933 118.154 56.4453 118.154H59.5593C59.8353 118.154 60.0573 118.238 60.2253 118.406C60.3933 118.574 60.4773 118.796 60.4773 119.072L60.4593 121.088H62.7813C63.5493 121.088 64.2333 121.214 64.8333 121.466C65.4333 121.706 65.9073 122.078 66.2553 122.582C66.6153 123.086 66.7953 123.722 66.7953 124.49C66.7953 125.246 66.6153 125.9 66.2553 126.452C65.9073 127.004 65.4273 127.43 64.8153 127.73C64.2153 128.03 63.5313 128.18 62.7633 128.18ZM62.7633 126.47C63.4113 126.47 63.9513 126.308 64.3833 125.984C64.8153 125.648 65.0313 125.15 65.0313 124.49C65.0313 123.866 64.8153 123.404 64.3833 123.104C63.9513 122.792 63.4173 122.636 62.7813 122.636H60.4593V124.166C60.4593 124.826 60.6753 125.378 61.1073 125.822C61.5513 126.254 62.1033 126.47 62.7633 126.47ZM70.1347 128.018C69.8707 128.018 69.6487 127.934 69.4687 127.766C69.3007 127.586 69.2167 127.364 69.2167 127.1V119.072C69.2167 118.796 69.3007 118.574 69.4687 118.406C69.6487 118.238 69.8707 118.154 70.1347 118.154C70.4107 118.154 70.6327 118.238 70.8007 118.406C70.9687 118.574 71.0527 118.796 71.0527 119.072V119.27C71.4247 118.898 71.8747 118.604 72.4027 118.388C72.9307 118.172 73.5007 118.064 74.1127 118.064C74.9407 118.064 75.6787 118.244 76.3267 118.604C76.9867 118.952 77.5027 119.468 77.8747 120.152C78.2587 120.836 78.4507 121.676 78.4507 122.672V127.1C78.4507 127.364 78.3607 127.586 78.1807 127.766C78.0127 127.934 77.7967 128.018 77.5327 128.018C77.2687 128.018 77.0467 127.934 76.8667 127.766C76.6987 127.586 76.6147 127.364 76.6147 127.1V122.672C76.6147 121.652 76.3387 120.908 75.7867 120.44C75.2467 119.96 74.5687 119.72 73.7527 119.72C73.2487 119.72 72.7927 119.822 72.3847 120.026C71.9767 120.23 71.6527 120.506 71.4127 120.854C71.1727 121.19 71.0527 121.58 71.0527 122.024V127.1C71.0527 127.364 70.9687 127.586 70.8007 127.766C70.6327 127.934 70.4107 128.018 70.1347 128.018ZM82.3502 128.018C82.0862 128.018 81.8762 127.934 81.7202 127.766C81.5642 127.586 81.4862 127.364 81.4862 127.1V119.072C81.4862 118.796 81.5642 118.574 81.7202 118.406C81.8762 118.238 82.0862 118.154 82.3502 118.154C82.6262 118.154 82.8482 118.238 83.0162 118.406C83.1962 118.574 83.2862 118.796 83.2862 119.072V122.078H84.6542L87.9122 118.442C88.0682 118.274 88.2842 118.178 88.5602 118.154C88.8482 118.13 89.0702 118.19 89.2262 118.334C89.4062 118.502 89.5082 118.694 89.5322 118.91C89.5562 119.114 89.4902 119.3 89.3342 119.468L86.0762 122.96L89.5322 126.668C89.6882 126.824 89.7662 127.01 89.7662 127.226C89.7662 127.43 89.6702 127.616 89.4782 127.784C89.3222 127.928 89.1002 128 88.8122 128C88.5362 127.988 88.3202 127.904 88.1642 127.748L84.4562 123.77H83.2862V127.1C83.2862 127.364 83.1962 127.586 83.0162 127.766C82.8482 127.934 82.6262 128.018 82.3502 128.018ZM95.223 128.072C94.347 128.072 93.561 127.856 92.865 127.424C92.169 126.98 91.617 126.386 91.209 125.642C90.813 124.886 90.615 124.034 90.615 123.086C90.615 122.138 90.831 121.286 91.263 120.53C91.707 119.774 92.301 119.18 93.045 118.748C93.801 118.304 94.647 118.082 95.583 118.082C96.519 118.082 97.359 118.304 98.103 118.748C98.847 119.18 99.435 119.774 99.867 120.53C100.311 121.286 100.533 122.138 100.533 123.086V127.1C100.533 127.364 100.443 127.586 100.263 127.766C100.095 127.934 99.879 128.018 99.615 128.018C99.351 128.018 99.129 127.934 98.949 127.766C98.781 127.586 98.697 127.364 98.697 127.1V126.434C98.277 126.938 97.767 127.34 97.167 127.64C96.579 127.928 95.931 128.072 95.223 128.072ZM95.583 126.452C96.195 126.452 96.741 126.308 97.221 126.02C97.701 125.72 98.079 125.318 98.355 124.814C98.631 124.298 98.769 123.722 98.769 123.086C98.769 122.438 98.631 121.862 98.355 121.358C98.079 120.842 97.701 120.44 97.221 120.152C96.741 119.852 96.195 119.702 95.583 119.702C94.983 119.702 94.437 119.852 93.945 120.152C93.465 120.44 93.081 120.842 92.793 121.358C92.517 121.862 92.379 122.438 92.379 123.086C92.379 123.722 92.517 124.298 92.793 124.814C93.081 125.318 93.465 125.72 93.945 126.02C94.437 126.308 94.983 126.452 95.583 126.452Z" fill="#60FEB2"/>
<path d="M55.16 172.2C53.0267 172.2 51.12 171.627 49.44 170.48C47.7867 169.307 46.4933 167.653 45.56 165.52C44.6533 163.387 44.2 160.88 44.2 158C44.2 155.12 44.6533 152.613 45.56 150.48C46.4933 148.347 47.7867 146.707 49.44 145.56C51.12 144.387 53.0267 143.8 55.16 143.8C57.2933 143.8 59.1867 144.387 60.84 145.56C62.52 146.707 63.8133 148.347 64.72 150.48C65.6533 152.613 66.12 155.12 66.12 158C66.12 160.88 65.6533 163.387 64.72 165.52C63.8133 167.653 62.52 169.307 60.84 170.48C59.1867 171.627 57.2933 172.2 55.16 172.2ZM55.16 170.32C56.92 170.32 58.4667 169.84 59.8 168.88C61.16 167.893 62.2133 166.48 62.96 164.64C63.7067 162.773 64.08 160.56 64.08 158C64.08 155.44 63.7067 153.24 62.96 151.4C62.2133 149.533 61.16 148.12 59.8 147.16C58.4667 146.173 56.92 145.68 55.16 145.68C53.4 145.68 51.84 146.173 50.48 147.16C49.1467 148.12 48.1067 149.533 47.36 151.4C46.6133 153.24 46.24 155.44 46.24 158C46.24 160.56 46.6133 162.773 47.36 164.64C48.1067 166.48 49.1467 167.893 50.48 168.88C51.84 169.84 53.4 170.32 55.16 170.32ZM77.5291 144V172H75.4891V145.84H68.6491V144H77.5291Z" fill="#60FEB2"/>
<path opacity="0.5" d="M467.454 265.18C466.482 265.18 465.57 265 464.718 264.64C463.878 264.268 463.14 263.758 462.504 263.11C461.88 262.45 461.388 261.682 461.028 260.806C460.68 259.93 460.506 258.982 460.506 257.962C460.506 256.954 460.68 256.018 461.028 255.154C461.388 254.278 461.88 253.516 462.504 252.868C463.14 252.208 463.878 251.692 464.718 251.32C465.558 250.948 466.47 250.762 467.454 250.762C468.378 250.762 469.17 250.882 469.83 251.122C470.502 251.362 471.174 251.758 471.846 252.31C471.99 252.43 472.086 252.544 472.134 252.652C472.182 252.76 472.206 252.892 472.206 253.048C472.206 253.276 472.122 253.468 471.954 253.624C471.798 253.768 471.606 253.852 471.378 253.876C471.15 253.888 470.928 253.81 470.712 253.642C470.268 253.258 469.806 252.964 469.326 252.76C468.858 252.556 468.234 252.454 467.454 252.454C466.746 252.454 466.08 252.598 465.456 252.886C464.832 253.174 464.28 253.57 463.8 254.074C463.332 254.578 462.966 255.166 462.702 255.838C462.438 256.498 462.306 257.206 462.306 257.962C462.306 258.73 462.438 259.45 462.702 260.122C462.966 260.782 463.332 261.364 463.8 261.868C464.28 262.372 464.832 262.768 465.456 263.056C466.08 263.332 466.746 263.47 467.454 263.47C468.066 263.47 468.642 263.368 469.182 263.164C469.734 262.948 470.262 262.654 470.766 262.282C470.982 262.126 471.192 262.06 471.396 262.084C471.612 262.096 471.792 262.18 471.936 262.336C472.08 262.48 472.152 262.684 472.152 262.948C472.152 263.2 472.056 263.422 471.864 263.614C470.568 264.658 469.098 265.18 467.454 265.18ZM475.885 265.018C475.621 265.018 475.399 264.934 475.219 264.766C475.051 264.586 474.967 264.364 474.967 264.1V256.09C474.967 255.814 475.051 255.592 475.219 255.424C475.399 255.256 475.621 255.172 475.885 255.172C476.161 255.172 476.383 255.256 476.551 255.424C476.719 255.592 476.803 255.802 476.803 256.054C477.115 255.742 477.487 255.502 477.919 255.334C478.351 255.154 478.819 255.064 479.323 255.064C480.583 255.064 481.531 255.538 482.167 256.486C482.515 256.042 482.959 255.694 483.499 255.442C484.039 255.19 484.645 255.064 485.317 255.064C486.349 255.064 487.189 255.4 487.837 256.072C488.485 256.744 488.809 257.704 488.809 258.952V264.1C488.809 264.364 488.725 264.586 488.557 264.766C488.389 264.934 488.167 265.018 487.891 265.018C487.627 265.018 487.405 264.934 487.225 264.766C487.057 264.586 486.973 264.364 486.973 264.1V258.952C486.973 258.196 486.787 257.638 486.415 257.278C486.043 256.906 485.557 256.72 484.957 256.72C484.333 256.72 483.817 256.936 483.409 257.368C483.013 257.8 482.815 258.352 482.815 259.024V264.1C482.815 264.364 482.731 264.586 482.563 264.766C482.395 264.934 482.173 265.018 481.897 265.018C481.633 265.018 481.411 264.934 481.231 264.766C481.063 264.586 480.979 264.364 480.979 264.1V258.952C480.979 258.196 480.793 257.638 480.421 257.278C480.049 256.906 479.563 256.72 478.963 256.72C478.339 256.72 477.823 256.936 477.415 257.368C477.007 257.8 476.803 258.352 476.803 259.024V264.1C476.803 264.364 476.719 264.586 476.551 264.766C476.383 264.934 476.161 265.018 475.885 265.018ZM497.763 265.18C496.983 265.18 496.275 265.006 495.639 264.658C495.015 264.31 494.523 263.836 494.163 263.236C493.803 262.636 493.623 261.958 493.623 261.202L493.641 256.846H491.445C491.193 256.846 490.989 256.768 490.833 256.612C490.677 256.456 490.599 256.252 490.599 256C490.599 255.748 490.677 255.544 490.833 255.388C490.989 255.232 491.193 255.154 491.445 255.154H494.559C494.835 255.154 495.057 255.238 495.225 255.406C495.393 255.574 495.477 255.796 495.477 256.072L495.459 258.088H497.781C498.549 258.088 499.233 258.214 499.833 258.466C500.433 258.706 500.907 259.078 501.255 259.582C501.615 260.086 501.795 260.722 501.795 261.49C501.795 262.246 501.615 262.9 501.255 263.452C500.907 264.004 500.427 264.43 499.815 264.73C499.215 265.03 498.531 265.18 497.763 265.18ZM497.763 263.47C498.411 263.47 498.951 263.308 499.383 262.984C499.815 262.648 500.031 262.15 500.031 261.49C500.031 260.866 499.815 260.404 499.383 260.104C498.951 259.792 498.417 259.636 497.781 259.636H495.459V261.166C495.459 261.826 495.675 262.378 496.107 262.822C496.551 263.254 497.103 263.47 497.763 263.47ZM505.135 265.018C504.871 265.018 504.649 264.934 504.469 264.766C504.301 264.586 504.217 264.364 504.217 264.1V256.072C504.217 255.796 504.301 255.574 504.469 255.406C504.649 255.238 504.871 255.154 505.135 255.154C505.411 255.154 505.633 255.238 505.801 255.406C505.969 255.574 506.053 255.796 506.053 256.072V256.27C506.425 255.898 506.875 255.604 507.403 255.388C507.931 255.172 508.501 255.064 509.113 255.064C509.941 255.064 510.679 255.244 511.327 255.604C511.987 255.952 512.503 256.468 512.875 257.152C513.259 257.836 513.451 258.676 513.451 259.672V264.1C513.451 264.364 513.361 264.586 513.181 264.766C513.013 264.934 512.797 265.018 512.533 265.018C512.269 265.018 512.047 264.934 511.867 264.766C511.699 264.586 511.615 264.364 511.615 264.1V259.672C511.615 258.652 511.339 257.908 510.787 257.44C510.247 256.96 509.569 256.72 508.753 256.72C508.249 256.72 507.793 256.822 507.385 257.026C506.977 257.23 506.653 257.506 506.413 257.854C506.173 258.19 506.053 258.58 506.053 259.024V264.1C506.053 264.364 505.969 264.586 505.801 264.766C505.633 264.934 505.411 265.018 505.135 265.018ZM517.35 265.018C517.086 265.018 516.876 264.934 516.72 264.766C516.564 264.586 516.486 264.364 516.486 264.1V256.072C516.486 255.796 516.564 255.574 516.72 255.406C516.876 255.238 517.086 255.154 517.35 255.154C517.626 255.154 517.848 255.238 518.016 255.406C518.196 255.574 518.286 255.796 518.286 256.072V259.078H519.654L522.912 255.442C523.068 255.274 523.284 255.178 523.56 255.154C523.848 255.13 524.07 255.19 524.226 255.334C524.406 255.502 524.508 255.694 524.532 255.91C524.556 256.114 524.49 256.3 524.334 256.468L521.076 259.96L524.532 263.668C524.688 263.824 524.766 264.01 524.766 264.226C524.766 264.43 524.67 264.616 524.478 264.784C524.322 264.928 524.1 265 523.812 265C523.536 264.988 523.32 264.904 523.164 264.748L519.456 260.77H518.286V264.1C518.286 264.364 518.196 264.586 518.016 264.766C517.848 264.934 517.626 265.018 517.35 265.018ZM530.223 265.072C529.347 265.072 528.561 264.856 527.865 264.424C527.169 263.98 526.617 263.386 526.209 262.642C525.813 261.886 525.615 261.034 525.615 260.086C525.615 259.138 525.831 258.286 526.263 257.53C526.707 256.774 527.301 256.18 528.045 255.748C528.801 255.304 529.647 255.082 530.583 255.082C531.519 255.082 532.359 255.304 533.103 255.748C533.847 256.18 534.435 256.774 534.867 257.53C535.311 258.286 535.533 259.138 535.533 260.086V264.1C535.533 264.364 535.443 264.586 535.263 264.766C535.095 264.934 534.879 265.018 534.615 265.018C534.351 265.018 534.129 264.934 533.949 264.766C533.781 264.586 533.697 264.364 533.697 264.1V263.434C533.277 263.938 532.767 264.34 532.167 264.64C531.579 264.928 530.931 265.072 530.223 265.072ZM530.583 263.452C531.195 263.452 531.741 263.308 532.221 263.02C532.701 262.72 533.079 262.318 533.355 261.814C533.631 261.298 533.769 260.722 533.769 260.086C533.769 259.438 533.631 258.862 533.355 258.358C533.079 257.842 532.701 257.44 532.221 257.152C531.741 256.852 531.195 256.702 530.583 256.702C529.983 256.702 529.437 256.852 528.945 257.152C528.465 257.44 528.081 257.842 527.793 258.358C527.517 258.862 527.379 259.438 527.379 260.086C527.379 260.722 527.517 261.298 527.793 261.814C528.081 262.318 528.465 262.72 528.945 263.02C529.437 263.308 529.983 263.452 530.583 263.452Z" fill="white"/>
<path d="M486.246 304.2C484.113 304.2 482.206 303.627 480.526 302.48C478.873 301.307 477.579 299.654 476.646 297.52C475.739 295.387 475.286 292.88 475.286 290C475.286 287.12 475.739 284.614 476.646 282.48C477.579 280.347 478.873 278.707 480.526 277.56C482.206 276.387 484.113 275.8 486.246 275.8C488.379 275.8 490.273 276.387 491.926 277.56C493.606 278.707 494.899 280.347 495.806 282.48C496.739 284.614 497.206 287.12 497.206 290C497.206 292.88 496.739 295.387 495.806 297.52C494.899 299.654 493.606 301.307 491.926 302.48C490.273 303.627 488.379 304.2 486.246 304.2ZM486.246 302.32C488.006 302.32 489.553 301.84 490.886 300.88C492.246 299.894 493.299 298.48 494.046 296.64C494.793 294.774 495.166 292.56 495.166 290C495.166 287.44 494.793 285.24 494.046 283.4C493.299 281.534 492.246 280.12 490.886 279.16C489.553 278.174 488.006 277.68 486.246 277.68C484.486 277.68 482.926 278.174 481.566 279.16C480.233 280.12 479.193 281.534 478.446 283.4C477.699 285.24 477.326 287.44 477.326 290C477.326 292.56 477.699 294.774 478.446 296.64C479.193 298.48 480.233 299.894 481.566 300.88C482.926 301.84 484.486 302.32 486.246 302.32ZM520.255 302.16V304H501.015V302.56L512.855 290.8C514.402 289.254 515.442 287.934 515.975 286.84C516.535 285.72 516.815 284.574 516.815 283.4C516.815 281.614 516.202 280.214 514.975 279.2C513.775 278.187 512.028 277.68 509.735 277.68C507.975 277.68 506.428 277.947 505.095 278.48C503.788 279.014 502.655 279.827 501.695 280.92L500.255 279.64C501.322 278.414 502.668 277.467 504.295 276.8C505.948 276.134 507.815 275.8 509.895 275.8C512.642 275.8 514.828 276.467 516.455 277.8C518.082 279.134 518.895 280.934 518.895 283.2C518.895 284.64 518.575 286.014 517.935 287.32C517.295 288.627 516.095 290.147 514.335 291.88L504.015 302.16H520.255Z" fill="white"/>
<path d="M496.086 133.021L496.087 133.021C503.235 132.179 510.187 132.844 516.947 135.397C520.99 136.948 524.595 139.13 527.804 142.076C533.746 147.538 537.695 154.305 540.65 161.815L540.652 161.819C543.963 170.176 545.869 178.873 546.794 187.815C547.579 195.421 547.617 202.98 546.099 210.445L546.098 210.454C545.136 215.323 543.625 219.89 540.887 223.889L540.885 223.892C538.328 227.644 534.913 230.34 530.725 232.164L530.725 232.164C525.834 234.295 520.606 235.148 515.164 235.461L515.156 235.461C507.714 235.931 500.294 235.317 492.832 234.335C484.985 233.265 477.242 232.011 469.766 229.811L469.765 229.811C463.649 228.014 457.884 225.815 452.849 222.159L452.843 222.155C447.294 218.162 444.287 212.845 443.618 206.04L443.618 206.038C443.045 200.274 443.903 194.629 445.412 188.973L445.412 188.971C448.715 176.517 453.901 164.927 461.187 154.302C462.477 152.473 463.9 150.805 465.381 149.07C466.12 148.204 466.873 147.322 467.632 146.394C475.57 138.642 485.106 134.309 496.086 133.021Z" fill="#035E8D" stroke="#37A5DE" stroke-width="3"/>
<g clip-path="url(#clip0)">
<path d="M519.851 202.988C521.987 201.136 523.122 198.889 522.987 196.704C522.878 194.753 521.511 192.889 519.168 191.445C515.189 189.013 507.891 187.766 501.264 190.778C496.859 192.79 494.918 193.334 490.427 191.58C487.608 190.482 484.789 190.692 482.678 192.148C480.871 193.395 479.785 195.469 479.785 197.679V197.692C479.785 199.729 480.469 201.42 481.811 202.679C483.593 204.371 486.534 205.198 489.878 204.976C493.429 204.729 496.444 205.334 499.629 205.963C500.825 206.21 502.07 206.457 503.376 206.655C509.832 207.704 515.995 206.321 519.851 202.988Z" fill="#158FCE"/>
<path d="M512.751 169.391L512.752 169.392C514.808 171.163 515.837 173.27 515.715 175.266C515.607 177.007 514.398 178.746 512.123 180.129L512.121 180.13C508.275 182.493 501.152 183.719 494.687 180.768C492.488 179.764 490.833 179.09 489.145 178.912C487.437 178.732 485.745 179.063 483.46 179.955C480.765 181.005 478.126 180.786 476.177 179.442C474.505 178.275 473.5 176.366 473.5 174.322V174.309C473.5 172.382 474.137 170.84 475.38 169.674L475.38 169.674L475.382 169.672C477.03 168.108 479.813 167.283 483.07 167.512L483.07 167.512C486.655 167.761 489.702 167.158 492.842 166.538L492.951 166.516C492.952 166.516 492.952 166.516 492.952 166.516C493.108 166.486 493.264 166.455 493.421 166.425C494.48 166.218 495.553 166.009 496.682 165.828C503.037 164.819 509.037 166.181 512.751 169.391Z" stroke="#5983CA"/>
</g>
<path opacity="0.5" d="M870.454 16.18C869.482 16.18 868.57 16 867.718 15.64C866.878 15.268 866.14 14.758 865.504 14.11C864.88 13.45 864.388 12.682 864.028 11.806C863.68 10.93 863.506 9.982 863.506 8.962C863.506 7.954 863.68 7.018 864.028 6.154C864.388 5.278 864.88 4.516 865.504 3.868C866.14 3.208 866.878 2.692 867.718 2.32C868.558 1.948 869.47 1.762 870.454 1.762C871.378 1.762 872.17 1.882 872.83 2.122C873.502 2.362 874.174 2.758 874.846 3.31C874.99 3.43 875.086 3.544 875.134 3.652C875.182 3.76 875.206 3.892 875.206 4.048C875.206 4.276 875.122 4.468 874.954 4.624C874.798 4.768 874.606 4.852 874.378 4.876C874.15 4.888 873.928 4.81 873.712 4.642C873.268 4.258 872.806 3.964 872.326 3.76C871.858 3.556 871.234 3.454 870.454 3.454C869.746 3.454 869.08 3.598 868.456 3.886C867.832 4.174 867.28 4.57 866.8 5.074C866.332 5.578 865.966 6.166 865.702 6.838C865.438 7.498 865.306 8.206 865.306 8.962C865.306 9.73 865.438 10.45 865.702 11.122C865.966 11.782 866.332 12.364 866.8 12.868C867.28 13.372 867.832 13.768 868.456 14.056C869.08 14.332 869.746 14.47 870.454 14.47C871.066 14.47 871.642 14.368 872.182 14.164C872.734 13.948 873.262 13.654 873.766 13.282C873.982 13.126 874.192 13.06 874.396 13.084C874.612 13.096 874.792 13.18 874.936 13.336C875.08 13.48 875.152 13.684 875.152 13.948C875.152 14.2 875.056 14.422 874.864 14.614C873.568 15.658 872.098 16.18 870.454 16.18ZM878.885 16.018C878.621 16.018 878.399 15.934 878.219 15.766C878.051 15.586 877.967 15.364 877.967 15.1V7.09C877.967 6.814 878.051 6.592 878.219 6.424C878.399 6.256 878.621 6.172 878.885 6.172C879.161 6.172 879.383 6.256 879.551 6.424C879.719 6.592 879.803 6.802 879.803 7.054C880.115 6.742 880.487 6.502 880.919 6.334C881.351 6.154 881.819 6.064 882.323 6.064C883.583 6.064 884.531 6.538 885.167 7.486C885.515 7.042 885.959 6.694 886.499 6.442C887.039 6.19 887.645 6.064 888.317 6.064C889.349 6.064 890.189 6.4 890.837 7.072C891.485 7.744 891.809 8.704 891.809 9.952V15.1C891.809 15.364 891.725 15.586 891.557 15.766C891.389 15.934 891.167 16.018 890.891 16.018C890.627 16.018 890.405 15.934 890.225 15.766C890.057 15.586 889.973 15.364 889.973 15.1V9.952C889.973 9.196 889.787 8.638 889.415 8.278C889.043 7.906 888.557 7.72 887.957 7.72C887.333 7.72 886.817 7.936 886.409 8.368C886.013 8.8 885.815 9.352 885.815 10.024V15.1C885.815 15.364 885.731 15.586 885.563 15.766C885.395 15.934 885.173 16.018 884.897 16.018C884.633 16.018 884.411 15.934 884.231 15.766C884.063 15.586 883.979 15.364 883.979 15.1V9.952C883.979 9.196 883.793 8.638 883.421 8.278C883.049 7.906 882.563 7.72 881.963 7.72C881.339 7.72 880.823 7.936 880.415 8.368C880.007 8.8 879.803 9.352 879.803 10.024V15.1C879.803 15.364 879.719 15.586 879.551 15.766C879.383 15.934 879.161 16.018 878.885 16.018ZM900.763 16.18C899.983 16.18 899.275 16.006 898.639 15.658C898.015 15.31 897.523 14.836 897.163 14.236C896.803 13.636 896.623 12.958 896.623 12.202L896.641 7.846H894.445C894.193 7.846 893.989 7.768 893.833 7.612C893.677 7.456 893.599 7.252 893.599 7C893.599 6.748 893.677 6.544 893.833 6.388C893.989 6.232 894.193 6.154 894.445 6.154H897.559C897.835 6.154 898.057 6.238 898.225 6.406C898.393 6.574 898.477 6.796 898.477 7.072L898.459 9.088H900.781C901.549 9.088 902.233 9.214 902.833 9.466C903.433 9.706 903.907 10.078 904.255 10.582C904.615 11.086 904.795 11.722 904.795 12.49C904.795 13.246 904.615 13.9 904.255 14.452C903.907 15.004 903.427 15.43 902.815 15.73C902.215 16.03 901.531 16.18 900.763 16.18ZM900.763 14.47C901.411 14.47 901.951 14.308 902.383 13.984C902.815 13.648 903.031 13.15 903.031 12.49C903.031 11.866 902.815 11.404 902.383 11.104C901.951 10.792 901.417 10.636 900.781 10.636H898.459V12.166C898.459 12.826 898.675 13.378 899.107 13.822C899.551 14.254 900.103 14.47 900.763 14.47ZM908.135 16.018C907.871 16.018 907.649 15.934 907.469 15.766C907.301 15.586 907.217 15.364 907.217 15.1V7.072C907.217 6.796 907.301 6.574 907.469 6.406C907.649 6.238 907.871 6.154 908.135 6.154C908.411 6.154 908.633 6.238 908.801 6.406C908.969 6.574 909.053 6.796 909.053 7.072V7.27C909.425 6.898 909.875 6.604 910.403 6.388C910.931 6.172 911.501 6.064 912.113 6.064C912.941 6.064 913.679 6.244 914.327 6.604C914.987 6.952 915.503 7.468 915.875 8.152C916.259 8.836 916.451 9.676 916.451 10.672V15.1C916.451 15.364 916.361 15.586 916.181 15.766C916.013 15.934 915.797 16.018 915.533 16.018C915.269 16.018 915.047 15.934 914.867 15.766C914.699 15.586 914.615 15.364 914.615 15.1V10.672C914.615 9.652 914.339 8.908 913.787 8.44C913.247 7.96 912.569 7.72 911.753 7.72C911.249 7.72 910.793 7.822 910.385 8.026C909.977 8.23 909.653 8.506 909.413 8.854C909.173 9.19 909.053 9.58 909.053 10.024V15.1C909.053 15.364 908.969 15.586 908.801 15.766C908.633 15.934 908.411 16.018 908.135 16.018ZM920.35 16.018C920.086 16.018 919.876 15.934 919.72 15.766C919.564 15.586 919.486 15.364 919.486 15.1V7.072C919.486 6.796 919.564 6.574 919.72 6.406C919.876 6.238 920.086 6.154 920.35 6.154C920.626 6.154 920.848 6.238 921.016 6.406C921.196 6.574 921.286 6.796 921.286 7.072V10.078H922.654L925.912 6.442C926.068 6.274 926.284 6.178 926.56 6.154C926.848 6.13 927.07 6.19 927.226 6.334C927.406 6.502 927.508 6.694 927.532 6.91C927.556 7.114 927.49 7.3 927.334 7.468L924.076 10.96L927.532 14.668C927.688 14.824 927.766 15.01 927.766 15.226C927.766 15.43 927.67 15.616 927.478 15.784C927.322 15.928 927.1 16 926.812 16C926.536 15.988 926.32 15.904 926.164 15.748L922.456 11.77H921.286V15.1C921.286 15.364 921.196 15.586 921.016 15.766C920.848 15.934 920.626 16.018 920.35 16.018ZM933.223 16.072C932.347 16.072 931.561 15.856 930.865 15.424C930.169 14.98 929.617 14.386 929.209 13.642C928.813 12.886 928.615 12.034 928.615 11.086C928.615 10.138 928.831 9.286 929.263 8.53C929.707 7.774 930.301 7.18 931.045 6.748C931.801 6.304 932.647 6.082 933.583 6.082C934.519 6.082 935.359 6.304 936.103 6.748C936.847 7.18 937.435 7.774 937.867 8.53C938.311 9.286 938.533 10.138 938.533 11.086V15.1C938.533 15.364 938.443 15.586 938.263 15.766C938.095 15.934 937.879 16.018 937.615 16.018C937.351 16.018 937.129 15.934 936.949 15.766C936.781 15.586 936.697 15.364 936.697 15.1V14.434C936.277 14.938 935.767 15.34 935.167 15.64C934.579 15.928 933.931 16.072 933.223 16.072ZM933.583 14.452C934.195 14.452 934.741 14.308 935.221 14.02C935.701 13.72 936.079 13.318 936.355 12.814C936.631 12.298 936.769 11.722 936.769 11.086C936.769 10.438 936.631 9.862 936.355 9.358C936.079 8.842 935.701 8.44 935.221 8.152C934.741 7.852 934.195 7.702 933.583 7.702C932.983 7.702 932.437 7.852 931.945 8.152C931.465 8.44 931.081 8.842 930.793 9.358C930.517 9.862 930.379 10.438 930.379 11.086C930.379 11.722 930.517 12.298 930.793 12.814C931.081 13.318 931.465 13.72 931.945 14.02C932.437 14.308 932.983 14.452 933.583 14.452Z" fill="white"/>
<path d="M889.539 55.2C887.406 55.2 885.499 54.6267 883.819 53.48C882.166 52.3067 880.872 50.6533 879.939 48.52C879.032 46.3867 878.579 43.88 878.579 41C878.579 38.12 879.032 35.6133 879.939 33.48C880.872 31.3467 882.166 29.7067 883.819 28.56C885.499 27.3867 887.406 26.8 889.539 26.8C891.672 26.8 893.566 27.3867 895.219 28.56C896.899 29.7067 898.192 31.3467 899.099 33.48C900.032 35.6133 900.499 38.12 900.499 41C900.499 43.88 900.032 46.3867 899.099 48.52C898.192 50.6533 896.899 52.3067 895.219 53.48C893.566 54.6267 891.672 55.2 889.539 55.2ZM889.539 53.32C891.299 53.32 892.846 52.84 894.179 51.88C895.539 50.8933 896.592 49.48 897.339 47.64C898.086 45.7733 898.459 43.56 898.459 41C898.459 38.44 898.086 36.24 897.339 34.4C896.592 32.5333 895.539 31.12 894.179 30.16C892.846 29.1733 891.299 28.68 889.539 28.68C887.779 28.68 886.219 29.1733 884.859 30.16C883.526 31.12 882.486 32.5333 881.739 34.4C880.992 36.24 880.619 38.44 880.619 41C880.619 43.56 880.992 45.7733 881.739 47.64C882.486 49.48 883.526 50.8933 884.859 51.88C886.219 52.84 887.779 53.32 889.539 53.32ZM913.036 39.2C916.13 39.28 918.476 40.04 920.076 41.48C921.703 42.8933 922.516 44.7733 922.516 47.12C922.516 48.6933 922.143 50.0933 921.396 51.32C920.65 52.52 919.53 53.4667 918.036 54.16C916.57 54.8533 914.796 55.2 912.716 55.2C910.69 55.2 908.783 54.8667 906.996 54.2C905.21 53.5067 903.823 52.5867 902.836 51.44L903.876 49.88C904.783 50.8933 906.01 51.72 907.556 52.36C909.13 53 910.85 53.32 912.716 53.32C915.196 53.32 917.103 52.7733 918.436 51.68C919.77 50.56 920.436 49.04 920.436 47.12C920.436 45.1733 919.756 43.6533 918.396 42.56C917.036 41.4667 914.996 40.92 912.276 40.92H910.516V39.44L918.796 28.84H903.876V27H921.436V28.44L913.036 39.2Z" fill="white"/>
<path d="M909.822 195.464L909.821 195.464C903.351 196.003 897.06 194.97 890.83 192.961L890.828 192.96C882.416 190.261 874.752 186.155 867.742 180.769L867.741 180.768C862.807 176.987 858.376 172.615 854.472 167.763C851.552 164.095 849.034 160.168 847.025 155.959L847.022 155.954C841.491 144.478 839.849 132.455 842.013 119.847C843.066 113.853 844.945 108.176 848.017 102.948L848.019 102.943C850.469 98.7442 853.513 95.1989 857.545 92.5861C861.198 90.2353 865.274 89.0868 869.697 88.5747L869.7 88.5744C875.965 87.8364 882.204 88.4258 888.516 89.5143L888.517 89.5145C892.715 90.2354 896.889 91.0717 901.086 91.9128C903.196 92.3356 905.312 92.7596 907.44 93.1708L907.442 93.1711C910.552 93.7683 913.678 94.356 916.801 94.9431L916.804 94.9436C919.928 95.531 923.05 96.1178 926.154 96.7138C926.731 96.8253 927.306 96.9357 927.881 97.0459C934.038 98.2268 940.057 99.3812 945.778 101.615L945.779 101.615C948.403 102.637 950.802 103.772 952.77 105.483C953.3 105.967 953.8 106.506 954.323 107.093C954.46 107.246 954.601 107.405 954.744 107.568C955.089 107.958 955.45 108.368 955.818 108.763C957.106 111.346 957.319 114.119 957.151 117.142C956.878 121.761 955.695 126.276 953.992 130.623C949.246 142.573 944.327 154.452 939.372 166.359C937.173 171.604 934.756 176.678 931.695 181.394C929.427 184.88 926.8 187.998 923.561 190.482C919.535 193.533 914.909 195.042 909.822 195.464Z" fill="#035E8D" stroke="#37A5DE" stroke-width="3"/>
<path d="M922.488 147.732L922.488 147.734C922.61 149.718 921.582 151.825 919.524 153.609C915.809 156.82 909.809 158.193 903.456 157.161L903.456 157.161L903.45 157.16C902.158 156.964 900.924 156.72 899.73 156.473L899.726 156.472L899.615 156.45C896.475 155.83 893.428 155.227 889.844 155.476C886.585 155.693 883.802 154.879 882.155 153.316L882.153 153.314C880.923 152.161 880.285 150.608 880.285 148.691V148.679C880.285 146.632 881.291 144.713 882.961 143.56C884.911 142.215 887.55 141.995 890.246 143.046C892.53 143.938 894.223 144.268 895.93 144.088C897.618 143.91 899.273 143.237 901.471 142.233C907.937 139.294 915.059 140.519 918.906 142.871C921.174 144.269 922.391 146.008 922.488 147.732Z" stroke="#5983CA"/>
<path d="M916.215 126.297C916.349 124.099 915.214 121.852 913.078 120.013C909.222 116.679 903.059 115.309 896.603 116.334C895.297 116.544 894.064 116.79 892.856 117.025C889.671 117.655 886.656 118.26 883.105 118.013C879.761 117.778 876.82 118.618 875.038 120.309C873.683 121.581 873 123.26 873 125.309V125.321C873 127.531 874.086 129.593 875.892 130.852C878.004 132.309 880.823 132.519 883.642 131.42C888.133 129.667 890.073 130.21 894.479 132.223C901.106 135.247 908.404 134 912.382 131.556C914.738 130.124 916.093 128.26 916.215 126.297Z" fill="#158FCE"/>
<defs>
<clipPath id="clip0">
<rect width="50" height="42" fill="white" transform="translate(473 165)"/>
</clipPath>
</defs>
</svg>
