<svg width="350" height="96" viewBox="0 0 350 96" fill="none" xmlns="http://www.w3.org/2000/svg">
<path opacity="0.5" d="M140.454 52.178C139.482 52.178 138.57 51.998 137.718 51.638C136.878 51.266 136.14 50.756 135.504 50.108C134.88 49.448 134.388 48.68 134.028 47.804C133.68 46.928 133.506 45.98 133.506 44.96C133.506 43.952 133.68 43.016 134.028 42.152C134.388 41.276 134.88 40.514 135.504 39.866C136.14 39.206 136.878 38.69 137.718 38.318C138.558 37.946 139.47 37.76 140.454 37.76C141.378 37.76 142.17 37.88 142.83 38.12C143.502 38.36 144.174 38.756 144.846 39.308C144.99 39.428 145.086 39.542 145.134 39.65C145.182 39.758 145.206 39.89 145.206 40.046C145.206 40.274 145.122 40.466 144.954 40.622C144.798 40.766 144.606 40.85 144.378 40.874C144.15 40.886 143.928 40.808 143.712 40.64C143.268 40.256 142.806 39.962 142.326 39.758C141.858 39.554 141.234 39.452 140.454 39.452C139.746 39.452 139.08 39.596 138.456 39.884C137.832 40.172 137.28 40.568 136.8 41.072C136.332 41.576 135.966 42.164 135.702 42.836C135.438 43.496 135.306 44.204 135.306 44.96C135.306 45.728 135.438 46.448 135.702 47.12C135.966 47.78 136.332 48.362 136.8 48.866C137.28 49.37 137.832 49.766 138.456 50.054C139.08 50.33 139.746 50.468 140.454 50.468C141.066 50.468 141.642 50.366 142.182 50.162C142.734 49.946 143.262 49.652 143.766 49.28C143.982 49.124 144.192 49.058 144.396 49.082C144.612 49.094 144.792 49.178 144.936 49.334C145.08 49.478 145.152 49.682 145.152 49.946C145.152 50.198 145.056 50.42 144.864 50.612C143.568 51.656 142.098 52.178 140.454 52.178ZM148.885 52.016C148.621 52.016 148.399 51.932 148.219 51.764C148.051 51.584 147.967 51.362 147.967 51.098V43.088C147.967 42.812 148.051 42.59 148.219 42.422C148.399 42.254 148.621 42.17 148.885 42.17C149.161 42.17 149.383 42.254 149.551 42.422C149.719 42.59 149.803 42.8 149.803 43.052C150.115 42.74 150.487 42.5 150.919 42.332C151.351 42.152 151.819 42.062 152.323 42.062C153.583 42.062 154.531 42.536 155.167 43.484C155.515 43.04 155.959 42.692 156.499 42.44C157.039 42.188 157.645 42.062 158.317 42.062C159.349 42.062 160.189 42.398 160.837 43.07C161.485 43.742 161.809 44.702 161.809 45.95V51.098C161.809 51.362 161.725 51.584 161.557 51.764C161.389 51.932 161.167 52.016 160.891 52.016C160.627 52.016 160.405 51.932 160.225 51.764C160.057 51.584 159.973 51.362 159.973 51.098V45.95C159.973 45.194 159.787 44.636 159.415 44.276C159.043 43.904 158.557 43.718 157.957 43.718C157.333 43.718 156.817 43.934 156.409 44.366C156.013 44.798 155.815 45.35 155.815 46.022V51.098C155.815 51.362 155.731 51.584 155.563 51.764C155.395 51.932 155.173 52.016 154.897 52.016C154.633 52.016 154.411 51.932 154.231 51.764C154.063 51.584 153.979 51.362 153.979 51.098V45.95C153.979 45.194 153.793 44.636 153.421 44.276C153.049 43.904 152.563 43.718 151.963 43.718C151.339 43.718 150.823 43.934 150.415 44.366C150.007 44.798 149.803 45.35 149.803 46.022V51.098C149.803 51.362 149.719 51.584 149.551 51.764C149.383 51.932 149.161 52.016 148.885 52.016ZM170.763 52.178C169.983 52.178 169.275 52.004 168.639 51.656C168.015 51.308 167.523 50.834 167.163 50.234C166.803 49.634 166.623 48.956 166.623 48.2L166.641 43.844H164.445C164.193 43.844 163.989 43.766 163.833 43.61C163.677 43.454 163.599 43.25 163.599 42.998C163.599 42.746 163.677 42.542 163.833 42.386C163.989 42.23 164.193 42.152 164.445 42.152H167.559C167.835 42.152 168.057 42.236 168.225 42.404C168.393 42.572 168.477 42.794 168.477 43.07L168.459 45.086H170.781C171.549 45.086 172.233 45.212 172.833 45.464C173.433 45.704 173.907 46.076 174.255 46.58C174.615 47.084 174.795 47.72 174.795 48.488C174.795 49.244 174.615 49.898 174.255 50.45C173.907 51.002 173.427 51.428 172.815 51.728C172.215 52.028 171.531 52.178 170.763 52.178ZM170.763 50.468C171.411 50.468 171.951 50.306 172.383 49.982C172.815 49.646 173.031 49.148 173.031 48.488C173.031 47.864 172.815 47.402 172.383 47.102C171.951 46.79 171.417 46.634 170.781 46.634H168.459V48.164C168.459 48.824 168.675 49.376 169.107 49.82C169.551 50.252 170.103 50.468 170.763 50.468ZM178.135 52.016C177.871 52.016 177.649 51.932 177.469 51.764C177.301 51.584 177.217 51.362 177.217 51.098V43.07C177.217 42.794 177.301 42.572 177.469 42.404C177.649 42.236 177.871 42.152 178.135 42.152C178.411 42.152 178.633 42.236 178.801 42.404C178.969 42.572 179.053 42.794 179.053 43.07V43.268C179.425 42.896 179.875 42.602 180.403 42.386C180.931 42.17 181.501 42.062 182.113 42.062C182.941 42.062 183.679 42.242 184.327 42.602C184.987 42.95 185.503 43.466 185.875 44.15C186.259 44.834 186.451 45.674 186.451 46.67V51.098C186.451 51.362 186.361 51.584 186.181 51.764C186.013 51.932 185.797 52.016 185.533 52.016C185.269 52.016 185.047 51.932 184.867 51.764C184.699 51.584 184.615 51.362 184.615 51.098V46.67C184.615 45.65 184.339 44.906 183.787 44.438C183.247 43.958 182.569 43.718 181.753 43.718C181.249 43.718 180.793 43.82 180.385 44.024C179.977 44.228 179.653 44.504 179.413 44.852C179.173 45.188 179.053 45.578 179.053 46.022V51.098C179.053 51.362 178.969 51.584 178.801 51.764C178.633 51.932 178.411 52.016 178.135 52.016ZM190.35 52.016C190.086 52.016 189.876 51.932 189.72 51.764C189.564 51.584 189.486 51.362 189.486 51.098V43.07C189.486 42.794 189.564 42.572 189.72 42.404C189.876 42.236 190.086 42.152 190.35 42.152C190.626 42.152 190.848 42.236 191.016 42.404C191.196 42.572 191.286 42.794 191.286 43.07V46.076H192.654L195.912 42.44C196.068 42.272 196.284 42.176 196.56 42.152C196.848 42.128 197.07 42.188 197.226 42.332C197.406 42.5 197.508 42.692 197.532 42.908C197.556 43.112 197.49 43.298 197.334 43.466L194.076 46.958L197.532 50.666C197.688 50.822 197.766 51.008 197.766 51.224C197.766 51.428 197.67 51.614 197.478 51.782C197.322 51.926 197.1 51.998 196.812 51.998C196.536 51.986 196.32 51.902 196.164 51.746L192.456 47.768H191.286V51.098C191.286 51.362 191.196 51.584 191.016 51.764C190.848 51.932 190.626 52.016 190.35 52.016ZM203.223 52.07C202.347 52.07 201.561 51.854 200.865 51.422C200.169 50.978 199.617 50.384 199.209 49.64C198.813 48.884 198.615 48.032 198.615 47.084C198.615 46.136 198.831 45.284 199.263 44.528C199.707 43.772 200.301 43.178 201.045 42.746C201.801 42.302 202.647 42.08 203.583 42.08C204.519 42.08 205.359 42.302 206.103 42.746C206.847 43.178 207.435 43.772 207.867 44.528C208.311 45.284 208.533 46.136 208.533 47.084V51.098C208.533 51.362 208.443 51.584 208.263 51.764C208.095 51.932 207.879 52.016 207.615 52.016C207.351 52.016 207.129 51.932 206.949 51.764C206.781 51.584 206.697 51.362 206.697 51.098V50.432C206.277 50.936 205.767 51.338 205.167 51.638C204.579 51.926 203.931 52.07 203.223 52.07ZM203.583 50.45C204.195 50.45 204.741 50.306 205.221 50.018C205.701 49.718 206.079 49.316 206.355 48.812C206.631 48.296 206.769 47.72 206.769 47.084C206.769 46.436 206.631 45.86 206.355 45.356C206.079 44.84 205.701 44.438 205.221 44.15C204.741 43.85 204.195 43.7 203.583 43.7C202.983 43.7 202.437 43.85 201.945 44.15C201.465 44.438 201.081 44.84 200.793 45.356C200.517 45.86 200.379 46.436 200.379 47.084C200.379 47.72 200.517 48.296 200.793 48.812C201.081 49.316 201.465 49.718 201.945 50.018C202.437 50.306 202.983 50.45 203.583 50.45Z" fill="white"/>
<path d="M159.246 86.198C157.113 86.198 155.206 85.6247 153.526 84.478C151.873 83.3047 150.579 81.6514 149.646 79.518C148.739 77.3847 148.286 74.878 148.286 71.998C148.286 69.118 148.739 66.6114 149.646 64.478C150.579 62.3447 151.873 60.7047 153.526 59.558C155.206 58.3847 157.113 57.798 159.246 57.798C161.379 57.798 163.273 58.3847 164.926 59.558C166.606 60.7047 167.899 62.3447 168.806 64.478C169.739 66.6114 170.206 69.118 170.206 71.998C170.206 74.878 169.739 77.3847 168.806 79.518C167.899 81.6514 166.606 83.3047 164.926 84.478C163.273 85.6247 161.379 86.198 159.246 86.198ZM159.246 84.318C161.006 84.318 162.553 83.838 163.886 82.878C165.246 81.8914 166.299 80.478 167.046 78.638C167.793 76.7714 168.166 74.558 168.166 71.998C168.166 69.438 167.793 67.238 167.046 65.398C166.299 63.5314 165.246 62.118 163.886 61.158C162.553 60.1714 161.006 59.678 159.246 59.678C157.486 59.678 155.926 60.1714 154.566 61.158C153.233 62.118 152.193 63.5314 151.446 65.398C150.699 67.238 150.326 69.438 150.326 71.998C150.326 74.558 150.699 76.7714 151.446 78.638C152.193 80.478 153.233 81.8914 154.566 82.878C155.926 83.838 157.486 84.318 159.246 84.318ZM193.255 84.158V85.998H174.015V84.558L185.855 72.798C187.402 71.2514 188.442 69.9314 188.975 68.838C189.535 67.718 189.815 66.5714 189.815 65.398C189.815 63.6114 189.202 62.2114 187.975 61.198C186.775 60.1847 185.028 59.678 182.735 59.678C180.975 59.678 179.428 59.9447 178.095 60.478C176.788 61.0114 175.655 61.8247 174.695 62.918L173.255 61.638C174.322 60.4114 175.668 59.4647 177.295 58.798C178.948 58.1314 180.815 57.798 182.895 57.798C185.642 57.798 187.828 58.4647 189.455 59.798C191.082 61.1314 191.895 62.9314 191.895 65.198C191.895 66.638 191.575 68.0114 190.935 69.318C190.295 70.6247 189.095 72.1447 187.335 73.878L177.015 84.158H193.255Z" fill="white"/>
<path opacity="0.5" d="M280.454 52.178C279.482 52.178 278.57 51.998 277.718 51.638C276.878 51.266 276.14 50.756 275.504 50.108C274.88 49.448 274.388 48.68 274.028 47.804C273.68 46.928 273.506 45.98 273.506 44.96C273.506 43.952 273.68 43.016 274.028 42.152C274.388 41.276 274.88 40.514 275.504 39.866C276.14 39.206 276.878 38.69 277.718 38.318C278.558 37.946 279.47 37.76 280.454 37.76C281.378 37.76 282.17 37.88 282.83 38.12C283.502 38.36 284.174 38.756 284.846 39.308C284.99 39.428 285.086 39.542 285.134 39.65C285.182 39.758 285.206 39.89 285.206 40.046C285.206 40.274 285.122 40.466 284.954 40.622C284.798 40.766 284.606 40.85 284.378 40.874C284.15 40.886 283.928 40.808 283.712 40.64C283.268 40.256 282.806 39.962 282.326 39.758C281.858 39.554 281.234 39.452 280.454 39.452C279.746 39.452 279.08 39.596 278.456 39.884C277.832 40.172 277.28 40.568 276.8 41.072C276.332 41.576 275.966 42.164 275.702 42.836C275.438 43.496 275.306 44.204 275.306 44.96C275.306 45.728 275.438 46.448 275.702 47.12C275.966 47.78 276.332 48.362 276.8 48.866C277.28 49.37 277.832 49.766 278.456 50.054C279.08 50.33 279.746 50.468 280.454 50.468C281.066 50.468 281.642 50.366 282.182 50.162C282.734 49.946 283.262 49.652 283.766 49.28C283.982 49.124 284.192 49.058 284.396 49.082C284.612 49.094 284.792 49.178 284.936 49.334C285.08 49.478 285.152 49.682 285.152 49.946C285.152 50.198 285.056 50.42 284.864 50.612C283.568 51.656 282.098 52.178 280.454 52.178ZM288.885 52.016C288.621 52.016 288.399 51.932 288.219 51.764C288.051 51.584 287.967 51.362 287.967 51.098V43.088C287.967 42.812 288.051 42.59 288.219 42.422C288.399 42.254 288.621 42.17 288.885 42.17C289.161 42.17 289.383 42.254 289.551 42.422C289.719 42.59 289.803 42.8 289.803 43.052C290.115 42.74 290.487 42.5 290.919 42.332C291.351 42.152 291.819 42.062 292.323 42.062C293.583 42.062 294.531 42.536 295.167 43.484C295.515 43.04 295.959 42.692 296.499 42.44C297.039 42.188 297.645 42.062 298.317 42.062C299.349 42.062 300.189 42.398 300.837 43.07C301.485 43.742 301.809 44.702 301.809 45.95V51.098C301.809 51.362 301.725 51.584 301.557 51.764C301.389 51.932 301.167 52.016 300.891 52.016C300.627 52.016 300.405 51.932 300.225 51.764C300.057 51.584 299.973 51.362 299.973 51.098V45.95C299.973 45.194 299.787 44.636 299.415 44.276C299.043 43.904 298.557 43.718 297.957 43.718C297.333 43.718 296.817 43.934 296.409 44.366C296.013 44.798 295.815 45.35 295.815 46.022V51.098C295.815 51.362 295.731 51.584 295.563 51.764C295.395 51.932 295.173 52.016 294.897 52.016C294.633 52.016 294.411 51.932 294.231 51.764C294.063 51.584 293.979 51.362 293.979 51.098V45.95C293.979 45.194 293.793 44.636 293.421 44.276C293.049 43.904 292.563 43.718 291.963 43.718C291.339 43.718 290.823 43.934 290.415 44.366C290.007 44.798 289.803 45.35 289.803 46.022V51.098C289.803 51.362 289.719 51.584 289.551 51.764C289.383 51.932 289.161 52.016 288.885 52.016ZM310.763 52.178C309.983 52.178 309.275 52.004 308.639 51.656C308.015 51.308 307.523 50.834 307.163 50.234C306.803 49.634 306.623 48.956 306.623 48.2L306.641 43.844H304.445C304.193 43.844 303.989 43.766 303.833 43.61C303.677 43.454 303.599 43.25 303.599 42.998C303.599 42.746 303.677 42.542 303.833 42.386C303.989 42.23 304.193 42.152 304.445 42.152H307.559C307.835 42.152 308.057 42.236 308.225 42.404C308.393 42.572 308.477 42.794 308.477 43.07L308.459 45.086H310.781C311.549 45.086 312.233 45.212 312.833 45.464C313.433 45.704 313.907 46.076 314.255 46.58C314.615 47.084 314.795 47.72 314.795 48.488C314.795 49.244 314.615 49.898 314.255 50.45C313.907 51.002 313.427 51.428 312.815 51.728C312.215 52.028 311.531 52.178 310.763 52.178ZM310.763 50.468C311.411 50.468 311.951 50.306 312.383 49.982C312.815 49.646 313.031 49.148 313.031 48.488C313.031 47.864 312.815 47.402 312.383 47.102C311.951 46.79 311.417 46.634 310.781 46.634H308.459V48.164C308.459 48.824 308.675 49.376 309.107 49.82C309.551 50.252 310.103 50.468 310.763 50.468ZM318.135 52.016C317.871 52.016 317.649 51.932 317.469 51.764C317.301 51.584 317.217 51.362 317.217 51.098V43.07C317.217 42.794 317.301 42.572 317.469 42.404C317.649 42.236 317.871 42.152 318.135 42.152C318.411 42.152 318.633 42.236 318.801 42.404C318.969 42.572 319.053 42.794 319.053 43.07V43.268C319.425 42.896 319.875 42.602 320.403 42.386C320.931 42.17 321.501 42.062 322.113 42.062C322.941 42.062 323.679 42.242 324.327 42.602C324.987 42.95 325.503 43.466 325.875 44.15C326.259 44.834 326.451 45.674 326.451 46.67V51.098C326.451 51.362 326.361 51.584 326.181 51.764C326.013 51.932 325.797 52.016 325.533 52.016C325.269 52.016 325.047 51.932 324.867 51.764C324.699 51.584 324.615 51.362 324.615 51.098V46.67C324.615 45.65 324.339 44.906 323.787 44.438C323.247 43.958 322.569 43.718 321.753 43.718C321.249 43.718 320.793 43.82 320.385 44.024C319.977 44.228 319.653 44.504 319.413 44.852C319.173 45.188 319.053 45.578 319.053 46.022V51.098C319.053 51.362 318.969 51.584 318.801 51.764C318.633 51.932 318.411 52.016 318.135 52.016ZM330.35 52.016C330.086 52.016 329.876 51.932 329.72 51.764C329.564 51.584 329.486 51.362 329.486 51.098V43.07C329.486 42.794 329.564 42.572 329.72 42.404C329.876 42.236 330.086 42.152 330.35 42.152C330.626 42.152 330.848 42.236 331.016 42.404C331.196 42.572 331.286 42.794 331.286 43.07V46.076H332.654L335.912 42.44C336.068 42.272 336.284 42.176 336.56 42.152C336.848 42.128 337.07 42.188 337.226 42.332C337.406 42.5 337.508 42.692 337.532 42.908C337.556 43.112 337.49 43.298 337.334 43.466L334.076 46.958L337.532 50.666C337.688 50.822 337.766 51.008 337.766 51.224C337.766 51.428 337.67 51.614 337.478 51.782C337.322 51.926 337.1 51.998 336.812 51.998C336.536 51.986 336.32 51.902 336.164 51.746L332.456 47.768H331.286V51.098C331.286 51.362 331.196 51.584 331.016 51.764C330.848 51.932 330.626 52.016 330.35 52.016ZM343.223 52.07C342.347 52.07 341.561 51.854 340.865 51.422C340.169 50.978 339.617 50.384 339.209 49.64C338.813 48.884 338.615 48.032 338.615 47.084C338.615 46.136 338.831 45.284 339.263 44.528C339.707 43.772 340.301 43.178 341.045 42.746C341.801 42.302 342.647 42.08 343.583 42.08C344.519 42.08 345.359 42.302 346.103 42.746C346.847 43.178 347.435 43.772 347.867 44.528C348.311 45.284 348.533 46.136 348.533 47.084V51.098C348.533 51.362 348.443 51.584 348.263 51.764C348.095 51.932 347.879 52.016 347.615 52.016C347.351 52.016 347.129 51.932 346.949 51.764C346.781 51.584 346.697 51.362 346.697 51.098V50.432C346.277 50.936 345.767 51.338 345.167 51.638C344.579 51.926 343.931 52.07 343.223 52.07ZM343.583 50.45C344.195 50.45 344.741 50.306 345.221 50.018C345.701 49.718 346.079 49.316 346.355 48.812C346.631 48.296 346.769 47.72 346.769 47.084C346.769 46.436 346.631 45.86 346.355 45.356C346.079 44.84 345.701 44.438 345.221 44.15C344.741 43.85 344.195 43.7 343.583 43.7C342.983 43.7 342.437 43.85 341.945 44.15C341.465 44.438 341.081 44.84 340.793 45.356C340.517 45.86 340.379 46.436 340.379 47.084C340.379 47.72 340.517 48.296 340.793 48.812C341.081 49.316 341.465 49.718 341.945 50.018C342.437 50.306 342.983 50.45 343.583 50.45Z" fill="white"/>
<path d="M299.539 86.198C297.406 86.198 295.499 85.6247 293.819 84.478C292.166 83.3047 290.872 81.6514 289.939 79.518C289.032 77.3847 288.579 74.878 288.579 71.998C288.579 69.118 289.032 66.6114 289.939 64.478C290.872 62.3447 292.166 60.7047 293.819 59.558C295.499 58.3847 297.406 57.798 299.539 57.798C301.672 57.798 303.566 58.3847 305.219 59.558C306.899 60.7047 308.192 62.3447 309.099 64.478C310.032 66.6114 310.499 69.118 310.499 71.998C310.499 74.878 310.032 77.3847 309.099 79.518C308.192 81.6514 306.899 83.3047 305.219 84.478C303.566 85.6247 301.672 86.198 299.539 86.198ZM299.539 84.318C301.299 84.318 302.846 83.838 304.179 82.878C305.539 81.8914 306.592 80.478 307.339 78.638C308.086 76.7714 308.459 74.558 308.459 71.998C308.459 69.438 308.086 67.238 307.339 65.398C306.592 63.5314 305.539 62.118 304.179 61.158C302.846 60.1714 301.299 59.678 299.539 59.678C297.779 59.678 296.219 60.1714 294.859 61.158C293.526 62.118 292.486 63.5314 291.739 65.398C290.992 67.238 290.619 69.438 290.619 71.998C290.619 74.558 290.992 76.7714 291.739 78.638C292.486 80.478 293.526 81.8914 294.859 82.878C296.219 83.838 297.779 84.318 299.539 84.318ZM323.036 70.198C326.13 70.278 328.476 71.038 330.076 72.478C331.703 73.8914 332.516 75.7714 332.516 78.118C332.516 79.6914 332.143 81.0914 331.396 82.318C330.65 83.518 329.53 84.4647 328.036 85.158C326.57 85.8514 324.796 86.198 322.716 86.198C320.69 86.198 318.783 85.8647 316.996 85.198C315.21 84.5047 313.823 83.5847 312.836 82.438L313.876 80.878C314.783 81.8914 316.01 82.718 317.556 83.358C319.13 83.998 320.85 84.318 322.716 84.318C325.196 84.318 327.103 83.7714 328.436 82.678C329.77 81.558 330.436 80.038 330.436 78.118C330.436 76.1714 329.756 74.6514 328.396 73.558C327.036 72.4647 324.996 71.918 322.276 71.918H320.516V70.438L328.796 59.838H313.876V57.998H331.436V59.438L323.036 70.198Z" fill="white"/>
<path d="M40 18C40 18 101 54 175.5 18C250 -18 311 18 311 18" stroke="white" stroke-width="2" stroke-miterlimit="16" stroke-linecap="round" stroke-dasharray="4 10"/>
<circle cx="39" cy="18.998" r="9" fill="#3484FF" stroke="#60FEB2" stroke-width="2"/>
<circle cx="176" cy="18.998" r="7.27704" fill="#273F7C" stroke="#2F61E0" stroke-width="1.44592"/>
<circle cx="313" cy="18.998" r="7.27704" fill="#273F7C" stroke="#2F61E0" stroke-width="1.44592"/>
<path d="M8.45449 52.178C7.48249 52.178 6.57049 51.998 5.71849 51.638C4.87849 51.266 4.14049 50.756 3.50449 50.108C2.88049 49.448 2.38849 48.68 2.02849 47.804C1.68049 46.928 1.50649 45.98 1.50649 44.96C1.50649 43.952 1.68049 43.016 2.02849 42.152C2.38849 41.276 2.88049 40.514 3.50449 39.866C4.14049 39.206 4.87849 38.69 5.71849 38.318C6.55849 37.946 7.47049 37.76 8.45449 37.76C9.37849 37.76 10.1705 37.88 10.8305 38.12C11.5025 38.36 12.1745 38.756 12.8465 39.308C12.9905 39.428 13.0865 39.542 13.1345 39.65C13.1825 39.758 13.2065 39.89 13.2065 40.046C13.2065 40.274 13.1225 40.466 12.9545 40.622C12.7985 40.766 12.6065 40.85 12.3785 40.874C12.1505 40.886 11.9285 40.808 11.7125 40.64C11.2685 40.256 10.8065 39.962 10.3265 39.758C9.85849 39.554 9.23449 39.452 8.45449 39.452C7.74649 39.452 7.08049 39.596 6.45649 39.884C5.83249 40.172 5.28049 40.568 4.80049 41.072C4.33249 41.576 3.96649 42.164 3.70249 42.836C3.43849 43.496 3.30649 44.204 3.30649 44.96C3.30649 45.728 3.43849 46.448 3.70249 47.12C3.96649 47.78 4.33249 48.362 4.80049 48.866C5.28049 49.37 5.83249 49.766 6.45649 50.054C7.08049 50.33 7.74649 50.468 8.45449 50.468C9.06649 50.468 9.64249 50.366 10.1825 50.162C10.7345 49.946 11.2625 49.652 11.7665 49.28C11.9825 49.124 12.1925 49.058 12.3965 49.082C12.6125 49.094 12.7925 49.178 12.9365 49.334C13.0805 49.478 13.1525 49.682 13.1525 49.946C13.1525 50.198 13.0565 50.42 12.8645 50.612C11.5685 51.656 10.0985 52.178 8.45449 52.178ZM16.8847 52.016C16.6207 52.016 16.3987 51.932 16.2187 51.764C16.0507 51.584 15.9667 51.362 15.9667 51.098V43.088C15.9667 42.812 16.0507 42.59 16.2187 42.422C16.3987 42.254 16.6207 42.17 16.8847 42.17C17.1607 42.17 17.3827 42.254 17.5507 42.422C17.7187 42.59 17.8027 42.8 17.8027 43.052C18.1147 42.74 18.4867 42.5 18.9187 42.332C19.3507 42.152 19.8187 42.062 20.3227 42.062C21.5827 42.062 22.5307 42.536 23.1667 43.484C23.5147 43.04 23.9587 42.692 24.4987 42.44C25.0387 42.188 25.6447 42.062 26.3167 42.062C27.3487 42.062 28.1887 42.398 28.8367 43.07C29.4847 43.742 29.8087 44.702 29.8087 45.95V51.098C29.8087 51.362 29.7247 51.584 29.5567 51.764C29.3887 51.932 29.1667 52.016 28.8907 52.016C28.6267 52.016 28.4047 51.932 28.2247 51.764C28.0567 51.584 27.9727 51.362 27.9727 51.098V45.95C27.9727 45.194 27.7867 44.636 27.4147 44.276C27.0427 43.904 26.5567 43.718 25.9567 43.718C25.3327 43.718 24.8167 43.934 24.4087 44.366C24.0127 44.798 23.8147 45.35 23.8147 46.022V51.098C23.8147 51.362 23.7307 51.584 23.5627 51.764C23.3947 51.932 23.1727 52.016 22.8967 52.016C22.6327 52.016 22.4107 51.932 22.2307 51.764C22.0627 51.584 21.9787 51.362 21.9787 51.098V45.95C21.9787 45.194 21.7927 44.636 21.4207 44.276C21.0487 43.904 20.5627 43.718 19.9627 43.718C19.3387 43.718 18.8227 43.934 18.4147 44.366C18.0067 44.798 17.8027 45.35 17.8027 46.022V51.098C17.8027 51.362 17.7187 51.584 17.5507 51.764C17.3827 51.932 17.1607 52.016 16.8847 52.016ZM38.7633 52.178C37.9833 52.178 37.2753 52.004 36.6393 51.656C36.0153 51.308 35.5233 50.834 35.1633 50.234C34.8033 49.634 34.6233 48.956 34.6233 48.2L34.6413 43.844H32.4453C32.1933 43.844 31.9893 43.766 31.8333 43.61C31.6773 43.454 31.5993 43.25 31.5993 42.998C31.5993 42.746 31.6773 42.542 31.8333 42.386C31.9893 42.23 32.1933 42.152 32.4453 42.152H35.5593C35.8353 42.152 36.0573 42.236 36.2253 42.404C36.3933 42.572 36.4773 42.794 36.4773 43.07L36.4593 45.086H38.7813C39.5493 45.086 40.2333 45.212 40.8333 45.464C41.4333 45.704 41.9073 46.076 42.2553 46.58C42.6153 47.084 42.7953 47.72 42.7953 48.488C42.7953 49.244 42.6153 49.898 42.2553 50.45C41.9073 51.002 41.4273 51.428 40.8153 51.728C40.2153 52.028 39.5313 52.178 38.7633 52.178ZM38.7633 50.468C39.4113 50.468 39.9513 50.306 40.3833 49.982C40.8153 49.646 41.0313 49.148 41.0313 48.488C41.0313 47.864 40.8153 47.402 40.3833 47.102C39.9513 46.79 39.4173 46.634 38.7813 46.634H36.4593V48.164C36.4593 48.824 36.6753 49.376 37.1073 49.82C37.5513 50.252 38.1033 50.468 38.7633 50.468ZM46.1347 52.016C45.8707 52.016 45.6487 51.932 45.4687 51.764C45.3007 51.584 45.2167 51.362 45.2167 51.098V43.07C45.2167 42.794 45.3007 42.572 45.4687 42.404C45.6487 42.236 45.8707 42.152 46.1347 42.152C46.4107 42.152 46.6327 42.236 46.8007 42.404C46.9687 42.572 47.0527 42.794 47.0527 43.07V43.268C47.4247 42.896 47.8747 42.602 48.4027 42.386C48.9307 42.17 49.5007 42.062 50.1127 42.062C50.9407 42.062 51.6787 42.242 52.3267 42.602C52.9867 42.95 53.5027 43.466 53.8747 44.15C54.2587 44.834 54.4507 45.674 54.4507 46.67V51.098C54.4507 51.362 54.3607 51.584 54.1807 51.764C54.0127 51.932 53.7967 52.016 53.5327 52.016C53.2687 52.016 53.0467 51.932 52.8667 51.764C52.6987 51.584 52.6147 51.362 52.6147 51.098V46.67C52.6147 45.65 52.3387 44.906 51.7867 44.438C51.2467 43.958 50.5687 43.718 49.7527 43.718C49.2487 43.718 48.7927 43.82 48.3847 44.024C47.9767 44.228 47.6527 44.504 47.4127 44.852C47.1727 45.188 47.0527 45.578 47.0527 46.022V51.098C47.0527 51.362 46.9687 51.584 46.8007 51.764C46.6327 51.932 46.4107 52.016 46.1347 52.016ZM58.3502 52.016C58.0862 52.016 57.8762 51.932 57.7202 51.764C57.5642 51.584 57.4862 51.362 57.4862 51.098V43.07C57.4862 42.794 57.5642 42.572 57.7202 42.404C57.8762 42.236 58.0862 42.152 58.3502 42.152C58.6262 42.152 58.8482 42.236 59.0162 42.404C59.1962 42.572 59.2862 42.794 59.2862 43.07V46.076H60.6542L63.9122 42.44C64.0682 42.272 64.2842 42.176 64.5602 42.152C64.8482 42.128 65.0702 42.188 65.2262 42.332C65.4062 42.5 65.5082 42.692 65.5322 42.908C65.5562 43.112 65.4902 43.298 65.3342 43.466L62.0762 46.958L65.5322 50.666C65.6882 50.822 65.7662 51.008 65.7662 51.224C65.7662 51.428 65.6702 51.614 65.4782 51.782C65.3222 51.926 65.1002 51.998 64.8122 51.998C64.5362 51.986 64.3202 51.902 64.1642 51.746L60.4562 47.768H59.2862V51.098C59.2862 51.362 59.1962 51.584 59.0162 51.764C58.8482 51.932 58.6262 52.016 58.3502 52.016ZM71.223 52.07C70.347 52.07 69.561 51.854 68.865 51.422C68.169 50.978 67.617 50.384 67.209 49.64C66.813 48.884 66.615 48.032 66.615 47.084C66.615 46.136 66.831 45.284 67.263 44.528C67.707 43.772 68.301 43.178 69.045 42.746C69.801 42.302 70.647 42.08 71.583 42.08C72.519 42.08 73.359 42.302 74.103 42.746C74.847 43.178 75.435 43.772 75.867 44.528C76.311 45.284 76.533 46.136 76.533 47.084V51.098C76.533 51.362 76.443 51.584 76.263 51.764C76.095 51.932 75.879 52.016 75.615 52.016C75.351 52.016 75.129 51.932 74.949 51.764C74.781 51.584 74.697 51.362 74.697 51.098V50.432C74.277 50.936 73.767 51.338 73.167 51.638C72.579 51.926 71.931 52.07 71.223 52.07ZM71.583 50.45C72.195 50.45 72.741 50.306 73.221 50.018C73.701 49.718 74.079 49.316 74.355 48.812C74.631 48.296 74.769 47.72 74.769 47.084C74.769 46.436 74.631 45.86 74.355 45.356C74.079 44.84 73.701 44.438 73.221 44.15C72.741 43.85 72.195 43.7 71.583 43.7C70.983 43.7 70.437 43.85 69.945 44.15C69.465 44.438 69.081 44.84 68.793 45.356C68.517 45.86 68.379 46.436 68.379 47.084C68.379 47.72 68.517 48.296 68.793 48.812C69.081 49.316 69.465 49.718 69.945 50.018C70.437 50.306 70.983 50.45 71.583 50.45Z" fill="#60FEB2"/>
<path d="M31.16 86.198C29.0267 86.198 27.12 85.6247 25.44 84.478C23.7867 83.3047 22.4933 81.6514 21.56 79.518C20.6533 77.3847 20.2 74.878 20.2 71.998C20.2 69.118 20.6533 66.6114 21.56 64.478C22.4933 62.3447 23.7867 60.7047 25.44 59.558C27.12 58.3847 29.0267 57.798 31.16 57.798C33.2933 57.798 35.1867 58.3847 36.84 59.558C38.52 60.7047 39.8133 62.3447 40.72 64.478C41.6533 66.6114 42.12 69.118 42.12 71.998C42.12 74.878 41.6533 77.3847 40.72 79.518C39.8133 81.6514 38.52 83.3047 36.84 84.478C35.1867 85.6247 33.2933 86.198 31.16 86.198ZM31.16 84.318C32.92 84.318 34.4667 83.838 35.8 82.878C37.16 81.8914 38.2133 80.478 38.96 78.638C39.7067 76.7714 40.08 74.558 40.08 71.998C40.08 69.438 39.7067 67.238 38.96 65.398C38.2133 63.5314 37.16 62.118 35.8 61.158C34.4667 60.1714 32.92 59.678 31.16 59.678C29.4 59.678 27.84 60.1714 26.48 61.158C25.1467 62.118 24.1067 63.5314 23.36 65.398C22.6133 67.238 22.24 69.438 22.24 71.998C22.24 74.558 22.6133 76.7714 23.36 78.638C24.1067 80.478 25.1467 81.8914 26.48 82.878C27.84 83.838 29.4 84.318 31.16 84.318ZM53.5291 57.998V85.998H51.4891V59.838H44.6491V57.998H53.5291Z" fill="#60FEB2"/>
</svg>
