<svg width="384" height="48" viewBox="0 0 384 48" fill="none" xmlns="http://www.w3.org/2000/svg">
<path d="M306.862 -22.1139C307.391 -21.9018 308.025 -21.7958 308.553 -21.5837C311.934 -20.7353 314.153 -18.0841 314.259 -14.6906C314.365 -11.4031 312.463 -8.43375 309.398 -7.16117C309.081 -7.05512 308.764 -6.94907 308.025 -6.63094C311.723 -5.25231 314.048 -2.91926 314.048 1.00452C314.048 4.9283 311.723 7.26136 307.919 8.74603C311.617 10.1246 313.731 12.4577 313.731 16.2754C313.731 20.1992 311.512 22.6383 307.708 24.123C311.512 25.6077 313.519 28.0468 313.414 32.0766C313.308 35.258 311.617 37.2729 307.391 39.5C310.983 40.8786 313.202 43.3177 312.991 47.2415C312.78 51.1652 310.349 53.4983 306.651 54.7709C311.406 57.1039 313.097 59.7551 312.463 63.5728C311.829 66.8603 309.293 69.4055 306.017 69.8297C302.213 70.3599 299.571 68.5571 297.458 63.5728C296.612 66.8603 294.605 68.9813 291.223 70.0418C295.239 71.5265 297.563 74.0716 297.246 78.3135C296.929 82.1313 294.499 84.4643 290.801 85.5248C295.767 88.0699 297.352 90.7211 296.612 94.5389C295.873 97.8264 293.125 100.265 289.744 100.584C286.045 100.796 283.404 98.6747 281.819 94.1147C280.973 97.6143 278.966 99.8413 275.373 100.796C279.705 102.492 281.819 105.356 280.973 109.916C280.339 112.991 277.803 115.218 274.739 115.748C271.146 116.279 268.821 114.794 266.074 109.81C265.017 113.734 262.27 115.536 258.677 116.279C258.36 116.279 258.043 116.279 257.832 116.279C257.409 116.173 257.092 115.961 256.669 115.855C253.922 115.112 252.126 113.415 251.175 110.764C251.069 110.446 250.963 110.128 250.752 109.492C249.695 112.991 247.582 115.112 244.306 115.855C244.412 115.961 244.412 116.067 244.412 116.067C244.518 116.067 244.623 116.173 244.729 116.173C247.793 117.021 249.695 118.93 250.435 121.899C250.541 122.217 250.646 122.43 250.752 122.748C250.646 123.384 250.646 123.914 250.541 124.55C250.012 126.884 248.956 128.898 246.842 130.171C242.827 132.716 237.755 131.231 235.853 126.99C235.641 126.565 235.536 126.141 235.219 125.505C235.007 125.929 234.902 126.141 234.796 126.247C233.634 129.111 231.52 130.807 228.562 131.444C228.245 131.55 228.033 131.656 227.716 131.656C227.505 131.656 227.188 131.656 226.977 131.656C226.871 131.656 226.765 131.55 226.66 131.55C223.172 131.019 221.059 129.004 220.108 125.717C219.157 126.99 218.312 128.474 217.149 129.641C215.987 130.807 214.402 131.338 212.711 131.55C212.289 131.55 211.866 131.55 211.338 131.55C207.745 130.913 205.526 128.686 204.68 125.081C204.152 126.141 203.729 127.096 203.307 128.05C202.144 130.065 200.137 130.913 198.023 131.55C197.389 131.55 196.755 131.656 196.121 131.656C195.804 131.55 195.593 131.444 195.276 131.338C192.212 130.489 190.415 128.58 189.675 125.611C189.675 125.399 189.57 125.187 189.464 124.975C189.041 126.035 188.724 126.99 188.196 127.838C187.034 129.959 184.92 131.019 182.701 131.55C182.067 131.55 181.539 131.55 180.905 131.55C178.792 131.125 176.89 130.277 175.727 128.368C175.093 127.414 174.776 126.353 174.142 125.293C172.98 129.111 170.549 131.444 166.64 131.656C162.73 131.762 160.3 129.535 158.926 125.611C157.446 129.535 154.91 131.868 150.789 131.762C146.985 131.656 144.766 129.429 143.604 125.505C142.547 128.262 141.068 130.383 138.426 131.231C136.947 131.762 135.362 131.868 133.882 131.444C130.818 130.595 128.705 127.838 128.493 124.657C128.388 121.051 130.29 118.4 134.622 116.597C133.46 115.855 132.086 115.218 131.135 114.264C130.184 113.309 129.55 111.931 128.705 110.764C128.705 110.87 128.493 111.082 128.388 111.294C127.014 115.112 123.421 116.809 120.357 116.597C116.975 116.385 114.017 113.734 113.488 110.022C113.488 109.81 113.488 109.704 113.488 109.492C113.488 109.067 113.488 108.749 113.488 108.325C114.122 105.356 115.602 103.129 118.455 101.856C119.194 101.538 120.04 101.326 120.779 101.008C121.096 101.008 121.308 101.008 121.625 101.008C122.047 101.114 122.364 101.326 122.787 101.432C125.64 102.068 127.437 103.765 128.388 106.522C128.493 106.734 128.599 107.053 128.81 107.477C129.022 106.84 129.233 106.416 129.339 106.098C131.346 101.538 136.735 99.9473 140.751 102.705C142.864 104.189 143.71 106.416 143.921 108.961C143.921 109.067 143.921 109.173 143.921 109.28C143.393 112.991 141.279 115.324 137.792 116.491C139.166 117.339 140.434 117.975 141.385 118.93C142.336 119.884 142.97 121.263 143.71 122.536C144.449 119.884 146.034 118.082 148.465 117.021C149.204 116.703 150.05 116.491 150.789 116.173C151.212 116.173 151.529 116.173 151.952 116.067C152.374 116.279 152.691 116.491 153.114 116.597C155.861 117.339 157.658 119.036 158.609 121.687C158.715 121.899 158.82 122.005 158.926 122.429C160.405 118.506 162.941 116.279 166.957 116.491C170.866 116.597 173.085 119.036 174.142 122.854C175.939 118.4 178.369 116.491 181.962 116.491C185.554 116.491 187.879 118.612 189.358 123.172C190.521 119.142 192.846 116.597 196.967 116.491C201.088 116.385 203.412 118.93 204.575 123.066C205.737 119.142 207.956 116.703 211.655 116.385C215.881 116.067 218.417 118.294 219.685 122.323C219.897 122.005 220.002 121.793 220.002 121.687C221.059 118.718 223.067 116.915 226.026 116.279C226.448 116.173 226.977 115.961 227.399 115.855C227.928 116.067 228.456 116.173 229.09 116.385C231.626 117.021 233.422 118.506 234.373 120.945C234.479 121.263 234.69 121.687 234.902 122.323C236.064 118.93 238.177 117.021 241.453 116.173C236.804 114.264 234.902 111.613 235.324 107.901C235.641 104.613 238.072 101.962 241.348 101.22C243.038 100.902 244.518 101.008 245.997 101.75C248.216 102.811 249.378 104.719 250.118 107.265C250.329 106.628 250.435 106.416 250.541 106.098C251.492 103.341 253.499 101.538 256.247 100.796C256.669 100.69 256.986 100.478 257.409 100.372C257.726 100.372 257.938 100.372 258.255 100.372C258.572 100.478 258.783 100.584 259.1 100.69C262.27 101.326 264.278 103.129 265.229 106.204C265.334 106.416 265.44 106.522 265.757 106.84C266.602 103.553 268.716 101.856 271.78 100.796C268.293 99.6292 266.285 97.5082 265.863 94.2207C265.863 94.0086 265.651 93.7965 265.44 93.6905C265.546 93.5844 265.546 93.3723 265.651 93.2663C265.757 92.8421 265.863 92.4179 265.968 92.0998C266.708 88.8123 268.61 86.6913 271.78 85.8429C271.991 85.7369 272.203 85.6308 272.625 85.4187C268.293 83.828 266.285 81.1768 266.497 77.5712C266.814 74.2837 269.244 71.4204 272.625 70.7841C274.211 70.466 275.69 70.6781 277.169 71.3144C279.494 72.3748 280.656 74.3898 281.396 76.7228C282.241 73.3293 284.46 71.3144 287.736 70.1478C284.249 68.9813 282.136 66.8604 281.924 63.4668C281.607 58.8007 284.143 56.1495 288.687 54.8769C284.038 53.1801 281.924 50.4229 282.347 46.7112C282.77 43.3177 285.411 40.5604 288.793 40.0302C292.703 39.5 295.45 41.4088 297.246 46.3931C297.986 42.9995 299.994 40.8786 303.375 39.7121C302.741 39.3939 302.424 39.2879 302.107 39.1818C299.677 38.1213 298.197 36.3185 297.563 33.7734C297.458 33.3492 297.352 33.031 297.246 32.6068C297.246 32.1826 297.246 31.6524 297.246 31.2282C297.352 30.9101 297.563 30.698 297.563 30.3798C298.303 27.7286 299.888 25.8198 302.53 24.7593C302.741 24.6532 302.952 24.4411 303.269 24.3351C299.677 22.7444 298.303 21.0476 297.669 17.6541C297.669 17.548 297.563 17.442 297.563 17.3359C297.563 16.9117 297.563 16.3815 297.563 15.9573C297.775 15.4271 297.88 14.8968 298.092 14.4726C298.831 12.4577 300.099 10.973 302.001 9.91256C302.53 9.59442 303.058 9.38232 303.798 9.06418C303.164 8.74603 302.741 8.53394 302.213 8.32185C300.522 7.47346 299.254 6.20089 298.62 4.39807C298.303 3.65573 298.092 2.80733 297.88 2.065C297.88 1.74686 297.88 1.32266 297.88 1.00452C297.986 0.792427 298.092 0.580338 298.197 0.36824C298.937 -2.91924 300.839 -4.93416 304.009 -5.99464C304.115 -5.99464 304.115 -6.20674 304.22 -6.31278C301.156 -7.26722 299.36 -9.38818 298.409 -12.7817C296.824 -8.32771 294.182 -6.20673 290.589 -6.20673C287.419 -6.20673 284.566 -8.3277 283.721 -11.4031C283.087 -13.5241 283.404 -15.539 284.566 -17.4478C285.728 -19.4627 287.63 -20.4172 289.849 -21.2656C287.419 -21.9018 285.623 -22.9623 284.566 -24.9772C284.038 -26.0377 283.721 -27.3103 283.404 -28.4768C283.404 -28.6889 283.404 -29.0071 283.404 -29.2192C283.509 -29.6434 283.615 -30.0675 283.721 -30.3857C284.355 -33.1429 286.045 -35.0518 288.581 -36.1123C288.898 -36.2183 289.215 -36.4304 289.744 -36.6425C286.362 -38.0211 285.94 -38.4453 283.826 -42.4752C281.29 -37.809 278.754 -36.0062 274.95 -36.6425C271.78 -37.1728 269.138 -39.5058 268.821 -42.6873C268.293 -47.5655 270.829 -50.4288 275.796 -51.8074C271.991 -52.5497 269.984 -54.6707 269.138 -58.0642C266.919 -53.3981 264.278 -51.4892 260.579 -51.9134C257.304 -52.2316 254.662 -54.5646 254.133 -57.8521C253.816 -59.4428 254.028 -60.9275 254.662 -62.4122C255.718 -64.8513 257.726 -66.0178 260.051 -66.9722C258.783 -67.8206 257.409 -68.3509 256.458 -69.3053C255.507 -70.2597 254.873 -71.6384 254.133 -72.9109C253.499 -70.896 252.337 -69.0932 250.435 -68.0327C249.378 -67.5025 248.11 -67.1843 246.842 -66.7602C246.631 -66.7602 246.314 -66.7602 246.103 -66.7602C242.51 -67.3964 239.974 -69.1993 238.917 -72.8049H238.811C236.064 -68.0327 233.422 -66.442 229.724 -67.1843C226.554 -67.8206 224.229 -70.3658 223.912 -73.5472C223.489 -77.2589 225.286 -79.698 230.358 -82.2432C226.977 -82.9855 225.075 -85.0004 224.018 -88.2879C222.644 -84.5762 220.531 -82.7734 217.572 -82.1371C217.255 -82.0311 217.044 -81.925 216.727 -81.819C216.41 -81.819 216.198 -81.819 215.881 -81.819C215.459 -81.925 214.93 -82.1371 214.508 -82.2432C211.972 -82.8795 210.175 -84.3641 209.224 -86.8032C209.119 -87.1214 209.013 -87.4395 208.802 -87.9698C208.485 -87.2274 208.273 -86.8032 208.062 -86.273C207.111 -84.3641 205.631 -83.0915 203.729 -82.3492C203.095 -82.1371 202.356 -81.925 201.616 -81.7129C201.193 -81.7129 200.771 -81.7129 200.242 -81.7129C199.925 -81.819 199.714 -81.925 199.397 -82.0311C196.755 -82.6674 194.959 -84.2581 193.902 -86.8032C193.797 -87.0153 193.691 -87.2274 193.48 -87.6516C193.268 -87.2274 193.163 -86.9093 193.057 -86.6972C191.895 -84.2581 190.098 -82.6674 187.456 -82.0311C187.139 -81.925 186.822 -81.819 186.4 -81.7129C185.977 -81.7129 185.449 -81.7129 185.026 -81.7129C184.603 -81.819 184.286 -82.0311 183.864 -82.1371C181.539 -82.7734 179.848 -84.2581 178.897 -86.5911C178.792 -86.9093 178.58 -87.3335 178.369 -87.9698C177.101 -84.4702 174.988 -82.5613 171.606 -81.819C176.361 -79.9101 178.369 -77.2589 177.841 -73.5472C177.418 -70.1537 174.882 -67.5025 171.5 -66.9722C167.591 -66.336 164.949 -68.2448 162.941 -73.3351C161.885 -69.4114 159.56 -66.8662 155.544 -66.6541C151.529 -66.442 148.993 -68.669 147.725 -72.6988C146.563 -69.0932 144.344 -67.0783 140.751 -66.336C141.702 -66.0178 142.23 -65.9118 142.759 -65.5936C145.506 -64.4271 146.985 -62.3061 147.197 -59.4428C147.408 -56.5795 146.246 -54.1404 143.604 -52.5497C139.694 -50.1106 134.728 -51.7013 133.037 -55.8372C132.826 -56.3674 132.931 -57.0037 132.192 -57.3219C131.346 -53.8223 129.022 -51.8074 125.429 -50.853C126.274 -50.5348 126.697 -50.4288 127.12 -50.2167C130.924 -48.6259 132.614 -44.0659 130.712 -40.3542C128.81 -36.5365 124.161 -35.0518 120.462 -37.1728C118.138 -38.4453 117.081 -40.5663 116.87 -43.2175C116.87 -43.5356 116.87 -43.7477 116.87 -44.0659C117.398 -47.7776 119.617 -49.8985 123.421 -50.959C119.617 -52.0195 117.398 -54.1404 116.975 -57.7461C116.975 -58.3824 116.87 -58.9126 116.87 -59.5489C116.975 -59.867 117.187 -60.1852 117.292 -60.5033C118.243 -63.6848 120.462 -65.3815 123.844 -66.336C121.096 -67.1843 119.194 -68.4569 118.138 -70.79C117.504 -72.2747 117.398 -73.7593 117.715 -75.35C118.455 -78.4254 121.202 -80.8645 124.372 -81.1827C127.965 -81.6069 130.607 -79.698 132.403 -75.35C132.614 -75.6682 132.826 -75.8803 132.826 -76.0924C133.988 -79.4859 137.158 -81.6069 140.328 -81.6069C143.076 -81.6069 146.351 -80.0162 147.514 -76.1984C147.514 -75.9863 147.619 -75.8803 147.831 -75.35C148.887 -78.6375 150.895 -80.6524 154.593 -81.5008C149.733 -83.0915 147.408 -86.0609 148.465 -90.9391C149.099 -94.1205 151.952 -96.3475 155.227 -96.6657C158.82 -96.9838 161.356 -95.181 163.258 -90.621C164.632 -94.3326 166.957 -96.7717 170.866 -96.8778C174.776 -96.9838 177.101 -94.7568 178.475 -90.9391C180.06 -94.8629 182.596 -97.1959 186.717 -96.9838C190.204 -96.7717 192.423 -94.7568 193.691 -91.1512C195.276 -94.7568 197.706 -97.0899 201.51 -97.0899C205.314 -97.0899 207.639 -94.9689 209.013 -91.1512C210.492 -94.8629 212.923 -97.1959 216.832 -97.0899C220.742 -97.0899 223.067 -94.7568 224.229 -90.9391C224.546 -91.5754 224.758 -91.8935 224.863 -92.3177C226.343 -95.4992 229.407 -97.302 232.683 -96.9838C235.853 -96.6657 238.494 -94.3326 239.128 -91.0452C239.234 -90.5149 239.445 -89.9847 239.551 -89.4544V-89.3484C239.34 -88.9242 239.234 -88.5 239.128 -87.9698C238.389 -85.0004 236.592 -83.0915 233.739 -82.1371C233.422 -82.0311 233.105 -81.925 232.366 -81.7129C235.958 -80.8645 237.966 -78.8496 238.917 -75.4561C239.234 -76.0924 239.34 -76.4105 239.445 -76.6226C240.502 -79.3799 242.51 -81.0766 245.363 -81.7129C245.786 -81.819 246.103 -82.0311 246.525 -82.1371C246.737 -82.1371 246.948 -82.1371 247.159 -82.1371C247.582 -82.0311 247.899 -81.819 248.322 -81.7129C251.175 -80.9706 253.077 -79.2738 254.028 -76.4105C254.028 -76.1984 254.133 -76.0924 254.345 -75.6682C255.296 -78.3194 256.669 -80.3343 259.311 -81.2887C260.791 -81.819 262.376 -81.925 263.855 -81.6069C267.025 -80.8645 269.244 -78.0012 269.455 -74.8198C269.667 -71.1081 267.553 -68.4569 263.01 -66.6541C266.074 -65.5936 268.293 -63.7908 269.033 -60.1852C269.984 -62.5182 270.935 -64.4271 272.942 -65.5936C274.845 -66.7602 276.852 -67.0783 278.966 -66.442C282.241 -65.5936 284.46 -62.5182 284.355 -59.1247C284.249 -55.413 281.924 -52.6558 277.275 -51.3832C280.656 -50.5348 282.875 -48.732 283.721 -45.4445C284.566 -45.7626 284.46 -46.3989 284.672 -46.9292C286.574 -50.853 291.329 -52.5497 295.027 -50.6409C298.726 -48.732 300.205 -44.1719 298.092 -40.3542C297.035 -38.3393 295.239 -37.0667 292.808 -36.3244C293.231 -36.1123 293.442 -35.9002 293.759 -35.9002C296.507 -34.8397 298.197 -32.8248 298.726 -29.9615C298.831 -29.6433 298.937 -29.3252 299.043 -29.0071C299.043 -28.795 299.043 -28.4768 299.043 -28.2647C298.831 -27.7345 298.62 -27.2043 298.409 -26.568C297.669 -24.2349 296.084 -22.5381 293.759 -21.5837C293.337 -21.3716 292.914 -21.2656 292.491 -21.1595C293.759 -20.3111 295.133 -19.7809 296.084 -18.7204C297.035 -17.6599 297.669 -16.1753 298.409 -14.9027C298.409 -14.9027 298.514 -14.9027 298.514 -15.0087C298.62 -15.2208 298.726 -15.4329 298.726 -15.645C299.677 -18.5083 301.684 -20.2051 304.643 -20.9474C305.066 -21.0535 305.383 -21.2655 305.805 -21.3716C306.651 -22.1139 306.756 -22.1139 306.862 -22.1139ZM170.232 -82.4553C166.745 -83.1976 164.738 -85.3186 163.575 -88.606C162.519 -85.3186 160.3 -83.5157 157.129 -82.5613C160.722 -81.7129 162.624 -79.2738 163.575 -75.8803C164.526 -79.3799 166.745 -81.6069 170.232 -82.4553ZM304.115 54.5588C300.522 53.6043 298.514 51.3773 297.669 47.9838C296.718 51.4834 294.605 53.4983 291.223 54.3467C292.597 55.1951 294.182 55.8314 295.239 56.8918C296.295 57.9523 296.824 59.437 297.669 60.8156C299.36 57.1039 299.994 56.4676 304.115 54.5588ZM275.373 85.1006C278.86 86.055 280.973 88.176 281.819 91.6756C282.664 88.3881 284.883 86.4792 288.476 85.3127C284.566 84.3583 282.664 82.1313 281.819 78.7377C280.868 82.1313 278.754 84.1462 275.373 85.1006ZM126.486 -67.2904C129.867 -66.336 131.875 -64.215 132.826 -60.8215C133.882 -64.0029 135.996 -66.1239 139.271 -66.9722C135.89 -67.8206 133.882 -69.9416 132.826 -73.2291C131.663 -70.1537 129.761 -68.1388 126.486 -67.2904Z" fill="white"/>
<path d="M117.292 -44.8087C117.292 -44.4905 117.292 -44.2784 117.292 -43.9603C117.187 -43.6422 116.975 -43.324 116.87 -43.0059C116.13 -40.0365 114.334 -38.0216 111.481 -36.9611C111.269 -36.8551 111.058 -36.749 110.741 -36.5369C115.39 -34.3099 117.081 -31.5527 116.341 -27.841C115.707 -24.5535 112.96 -22.0084 109.684 -21.5842C105.88 -21.16 103.238 -23.1749 101.442 -27.947C100.597 -24.5535 98.589 -22.4326 95.2076 -21.3721C95.9473 -21.0539 96.3699 -20.8418 96.7926 -20.6297C98.906 -19.5693 100.28 -17.8725 100.914 -15.5394C101.019 -15.0092 101.125 -14.479 101.231 -13.9487C101.231 -13.8427 101.336 -13.8427 101.336 -13.7366C101.231 -13.4185 101.125 -13.1003 101.019 -12.6761C100.385 -9.38865 98.589 -7.26768 95.4189 -6.2072C95.3133 -6.2072 95.1019 -5.99512 94.9962 -5.88907C99.223 -3.55602 100.808 -1.43505 100.597 1.85243C100.28 5.98831 97.8493 8.32137 93.7282 9.38185C98.1663 10.7605 100.174 13.1996 100.28 16.6992C100.28 18.608 99.6457 20.3048 98.3776 21.8955C97.1096 23.3802 95.3132 24.1225 93.1999 24.6528C97.638 26.0314 99.7513 28.2584 99.857 31.758C100.068 35.3636 98.272 37.8027 93.6226 39.9237C97.2153 41.1963 99.6457 43.4233 99.6457 47.347C99.6457 51.2708 97.321 53.7099 93.4112 55.0885C95.8416 55.9369 97.5323 56.9974 98.589 59.0123C99.1173 59.9668 99.3287 61.1333 99.7513 62.1938C99.7513 62.618 99.7513 63.0421 99.857 63.4663C99.7513 63.6784 99.54 63.7845 99.4343 63.9966C98.6946 67.178 96.7926 69.1929 93.7282 70.1474C93.6226 70.1474 93.6226 70.3595 93.6226 70.3595C94.7849 71.1018 96.0529 71.7381 97.004 72.7986C97.955 73.859 98.589 75.2377 99.3287 76.4042C99.3287 76.4042 99.4343 76.4042 99.4343 76.2981C99.54 76.1921 99.54 76.0861 99.54 75.98C100.597 72.7986 102.816 70.9957 106.091 70.4655C106.408 70.4655 106.62 70.2534 106.831 70.0413C107.359 70.2534 107.993 70.3595 108.522 70.5715C111.798 71.3139 114.017 73.9651 114.334 77.1465C114.545 80.434 112.643 83.5094 109.473 84.888C109.05 85.1001 108.627 85.2062 107.993 85.5243C111.481 86.3727 113.277 88.5997 114.228 91.9932C114.545 91.1449 114.756 90.6146 114.968 90.0844C116.341 87.2211 118.666 85.6304 121.836 85.6304C125.006 85.6304 127.331 87.1151 128.599 89.9783C130.818 95.1747 126.802 100.477 121.836 100.583C121.519 100.583 121.308 100.583 120.991 100.583C117.398 100.159 115.285 98.038 114.334 94.5384C111.798 99.5227 109.05 101.432 105.14 100.795C101.759 100.265 99.223 97.6138 98.906 94.1142C98.4833 90.2965 100.491 87.4332 105.246 85.4183C102.076 84.5699 100.174 82.661 99.3287 79.1615C98.906 80.0098 98.6946 80.434 98.4833 80.8582C96.4756 85.2062 91.4035 86.7969 87.4938 84.3578C85.0634 82.8731 84.0067 80.5401 84.1124 77.6768C84.2181 74.8135 85.8031 72.6925 88.2335 71.3139C88.7618 70.9957 89.3958 70.7836 90.1355 70.3595C86.2258 68.9808 84.0067 66.4357 84.2181 62.2998C84.4294 58.5881 86.6484 56.2551 90.5582 54.9825C86.9654 53.816 84.9577 51.695 84.3237 48.1954C84.2181 48.6196 84.1124 49.0438 83.9011 49.3619C82.95 52.3313 80.5197 54.4523 77.4553 54.7704C74.4966 55.0885 71.5378 53.6039 70.2698 50.9527C68.8961 48.1954 69.3188 45.014 71.3265 42.6809C72.8059 40.9842 74.7079 40.2418 76.9269 40.0297C77.0326 39.9237 77.2439 39.9237 77.3496 39.8176C77.6666 39.9237 77.9836 40.1358 78.3006 40.1358C81.365 40.8781 83.267 42.6809 84.0067 45.7563C84.1124 45.9684 84.1124 46.2866 84.2181 46.4987C85.1691 42.893 87.3881 40.7721 90.6638 39.7116C90.5582 39.4995 90.5582 39.4995 90.5582 39.4995C90.3468 39.3934 90.2412 39.3934 90.0298 39.2874C87.3881 38.439 85.6974 36.6362 84.9577 33.985C84.8521 33.6668 84.6407 33.3487 84.5351 33.0306C84.5351 32.2882 84.5351 31.5459 84.5351 30.8035C84.7464 30.4854 84.9577 30.1673 85.1691 29.7431C86.2258 27.0919 88.1278 25.3951 90.8752 24.6528C91.0865 24.5467 91.4035 24.5467 91.9319 24.3346C88.2335 23.5923 86.0144 21.6834 85.1691 18.3959C85.1691 18.1838 84.9577 17.9717 84.7464 17.8657C84.7464 17.2294 84.8521 16.5931 84.8521 16.0629C84.9577 15.7447 85.1691 15.5326 85.1691 15.2145C86.0144 12.2451 87.9165 10.3363 90.9808 9.48789C91.1922 9.38184 91.4035 9.38185 91.9319 9.16976C87.8108 8.32137 85.6974 5.98831 85.1691 2.17059C85.1691 1.74639 85.1691 1.21615 85.1691 0.791954C85.6974 -0.480621 86.1201 -1.7532 86.8598 -2.91972C87.8108 -4.4044 89.3958 -5.25278 91.2978 -5.88907C91.0865 -6.10117 90.9808 -6.31326 90.7695 -6.31326C87.5994 -7.37374 85.9088 -9.60074 85.4861 -12.8882C85.4861 -13.1003 85.3804 -13.2064 85.2747 -13.4185C85.2747 -13.6306 85.2747 -13.9487 85.2747 -14.1608C85.6974 -15.3273 86.0144 -16.5999 86.6484 -17.6604C87.5994 -19.4632 89.3958 -20.5237 91.6148 -21.266C91.0865 -21.5842 90.7695 -21.6902 90.3468 -21.9023C87.1768 -23.2809 85.4861 -26.2503 85.8031 -29.5378C86.1201 -32.8253 88.4448 -35.4765 91.7205 -36.3248C92.1432 -36.4309 92.5659 -36.5369 92.8829 -36.643C93.3055 -36.643 93.8339 -36.643 94.2566 -36.643C94.5736 -36.5369 94.7849 -36.4309 95.1019 -36.3248C98.0606 -35.5825 99.9627 -33.7797 100.808 -30.9164C100.914 -30.7043 101.019 -30.3862 101.231 -29.7499C102.076 -33.3555 104.189 -35.2644 107.148 -36.2188C107.148 -36.4309 107.148 -36.5369 107.042 -36.5369C106.831 -36.643 106.62 -36.749 106.408 -36.8551C103.661 -37.8095 101.97 -39.8244 101.336 -42.6877C101.231 -43.0059 101.125 -43.324 101.019 -43.6422C101.019 -43.9603 101.019 -44.3845 101.019 -44.7026C101.336 -45.445 101.548 -46.2934 101.865 -47.0357C102.71 -48.9446 104.084 -50.3232 105.986 -51.1716C106.514 -51.3837 106.937 -51.5958 107.571 -51.8079C106.514 -52.3381 105.563 -52.7623 104.718 -53.3986C102.076 -55.3074 101.019 -58.5949 102.076 -61.6703C103.133 -64.8518 106.091 -66.9727 109.367 -66.9727C112.537 -66.9727 115.39 -64.9578 116.341 -61.8824C116.553 -61.3522 116.658 -60.8219 116.764 -60.3977C116.764 -59.7615 116.87 -59.2312 116.87 -58.5949C116.658 -58.0647 116.341 -57.5345 116.13 -57.0042C115.285 -54.9893 113.911 -53.6107 112.009 -52.6562C111.586 -52.4441 111.058 -52.232 110.635 -52.126C110.635 -52.0199 110.635 -51.9139 110.741 -51.9139C110.952 -51.8079 111.164 -51.7018 111.375 -51.5958C114.122 -50.6413 115.813 -48.7325 116.447 -45.9752C116.975 -45.551 117.187 -45.2329 117.292 -44.8087Z" fill="white"/>
<path d="M77.5605 39.9237C77.4549 40.0297 77.2435 40.0297 77.1379 40.1357C76.6095 39.9237 76.1868 39.8176 75.6585 39.6055C72.1714 38.7571 69.9524 35.8938 69.9524 32.3942C69.9524 29.0007 72.1714 26.1374 75.5528 24.9709C75.8698 24.8648 76.1868 24.7588 76.9265 24.5467C76.0812 24.3346 75.5528 24.1225 75.1302 24.0164C72.0658 22.956 70.1637 20.0927 70.2694 16.9112C70.3751 13.6237 72.4884 10.7604 75.6585 9.69996C76.1868 9.48786 76.7152 9.27576 77.3492 9.06367C77.7719 9.06367 78.1946 9.06366 78.6172 8.95761C79.1456 9.16971 79.6739 9.48786 80.2023 9.59391C81.9986 10.1241 83.3723 11.1846 84.2177 12.7753C84.746 13.7298 84.9573 14.8963 85.38 15.9568C85.38 16.5931 85.2743 17.2294 85.2743 17.7596C84.5347 21.3652 82.21 23.4862 78.7229 24.4406C82.21 25.289 84.2177 27.41 85.063 30.8035C85.063 31.5459 85.063 32.2882 85.063 33.0305C84.5347 35.4696 83.2666 37.4845 81.0476 38.6511C79.7796 39.3934 78.6172 39.6055 77.5605 39.9237Z" fill="white"/>
<path d="M78.4061 9.16962C77.9835 9.16962 77.5608 9.16961 77.1381 9.27566C74.3907 8.95752 72.383 7.57891 71.115 5.13982C69.3186 1.32212 71.115 -3.23792 75.0247 -4.93468C78.9345 -6.63144 83.3726 -4.72259 84.8519 -0.798838C85.0633 -0.162554 85.2746 0.473727 85.4859 1.00396C85.4859 1.42815 85.4859 1.95839 85.4859 2.38258C85.3803 2.80677 85.1689 3.12492 85.0633 3.54911C84.1122 6.73053 81.8932 8.74543 78.4061 9.16962Z" fill="white"/>
<path d="M326.305 11.3967C328.947 14.0479 328.841 18.3959 326.094 21.1532C323.241 23.9104 319.014 23.9104 316.266 21.1532C313.625 18.3959 313.836 14.154 316.583 11.3967C319.331 8.74549 323.769 8.74549 326.305 11.3967Z" fill="white"/>
<path d="M325.777 36.4244C323.029 39.1818 318.803 39.1817 316.161 36.5305C313.519 33.8792 313.625 29.5312 316.266 26.8799C318.908 24.2287 323.346 24.2286 325.988 26.7739C328.63 29.3191 328.524 33.6671 325.777 36.4244Z" fill="white"/>
<path d="M326.411 5.77629C323.769 8.4275 319.542 8.53356 316.9 5.88235C314.259 3.23114 314.364 -1.11685 317.112 -3.76806C319.754 -6.41927 324.086 -6.41927 326.622 -3.76806C329.158 -1.2229 329.053 3.12508 326.411 5.77629Z" fill="white"/>
<path d="M316.161 42.1511C318.802 39.4999 322.923 39.606 325.46 42.1511C327.996 44.8023 327.89 48.9382 325.248 51.5894C322.606 54.2406 318.168 54.1346 315.738 51.5894C313.308 48.9382 313.519 44.6963 316.161 42.1511Z" fill="white"/>
<path d="M57.9063 21.4715C55.476 19.0324 55.5816 15.0025 58.1177 12.5634C60.6537 10.1243 64.6691 10.1243 66.9938 12.5634C69.3185 15.0025 69.2128 19.0324 66.6768 21.4715C64.1408 24.0167 60.3367 24.0167 57.9063 21.4715Z" fill="white"/>
<path d="M57.5895 36.7427C55.1591 34.3036 55.3704 30.2739 57.8008 27.8348C60.2312 25.5018 64.2466 25.5018 66.5713 27.8348C69.0017 30.2739 68.896 34.3036 66.36 36.7427C63.8239 39.2878 59.9142 39.2878 57.5895 36.7427Z" fill="white"/>
<path d="M58.5405 -2.60126C61.0765 -5.04036 64.7749 -5.04036 67.2053 -2.60126C69.53 -0.162156 69.4243 3.65557 66.9939 6.09467C64.5636 8.42773 60.6539 8.42773 58.3292 6.09467C55.8988 3.76162 56.0045 -0.162156 58.5405 -2.60126Z" fill="white"/>
<path d="M57.5894 43.4232C60.0198 40.9841 63.8239 40.9842 66.1486 43.3172C68.4733 45.6502 68.4733 49.4679 66.0429 51.907C63.7182 54.24 59.8084 54.346 57.4837 52.013C55.0533 49.68 55.159 45.8623 57.5894 43.4232Z" fill="white"/>
<path d="M340.147 20.1989C337.823 22.3199 334.441 22.1078 332.434 19.7747C330.532 17.5477 330.743 14.1541 332.962 12.1392C335.181 10.1243 338.668 10.2303 340.676 12.3513C342.683 14.6844 342.472 18.184 340.147 20.1989Z" fill="white"/>
<path d="M340.041 35.2578C337.928 37.4847 334.547 37.4847 332.434 35.4699C330.32 33.349 330.32 29.8495 332.434 27.7286C334.547 25.6077 338.034 25.6077 340.041 27.7286C342.26 29.7434 342.155 33.1369 340.041 35.2578Z" fill="white"/>
<path d="M340.782 -2.81345C342.789 -0.692499 342.789 2.70102 340.57 4.71592C338.457 6.83688 335.076 6.83688 333.068 4.71592C331.06 2.70102 331.166 -0.692509 333.173 -2.70741C335.287 -4.82837 338.668 -4.93441 340.782 -2.81345Z" fill="white"/>
<path d="M339.725 43.2108C341.733 45.2257 341.627 48.6193 339.513 50.6343C337.4 52.5432 334.124 52.5432 332.222 50.6343C330.215 48.6193 330.32 45.3318 332.434 43.2108C334.547 41.0898 337.717 41.0898 339.725 43.2108Z" fill="white"/>
<path d="M50.5099 20.5172C48.6078 22.4261 45.6491 22.5321 43.7471 20.6233C41.845 18.7144 41.845 15.639 43.7471 13.7302C45.6491 11.8213 48.8192 11.8213 50.7212 13.7302C52.5176 15.533 52.4119 18.6084 50.5099 20.5172Z" fill="white"/>
<path d="M50.0868 35.8938C48.1848 37.8026 45.1204 37.6966 43.3241 35.7878C41.5277 33.879 41.6334 30.8037 43.5354 29.0009C45.4374 27.1981 48.6075 27.1981 50.2982 29.1069C52.2002 30.9097 52.0945 33.985 50.0868 35.8938Z" fill="white"/>
<path d="M50.8265 -1.54135C52.6229 0.261459 52.6229 3.23079 50.8265 5.13965C49.0301 7.0485 45.86 7.15454 44.0637 5.24568C42.2673 3.44288 42.373 0.473561 44.1693 -1.43529C46.0714 -3.34415 49.0301 -3.34415 50.8265 -1.54135Z" fill="white"/>
<path d="M43.324 44.4839C45.226 42.575 48.0791 42.575 49.8755 44.3779C51.5662 46.1807 51.5662 49.0441 49.7698 50.8469C47.9734 52.6498 44.909 52.7558 43.1126 50.953C41.4219 49.2562 41.5276 46.2868 43.324 44.4839Z" fill="white"/>
<path d="M354.624 18.9266C353.039 20.5173 350.609 20.6234 349.023 19.0326C347.438 17.4419 347.438 15.0028 349.023 13.4121C350.609 11.8214 353.145 11.8214 354.624 13.3061C356.209 14.7907 356.209 17.3359 354.624 18.9266Z" fill="white"/>
<path d="M354.307 34.1967C352.722 35.7875 350.292 35.8935 348.707 34.3028C347.122 32.712 347.122 30.2729 348.707 28.6822C350.186 27.0914 352.828 27.0914 354.307 28.5761C355.892 30.0608 355.892 32.606 354.307 34.1967Z" fill="white"/>
<path d="M354.835 3.65551C353.25 5.24625 350.926 5.24625 349.341 3.76156C347.756 2.27688 347.861 -0.374359 349.446 -1.85905C351.031 -3.34374 353.462 -3.34374 354.941 -1.85905C356.42 -0.374359 356.42 2.06477 354.835 3.65551Z" fill="white"/>
<path d="M348.601 44.0594C350.186 42.5748 352.405 42.5748 353.884 44.0594C355.364 45.5441 355.364 47.8771 353.884 49.3617C352.405 50.8464 349.869 50.8464 348.39 49.3617C347.016 47.8771 347.122 45.5441 348.601 44.0594Z" fill="white"/>
<path d="M29.4817 14.7906C30.7497 13.412 33.0744 13.4121 34.3424 14.6846C35.6104 15.9571 35.6104 18.0781 34.3424 19.3506C32.9687 20.8352 30.8553 20.9413 29.5873 19.5627C28.2136 18.3962 28.2136 16.1692 29.4817 14.7906Z" fill="white"/>
<path d="M29.2701 30.0615C30.5381 28.789 32.8628 28.683 34.1308 30.0615C35.3988 31.3341 35.3988 33.4549 34.1308 34.7275C32.7571 36.106 30.6438 36.2121 29.3758 34.9396C27.8964 33.561 27.8964 31.4401 29.2701 30.0615Z" fill="white"/>
<path d="M29.9041 -0.374345C31.1722 -1.75298 33.2856 -1.75299 34.5536 -0.480401C35.8216 0.79219 35.8216 2.91317 34.5536 4.18576C33.2856 5.45835 31.1722 5.5644 29.9041 4.29181C28.6361 3.01922 28.6361 1.00429 29.9041 -0.374345Z" fill="white"/>
<path d="M29.1643 45.4384C30.4323 44.1659 32.44 44.1659 33.6024 45.4384C34.8704 46.711 34.7647 48.7258 33.6024 49.9983C32.3343 51.2708 30.1153 51.2708 28.953 49.9983C27.7906 48.7258 27.7906 46.711 29.1643 45.4384Z" fill="white"/>
<path d="M365.297 14.3663C366.353 13.3059 368.044 13.3059 368.995 14.3663C369.946 15.3207 369.946 16.9114 368.889 17.9719C367.832 19.0324 366.353 19.0324 365.402 18.078C364.24 17.0175 364.24 15.4268 365.297 14.3663Z" fill="white"/>
<path d="M364.874 33.1374C363.923 32.1829 363.923 30.5921 364.874 29.5316C365.931 28.4711 367.621 28.4711 368.572 29.5316C369.523 30.5921 369.417 32.1829 368.361 33.2434C367.304 34.1979 365.825 34.1979 364.874 33.1374Z" fill="white"/>
<path d="M365.614 2.59502C364.663 1.64056 364.663 0.0498006 365.614 -0.904662C366.565 -1.85912 368.256 -1.85913 369.207 -1.01072C370.158 -0.0562572 370.158 1.53452 369.101 2.48898C368.15 3.54949 366.565 3.54948 365.614 2.59502Z" fill="white"/>
<path d="M364.768 48.4081C363.817 47.5597 363.817 45.9689 364.768 45.0144C365.719 44.06 367.199 43.9539 368.15 44.9084C369.101 45.8628 369.101 47.3476 368.15 48.302C367.199 49.2565 365.614 49.3625 364.768 48.4081Z" fill="white"/>
<path d="M17.7523 33.9847C16.9069 34.7271 15.8502 34.8331 15.0049 33.9847C14.1595 33.2423 14.1595 31.8635 15.0049 31.1211C15.7445 30.3787 17.0126 30.3787 17.7523 31.1211C18.5976 31.7575 18.5976 33.1362 17.7523 33.9847Z" fill="white"/>
<path d="M18.0693 18.6084C17.224 19.4568 16.1673 19.4568 15.322 18.7145C14.4766 17.9721 14.4766 16.5935 15.2163 15.8511C15.956 15.1088 17.4353 15.1088 18.0693 15.8511C18.9147 16.5935 18.809 17.8661 18.0693 18.6084Z" fill="white"/>
<path d="M15.6392 0.579668C16.3789 -0.162642 17.6469 -0.162648 18.3866 0.473617C19.1263 1.21593 19.1263 2.48846 18.3866 3.23077C17.6469 3.97308 16.4846 3.97308 15.6392 3.23077C14.8996 2.59451 14.8996 1.32198 15.6392 0.579668Z" fill="white"/>
<path d="M14.7935 49.1498C14.0538 48.4075 14.1595 47.347 14.7935 46.6047C15.5332 45.8623 16.5899 45.7563 17.3295 46.4986C18.0692 47.241 18.0692 48.4075 17.3295 49.1498C16.5899 49.7861 15.4275 49.7861 14.7935 49.1498Z" fill="white"/>
<path d="M383.26 15.2147C383.683 15.745 383.683 16.5934 383.154 17.0176C382.626 17.4419 381.781 17.4419 381.358 16.9116C380.935 16.3813 380.935 15.6389 381.464 15.1086C381.992 14.6844 382.732 14.6844 383.26 15.2147Z" fill="white"/>
<path d="M380.936 32.5006C381.041 31.6522 380.936 31.0159 381.147 30.5917C381.464 29.9553 382.415 29.9553 382.838 30.4856C383.26 31.0159 383.366 31.6522 382.838 32.0764C382.415 32.3946 381.781 32.3946 380.936 32.5006Z" fill="white"/>
<path d="M383.788 -0.374344C383.683 0.474021 383.683 1.11028 383.366 1.53446C382.943 2.06469 382.309 2.0647 381.781 1.64052C381.252 1.21633 381.252 0.261917 381.781 -0.0562199C382.309 -0.268311 382.943 -0.268298 383.788 -0.374344Z" fill="white"/>
<path d="M380.724 47.6655C380.83 46.8173 380.724 46.2871 380.936 45.969C381.147 45.4389 382.098 45.4389 382.521 45.863C382.838 46.2871 382.943 46.9233 382.415 47.2414C381.992 47.5595 381.464 47.5595 380.724 47.6655Z" fill="white"/>
<path d="M1.26778 1.32213C1.69045 1.42818 2.11313 1.42818 2.2188 1.64028C2.32446 1.85238 2.2188 2.27656 2.2188 2.59471C1.90179 2.59471 1.47912 2.59472 1.16211 2.48867C1.16211 2.38262 1.26778 1.85237 1.26778 1.32213Z" fill="white"/>
<path d="M0.422852 16.5934C1.37387 16.8056 1.79654 16.6995 1.90221 16.9116C2.00788 17.1237 1.90221 17.5479 1.90221 17.8661C1.58521 17.8661 1.05686 17.9721 0.845526 17.76C0.739858 17.5479 0.634189 17.1237 0.422852 16.5934Z" fill="white"/>
<path d="M0.52832 33.0308C0.633989 32.7126 0.633989 32.2883 0.739658 32.1823C0.950995 32.0762 1.37367 32.1823 1.58501 32.1823C1.58501 32.5005 1.69068 32.9247 1.47934 33.2429C1.268 33.455 0.845326 33.5611 0.52832 33.6671C0.52832 33.3489 0.52832 33.2429 0.52832 33.0308Z" fill="white"/>
<path d="M0.211182 47.2413C0.633856 47.3474 1.05653 47.2413 1.26787 47.4534C1.47921 47.6655 1.37354 48.0897 1.37354 48.4078C1.05653 48.4078 0.633856 48.5138 0.31685 48.4078C0.211182 48.3018 0.31685 47.7715 0.211182 47.2413Z" fill="white"/>
<path d="M298.514 1.74667C298.091 3.97366 297.034 5.98855 295.027 7.26112C291.434 9.59416 286.785 8.53369 284.671 4.82203C282.664 1.21642 284.249 -3.5557 288.158 -5.46455C292.068 -7.26736 296.612 -5.5706 297.985 -1.54081C298.197 -0.798476 298.302 -0.0561385 298.514 0.686193C298.619 1.00433 298.619 1.42852 298.514 1.74667Z" fill="white"/>
<path d="M297.985 32.2882C297.457 34.1971 296.717 35.9999 295.027 37.3786C292.491 39.3935 289.004 39.6056 286.468 37.9088C283.826 36.106 282.664 33.0305 283.509 29.9551C284.354 26.7736 287.207 24.6526 290.377 24.5465C293.547 24.4405 296.295 26.3494 297.351 29.3188C297.563 29.849 297.668 30.4853 297.88 31.0156C297.985 31.3337 297.985 31.7579 297.985 32.2882Z" fill="white"/>
<path d="M298.303 16.9116C297.774 18.2902 297.457 19.7749 296.401 20.9415C294.182 23.4866 290.695 24.335 287.736 22.9564C284.777 21.5778 283.192 18.3963 283.826 15.1088C284.46 11.8213 287.313 9.2761 290.589 9.064C293.865 8.8519 296.823 10.8668 297.774 13.9423C297.986 14.4725 298.091 15.0027 298.303 15.4269C298.303 16.0632 298.303 16.4874 298.303 16.9116Z" fill="white"/>
<path d="M102.604 42.4692C105.457 39.712 109.895 39.712 112.643 42.4692C115.284 45.2265 115.179 49.6805 112.326 52.4378C109.472 55.195 105.034 55.195 102.393 52.4378C99.6453 49.6805 99.7509 45.2265 102.604 42.4692Z" fill="white"/>
<path d="M103.449 6.6246C100.702 3.86735 100.808 -0.586663 103.661 -3.34391C106.408 -5.99512 110.846 -6.10117 113.488 -3.44997C116.235 -0.692718 116.13 3.76131 113.276 6.51856C110.423 9.27582 106.091 9.38185 103.449 6.6246Z" fill="white"/>
<path d="M112.643 37.0605C109.895 39.8178 105.457 39.8178 102.816 37.0605C100.174 34.3032 100.28 29.8491 103.027 27.1978C105.774 24.5465 110.107 24.5465 112.748 27.1978C115.496 29.8491 115.39 34.3032 112.643 37.0605Z" fill="white"/>
<path d="M112.96 21.7893C110.213 24.5465 105.775 24.5465 103.133 21.7893C100.491 19.032 100.597 14.684 103.344 11.9268C106.092 9.27558 110.424 9.27558 113.066 11.9268C115.707 14.578 115.707 19.032 112.96 21.7893Z" fill="white"/>
<path d="M270.195 51.9073C267.553 49.2561 267.553 44.9082 270.3 42.1509C272.942 39.4997 277.486 39.4997 280.022 42.0449C282.558 44.6961 282.558 48.938 279.916 51.5892C277.063 54.5585 272.837 54.6646 270.195 51.9073Z" fill="white"/>
<path d="M280.656 5.88232C278.014 8.5335 273.787 8.63954 271.146 6.09441C268.504 3.44322 268.504 -0.904706 271.251 -3.55589C273.893 -6.20707 278.226 -6.20708 280.762 -3.66194C283.403 -1.01076 283.403 3.23113 280.656 5.88232Z" fill="white"/>
<path d="M279.811 36.6367C277.063 39.1818 272.731 39.0758 270.3 36.4246C267.87 33.6673 268.081 29.5314 270.829 26.8801C273.576 24.3349 277.697 24.441 280.233 27.3043C282.769 29.9556 282.558 34.0915 279.811 36.6367Z" fill="white"/>
<path d="M271.146 11.7151C273.788 9.06393 277.909 9.06393 280.445 11.7151C283.087 14.3663 282.981 18.6082 280.234 21.2594C277.592 23.8045 273.365 23.8045 270.829 21.2594C268.293 18.6082 268.399 14.3663 271.146 11.7151Z" fill="white"/>
<path d="M127.331 42.8931C129.761 45.4382 129.656 49.5741 127.119 52.1192C124.583 54.5583 120.462 54.5583 118.032 52.1192C115.496 49.5741 115.602 45.4382 118.243 42.8931C120.885 40.2419 124.9 40.2419 127.331 42.8931Z" fill="white"/>
<path d="M128.282 -2.91955C130.712 -0.37438 130.607 3.65548 128.071 6.20065C125.534 8.63978 121.413 8.63978 118.983 6.20065C116.553 3.65548 116.658 -0.37438 119.3 -2.91955C121.836 -5.46472 125.851 -5.46472 128.282 -2.91955Z" fill="white"/>
<path d="M127.33 36.5301C124.794 39.0752 120.885 39.0752 118.454 36.5301C116.024 34.091 116.129 30.0612 118.56 27.6221C121.096 25.077 125.217 25.077 127.647 27.6221C129.972 30.1672 129.867 34.091 127.33 36.5301Z" fill="white"/>
<path d="M127.648 21.2594C125.112 23.8046 121.308 23.8046 118.877 21.3655C116.447 18.9264 116.447 15.0026 118.877 12.4574C121.308 9.91227 125.535 9.91228 127.859 12.3514C130.29 14.7905 130.184 18.8203 127.648 21.2594Z" fill="white"/>
<path d="M264.277 42.7872C266.602 45.2264 266.496 49.1502 264.066 51.5893C261.636 54.0285 257.514 54.0285 255.19 51.5893C252.865 49.1502 252.971 45.1203 255.507 42.6812C258.148 40.242 261.953 40.3481 264.277 42.7872Z" fill="white"/>
<path d="M264.912 5.56401C262.375 8.00313 258.677 8.00313 256.247 5.56401C253.922 3.23095 254.028 -0.586793 256.352 -3.02591C258.783 -5.46503 262.692 -5.46503 265.123 -3.13197C267.553 -0.798897 267.448 3.1249 264.912 5.56401Z" fill="white"/>
<path d="M255.824 36.2123C253.499 33.8792 253.499 30.0614 255.824 27.6222C258.149 25.1831 262.058 25.1831 264.383 27.5162C266.708 29.8493 266.708 33.6671 264.277 36.1062C261.953 38.4393 258.149 38.5454 255.824 36.2123Z" fill="white"/>
<path d="M256.141 20.8352C253.816 18.5022 253.922 14.6845 256.352 12.2454C258.677 9.91235 262.375 9.91234 264.7 12.1393C267.025 14.4724 267.025 18.2901 264.595 20.7292C262.27 23.1683 258.466 23.1683 256.141 20.8352Z" fill="white"/>
<path d="M142.019 51.4834C139.694 53.8165 136.101 53.8165 133.777 51.5895C131.452 49.2565 131.558 45.5449 133.882 43.2118C136.207 40.9849 139.905 40.8788 142.124 43.1058C144.449 45.3328 144.343 49.1504 142.019 51.4834Z" fill="white"/>
<path d="M134.939 -2.60103C137.264 -4.82806 140.751 -4.82806 142.97 -2.60103C145.189 -0.374003 145.083 3.23167 142.864 5.45869C140.645 7.68572 136.736 7.68572 134.622 5.45869C132.509 3.23167 132.72 -0.374003 134.939 -2.60103Z" fill="white"/>
<path d="M134.199 36.1059C131.98 33.879 132.086 30.2735 134.411 28.0466C136.63 25.9257 140.222 25.9257 142.336 28.0466C144.555 30.2735 144.449 33.879 142.124 36.1059C139.8 38.2267 136.418 38.2267 134.199 36.1059Z" fill="white"/>
<path d="M240.713 43.2113C242.932 40.9844 246.419 40.9844 248.533 43.2113C250.646 45.4383 250.541 48.9378 248.322 51.1648C246.102 53.2857 242.51 53.2857 240.396 51.1648C238.389 48.9378 238.494 45.4383 240.713 43.2113Z" fill="white"/>
<path d="M142.336 20.7292C140.117 22.9561 136.63 22.8501 134.516 20.6231C132.403 18.3961 132.509 14.8966 134.728 12.6696C136.947 10.5487 140.539 10.5487 142.653 12.7757C144.766 15.0027 144.66 18.5022 142.336 20.7292Z" fill="white"/>
<path d="M249.061 5.35246C246.736 7.47343 243.355 7.26133 241.347 5.03431C239.445 2.80729 239.657 -0.586255 241.77 -2.60118C243.989 -4.72215 247.476 -4.6161 249.484 -2.38908C251.597 -0.162064 251.386 3.23149 249.061 5.35246Z" fill="white"/>
<path d="M248.744 28.1527C250.752 30.2737 250.646 33.6672 248.427 35.6821C246.208 37.697 242.932 37.697 240.924 35.47C239.022 33.349 239.128 30.0616 241.241 28.0467C243.355 26.0318 246.736 26.0318 248.744 28.1527Z" fill="white"/>
<path d="M241.664 12.8816C243.777 10.8666 247.053 10.8666 249.061 12.9876C251.069 15.1086 250.963 18.3962 248.85 20.4111C246.736 22.5321 243.249 22.426 241.347 20.3051C239.339 18.1841 239.551 14.8965 241.664 12.8816Z" fill="white"/>
<path d="M156.812 50.8469C154.699 52.9679 151.529 52.9679 149.415 50.953C147.408 48.938 147.513 45.5445 149.521 43.5296C151.529 41.6207 154.805 41.5147 156.812 43.4235C158.926 45.4384 158.82 48.832 156.812 50.8469Z" fill="white"/>
<path d="M150.683 -2.17735C152.691 -4.19224 155.755 -4.08619 157.763 -2.17735C159.665 -0.162462 159.665 2.91291 157.657 4.9278C155.65 6.94268 152.268 6.94268 150.472 4.9278C148.57 2.91291 148.676 -0.162462 150.683 -2.17735Z" fill="white"/>
<path d="M232.894 43.7419C234.796 45.6507 234.69 48.726 232.788 50.6349C230.78 52.6498 227.61 52.5437 225.708 50.6349C223.912 48.726 224.018 45.6507 226.025 43.7419C227.927 41.833 230.992 41.833 232.894 43.7419Z" fill="white"/>
<path d="M157.129 28.6827C158.925 30.6976 158.714 33.773 156.6 35.5758C154.593 37.3786 151.528 37.2726 149.732 35.1516C148.041 33.2428 148.253 30.1674 150.155 28.3646C152.268 26.5618 155.438 26.6678 157.129 28.6827Z" fill="white"/>
<path d="M157.023 20.1983C155.121 22.1072 152.057 22.0011 150.261 20.0923C148.464 18.1834 148.57 15.1081 150.472 13.3053C152.374 11.5025 155.544 11.5026 157.235 13.4114C159.137 15.2142 159.031 18.2895 157.023 20.1983Z" fill="white"/>
<path d="M233.739 -1.96519C235.535 -0.162375 235.43 2.80696 233.528 4.71582C231.626 6.62469 228.667 6.62469 226.765 4.71582C224.969 2.80696 225.075 -0.162375 226.977 -1.96519C228.984 -3.76801 231.943 -3.76801 233.739 -1.96519Z" fill="white"/>
<path d="M171.606 50.3166C169.81 52.2255 166.957 52.2255 165.266 50.4227C163.469 48.6199 163.575 45.7567 165.371 43.9539C167.168 42.2572 169.915 42.1512 171.712 43.8479C173.402 45.6507 173.402 48.5139 171.606 50.3166Z" fill="white"/>
<path d="M226.554 28.7889C228.456 26.9861 231.203 26.9861 232.894 28.895C234.585 30.6978 234.479 33.4551 232.788 35.1519C230.992 36.9547 228.033 36.9547 226.343 35.1519C224.652 33.4551 224.758 30.4857 226.554 28.7889Z" fill="white"/>
<path d="M226.976 13.5181C228.773 11.8213 231.626 11.8213 233.211 13.6241C234.796 15.3209 234.796 18.0781 233 19.7749C231.203 21.4716 228.35 21.5777 226.659 19.7749C225.074 18.0781 225.18 15.2148 226.976 13.5181Z" fill="white"/>
<path d="M166.323 -1.54118C168.013 -3.23797 170.761 -3.34402 172.346 -1.64724C173.931 -0.0564992 173.931 2.70079 172.346 4.29152C170.655 5.98831 167.802 5.98832 166.217 4.39758C164.632 2.80684 164.737 0.0495565 166.323 -1.54118Z" fill="white"/>
<path d="M211.02 44.1655C212.711 42.4688 215.458 42.4688 217.149 44.1655C218.734 45.7562 218.628 48.5135 217.043 50.2103C215.353 51.907 212.711 51.907 211.126 50.3163C209.224 48.6195 209.33 45.8623 211.02 44.1655Z" fill="white"/>
<path d="M166.006 29.2133C167.591 27.6227 170.021 27.5166 171.606 29.1073C173.191 30.6979 173.085 33.1369 171.606 34.7276C170.021 36.3182 167.485 36.3182 166.006 34.8336C164.315 33.243 164.421 30.804 166.006 29.2133Z" fill="white"/>
<path d="M180.799 44.484C182.384 42.8932 184.92 42.8932 186.399 44.484C187.879 46.0747 187.773 48.62 186.188 50.1047C184.603 51.5894 182.067 51.5894 180.588 49.9987C179.108 48.4079 179.214 46.0747 180.799 44.484Z" fill="white"/>
<path d="M217.995 -1.43502C219.58 0.155687 219.474 2.59476 217.783 4.18547C216.198 5.67013 213.768 5.67013 212.288 4.18547C210.809 2.70081 210.809 0.0496397 212.394 -1.43502C213.979 -3.02573 216.515 -3.02573 217.995 -1.43502Z" fill="white"/>
<path d="M166.322 13.942C167.802 12.4574 170.338 12.3513 171.817 13.836C173.296 15.3207 173.296 17.7598 171.711 19.3505C170.232 20.8352 167.696 20.9412 166.217 19.4565C164.737 17.9719 164.843 15.4267 166.322 13.942Z" fill="white"/>
<path d="M195.804 49.8922C194.43 48.3015 194.536 45.8624 196.121 44.3778C197.706 42.8931 200.137 42.9992 201.616 44.5899C202.99 46.1806 202.884 48.6196 201.299 50.1043C199.714 51.4829 197.284 51.4829 195.804 49.8922Z" fill="white"/>
<path d="M216.832 34.6217C215.353 36.0003 213.239 36.0003 211.866 34.6217C210.492 33.243 210.492 30.8039 211.971 29.4253C213.345 28.1527 215.67 28.1527 217.043 29.4253C218.417 30.8039 218.311 33.137 216.832 34.6217Z" fill="white"/>
<path d="M182.173 -1.11656C183.546 -2.49521 185.765 -2.4952 187.139 -1.2226C188.513 0.156046 188.618 2.27704 187.245 3.76174C185.871 5.24644 183.546 5.3525 182.067 3.8678C180.799 2.70125 180.905 0.262087 182.173 -1.11656Z" fill="white"/>
<path d="M202.355 -1.11691C203.623 0.155696 203.623 2.48881 202.25 3.76142C200.876 5.14007 198.763 5.03402 197.389 3.65536C196.121 2.38276 196.121 0.261753 197.495 -1.01085C198.868 -2.38951 201.087 -2.38952 202.355 -1.11691Z" fill="white"/>
<path d="M217.149 14.3659C218.417 15.7445 218.417 17.9715 217.043 19.2441C215.67 20.5166 213.345 20.4106 212.183 19.138C211.02 17.7594 211.126 15.7445 212.394 14.472C213.768 12.9873 215.881 12.9873 217.149 14.3659Z" fill="white"/>
<path d="M181.856 33.9846C180.694 32.8181 180.694 30.8032 181.856 29.6367C183.018 28.4702 185.132 28.4702 186.188 29.6367C187.245 30.8032 187.245 32.7121 186.083 33.8786C184.92 35.1512 183.018 35.2572 181.856 33.9846Z" fill="white"/>
<path d="M182.384 14.6848C183.441 13.6243 185.237 13.6243 186.294 14.5787C187.35 15.6392 187.35 17.336 186.294 18.3965C185.237 19.563 183.546 19.563 182.49 18.5026C181.327 17.4421 181.327 15.7453 182.384 14.6848Z" fill="white"/>
<path d="M200.982 30.0617C202.039 31.1221 201.933 32.8189 200.876 33.8793C199.82 34.9398 198.023 34.9398 197.072 33.8793C196.121 32.8189 196.121 31.0161 197.178 29.9556C198.235 28.8951 200.031 29.0012 200.982 30.0617Z" fill="white"/>
<path d="M198.129 15.0026C199.08 14.1542 200.453 14.1542 201.404 15.0026C202.25 15.8509 202.25 17.5477 201.299 18.396C200.348 19.3504 198.868 19.2444 197.917 18.29C197.072 17.2295 197.178 15.8509 198.129 15.0026Z" fill="white"/>
</svg>
