<?xml version="1.0" encoding="UTF-8"?>
<svg viewBox="0 0 236 90" xmlns="http://www.w3.org/2000/svg">
<mask id="a" fill="white">
<path d="m153.95 59.771h67.594v-37.496h2.551v37.751c4.591 1.0203 7.907 5.1015 7.907 9.6928v18.365h-88v-18.365c0-5.3565 4.336-9.9478 9.948-9.9478zm42.087 15.049v6.8869h-16.07v-6.8869h16.07zm-2.551 2.5507h-10.968v1.7855h10.968v-1.7855zm27.293-2.5507v6.8869h-16.07v-6.8869h16.07zm-2.551 2.5507h-10.968v1.7855h10.968v-1.7855zm-46.933-2.5507v6.8869h-16.07v-6.8869h16.07zm-2.551 2.5507h-10.968v1.7855h10.968v-1.7855zm53.31-14.794h-68.104c-4.081 0-7.397 3.0608-7.397 7.142v15.559h82.643v-15.559c0-4.0812-3.061-7.142-7.142-7.142z"/>
</mask>
<path d="m153.95 59.771h67.594v-37.496h2.551v37.751c4.591 1.0203 7.907 5.1015 7.907 9.6928v18.365h-88v-18.365c0-5.3565 4.336-9.9478 9.948-9.9478zm42.087 15.049v6.8869h-16.07v-6.8869h16.07zm-2.551 2.5507h-10.968v1.7855h10.968v-1.7855zm27.293-2.5507v6.8869h-16.07v-6.8869h16.07zm-2.551 2.5507h-10.968v1.7855h10.968v-1.7855zm-46.933-2.5507v6.8869h-16.07v-6.8869h16.07zm-2.551 2.5507h-10.968v1.7855h10.968v-1.7855zm53.31-14.794h-68.104c-4.081 0-7.397 3.0608-7.397 7.142v15.559h82.643v-15.559c0-4.0812-3.061-7.142-7.142-7.142z" fill="#151F41"/>
<path d="m221.54 59.771v0.5h0.5v-0.5h-0.5zm0-37.496v-0.5h-0.5v0.5h0.5zm2.551 0h0.5v-0.5h-0.5v0.5zm0 37.751h-0.5v0.4011l0.391 0.087 0.109-0.4881zm7.907 28.058v0.5h0.5v-0.5h-0.5zm-88 0h-0.5v0.5h0.5v-0.5zm52.035-13.264h0.5v-0.5h-0.5v0.5zm0 6.8869v0.5h0.5v-0.5h-0.5zm-16.07 0h-0.5v0.5h0.5v-0.5zm0-6.8869v-0.5h-0.5v0.5h0.5zm13.519 2.5507h0.5v-0.5h-0.5v0.5zm-10.968 0v-0.5h-0.5v0.5h0.5zm0 1.7855h-0.5v0.5h0.5v-0.5zm10.968 0v0.5h0.5v-0.5h-0.5zm27.293-4.3362h0.5v-0.5h-0.5v0.5zm0 6.8869v0.5h0.5v-0.5h-0.5zm-16.07 0h-0.5v0.5h0.5v-0.5zm0-6.8869v-0.5h-0.5v0.5h0.5zm13.519 2.5507h0.5v-0.5h-0.5v0.5zm-10.968 0v-0.5h-0.5v0.5h0.5zm0 1.7855h-0.5v0.5h0.5v-0.5zm10.968 0v0.5h0.5v-0.5h-0.5zm-46.933-4.3362h0.5v-0.5h-0.5v0.5zm0 6.8869v0.5h0.5v-0.5h-0.5zm-16.07 0h-0.5v0.5h0.5v-0.5zm0-6.8869v-0.5h-0.5v0.5h0.5zm13.519 2.5507h0.5v-0.5h-0.5v0.5zm-10.968 0v-0.5h-0.5v0.5h0.5zm0 1.7855h-0.5v0.5h0.5v-0.5zm10.968 0v0.5h0.5v-0.5h-0.5zm-22.191 6.1217h-0.5v0.5h0.5v-0.5zm82.643 0v0.5h0.5v-0.5h-0.5zm-75.246-25.007h67.594v-1h-67.594v1zm68.094-0.5v-37.496h-1v37.496h1zm-0.5-36.996h2.551v-1h-2.551v1zm2.051-0.5v37.751h1v-37.751h-1zm0.391 38.239c4.369 0.9709 7.516 4.8543 7.516 9.2047h1c0-4.8322-3.485-9.1111-8.299-10.181l-0.217 0.9761zm7.516 9.2047v18.365h1v-18.365h-1zm0.5 17.865h-88v1h88v-1zm-87.5 0.5v-18.365h-1v18.365h1zm0-18.365c0-5.0888 4.121-9.4478 9.448-9.4478v-1c-5.896 0-10.448 4.8235-10.448 10.448h1zm51.035 5.1015v0.0134 0.0135 0.0134 0.0135 0.0134 0.0135 0.0134 0.0135 0.0134 0.0135 0.0134 0.0135 0.0134 0.0135 0.0134 0.0135 0.0134 0.0135 0.0134 0.0135 0.0134 0.0135 0.0134 0.0135 0.0134 0.0135 0.0134 0.0135 0.0134 0.0135 0.0134 0.0135 0.0134 0.0135 0.0134 0.0135 0.0134 0.0135 0.0134 0.0135 0.0134 0.0135 0.0135 0.0134 0.0135 0.0134 0.0135 0.0134 0.0135 0.0134 0.0135 0.0134 0.0135 0.0134 0.0135 0.0134 0.0135 0.0134 0.0135 0.0134 0.0135 0.0134 0.0135 0.0134 0.0135 0.0134 0.0135 0.0134 0.0135 0.0134 0.0135 0.0134 0.0135 0.0134 0.0135 0.0134 0.0135 0.0134 0.0135 0.0134 0.0135 0.0134 0.0135 0.0134 0.0135 0.0134 0.0135 0.0134 0.0135 0.0134 0.0135 0.0134 0.0135 0.0135 0.0134 0.0135 0.0134 0.0135 0.0134 0.0135 0.0134 0.0135 0.0134 0.0135 0.0134 0.0135 0.0134 0.0135 0.0134 0.0135 0.0134 0.0135 0.0134 0.0135 0.0134 0.0135 0.0134 0.0135 0.0134 0.0135 0.0134 0.0135 0.0134 0.0135 0.0134 0.0135 0.0134 0.0135 0.0134 0.0135 0.0134 0.0135 0.0134 0.0135 0.0134 0.0135 0.0135 0.0134 0.0135 0.0134 0.0135 0.0134 0.0135 0.0134 0.0135 0.0134 0.0135 0.0134 0.0135 0.0134 0.0135 0.0134 0.0135 0.0134 0.0135 0.0134 0.0135 0.0134 0.0135 0.0134 0.0135 0.0134 0.0135 0.0134 0.0135 0.0134 0.0135 0.0134 0.0135 0.0134 0.0135 0.0134 0.0135 0.0134 0.0135 0.0134 0.0135 0.0134 0.0135 0.0134 0.0135 0.0134 0.0135 0.0134 0.0135 0.0135 0.0134 0.0135 0.0134 0.0135 0.0134 0.0135 0.0134 0.0135 0.0134 0.0135 0.0134 0.0135 0.0134 0.0135 0.0134 0.0135 0.0134 0.0135 0.0134 0.0135 0.0134 0.0135 0.0134 0.0135 0.0134 0.0135 0.0134 0.0135 0.0134 0.0135 0.0134 0.0135 0.0134 0.0135 0.0134 0.0135 0.0134 0.0135 0.0134 0.0135 0.0134 0.0135 0.0135 0.0134 0.0135 0.0134 0.0135 0.0134 0.0135 0.0134 0.0135 0.0134 0.0135 0.0134 0.0135 0.0134 0.0135 0.0134 0.0135 0.0134 0.0135 0.0134 0.0135 0.0134 0.0135 0.0134 0.0135 0.0134 0.0135 0.0134 0.0135 0.0134 0.0135 0.0134 0.0135 0.0134 0.0135 0.0134 0.0135 0.0134 0.0135 0.0134 0.0135 0.0134 0.0135 0.0134 0.0135 0.0134 0.0135 0.0134 0.0135 0.0135 0.0134 0.0135 0.0134 0.0135 0.0134 0.0135 0.0134 0.0135 0.0134 0.0135 0.0134 0.0135 0.0134 0.0135 0.0134 0.0135 0.0134 0.0135 0.0134 0.0135 0.0134 0.0135 0.0134 0.0135 0.0134 0.0135 0.0134 0.0135 0.0134 0.0135 0.0134 0.0135 0.0134 0.0135 0.0134 0.0135 0.0134 0.0135 0.0134 0.0135 0.0134 0.0135 0.0134 0.0135 0.0135 0.0134 0.0135 0.0134 0.0135 0.0134 0.0135 0.0134 0.0135 0.0134 0.0135 0.0134 0.0135 0.0134 0.0135 0.0134 0.0135 0.0134 0.0135 0.0134 0.0135 0.0134 0.0135 0.0134 0.0135 0.0134 0.0135 0.0134 0.0135 0.0134 0.0135 0.0134 0.0135 0.0134 0.0135 0.0134 0.0135 0.0134 0.0135 0.0134 0.0135 0.0134 0.0135 0.0134 0.0135 0.0134 0.0135 0.0135 0.0134 0.0135 0.0134 0.0135 0.0134 0.0135 0.0134 0.0135 0.0134 0.0135 0.0134 0.0135 0.0134 0.0135 0.0134 0.0135 0.0134 0.0135 0.0134 0.0135 0.0134 0.0135 0.0134 0.0135 0.0134 0.0135 0.0134 0.0135 0.0134 0.0135 0.0134 0.0135 0.0134 0.0135 0.0134 0.0135 0.0134 0.0135 0.0134 0.0135 0.0134 0.0135 0.0134 0.0135 0.0134 0.0135 0.0135 0.0134 0.0135 0.0134 0.0135 0.0134 0.0135 0.0134 0.0135 0.0134 0.0135 0.0134 0.0135 0.0134 0.0135 0.0134 0.0135 0.0134 0.0135 0.0134 0.0135 0.0134 0.0135 0.0134 0.0135 0.0134 0.0135 0.0134 0.0135 0.0134 0.0135 0.0134 0.0135 0.0134 0.0135 0.0134 0.0135 0.0134 0.0135 0.0134 0.0135 0.0134 0.0135 0.0134 0.0135 0.0135 0.0134 0.0135 0.0134 0.0135 0.0134 0.0135 0.0134 0.0135 0.0134 0.0135 0.0134 0.0135 0.0134 0.0135 0.0134 0.0135 0.0134 0.0135 0.0134 0.0135 0.0134 0.0135 0.0134 0.0135 0.0134 0.0135 0.0134 0.0135 0.0134 0.0135 0.0134 0.0135 0.0134 0.0135 0.0134 0.0135 0.0134 0.0135 0.0134 0.0135 0.0134 0.0135 0.0134 0.0135 0.0134 0.0135 0.0135 0.0134 0.0135 0.0134h1v-0.0134-0.0135-0.0134-0.0135-0.0135-0.0134-0.0135-0.0134-0.0135-0.0134-0.0135-0.0134-0.0135-0.0134-0.0135-0.0134-0.0135-0.0134-0.0135-0.0134-0.0135-0.0134-0.0135-0.0134-0.0135-0.0134-0.0135-0.0134-0.0135-0.0134-0.0135-0.0134-0.0135-0.0134-0.0135-0.0134-0.0135-0.0134-0.0135-0.0134-0.0135-0.0134-0.0135-0.0134-0.0135-0.0134-0.0135-0.0134-0.0135-0.0134-0.0135-0.0135-0.0134-0.0135-0.0134-0.0135-0.0134-0.0135-0.0134-0.0135-0.0134-0.0135-0.0134-0.0135-0.0134-0.0135-0.0134-0.0135-0.0134-0.0135-0.0134-0.0135-0.0134-0.0135-0.0134-0.0135-0.0134-0.0135-0.0134-0.0135-0.0134-0.0135-0.0134-0.0135-0.0134-0.0135-0.0134-0.0135-0.0134-0.0135-0.0134-0.0135-0.0134-0.0135-0.0134-0.0135-0.0135-0.0134-0.0135-0.0134-0.0135-0.0134-0.0135-0.0134-0.0135-0.0134-0.0135-0.0134-0.0135-0.0134-0.0135-0.0134-0.0135-0.0134-0.0135-0.0134-0.0135-0.0134-0.0135-0.0134-0.0135-0.0134-0.0135-0.0134-0.0135-0.0134-0.0135-0.0134-0.0135-0.0134-0.0135-0.0134-0.0135-0.0134-0.0135-0.0134-0.0135-0.0134-0.0135-0.0134-0.0135-0.0134-0.0135-0.0135-0.0134-0.0135-0.0134-0.0135-0.0134-0.0135-0.0134-0.0135-0.0134-0.0135-0.0134-0.0135-0.0134-0.0135-0.0134-0.0135-0.0134-0.0135-0.0134-0.0135-0.0134-0.0135-0.0134-0.0135-0.0134-0.0135-0.0134-0.0135-0.0134-0.0135-0.0134-0.0135-0.0134-0.0135-0.0134-0.0135-0.0134-0.0135-0.0134-0.0135-0.0134-0.0135-0.0134-0.0135-0.0134-0.0135-0.0135-0.0134-0.0135-0.0134-0.0135-0.0134-0.0135-0.0134-0.0135-0.0134-0.0135-0.0134-0.0135-0.0134-0.0135-0.0134-0.0135-0.0134-0.0135-0.0134-0.0135-0.0134-0.0135-0.0134-0.0135-0.0134-0.0135-0.0134-0.0135-0.0134-0.0135-0.0134-0.0135-0.0134-0.0135-0.0134-0.0135-0.0134-0.0135-0.0134-0.0135-0.0134-0.0135-0.0134-0.0135-0.0135-0.0134-0.0135-0.0134-0.0135-0.0134-0.0135-0.0134-0.0135-0.0134-0.0135-0.0134-0.0135-0.0134-0.0135-0.0134-0.0135-0.0134-0.0135-0.0134-0.0135-0.0134-0.0135-0.0134-0.0135-0.0134-0.0135-0.0134-0.0135-0.0134-0.0135-0.0134-0.0135-0.0134-0.0135-0.0134-0.0135-0.0134-0.0135-0.0134-0.0135-0.0134-0.0135-0.0134-0.0135-0.0134-0.0135-0.0134-0.0135-0.0135-0.0134-0.0135-0.0134-0.0135-0.0134-0.0135-0.0134-0.0135-0.0134-0.0135-0.0134-0.0135-0.0134-0.0135-0.0134-0.0135-0.0134-0.0135-0.0134-0.0135-0.0134-0.0135-0.0134-0.0135-0.0134-0.0135-0.0134-0.0135-0.0134-0.0135-0.0134-0.0135-0.0134-0.0135-0.0134-0.0135-0.0134-0.0135-0.0134-0.0135-0.0134-0.0135-0.0135-0.0134-0.0135-0.0134-0.0135-0.0134-0.0135-0.0134-0.0135-0.0134-0.0135-0.0134-0.0135-0.0134-0.0135-0.0134-0.0135-0.0134-0.0135-0.0134-0.0135-0.0134-0.0135-0.0134-0.0135-0.0134-0.0135-0.0134-0.0135-0.0134-0.0135-0.0134-0.0135-0.0134-0.0135-0.0134-0.0135-0.0134-0.0135-0.0134-0.0135-0.0134-0.0135-0.0134-0.0135-0.0134-0.0135-0.0134-0.0135-0.0135-0.0134-0.0135-0.0134-0.0135-0.0134-0.0135-0.0134-0.0135-0.0134-0.0135-0.0134-0.0135-0.0134-0.0135-0.0134-0.0135-0.0134-0.0135-0.0134-0.0135-0.0134-0.0135-0.0134-0.0135-0.0134-0.0135-0.0134-0.0135-0.0134-0.0135-0.0134-0.0135-0.0134-0.0135-0.0134-0.0135-0.0134-0.0135-0.0134-0.0135-0.0134-0.0135-0.0135-0.0134-0.0135-0.0134-0.0135-0.0134-0.0135-0.0134-0.0135-0.0134-0.0135-0.0134-0.0135-0.0134-0.0135-0.0134-0.0135-0.0134-0.0135-0.0134-0.0135-0.0134-0.0135-0.0134-0.0135-0.0134-0.0135-0.0134-0.0135-0.0134-0.0135-0.0134-0.0135-0.0134-0.0135-0.0134-0.0135-0.0134-0.0135-0.0134-0.0135-0.0134-0.0135-0.0134-0.0135-0.0134-0.0135-0.0134-0.0135-0.0134-0.0135-0.0135-0.0134-0.0135-0.0134-0.0135-0.0134-0.0135-0.0134-0.0135-0.0134-0.0135-0.0134-0.0135-0.0134-0.0135-0.0134-0.0135-0.0134-0.0135-0.0134-0.0135-0.0134-0.0135-0.0134-0.0135-0.0134-0.0135-0.0134-0.0135-0.0134-0.0135-0.0134-0.0135-0.0134-0.0135-0.0134-0.0135-0.0134-0.0135-0.0134-0.0135-0.0134h-1zm0.5 6.3869h-16.07v1h16.07v-1zm-15.57 0.5v-0.0134-0.0135-0.0134-0.0135-0.0135-0.0134-0.0135-0.0134-0.0135-0.0134-0.0135-0.0134-0.0135-0.0134-0.0135-0.0134-0.0135-0.0134-0.0135-0.0134-0.0135-0.0134-0.0135-0.0134-0.0135-0.0134-0.0135-0.0134-0.0135-0.0134-0.0135-0.0134-0.0135-0.0134-0.0135-0.0134-0.0135-0.0134-0.0135-0.0134-0.0135-0.0134-0.0135-0.0134-0.0135-0.0134-0.0135-0.0134-0.0135-0.0134-0.0135-0.0135-0.0134-0.0135-0.0134-0.0135-0.0134-0.0135-0.0134-0.0135-0.0134-0.0135-0.0134-0.0135-0.0134-0.0135-0.0134-0.0135-0.0134-0.0135-0.0134-0.0135-0.0134-0.0135-0.0134-0.0135-0.0134-0.0135-0.0134-0.0135-0.0134-0.0135-0.0134-0.0135-0.0134-0.0135-0.0134-0.0135-0.0134-0.0135-0.0134-0.0135-0.0134-0.0135-0.0134-0.0135-0.0135-0.0134-0.0135-0.0134-0.0135-0.0134-0.0135-0.0134-0.0135-0.0134-0.0135-0.0134-0.0135-0.0134-0.0135-0.0134-0.0135-0.0134-0.0135-0.0134-0.0135-0.0134-0.0135-0.0134-0.0135-0.0134-0.0135-0.0134-0.0135-0.0134-0.0135-0.0134-0.0135-0.0134-0.0135-0.0134-0.0135-0.0134-0.0135-0.0134-0.0135-0.0134-0.0135-0.0134-0.0135-0.0134-0.0135-0.0135-0.0134-0.0135-0.0134-0.0135-0.0134-0.0135-0.0134-0.0135-0.0134-0.0135-0.0134-0.0135-0.0134-0.0135-0.0134-0.0135-0.0134-0.0135-0.0134-0.0135-0.0134-0.0135-0.0134-0.0135-0.0134-0.0135-0.0134-0.0135-0.0134-0.0135-0.0134-0.0135-0.0134-0.0135-0.0134-0.0135-0.0134-0.0135-0.0134-0.0135-0.0134-0.0135-0.0134-0.0135-0.0134-0.0135-0.0135-0.0134-0.0135-0.0134-0.0135-0.0134-0.0135-0.0134-0.0135-0.0134-0.0135-0.0134-0.0135-0.0134-0.0135-0.0134-0.0135-0.0134-0.0135-0.0134-0.0135-0.0134-0.0135-0.0134-0.0135-0.0134-0.0135-0.0134-0.0135-0.0134-0.0135-0.0134-0.0135-0.0134-0.0135-0.0134-0.0135-0.0134-0.0135-0.0134-0.0135-0.0134-0.0135-0.0134-0.0135-0.0135-0.0134-0.0135-0.0134-0.0135-0.0134-0.0135-0.0134-0.0135-0.0134-0.0135-0.0134-0.0135-0.0134-0.0135-0.0134-0.0135-0.0134-0.0135-0.0134-0.0135-0.0134-0.0135-0.0134-0.0135-0.0134-0.0135-0.0134-0.0135-0.0134-0.0135-0.0134-0.0135-0.0134-0.0135-0.0134-0.0135-0.0134-0.0135-0.0134-0.0135-0.0134-0.0135-0.0134-0.0135-0.0134-0.0135-0.0134-0.0135-0.0135-0.0134-0.0135-0.0134-0.0135-0.0134-0.0135-0.0134-0.0135-0.0134-0.0135-0.0134-0.0135-0.0134-0.0135-0.0134-0.0135-0.0134-0.0135-0.0134-0.0135-0.0134-0.0135-0.0134-0.0135-0.0134-0.0135-0.0134-0.0135-0.0134-0.0135-0.0134-0.0135-0.0134-0.0135-0.0134-0.0135-0.0134-0.0135-0.0134-0.0135-0.0134-0.0135-0.0135-0.0134-0.0135-0.0134-0.0135-0.0134-0.0135-0.0134-0.0135-0.0134-0.0135-0.0134-0.0135-0.0134-0.0135-0.0134-0.0135-0.0134-0.0135-0.0134-0.0135-0.0134-0.0135-0.0134-0.0135-0.0134-0.0135-0.0134-0.0135-0.0134-0.0135-0.0134-0.0135-0.0134-0.0135-0.0134-0.0135-0.0134-0.0135-0.0134-0.0135-0.0134-0.0135-0.0134-0.0135-0.0134-0.0135-0.0134-0.0135-0.0135-0.0134-0.0135-0.0134-0.0135-0.0134-0.0135-0.0134-0.0135-0.0134-0.0135-0.0134-0.0135-0.0134-0.0135-0.0134-0.0135-0.0134-0.0135-0.0134-0.0135-0.0134-0.0135-0.0134-0.0135-0.0134-0.0135-0.0134-0.0135-0.0134-0.0135-0.0134-0.0135-0.0134-0.0135-0.0134-0.0135-0.0134-0.0135-0.0134-0.0135-0.0134-0.0135-0.0135-0.0134-0.0135-0.0134-0.0135-0.0134-0.0135-0.0134-0.0135-0.0134-0.0135-0.0134-0.0135-0.0134-0.0135-0.0134-0.0135-0.0134-0.0135-0.0134-0.0135-0.0134-0.0135-0.0134-0.0135-0.0134-0.0135-0.0134-0.0135-0.0134-0.0135-0.0134-0.0135-0.0134-0.0135-0.0134-0.0135-0.0134-0.0135-0.0134-0.0135-0.0134-0.0135-0.0134-0.0135-0.0134-0.0135-0.0134-0.0135-0.0134-0.0135-0.0135-0.0134-0.0135-0.0134-0.0135-0.0134-0.0135-0.0134-0.0135-0.0134-0.0135-0.0134-0.0135-0.0134-0.0135-0.0134-0.0135-0.0134-0.0135-0.0134-0.0135-0.0134-0.0135-0.0134-0.0135-0.0134-0.0135-0.0134-0.0135-0.0134-0.0135-0.0134-0.0135-0.0134-0.0135-0.0134-0.0135-0.0134-0.0135-0.0134-0.0135-0.0134h-1v0.0134 0.0135 0.0134 0.0135 0.0134 0.0135 0.0134 0.0135 0.0134 0.0135 0.0134 0.0135 0.0134 0.0135 0.0134 0.0135 0.0134 0.0135 0.0134 0.0135 0.0134 0.0135 0.0134 0.0135 0.0134 0.0135 0.0134 0.0135 0.0134 0.0135 0.0134 0.0135 0.0134 0.0135 0.0134 0.0135 0.0134 0.0135 0.0134 0.0135 0.0134 0.0135 0.0135 0.0134 0.0135 0.0134 0.0135 0.0134 0.0135 0.0134 0.0135 0.0134 0.0135 0.0134 0.0135 0.0134 0.0135 0.0134 0.0135 0.0134 0.0135 0.0134 0.0135 0.0134 0.0135 0.0134 0.0135 0.0134 0.0135 0.0134 0.0135 0.0134 0.0135 0.0134 0.0135 0.0134 0.0135 0.0134 0.0135 0.0134 0.0135 0.0134 0.0135 0.0134 0.0135 0.0134 0.0135 0.0134 0.0135 0.0134 0.0135 0.0134 0.0135 0.0135 0.0134 0.0135 0.0134 0.0135 0.0134 0.0135 0.0134 0.0135 0.0134 0.0135 0.0134 0.0135 0.0134 0.0135 0.0134 0.0135 0.0134 0.0135 0.0134 0.0135 0.0134 0.0135 0.0134 0.0135 0.0134 0.0135 0.0134 0.0135 0.0134 0.0135 0.0134 0.0135 0.0134 0.0135 0.0134 0.0135 0.0134 0.0135 0.0134 0.0135 0.0134 0.0135 0.0135 0.0134 0.0135 0.0134 0.0135 0.0134 0.0135 0.0134 0.0135 0.0134 0.0135 0.0134 0.0135 0.0134 0.0135 0.0134 0.0135 0.0134 0.0135 0.0134 0.0135 0.0134 0.0135 0.0134 0.0135 0.0134 0.0135 0.0134 0.0135 0.0134 0.0135 0.0134 0.0135 0.0134 0.0135 0.0134 0.0135 0.0134 0.0135 0.0134 0.0135 0.0134 0.0135 0.0134 0.0135 0.0134 0.0135 0.0134 0.0135 0.0135 0.0134 0.0135 0.0134 0.0135 0.0134 0.0135 0.0134 0.0135 0.0134 0.0135 0.0134 0.0135 0.0134 0.0135 0.0134 0.0135 0.0134 0.0135 0.0134 0.0135 0.0134 0.0135 0.0134 0.0135 0.0134 0.0135 0.0134 0.0135 0.0134 0.0135 0.0134 0.0135 0.0134 0.0135 0.0134 0.0135 0.0134 0.0135 0.0134 0.0135 0.0134 0.0135 0.0135 0.0134 0.0135 0.0134 0.0135 0.0134 0.0135 0.0134 0.0135 0.0134 0.0135 0.0134 0.0135 0.0134 0.0135 0.0134 0.0135 0.0134 0.0135 0.0134 0.0135 0.0134 0.0135 0.0134 0.0135 0.0134 0.0135 0.0134 0.0135 0.0134 0.0135 0.0134 0.0135 0.0134 0.0135 0.0134 0.0135 0.0134 0.0135 0.0134 0.0135 0.0134 0.0135 0.0134 0.0135 0.0134 0.0135 0.0134 0.0135 0.0135 0.0134 0.0135 0.0134 0.0135 0.0134 0.0135 0.0134 0.0135 0.0134 0.0135 0.0134 0.0135 0.0134 0.0135 0.0134 0.0135 0.0134 0.0135 0.0134 0.0135 0.0134 0.0135 0.0134 0.0135 0.0134 0.0135 0.0134 0.0135 0.0134 0.0135 0.0134 0.0135 0.0134 0.0135 0.0134 0.0135 0.0134 0.0135 0.0134 0.0135 0.0134 0.0135 0.0134 0.0135 0.0135 0.0134 0.0135 0.0134 0.0135 0.0134 0.0135 0.0134 0.0135 0.0134 0.0135 0.0134 0.0135 0.0134 0.0135 0.0134 0.0135 0.0134 0.0135 0.0134 0.0135 0.0134 0.0135 0.0134 0.0135 0.0134 0.0135 0.0134 0.0135 0.0134 0.0135 0.0134 0.0135 0.0134 0.0135 0.0134 0.0135 0.0134 0.0135 0.0134 0.0135 0.0134 0.0135 0.0134 0.0135 0.0134 0.0135 0.0135 0.0134 0.0135 0.0134 0.0135 0.0134 0.0135 0.0134 0.0135 0.0134 0.0135 0.0134 0.0135 0.0134 0.0135 0.0134 0.0135 0.0134 0.0135 0.0134 0.0135 0.0134 0.0135 0.0134 0.0135 0.0134 0.0135 0.0134 0.0135 0.0134 0.0135 0.0134 0.0135 0.0134 0.0135 0.0134 0.0135 0.0134 0.0135 0.0134 0.0135 0.0134 0.0135 0.0134 0.0135 0.0134 0.0135 0.0135 0.0134 0.0135 0.0134 0.0135 0.0134 0.0135 0.0134 0.0135 0.0134 0.0135 0.0134 0.0135 0.0134 0.0135 0.0134 0.0135 0.0134 0.0135 0.0134 0.0135 0.0134 0.0135 0.0134 0.0135 0.0134 0.0135 0.0134 0.0135 0.0134 0.0135 0.0134 0.0135 0.0134 0.0135 0.0134 0.0135 0.0134 0.0135 0.0134 0.0135 0.0134 0.0135 0.0134 0.0135 0.0135 0.0134 0.0135 0.0134 0.0135 0.0134 0.0135 0.0134 0.0135 0.0134 0.0135 0.0134 0.0135 0.0134 0.0135 0.0134 0.0135 0.0134 0.0135 0.0134 0.0135 0.0134 0.0135 0.0134 0.0135 0.0134 0.0135 0.0134 0.0135 0.0134 0.0135 0.0134 0.0135 0.0134 0.0135 0.0134 0.0135 0.0134 0.0135 0.0134 0.0135 0.0134 0.0135 0.0134 0.0135 0.0134 0.0135 0.0135 0.0134 0.0135 0.0134h1zm-0.5-6.3869h16.07v-1h-16.07v1zm13.519 1.5507h-10.968v1h10.968v-1zm-11.468 0.5v1.7855h1v-1.7855h-1zm0.5 2.2855h10.968v-1h-10.968v1zm11.468-0.5v-1.7855h-1v1.7855h1zm26.293-4.3362v0.0134 0.0135 0.0134 0.0135 0.0134 0.0135 0.0134 0.0135 0.0134 0.0135 0.0134 0.0135 0.0134 0.0135 0.0134 0.0135 0.0134 0.0135 0.0134 0.0135 0.0134 0.0135 0.0134 0.0135 0.0134 0.0135 0.0134 0.0135 0.0134 0.0135 0.0134 0.0135 0.0134 0.0135 0.0134 0.0135 0.0134 0.0135 0.0134 0.0135 0.0134 0.0135 0.0135 0.0134 0.0135 0.0134 0.0135 0.0134 0.0135 0.0134 0.0135 0.0134 0.0135 0.0134 0.0135 0.0134 0.0135 0.0134 0.0135 0.0134 0.0135 0.0134 0.0135 0.0134 0.0135 0.0134 0.0135 0.0134 0.0135 0.0134 0.0135 0.0134 0.0135 0.0134 0.0135 0.0134 0.0135 0.0134 0.0135 0.0134 0.0135 0.0134 0.0135 0.0134 0.0135 0.0134 0.0135 0.0134 0.0135 0.0134 0.0135 0.0134 0.0135 0.0135 0.0134 0.0135 0.0134 0.0135 0.0134 0.0135 0.0134 0.0135 0.0134 0.0135 0.0134 0.0135 0.0134 0.0135 0.0134 0.0135 0.0134 0.0135 0.0134 0.0135 0.0134 0.0135 0.0134 0.0135 0.0134 0.0135 0.0134 0.0135 0.0134 0.0135 0.0134 0.0135 0.0134 0.0135 0.0134 0.0135 0.0134 0.0135 0.0134 0.0135 0.0134 0.0135 0.0135 0.0134 0.0135 0.0134 0.0135 0.0134 0.0135 0.0134 0.0135 0.0134 0.0135 0.0134 0.0135 0.0134 0.0135 0.0134 0.0135 0.0134 0.0135 0.0134 0.0135 0.0134 0.0135 0.0134 0.0135 0.0134 0.0135 0.0134 0.0135 0.0134 0.0135 0.0134 0.0135 0.0134 0.0135 0.0134 0.0135 0.0134 0.0135 0.0134 0.0135 0.0134 0.0135 0.0134 0.0135 0.0134 0.0135 0.0134 0.0135 0.0135 0.0134 0.0135 0.0134 0.0135 0.0134 0.0135 0.0134 0.0135 0.0134 0.0135 0.0134 0.0135 0.0134 0.0135 0.0134 0.0135 0.0134 0.0135 0.0134 0.0135 0.0134 0.0135 0.0134 0.0135 0.0134 0.0135 0.0134 0.0135 0.0134 0.0135 0.0134 0.0135 0.0134 0.0135 0.0134 0.0135 0.0134 0.0135 0.0134 0.0135 0.0134 0.0135 0.0135 0.0134 0.0135 0.0134 0.0135 0.0134 0.0135 0.0134 0.0135 0.0134 0.0135 0.0134 0.0135 0.0134 0.0135 0.0134 0.0135 0.0134 0.0135 0.0134 0.0135 0.0134 0.0135 0.0134 0.0135 0.0134 0.0135 0.0134 0.0135 0.0134 0.0135 0.0134 0.0135 0.0134 0.0135 0.0134 0.0135 0.0134 0.0135 0.0134 0.0135 0.0134 0.0135 0.0134 0.0135 0.0134 0.0135 0.0134 0.0135 0.0135 0.0134 0.0135 0.0134 0.0135 0.0134 0.0135 0.0134 0.0135 0.0134 0.0135 0.0134 0.0135 0.0134 0.0135 0.0134 0.0135 0.0134 0.0135 0.0134 0.0135 0.0134 0.0135 0.0134 0.0135 0.0134 0.0135 0.0134 0.0135 0.0134 0.0135 0.0134 0.0135 0.0134 0.0135 0.0134 0.0135 0.0134 0.0135 0.0134 0.0135 0.0134 0.0135 0.0134 0.0135 0.0135 0.0134 0.0135 0.0134 0.0135 0.0134 0.0135 0.0134 0.0135 0.0134 0.0135 0.0134 0.0135 0.0134 0.0135 0.0134 0.0135 0.0134 0.0135 0.0134 0.0135 0.0134 0.0135 0.0134 0.0135 0.0134 0.0135 0.0134 0.0135 0.0134 0.0135 0.0134 0.0135 0.0134 0.0135 0.0134 0.0135 0.0134 0.0135 0.0134 0.0135 0.0134 0.0135 0.0134 0.0135 0.0134 0.0135 0.0135 0.0134 0.0135 0.0134 0.0135 0.0134 0.0135 0.0134 0.0135 0.0134 0.0135 0.0134 0.0135 0.0134 0.0135 0.0134 0.0135 0.0134 0.0135 0.0134 0.0135 0.0134 0.0135 0.0134 0.0135 0.0134 0.0135 0.0134 0.0135 0.0134 0.0135 0.0134 0.0135 0.0134 0.0135 0.0134 0.0135 0.0134 0.0135 0.0134 0.0135 0.0134 0.0135 0.0134 0.0135 0.0134 0.0135 0.0135 0.0134 0.0135 0.0134 0.0135 0.0134 0.0135 0.0134 0.0135 0.0134 0.0135 0.0134 0.0135 0.0134 0.0135 0.0134 0.0135 0.0134 0.0135 0.0134 0.0135 0.0134 0.0135 0.0134 0.0135 0.0134 0.0135 0.0134 0.0135 0.0134 0.0135 0.0134 0.0135 0.0134 0.0135 0.0134 0.0135 0.0134 0.0135 0.0134 0.0135 0.0134 0.0135 0.0134 0.0135 0.0135 0.0134 0.0135 0.0134 0.0135 0.0134 0.0135 0.0134 0.0135 0.0134 0.0135 0.0134 0.0135 0.0134 0.0135 0.0134 0.0135 0.0134 0.0135 0.0134 0.0135 0.0134 0.0135 0.0134 0.0135 0.0134 0.0135 0.0134 0.0135 0.0134 0.0135 0.0134 0.0135 0.0134 0.0135 0.0134 0.0135 0.0134 0.0135 0.0134 0.0135 0.0134 0.0135 0.0134 0.0135 0.0134 0.0135 0.0135 0.0134 0.0135 0.0134h1v-0.0134-0.0135-0.0134-0.0135-0.0135-0.0134-0.0135-0.0134-0.0135-0.0134-0.0135-0.0134-0.0135-0.0134-0.0135-0.0134-0.0135-0.0134-0.0135-0.0134-0.0135-0.0134-0.0135-0.0134-0.0135-0.0134-0.0135-0.0134-0.0135-0.0134-0.0135-0.0134-0.0135-0.0134-0.0135-0.0134-0.0135-0.0134-0.0135-0.0134-0.0135-0.0134-0.0135-0.0134-0.0135-0.0134-0.0135-0.0134-0.0135-0.0134-0.0135-0.0135-0.0134-0.0135-0.0134-0.0135-0.0134-0.0135-0.0134-0.0135-0.0134-0.0135-0.0134-0.0135-0.0134-0.0135-0.0134-0.0135-0.0134-0.0135-0.0134-0.0135-0.0134-0.0135-0.0134-0.0135-0.0134-0.0135-0.0134-0.0135-0.0134-0.0135-0.0134-0.0135-0.0134-0.0135-0.0134-0.0135-0.0134-0.0135-0.0134-0.0135-0.0134-0.0135-0.0134-0.0135-0.0135-0.0134-0.0135-0.0134-0.0135-0.0134-0.0135-0.0134-0.0135-0.0134-0.0135-0.0134-0.0135-0.0134-0.0135-0.0134-0.0135-0.0134-0.0135-0.0134-0.0135-0.0134-0.0135-0.0134-0.0135-0.0134-0.0135-0.0134-0.0135-0.0134-0.0135-0.0134-0.0135-0.0134-0.0135-0.0134-0.0135-0.0134-0.0135-0.0134-0.0135-0.0134-0.0135-0.0134-0.0135-0.0134-0.0135-0.0135-0.0134-0.0135-0.0134-0.0135-0.0134-0.0135-0.0134-0.0135-0.0134-0.0135-0.0134-0.0135-0.0134-0.0135-0.0134-0.0135-0.0134-0.0135-0.0134-0.0135-0.0134-0.0135-0.0134-0.0135-0.0134-0.0135-0.0134-0.0135-0.0134-0.0135-0.0134-0.0135-0.0134-0.0135-0.0134-0.0135-0.0134-0.0135-0.0134-0.0135-0.0134-0.0135-0.0134-0.0135-0.0134-0.0135-0.0135-0.0134-0.0135-0.0134-0.0135-0.0134-0.0135-0.0134-0.0135-0.0134-0.0135-0.0134-0.0135-0.0134-0.0135-0.0134-0.0135-0.0134-0.0135-0.0134-0.0135-0.0134-0.0135-0.0134-0.0135-0.0134-0.0135-0.0134-0.0135-0.0134-0.0135-0.0134-0.0135-0.0134-0.0135-0.0134-0.0135-0.0134-0.0135-0.0134-0.0135-0.0134-0.0135-0.0134-0.0135-0.0135-0.0134-0.0135-0.0134-0.0135-0.0134-0.0135-0.0134-0.0135-0.0134-0.0135-0.0134-0.0135-0.0134-0.0135-0.0134-0.0135-0.0134-0.0135-0.0134-0.0135-0.0134-0.0135-0.0134-0.0135-0.0134-0.0135-0.0134-0.0135-0.0134-0.0135-0.0134-0.0135-0.0134-0.0135-0.0134-0.0135-0.0134-0.0135-0.0134-0.0135-0.0134-0.0135-0.0134-0.0135-0.0134-0.0135-0.0134-0.0135-0.0135-0.0134-0.0135-0.0134-0.0135-0.0134-0.0135-0.0134-0.0135-0.0134-0.0135-0.0134-0.0135-0.0134-0.0135-0.0134-0.0135-0.0134-0.0135-0.0134-0.0135-0.0134-0.0135-0.0134-0.0135-0.0134-0.0135-0.0134-0.0135-0.0134-0.0135-0.0134-0.0135-0.0134-0.0135-0.0134-0.0135-0.0134-0.0135-0.0134-0.0135-0.0134-0.0135-0.0135-0.0134-0.0135-0.0134-0.0135-0.0134-0.0135-0.0134-0.0135-0.0134-0.0135-0.0134-0.0135-0.0134-0.0135-0.0134-0.0135-0.0134-0.0135-0.0134-0.0135-0.0134-0.0135-0.0134-0.0135-0.0134-0.0135-0.0134-0.0135-0.0134-0.0135-0.0134-0.0135-0.0134-0.0135-0.0134-0.0135-0.0134-0.0135-0.0134-0.0135-0.0134-0.0135-0.0134-0.0135-0.0134-0.0135-0.0134-0.0135-0.0135-0.0134-0.0135-0.0134-0.0135-0.0134-0.0135-0.0134-0.0135-0.0134-0.0135-0.0134-0.0135-0.0134-0.0135-0.0134-0.0135-0.0134-0.0135-0.0134-0.0135-0.0134-0.0135-0.0134-0.0135-0.0134-0.0135-0.0134-0.0135-0.0134-0.0135-0.0134-0.0135-0.0134-0.0135-0.0134-0.0135-0.0134-0.0135-0.0134-0.0135-0.0134-0.0135-0.0135-0.0134-0.0135-0.0134-0.0135-0.0134-0.0135-0.0134-0.0135-0.0134-0.0135-0.0134-0.0135-0.0134-0.0135-0.0134-0.0135-0.0134-0.0135-0.0134-0.0135-0.0134-0.0135-0.0134-0.0135-0.0134-0.0135-0.0134-0.0135-0.0134-0.0135-0.0134-0.0135-0.0134-0.0135-0.0134-0.0135-0.0134-0.0135-0.0134-0.0135-0.0134-0.0135-0.0134-0.0135-0.0134-0.0135-0.0134-0.0135-0.0134-0.0135-0.0135-0.0134-0.0135-0.0134-0.0135-0.0134-0.0135-0.0134-0.0135-0.0134-0.0135-0.0134-0.0135-0.0134-0.0135-0.0134-0.0135-0.0134-0.0135-0.0134-0.0135-0.0134-0.0135-0.0134-0.0135-0.0134-0.0135-0.0134-0.0135-0.0134-0.0135-0.0134-0.0135-0.0134-0.0135-0.0134-0.0135-0.0134-0.0135-0.0134-0.0135-0.0134h-1zm0.5 6.3869h-16.07v1h16.07v-1zm-15.57 0.5v-0.0134-0.0135-0.0134-0.0135-0.0135-0.0134-0.0135-0.0134-0.0135-0.0134-0.0135-0.0134-0.0135-0.0134-0.0135-0.0134-0.0135-0.0134-0.0135-0.0134-0.0135-0.0134-0.0135-0.0134-0.0135-0.0134-0.0135-0.0134-0.0135-0.0134-0.0135-0.0134-0.0135-0.0134-0.0135-0.0134-0.0135-0.0134-0.0135-0.0134-0.0135-0.0134-0.0135-0.0134-0.0135-0.0134-0.0135-0.0134-0.0135-0.0134-0.0135-0.0135-0.0134-0.0135-0.0134-0.0135-0.0134-0.0135-0.0134-0.0135-0.0134-0.0135-0.0134-0.0135-0.0134-0.0135-0.0134-0.0135-0.0134-0.0135-0.0134-0.0135-0.0134-0.0135-0.0134-0.0135-0.0134-0.0135-0.0134-0.0135-0.0134-0.0135-0.0134-0.0135-0.0134-0.0135-0.0134-0.0135-0.0134-0.0135-0.0134-0.0135-0.0134-0.0135-0.0134-0.0135-0.0135-0.0134-0.0135-0.0134-0.0135-0.0134-0.0135-0.0134-0.0135-0.0134-0.0135-0.0134-0.0135-0.0134-0.0135-0.0134-0.0135-0.0134-0.0135-0.0134-0.0135-0.0134-0.0135-0.0134-0.0135-0.0134-0.0135-0.0134-0.0135-0.0134-0.0135-0.0134-0.0135-0.0134-0.0135-0.0134-0.0135-0.0134-0.0135-0.0134-0.0135-0.0134-0.0135-0.0134-0.0135-0.0134-0.0135-0.0135-0.0134-0.0135-0.0134-0.0135-0.0134-0.0135-0.0134-0.0135-0.0134-0.0135-0.0134-0.0135-0.0134-0.0135-0.0134-0.0135-0.0134-0.0135-0.0134-0.0135-0.0134-0.0135-0.0134-0.0135-0.0134-0.0135-0.0134-0.0135-0.0134-0.0135-0.0134-0.0135-0.0134-0.0135-0.0134-0.0135-0.0134-0.0135-0.0134-0.0135-0.0134-0.0135-0.0134-0.0135-0.0134-0.0135-0.0135-0.0134-0.0135-0.0134-0.0135-0.0134-0.0135-0.0134-0.0135-0.0134-0.0135-0.0134-0.0135-0.0134-0.0135-0.0134-0.0135-0.0134-0.0135-0.0134-0.0135-0.0134-0.0135-0.0134-0.0135-0.0134-0.0135-0.0134-0.0135-0.0134-0.0135-0.0134-0.0135-0.0134-0.0135-0.0134-0.0135-0.0134-0.0135-0.0134-0.0135-0.0134-0.0135-0.0134-0.0135-0.0135-0.0134-0.0135-0.0134-0.0135-0.0134-0.0135-0.0134-0.0135-0.0134-0.0135-0.0134-0.0135-0.0134-0.0135-0.0134-0.0135-0.0134-0.0135-0.0134-0.0135-0.0134-0.0135-0.0134-0.0135-0.0134-0.0135-0.0134-0.0135-0.0134-0.0135-0.0134-0.0135-0.0134-0.0135-0.0134-0.0135-0.0134-0.0135-0.0134-0.0135-0.0134-0.0135-0.0134-0.0135-0.0134-0.0135-0.0134-0.0135-0.0135-0.0134-0.0135-0.0134-0.0135-0.0134-0.0135-0.0134-0.0135-0.0134-0.0135-0.0134-0.0135-0.0134-0.0135-0.0134-0.0135-0.0134-0.0135-0.0134-0.0135-0.0134-0.0135-0.0134-0.0135-0.0134-0.0135-0.0134-0.0135-0.0134-0.0135-0.0134-0.0135-0.0134-0.0135-0.0134-0.0135-0.0134-0.0135-0.0134-0.0135-0.0134-0.0135-0.0135-0.0134-0.0135-0.0134-0.0135-0.0134-0.0135-0.0134-0.0135-0.0134-0.0135-0.0134-0.0135-0.0134-0.0135-0.0134-0.0135-0.0134-0.0135-0.0134-0.0135-0.0134-0.0135-0.0134-0.0135-0.0134-0.0135-0.0134-0.0135-0.0134-0.0135-0.0134-0.0135-0.0134-0.0135-0.0134-0.0135-0.0134-0.0135-0.0134-0.0135-0.0134-0.0135-0.0134-0.0135-0.0134-0.0135-0.0134-0.0135-0.0135-0.0134-0.0135-0.0134-0.0135-0.0134-0.0135-0.0134-0.0135-0.0134-0.0135-0.0134-0.0135-0.0134-0.0135-0.0134-0.0135-0.0134-0.0135-0.0134-0.0135-0.0134-0.0135-0.0134-0.0135-0.0134-0.0135-0.0134-0.0135-0.0134-0.0135-0.0134-0.0135-0.0134-0.0135-0.0134-0.0135-0.0134-0.0135-0.0134-0.0135-0.0134-0.0135-0.0135-0.0134-0.0135-0.0134-0.0135-0.0134-0.0135-0.0134-0.0135-0.0134-0.0135-0.0134-0.0135-0.0134-0.0135-0.0134-0.0135-0.0134-0.0135-0.0134-0.0135-0.0134-0.0135-0.0134-0.0135-0.0134-0.0135-0.0134-0.0135-0.0134-0.0135-0.0134-0.0135-0.0134-0.0135-0.0134-0.0135-0.0134-0.0135-0.0134-0.0135-0.0134-0.0135-0.0134-0.0135-0.0134-0.0135-0.0134-0.0135-0.0134-0.0135-0.0135-0.0134-0.0135-0.0134-0.0135-0.0134-0.0135-0.0134-0.0135-0.0134-0.0135-0.0134-0.0135-0.0134-0.0135-0.0134-0.0135-0.0134-0.0135-0.0134-0.0135-0.0134-0.0135-0.0134-0.0135-0.0134-0.0135-0.0134-0.0135-0.0134-0.0135-0.0134-0.0135-0.0134-0.0135-0.0134-0.0135-0.0134-0.0135-0.0134-0.0135-0.0134h-1v0.0134 0.0135 0.0134 0.0135 0.0134 0.0135 0.0134 0.0135 0.0134 0.0135 0.0134 0.0135 0.0134 0.0135 0.0134 0.0135 0.0134 0.0135 0.0134 0.0135 0.0134 0.0135 0.0134 0.0135 0.0134 0.0135 0.0134 0.0135 0.0134 0.0135 0.0134 0.0135 0.0134 0.0135 0.0134 0.0135 0.0134 0.0135 0.0134 0.0135 0.0134 0.0135 0.0135 0.0134 0.0135 0.0134 0.0135 0.0134 0.0135 0.0134 0.0135 0.0134 0.0135 0.0134 0.0135 0.0134 0.0135 0.0134 0.0135 0.0134 0.0135 0.0134 0.0135 0.0134 0.0135 0.0134 0.0135 0.0134 0.0135 0.0134 0.0135 0.0134 0.0135 0.0134 0.0135 0.0134 0.0135 0.0134 0.0135 0.0134 0.0135 0.0134 0.0135 0.0134 0.0135 0.0134 0.0135 0.0134 0.0135 0.0134 0.0135 0.0134 0.0135 0.0135 0.0134 0.0135 0.0134 0.0135 0.0134 0.0135 0.0134 0.0135 0.0134 0.0135 0.0134 0.0135 0.0134 0.0135 0.0134 0.0135 0.0134 0.0135 0.0134 0.0135 0.0134 0.0135 0.0134 0.0135 0.0134 0.0135 0.0134 0.0135 0.0134 0.0135 0.0134 0.0135 0.0134 0.0135 0.0134 0.0135 0.0134 0.0135 0.0134 0.0135 0.0134 0.0135 0.0135 0.0134 0.0135 0.0134 0.0135 0.0134 0.0135 0.0134 0.0135 0.0134 0.0135 0.0134 0.0135 0.0134 0.0135 0.0134 0.0135 0.0134 0.0135 0.0134 0.0135 0.0134 0.0135 0.0134 0.0135 0.0134 0.0135 0.0134 0.0135 0.0134 0.0135 0.0134 0.0135 0.0134 0.0135 0.0134 0.0135 0.0134 0.0135 0.0134 0.0135 0.0134 0.0135 0.0134 0.0135 0.0134 0.0135 0.0134 0.0135 0.0135 0.0134 0.0135 0.0134 0.0135 0.0134 0.0135 0.0134 0.0135 0.0134 0.0135 0.0134 0.0135 0.0134 0.0135 0.0134 0.0135 0.0134 0.0135 0.0134 0.0135 0.0134 0.0135 0.0134 0.0135 0.0134 0.0135 0.0134 0.0135 0.0134 0.0135 0.0134 0.0135 0.0134 0.0135 0.0134 0.0135 0.0134 0.0135 0.0134 0.0135 0.0134 0.0135 0.0135 0.0134 0.0135 0.0134 0.0135 0.0134 0.0135 0.0134 0.0135 0.0134 0.0135 0.0134 0.0135 0.0134 0.0135 0.0134 0.0135 0.0134 0.0135 0.0134 0.0135 0.0134 0.0135 0.0134 0.0135 0.0134 0.0135 0.0134 0.0135 0.0134 0.0135 0.0134 0.0135 0.0134 0.0135 0.0134 0.0135 0.0134 0.0135 0.0134 0.0135 0.0134 0.0135 0.0134 0.0135 0.0134 0.0135 0.0134 0.0135 0.0135 0.0134 0.0135 0.0134 0.0135 0.0134 0.0135 0.0134 0.0135 0.0134 0.0135 0.0134 0.0135 0.0134 0.0135 0.0134 0.0135 0.0134 0.0135 0.0134 0.0135 0.0134 0.0135 0.0134 0.0135 0.0134 0.0135 0.0134 0.0135 0.0134 0.0135 0.0134 0.0135 0.0134 0.0135 0.0134 0.0135 0.0134 0.0135 0.0134 0.0135 0.0134 0.0135 0.0134 0.0135 0.0135 0.0134 0.0135 0.0134 0.0135 0.0134 0.0135 0.0134 0.0135 0.0134 0.0135 0.0134 0.0135 0.0134 0.0135 0.0134 0.0135 0.0134 0.0135 0.0134 0.0135 0.0134 0.0135 0.0134 0.0135 0.0134 0.0135 0.0134 0.0135 0.0134 0.0135 0.0134 0.0135 0.0134 0.0135 0.0134 0.0135 0.0134 0.0135 0.0134 0.0135 0.0134 0.0135 0.0134 0.0135 0.0134 0.0135 0.0135 0.0134 0.0135 0.0134 0.0135 0.0134 0.0135 0.0134 0.0135 0.0134 0.0135 0.0134 0.0135 0.0134 0.0135 0.0134 0.0135 0.0134 0.0135 0.0134 0.0135 0.0134 0.0135 0.0134 0.0135 0.0134 0.0135 0.0134 0.0135 0.0134 0.0135 0.0134 0.0135 0.0134 0.0135 0.0134 0.0135 0.0134 0.0135 0.0134 0.0135 0.0134 0.0135 0.0134 0.0135 0.0134 0.0135 0.0135 0.0134 0.0135 0.0134 0.0135 0.0134 0.0135 0.0134 0.0135 0.0134 0.0135 0.0134 0.0135 0.0134 0.0135 0.0134 0.0135 0.0134 0.0135 0.0134 0.0135 0.0134 0.0135 0.0134 0.0135 0.0134 0.0135 0.0134 0.0135 0.0134 0.0135 0.0134 0.0135 0.0134 0.0135 0.0134 0.0135 0.0134 0.0135 0.0134 0.0135 0.0134 0.0135 0.0134 0.0135 0.0135 0.0134 0.0135 0.0134 0.0135 0.0134 0.0135 0.0134 0.0135 0.0134 0.0135 0.0134 0.0135 0.0134 0.0135 0.0134 0.0135 0.0134 0.0135 0.0134 0.0135 0.0134 0.0135 0.0134 0.0135 0.0134 0.0135 0.0134 0.0135 0.0134 0.0135 0.0134 0.0135 0.0134 0.0135 0.0134 0.0135 0.0134 0.0135 0.0134 0.0135 0.0134 0.0135 0.0134 0.0135 0.0134 0.0135 0.0135 0.0134 0.0135 0.0134h1zm-0.5-6.3869h16.07v-1h-16.07v1zm13.519 1.5507h-10.968v1h10.968v-1zm-11.468 0.5v1.7855h1v-1.7855h-1zm0.5 2.2855h10.968v-1h-10.968v1zm11.468-0.5v-1.7855h-1v1.7855h1zm-47.933-4.3362v0.0134 0.0135 0.0134 0.0135 0.0134 0.0135 0.0134 0.0135 0.0134 0.0135 0.0134 0.0135 0.0134 0.0135 0.0134 0.0135 0.0134 0.0135 0.0134 0.0135 0.0134 0.0135 0.0134 0.0135 0.0134 0.0135 0.0134 0.0135 0.0134 0.0135 0.0134 0.0135 0.0134 0.0135 0.0134 0.0135 0.0134 0.0135 0.0134 0.0135 0.0134 0.0135 0.0135 0.0134 0.0135 0.0134 0.0135 0.0134 0.0135 0.0134 0.0135 0.0134 0.0135 0.0134 0.0135 0.0134 0.0135 0.0134 0.0135 0.0134 0.0135 0.0134 0.0135 0.0134 0.0135 0.0134 0.0135 0.0134 0.0135 0.0134 0.0135 0.0134 0.0135 0.0134 0.0135 0.0134 0.0135 0.0134 0.0135 0.0134 0.0135 0.0134 0.0135 0.0134 0.0135 0.0134 0.0135 0.0134 0.0135 0.0134 0.0135 0.0134 0.0135 0.0135 0.0134 0.0135 0.0134 0.0135 0.0134 0.0135 0.0134 0.0135 0.0134 0.0135 0.0134 0.0135 0.0134 0.0135 0.0134 0.0135 0.0134 0.0135 0.0134 0.0135 0.0134 0.0135 0.0134 0.0135 0.0134 0.0135 0.0134 0.0135 0.0134 0.0135 0.0134 0.0135 0.0134 0.0135 0.0134 0.0135 0.0134 0.0135 0.0134 0.0135 0.0134 0.0135 0.0135 0.0134 0.0135 0.0134 0.0135 0.0134 0.0135 0.0134 0.0135 0.0134 0.0135 0.0134 0.0135 0.0134 0.0135 0.0134 0.0135 0.0134 0.0135 0.0134 0.0135 0.0134 0.0135 0.0134 0.0135 0.0134 0.0135 0.0134 0.0135 0.0134 0.0135 0.0134 0.0135 0.0134 0.0135 0.0134 0.0135 0.0134 0.0135 0.0134 0.0135 0.0134 0.0135 0.0134 0.0135 0.0134 0.0135 0.0134 0.0135 0.0135 0.0134 0.0135 0.0134 0.0135 0.0134 0.0135 0.0134 0.0135 0.0134 0.0135 0.0134 0.0135 0.0134 0.0135 0.0134 0.0135 0.0134 0.0135 0.0134 0.0135 0.0134 0.0135 0.0134 0.0135 0.0134 0.0135 0.0134 0.0135 0.0134 0.0135 0.0134 0.0135 0.0134 0.0135 0.0134 0.0135 0.0134 0.0135 0.0134 0.0135 0.0134 0.0135 0.0135 0.0134 0.0135 0.0134 0.0135 0.0134 0.0135 0.0134 0.0135 0.0134 0.0135 0.0134 0.0135 0.0134 0.0135 0.0134 0.0135 0.0134 0.0135 0.0134 0.0135 0.0134 0.0135 0.0134 0.0135 0.0134 0.0135 0.0134 0.0135 0.0134 0.0135 0.0134 0.0135 0.0134 0.0135 0.0134 0.0135 0.0134 0.0135 0.0134 0.0135 0.0134 0.0135 0.0134 0.0135 0.0134 0.0135 0.0134 0.0135 0.0135 0.0134 0.0135 0.0134 0.0135 0.0134 0.0135 0.0134 0.0135 0.0134 0.0135 0.0134 0.0135 0.0134 0.0135 0.0134 0.0135 0.0134 0.0135 0.0134 0.0135 0.0134 0.0135 0.0134 0.0135 0.0134 0.0135 0.0134 0.0135 0.0134 0.0135 0.0134 0.0135 0.0134 0.0135 0.0134 0.0135 0.0134 0.0135 0.0134 0.0135 0.0134 0.0135 0.0134 0.0135 0.0135 0.0134 0.0135 0.0134 0.0135 0.0134 0.0135 0.0134 0.0135 0.0134 0.0135 0.0134 0.0135 0.0134 0.0135 0.0134 0.0135 0.0134 0.0135 0.0134 0.0135 0.0134 0.0135 0.0134 0.0135 0.0134 0.0135 0.0134 0.0135 0.0134 0.0135 0.0134 0.0135 0.0134 0.0135 0.0134 0.0135 0.0134 0.0135 0.0134 0.0135 0.0134 0.0135 0.0134 0.0135 0.0134 0.0135 0.0135 0.0134 0.0135 0.0134 0.0135 0.0134 0.0135 0.0134 0.0135 0.0134 0.0135 0.0134 0.0135 0.0134 0.0135 0.0134 0.0135 0.0134 0.0135 0.0134 0.0135 0.0134 0.0135 0.0134 0.0135 0.0134 0.0135 0.0134 0.0135 0.0134 0.0135 0.0134 0.0135 0.0134 0.0135 0.0134 0.0135 0.0134 0.0135 0.0134 0.0135 0.0134 0.0135 0.0134 0.0135 0.0134 0.0135 0.0135 0.0134 0.0135 0.0134 0.0135 0.0134 0.0135 0.0134 0.0135 0.0134 0.0135 0.0134 0.0135 0.0134 0.0135 0.0134 0.0135 0.0134 0.0135 0.0134 0.0135 0.0134 0.0135 0.0134 0.0135 0.0134 0.0135 0.0134 0.0135 0.0134 0.0135 0.0134 0.0135 0.0134 0.0135 0.0134 0.0135 0.0134 0.0135 0.0134 0.0135 0.0134 0.0135 0.0134 0.0135 0.0135 0.0134 0.0135 0.0134 0.0135 0.0134 0.0135 0.0134 0.0135 0.0134 0.0135 0.0134 0.0135 0.0134 0.0135 0.0134 0.0135 0.0134 0.0135 0.0134 0.0135 0.0134 0.0135 0.0134 0.0135 0.0134 0.0135 0.0134 0.0135 0.0134 0.0135 0.0134 0.0135 0.0134 0.0135 0.0134 0.0135 0.0134 0.0135 0.0134 0.0135 0.0134 0.0135 0.0134 0.0135 0.0134 0.0135 0.0135 0.0134 0.0135 0.0134h1v-0.0134-0.0135-0.0134-0.0135-0.0135-0.0134-0.0135-0.0134-0.0135-0.0134-0.0135-0.0134-0.0135-0.0134-0.0135-0.0134-0.0135-0.0134-0.0135-0.0134-0.0135-0.0134-0.0135-0.0134-0.0135-0.0134-0.0135-0.0134-0.0135-0.0134-0.0135-0.0134-0.0135-0.0134-0.0135-0.0134-0.0135-0.0134-0.0135-0.0134-0.0135-0.0134-0.0135-0.0134-0.0135-0.0134-0.0135-0.0134-0.0135-0.0134-0.0135-0.0135-0.0134-0.0135-0.0134-0.0135-0.0134-0.0135-0.0134-0.0135-0.0134-0.0135-0.0134-0.0135-0.0134-0.0135-0.0134-0.0135-0.0134-0.0135-0.0134-0.0135-0.0134-0.0135-0.0134-0.0135-0.0134-0.0135-0.0134-0.0135-0.0134-0.0135-0.0134-0.0135-0.0134-0.0135-0.0134-0.0135-0.0134-0.0135-0.0134-0.0135-0.0134-0.0135-0.0134-0.0135-0.0135-0.0134-0.0135-0.0134-0.0135-0.0134-0.0135-0.0134-0.0135-0.0134-0.0135-0.0134-0.0135-0.0134-0.0135-0.0134-0.0135-0.0134-0.0135-0.0134-0.0135-0.0134-0.0135-0.0134-0.0135-0.0134-0.0135-0.0134-0.0135-0.0134-0.0135-0.0134-0.0135-0.0134-0.0135-0.0134-0.0135-0.0134-0.0135-0.0134-0.0135-0.0134-0.0135-0.0134-0.0135-0.0134-0.0135-0.0135-0.0134-0.0135-0.0134-0.0135-0.0134-0.0135-0.0134-0.0135-0.0134-0.0135-0.0134-0.0135-0.0134-0.0135-0.0134-0.0135-0.0134-0.0135-0.0134-0.0135-0.0134-0.0135-0.0134-0.0135-0.0134-0.0135-0.0134-0.0135-0.0134-0.0135-0.0134-0.0135-0.0134-0.0135-0.0134-0.0135-0.0134-0.0135-0.0134-0.0135-0.0134-0.0135-0.0134-0.0135-0.0134-0.0135-0.0135-0.0134-0.0135-0.0134-0.0135-0.0134-0.0135-0.0134-0.0135-0.0134-0.0135-0.0134-0.0135-0.0134-0.0135-0.0134-0.0135-0.0134-0.0135-0.0134-0.0135-0.0134-0.0135-0.0134-0.0135-0.0134-0.0135-0.0134-0.0135-0.0134-0.0135-0.0134-0.0135-0.0134-0.0135-0.0134-0.0135-0.0134-0.0135-0.0134-0.0135-0.0134-0.0135-0.0134-0.0135-0.0135-0.0134-0.0135-0.0134-0.0135-0.0134-0.0135-0.0134-0.0135-0.0134-0.0135-0.0134-0.0135-0.0134-0.0135-0.0134-0.0135-0.0134-0.0135-0.0134-0.0135-0.0134-0.0135-0.0134-0.0135-0.0134-0.0135-0.0134-0.0135-0.0134-0.0135-0.0134-0.0135-0.0134-0.0135-0.0134-0.0135-0.0134-0.0135-0.0134-0.0135-0.0134-0.0135-0.0134-0.0135-0.0134-0.0135-0.0134-0.0135-0.0135-0.0134-0.0135-0.0134-0.0135-0.0134-0.0135-0.0134-0.0135-0.0134-0.0135-0.0134-0.0135-0.0134-0.0135-0.0134-0.0135-0.0134-0.0135-0.0134-0.0135-0.0134-0.0135-0.0134-0.0135-0.0134-0.0135-0.0134-0.0135-0.0134-0.0135-0.0134-0.0135-0.0134-0.0135-0.0134-0.0135-0.0134-0.0135-0.0134-0.0135-0.0134-0.0135-0.0135-0.0134-0.0135-0.0134-0.0135-0.0134-0.0135-0.0134-0.0135-0.0134-0.0135-0.0134-0.0135-0.0134-0.0135-0.0134-0.0135-0.0134-0.0135-0.0134-0.0135-0.0134-0.0135-0.0134-0.0135-0.0134-0.0135-0.0134-0.0135-0.0134-0.0135-0.0134-0.0135-0.0134-0.0135-0.0134-0.0135-0.0134-0.0135-0.0134-0.0135-0.0134-0.0135-0.0134-0.0135-0.0134-0.0135-0.0134-0.0135-0.0135-0.0134-0.0135-0.0134-0.0135-0.0134-0.0135-0.0134-0.0135-0.0134-0.0135-0.0134-0.0135-0.0134-0.0135-0.0134-0.0135-0.0134-0.0135-0.0134-0.0135-0.0134-0.0135-0.0134-0.0135-0.0134-0.0135-0.0134-0.0135-0.0134-0.0135-0.0134-0.0135-0.0134-0.0135-0.0134-0.0135-0.0134-0.0135-0.0134-0.0135-0.0134-0.0135-0.0135-0.0134-0.0135-0.0134-0.0135-0.0134-0.0135-0.0134-0.0135-0.0134-0.0135-0.0134-0.0135-0.0134-0.0135-0.0134-0.0135-0.0134-0.0135-0.0134-0.0135-0.0134-0.0135-0.0134-0.0135-0.0134-0.0135-0.0134-0.0135-0.0134-0.0135-0.0134-0.0135-0.0134-0.0135-0.0134-0.0135-0.0134-0.0135-0.0134-0.0135-0.0134-0.0135-0.0134-0.0135-0.0134-0.0135-0.0134-0.0135-0.0134-0.0135-0.0135-0.0134-0.0135-0.0134-0.0135-0.0134-0.0135-0.0134-0.0135-0.0134-0.0135-0.0134-0.0135-0.0134-0.0135-0.0134-0.0135-0.0134-0.0135-0.0134-0.0135-0.0134-0.0135-0.0134-0.0135-0.0134-0.0135-0.0134-0.0135-0.0134-0.0135-0.0134-0.0135-0.0134-0.0135-0.0134-0.0135-0.0134-0.0135-0.0134-0.0135-0.0134h-1zm0.5 6.3869h-16.07v1h16.07v-1zm-15.57 0.5v-0.0134-0.0135-0.0134-0.0135-0.0135-0.0134-0.0135-0.0134-0.0135-0.0134-0.0135-0.0134-0.0135-0.0134-0.0135-0.0134-0.0135-0.0134-0.0135-0.0134-0.0135-0.0134-0.0135-0.0134-0.0135-0.0134-0.0135-0.0134-0.0135-0.0134-0.0135-0.0134-0.0135-0.0134-0.0135-0.0134-0.0135-0.0134-0.0135-0.0134-0.0135-0.0134-0.0135-0.0134-0.0135-0.0134-0.0135-0.0134-0.0135-0.0134-0.0135-0.0135-0.0134-0.0135-0.0134-0.0135-0.0134-0.0135-0.0134-0.0135-0.0134-0.0135-0.0134-0.0135-0.0134-0.0135-0.0134-0.0135-0.0134-0.0135-0.0134-0.0135-0.0134-0.0135-0.0134-0.0135-0.0134-0.0135-0.0134-0.0135-0.0134-0.0135-0.0134-0.0135-0.0134-0.0135-0.0134-0.0135-0.0134-0.0135-0.0134-0.0135-0.0134-0.0135-0.0134-0.0135-0.0135-0.0134-0.0135-0.0134-0.0135-0.0134-0.0135-0.0134-0.0135-0.0134-0.0135-0.0134-0.0135-0.0134-0.0135-0.0134-0.0135-0.0134-0.0135-0.0134-0.0135-0.0134-0.0135-0.0134-0.0135-0.0134-0.0135-0.0134-0.0135-0.0134-0.0135-0.0134-0.0135-0.0134-0.0135-0.0134-0.0135-0.0134-0.0135-0.0134-0.0135-0.0134-0.0135-0.0134-0.0135-0.0134-0.0135-0.0135-0.0134-0.0135-0.0134-0.0135-0.0134-0.0135-0.0134-0.0135-0.0134-0.0135-0.0134-0.0135-0.0134-0.0135-0.0134-0.0135-0.0134-0.0135-0.0134-0.0135-0.0134-0.0135-0.0134-0.0135-0.0134-0.0135-0.0134-0.0135-0.0134-0.0135-0.0134-0.0135-0.0134-0.0135-0.0134-0.0135-0.0134-0.0135-0.0134-0.0135-0.0134-0.0135-0.0134-0.0135-0.0134-0.0135-0.0135-0.0134-0.0135-0.0134-0.0135-0.0134-0.0135-0.0134-0.0135-0.0134-0.0135-0.0134-0.0135-0.0134-0.0135-0.0134-0.0135-0.0134-0.0135-0.0134-0.0135-0.0134-0.0135-0.0134-0.0135-0.0134-0.0135-0.0134-0.0135-0.0134-0.0135-0.0134-0.0135-0.0134-0.0135-0.0134-0.0135-0.0134-0.0135-0.0134-0.0135-0.0134-0.0135-0.0134-0.0135-0.0135-0.0134-0.0135-0.0134-0.0135-0.0134-0.0135-0.0134-0.0135-0.0134-0.0135-0.0134-0.0135-0.0134-0.0135-0.0134-0.0135-0.0134-0.0135-0.0134-0.0135-0.0134-0.0135-0.0134-0.0135-0.0134-0.0135-0.0134-0.0135-0.0134-0.0135-0.0134-0.0135-0.0134-0.0135-0.0134-0.0135-0.0134-0.0135-0.0134-0.0135-0.0134-0.0135-0.0134-0.0135-0.0134-0.0135-0.0134-0.0135-0.0135-0.0134-0.0135-0.0134-0.0135-0.0134-0.0135-0.0134-0.0135-0.0134-0.0135-0.0134-0.0135-0.0134-0.0135-0.0134-0.0135-0.0134-0.0135-0.0134-0.0135-0.0134-0.0135-0.0134-0.0135-0.0134-0.0135-0.0134-0.0135-0.0134-0.0135-0.0134-0.0135-0.0134-0.0135-0.0134-0.0135-0.0134-0.0135-0.0134-0.0135-0.0134-0.0135-0.0135-0.0134-0.0135-0.0134-0.0135-0.0134-0.0135-0.0134-0.0135-0.0134-0.0135-0.0134-0.0135-0.0134-0.0135-0.0134-0.0135-0.0134-0.0135-0.0134-0.0135-0.0134-0.0135-0.0134-0.0135-0.0134-0.0135-0.0134-0.0135-0.0134-0.0135-0.0134-0.0135-0.0134-0.0135-0.0134-0.0135-0.0134-0.0135-0.0134-0.0135-0.0134-0.0135-0.0134-0.0135-0.0134-0.0135-0.0134-0.0135-0.0135-0.0134-0.0135-0.0134-0.0135-0.0134-0.0135-0.0134-0.0135-0.0134-0.0135-0.0134-0.0135-0.0134-0.0135-0.0134-0.0135-0.0134-0.0135-0.0134-0.0135-0.0134-0.0135-0.0134-0.0135-0.0134-0.0135-0.0134-0.0135-0.0134-0.0135-0.0134-0.0135-0.0134-0.0135-0.0134-0.0135-0.0134-0.0135-0.0134-0.0135-0.0134-0.0135-0.0135-0.0134-0.0135-0.0134-0.0135-0.0134-0.0135-0.0134-0.0135-0.0134-0.0135-0.0134-0.0135-0.0134-0.0135-0.0134-0.0135-0.0134-0.0135-0.0134-0.0135-0.0134-0.0135-0.0134-0.0135-0.0134-0.0135-0.0134-0.0135-0.0134-0.0135-0.0134-0.0135-0.0134-0.0135-0.0134-0.0135-0.0134-0.0135-0.0134-0.0135-0.0134-0.0135-0.0134-0.0135-0.0134-0.0135-0.0134-0.0135-0.0134-0.0135-0.0135-0.0134-0.0135-0.0134-0.0135-0.0134-0.0135-0.0134-0.0135-0.0134-0.0135-0.0134-0.0135-0.0134-0.0135-0.0134-0.0135-0.0134-0.0135-0.0134-0.0135-0.0134-0.0135-0.0134-0.0135-0.0134-0.0135-0.0134-0.0135-0.0134-0.0135-0.0134-0.0135-0.0134-0.0135-0.0134-0.0135-0.0134-0.0135-0.0134-0.0135-0.0134h-1v0.0134 0.0135 0.0134 0.0135 0.0134 0.0135 0.0134 0.0135 0.0134 0.0135 0.0134 0.0135 0.0134 0.0135 0.0134 0.0135 0.0134 0.0135 0.0134 0.0135 0.0134 0.0135 0.0134 0.0135 0.0134 0.0135 0.0134 0.0135 0.0134 0.0135 0.0134 0.0135 0.0134 0.0135 0.0134 0.0135 0.0134 0.0135 0.0134 0.0135 0.0134 0.0135 0.0135 0.0134 0.0135 0.0134 0.0135 0.0134 0.0135 0.0134 0.0135 0.0134 0.0135 0.0134 0.0135 0.0134 0.0135 0.0134 0.0135 0.0134 0.0135 0.0134 0.0135 0.0134 0.0135 0.0134 0.0135 0.0134 0.0135 0.0134 0.0135 0.0134 0.0135 0.0134 0.0135 0.0134 0.0135 0.0134 0.0135 0.0134 0.0135 0.0134 0.0135 0.0134 0.0135 0.0134 0.0135 0.0134 0.0135 0.0134 0.0135 0.0134 0.0135 0.0135 0.0134 0.0135 0.0134 0.0135 0.0134 0.0135 0.0134 0.0135 0.0134 0.0135 0.0134 0.0135 0.0134 0.0135 0.0134 0.0135 0.0134 0.0135 0.0134 0.0135 0.0134 0.0135 0.0134 0.0135 0.0134 0.0135 0.0134 0.0135 0.0134 0.0135 0.0134 0.0135 0.0134 0.0135 0.0134 0.0135 0.0134 0.0135 0.0134 0.0135 0.0134 0.0135 0.0135 0.0134 0.0135 0.0134 0.0135 0.0134 0.0135 0.0134 0.0135 0.0134 0.0135 0.0134 0.0135 0.0134 0.0135 0.0134 0.0135 0.0134 0.0135 0.0134 0.0135 0.0134 0.0135 0.0134 0.0135 0.0134 0.0135 0.0134 0.0135 0.0134 0.0135 0.0134 0.0135 0.0134 0.0135 0.0134 0.0135 0.0134 0.0135 0.0134 0.0135 0.0134 0.0135 0.0134 0.0135 0.0134 0.0135 0.0134 0.0135 0.0135 0.0134 0.0135 0.0134 0.0135 0.0134 0.0135 0.0134 0.0135 0.0134 0.0135 0.0134 0.0135 0.0134 0.0135 0.0134 0.0135 0.0134 0.0135 0.0134 0.0135 0.0134 0.0135 0.0134 0.0135 0.0134 0.0135 0.0134 0.0135 0.0134 0.0135 0.0134 0.0135 0.0134 0.0135 0.0134 0.0135 0.0134 0.0135 0.0134 0.0135 0.0134 0.0135 0.0135 0.0134 0.0135 0.0134 0.0135 0.0134 0.0135 0.0134 0.0135 0.0134 0.0135 0.0134 0.0135 0.0134 0.0135 0.0134 0.0135 0.0134 0.0135 0.0134 0.0135 0.0134 0.0135 0.0134 0.0135 0.0134 0.0135 0.0134 0.0135 0.0134 0.0135 0.0134 0.0135 0.0134 0.0135 0.0134 0.0135 0.0134 0.0135 0.0134 0.0135 0.0134 0.0135 0.0134 0.0135 0.0134 0.0135 0.0134 0.0135 0.0135 0.0134 0.0135 0.0134 0.0135 0.0134 0.0135 0.0134 0.0135 0.0134 0.0135 0.0134 0.0135 0.0134 0.0135 0.0134 0.0135 0.0134 0.0135 0.0134 0.0135 0.0134 0.0135 0.0134 0.0135 0.0134 0.0135 0.0134 0.0135 0.0134 0.0135 0.0134 0.0135 0.0134 0.0135 0.0134 0.0135 0.0134 0.0135 0.0134 0.0135 0.0134 0.0135 0.0134 0.0135 0.0135 0.0134 0.0135 0.0134 0.0135 0.0134 0.0135 0.0134 0.0135 0.0134 0.0135 0.0134 0.0135 0.0134 0.0135 0.0134 0.0135 0.0134 0.0135 0.0134 0.0135 0.0134 0.0135 0.0134 0.0135 0.0134 0.0135 0.0134 0.0135 0.0134 0.0135 0.0134 0.0135 0.0134 0.0135 0.0134 0.0135 0.0134 0.0135 0.0134 0.0135 0.0134 0.0135 0.0134 0.0135 0.0134 0.0135 0.0135 0.0134 0.0135 0.0134 0.0135 0.0134 0.0135 0.0134 0.0135 0.0134 0.0135 0.0134 0.0135 0.0134 0.0135 0.0134 0.0135 0.0134 0.0135 0.0134 0.0135 0.0134 0.0135 0.0134 0.0135 0.0134 0.0135 0.0134 0.0135 0.0134 0.0135 0.0134 0.0135 0.0134 0.0135 0.0134 0.0135 0.0134 0.0135 0.0134 0.0135 0.0134 0.0135 0.0134 0.0135 0.0134 0.0135 0.0135 0.0134 0.0135 0.0134 0.0135 0.0134 0.0135 0.0134 0.0135 0.0134 0.0135 0.0134 0.0135 0.0134 0.0135 0.0134 0.0135 0.0134 0.0135 0.0134 0.0135 0.0134 0.0135 0.0134 0.0135 0.0134 0.0135 0.0134 0.0135 0.0134 0.0135 0.0134 0.0135 0.0134 0.0135 0.0134 0.0135 0.0134 0.0135 0.0134 0.0135 0.0134 0.0135 0.0134 0.0135 0.0135 0.0134 0.0135 0.0134 0.0135 0.0134 0.0135 0.0134 0.0135 0.0134 0.0135 0.0134 0.0135 0.0134 0.0135 0.0134 0.0135 0.0134 0.0135 0.0134 0.0135 0.0134 0.0135 0.0134 0.0135 0.0134 0.0135 0.0134 0.0135 0.0134 0.0135 0.0134 0.0135 0.0134 0.0135 0.0134 0.0135 0.0134 0.0135 0.0134 0.0135 0.0134 0.0135 0.0134 0.0135 0.0134 0.0135 0.0135 0.0134 0.0135 0.0134h1zm-0.5-6.3869h16.07v-1h-16.07v1zm13.519 1.5507h-10.968v1h10.968v-1zm-11.468 0.5v1.7855h1v-1.7855h-1zm0.5 2.2855h10.968v-1h-10.968v1zm11.468-0.5v-1.7855h-1v1.7855h1zm52.81-17.08h-68.104v1h68.104v-1zm-68.104 0c-4.334 0-7.897 3.262-7.897 7.642h1c0-3.7823 3.069-6.642 6.897-6.642v-1zm-7.897 7.642v15.559h1v-15.559h-1zm0.5 16.059h82.643v-1h-82.643v1zm83.143-0.5v-15.559h-1v15.559h1zm0-15.559c0-4.3573-3.285-7.642-7.642-7.642v1c3.805 0 6.642 2.837 6.642 6.642h1z" fill="#fff" mask="url(#a)"/>
<path d="m235.15 11.954c-6.603-6.6029-17.304-6.6029-23.907 0l1.138 1.1385c5.92-5.9199 15.597-6.0338 21.63 0l1.139-1.1385z" fill="#151F41"/>
<path d="m228.66 18.443c-3.074-3.0738-7.969-3.1876-11.043-0.1138l1.252 1.2523c2.391-2.3908 6.262-2.3908 8.652 0l1.139-1.1385z" fill="#151F41"/>
<path d="m231.85 15.255c-4.781-4.7815-12.522-4.7815-17.304 0l1.139 1.1384c4.098-4.0984 10.929-4.0984 15.027 0l1.138-1.1384z" fill="#151F41"/>
<path d="m84.837 20h-81.673c-1.744 0-3.1634 1.4194-3.1634 3.1634v50.614c0 1.7446 1.4188 3.1634 3.1634 3.1634h28.471v6.511h-16.105c-1.1099 0-2.0131 0.9032-2.0131 2.0131v2.3006c0 1.1099 0.9032 2.0131 2.0131 2.0131h64.073c1.3638 0 2.4731-1.1043 2.4731-2.4619v-10.376h2.7607c1.744 0 3.1634-1.4188 3.1634-3.1634v-50.614c0-1.744-1.4194-3.1634-3.1634-3.1634zm-81.673 55.216c-0.7931 0-1.4379-0.6448-1.4379-1.4379v-5.6595h62.566v7.0974h-8.7692c-0.0069-2e-4 -0.0125-0.0039-0.0194-0.0039h-23.007c-0.0068 0-0.0125 0.0037-0.0194 0.0039h-29.314zm61.128 1.7255v6.511h-7.9259v-6.511h7.9259zm-9.6514 0v6.511h-21.281v-6.511h21.281zm-39.111 11.112c-0.1612 0-0.2876-0.1264-0.2876-0.2876v-2.3006c0-0.1562 0.1315-0.2876 0.2876-0.2876h16.948c0.0069 1e-4 0.0126 0.0039 0.0194 0.0039h23.007c0.0069 0 0.0125-0.0038 0.0194-0.0039h8.7692v2.1394c0 0.2289 0.0417 0.4463 0.1007 0.6567 0.0072 0.0255 0.0043 0.0546 0.0122 0.0797h-48.875zm64.821-20.798v20.062c0 0.4061-0.3353 0.7364-0.7476 0.7364h-12.838c-0.4123 0-0.7476-0.3303-0.7476-0.7364v-31.3c0-0.4123 0.3353-0.7476 0.7476-0.7476h12.838c0.4123 0 0.7476 0.3353 0.7476 0.7476v11.239zm5.9241 6.5223c0 0.7931-0.6448 1.4379-1.4379 1.4379h-2.7607v-7.0974h4.1986v5.6595zm0-7.385h-4.1986v-10.376c0-1.3638-1.1093-2.4731-2.4731-2.4731h-12.838c-1.3638 0-2.4731 1.1093-2.4731 2.4731v10.376h-62.566v-43.229c0-0.7931 0.64481-1.4379 1.4379-1.4379h81.673c0.7931 0 1.4379 0.6448 1.4379 1.4379v43.229z" fill="#151F41"/>
<path d="m39.616 74.108h8.7713c1.348 0 2.4444-1.0964 2.4444-2.4444 0-1.3481-1.0964-2.4445-2.4444-2.4445h-8.7713c-1.348 0-2.4444 1.0964-2.4444 2.4445 0 1.348 1.0964 2.4444 2.4444 2.4444zm0-3.1634h8.7713c0.3965 0 0.7189 0.3224 0.7189 0.719 0 0.3965-0.3224 0.7189-0.7189 0.7189h-8.7713c-0.3965 0-0.7189-0.3224-0.7189-0.7189 0-0.3966 0.3224-0.719 0.7189-0.719z" fill="#151F41"/>
<path d="m15.624 69.219c-1.348 0-2.4444 1.0964-2.4444 2.4445 0 1.348 1.0964 2.4444 2.4444 2.4444 1.3481 0 2.4445-1.0964 2.4445-2.4444 0-1.3481-1.0964-2.4445-2.4445-2.4445zm0 3.1634c-0.3965 0-0.7189-0.3224-0.7189-0.7189 0-0.3966 0.3224-0.719 0.7189-0.719 0.3966 0 0.719 0.3224 0.719 0.719 0 0.3965-0.3224 0.7189-0.719 0.7189z" fill="#151F41"/>
<path d="m8.9288 69.219c-1.348 0-2.4444 1.0964-2.4444 2.4445 0 1.348 1.0964 2.4444 2.4444 2.4444 1.3481 0 2.4445-1.0964 2.4445-2.4444 0-1.3481-1.0964-2.4445-2.4445-2.4445zm0 3.1634c-0.39655 0-0.71895-0.3224-0.71895-0.7189 0-0.3966 0.3224-0.719 0.71895-0.719s0.71895 0.3224 0.71895 0.719c0 0.3965-0.3224 0.7189-0.71895 0.7189z" fill="#151F41"/>
<path d="m76.38 62.459c0-1.7698-1.4346-3.2094-3.1977-3.2094-1.7699 0-3.2094 1.4396-3.2094 3.2094 0 1.7631 1.4395 3.1977 3.2094 3.1977 1.7631 0 3.1977-1.4346 3.1977-3.1977zm-3.1977 1.4722c-0.8184 0-1.484-0.6605-1.484-1.4722 0-0.8183 0.6656-1.4839 1.484-1.4839 0.8116 0 1.4722 0.6656 1.4722 1.4839 0 0.8117-0.6606 1.4722-1.4722 1.4722z" fill="#151F41"/>
<path d="m70.16 67.577c-1.3896 0-2.5197 1.1301-2.5197 2.5192 0 1.3896 1.1301 2.5197 2.5197 2.5197 1.3891 0 2.5192-1.1301 2.5192-2.5197 0-1.3891-1.1301-2.5192-2.5192-2.5192zm0 3.3134c-0.4381 0-0.7942-0.3561-0.7942-0.7942 0-0.4449 0.3488-0.7937 0.7942-0.7937 0.4376 0 0.7937 0.3561 0.7937 0.7937 0 0.4302-0.3634 0.7942-0.7937 0.7942z" fill="#151F41"/>
<path d="m76.211 67.577c-1.3891 0-2.5192 1.1301-2.5192 2.5192 0 1.3896 1.1301 2.5197 2.5192 2.5197 1.389 0 2.5191-1.1301 2.5191-2.5197 0-1.3891-1.1301-2.5192-2.5191-2.5192zm0 3.3134c-0.4303 0-0.7937-0.364-0.7937-0.7942 0-0.4376 0.3561-0.7937 0.7937-0.7937 0.4375 0 0.7936 0.3561 0.7936 0.7937 0 0.4302-0.3634 0.7942-0.7936 0.7942z" fill="#151F41"/>
<path d="m70.16 73.306c-1.3896 0-2.5197 1.1301-2.5197 2.5197 0 0.1179 0.0146 0.2539 0.032 0.3769 0.177 1.2211 1.2464 2.1422 2.4877 2.1422 1.2408 0 2.3102-0.9211 2.4877-2.1467 0.0169-0.1185 0.0315-0.2545 0.0315-0.3724 0-1.3896-1.1301-2.5197-2.5192-2.5197zm0.7797 2.6483c-0.0551 0.3791-0.3904 0.665-0.7797 0.665-0.3898 0-0.7251-0.2859-0.7796-0.6605-0.0056-0.0421-0.014-0.0904-0.0146-0.1331 0-0.4381 0.3561-0.7942 0.7942-0.7942 0.4303 0 0.7937 0.3634 0.7937 0.7942-6e-4 0.0427-9e-3 0.091-0.014 0.1286z" fill="#151F41"/>
<path d="m76.211 73.306c-1.3891 0-2.5192 1.1301-2.5192 2.5197 0 0.1202 0.0146 0.2578 0.032 0.3769 0.177 1.2211 1.2464 2.1422 2.4872 2.1422 1.2407 0 2.3102-0.9211 2.4871-2.1411 0.0174-0.1202 0.032-0.2578 0.032-0.378 0-1.3896-1.1301-2.5197-2.5191-2.5197zm0.7796 2.6483c-0.0551 0.3791-0.3904 0.665-0.7796 0.665-0.3893 0-0.7246-0.2859-0.7797-0.6661-0.0061-0.0405-0.014-0.0871-0.014-0.1275 0-0.4303 0.3634-0.7942 0.7937-0.7942 0.4302 0 0.7936 0.3639 0.7936 0.7942 0 0.0404-0.0079 0.087-0.014 0.1286z" fill="#151F41"/>
<path d="m70.16 79.035c-1.3896 0-2.5197 1.1301-2.5197 2.5191s1.1301 2.5192 2.5197 2.5192c1.3891 0 2.5192-1.1302 2.5192-2.5192s-1.1301-2.5191-2.5192-2.5191zm0 3.3128c-0.4454 0-0.7942-0.3488-0.7942-0.7937 0-0.4375 0.3561-0.7937 0.7942-0.7937 0.4303 0 0.7937 0.3635 0.7937 0.7937 0 0.4376-0.3561 0.7937-0.7937 0.7937z" fill="#151F41"/>
<path d="m76.211 79.035c-1.3891 0-2.5192 1.1301-2.5192 2.5191s1.1301 2.5192 2.5192 2.5192c1.389 0 2.5191-1.1302 2.5191-2.5192s-1.1301-2.5191-2.5191-2.5191zm0 3.3128c-0.4376 0-0.7937-0.3561-0.7937-0.7937 0-0.4302 0.3634-0.7937 0.7937-0.7937 0.4302 0 0.7936 0.3635 0.7936 0.7937 0 0.4376-0.3561 0.7937-0.7936 0.7937z" fill="#151F41"/>
<path d="m116.97 72c-0.93 0-1.712-0.3059-2.346-0.9175-0.592-0.6554-0.888-1.4638-0.888-2.425v-8.7822h-8.499c-0.931 0-1.713-0.3277-2.347-0.9831-0.592-0.6554-0.888-1.4637-0.888-2.425 0-0.9612 0.296-1.7477 0.888-2.3594 0.634-0.6554 1.416-0.9831 2.347-0.9831h8.499v-8.7822c0-0.9176 0.317-1.704 0.951-2.3594 0.677-0.6554 1.438-0.9831 2.283-0.9831 0.973 0 1.755 0.3277 2.347 0.9831 0.592 0.6117 0.888 1.3982 0.888 2.3594v8.7822h8.499c0.888 0 1.649 0.3277 2.283 0.9831 0.677 0.6554 1.015 1.4637 1.015 2.425 0 0.9175-0.338 1.704-1.015 2.3594-0.634 0.6554-1.395 0.9831-2.283 0.9831h-8.499v8.7822c0 0.9612-0.296 1.7696-0.888 2.425-0.592 0.6116-1.374 0.9175-2.347 0.9175z" fill="#60FEB2"/>
</svg>
